<svg xmlns="http://www.w3.org/2000/svg" width="326" height="85"><path fill="none" d="M0 0h326v85H0z"/><path d="M68.175 1.08a25.725 25.725 0 016.952.99 21.926 21.926 0 016.456 2.97 16.3 16.3 0 014.78 5.01 13.415 13.415 0 011.863 7.17 13.413 13.413 0 01-1.863 7.17 16.287 16.287 0 01-4.78 5.01 20.308 20.308 0 01-6.456 2.88 28.128 28.128 0 01-6.952.9 28.139 28.139 0 01-6.953-.9 20.318 20.318 0 01-6.456-2.88 16.292 16.292 0 01-4.78-5.01 13.413 13.413 0 01-1.863-7.17 13.415 13.415 0 011.863-7.17 16.305 16.305 0 014.78-5.01 21.938 21.938 0 016.456-2.97 25.735 25.735 0 016.953-.99zm0 5.52a16.082 16.082 0 00-4.718.72 14.622 14.622 0 00-4.253 2.07 10.89 10.89 0 00-3.072 3.33 8.616 8.616 0 00-1.18 4.5 8.616 8.616 0 001.18 4.5 10.893 10.893 0 003.072 3.33 14.622 14.622 0 004.253 2.07 16.082 16.082 0 004.718.72 16.1 16.1 0 004.718-.72 14.632 14.632 0 004.252-2.07 10.92 10.92 0 003.073-3.33 8.635 8.635 0 001.18-4.5 8.634 8.634 0 00-1.18-4.5 10.917 10.917 0 00-3.073-3.33 14.632 14.632 0 00-4.252-2.07 16.1 16.1 0 00-4.718-.72zm25.452 25.32q1.177 0 1.179-1.08V3.6q0-1.08-1.179-1.08V1.44h10.615v1.08c-.332 0-.5.2-.5.6q0 .48 1.242 1.68L122.8 22.68V3.6q0-1.08-1.613-1.08V1.44h9.373v1.08q-1.179 0-1.179 1.08v27.24q0 1.08 1.179 1.08V33h-10.057v-1.08q.807 0 .808-.54 0-.419-.994-1.38l-18.933-19.08v19.92q0 1.08 1.428 1.08V33h-9.188zm76.422 2.22q0-.9-.59-1.02a7.775 7.775 0 00-1.52-.12h-29.55v-1.08q1.863 0 1.862-1.08V3.6q0-1.08-1.862-1.08V1.44h10.678v1.08q-1.74 0-1.739 1.08v23.88h20.611a2.558 2.558 0 001.52-.42 1.327 1.327 0 00.59-1.14h1.117v8.22zm6.824-2.22q1.614 0 1.614-1.08V3.6q0-1.08-1.614-1.08V1.44h10.3v1.08q-1.614 0-1.613 1.08v27.24q0 1.08 1.613 1.08V33h-10.3zm18.065 0q1.177 0 1.178-1.08V3.6q0-1.08-1.178-1.08V1.44h10.611v1.08c-.332 0-.5.2-.5.6q0 .48 1.242 1.68l17.815 17.88V3.6q0-1.08-1.613-1.08V1.44h9.373v1.08q-1.179 0-1.178 1.08v27.24q0 1.08 1.178 1.08V33H221.81v-1.08q.807 0 .807-.54 0-.419-.993-1.38L202.69 10.92v19.92q0 1.08 1.428 1.08V33h-9.187zm75.549-24a1.092 1.092 0 00-.528-.99 3.672 3.672 0 00-1.831-.33h-20.113v7.44h12.167a4.532 4.532 0 001.925-.33q.681-.328.682-1.71h1.117v9.36h-1.117q0-1.38-.682-1.77a3.923 3.923 0 00-1.925-.39h-12.167v8.28h20.734a2.567 2.567 0 001.522-.42 1.33 1.33 0 00.59-1.14h1.117v8.22h-1.117c0-.6-.2-.94-.59-1.02a7.806 7.806 0 00-1.522-.12h-28.928v-1.08a1.217 1.217 0 00.776-.27.972.972 0 00.342-.81V3.6a.972.972 0 00-.342-.81 1.218 1.218 0 00-.776-.27V1.44h28.308a3.194 3.194 0 001.831-.39 1.241 1.241 0 00.528-1.05h1.117v7.92zM36.44 78.68a1.822 1.822 0 01-.342-.029 1.723 1.723 0 00-.341-.03 5.885 5.885 0 00-1.77.719q-1.4.721-3.538 1.62a31.979 31.979 0 01-4.873 1.56 24.192 24.192 0 01-5.712.66 28.972 28.972 0 01-7.51-.96 18.981 18.981 0 01-6.364-2.97 14.793 14.793 0 01-4.377-5.009A14.6 14.6 0 010 67.22a14.635 14.635 0 011.613-6.989 15 15 0 014.377-5.07 19.591 19.591 0 016.364-3.061 27.407 27.407 0 017.51-1.02 31.57 31.57 0 015.743.48q2.574.482 4.5 1.02a25.934 25.934 0 013.042 1.02 5.611 5.611 0 001.365.48.637.637 0 00.528-.3c.145-.2.258-.361.341-.481l.932.72-4.843 7.261-.62-.42a2.106 2.106 0 00-.032-.361 6.26 6.26 0 00-.092-.42q-.126-.658-1.242-1.349a13.091 13.091 0 00-2.762-1.231 29.309 29.309 0 00-3.477-.9 17.708 17.708 0 00-3.384-.359 17.264 17.264 0 00-5 .719 12.634 12.634 0 00-4.159 2.1A10.347 10.347 0 007.88 62.45a9.719 9.719 0 00-1.056 4.589 9.718 9.718 0 001.056 4.59 10.312 10.312 0 002.824 3.39 12.6 12.6 0 004.159 2.1 17.264 17.264 0 005 .719 20.465 20.465 0 004.16-.45 25.7 25.7 0 003.973-1.14 13.343 13.343 0 003.011-1.559q1.211-.87 1.21-1.651a1.1 1.1 0 00-.248-.719l.869-.481 4.1 6.361zm26.072-27.6a25.732 25.732 0 016.952.991 21.935 21.935 0 016.456 2.969 16.31 16.31 0 014.78 5.01 13.418 13.418 0 011.863 7.17 13.408 13.408 0 01-1.863 7.17 16.291 16.291 0 01-4.78 5.011 20.367 20.367 0 01-6.456 2.88 28.178 28.178 0 01-6.952.9 28.188 28.188 0 01-6.953-.9 20.359 20.359 0 01-6.456-2.88 16.307 16.307 0 01-4.781-5.011 13.421 13.421 0 01-1.862-7.17 13.43 13.43 0 011.862-7.17 16.326 16.326 0 014.781-5.01 21.927 21.927 0 016.456-2.969 25.742 25.742 0 016.953-.991zm0 5.52a16.051 16.051 0 00-4.718.721 14.611 14.611 0 00-4.253 2.069 10.886 10.886 0 00-3.072 3.33 8.615 8.615 0 00-1.18 4.5 8.61 8.61 0 001.18 4.5 10.864 10.864 0 003.072 3.33 14.616 14.616 0 004.253 2.071 16.113 16.113 0 004.718.719 16.131 16.131 0 004.718-.719 14.634 14.634 0 004.252-2.071 10.9 10.9 0 003.073-3.33 8.629 8.629 0 001.18-4.5 8.634 8.634 0 00-1.18-4.5 10.924 10.924 0 00-3.073-3.33 14.63 14.63 0 00-4.252-2.069 16.069 16.069 0 00-4.718-.721zm25.452 25.32q1.178 0 1.179-1.08V53.6q0-1.08-1.179-1.08v-1.079h10.615v1.079c-.332 0-.5.2-.5.6q0 .48 1.242 1.679l17.816 17.88v-19.08q0-1.08-1.613-1.08V51.44h9.373v1.079q-1.181 0-1.179 1.08v27.24q0 1.08 1.179 1.08v1.08H114.84v-1.08c.538 0 .808-.179.808-.54q0-.419-.994-1.38l-18.933-19.08v19.92c0 .72.474 1.08 1.428 1.08v1.08h-9.188zm63.257-1.08q0 1.08 1.366 1.08V83h-9.559v-1.08a1.222 1.222 0 00.775-.269.974.974 0 00.342-.811V56.96h-10.243a2.173 2.173 0 00-1.086.3 1.2 1.2 0 00-.529 1.141h-1.117v-8.4h1.117a1.192 1.192 0 00.529 1.14 2.155 2.155 0 001.086.3h27.562a2.167 2.167 0 001.087-.3 1.2 1.2 0 00.527-1.14h1.117v8.4h-1.117a1.2 1.2 0 00-.527-1.141 2.185 2.185 0 00-1.087-.3h-10.243zm49.599-22.92a1.094 1.094 0 00-.527-.99 3.683 3.683 0 00-1.831-.33h-20.113v7.44h12.167a4.517 4.517 0 001.925-.33q.681-.328.682-1.71h1.117v9.361h-1.117q0-1.38-.682-1.771a3.924 3.924 0 00-1.925-.389h-12.167v8.28h20.733a2.567 2.567 0 001.522-.421 1.329 1.329 0 00.59-1.14h1.117v8.22h-1.117c0-.6-.2-.94-.59-1.019a7.72 7.72 0 00-1.522-.121h-28.933v-1.08a1.222 1.222 0 00.776-.269.974.974 0 00.342-.811V53.6a.973.973 0 00-.342-.81 1.223 1.223 0 00-.776-.27v-1.079h28.308a3.185 3.185 0 001.831-.391 1.239 1.239 0 00.527-1.05h1.118v7.92zm9.188 24q1.178 0 1.179-1.08V53.6q0-1.08-1.179-1.08v-1.079h10.615v1.079c-.332 0-.5.2-.5.6q0 .48 1.242 1.679l17.816 17.88v-19.08q0-1.08-1.614-1.08V51.44h9.374v1.079q-1.181 0-1.179 1.08v27.24q0 1.08 1.179 1.08v1.08h-10.057v-1.08c.538 0 .808-.179.808-.54 0-.279-.333-.739-.994-1.38l-18.933-19.08v19.92c0 .72.474 1.08 1.427 1.08v1.08h-9.187zm63.257-1.08q0 1.08 1.366 1.08V83h-9.56v-1.08a1.222 1.222 0 00.776-.269.974.974 0 00.342-.811V56.96h-10.24a2.172 2.172 0 00-1.085.3 1.2 1.2 0 00-.529 1.141h-1.117v-8.4h1.117a1.192 1.192 0 00.529 1.14 2.155 2.155 0 001.085.3h27.563a2.167 2.167 0 001.087-.3 1.2 1.2 0 00.527-1.14h1.117v8.4h-1.117a1.2 1.2 0 00-.527-1.141 2.185 2.185 0 00-1.087-.3h-10.243zm22.596-7.74l.621.3a1.848 1.848 0 00.248.96 4.374 4.374 0 001.707 1.409 17.516 17.516 0 002.918 1.23 25.879 25.879 0 003.445.871 18.168 18.168 0 003.228.33q1.055 0 2.731-.151a16.608 16.608 0 003.29-.63 9.348 9.348 0 002.794-1.32 2.6 2.6 0 001.18-2.22 2.224 2.224 0 00-1.087-2.04 8.174 8.174 0 00-2.856-.96 31.883 31.883 0 00-4.035-.389q-2.267-.092-4.625-.271a43.459 43.459 0 01-4.624-.6 13.046 13.046 0 01-4.035-1.411 7.9 7.9 0 01-2.856-2.7 8.225 8.225 0 01-1.086-4.47 8.092 8.092 0 01.9-3.66 8.961 8.961 0 012.763-3.179 15.419 15.419 0 014.717-2.25 23.132 23.132 0 016.7-.871 29.785 29.785 0 015.711.48q2.423.482 4.191 1.02t2.979 1.02a5.706 5.706 0 002.018.48 1.756 1.756 0 001.242-.36l.744.481-4.283 7.5-.62-.241a3.266 3.266 0 00-.5-1.38 5.263 5.263 0 00-1.645-1.41 14.526 14.526 0 00-2.7-1.229 22.369 22.369 0 00-3.351-.87 19.964 19.964 0 00-3.6-.33 19.82 19.82 0 00-2.825.21 13.714 13.714 0 00-2.638.629 5.888 5.888 0 00-1.956 1.111 2.194 2.194 0 00-.775 1.71 2.415 2.415 0 001.086 2.159 8.044 8.044 0 002.855 1.08 27.9 27.9 0 004.035.481q2.266.12 4.625.3a38.956 38.956 0 014.625.63 13.628 13.628 0 014.035 1.441 8 8 0 012.856 2.67 7.946 7.946 0 011.086 4.379 7.533 7.533 0 01-1.707 5.1 12 12 0 01-4.252 3.12 19.611 19.611 0 01-5.494 1.53 42.069 42.069 0 01-5.494.39 37.709 37.709 0 01-5.928-.39 22.6 22.6 0 01-3.974-.96 26.481 26.481 0 01-2.513-1.02 3.838 3.838 0 00-1.615-.449 1.038 1.038 0 00-.806.479l-.87-.479z" fill="#fff"/></svg>