<svg xmlns="http://www.w3.org/2000/svg" width="377.264" height="22.76"><path d="M0 21.28a.963.963 0 00.58-.18.624.624 0 00.248-.54V2.32a.524.524 0 00-.248-.5A1.167 1.167 0 000 1.68V.96h7.739v.72a.933.933 0 00-.434.12.385.385 0 00-.228.361 1.207 1.207 0 00.166.519q.166.321.372.68l5.918 10.4 5.96-10.28c.193-.346.337-.62.435-.819a1.274 1.274 0 00.144-.54c0-.294-.179-.441-.538-.441V.96h7.657v.72a1.161 1.161 0 00-.58.14.523.523 0 00-.249.5v18.24a.623.623 0 00.249.54.958.958 0 00.58.18V22h-6.5v-.72q1.118 0 1.118-.72V7.28h-.083L13.407 22h-.124L5.13 7.241h-.083V20.56q0 .72 1.159.72V22H-.002zm30.46 0a1.215 1.215 0 00.849-.52 8.416 8.416 0 00.6-1l7.657-15.559q.289-.521.517-.96a1.72 1.72 0 00.228-.761.586.586 0 00-.29-.56 2.582 2.582 0 00-.62-.24V.96h6.994v.72a3.469 3.469 0 00-.58.22.578.578 0 00-.289.58 1.535 1.535 0 00.144.641c.1.213.241.493.435.839l8.608 16.281a1.372 1.372 0 00.559.639 8.49 8.49 0 00.806.4V22h-7.283v-.72a1 1 0 00.413-.119.387.387 0 00.249-.361 2.449 2.449 0 00-.331-1.04l-1.573-2.96h-10.1l-1.49 2.84a3.308 3.308 0 00-.414 1.2c0 .294.263.44.787.44V22h-5.877zm15.6-7.44L42.583 6.4l-3.891 7.44zm18.542 6.72a.625.625 0 00.248.54.96.96 0 00.58.18V22h-6.458v-.72q.91 0 .91-.72V2.4q0-.72-.91-.72V.96h6.456v.72a.968.968 0 00-.58.18.626.626 0 00-.248.54V10l8.566-6.52c.387-.319.69-.58.911-.779s.331-.367.331-.5a.441.441 0 00-.186-.4.783.783 0 00-.435-.12v-.72h8.692v.72a2.378 2.378 0 00-1.491.6l-9.518 7.32 8.69 9.72a10.482 10.482 0 001.263 1.18 4.082 4.082 0 001.428.78v.72h-7.657v-.72c.359 0 .539-.093.539-.28q0-.2-.58-.879l-7.077-7.88-3.476 2.6zm42.544-15.28a.727.727 0 00-.352-.659 2.443 2.443 0 00-1.221-.221H92.164v4.96h8.112a3 3 0 001.283-.22c.3-.146.456-.526.456-1.14h.744v6.241h-.744c0-.614-.153-1.007-.456-1.181a2.619 2.619 0 00-1.283-.26h-8.112v5.52h13.823a1.708 1.708 0 001.014-.28.886.886 0 00.394-.76h.745v5.48h-.745c0-.4-.132-.627-.394-.68a5.283 5.283 0 00-1.014-.08H86.702v-.72a.808.808 0 00.517-.18.648.648 0 00.227-.54V2.4a.648.648 0 00-.227-.54.815.815 0 00-.517-.18V.96h18.87a2.143 2.143 0 001.221-.259.83.83 0 00.352-.7h.745v5.28zm11.877-3.6q-.912 0-.911.72v12a3.615 3.615 0 001.676 3.46 13.264 13.264 0 009.809 0 3.615 3.615 0 001.676-3.46v-12q0-.72-1.242-.72V.96h6.621v.72q-.993 0-.993.72v11.8a9.407 9.407 0 01-.7 3.9 5.725 5.725 0 01-2.111 2.46 8.726 8.726 0 01-3.5 1.24 36.362 36.362 0 01-9.643 0 8.726 8.726 0 01-3.5-1.24 5.723 5.723 0 01-2.11-2.46 9.391 9.391 0 01-.7-3.9V2.4q0-.72-1.16-.72V.96h6.788zM141.288 22v-.72q1.531 0 1.531-.72V2.4q0-.72-1.531-.72V.96h14.568a11.769 11.769 0 016.249 1.42q2.276 1.421 2.276 4.821t-2.276 4.819a11.759 11.759 0 01-6.249 1.42h-8.319v7.12q0 .72 1.324.72V22zm15.065-12.24a4.908 4.908 0 002.338-.519 2.627 2.627 0 000-4.08 4.9 4.9 0 00-2.338-.521h-8.816v5.12zm32.858 10.8q0 .72.91.72V22h-6.373v-.72a.817.817 0 00.518-.18.649.649 0 00.227-.54V4.64h-6.829a1.443 1.443 0 00-.723.2.8.8 0 00-.352.76h-.745V0h.745a.794.794 0 00.352.76 1.433 1.433 0 00.723.2h18.375a1.441 1.441 0 00.725-.2.8.8 0 00.351-.76h.745v5.6h-.745a.8.8 0 00-.351-.76 1.451 1.451 0 00-.725-.2h-6.828zM208.62 1.68q-.911 0-.91.72v12a3.616 3.616 0 001.676 3.46 13.263 13.263 0 009.808 0 3.613 3.613 0 001.676-3.46v-12q0-.72-1.241-.72V.96h6.621v.72q-.993 0-.993.72v11.8a9.4 9.4 0 01-.7 3.9 5.721 5.721 0 01-2.111 2.46 8.725 8.725 0 01-3.5 1.24 36.359 36.359 0 01-9.642 0 8.715 8.715 0 01-3.5-1.24 5.718 5.718 0 01-2.111-2.46 9.406 9.406 0 01-.7-3.9V2.4q0-.72-1.159-.72V.96h6.787zm34.929 18.88q0 .72.91.72V22h-6.373v-.72a.819.819 0 00.518-.18.649.649 0 00.227-.54V4.64h-6.829a1.449 1.449 0 00-.724.2.8.8 0 00-.351.76h-.745V0h.745a.8.8 0 00.351.76 1.439 1.439 0 00.724.2h18.375a1.444 1.444 0 00.725-.2.8.8 0 00.351-.76h.745v5.6h-.745a.8.8 0 00-.351-.76 1.454 1.454 0 00-.725-.2h-6.828zM268.711.72a17.157 17.157 0 014.636.66 14.624 14.624 0 014.3 1.98 10.874 10.874 0 013.186 3.341 9.826 9.826 0 010 9.559 10.857 10.857 0 01-3.186 3.34 13.529 13.529 0 01-4.3 1.92 18.175 18.175 0 01-9.271 0 13.512 13.512 0 01-4.3-1.92 10.86 10.86 0 01-3.187-3.34 9.822 9.822 0 010-9.559 10.877 10.877 0 013.187-3.341 14.6 14.6 0 014.3-1.98 17.156 17.156 0 014.635-.66zm0 3.68a10.716 10.716 0 00-3.145.48 9.766 9.766 0 00-2.834 1.38 7.235 7.235 0 00-2.049 2.22 6.117 6.117 0 000 6 7.247 7.247 0 002.049 2.221 9.739 9.739 0 002.834 1.379 10.547 10.547 0 006.291 0 9.793 9.793 0 002.835-1.379 7.3 7.3 0 002.048-2.221 6.117 6.117 0 000-6 7.286 7.286 0 00-2.048-2.22 9.82 9.82 0 00-2.835-1.38 10.727 10.727 0 00-3.146-.48zM300.205.96a17.579 17.579 0 013.6.34 8.294 8.294 0 012.772 1.08 5.032 5.032 0 011.78 1.92 6.173 6.173 0 01.621 2.9 5.058 5.058 0 01-1.615 4.04 8.832 8.832 0 01-4.345 1.88l5.5 7.6a1.117 1.117 0 00.682.481 3.665 3.665 0 00.725.079V22h-7.739v-.72a1.567 1.567 0 00.641-.119c.179-.081.269-.187.269-.321a.9.9 0 00-.165-.46q-.168-.26-.5-.7l-4.552-6.24h-5.907v7.12a.608.608 0 00.269.54 1.867 1.867 0 00.973.18V22h-7.16v-.72q1.2 0 1.2-.72V2.4q0-.72-1.2-.72V.96zm-1.076 9.36a11.72 11.72 0 002.483-.22 4.459 4.459 0 001.573-.62 2.347 2.347 0 00.828-.94 2.93 2.93 0 000-2.36 2.345 2.345 0 00-.828-.939 4.459 4.459 0 00-1.573-.62 11.712 11.712 0 00-2.483-.221h-7.16v5.92zm15.685 10.96q1.075 0 1.076-.72V2.4q0-.72-1.076-.72V.96h6.87v.72q-1.077 0-1.076.72v18.16q0 .72 1.076.72V22h-6.87zm11.629 0a1.213 1.213 0 00.849-.52 8.616 8.616 0 00.6-1l7.656-15.559q.289-.521.518-.96a1.73 1.73 0 00.227-.761.586.586 0 00-.29-.56 2.536 2.536 0 00-.62-.24V.96h6.994v.72a3.518 3.518 0 00-.58.22.579.579 0 00-.289.58 1.55 1.55 0 00.144.641q.146.319.435.839l8.608 16.281a1.379 1.379 0 00.559.639 8.354 8.354 0 00.807.4V22h-7.289v-.72a1 1 0 00.414-.119.387.387 0 00.249-.361 2.463 2.463 0 00-.331-1.04l-1.574-2.96h-10.1l-1.491 2.84a3.308 3.308 0 00-.414 1.2c0 .294.263.44.787.44V22h-5.877zm15.6-7.44l-3.477-7.44-3.89 7.44zm34.476 8.92q0-.6-.393-.68a5.287 5.287 0 00-1.015-.08h-19.7v-.72q1.241 0 1.242-.72V2.4q0-.72-1.242-.72V.96h7.118v.72q-1.158 0-1.158.72v15.92h13.739a1.709 1.709 0 001.015-.28.885.885 0 00.393-.76h.745v5.48z" fill="#292929"/></svg>