<svg xmlns="http://www.w3.org/2000/svg" width="500" height="74" viewBox="0 0 500 74">
  <defs>
    <style>
      .cls-1 {
        fill: #fed438;
        fill-rule: evenodd;
        opacity: 0.1;
      }
    </style>
  </defs>
  <path id="ABOUT" class="cls-1" d="M115.751,71.5L85.171,1.823H66.893L36.611,71.5h17.93l6.674-16.037H91.1L97.821,71.5h17.93ZM86.466,44.257H65.8l10.31-25.3ZM180.338,6.48q-6.325-4.557-17.382-4.557H133.422V71.5H163.6q13.048,0,20.6-4.383t7.545-15.091A17.368,17.368,0,0,0,188.008,40.9q-3.737-4.707-11.356-7.047a15.559,15.559,0,0,0,7.3-5.9,16.157,16.157,0,0,0,2.714-9.189A14.372,14.372,0,0,0,180.338,6.48ZM167.015,28.618q-2.913,2.192-8.641,2.191h-7.421V12.731h8.168q5.577,0,8.193,2.142t2.615,6.773Q169.929,26.427,167.015,28.618Zm-6.9,32.074h-9.164V41.518h9.164q14,0,14,9.662,0,9.513-14,9.513h0ZM282.776,18.558a32.788,32.788,0,0,0-13.348-12.85q-8.715-4.681-20.469-4.682-12.951,0-21.665,5.155a32.817,32.817,0,0,0-12.9,13.3,37.452,37.452,0,0,0-4.183,17.357,36.175,36.175,0,0,0,4.482,17.78,32.909,32.909,0,0,0,13.148,12.949Q236.508,72.4,248.66,72.4q12.052,0,20.818-4.781a33.116,33.116,0,0,0,13.348-12.9,35.947,35.947,0,0,0,4.582-17.979A36.2,36.2,0,0,0,282.776,18.558Zm-52.1,7.6a17.639,17.639,0,0,1,7.172-7.247,22.174,22.174,0,0,1,10.907-2.59,21.588,21.588,0,0,1,11.132,2.764,18.442,18.442,0,0,1,7.147,7.4,21.47,21.47,0,0,1,2.44,10.16q0,9.463-5.752,14.966t-15.066,5.5a21.883,21.883,0,0,1-10.609-2.54,17.951,17.951,0,0,1-7.271-7.2,21.3,21.3,0,0,1-2.59-10.534A22.31,22.31,0,0,1,230.68,26.153ZM330.6,52.923q-4.358-4.582-4.358-13.248V1.923H308.714V40.571q0,15.042,8.99,23.433T343.279,72.4q16.335,0,25.375-8.342t9.04-23.782V1.923H360.113V39.874q0,8.965-4.333,13.3t-12.5,4.333Q334.96,57.5,330.6,52.923ZM463.8,16.416V1.923H396.46V16.416h24.8V71.5h17.531V16.416h25Z"/>
</svg>
