<svg xmlns="http://www.w3.org/2000/svg" width="751" height="74" viewBox="0 0 751 74">
  <defs>
    <style>
      .cls-1 {
        fill: #fed438;
        fill-rule: evenodd;
        opacity: 0.1;
      }
    </style>
  </defs>
  <path id="CHEK_POINT" data-name="CHEK POINT" class="cls-1" d="M56.632,1.026A44.883,44.883,0,0,0,36.66,5.359,32.872,32.872,0,0,0,22.79,17.811a35.326,35.326,0,0,0-5.005,18.926,36.024,36.024,0,0,0,4.632,18.179,32.834,32.834,0,0,0,13.373,12.8Q44.529,72.4,56.333,72.4q15.289,0,26.646-6.076V50.682q-11.555,7.67-23.757,7.67a26.092,26.092,0,0,1-12.576-2.864,20.016,20.016,0,0,1-8.093-7.745,21.2,21.2,0,0,1-2.789-10.708A22.4,22.4,0,0,1,38.5,26.1a20.254,20.254,0,0,1,8.143-8.019A26.253,26.253,0,0,1,59.62,15.071a35.776,35.776,0,0,1,11.43,1.843,54.385,54.385,0,0,1,11.53,5.628V6.405A67.924,67.924,0,0,0,56.632,1.026h0Zm62.549,27.841V1.923H101.649V71.5h17.532V43.46h33.668V71.5H170.38V1.923H152.849V28.867H119.181ZM239.005,14.374V1.923H191.391V71.5H239.8V59.049H208.923V42.115H237.66V29.664H208.923V14.374h30.082Zm37.248,19.573V1.923H258.721V71.5h17.532V37.732L305.388,71.5h21.865L295.029,34.595,322.123,1.923H302.549ZM424.509,7.476q-6.774-5.553-18.826-5.553H376.348V71.5h17.531V44.157H406.53a30.152,30.152,0,0,0,13.721-2.814,19.36,19.36,0,0,0,8.292-7.545,20.882,20.882,0,0,0,2.74-10.658Q431.283,13.03,424.509,7.476ZM402.645,32.254h-8.766V13.876h8.069q5.976,0,8.691,2.191t2.714,7.072q0,9.114-10.708,9.114h0Zm114.6-13.7a32.788,32.788,0,0,0-13.348-12.85q-8.716-4.681-20.47-4.682-12.95,0-21.665,5.155a32.814,32.814,0,0,0-12.9,13.3,37.452,37.452,0,0,0-4.184,17.357,36.165,36.165,0,0,0,4.483,17.78,32.909,32.909,0,0,0,13.148,12.949q8.666,4.832,20.818,4.831,12.053,0,20.819-4.781a33.119,33.119,0,0,0,13.347-12.9,35.937,35.937,0,0,0,4.582-17.979A36.212,36.212,0,0,0,517.24,18.558Zm-52.1,7.6a17.633,17.633,0,0,1,7.172-7.247,22.171,22.171,0,0,1,10.907-2.59,21.585,21.585,0,0,1,11.131,2.764,18.429,18.429,0,0,1,7.147,7.4,21.459,21.459,0,0,1,2.441,10.16q0,9.463-5.753,14.966t-15.066,5.5a21.879,21.879,0,0,1-10.608-2.54,17.953,17.953,0,0,1-7.272-7.2,21.306,21.306,0,0,1-2.589-10.534A22.3,22.3,0,0,1,465.144,26.153ZM557.376,71.5V1.923H539.845V71.5h17.531Zm75.448-26.2L593.777,1.923H578.388V71.5H595.62V28.27L634.567,71.5h15.589V1.923H632.824V45.3Zm100.1-28.887V1.923H665.59V16.416h24.8V71.5h17.531V16.416h25Z"/>
</svg>
