<svg xmlns="http://www.w3.org/2000/svg" width="377" height="90" viewBox="0 0 377 90">
  <defs>
    <style>
      .cls-1 {
        fill: #fed438;
        fill-rule: evenodd;
        opacity: 0.1;
      }
    </style>
  </defs>
  <path id="FAQ" class="cls-1" d="M123.366,13.161V0.445H76.725V71.5h17.9V41.491h28.737V28.674H94.629V13.161h28.737ZM215.116,71.5L183.886,0.343H165.22L134.295,71.5h18.311l6.815-16.378h30.518L196.805,71.5h18.311ZM185.209,43.678H164.1L174.629,17.84ZM298.169,57.03a35.612,35.612,0,0,0,6.51-21.133A37.043,37.043,0,0,0,300.1,17.687,33.539,33.539,0,0,0,286.623,4.463q-8.9-4.933-21.21-4.934-12.818,0-21.769,5.112a33.5,33.5,0,0,0-13.377,13.428A37.794,37.794,0,0,0,225.842,36.1a36.07,36.07,0,0,0,5.951,20.345A34.65,34.65,0,0,0,248.984,69.72a97.448,97.448,0,0,0,20.142,11.673,100.167,100.167,0,0,0,23.8,7.6l13.326-12.512-0.407-.814a13.414,13.414,0,0,1-3.357.407q-9.665,0-22.278-6.154A34.284,34.284,0,0,0,298.169,57.03Zm-44-2.874a18.427,18.427,0,0,1-7.375-7.35A21.805,21.805,0,0,1,244.2,36.1,22.778,22.778,0,0,1,246.7,25.317a18.291,18.291,0,0,1,7.222-7.451,22.066,22.066,0,0,1,11.19-2.721,22.862,22.862,0,0,1,11.52,2.772,18.078,18.078,0,0,1,7.3,7.5A22.719,22.719,0,0,1,286.368,36a22.3,22.3,0,0,1-2.594,10.859,17.969,17.969,0,0,1-7.4,7.35A23.148,23.148,0,0,1,265.21,56.8,22.425,22.425,0,0,1,254.172,54.156Z"/>
</svg>
