<svg xmlns="http://www.w3.org/2000/svg" width="500" height="74" viewBox="0 0 500 74">
  <defs>
    <style>
      .cls-1 {
        fill: #fed438;
        fill-rule: evenodd;
        opacity: 0.15;
      }
    </style>
  </defs>
  <path id="HOW_TO" data-name="HOW TO" class="cls-1" d="M22.887,28.867V1.923H5.356V71.5H22.887V43.46H56.555V71.5H74.086V1.923H56.555V28.867H22.887Zm141.688-10.31a32.785,32.785,0,0,0-13.347-12.85q-8.716-4.681-20.47-4.682-12.95,0-21.665,5.155a32.816,32.816,0,0,0-12.9,13.3A37.451,37.451,0,0,0,92.01,36.836a36.172,36.172,0,0,0,4.482,17.78,32.906,32.906,0,0,0,13.149,12.949q8.665,4.832,20.818,4.831,12.053,0,20.818-4.781a33.116,33.116,0,0,0,13.348-12.9,35.937,35.937,0,0,0,4.582-17.979A36.2,36.2,0,0,0,164.575,18.558Zm-52.095,7.6a17.636,17.636,0,0,1,7.171-7.247,22.178,22.178,0,0,1,10.908-2.59,21.587,21.587,0,0,1,11.131,2.764,18.429,18.429,0,0,1,7.147,7.4,21.47,21.47,0,0,1,2.44,10.16q0,9.463-5.752,14.966t-15.066,5.5a21.876,21.876,0,0,1-10.608-2.54,17.947,17.947,0,0,1-7.272-7.2,21.3,21.3,0,0,1-2.59-10.534A22.3,22.3,0,0,1,112.48,26.153Zm101.1,17.208L197.739,1.923H179.71L208.6,72.2h9.164l19.673-45.671L256.907,72.2h9.015L295.257,1.923h-17.83L261.19,43.36,244.157,1.923H230.909ZM406.359,16.416V1.923H339.023V16.416h24.8V71.5h17.531V16.416h25Zm84.861,2.142a32.785,32.785,0,0,0-13.347-12.85q-8.716-4.681-20.47-4.682-12.95,0-21.665,5.155a32.814,32.814,0,0,0-12.9,13.3,37.44,37.44,0,0,0-4.184,17.357,36.175,36.175,0,0,0,4.482,17.78,32.911,32.911,0,0,0,13.149,12.949Q444.952,72.4,457.1,72.4q12.053,0,20.819-4.781a33.119,33.119,0,0,0,13.347-12.9,35.937,35.937,0,0,0,4.582-17.979A36.2,36.2,0,0,0,491.22,18.558Zm-52.1,7.6a17.633,17.633,0,0,1,7.172-7.247,22.171,22.171,0,0,1,10.907-2.59,21.587,21.587,0,0,1,11.131,2.764,18.429,18.429,0,0,1,7.147,7.4,21.459,21.459,0,0,1,2.441,10.16q0,9.463-5.753,14.966t-15.066,5.5a21.876,21.876,0,0,1-10.608-2.54,17.947,17.947,0,0,1-7.272-7.2,21.3,21.3,0,0,1-2.59-10.534A22.3,22.3,0,0,1,439.125,26.153Z"/>
</svg>
