<svg xmlns="http://www.w3.org/2000/svg" xmlns:xlink="http://www.w3.org/1999/xlink" width="69.47mm" height="26.96mm" viewBox="0 0 196.92 76.43"><defs><style>.cls-1,.cls-2,.cls-7{fill:none;}.cls-2{stroke:#fff100;stroke-width:7px;}.cls-2,.cls-7{stroke-miterlimit:10;}.cls-3{fill:#50bdb8;}.cls-4{fill:#231815;}.cls-5{fill:#fff;}.cls-6{clip-path:url(#clip-path);}.cls-7{stroke:#50bdb8;}</style><clipPath id="clip-path" transform="translate(4.15 7.7)"><rect class="cls-1" x="0.5" y="0.5" width="63.99" height="63.99" rx="13.87"/></clipPath></defs><g id="レイヤー_2" data-name="レイヤー 2"><g id="画像"><line class="cls-2" x1="80.33" y1="66.85" x2="196.91" y2="66.85"/><path class="cls-3" d="M118.73,28.06a.29.29,0,0,1-.29.29" transform="translate(4.15 7.7)"/><path class="cls-3" d="M114.43,39c0,.16-.11.47-.27.47H112c-.16,0-.28-.31-.28-.47V23.4a6.07,6.07,0,0,1,3.59-5.54L117,17l.77-.4a.3.3,0,0,1,.4.12l.24.47.78,1.5a.3.3,0,0,1-.12.4l-1,.49-1.48.76a3.43,3.43,0,0,0-2.16,3.11v2h4c.16,0,.52.32.52.48v2.15c0,.16-.36.09-.52.09h-4Z" transform="translate(4.15 7.7)"/><path class="cls-3" d="M133.44,33.67a5.43,5.43,0,1,1-10.86,0V25.91c0-.16,0-.48.15-.48h2.16c.16,0,.4.32.4.48v7.76a2.83,2.83,0,1,0,5.65,0V25.81c0-.16.12-.38.28-.38h2.15c.16,0,.08.32.08.48Z" transform="translate(4.15 7.7)"/><path class="cls-3" d="M146.14,28.73l-.31.32a.3.3,0,0,1-.41,0l-.1-.07a3.28,3.28,0,0,0-1.85-.56,3.18,3.18,0,0,0-2.3,1,3.26,3.26,0,0,0-.94,2.35V39c0,.16-.21.46-.37.46H137.7c-.16,0-.18-.3-.18-.46V25.91c0-.17,0-.48.18-.48h2.16c.16,0,.37.32.37.48v1.48l.32-.39a4,4,0,0,1,2.94-1.38,6,6,0,0,1,3.71,1.27l.2.16a.3.3,0,0,1,0,.41Z" transform="translate(4.15 7.7)"/><path class="cls-3" d="M172.78,28.73l-.32.32a.28.28,0,0,1-.4,0L172,29a3.22,3.22,0,0,0-1.84-.56,3.09,3.09,0,0,0-2.27,1,3.23,3.23,0,0,0-.9,2.35V39a.64.64,0,0,1-.44.46h-2.16c-.16,0-.12-.3-.12-.46V25.91c0-.16,0-.48.12-.48h2.16c.16,0,.44.32.44.48v1.48l.28-.39a3.94,3.94,0,0,1,2.93-1.38,6,6,0,0,1,3.7,1.27l.19.16a.3.3,0,0,1,0,.41Z" transform="translate(4.15 7.7)"/><path class="cls-3" d="M158.57,26.61a5.64,5.64,0,0,0-3.65-1.18h-.15l-.17.09A6,6,0,0,0,150.51,27l-.43.44a.31.31,0,0,0,0,.42l1.62,1.28a.3.3,0,0,0,.41,0l.1-.11a2.44,2.44,0,0,1,.76-.54,5.35,5.35,0,0,1,1.81-.27h.06a2.68,2.68,0,0,1,2.05.68,2.13,2.13,0,0,1,.49,1.58v.91H153.1a4,4,0,1,0,0,8l1.13.07,5,.08H160c.16,0,.15-.3.15-.46V30.59C160.15,28.76,159.64,27.36,158.57,26.61Zm-.69,10.3h-4.36a1.71,1.71,0,0,1-1.77-1.67,1.66,1.66,0,0,1,1.71-1.67h4.42Z" transform="translate(4.15 7.7)"/><path class="cls-3" d="M179.32,25.43h-2.17c-.16,0-.26.32-.26.48V39c0,.16.1.46.26.46h2.17c.16,0,.29-.3.29-.46V25.91C179.61,25.75,179.48,25.43,179.32,25.43Z" transform="translate(4.15 7.7)"/><path class="cls-3" d="M179.32,20.91h-2.17c-.16,0-.26.34-.25.5v2.17c0,.16.09.5.25.5h2.17c.16,0,.29-.34.29-.5V21.41C179.61,21.25,179.48,20.91,179.32,20.91Z" transform="translate(4.15 7.7)"/><path class="cls-4" d="M91.93,46.67l1.7,1.06a10.66,10.66,0,0,0-.74,1.58,22.6,22.6,0,0,1-2.54,5c.7.46,1.33.89,1.81,1.24l-2.1,2.75c-.46-.4-1.09-.89-1.78-1.39a18,18,0,0,1-6.79,4.61L78.8,59.16a16,16,0,0,0,6.88-4c-1.17-.77-2.31-1.48-3.21-2l2-2.24c.94.5,2.1,1.14,3.25,1.81a12.43,12.43,0,0,0,1.72-3.52H84.5a24.19,24.19,0,0,1-5,4.93l-2.51-2A18.07,18.07,0,0,0,83,45.92a9.84,9.84,0,0,0,1-2.29l3.34,1a20.35,20.35,0,0,0-1.14,1.85h3.17a7.63,7.63,0,0,0,1.53-.16,19.48,19.48,0,0,0-1.17-2.08l1.8-.73a28.59,28.59,0,0,1,1.49,2.64Zm2-4.05a27.43,27.43,0,0,1,1.51,2.62l-1.8.77a20.52,20.52,0,0,0-1.51-2.65Z" transform="translate(4.15 7.7)"/><path class="cls-4" d="M112.23,47.88c-.17.51-.34,1.35-.42,1.74a18,18,0,0,1-1.74,5.28,12.29,12.29,0,0,1-7.93,6l-2.41-2.81a16.21,16.21,0,0,0,3.12-.89,9.15,9.15,0,0,0,3.86-3,10.28,10.28,0,0,0,1.62-4.58H99.52v2.47a13.36,13.36,0,0,0,.08,1.58H96.4a18.24,18.24,0,0,0,.1-1.84V48.54a13.21,13.21,0,0,0-.1-1.75,19.35,19.35,0,0,0,2,.09h4V45.59a9.71,9.71,0,0,0-.17-2h3.58a13.68,13.68,0,0,0-.16,2v1.29h2.8a5.06,5.06,0,0,0,1.74-.23Z" transform="translate(4.15 7.7)"/><path class="cls-4" d="M121.29,55a18.56,18.56,0,0,0,7.3-7.7l1.8,3.29a20.6,20.6,0,0,1-7.44,7.3,20.29,20.29,0,0,1-6.84,2.55l-2-3.08A19.6,19.6,0,0,0,121.29,55Zm.65-6.3-2.37,2.45a39,39,0,0,0-4.8-4.22l2.2-2.37A39.39,39.39,0,0,1,121.94,48.73Z" transform="translate(4.15 7.7)"/><path class="cls-4" d="M147.69,57.12c0,.82,0,2.87,0,2.87h-3.22l0-1H136v1h-3.2s.06-1.85.06-2.91V47.71c0-.62,0-1.5,0-2.1l2.2,0h10.67c.52,0,1.24,0,2,0,0,.64,0,1.43,0,2.08ZM136,48.64V56h8.56V48.64Z" transform="translate(4.15 7.7)"/><path class="cls-4" d="M151.36,50.29c.76.06,2.37.14,3.3.14h10.16c.86,0,1.79-.1,2.35-.14V54c-.5,0-1.57-.11-2.35-.11H154.66c-1.09,0-2.52.06-3.3.11Z" transform="translate(4.15 7.7)"/><path class="cls-4" d="M175.38,49.54a62.45,62.45,0,0,1,7.9,2.91L182,55.71A61,61,0,0,0,175.38,53v5c0,.52.12,2,.22,2.91H172a20.84,20.84,0,0,0,.23-2.91v-11a12.92,12.92,0,0,0-.23-2.5h3.62a22,22,0,0,0-.2,2.5Zm4.71-.81a15.89,15.89,0,0,0-1.68-3l1.91-.81a28.89,28.89,0,0,1,1.74,2.93Zm2.73-1.12A17.45,17.45,0,0,0,181,44.72l1.9-.88a24.24,24.24,0,0,1,1.79,2.83Z" transform="translate(4.15 7.7)"/><path class="cls-4" d="M187.87,57.66a2.26,2.26,0,1,1,2.25,2.12A2.13,2.13,0,0,1,187.87,57.66Zm.28-9.33-.11-3.2h4.19l-.12,3.2-.78,6.09h-2.39Z" transform="translate(4.15 7.7)"/><path class="cls-4" d="M187.61,34.33c0-.27,0-.68.06-1.09-.69.4-1,.75-1,1.19s.34.65,1.36.65a16.18,16.18,0,0,0,3.17-.34l-.05,1.7a28.91,28.91,0,0,1-3.15.19c-1.79,0-3.08-.46-3.08-1.91s1.3-2.34,2.51-3a.82.82,0,0,0-.6-.22,2.6,2.6,0,0,0-1.6.72,14.8,14.8,0,0,0-1,1.23l-1.4-1a10.24,10.24,0,0,0,2.33-2.81c-.45,0-1.24,0-1.82-.08V28a15.61,15.61,0,0,0,2,.13h.43a6.55,6.55,0,0,0,.19-1.19l1.74.14c0,.24-.13.59-.25,1a23,23,0,0,0,2.94-.31v1.53c-1,.14-2.35.23-3.52.28a6.06,6.06,0,0,1-.42.77,5,5,0,0,1,1.08-.11,1.57,1.57,0,0,1,1.45.77c.44-.21.79-.35,1.18-.53l1.39-.64.64,1.52c-.38.11-1.06.36-1.48.53s-.95.36-1.52.62c0,.59,0,1.33,0,1.81Z" transform="translate(4.15 7.7)"/><path class="cls-4" d="M83.36,36.12a9,9,0,0,0-1.94-1.42v.22c0,1-.83,1.72-2.27,1.72-1.84,0-2.8-.72-2.8-1.94s1.05-2,2.79-2l.53,0,0-.73H79.1c-.58,0-1.85-.06-2.55-.14V30.31a16.48,16.48,0,0,0,2.57.21h.48v-.89H79.1a16.67,16.67,0,0,1-2.25-.16V28a13.86,13.86,0,0,0,2.25.21h.54v-.37a5.93,5.93,0,0,0-.06-.8h1.78c0,.24-.07.54-.08.8v.33a24.76,24.76,0,0,0,2.49-.27l0,1.51c-.65.07-1.5.15-2.54.2v.9c1.12-.06,2-.15,2.82-.25l0,1.55c-1,.1-1.76.16-2.81.2,0,.34,0,.7.07,1.05a8.6,8.6,0,0,1,3,1.62Zm-3.63-2a5.42,5.42,0,0,0-.81-.06c-.61,0-1,.23-1,.54s.36.55.92.55.86-.16.86-.72C79.74,34.36,79.74,34.26,79.73,34.13Z" transform="translate(4.15 7.7)"/><path class="cls-4" d="M93.15,28.41c.68,0,1.32,0,1.65,0l0,1.56c-.65,0-1.67,0-3-.06,0,.51,0,1.06,0,1.52A2.82,2.82,0,0,1,92.17,33c0,1.4-.9,3.29-3.63,4l-1.39-1.41a5.9,5.9,0,0,0,2.49-1h-.2a2,2,0,0,1-1.93-2.09,2.14,2.14,0,0,1,2.32-2.12h.27v-.55c-1.64,0-3.24.09-4.57.15l0-1.58c1.27,0,3.19,0,4.6-.06v-.12c0-.42-.08-.88-.12-1.09h1.9c0,.21-.07.88-.09,1.08v.12h1.06a9.77,9.77,0,0,0-.66-1.16l1.08-.44A12.2,12.2,0,0,1,94,28.08Zm-3.36,4.81c.35,0,.71-.25.59-1.09a.7.7,0,0,0-.59-.29.67.67,0,0,0-.7.71A.7.7,0,0,0,89.79,33.22Zm4.65-5a8.14,8.14,0,0,0-.75-1.27l1.09-.44a11.56,11.56,0,0,1,.75,1.26Z" transform="translate(4.15 7.7)"/><path class="cls-4" d="M98.56,27.45a9.79,9.79,0,0,0-.29,1.12,29.28,29.28,0,0,0-.51,4.11,2.18,2.18,0,0,0,0,.25c.13-.32.27-.52.41-.84l.8.63a28,28,0,0,0-.79,2.71,3.75,3.75,0,0,0-.07.52c0,.12,0,.32,0,.49l-1.48.1a12.56,12.56,0,0,1-.45-3.49,33.58,33.58,0,0,1,.43-4.52c0-.33.11-.82.12-1.23ZM105,35.84a10.78,10.78,0,0,0-1.16-1c-.15,1-.82,1.66-2.25,1.66s-2.54-.66-2.54-1.89,1-2,2.52-2c.19,0,.38,0,.55,0,0-.58-.07-1.25-.08-1.93h-.61q-1,0-2-.06V29.08a17.93,17.93,0,0,0,1.95.1h.61c0-.5,0-.91,0-1.11a4.46,4.46,0,0,0-.09-.75h1.88c0,.21,0,.49-.06.73s0,.57,0,1a15.36,15.36,0,0,0,1.58-.24v1.64c-.48.06-1,.13-1.6.17,0,1,.08,1.78.11,2.41a6.89,6.89,0,0,1,2.09,1.41ZM102.22,34a2.69,2.69,0,0,0-.74-.1c-.51,0-.85.2-.85.54s.39.52.85.52.74-.29.74-.88Z" transform="translate(4.15 7.7)"/><rect class="cls-3" x="80.33" y="8.2" width="116.58" height="12.33" rx="5.67"/><path class="cls-5" d="M84.65,5a8.23,8.23,0,0,1-1,1.71,15.33,15.33,0,0,1,1.71,1.76L84.85,9a13.76,13.76,0,0,0-1.58-1.76A8,8,0,0,1,81,9l-.49-.51a6.76,6.76,0,0,0,2.47-1.76,4.89,4.89,0,0,0,1-1.58h-2.2c-.23,0-.56,0-.65,0V4.46a5.79,5.79,0,0,0,.65,0h2.22a1.67,1.67,0,0,0,.52-.06l.4.29A1.49,1.49,0,0,0,84.65,5Z" transform="translate(4.15 7.7)"/><path class="cls-5" d="M91.17,5.19a9.64,9.64,0,0,1-2.12,2.39c.36.36.75.78,1,1.07l-.55.44c-.24-.32-.73-.86-1.11-1.26A14.76,14.76,0,0,0,87,6.67l.49-.41c.23.17.68.54,1.08.89a7,7,0,0,0,1.71-1.92H86.94c-.24,0-.52,0-.64,0V4.59a4.16,4.16,0,0,0,.64,0h3.47a1.78,1.78,0,0,0,.46,0l.48.39A1.56,1.56,0,0,0,91.17,5.19Z" transform="translate(4.15 7.7)"/><path class="cls-5" d="M92.84,8.17l-.52-.35a6.28,6.28,0,0,0,1.13-1.57l.54.26A9.69,9.69,0,0,1,92.84,8.17ZM95.3,4.49V5h1.51a4.84,4.84,0,0,0,.53,0v.62h-2V8.47c0,.33-.17.52-.56.52a9.08,9.08,0,0,1-.91-.05l0-.59a5.07,5.07,0,0,0,.68.06c.16,0,.22-.06.22-.22s0-2.26,0-2.55v0h-1.6a4.87,4.87,0,0,0-.55,0V5a4.89,4.89,0,0,0,.54,0h1.61V4.48a2.09,2.09,0,0,0,0-.46h.71A2.82,2.82,0,0,0,95.3,4.49Zm2.26,3.33L97,8.13a11.18,11.18,0,0,0-1-1.6l.51-.28A12.55,12.55,0,0,1,97.56,7.82Z" transform="translate(4.15 7.7)"/><path class="cls-5" d="M99.23,4.72c.44,0,1.51-.15,2.61-.24.64-.06,1.24-.09,1.66-.1V5a5.61,5.61,0,0,0-1.17.09A2,2,0,0,0,101,6.87c0,1.09,1,1.46,2,1.5l-.22.64c-1.17-.06-2.4-.69-2.4-2a2.41,2.41,0,0,1,1-1.95c-.61.06-2,.21-2.67.35l-.06-.65Zm3.9,1.75-.38.17a5.73,5.73,0,0,0-.48-.84l.36-.15A8.12,8.12,0,0,1,103.13,6.47Zm.68-.26-.37.17a5.22,5.22,0,0,0-.5-.83l.36-.16A7.73,7.73,0,0,1,103.81,6.21Z" transform="translate(4.15 7.7)"/><path class="cls-5" d="M110.26,4.17v.44h-1.13a2.62,2.62,0,0,1,.28.44l-.49.15a4.06,4.06,0,0,0-.38-.59h-.4a3.94,3.94,0,0,1-.51.55,4,4,0,0,0-.5-.27,2.22,2.22,0,0,0,.33-.28h-1a4.48,4.48,0,0,1,.22.44l-.49.14a4.08,4.08,0,0,0-.27-.58h-.17a4.57,4.57,0,0,1-.51.61,3,3,0,0,0-.45-.31,3.32,3.32,0,0,0,.87-1.21l.52.14c0,.11-.1.22-.16.33h1.45v.4a2.63,2.63,0,0,0,.57-.87l.53.13c0,.11-.11.23-.17.34Zm-4.52,2.65V9.23h-.51v-4h2.15V6.82Zm0-1.21v.27h1.13V5.61Zm1.13.87V6.2h-1.13v.28Zm.1,2.26V9h-.5V7.09h2.22V8.74Zm0-1.32v.32h1.23V7.42Zm1.23,1V8.07H107V8.4Zm1.81.24c0,.28-.06.43-.25.51a2.82,2.82,0,0,1-.93.08,2.38,2.38,0,0,0-.17-.49h.71c.09,0,.12,0,.12-.12V6.82h-1.68V5.26H110Zm-1.7-3v.27h1.18V5.61Zm1.18.87V6.2h-1.18v.28Z" transform="translate(4.15 7.7)"/><path class="cls-5" d="M116.85,8.21h-2.4v1h-.57v-1h-2.36V7.69h2.36V7.22h-1.82V4.78h.53a4.68,4.68,0,0,0-.53-.78l.48-.22a4.7,4.7,0,0,1,.6.84l-.34.16H114a4.32,4.32,0,0,0-.46-.87l.5-.19a4.69,4.69,0,0,1,.51.9l-.38.16h1a5.52,5.52,0,0,0,.61-1.05l.61.2c-.19.29-.4.6-.59.85h.56V7.22h-1.9v.47h2.4Zm-3-3h-1.27v.52h1.27Zm0,1.5V6.22h-1.27v.53Zm1.91-1.5h-1.34v.52h1.34Zm0,1h-1.34v.53h1.34Z" transform="translate(4.15 7.7)"/><path class="cls-5" d="M118.83,8.35a.45.45,0,1,1,.9,0,.45.45,0,1,1-.9,0Zm.06-3.28V4.28h.8l0,.79-.14,2.21H119Z" transform="translate(4.15 7.7)"/><path class="cls-5" d="M125.79,5a8.23,8.23,0,0,1-1,1.71,16.4,16.4,0,0,1,1.72,1.76L126,9a14.69,14.69,0,0,0-1.59-1.76A7.7,7.7,0,0,1,122.1,9l-.49-.51a6.68,6.68,0,0,0,2.47-1.76,4.72,4.72,0,0,0,1-1.58h-2.2c-.23,0-.56,0-.65,0V4.46a6,6,0,0,0,.65,0h2.23a1.67,1.67,0,0,0,.52-.06l.39.29C125.93,4.79,125.84,4.94,125.79,5Z" transform="translate(4.15 7.7)"/><path class="cls-5" d="M130.08,4.57l-.06.12h1.44a1.44,1.44,0,0,0,.45-.06l.49.3a2.06,2.06,0,0,0-.16.37,6.87,6.87,0,0,1-.92,1.81c.25.18.48.36.67.51l-.44.53c-.17-.16-.4-.34-.65-.54a5.64,5.64,0,0,1-2.22,1.48l-.55-.48a5.06,5.06,0,0,0,2.27-1.38c-.41-.3-.84-.59-1.19-.81l.41-.43c.36.21.78.48,1.18.76a4.75,4.75,0,0,0,.75-1.52h-1.89a6.59,6.59,0,0,1-1.59,1.57l-.51-.39a5.37,5.37,0,0,0,1.92-2,2.25,2.25,0,0,0,.23-.54l.68.22Z" transform="translate(4.15 7.7)"/><path class="cls-5" d="M136,7.47a5.74,5.74,0,0,0,2.08-2.26l.36.65A6.1,6.1,0,0,1,136.36,8a6.54,6.54,0,0,1-2.3.9l-.4-.62A6.35,6.35,0,0,0,136,7.47Zm-.21-1.92-.47.49a12.18,12.18,0,0,0-1.5-1.27l.44-.47A11.73,11.73,0,0,1,135.81,5.55Z" transform="translate(4.15 7.7)"/><path class="cls-5" d="M143.8,3.73a.69.69,0,1,1,0,1.38l-.16,0s0,.08,0,.11a6.18,6.18,0,0,1-.9,2.2A4.68,4.68,0,0,1,140.34,9l-.52-.56A4.08,4.08,0,0,0,142.17,7a4.57,4.57,0,0,0,.75-1.84H140l-.65,0V4.55a6.48,6.48,0,0,0,.65,0h3.16a.88.88,0,0,1,0-.16A.69.69,0,0,1,143.8,3.73Zm0,1.06a.38.38,0,1,0-.37-.37A.38.38,0,0,0,143.8,4.79Z" transform="translate(4.15 7.7)"/><path class="cls-5" d="M149.89,6.1A4.32,4.32,0,0,1,149,7.78a4.43,4.43,0,0,1-2.15,1.28l-.47-.54a4,4,0,0,0,2.1-1.08,2.83,2.83,0,0,0,.67-1.2h-3l-.64,0V5.64a5.1,5.1,0,0,0,.64,0h3.07a1.2,1.2,0,0,0,.38,0l.43.26A1,1,0,0,0,149.89,6.1Zm-3.3-1.83h2.33a5.15,5.15,0,0,0,.59,0v.62l-.59,0h-2.33l-.57,0V4.24A4.79,4.79,0,0,0,146.59,4.27Z" transform="translate(4.15 7.7)"/><path class="cls-5" d="M152.36,4.66v2c0,.16,0,.37,0,.49h-.69c0-.1,0-.31,0-.49v-2a3.47,3.47,0,0,0,0-.44h.69C152.38,4.35,152.36,4.5,152.36,4.66Zm2.79.06V5.79a3.13,3.13,0,0,1-.66,2.39,3.29,3.29,0,0,1-1.44.87l-.5-.52A2.71,2.71,0,0,0,154,7.75a2.63,2.63,0,0,0,.5-2v-1c0-.21,0-.39,0-.55h.71C155.16,4.33,155.15,4.51,155.15,4.72Z" transform="translate(4.15 7.7)"/><path class="cls-5" d="M157.82,6.13h3.27c.28,0,.52,0,.67,0v.74c-.13,0-.41,0-.67,0h-3.27c-.33,0-.69,0-.89,0V6.09C157.13,6.1,157.5,6.13,157.82,6.13Z" transform="translate(4.15 7.7)"/><path class="cls-5" d="M167.18,6.13a4.09,4.09,0,0,0,1.53,1.06,2.11,2.11,0,0,0-.36.44,4.73,4.73,0,0,1-1.8-1.5h-1.27a4.47,4.47,0,0,1-.78.84,4.81,4.81,0,0,0,1.54-.6l.43.21a5.42,5.42,0,0,1-1.75.75,1.54,1.54,0,0,0-.28-.3,5,5,0,0,1-1,.64,2.3,2.3,0,0,0-.4-.43,4.19,4.19,0,0,0,1.56-1.11h-1.36V5.65H165a4.16,4.16,0,0,0,.24-.47l-1.68.05-.06-.49,1,0a8.17,8.17,0,0,0,.6-1l.61.16c-.19.27-.4.56-.59.81l2,0-.56-.43.44-.26a7.88,7.88,0,0,1,1.48,1.24l-.47.3a4.65,4.65,0,0,0-.39-.41l-1.75.07c-.07.17-.15.33-.23.49h3v.48Zm.68,1.8a6.21,6.21,0,0,1-3.59,1.33A2,2,0,0,0,164,8.8a5.89,5.89,0,0,0,3.37-1.11Zm-.79-.67a6.46,6.46,0,0,1-2.4,1,2.2,2.2,0,0,0-.3-.4A5.84,5.84,0,0,0,166.62,7Z" transform="translate(4.15 7.7)"/><path class="cls-5" d="M172.47,4.83V5.1c-.05,2.59-.09,3.48-.28,3.75a.55.55,0,0,1-.42.26,3.86,3.86,0,0,1-.71,0,1.39,1.39,0,0,0-.16-.56l.6,0a.21.21,0,0,0,.21-.11,11.78,11.78,0,0,0,.22-3.1h-.78a6.09,6.09,0,0,1-1.05,3.86,1.94,1.94,0,0,0-.41-.4,5.38,5.38,0,0,0,.91-3.46h-.76V4.83h.78v-1h.55v1Zm2.5-.38V9.09h-.56V8.71h-1v.43h-.54V4.45Zm-.56,3.72V5h-1V8.17Z" transform="translate(4.15 7.7)"/><path class="cls-5" d="M178.82,5.26c0,.3,0,.6-.08.89h2.34a1.55,1.55,0,0,1,0,.26c-.1,1.67-.23,2.33-.46,2.58a.76.76,0,0,1-.57.23c-.21,0-.61,0-1,0a1.21,1.21,0,0,0-.19-.55c.41,0,.83.05,1,.05a.43.43,0,0,0,.29-.08c.16-.14.27-.7.36-2h-1.83a3.42,3.42,0,0,1-1.9,2.59,1.75,1.75,0,0,0-.4-.46c1.63-.75,1.79-2.22,1.85-3.55h-1.77V4.73h2.36v-1h.57v1h2.41v.53Z" transform="translate(4.15 7.7)"/><path class="cls-5" d="M184.09,6.4a4.64,4.64,0,0,0-1.16-.59l.29-.43a5.17,5.17,0,0,1,1.18.55Zm.52.86c-.29.63-.67,1.34-1,1.9l-.48-.36a19.4,19.4,0,0,0,1.06-1.9Zm-.21-2.43a4.5,4.5,0,0,0-1.14-.65l.31-.42a4.86,4.86,0,0,1,1.16.62ZM188,9.25a4,4,0,0,0-.22-.5L184.64,9l-.07-.56.47,0a10.26,10.26,0,0,0,.65-1.68h-1.13V6.18h1.61v-1h-1.31V4.66h1.31V3.73h.57v.93h1.37v.53h-1.37v1h1.65v.53h-2c-.21.54-.47,1.16-.72,1.65l1.82-.1a7.35,7.35,0,0,0-.56-.78l.48-.25A7.17,7.17,0,0,1,188.5,9Z" transform="translate(4.15 7.7)"/><g class="cls-6"><path class="cls-3" d="M18.85-7.13l2.73.36L19.42,9.37l-.06.5.49.06,26.82,3.55.74.1-.19-.72L42.62-4.93l2.66-.69,5,19.26.09.33.33,0,15.92,2.1-.36,2.73L51.83,16.94l-.74-.1.19.72,6,23.07.09.33.33,0,8.94,1.19-.36,2.72-7.43-1-.74-.1.19.72,1,3.92.12.44.45-.07,8.28-1.38.45,2.72L37.7,55.3l-.61.1.22.57,3.76,9.68-2.57,1L28.22,40.14l-.11-.28-.29,0L16.07,38.27l-.5-.07-.06.5L11.57,68.17l-2.72-.36,3.93-29.48.07-.49-.5-.07L-3.59,35.66l.36-2.72,16,2.11.49.06.07-.49L16.2,12.73l.07-.5-.5-.07L-3.59,9.6l.36-2.73L16.13,9.44l.5.06L16.69,9,18.85-7.13m35.54,47.7-.19-.72-6-23.07-.08-.33-.34,0L19.49,12.66l-.5-.07-.06.5L16,35l-.06.49.49.07,37.22,4.93.74.1M36.07,52.78l.4-.07,19.65-3.26.54-.09-.13-.52-1.32-5.07-.08-.33-.33,0-22.74-3-.84-.11.31.79,4.4,11.34.14.38M18.42-7.7,16.2,8.94-3.66,6.31-4.15,10,15.7,12.66,12.78,34.55-3.66,32.37l-.49,3.72,16.44,2.18-4,30,3.71.5,4-30,11.75,1.56,10.47,27,3.49-1.35L37.78,55.79l31.37-5.2-.62-3.7-8.78,1.46-1-3.93,7.93,1,.5-3.71-9.44-1.25-6-23.07,14.91,2,.5-3.72L50.75,13.52,45.64-6.23,42-5.29,46.74,13,19.92,9.44,22.14-7.2l-3.72-.5ZM53.72,40,16.5,35l2.92-21.89L47.75,16.9l6,23.07ZM36.39,52.22,32,40.88l22.74,3L56,49,36.39,52.22Z" transform="translate(4.15 7.7)"/><polygon class="cls-5" points="14.5 54.5 14.18 57.31 19.25 60.06 19.5 57.28 14.5 54.5"/><polygon class="cls-5" points="65.43 59.56 67.72 61.01 70.99 56.38 68.21 54.5 65.43 59.56"/><path class="cls-5" d="M53.87,37.17A16.58,16.58,0,0,1,57.32,42l1,1.94,7.86-3.68L66.43,38l-1.25-1.45S62.46,34,59.85,31.18Z" transform="translate(4.15 7.7)"/><path class="cls-3" d="M57.91,45.19l-1.47-2.81,0-.06a15.84,15.84,0,0,0-3.25-4.5l-.64-.67,7.35-7.36.68.75c2.55,2.79,5.24,5.33,5.27,5.35l0,0,1.56,1.81-.33,3.16Zm.28-3.59.57,1.07,6.54-3.05.14-1.26-1-1.11c-.3-.28-2.44-2.32-4.66-4.68L55.19,37.2A15.27,15.27,0,0,1,58.19,41.6Z" transform="translate(4.15 7.7)"/><path class="cls-5" d="M28.37,37.93,22.48,48.35l7,8.27,1.36-3.42s.9-3.15,4.65-10.46Z" transform="translate(4.15 7.7)"/><path class="cls-3" d="M29.8,58.45l-8.49-10L28,36.55l8.71,5.87-.38.76c-3.65,7.1-4.58,10.26-4.58,10.29l0,0,0,.05ZM23.64,48.24l5.56,6.55.76-1.9a66.28,66.28,0,0,1,4.31-9.83L28.69,39.3Z" transform="translate(4.15 7.7)"/><path class="cls-3" d="M10.29,48.74A23.2,23.2,0,0,1,4.2,43.83c0,.82.5,3.3,4.32,5.56L26.93,59.78a2.54,2.54,0,0,0,2.7-.12Z" transform="translate(4.15 7.7)"/><path class="cls-3" d="M10.69,48,30.16,59l.06-.09,2-3.47s1.48-3-.25-3.3c0,0-3.82,2.41-5.58-2.57l-1.17-4.17s-.74-2.42-4.35-1.64c0,0-8.62,1.35-14.13-1.77a1.53,1.53,0,0,0-2.28.79A22.34,22.34,0,0,0,10.69,48Z" transform="translate(4.15 7.7)"/><path class="cls-3" d="M60.5,54.35c.09-.12,5.36-6.88,7.37-9.83a21.93,21.93,0,0,0,2.8-6.09c-1.22-1.06-5.59-4.68-6.82-3.28,0,0,2.55,2.65.1,4.29,0,0-1.12,1.32-5.51,2.35a2.66,2.66,0,0,0-2.55,3.06s.1,6.43-2.56,9.5c0,0-5.82,5.41-1.53,5.51h1.32C54.77,59.14,58.86,57.13,60.5,54.35Z" transform="translate(4.15 7.7)"/><path class="cls-3" d="M71.35,39a22,22,0,0,1-2.81,6c-2,3-7.31,9.75-7.36,9.81-1.35,2.28-4.13,4-6.14,5.06a8.06,8.06,0,0,0,5.34-2.45s7.49-9.6,9.39-12.15C69.77,45.26,73.36,41,71.35,39Z" transform="translate(4.15 7.7)"/><path class="cls-5" d="M35.65,9.57s7.77,23.34,19.11,31.26l8-9.21S49.47,20.48,52.26,7.41" transform="translate(4.15 7.7)"/><path class="cls-3" d="M54.76,41.79a1,1,0,0,1-.55-.18,34.21,34.21,0,0,1-8-8.46,78.83,78.83,0,0,1-6.12-10.5A111.81,111.81,0,0,1,34.74,9.87l1.81-.6a114.83,114.83,0,0,0,5.27,12.56c4.11,8.32,8.51,14.42,12.8,17.7l6.81-7.83A39.78,39.78,0,0,1,55.68,25a28.93,28.93,0,0,1-3.87-8,19.66,19.66,0,0,1-.49-9.77l1.88.4C51.83,14,54.64,20,57.24,23.84a37.55,37.55,0,0,0,6.15,7,1,1,0,0,1,.11,1.37l-8,9.21A1,1,0,0,1,54.76,41.79Z" transform="translate(4.15 7.7)"/><path class="cls-5" d="M38.28-3S34.06,24.12,24.61,41.31l10.92,6.17S47.68,16.89,59.61-.7" transform="translate(4.15 7.7)"/><path class="cls-3" d="M35.53,48.44a1,1,0,0,1-.48-.13L24.14,42.15a1,1,0,0,1-.37-1.3C28.6,32.06,32,20.57,34.05,12.48c2.2-8.79,3.27-15.58,3.28-15.65l1.89.29c0,.07-1.08,6.93-3.3,15.81-1.3,5.21-2.75,10.1-4.28,14.52A96.59,96.59,0,0,1,25.9,40.94l9.15,5.16c1-2.4,3.63-8.82,7.17-16.51,4.15-9,10.4-21.68,16.6-30.83L60.41-.16c-6.13,9-12.33,21.6-16.44,30.55-4.47,9.71-7.52,17.36-7.55,17.44a1,1,0,0,1-.89.61Z" transform="translate(4.15 7.7)"/></g><rect class="cls-7" x="4.65" y="8.2" width="63.99" height="63.99" rx="13.87"/></g></g></svg>