<svg xmlns="http://www.w3.org/2000/svg" width="483" height="23"><path fill="none" d="M0 0h483v23H0z"/><path d="M13.367.724a17.2 17.2 0 014.636.66 14.593 14.593 0 014.3 1.981 10.854 10.854 0 013.187 3.34 9.823 9.823 0 010 9.559 10.865 10.865 0 01-3.187 3.341 13.561 13.561 0 01-4.3 1.92 18.211 18.211 0 01-9.271 0 13.554 13.554 0 01-4.3-1.92 10.876 10.876 0 01-3.187-3.341 9.823 9.823 0 010-9.559 10.866 10.866 0 013.187-3.34 14.584 14.584 0 014.3-1.981 17.188 17.188 0 014.635-.66zm0 3.68a10.727 10.727 0 00-3.146.48 9.767 9.767 0 00-2.833 1.38 7.257 7.257 0 00-2.049 2.22 6.117 6.117 0 000 6 7.233 7.233 0 002.049 2.221 9.766 9.766 0 002.833 1.38 10.571 10.571 0 006.292 0 9.8 9.8 0 002.834-1.38 7.269 7.269 0 002.049-2.221 6.117 6.117 0 000-6 7.294 7.294 0 00-2.049-2.22 9.8 9.8 0 00-2.834-1.38 10.727 10.727 0 00-3.146-.485zM31.162 21.28q.786 0 .787-.721V2.399q0-.719-.787-.719V.96h7.077v.72c-.221 0-.331.133-.331.4 0 .214.275.587.828 1.12l11.877 11.92V2.399q0-.719-1.076-.719V.96h6.25v.72q-.786 0-.787.719v18.16q0 .722.787.721V22h-6.705v-.72q.538 0 .538-.36 0-.281-.662-.92L36.336 7.28v13.279c0 .481.316.721.951.721V22h-6.125zm50.945 1.479c0-.4-.131-.626-.392-.679A5.219 5.219 0 0080.7 22H61v-.72q1.242 0 1.242-.721V2.399q0-.719-1.242-.719V.96h7.117v.72c-.773 0-1.158.24-1.158.719v15.92h13.739a1.712 1.712 0 001.015-.279.888.888 0 00.392-.76h.745v5.479zm4.552-1.479q1.077 0 1.076-.721V2.399q0-.719-1.076-.719V.96h6.87v.72q-1.077 0-1.076.719v18.16q0 .722 1.076.721V22h-6.87zm12.043 0q.786 0 .787-.721V2.399q0-.719-.787-.719V.96h7.077v.72c-.221 0-.331.133-.331.4 0 .214.275.587.828 1.12l11.877 11.92V2.399q0-.719-1.076-.719V.96h6.25v.72q-.786 0-.787.719v18.16q0 .722.787.721V22h-6.71v-.72c.358 0 .538-.12.538-.36q0-.281-.662-.92L103.871 7.28v13.279q0 .722.951.721V22h-6.125zm50.365-16a.728.728 0 00-.351-.66 2.447 2.447 0 00-1.221-.221h-13.409V9.36h8.112a2.986 2.986 0 001.282-.221q.456-.219.456-1.139h.744v6.24h-.744q0-.92-.456-1.181a2.609 2.609 0 00-1.282-.26h-8.112v5.52h13.823a1.709 1.709 0 001.014-.279.889.889 0 00.393-.76h.745v5.479h-.745c0-.4-.132-.626-.393-.679a5.208 5.208 0 00-1.014-.08h-19.285v-.72a.813.813 0 00.516-.18.65.65 0 00.228-.541V2.399a.645.645 0 00-.228-.539.809.809 0 00-.516-.18V.96h18.871a2.127 2.127 0 001.221-.26.827.827 0 00.351-.7h.745v5.28zm15.726 16a.971.971 0 00.58-.18.627.627 0 00.248-.541V2.319a.527.527 0 00-.248-.5 1.179 1.179 0 00-.58-.139V.96h7.739v.72a.932.932 0 00-.435.119.386.386 0 00-.227.361 1.211 1.211 0 00.166.52q.163.319.372.68l5.918 10.4 5.96-10.28q.288-.519.435-.819a1.28 1.28 0 00.144-.54c0-.293-.18-.44-.538-.44v-.72h7.656v.72a1.17 1.17 0 00-.579.139.525.525 0 00-.249.5v18.24a.626.626 0 00.249.541.964.964 0 00.579.18v.72h-6.5v-.72q1.115 0 1.117-.721V7.281h-.083l-8.318 14.72h-.124l-8.153-14.76h-.083V20.56q0 .722 1.159.721v.72h-6.208zM209.654.724a17.2 17.2 0 014.636.66 14.607 14.607 0 014.3 1.981 10.863 10.863 0 013.186 3.34 9.826 9.826 0 010 9.559 10.873 10.873 0 01-3.186 3.341 13.573 13.573 0 01-4.3 1.92 18.211 18.211 0 01-9.271 0 13.566 13.566 0 01-4.3-1.92 10.865 10.865 0 01-3.187-3.341 9.823 9.823 0 010-9.559 10.854 10.854 0 013.187-3.34 14.6 14.6 0 014.3-1.981 17.2 17.2 0 014.635-.66zm0 3.68a10.714 10.714 0 00-3.145.48 9.754 9.754 0 00-2.834 1.38 7.259 7.259 0 00-2.049 2.22 6.121 6.121 0 000 6 7.235 7.235 0 002.049 2.221 9.753 9.753 0 002.834 1.38 10.567 10.567 0 006.291 0 9.82 9.82 0 002.835-1.38 7.278 7.278 0 002.048-2.221 6.111 6.111 0 000-6 7.3 7.3 0 00-2.048-2.22 9.821 9.821 0 00-2.835-1.38 10.73 10.73 0 00-3.146-.485zm41.51-2.724a1.32 1.32 0 00-1.2.579 7.981 7.981 0 00-.538.941L242.1 18.759c-.248.535-.455.96-.621 1.281a1.829 1.829 0 00-.248.679.471.471 0 00.1.321 1.568 1.568 0 00.268.24V22h-6.332v-.72a.566.566 0 00.373-.561 2.522 2.522 0 00-.31-.82q-.311-.618-.766-1.539l-7.447-15.636a1.352 1.352 0 00-.579-.639 5.621 5.621 0 00-1.076-.4v-.72h7.407v.72a1.215 1.215 0 00-.559.139.554.554 0 00-.268.541 2.6 2.6 0 00.351 1.119q.353.681.849 1.681l5.3 11 5.174-10.841q.5-1.038.93-1.859a3.078 3.078 0 00.435-1.141q0-.639-1.159-.639v-.72h7.243zm3.972 19.6q1.075 0 1.076-.721V2.399q0-.719-1.076-.719V.96h6.87v.72q-1.077 0-1.076.719v18.16q0 .722 1.076.721V22h-6.87zm33.108-16a.726.726 0 00-.352-.66 2.438 2.438 0 00-1.22-.221h-13.409V9.36h8.112a2.991 2.991 0 001.282-.221q.456-.219.456-1.139h.744v6.24h-.74q0-.92-.456-1.181a2.614 2.614 0 00-1.282-.26h-8.112v5.52h13.823a1.7 1.7 0 001.013-.279.886.886 0 00.394-.76h.745v5.479h-.745c0-.4-.132-.626-.394-.679a5.185 5.185 0 00-1.013-.08h-19.285v-.72a.815.815 0 00.516-.18.65.65 0 00.228-.541V2.399a.645.645 0 00-.228-.539.811.811 0 00-.516-.18V.96h18.871a2.12 2.12 0 001.22-.26.825.825 0 00.352-.7h.745v5.28zm27.065 15.279q0 .722.911.721V22h-6.374v-.72a.82.82 0 00.518-.18.652.652 0 00.228-.541V4.639h-6.829a1.456 1.456 0 00-.724.2.8.8 0 00-.352.761h-.745V0h.745a.793.793 0 00.352.759 1.437 1.437 0 00.724.2h18.375a1.44 1.44 0 00.724-.2.8.8 0 00.352-.759h.745v5.6h-.745a.8.8 0 00-.352-.761 1.459 1.459 0 00-.724-.2h-6.829zm30.997-18.16q0-.719-.91-.719V.96h6.373v.72a.811.811 0 00-.517.18.644.644 0 00-.228.539v18.16a.649.649 0 00.228.541.816.816 0 00.517.18V22h-6.373v-.72q.911 0 .91-.721V13.04H332.98v7.519a.65.65 0 00.228.541.816.816 0 00.517.18V22h-6.249v-.72q.786 0 .787-.721V2.399q0-.719-.787-.719V.96h6.249v.72a.811.811 0 00-.517.18.645.645 0 00-.228.539v6.8h13.326zm30.542 2.881a.728.728 0 00-.351-.66 2.442 2.442 0 00-1.221-.221h-13.409V9.36h8.112a3 3 0 001.283-.221q.455-.219.456-1.139h.744v6.24h-.744q0-.92-.456-1.181a2.618 2.618 0 00-1.283-.26h-8.112v5.52h13.823a1.708 1.708 0 001.014-.279.885.885 0 00.393-.76h.746v5.479h-.746c0-.4-.131-.626-.393-.679a5.2 5.2 0 00-1.014-.08h-19.285v-.72a.82.82 0 00.517-.18.652.652 0 00.227-.541V2.399a.647.647 0 00-.227-.539.815.815 0 00-.517-.18V.96h18.871a2.123 2.123 0 001.221-.26.827.827 0 00.351-.7h.746v5.28zm4.056 16a1.216 1.216 0 00.849-.521 8.521 8.521 0 00.6-1L390.01 4.2c.193-.347.365-.666.517-.96a1.715 1.715 0 00.228-.761.584.584 0 00-.29-.559 2.5 2.5 0 00-.62-.24V.96h6.994v.72a3.381 3.381 0 00-.58.219.577.577 0 00-.289.58 1.527 1.527 0 00.144.641c.1.214.241.494.435.84l8.608 16.28a1.359 1.359 0 00.559.639 8.539 8.539 0 00.806.4v.72h-7.283v-.72a1 1 0 00.413-.12.385.385 0 00.249-.361 2.452 2.452 0 00-.331-1.04l-1.573-2.96h-10.1l-1.49 2.84a3.313 3.313 0 00-.414 1.2c0 .294.263.441.787.441v.72h-5.877zm15.6-7.441l-3.477-7.44-3.891 7.44zm24.047 6.72q0 .722.91.721V22h-6.373v-.72a.817.817 0 00.517-.18.648.648 0 00.228-.541V4.639h-6.829a1.459 1.459 0 00-.724.2.8.8 0 00-.351.761h-.746V0h.746a.792.792 0 00.351.759 1.44 1.44 0 00.724.2h18.375a1.438 1.438 0 00.724-.2.792.792 0 00.352-.759h.745v5.6h-.745a.8.8 0 00-.352-.761 1.457 1.457 0 00-.724-.2h-6.828zM447.079.96a17.594 17.594 0 013.6.339 8.294 8.294 0 012.772 1.08 5.044 5.044 0 011.779 1.92 6.176 6.176 0 01.621 2.9 5.06 5.06 0 01-1.614 4.04 8.834 8.834 0 01-4.346 1.88l5.5 7.6a1.116 1.116 0 00.683.481 3.677 3.677 0 00.725.08V22h-7.74v-.72a1.569 1.569 0 00.642-.12c.179-.08.268-.187.268-.321a.893.893 0 00-.165-.46 11.485 11.485 0 00-.5-.7l-4.551-6.24h-5.919v7.119a.607.607 0 00.269.541 1.874 1.874 0 00.973.18v.72h-7.16v-.72q1.2 0 1.2-.721V2.398q0-.719-1.2-.719v-.72zm-1.076 9.359a11.73 11.73 0 002.483-.219 4.437 4.437 0 001.572-.621 2.347 2.347 0 00.829-.939 2.931 2.931 0 000-2.36 2.334 2.334 0 00-.829-.94 4.451 4.451 0 00-1.572-.62 11.716 11.716 0 00-2.483-.221h-7.16v5.92zm35.425-5.039a.728.728 0 00-.352-.66 2.443 2.443 0 00-1.221-.221h-13.409V9.36h8.112a3 3 0 001.283-.221c.3-.146.456-.525.456-1.139h.744v6.24h-.744c0-.613-.153-1.007-.456-1.181a2.618 2.618 0 00-1.283-.26h-8.112v5.52h13.823a1.709 1.709 0 001.014-.279.886.886 0 00.394-.76h.745v5.479h-.745c0-.4-.132-.626-.394-.679a5.208 5.208 0 00-1.014-.08h-19.285v-.72a.816.816 0 00.517-.18.65.65 0 00.227-.541V2.399a.646.646 0 00-.227-.539.811.811 0 00-.517-.18V.96h18.871a2.124 2.124 0 001.221-.26.828.828 0 00.352-.7h.745v5.28z" fill="#292929"/></svg>