<svg xmlns="http://www.w3.org/2000/svg" width="231" height="35" viewBox="0 0 231 35">
  <defs>
    <style>
      .cls-1 {
        fill: #292929;
        fill-rule: evenodd;
      }
    </style>
  </defs>
  <path id="HOW_TO" data-name="HOW TO" class="cls-1" d="M11.426,13.938V1.258H3.176V34h8.25V20.8H27.27V34h8.25V1.258H27.27v12.68H11.426ZM77.143,9.086a15.429,15.429,0,0,0-6.281-6.047,20.067,20.067,0,0,0-9.633-2.2,19.736,19.736,0,0,0-10.2,2.426,15.443,15.443,0,0,0-6.07,6.258,17.624,17.624,0,0,0-1.969,8.168A17.022,17.022,0,0,0,45.1,26.055a15.486,15.486,0,0,0,6.188,6.094,19.827,19.827,0,0,0,9.8,2.273,20.167,20.167,0,0,0,9.8-2.25,15.586,15.586,0,0,0,6.281-6.07,16.914,16.914,0,0,0,2.156-8.461A17.037,17.037,0,0,0,77.143,9.086ZM52.627,12.66A8.3,8.3,0,0,1,56,9.25a10.435,10.435,0,0,1,5.133-1.219,10.158,10.158,0,0,1,5.238,1.3,8.674,8.674,0,0,1,3.363,3.48,10.1,10.1,0,0,1,1.148,4.781,9.286,9.286,0,0,1-2.707,7.043,9.829,9.829,0,0,1-7.09,2.59,10.3,10.3,0,0,1-4.992-1.2,8.447,8.447,0,0,1-3.422-3.387,10.022,10.022,0,0,1-1.219-4.957A10.494,10.494,0,0,1,52.627,12.66Zm46.615,8.1-7.453-19.5H83.3L96.9,34.328h4.312l9.258-21.492,9.164,21.492h4.242L137.68,1.258h-8.391l-7.64,19.5-8.016-19.5H107.4Zm88.8-12.68V1.258H156.356v6.82h11.672V34h8.25V8.078h11.765Zm38.975,1.008a15.428,15.428,0,0,0-6.281-6.047A20.07,20.07,0,0,0,211.1.836a19.734,19.734,0,0,0-10.2,2.426,15.445,15.445,0,0,0-6.071,6.258,17.63,17.63,0,0,0-1.968,8.168,17.024,17.024,0,0,0,2.109,8.367,15.488,15.488,0,0,0,6.187,6.094,19.83,19.83,0,0,0,9.8,2.273,20.167,20.167,0,0,0,9.8-2.25,15.579,15.579,0,0,0,6.281-6.07,16.909,16.909,0,0,0,2.157-8.461A17.039,17.039,0,0,0,227.018,9.086ZM202.5,12.66a8.3,8.3,0,0,1,3.375-3.41,10.438,10.438,0,0,1,5.133-1.219,10.155,10.155,0,0,1,5.238,1.3,8.675,8.675,0,0,1,3.364,3.48,10.106,10.106,0,0,1,1.148,4.781,9.285,9.285,0,0,1-2.707,7.043,9.83,9.83,0,0,1-7.09,2.59,10.3,10.3,0,0,1-4.992-1.2,8.444,8.444,0,0,1-3.422-3.387,10.029,10.029,0,0,1-1.219-4.957A10.5,10.5,0,0,1,202.5,12.66Z"/>
</svg>
