<svg xmlns="http://www.w3.org/2000/svg" width="347" height="35" viewBox="0 0 347 35">
  <defs>
    <style>
      .cls-1 {
        fill: #292929;
        fill-rule: evenodd;
      }
    </style>
  </defs>
  <path id="CHECK_POINT" data-name="CHECK POINT" class="cls-1" d="M18.516,0.836a21.121,21.121,0,0,0-9.4,2.039A15.469,15.469,0,0,0,2.59,8.734,16.624,16.624,0,0,0,.234,17.641,16.952,16.952,0,0,0,2.414,26.2a15.452,15.452,0,0,0,6.293,6.024,20.184,20.184,0,0,0,9.668,2.2,26.2,26.2,0,0,0,12.539-2.859V24.2a19.975,19.975,0,0,1-11.18,3.609,12.279,12.279,0,0,1-5.918-1.348,9.419,9.419,0,0,1-3.809-3.645A9.977,9.977,0,0,1,8.7,17.781a10.541,10.541,0,0,1,1.289-5.144,9.531,9.531,0,0,1,3.832-3.773,12.355,12.355,0,0,1,6.106-1.418,16.836,16.836,0,0,1,5.379.867,25.6,25.6,0,0,1,5.426,2.648V3.367A31.964,31.964,0,0,0,18.516.836h0Zm26.555,13.1V1.258H36.82V34h8.25V20.8H60.914V34h8.25V1.258h-8.25v12.68H45.07Zm53.508-6.82V1.258H76.172V34H98.953V28.141H84.422V20.172H97.945V14.313H84.422v-7.2H98.578Zm23.227-6.281a21.122,21.122,0,0,0-9.4,2.039,15.468,15.468,0,0,0-6.527,5.859,16.627,16.627,0,0,0-2.356,8.906A16.954,16.954,0,0,0,105.7,26.2,15.453,15.453,0,0,0,112,32.219a20.184,20.184,0,0,0,9.668,2.2A26.192,26.192,0,0,0,134.2,31.563V24.2a19.976,19.976,0,0,1-11.18,3.609,12.283,12.283,0,0,1-5.918-1.348A9.418,9.418,0,0,1,113.3,22.82a9.979,9.979,0,0,1-1.313-5.039,10.546,10.546,0,0,1,1.289-5.144,9.54,9.54,0,0,1,3.832-3.773,12.36,12.36,0,0,1,6.106-1.418,16.839,16.839,0,0,1,5.379.867,25.61,25.61,0,0,1,5.426,2.648V3.367A31.967,31.967,0,0,0,121.805.836h0Zm26.554,15.492V1.258h-8.25V34h8.25V18.109L162.07,34h10.289L157.2,16.633l12.75-15.375h-9.211ZM212.367,3.871q-3.187-2.613-8.859-2.613H189.7V34h8.25V21.133h5.953a14.186,14.186,0,0,0,6.457-1.324,9.118,9.118,0,0,0,3.9-3.551,9.829,9.829,0,0,0,1.289-5.016A9,9,0,0,0,212.367,3.871Zm-10.289,11.66h-4.125V6.883h3.8a6.51,6.51,0,0,1,4.09,1.031,4.032,4.032,0,0,1,1.277,3.328q0,4.289-5.039,4.289h0Zm51.047-6.445a15.428,15.428,0,0,0-6.281-6.047,20.07,20.07,0,0,0-9.633-2.2,19.734,19.734,0,0,0-10.2,2.426,15.445,15.445,0,0,0-6.071,6.258,17.63,17.63,0,0,0-1.968,8.168,17.024,17.024,0,0,0,2.109,8.367,15.488,15.488,0,0,0,6.187,6.094,19.83,19.83,0,0,0,9.8,2.273,20.167,20.167,0,0,0,9.8-2.25,15.579,15.579,0,0,0,6.281-6.07,16.909,16.909,0,0,0,2.157-8.461A17.039,17.039,0,0,0,253.125,9.086ZM228.609,12.66a8.309,8.309,0,0,1,3.375-3.41,10.438,10.438,0,0,1,5.133-1.219,10.155,10.155,0,0,1,5.238,1.3,8.675,8.675,0,0,1,3.364,3.48,10.106,10.106,0,0,1,1.148,4.781,9.285,9.285,0,0,1-2.707,7.043,9.83,9.83,0,0,1-7.09,2.59,10.3,10.3,0,0,1-4.992-1.2,8.45,8.45,0,0,1-3.422-3.387,10.028,10.028,0,0,1-1.218-4.957A10.5,10.5,0,0,1,228.609,12.66ZM269.133,34V1.258h-8.25V34h8.25Zm32.625-12.328L283.383,1.258h-7.242V34h8.109V13.656L302.578,34h7.336V1.258h-8.156V21.672ZM345.984,8.078V1.258H314.3v6.82h11.672V34h8.25V8.078h11.765Z"/>
</svg>
