<svg xmlns="http://www.w3.org/2000/svg" width="380" height="66"><defs><clipPath id="a"><path transform="translate(450 773)" fill="none" stroke="#707070" d="M0 0h380v66H0z"/></clipPath></defs><g transform="translate(-450 -773)" clip-path="url(#a)"><path d="M488.276 828.731c-.783.269-1.041.526-.646.835.544.424 1.036.32 2.446.384 1.021.046 2.309.013 3.35.022-.241.122-2.754.254-2.983.289a5.785 5.785 0 00-2.056.729 35.99 35.99 0 01-1.008.328c-.026.1.888.394 1.058.511.579.4 1.237.867 1.184 1.225-.018.128-.232.3-.312.429q.663.173.052.326a.94.94 0 00-.415.22c-.068.251-.2.743 1.049.906.891.116 3.805-.017 4.814-.01a7.069 7.069 0 01-.921.432c-.514-.3-.986.026-1.387.125q0-.178-.7-.258c-.89.455-3.4.707-1.293 1.237 1.646.414 4.787.253 6.978.261 4.142.014 8.3-.007 12.447-.015l12.072-.025c.815 0 2.841-.108 3.523-.015 1.3.177.38.44 2.239.516 1.128.046 2.557 0 3.7.007a6.912 6.912 0 01-.911.426c-.517-.3-.985.027-1.384.126q0-.179-.7-.26c-.827.423-3.171.64-1.567 1.157 1.525.491 4.6.338 6.859.336 3.9 0 7.8.026 11.692 0 7.764-.047 15.624-.054 23.389-.017 15.7.072 31.452-.013 47.153-.024 31.278-.023 62.667.111 93.932-.079 8.766-.054 17.639-.06 26.407-.019 4.35.02 9.242.111 13.535-.037 1.825-.063 5.369-.279 5.686-.777.132-.208-.6-.7-.824-.9-.5-.457-.65-.421-2.876-.469 1.256-.491 3.144-.289 2.158-.926a3.6 3.6 0 00-.981-.473 5.98 5.98 0 00-1.049-.321c8.123.155 16.422.224 24.571.277 3.953.026 8.5.26 12.349.033 2.1-.124 4.576-.281 4.627-.828a1.663 1.663 0 00-.669-.937c-.591-.315-1.3-.292-2.892-.326.588-.229 2.308-.261 2.664-.524.3-.219-.506-.52-.863-.718a13.3 13.3 0 00-4.28-1.132 5.186 5.186 0 001.187-.515.966.966 0 00.271-.338 8.633 8.633 0 001.19-.083c.938-.234 1.766-.075 1.325-.508-.316-.31-.334-.2-1.815-.36-.843-.089-1.606-.32-2.4-.383-.416-.033-2.172.044-2.625.041-1.417-.011-3-.028-4.521-.053-6.213-.1-12.749-.293-19.03-.258-3.089.017-6.469-.011-9.6-.077-2.985-.063-6.234-.046-9.236-.144-2.986-.1-6.264-.094-9.236-.144-1.559-.027-3.082.083-4.52-.053a8.108 8.108 0 01-1.411-.188c-.878-.178-.669-.438-2.154-.5a5.549 5.549 0 001.288-.609c1.167-.507-.28-.066.9-.275.357-.063 1.757-.128 1.915-.183a.913.913 0 01-.128-.377c-.331-.331.581-.027-.924-.281-.947-.159-2.955-.39-3.881-.43-1.563-.068-3.906-.037-5.445-.032-2.257.008-4.44 0-6.627.032-8.148.124-16.5.032-24.736.032-16.122 0-32.488-.063-48.612-.064-16.567 0-32.9.006-49.469.064-3.9.013-8.066.035-12.072 0-3.988-.036-8.217.044-12.235-.032-8.006-.152-16.319.04-24.306-.032-4.53-.04-9.152 0-13.58 0-4.572 0-9.129-.015-13.581 0-4.76.016-9.49-.04-14.172.032-2.254.034-4.536-.03-6.791 0-1.337.018-7.293.687-4.263 1.085-3.248-.4-1.048.92-.772 1.1.369.245.978.519 1 .74.046.278-.955.45-.151.746zm-36.027-39c-.969.269-1.288.526-.8.835.673.424 1.282.32 3.027.384 1.264.046 2.857.013 4.145.022-.3.122-3.408.254-3.692.289a8.3 8.3 0 00-2.544.729c-.039.013-1.251.337-1.248.328-.032.1 1.1.394 1.309.511.717.4 1.53.867 1.466 1.225-.023.128-.287.3-.386.429.547.116.57.225.065.326a1.263 1.263 0 00-.513.22c-.084.251-.249.743 1.3.906 1.1.116 4.709-.017 5.956-.01a9.817 9.817 0 01-1.14.432c-.636-.3-1.22.026-1.716.125q0-.178-.86-.258c-1.1.455-4.2.707-1.6 1.237 2.037.414 5.924.253 8.634.261 5.125.014 10.276-.007 15.4-.015l14.938-.024c1.009 0 3.516-.108 4.36-.015 1.6.177.47.44 2.77.516 1.4.046 3.164 0 4.581.007a9.6 9.6 0 01-1.127.426c-.639-.3-1.219.027-1.713.126q0-.179-.862-.26c-1.023.423-3.924.64-1.939 1.157 1.887.491 5.69.338 8.487.336 4.82 0 9.648.026 14.468 0 9.608-.047 19.333-.054 28.943-.017 19.422.072 38.92-.013 58.349-.024 38.7-.023 77.546.111 116.234-.079 10.847-.054 21.827-.06 32.676-.019 5.383.02 11.437.111 16.749-.037 2.258-.063 6.644-.279 7.036-.777.163-.208-.741-.7-1.02-.9-.618-.457-.8-.421-3.559-.469 1.554-.491 3.89-.289 2.67-.926a4.959 4.959 0 00-1.214-.473 8.732 8.732 0 00-1.3-.321c10.052.155 20.321.224 30.405.277 4.891.026 10.518.26 15.282.033 2.6-.124 5.663-.281 5.725-.828.023-.183-.46-.778-.828-.937-.731-.315-1.614-.292-3.579-.326.728-.229 2.855-.261 3.3-.524.367-.219-.626-.52-1.069-.718a19.584 19.584 0 00-5.3-1.132 7.274 7.274 0 001.469-.515 1.032 1.032 0 00.336-.338 13.18 13.18 0 001.472-.083c1.161-.234 2.186-.075 1.64-.508-.391-.31-.413-.2-2.245-.36-1.043-.089-1.987-.32-2.968-.383-.515-.033-2.688.044-3.248.041a814.679 814.679 0 01-5.595-.053c-7.688-.1-15.776-.293-23.548-.258-3.822.017-8-.011-11.881-.077-3.693-.063-7.714-.046-11.429-.144-3.695-.1-7.751-.094-11.429-.144-1.929-.027-3.814.083-5.593-.053a12.291 12.291 0 01-1.747-.188 9.31 9.31 0 00-2.665-.5 7.678 7.678 0 001.593-.609c1.445-.507-.347-.066 1.112-.275.442-.063 2.174-.128 2.37-.183-.04.011-.2-.415-.158-.377-.41-.331.718-.027-1.143-.281-1.172-.159-3.656-.39-4.8-.43-1.934-.068-4.833-.037-6.738-.032-2.793.008-5.495 0-8.2.032-10.082.124-20.42.032-30.609.032-19.95 0-40.2-.063-60.153-.064-20.5 0-40.717.006-61.214.064-4.826.013-9.981.035-14.938 0-4.935-.036-10.168.044-15.14-.032-9.906-.152-20.194.04-30.077-.032-5.606-.04-11.325 0-16.8 0-5.658 0-11.3-.015-16.805 0-5.89.016-11.743-.04-17.537.032-2.789.034-5.613-.03-8.4 0-1.655.018-9.025.687-5.275 1.085-4.019-.4-1.3.92-.956 1.1.457.245 1.211.519 1.241.74.039.277-1.2.449-.208.745z" fill="#fed438" fill-rule="evenodd"/><path d="M470.04 773.908h-1.764l-2.044 4.368v3.78h3.948v-3.78h-1.988zm5.516 0h-1.764l-2.044 4.368v3.78h3.948v-3.78h-1.988zm18.928 6.888h2.184c1.568 0 2.94.028 4.816.112.308 0 .364-.168.392-.532.028-.7.028-1.484 0-2.184 0-.308-.084-.476-.364-.448-1.652.084-3.192.084-4.9.084h-7.924a47.557 47.557 0 01-4.844-.112 15.524 15.524 0 00.224 2.6c.084.42.14.616.476.588a78.383 78.383 0 014.34-.112h2.184v9.576h-3.808c-1.792 0-3.92-.028-5.936-.14a16.323 16.323 0 00.2 2.632c.084.476.14.588.588.56 2.184-.028 4-.112 5.152-.112h11.256c1.82 0 4.312.056 5.656.112.336 0 .42-.14.42-.5.028-.728.028-1.512 0-2.24 0-.336-.14-.476-.448-.448-1.9.056-3.78.112-5.656.112h-4zm16.688 3.024a24.551 24.551 0 015.656 3.052.542.542 0 00.336.168c.112 0 .224-.112.364-.28a11.4 11.4 0 001.232-2.128.831.831 0 00.112-.308c0-.168-.112-.28-.308-.42a19.432 19.432 0 00-5.376-2.744c-.252-.056-.392.084-.532.28-.336.448-.784 1.26-1.484 2.38zm3.388-6.58a27.08 27.08 0 015.432 3.444.721.721 0 00.42.2.312.312 0 00.28-.168 11.985 11.985 0 001.428-2.1.678.678 0 00.112-.364.443.443 0 00-.224-.364 19.035 19.035 0 00-5.264-3.108c-.336-.168-.5-.112-.7.224-.476.724-1.008 1.508-1.484 2.236zm-1.176 15.96a17.683 17.683 0 002.072 2.856.72.72 0 00.56.336.62.62 0 00.448-.224 9.2 9.2 0 011.624-.952 65 65 0 008.372-5.264 52.165 52.165 0 007.112-6.468.871.871 0 00.308-.644 1.369 1.369 0 00-.14-.532 13.984 13.984 0 01-.812-3.136 50.953 50.953 0 01-8.064 7.812 46.9 46.9 0 01-7.672 4.844 12.946 12.946 0 01-3.808 1.372zm33.04-13.5c-1.624 0-2.884 0-4.648-.112.056 1.036.112 2.044.224 2.716.028.336.14.5.42.476 1.316-.084 2.66-.14 4.032-.14h2.52a16.315 16.315 0 01-2.016 6.048 15.588 15.588 0 01-6.58 5.712 7.142 7.142 0 012.352 1.628.719.719 0 00.532.28 1.275 1.275 0 00.64-.224 18.048 18.048 0 005.94-5.768 20.832 20.832 0 002.492-7.756h5.656a39.219 39.219 0 01-.84 8.4c-.336 1.26-.7 1.708-1.456 1.96a11.429 11.429 0 01-3.808.252 5.86 5.86 0 011.624 2.548.681.681 0 00.672.56 11.836 11.836 0 002.828-.308c1.792-.448 2.744-1.624 3.3-3.78a47.729 47.729 0 001.036-9.212c.056-1.484.112-2.6.112-2.968 0-.308-.14-.392-.588-.392-1.288 0-2.6.056-3.892.056h-4.256c.14-1.372.168-2.044.252-2.94a2.608 2.608 0 01.364-1.316 1.256 1.256 0 00.14-.532.578.578 0 00-.476-.588 21.927 21.927 0 00-3.64-.588 10.765 10.765 0 01.2 2.212 50.112 50.112 0 01-.2 3.78zm37.632 1.036c0-2.016 0-2.576.252-3.108a1.792 1.792 0 00.224-.7c0-.224-.14-.392-.5-.476a26.72 26.72 0 00-3.5-.588 22.358 22.358 0 01.28 4.872v8.764c0 1.428.028 1.764-.168 2.128a.86.86 0 00-.112.42 1.117 1.117 0 00.252.588 8.085 8.085 0 001.68 1.708 1.194 1.194 0 00.588.224.889.889 0 00.56-.224 9.3 9.3 0 01.812-.588 46.5 46.5 0 004.976-3.356 35.393 35.393 0 004.144-3.668c.308-.308.42-.5.42-.7a1.394 1.394 0 00-.168-.476 8.072 8.072 0 01-.868-2.828 26.87 26.87 0 01-4.9 4.76 28.465 28.465 0 01-3.976 2.6zm-9.772-3.108a7.531 7.531 0 01.28 2.352c-.028 4.48-.392 6.02-1.176 7.924a13.9 13.9 0 01-4.648 5.576 9.922 9.922 0 012.38 1.176.952.952 0 00.532.224 1.27 1.27 0 00.728-.364 14.424 14.424 0 003.976-5.264 20.956 20.956 0 001.512-8.232 4.039 4.039 0 01.336-1.9c.168-.392.112-.728-.364-.868a22.637 22.637 0 00-3.556-.62zm28.168-3.3H598.5v3.78h1.988l-1.848 4.368h1.764l2.044-4.368zm5.516 0h-3.948v3.78h1.988l-1.848 4.368h1.764l2.044-4.368zM628.3 787.46c2.38-.98 4.2-1.6 6.02-2.24a8.954 8.954 0 011.708-.42c.28-.056.42-.168.42-.392a1.107 1.107 0 00-.224-.616 17.248 17.248 0 00-1.96-2.464 8.421 8.421 0 01-2.132 1.512c-1.428.728-3.024 1.456-4.116 1.96a3.092 3.092 0 00-3.416-3.024 5.571 5.571 0 00-2.8.868l-.028-.056a28.894 28.894 0 002.1-3.108c2.044-.224 4.452-.532 6.552-.84.392-.056.5-.168.476-.448a9.441 9.441 0 00-.28-2.016c-.056-.252-.14-.336-.448-.28a45.043 45.043 0 01-5.1.868c.336-.756.476-1.12.644-1.512a2.181 2.181 0 01.476-.672.541.541 0 00.2-.42.5.5 0 00-.336-.476 17.68 17.68 0 00-3.192-.784 6.816 6.816 0 01-.2 1.708 21.575 21.575 0 01-.84 2.408 61.761 61.761 0 01-6.44.028c.084.84.2 1.876.28 2.324.056.308.14.448.392.448 1.652 0 3.164-.028 4.48-.084a28.612 28.612 0 01-5.852 6.944c-.14.112-.2.2-.2.308a.455.455 0 00.112.252 13.318 13.318 0 001.6 1.848.558.558 0 00.308.2c.112 0 .2-.084.336-.252a37.732 37.732 0 012.8-3.052 6.76 6.76 0 013.864-2.016c1.26-.056 1.6.5 1.68 1.932-4.224 2.18-5.904 4.14-5.904 6.828 0 3.248 2.436 4.62 7.028 4.62a49.8 49.8 0 006.944-.364c.224 0 .336-.2.308-.532a12.531 12.531 0 00-.252-2.3c-.028-.252-.14-.336-.392-.308a47.852 47.852 0 01-6.972.56c-2.94 0-3.892-.756-3.892-1.932 0-1.344.9-2.436 3.388-3.724-.028 1.008-.028 2.408-.028 3.416 0 .28.112.448.364.448a15.147 15.147 0 001.988-.14c.364-.056.532-.2.532-.5zm32.172-2.912c1.932 0 3.864.056 5.32.112.252 0 .42-.112.42-.476a27.68 27.68 0 000-2.156c0-.392-.028-.56-.308-.56a77.137 77.137 0 01-5.46.168h-12.576c-1.624 0-3.192 0-4.76-.14a16.846 16.846 0 00.224 2.688c.028.364.112.56.364.532 1.428-.084 2.8-.168 4.2-.168h5.32a11.893 11.893 0 01-1.428 6.02c-1.176 2.132-2.828 3.5-5.572 4.984a7.355 7.355 0 012.492 1.484.825.825 0 00.588.28 1.705 1.705 0 00.84-.336 14.1 14.1 0 004.928-5.292 15.994 15.994 0 001.652-7.14zm-3.024-6.5c1.54 0 3.192.028 4.7.084.308 0 .364-.14.364-.532a12.455 12.455 0 000-2.044c0-.364-.056-.532-.336-.532-1.4.084-3.164.112-4.732.112h-6.272c-1.26 0-2.688-.028-4.648-.14.084 1.008.112 2.016.2 2.688.028.336.112.476.476.476 1.568-.056 2.688-.112 3.976-.112zm30.828 9.3c2.072 0 4.144.028 6.244.056.392.028.5-.084.5-.42a20.638 20.638 0 000-2.632c0-.336-.084-.42-.5-.392-2.156.028-4.312.084-6.44.084h-9.02a35.972 35.972 0 01-6.048-.336 30.39 30.39 0 00.42 3.388c.084.42.308.588.644.588a22.39 22.39 0 014.116-.336zm19.904-9.072c-1.932 0-4.2 0-6.1-.2a25.794 25.794 0 00.336 3c.056.336.14.5.5.5 1.512-.14 3.584-.2 5.208-.2l11.788-.056a62.762 62.762 0 01-6.468 6.608 43.745 43.745 0 00-3.976-3.128.842.842 0 00-.392-.2.59.59 0 00-.308.14c-.5.448-1.456 1.344-2.016 1.876a41.971 41.971 0 018.988 8.712q.168.252.336.252a.746.746 0 00.364-.14 20.584 20.584 0 001.82-1.652.674.674 0 00.252-.448.633.633 0 00-.2-.42 29.838 29.838 0 00-2.464-2.8 100.105 100.105 0 007.532-7.5 8.328 8.328 0 011.344-1.064.7.7 0 00.364-.588 1.189 1.189 0 00-.224-.616 12.914 12.914 0 00-2.016-2.24.69.69 0 00-.476-.224.834.834 0 00-.392.14 5.149 5.149 0 01-2.324.252zm25.844-3.612a22.591 22.591 0 01-.5 4.172 53.452 53.452 0 00-.952 9.184 26.249 26.249 0 001.284 8.344c.056.2.168.336.364.308a13.9 13.9 0 002.3-.448c.252-.056.364-.168.364-.364 0-.224-.056-.448-.056-.784a3.179 3.179 0 01.084-.868 27.373 27.373 0 011.588-4.228.775.775 0 00.14-.448 1.115 1.115 0 00-.2-.42 7.268 7.268 0 01-.98-1.764c-.812 1.96-1.316 2.884-1.9 4.172a27 27 0 01-.16-3.276 45.37 45.37 0 011.172-9.044 6.615 6.615 0 01.672-1.988c.364-.56.42-.644.42-.84 0-.252-.168-.42-.644-.672a12.392 12.392 0 00-2.996-1.036zm6.44 14.448a6.169 6.169 0 00.98 3.64c1.2 1.652 3.136 2.324 7.28 2.324a37.594 37.594 0 004.564-.308c.476-.056.476-.084.476-.42a20.745 20.745 0 00-.164-2.408c-.056-.364-.112-.392-.392-.364a40.137 40.137 0 01-5.348.364c-3.052 0-4.4-.7-4.564-2.632 0-.308-.056-.448-.28-.42zm.9-7.952a34.231 34.231 0 016.356-.644c1.428 0 2.884.056 4.564.168.252.028.336-.084.364-.336.056-.784.056-1.54.056-2.38 0-.28-.056-.336-.644-.364-1.176-.112-2.464-.168-4.144-.168a44.7 44.7 0 00-6.076.5c-.28.056-.364.14-.392.476-.06.48-.06 1.18-.088 2.748zm24.388-7.252a18.616 18.616 0 01.28 5.124c-.14 3.36-.392 7.392-.392 12.1 0 4.284 1.68 5.712 5.264 5.712a16 16 0 0010.612-4.2c.448-.392.56-.616.56-.868a1.84 1.84 0 00-.224-.672 9.734 9.734 0 01-.644-2.66c-3.416 3.64-7.308 5.152-9.8 5.152-2.24 0-2.576-.644-2.576-3.472 0-3.668.14-6.524.42-10.836a16.783 16.783 0 01.392-3.416 2.716 2.716 0 00.28-.924c0-.28-.2-.42-.672-.532a28.959 28.959 0 00-3.504-.508zm34.212 4.592c.2-.7.392-1.652.672-2.66a5.331 5.331 0 01.588-1.12.673.673 0 00.14-.448.466.466 0 00-.308-.448 16.319 16.319 0 00-3.528-.784 19.266 19.266 0 01-.168 2.576c-.2 1.148-.42 2.38-.7 3.5a37.841 37.841 0 01-4.536.28 12.922 12.922 0 01-2.072-.084c.14 1.008.28 1.96.392 2.548.056.364.168.448.588.448 1.316 0 3.276-.14 4.9-.308a105.1 105.1 0 01-4.844 13.272.451.451 0 00.224.56c.588.336 1.96.924 2.24 1.036.308.084.476.112.616-.28 1.792-4.648 3.22-8.932 5.124-15.148a44.714 44.714 0 004.872-1.064c.364-.084.448-.168.42-.532-.028-.588-.112-1.4-.2-2.016-.028-.224-.14-.364-.448-.28-1.368.392-2.88.752-3.972.952zm.5 12.852a5.461 5.461 0 001.26 3.836c1.26 1.316 3.164 1.82 6.832 1.82a33.272 33.272 0 003.812-.308c.448-.028.476-.112.448-.448a17.5 17.5 0 00-.224-2.436c-.028-.224-.112-.28-.336-.252a41.86 41.86 0 01-4.7.392c-2.688 0-4.06-.588-4.284-2.632-.028-.28-.14-.392-.42-.392a14.261 14.261 0 00-2.384.42zm2.184-5.292a30.986 30.986 0 015.628-.644 18.724 18.724 0 013.472.336c.392.084.532-.028.532-.5a19.76 19.76 0 00-.028-2.24c0-.336-.084-.364-.476-.42a20.391 20.391 0 00-3.276-.28 29.243 29.243 0 00-5.46.644c-.42.084-.5.168-.5.56 0 .556.06 1.564.112 2.544zM508.68 830.024c.056 1.232-.168 1.512-.812 1.652a20.071 20.071 0 01-3.948.28 5.68 5.68 0 011.96 2.492c.14.364.336.476.868.476a8.576 8.576 0 003.864-.98 2.945 2.945 0 001.344-2.968l-.5-10.528h2.268c1.736 0 3.332.056 5.376.14a.354.354 0 00.392-.392c.028-.784.028-1.652 0-2.436 0-.2-.14-.336-.42-.336-2.072.084-3.472.14-5.432.14h-2.44l-.084-2.128a7.952 7.952 0 01.112-2.576 1.573 1.573 0 00.112-.42c0-.168-.084-.28-.364-.336a24.532 24.532 0 00-3.528-.308 14.037 14.037 0 01.448 3.3l.112 2.492h-6.664c-1.68 0-3.332-.028-5.012-.14a25 25 0 00.224 2.716c.028.308.14.5.392.476a79.777 79.777 0 014.48-.14l4.9-.028a26.915 26.915 0 01-4.116 4.34 32.994 32.994 0 01-6.524 4.424 6.336 6.336 0 012.3 1.652.584.584 0 00.476.28 1.18 1.18 0 00.644-.252A31.572 31.572 0 00504.4 827a23.189 23.189 0 003.948-4.312zm18.172-13.468a29.639 29.639 0 015.712 4.564c.14.14.252.224.364.224s.2-.084.336-.224c.392-.42 1.316-1.54 1.736-2.1a.6.6 0 00.168-.364c0-.112-.084-.224-.252-.392a29.2 29.2 0 00-5.348-3.976.746.746 0 00-.364-.14.524.524 0 00-.392.224c-.532.56-1.344 1.428-1.96 2.184zm.616 13.972a19.4 19.4 0 002.24 3.108.726.726 0 00.476.308.774.774 0 00.5-.28 9.665 9.665 0 011.876-1.288 60.2 60.2 0 008.456-5.488 45.766 45.766 0 006.44-5.936c.308-.364.448-.588.448-.84a1.369 1.369 0 00-.14-.532 12.5 12.5 0 01-.784-3.276 42.066 42.066 0 01-7.672 7.616 41.5 41.5 0 01-8.064 5.208 16.868 16.868 0 01-3.776 1.4zm41.86-14.84c1.708 0 3.024.056 3.948.056.42.028.5-.084.5-.56a14.217 14.217 0 000-2.184c0-.308-.084-.448-.336-.448-1.092.056-2.576.14-4.4.14H564a38.576 38.576 0 01-4.592-.2 24.4 24.4 0 00.14 2.688c.028.448.112.616.392.616a56.81 56.81 0 013.836-.112zm2.128 5.992c-2.016 5.4-6.58 9.268-11.76 11.676a8.208 8.208 0 012.6 1.456.914.914 0 00.616.336 1.345 1.345 0 00.56-.2c5.408-2.908 8.628-6.408 11.428-12.372a3.207 3.207 0 01.952-1.316.675.675 0 00.308-.532.825.825 0 00-.28-.588 16.526 16.526 0 00-1.88-1.74.721.721 0 00-.42-.2.6.6 0 00-.364.168 3.08 3.08 0 01-1.484.308h-9.6a49.552 49.552 0 01-5.152-.224 21.226 21.226 0 00.308 2.828c.056.364.168.532.42.532 1.4-.084 2.8-.112 4.2-.112zm27.636-2.18a44.323 44.323 0 003.276-3.528 9.225 9.225 0 011.68-1.54.8.8 0 00.392-.616.5.5 0 00-.224-.42 24.911 24.911 0 00-3.108-1.96 8.116 8.116 0 01-1.764 2.884 45.428 45.428 0 01-5.964 5.852 44.948 44.948 0 01-8.82 5.74 10.481 10.481 0 012.408 1.652.78.78 0 00.588.28.79.79 0 00.42-.112 48.44 48.44 0 007.7-5.376v6.524c0 1.9-.084 3.724-.112 5.74-.028.336.084.448.392.448a23.354 23.354 0 002.8 0c.308 0 .448-.112.42-.476-.056-2.24-.084-3.892-.084-5.824zm15.96-2.94a29.639 29.639 0 015.712 4.564c.14.14.252.224.364.224s.2-.084.336-.224c.392-.42 1.316-1.54 1.736-2.1a.6.6 0 00.168-.364c0-.112-.084-.224-.252-.392a29.2 29.2 0 00-5.348-3.976.746.746 0 00-.364-.14.525.525 0 00-.392.224c-.532.556-1.344 1.424-1.96 2.18zm.616 13.972a19.4 19.4 0 002.24 3.108.726.726 0 00.476.308.774.774 0 00.5-.28 9.665 9.665 0 011.876-1.288 60.2 60.2 0 008.456-5.488 45.766 45.766 0 006.44-5.936c.308-.364.448-.588.448-.84a1.369 1.369 0 00-.14-.532 12.5 12.5 0 01-.78-3.284 42.066 42.066 0 01-7.672 7.616 41.5 41.5 0 01-8.064 5.208 16.868 16.868 0 01-3.78 1.404zm44.492-2.6h-9.6c-2.212 0-3.836-.056-5.152-.14a26.546 26.546 0 00.14 2.912c.028.308.14.42.392.42 1.34-.036 2.824-.124 4.588-.124h9.632v1.12c0 .42.084.448.532.476a18.09 18.09 0 002.464 0c.392-.028.5-.112.5-.392-.028-.784-.112-3.024-.112-5.068v-6.688c0-1.484.056-2.94.056-4.424.028-.364-.112-.476-.56-.476-1.484.056-2.968.112-4.424.112H650.3a40.056 40.056 0 01-4.676-.2c0 .924.056 2.24.14 3 0 .336.112.476.42.476a38.535 38.535 0 014.2-.168h9.776zm13.692-11.376a29.639 29.639 0 015.712 4.564c.14.14.252.224.364.224s.2-.084.336-.224c.392-.42 1.316-1.54 1.736-2.1a.6.6 0 00.168-.364c0-.112-.084-.224-.252-.392a29.2 29.2 0 00-5.348-3.976.746.746 0 00-.364-.14.525.525 0 00-.392.224c-.532.56-1.344 1.428-1.96 2.184zm.616 13.972a19.4 19.4 0 002.24 3.108.726.726 0 00.476.308.774.774 0 00.5-.28 9.665 9.665 0 011.876-1.288 60.2 60.2 0 008.456-5.488 45.766 45.766 0 006.44-5.936c.308-.364.448-.588.448-.84a1.369 1.369 0 00-.14-.532 12.5 12.5 0 01-.784-3.276 42.066 42.066 0 01-7.672 7.616 41.5 41.5 0 01-8.064 5.208 16.868 16.868 0 01-3.776 1.4zm44.832-7.98c1.932 0 3.864.056 5.32.112.252 0 .42-.112.42-.476a27.68 27.68 0 000-2.156c0-.392-.028-.56-.308-.56a77.137 77.137 0 01-5.46.168H706.7c-1.624 0-3.192 0-4.76-.14a16.847 16.847 0 00.224 2.688c.028.364.112.56.364.532 1.428-.084 2.8-.168 4.2-.168h5.32a11.893 11.893 0 01-1.428 6.02c-1.176 2.128-2.828 3.5-5.572 4.984a7.355 7.355 0 012.492 1.484.825.825 0 00.588.28 1.705 1.705 0 00.84-.336 14.1 14.1 0 004.928-5.292 15.994 15.994 0 001.652-7.14zm-3.024-6.5c1.54 0 3.192.028 4.7.084.308 0 .364-.14.364-.532a12.455 12.455 0 000-2.044c0-.364-.056-.532-.336-.532-1.4.084-3.164.112-4.732.112H710c-1.26 0-2.688-.028-4.648-.14.084 1.008.112 2.016.2 2.688.028.336.112.476.476.476 1.568-.056 2.688-.112 3.976-.112zm16.38.5a29.639 29.639 0 015.712 4.564c.14.14.252.224.364.224s.2-.084.336-.224c.392-.42 1.316-1.54 1.736-2.1a.6.6 0 00.168-.364c0-.112-.084-.224-.252-.392a29.2 29.2 0 00-5.348-3.976.746.746 0 00-.364-.14.524.524 0 00-.392.224c-.536.568-1.348 1.436-1.964 2.192zm.616 13.972a19.4 19.4 0 002.24 3.108.726.726 0 00.476.308.774.774 0 00.5-.28 9.665 9.665 0 011.876-1.288 60.2 60.2 0 008.456-5.488 45.766 45.766 0 006.44-5.936c.308-.364.448-.588.448-.84a1.369 1.369 0 00-.14-.532 12.5 12.5 0 01-.784-3.276 42.066 42.066 0 01-7.672 7.616 41.5 41.5 0 01-8.064 5.208 16.868 16.868 0 01-3.78 1.408zm27.856-14.22a22.275 22.275 0 013.272 5.66c.14.392.308.588.728.42a17.126 17.126 0 002.156-1.092c.224-.14.336-.252.336-.42a1.068 1.068 0 00-.112-.364 22.5 22.5 0 00-3.136-5.292.521.521 0 00-.756-.2 21.843 21.843 0 00-2.488 1.288zm7.224-1.82a22.481 22.481 0 012.884 5.656c.14.448.308.5.756.336a18.76 18.76 0 002.128-1.008.546.546 0 00.28-.784 23.284 23.284 0 00-2.744-5.18.52.52 0 00-.728-.224c-.84.368-1.736.816-2.576 1.208zm11.2-.7a12.637 12.637 0 01-.812 3.668 33.624 33.624 0 01-4.844 8.68 32.124 32.124 0 01-8.316 7.392 8.584 8.584 0 012.688 1.316.819.819 0 00.476.2 1.18 1.18 0 00.644-.252 30.18 30.18 0 007.392-6.944 43.223 43.223 0 005.432-9.52 5.57 5.57 0 011.092-1.848.69.69 0 00.224-.476.646.646 0 00-.308-.56 20.062 20.062 0 00-3.668-1.652z" fill="#292929"/></g></svg>