<svg xmlns="http://www.w3.org/2000/svg" width="352" height="23" viewBox="0 0 352 23">
  <defs>
    <style>
      .cls-1 {
        fill: #292929;
        fill-rule: evenodd;
      }
    </style>
  </defs>
  <path id="ONLINE_WORKSHOP" data-name="ONLINE WORKSHOP" class="cls-1" d="M23.889,5.7a10.714,10.714,0,0,0-4.362-4.2,13.935,13.935,0,0,0-6.69-1.53,13.706,13.706,0,0,0-7.08,1.685A10.724,10.724,0,0,0,1.542,6,12.239,12.239,0,0,0,.174,11.672a11.821,11.821,0,0,0,1.465,5.81,10.755,10.755,0,0,0,4.3,4.232,13.769,13.769,0,0,0,6.8,1.579,14.006,14.006,0,0,0,6.8-1.562,10.825,10.825,0,0,0,4.362-4.215,11.747,11.747,0,0,0,1.5-5.876A11.831,11.831,0,0,0,23.889,5.7ZM6.864,8.181A5.763,5.763,0,0,1,9.208,5.813a7.246,7.246,0,0,1,3.564-.846,7.055,7.055,0,0,1,3.638.9,6.023,6.023,0,0,1,2.336,2.417,7.014,7.014,0,0,1,.8,3.32,6.449,6.449,0,0,1-1.88,4.891,6.826,6.826,0,0,1-4.924,1.8,7.15,7.15,0,0,1-3.467-.83A5.865,5.865,0,0,1,6.9,15.114a6.96,6.96,0,0,1-.846-3.442A7.288,7.288,0,0,1,6.864,8.181Zm40.2,6.258L34.305,0.262H29.276V23h5.632V8.872L47.635,23H52.73V0.262H47.066V14.439ZM63.342,18.3V0.262H57.613V23H73.645V18.3h-10.3ZM82.71,23V0.262H76.981V23H82.71Zm22.657-8.561L92.606,0.262H87.577V23h5.631V8.872L105.936,23h5.095V0.262h-5.664V14.439ZM131.473,4.331V0.262h-15.56V23h15.821V18.931H121.643V13.4h9.391V9.328h-9.391v-5h9.83Zm22.77,9.473L149.068,0.262h-5.892l9.44,22.966h2.995L162.04,8.3,168.4,23.228h2.946l9.586-22.966h-5.827L169.8,13.8,164.237,0.262h-4.329ZM206.083,5.7a10.718,10.718,0,0,0-4.362-4.2,13.937,13.937,0,0,0-6.69-1.53,13.707,13.707,0,0,0-7.08,1.685A10.72,10.72,0,0,0,183.736,6a12.233,12.233,0,0,0-1.368,5.672,11.827,11.827,0,0,0,1.465,5.81,10.758,10.758,0,0,0,4.3,4.232,13.77,13.77,0,0,0,6.8,1.579,14.006,14.006,0,0,0,6.8-1.562,10.819,10.819,0,0,0,4.362-4.215,11.748,11.748,0,0,0,1.5-5.876A11.832,11.832,0,0,0,206.083,5.7ZM189.058,8.181A5.761,5.761,0,0,1,191.4,5.813a7.244,7.244,0,0,1,3.564-.846,7.057,7.057,0,0,1,3.638.9,6.02,6.02,0,0,1,2.335,2.417,7.009,7.009,0,0,1,.8,3.32,6.45,6.45,0,0,1-1.88,4.891,6.826,6.826,0,0,1-4.923,1.8,7.15,7.15,0,0,1-3.467-.83,5.873,5.873,0,0,1-2.377-2.352,6.964,6.964,0,0,1-.846-3.442A7.285,7.285,0,0,1,189.058,8.181Zm37.891-6.03A8.75,8.75,0,0,0,220.926.262H211.47V23H217.2V13.837h1.026a4.867,4.867,0,0,1,1.839.3,3.929,3.929,0,0,1,1.448,1.147,13.225,13.225,0,0,1,1.579,2.588L225.728,23h6.266l-2.962-5.729a20.631,20.631,0,0,0-1.856-2.938,6.354,6.354,0,0,0-1.855-1.571,6.236,6.236,0,0,0,2.808-2.279,6.048,6.048,0,0,0,.935-3.353A6.354,6.354,0,0,0,226.949,2.15Zm-4.655,7.332a4.734,4.734,0,0,1-2.7.643H217.2V4.169h2.49q3.533,0,3.532,3.027A2.589,2.589,0,0,1,222.294,9.483Zm18.066,1.245V0.262h-5.729V23h5.729V11.965L249.881,23h7.146L246.5,10.94,255.35,0.262h-6.4ZM269.925,0.45a14.3,14.3,0,0,0-3.7-.48,9.557,9.557,0,0,0-4.159.83,6.178,6.178,0,0,0-2.637,2.262,5.888,5.888,0,0,0-.9,3.206,5.8,5.8,0,0,0,.838,3.166,7.472,7.472,0,0,0,2,2.148,24.536,24.536,0,0,0,2.824,1.685,19.171,19.171,0,0,1,2.678,1.481,4.147,4.147,0,0,1,1.147,1.082,2.109,2.109,0,0,1,.277,1.1,1.813,1.813,0,0,1-.749,1.473A3.446,3.446,0,0,1,265.36,19a10.761,10.761,0,0,1-6.657-2.734V21.4a16.246,16.246,0,0,0,7.389,1.888,9.985,9.985,0,0,0,4.126-.814,6.474,6.474,0,0,0,2.816-2.311,6.094,6.094,0,0,0,1-3.467,5.722,5.722,0,0,0-.806-3.117,7.684,7.684,0,0,0-2.115-2.2A31.68,31.68,0,0,0,267.525,9.3,12.492,12.492,0,0,1,264.79,7.6a2.03,2.03,0,0,1-.7-1.5,1.768,1.768,0,0,1,.684-1.457,3.186,3.186,0,0,1,2.018-.545,10.289,10.289,0,0,1,6.3,2.523V1.76A12.062,12.062,0,0,0,269.925.45Zm13.746,8.618V0.262h-5.73V23h5.73V13.837h11V23H300.4V0.262h-5.729V9.068h-11Zm44.3-3.369a10.712,10.712,0,0,0-4.362-4.2,13.935,13.935,0,0,0-6.689-1.53,13.709,13.709,0,0,0-7.081,1.685A10.72,10.72,0,0,0,305.627,6a12.232,12.232,0,0,0-1.367,5.672,11.816,11.816,0,0,0,1.465,5.81,10.749,10.749,0,0,0,4.3,4.232,13.77,13.77,0,0,0,6.8,1.579,14,14,0,0,0,6.8-1.562,10.819,10.819,0,0,0,4.362-4.215,11.748,11.748,0,0,0,1.5-5.876A11.833,11.833,0,0,0,327.974,5.7ZM310.949,8.181a5.767,5.767,0,0,1,2.344-2.368,7.246,7.246,0,0,1,3.564-.846,7.054,7.054,0,0,1,3.638.9,6.029,6.029,0,0,1,2.336,2.417,7.02,7.02,0,0,1,.8,3.32,6.446,6.446,0,0,1-1.88,4.891,6.824,6.824,0,0,1-4.923,1.8,7.15,7.15,0,0,1-3.467-.83,5.864,5.864,0,0,1-2.376-2.352,6.953,6.953,0,0,1-.847-3.442A7.285,7.285,0,0,1,310.949,8.181Zm38.151-6.1A9.44,9.44,0,0,0,342.948.262h-9.587V23h5.729V14.065h4.135a9.855,9.855,0,0,0,4.484-.92,6.333,6.333,0,0,0,2.71-2.466,6.831,6.831,0,0,0,.9-3.483A6.247,6.247,0,0,0,349.1,2.077Zm-7.145,8.1H339.09V4.169h2.637a4.519,4.519,0,0,1,2.84.716,2.8,2.8,0,0,1,.887,2.311q0,2.979-3.5,2.979h0Z"/>
</svg>
