<svg xmlns="http://www.w3.org/2000/svg" width="215" height="23" viewBox="0 0 215 23">
  <defs>
    <style>
      .cls-1 {
        fill: #292929;
        fill-rule: evenodd;
      }
    </style>
  </defs>
  <path id="TALK_SHOW" data-name="TALK SHOW" class="cls-1" d="M22.8,5.249V0.512H0.794V5.249H8.9v18h5.729v-18H22.8Zm26.449,18L39.255,0.48H33.281l-9.9,22.77h5.859l2.181-5.241h9.766l2.2,5.241h5.859Zm-9.57-8.9H32.923l3.369-8.268Zm17.741,4.2V0.512H51.69V23.25H67.721v-4.7h-10.3Zm19.368-7.568V0.512H71.058V23.25h5.729V12.215L86.309,23.25h7.145L82.923,11.19,91.777,0.512h-6.4ZM116.053,0.7a14.3,14.3,0,0,0-3.7-.48,9.55,9.55,0,0,0-4.158.83,6.166,6.166,0,0,0-2.637,2.262,5.888,5.888,0,0,0-.9,3.206,5.8,5.8,0,0,0,.838,3.166,7.472,7.472,0,0,0,2,2.148,24.536,24.536,0,0,0,2.824,1.685A19.148,19.148,0,0,1,112.993,15a4.139,4.139,0,0,1,1.148,1.082,2.109,2.109,0,0,1,.276,1.1,1.812,1.812,0,0,1-.748,1.473,3.45,3.45,0,0,1-2.181.594,10.757,10.757,0,0,1-6.657-2.734v5.143a16.243,16.243,0,0,0,7.389,1.888,9.985,9.985,0,0,0,4.126-.814,6.474,6.474,0,0,0,2.816-2.311,6.094,6.094,0,0,0,1-3.467,5.731,5.731,0,0,0-.806-3.117,7.674,7.674,0,0,0-2.116-2.2,31.591,31.591,0,0,0-3.589-2.091,12.478,12.478,0,0,1-2.734-1.693,2.026,2.026,0,0,1-.7-1.5A1.768,1.768,0,0,1,110.9,4.9a3.184,3.184,0,0,1,2.018-.545,10.292,10.292,0,0,1,6.3,2.523V2.01A12.076,12.076,0,0,0,116.053.7ZM129.8,9.318V0.512h-5.729V23.25H129.8V14.087h11V23.25h5.729V0.512H140.8V9.318h-11Zm44.3-3.369a10.718,10.718,0,0,0-4.362-4.2,13.937,13.937,0,0,0-6.69-1.53A13.707,13.707,0,0,0,155.97,1.9a10.72,10.72,0,0,0-4.215,4.346,12.233,12.233,0,0,0-1.368,5.672,11.827,11.827,0,0,0,1.465,5.81,10.758,10.758,0,0,0,4.3,4.232,13.77,13.77,0,0,0,6.8,1.579,14.006,14.006,0,0,0,6.8-1.562,10.825,10.825,0,0,0,4.362-4.215,11.748,11.748,0,0,0,1.5-5.876A11.832,11.832,0,0,0,174.1,5.949ZM157.077,8.431a5.761,5.761,0,0,1,2.344-2.368,7.244,7.244,0,0,1,3.564-.846,7.057,7.057,0,0,1,3.638.9,6.02,6.02,0,0,1,2.335,2.417,7.009,7.009,0,0,1,.8,3.32,6.45,6.45,0,0,1-1.88,4.891,6.826,6.826,0,0,1-4.923,1.8,7.15,7.15,0,0,1-3.467-.83,5.873,5.873,0,0,1-2.377-2.352,6.964,6.964,0,0,1-.846-3.442A7.285,7.285,0,0,1,157.077,8.431Zm31.038,5.623L182.94,0.512h-5.892l9.44,22.966h3l6.429-14.925,6.363,14.925h2.946l9.587-22.966h-5.827l-5.306,13.542L198.109,0.512h-4.33Z"/>
</svg>
