<svg xmlns="http://www.w3.org/2000/svg" width="231" height="35" viewBox="0 0 231 35">
  <defs>
    <style>
      .cls-1 {
        fill: #292929;
        fill-rule: evenodd;
      }
    </style>
  </defs>
  <path id="ABOUT" class="cls-1" d="M51.206,34L36.816,1.211h-8.6L13.964,34H22.4l3.141-7.547H39.6L42.769,34h8.438ZM37.425,21.18H27.7L32.55,9.273ZM81.6,3.4q-2.977-2.145-8.18-2.145h-13.9V34h14.2q6.14,0,9.691-2.062t3.551-7.1A8.172,8.172,0,0,0,85.209,19.6a10.537,10.537,0,0,0-5.344-3.317A7.32,7.32,0,0,0,83.3,13.5,7.6,7.6,0,0,0,84.577,9.18,6.763,6.763,0,0,0,81.6,3.4ZM75.331,13.82a6.709,6.709,0,0,1-4.066,1.031H67.772V6.344h3.844a6.042,6.042,0,0,1,3.855,1.008,3.884,3.884,0,0,1,1.23,3.188A3.838,3.838,0,0,1,75.331,13.82ZM72.084,28.914H67.772V19.891h4.313q6.586,0,6.586,4.547,0,4.477-6.586,4.477h0ZM129.806,9.086a15.428,15.428,0,0,0-6.281-6.047,20.064,20.064,0,0,0-9.633-2.2A19.734,19.734,0,0,0,103.7,3.262a15.44,15.44,0,0,0-6.07,6.258,17.624,17.624,0,0,0-1.969,8.168,17.023,17.023,0,0,0,2.109,8.367,15.486,15.486,0,0,0,6.188,6.094,19.824,19.824,0,0,0,9.8,2.273,20.163,20.163,0,0,0,9.8-2.25,15.588,15.588,0,0,0,6.282-6.07,16.918,16.918,0,0,0,2.156-8.461A17.039,17.039,0,0,0,129.806,9.086ZM105.291,12.66a8.3,8.3,0,0,1,3.375-3.41A10.431,10.431,0,0,1,113.8,8.031a10.162,10.162,0,0,1,5.239,1.3,8.679,8.679,0,0,1,3.363,3.48,10.106,10.106,0,0,1,1.148,4.781,9.285,9.285,0,0,1-2.707,7.043,9.827,9.827,0,0,1-7.089,2.59,10.3,10.3,0,0,1-4.993-1.2,8.448,8.448,0,0,1-3.421-3.387,10.018,10.018,0,0,1-1.219-4.957A10.489,10.489,0,0,1,105.291,12.66Zm47.022,12.6a8.705,8.705,0,0,1-2.05-6.234V1.258h-8.25V19.445q0,7.079,4.23,11.027t12.035,3.949q7.688,0,11.942-3.926T174.473,19.3V1.258H166.2V19.117q0,4.219-2.039,6.258a7.963,7.963,0,0,1-5.883,2.039A7.846,7.846,0,0,1,152.313,25.258Zm62.679-17.18V1.258H183.305v6.82h11.672V34h8.25V8.078h11.765Z"/>
</svg>
