<svg xmlns="http://www.w3.org/2000/svg" width="473" height="23"><path d="M0 21.28a.957.957 0 00.58-.18.625.625 0 00.248-.54V2.32a.526.526 0 00-.248-.5A1.166 1.166 0 000 1.681V.96h7.74v.721a.939.939 0 00-.435.119.385.385 0 00-.227.36 1.2 1.2 0 00.166.521c.109.212.233.439.372.679l5.918 10.4 5.96-10.28q.288-.519.434-.82a1.276 1.276 0 00.145-.54c0-.293-.18-.439-.538-.439V.96h7.656v.721a1.156 1.156 0 00-.579.139.524.524 0 00-.249.5v18.24a.623.623 0 00.249.54.949.949 0 00.579.18V22h-6.5v-.72q1.115 0 1.117-.72V7.28h-.083L13.407 22h-.124L5.129 7.24h-.083v13.32q0 .72 1.159.72V22H-.003zm33.026 0q1.077 0 1.076-.72V2.4q0-.72-1.076-.719V.96h6.87v.721q-1.077 0-1.076.719v18.16q0 .72 1.076.72V22h-6.87zm12.746 0a.957.957 0 00.58-.18.625.625 0 00.248-.54V2.32a.526.526 0 00-.248-.5 1.166 1.166 0 00-.58-.139V.96h7.739v.721a.935.935 0 00-.434.119.384.384 0 00-.228.36 1.214 1.214 0 00.166.521c.109.212.233.439.372.679l5.918 10.4 5.96-10.28q.288-.519.435-.82a1.288 1.288 0 00.144-.54c0-.293-.18-.439-.538-.439V.96h7.656v.721a1.159 1.159 0 00-.579.139.524.524 0 00-.249.5v18.24a.623.623 0 00.249.54.951.951 0 00.579.18V22h-6.5v-.72q1.115 0 1.117-.72V7.28h-.083L59.178 22h-.124L50.901 7.24h-.083v13.32q0 .72 1.159.72V22h-6.208zM90.633.721a17.15 17.15 0 014.636.659 14.627 14.627 0 014.3 1.98 10.85 10.85 0 013.186 3.34 9.828 9.828 0 010 9.56 10.839 10.839 0 01-3.186 3.34 13.551 13.551 0 01-4.3 1.92 18.207 18.207 0 01-9.271 0 13.544 13.544 0 01-4.3-1.92 10.842 10.842 0 01-3.187-3.34 9.825 9.825 0 010-9.56 10.853 10.853 0 013.187-3.34 14.618 14.618 0 014.3-1.98 17.155 17.155 0 014.635-.659zm0 3.679a10.714 10.714 0 00-3.145.48 9.714 9.714 0 00-2.834 1.38 7.234 7.234 0 00-2.049 2.22 6.121 6.121 0 000 6 7.234 7.234 0 002.049 2.22 9.717 9.717 0 002.834 1.38 10.547 10.547 0 006.291 0 9.758 9.758 0 002.835-1.38 7.283 7.283 0 002.048-2.22 6.111 6.111 0 000-6 7.283 7.283 0 00-2.048-2.22 9.755 9.755 0 00-2.835-1.38 10.73 10.73 0 00-3.146-.48zm20.03 11l.415.2a1.219 1.219 0 00.166.64 2.917 2.917 0 001.137.941 11.869 11.869 0 001.946.819 17.287 17.287 0 002.3.58 12.033 12.033 0 002.152.22c.47 0 1.076-.033 1.821-.1a11.059 11.059 0 002.193-.42 6.246 6.246 0 001.863-.88 1.733 1.733 0 00.786-1.48 1.479 1.479 0 00-.724-1.36 5.442 5.442 0 00-1.9-.64 21.36 21.36 0 00-2.69-.26q-1.51-.06-3.083-.18a28.946 28.946 0 01-3.084-.4 8.763 8.763 0 01-2.689-.939 5.277 5.277 0 01-1.9-1.8 5.478 5.478 0 01-.724-2.98 5.39 5.39 0 01.6-2.44 5.971 5.971 0 011.842-2.12 10.3 10.3 0 013.145-1.5 15.425 15.425 0 014.47-.579 19.845 19.845 0 013.807.319q1.614.321 2.793.681t1.987.679a3.8 3.8 0 001.345.321 1.165 1.165 0 00.828-.241l.5.32-2.856 5-.414-.159a2.169 2.169 0 00-.331-.92 3.51 3.51 0 00-1.1-.941 9.7 9.7 0 00-1.8-.82 15.24 15.24 0 00-2.235-.58 12.989 12.989 0 00-4.283-.08 9.054 9.054 0 00-1.759.421 3.918 3.918 0 00-1.3.739 1.466 1.466 0 00-.517 1.14 1.611 1.611 0 00.724 1.44 5.389 5.389 0 001.9.72 18.442 18.442 0 002.69.32q1.51.081 3.083.2a25.976 25.976 0 013.083.42 9.149 9.149 0 012.691.96 4.948 4.948 0 012.628 4.7 5.019 5.019 0 01-1.139 3.4 7.984 7.984 0 01-2.835 2.08 13.11 13.11 0 01-3.662 1.02 28.115 28.115 0 01-3.663.26 25.174 25.174 0 01-3.952-.26 15.149 15.149 0 01-2.649-.639q-1.056-.381-1.676-.681a2.556 2.556 0 00-1.076-.3.692.692 0 00-.538.32l-.58-.32zm22.059 5.88a1.216 1.216 0 00.849-.52 8.435 8.435 0 00.6-1l7.657-15.56c.193-.347.365-.666.517-.96a1.724 1.724 0 00.228-.76.587.587 0 00-.29-.56 2.524 2.524 0 00-.621-.239V.96h7v.721a3.381 3.381 0 00-.58.219.578.578 0 00-.29.58 1.528 1.528 0 00.145.64c.1.214.241.494.435.84l8.608 16.28a1.372 1.372 0 00.559.64 8.531 8.531 0 00.806.4V22h-7.283v-.72a1 1 0 00.413-.12.384.384 0 00.249-.36 2.448 2.448 0 00-.331-1.04l-1.573-2.96h-10.1l-1.49 2.841a3.292 3.292 0 00-.414 1.2c0 .294.263.44.787.44v.72h-5.877zm15.6-7.44l-3.477-7.44-3.891 7.44zm43.125-8.56a.731.731 0 00-.352-.66 2.459 2.459 0 00-1.221-.22h-13.409v4.96h8.112a4.029 4.029 0 001.283-.16.681.681 0 00.455-.72h.745v5.76h-.745c0-.613-.153-1.006-.455-1.18a2.62 2.62 0 00-1.283-.26h-8.112v7.76a.576.576 0 00.352.54 1.932 1.932 0 00.889.18V22h-7.035v-.72q1.076 0 1.076-.72V2.4q0-.72-1.076-.719V.96h19.2a2.126 2.126 0 001.221-.26.829.829 0 00.352-.7h.745v5.28zm.579 16a1.213 1.213 0 00.848-.52 8.436 8.436 0 00.6-1L201.13 4.2c.194-.347.365-.666.518-.96a1.715 1.715 0 00.227-.76.584.584 0 00-.29-.56 2.5 2.5 0 00-.62-.239V.96h6.994v.721a3.475 3.475 0 00-.58.219.579.579 0 00-.289.58 1.528 1.528 0 00.145.64q.144.321.434.84l8.609 16.28a1.367 1.367 0 00.558.64 8.675 8.675 0 00.807.4V22h-7.283v-.72a1 1 0 00.413-.12.384.384 0 00.249-.36 2.441 2.441 0 00-.331-1.04l-1.573-2.96h-10.1l-1.49 2.841a3.263 3.263 0 00-.414 1.2q0 .441.787.44v.72h-5.877zm15.6-7.44L204.15 6.4l-3.891 7.44zm15.066 1.56l.414.2a1.228 1.228 0 00.166.64 2.921 2.921 0 001.138.941 11.821 11.821 0 001.945.819 17.251 17.251 0 002.3.58 12.014 12.014 0 002.151.22q.7 0 1.821-.1a11.08 11.08 0 002.194-.42 6.226 6.226 0 001.862-.88 1.734 1.734 0 00.786-1.48 1.481 1.481 0 00-.723-1.36 5.451 5.451 0 00-1.905-.64 21.325 21.325 0 00-2.689-.26q-1.512-.06-3.083-.18a28.93 28.93 0 01-3.084-.4 8.76 8.76 0 01-2.69-.939 5.281 5.281 0 01-1.9-1.8 5.491 5.491 0 01-.724-2.98 5.409 5.409 0 01.6-2.44 5.985 5.985 0 011.842-2.12 10.312 10.312 0 013.145-1.5 15.427 15.427 0 014.47-.579 19.865 19.865 0 013.808.319q1.612.321 2.793.681t1.986.679a3.8 3.8 0 001.346.321 1.162 1.162 0 00.827-.241l.5.32-2.856 5-.414-.159a2.149 2.149 0 00-.331-.92 3.5 3.5 0 00-1.1-.941 9.762 9.762 0 00-1.8-.82 15.24 15.24 0 00-2.235-.58 12.989 12.989 0 00-4.283-.08 9.054 9.054 0 00-1.759.421 3.913 3.913 0 00-1.3.739 1.463 1.463 0 00-.518 1.14 1.609 1.609 0 00.725 1.44 5.379 5.379 0 001.9.72 18.449 18.449 0 002.691.32q1.509.081 3.083.2a26.026 26.026 0 013.083.42 9.155 9.155 0 012.69.96 4.948 4.948 0 012.628 4.7 5.019 5.019 0 01-1.139 3.4 7.979 7.979 0 01-2.835 2.08 13.1 13.1 0 01-3.662 1.02 28.109 28.109 0 01-3.663.26 25.177 25.177 0 01-3.952-.26 15.147 15.147 0 01-2.648-.639 17.885 17.885 0 01-1.676-.681 2.562 2.562 0 00-1.076-.3.7.7 0 00-.539.32l-.58-.32zm43.123-13q0-.72-.91-.719V.96h6.373v.721a.809.809 0 00-.518.179.647.647 0 00-.227.54v18.16a.647.647 0 00.227.54.8.8 0 00.518.18V22h-6.373v-.72q.909 0 .91-.72v-7.52h-13.326v7.52a.647.647 0 00.227.54.806.806 0 00.518.18V22h-6.252v-.72q.784 0 .786-.72V2.4q0-.72-.786-.719V.96h6.249v.721a.81.81 0 00-.518.179.647.647 0 00-.227.54v6.8h13.326zm11.628 18.88q1.077 0 1.076-.72V2.4q0-.72-1.076-.719V.96h6.87v.721q-1.077 0-1.076.719v18.16q0 .72 1.076.72V22h-6.87zM302.647.721a17.167 17.167 0 014.636.659 14.624 14.624 0 014.3 1.98 10.841 10.841 0 013.187 3.34 9.825 9.825 0 010 9.56 10.831 10.831 0 01-3.187 3.34 13.548 13.548 0 01-4.3 1.92 18.207 18.207 0 01-9.271 0 13.547 13.547 0 01-4.305-1.92 10.861 10.861 0 01-3.186-3.34 9.828 9.828 0 010-9.56 10.872 10.872 0 013.186-3.34 14.621 14.621 0 014.305-1.98 17.138 17.138 0 014.635-.659zm0 3.679a10.73 10.73 0 00-3.146.48 9.738 9.738 0 00-2.834 1.38 7.247 7.247 0 00-2.048 2.22 6.111 6.111 0 000 6 7.247 7.247 0 002.048 2.22 9.741 9.741 0 002.834 1.38 10.547 10.547 0 006.291 0 9.734 9.734 0 002.835-1.38 7.27 7.27 0 002.049-2.22 6.121 6.121 0 000-6 7.27 7.27 0 00-2.049-2.22 9.731 9.731 0 00-2.835-1.38 10.714 10.714 0 00-3.145-.48zm17.795 16.88q.787 0 .787-.72V2.4q0-.72-.787-.719V.96h7.077v.721q-.331 0-.331.4c0 .214.275.587.828 1.12l11.877 11.92V2.401q0-.72-1.076-.719V.961h6.25v.721q-.787 0-.787.719v18.16q0 .72.787.72v.72h-6.7v-.72q.537 0 .538-.36 0-.279-.662-.92l-12.622-12.72v13.28c0 .48.316.72.951.72v.72h-6.125zm32.363-5.88l.414.2a1.223 1.223 0 00.166.64 2.922 2.922 0 001.138.941 11.863 11.863 0 001.945.819 17.3 17.3 0 002.3.58 12.027 12.027 0 002.151.22q.705 0 1.822-.1a11.086 11.086 0 002.193-.42 6.226 6.226 0 001.862-.88 1.73 1.73 0 00.786-1.48 1.481 1.481 0 00-.723-1.36 5.443 5.443 0 00-1.9-.64 21.378 21.378 0 00-2.69-.26q-1.512-.06-3.083-.18a28.914 28.914 0 01-3.084-.4 8.745 8.745 0 01-2.689-.939 5.289 5.289 0 01-1.905-1.8 5.491 5.491 0 01-.723-2.98 5.407 5.407 0 01.6-2.44 6 6 0 011.842-2.12 10.307 10.307 0 013.146-1.5 15.412 15.412 0 014.469-.579 19.865 19.865 0 013.808.319q1.613.321 2.793.681t1.986.679a3.808 3.808 0 001.346.321 1.161 1.161 0 00.827-.241l.5.32-2.855 5-.414-.159a2.169 2.169 0 00-.331-.92 3.51 3.51 0 00-1.1-.941 9.712 9.712 0 00-1.8-.82 15.185 15.185 0 00-2.234-.58 12.986 12.986 0 00-4.283-.08 9.033 9.033 0 00-1.759.421 3.9 3.9 0 00-1.3.739 1.462 1.462 0 00-.518 1.14 1.612 1.612 0 00.725 1.44 5.38 5.38 0 001.9.72 18.474 18.474 0 002.691.32q1.511.081 3.083.2a25.971 25.971 0 013.083.42 9.135 9.135 0 012.69.96 4.943 4.943 0 012.628 4.7 5.025 5.025 0 01-1.138 3.4 7.992 7.992 0 01-2.835 2.08 13.107 13.107 0 01-3.663 1.02 28.1 28.1 0 01-3.663.26 25.179 25.179 0 01-3.952-.26 15.175 15.175 0 01-2.648-.639q-1.055-.381-1.676-.681a2.556 2.556 0 00-1.076-.3.691.691 0 00-.538.32l-.58-.32zm43.95-13q0-.72-.91-.719V.96h6.373v.721a.808.808 0 00-.517.179.646.646 0 00-.228.54v18.16a.647.647 0 00.228.54.8.8 0 00.517.18V22h-6.373v-.72q.91 0 .91-.72v-7.52h-13.326v7.52a.647.647 0 00.228.54.8.8 0 00.517.18V22h-6.249v-.72q.786 0 .786-.72V2.4q0-.72-.786-.719V.96h6.249v.721a.808.808 0 00-.517.179.646.646 0 00-.228.54v6.8h13.326zM420.22.721a17.15 17.15 0 014.636.659 14.627 14.627 0 014.3 1.98 10.861 10.861 0 013.186 3.34 9.828 9.828 0 010 9.56 10.85 10.85 0 01-3.186 3.34 13.551 13.551 0 01-4.3 1.92 18.207 18.207 0 01-9.271 0 13.544 13.544 0 01-4.3-1.92 10.847 10.847 0 01-3.187-3.34 9.825 9.825 0 010-9.56 10.858 10.858 0 013.187-3.34 14.618 14.618 0 014.3-1.98 17.155 17.155 0 014.635-.659zm0 3.679a10.714 10.714 0 00-3.145.48 9.708 9.708 0 00-2.834 1.38 7.24 7.24 0 00-2.049 2.22 6.121 6.121 0 000 6 7.24 7.24 0 002.049 2.22 9.711 9.711 0 002.834 1.38 10.547 10.547 0 006.291 0 9.771 9.771 0 002.835-1.38 7.283 7.283 0 002.048-2.22 6.111 6.111 0 000-6 7.283 7.283 0 00-2.048-2.22 9.767 9.767 0 00-2.835-1.38 10.73 10.73 0 00-3.146-.48zm22.555-2.719q-.619 0-.62.759a2.274 2.274 0 00.061.48 7.533 7.533 0 00.311.92l4.428 11.12h.082l4.387-11.279a6.176 6.176 0 00.27-.781 2.024 2.024 0 00.062-.46c0-.506-.18-.759-.538-.759V.96h7.076v.721a.446.446 0 00-.413.2.818.818 0 00-.125.44 4.147 4.147 0 00.414 1.361l4.429 11.279h.082l4.47-11.52a2.526 2.526 0 00.29-1.08.672.672 0 00-.207-.46.66.66 0 00-.5-.219V.961h6.125v.721a.727.727 0 00-.684.479c-.151.32-.324.72-.517 1.2l-5.959 15.281-.435 1.119a2.317 2.317 0 00-.187.8.714.714 0 00.207.5.758.758 0 00.581.22v.72h-6.54v-.72a2.524 2.524 0 00.517-.24.489.489 0 00.27-.44 2.166 2.166 0 00-.145-.72c-.1-.266-.256-.64-.476-1.12l-4.759-11.8h-.083l-4.511 11.56a7.925 7.925 0 00-.621 1.96.738.738 0 00.538.8v.72h-6.415v-.72a1.134 1.134 0 00.5-.12.412.412 0 00.248-.4 1.852 1.852 0 00-.144-.68q-.146-.36-.311-.76l-6.622-16.52a4.236 4.236 0 00-.352-.74.853.853 0 00-.6-.379V.961h6.414z" fill="#292929"/><path fill="none" d="M0 0h473v23H0z"/></svg>