<svg xmlns="http://www.w3.org/2000/svg" width="174" height="40" viewBox="0 0 174 40">
  <defs>
    <style>
      .cls-1 {
        fill: #292929;
        fill-rule: evenodd;
      }
    </style>
  </defs>
  <path id="FAQ" class="cls-1" d="M55.439,6.4V0.6H34.171V33h8.164V19.316h13.1V13.471h-13.1V6.4h13.1ZM97.277,33L83.036,0.552H74.524L60.423,33h8.35l3.108-7.468H85.8L88.927,33h8.35ZM83.639,20.313H74.014l4.8-11.782Zm51.51,6.088a16.24,16.24,0,0,0,2.969-9.637,16.888,16.888,0,0,0-2.088-8.3,15.289,15.289,0,0,0-6.146-6.03,22.109,22.109,0,0,0-19.6.081,15.276,15.276,0,0,0-6.1,6.123,17.237,17.237,0,0,0-2.018,8.222,16.448,16.448,0,0,0,2.714,9.277,15.8,15.8,0,0,0,7.839,6.053,44.429,44.429,0,0,0,9.185,5.323,45.676,45.676,0,0,0,10.854,3.467l6.077-5.706-0.186-.371a6.117,6.117,0,0,1-1.531.186,23.739,23.739,0,0,1-10.158-2.806A15.629,15.629,0,0,0,135.149,26.4Zm-20.062-1.31a8.393,8.393,0,0,1-3.363-3.352,9.937,9.937,0,0,1-1.183-4.882,10.4,10.4,0,0,1,1.136-4.917,8.345,8.345,0,0,1,3.294-3.4,10.059,10.059,0,0,1,5.1-1.241,10.428,10.428,0,0,1,5.254,1.264,8.244,8.244,0,0,1,3.328,3.421,10.364,10.364,0,0,1,1.113,4.824,10.168,10.168,0,0,1-1.183,4.952,8.19,8.19,0,0,1-3.374,3.352A10.561,10.561,0,0,1,120.12,26.3,10.224,10.224,0,0,1,115.087,25.091Z"/>
</svg>
