<svg xmlns="http://www.w3.org/2000/svg" width="326" height="85" viewBox="0 0 326 85">
  <defs>
    <style>
      .cls-1 {
        fill: #fff;
        fill-rule: evenodd;
      }
    </style>
  </defs>
  <path id="STAMP_RALLY_" data-name="STAMP RALLY " class="cls-1" d="M83.091,3.174a21.452,21.452,0,0,0-5.554-.72A14.331,14.331,0,0,0,71.3,3.7a9.253,9.253,0,0,0-3.955,3.394,8.829,8.829,0,0,0-1.355,4.81,8.7,8.7,0,0,0,1.257,4.749,11.2,11.2,0,0,0,3,3.223A36.77,36.77,0,0,0,74.485,22.4,28.738,28.738,0,0,1,78.5,24.622a6.208,6.208,0,0,1,1.721,1.624,3.159,3.159,0,0,1,.415,1.648A2.719,2.719,0,0,1,79.514,30.1a5.171,5.171,0,0,1-3.272.891q-4.859,0-9.985-4.1v7.715A24.368,24.368,0,0,0,77.341,37.44a14.98,14.98,0,0,0,6.189-1.221,9.715,9.715,0,0,0,4.224-3.467,9.137,9.137,0,0,0,1.5-5.2,8.6,8.6,0,0,0-1.209-4.675,11.525,11.525,0,0,0-3.174-3.3,47.428,47.428,0,0,0-5.383-3.137,18.72,18.72,0,0,1-4.1-2.539,3.041,3.041,0,0,1-1.05-2.246,2.653,2.653,0,0,1,1.025-2.185,4.779,4.779,0,0,1,3.027-.818q4.614,0,9.448,3.784V5.14A18.1,18.1,0,0,0,83.091,3.174ZM130.364,10v-7.1H97.356V10h12.158V37h8.594V10h12.256Zm44.673,27L160.046,2.845h-8.96L136.243,37h8.789l3.271-7.861h14.649l3.3,7.861h8.789ZM160.681,23.646H150.549l5.054-12.4Zm41.548-7.593L191.536,2.894H183.7V37h8.4V15.2l9.644,11.963h0.8L212.141,15.2V37h8.594V2.894h-7.788ZM256.667,5.616q-3.319-2.722-9.228-2.722h-14.38V37h8.594V23.6h6.2a14.78,14.78,0,0,0,6.726-1.379,9.489,9.489,0,0,0,4.065-3.7,10.237,10.237,0,0,0,1.343-5.225A9.37,9.37,0,0,0,256.667,5.616ZM245.95,17.762h-4.3V8.753h3.955a6.779,6.779,0,0,1,4.26,1.074,4.2,4.2,0,0,1,1.331,3.467q0,4.468-5.249,4.468h0ZM96.1,51.559q-3.174-2.832-9.033-2.832H72.886V82.833H81.48V69.088h1.538a7.3,7.3,0,0,1,2.759.452,5.9,5.9,0,0,1,2.173,1.721,19.906,19.906,0,0,1,2.368,3.882l3.955,7.69h9.4L99.229,74.24a30.988,30.988,0,0,0-2.783-4.407,9.548,9.548,0,0,0-2.783-2.356,9.348,9.348,0,0,0,4.211-3.418,9.062,9.062,0,0,0,1.4-5.029A9.531,9.531,0,0,0,96.1,51.559Zm-6.982,11a7.1,7.1,0,0,1-4.053.964H81.48V54.586h3.735q5.3,0,5.3,4.541A3.882,3.882,0,0,1,89.121,62.557Zm58.638,20.276-14.99-34.155h-8.96L108.965,82.833h8.789l3.271-7.861h14.649l3.3,7.861h8.789ZM133.4,69.479H123.271l5.054-12.4Zm31.612,6.3V48.727h-8.594V82.833h24.048V75.778H165.015Zm34.052,0V48.727h-8.593V82.833h24.047V75.778H199.067Zm39.156-15.991-8.155-11.06h-9.2l13.257,17.9V82.833h8.594V66.476l13.061-17.749h-9.3Z"/>
</svg>
