<svg xmlns="http://www.w3.org/2000/svg" width="350" height="17.624"><path d="M2.073 12.49c-.892.135-1.186.263-.736.418a9.848 9.848 0 002.788.192c1.164.023 2.632.006 3.818.011-.275.061-3.139.127-3.4.144a12.824 12.824 0 00-2.343.364c-.036.007-1.152.169-1.149.164-.03.049 1.012.2 1.206.255.66.2 1.409.433 1.35.612-.021.064-.265.148-.355.215.5.058.525.112.059.163a1.76 1.76 0 00-.473.11c-.077.126-.229.372 1.2.453 1.015.058 4.337-.009 5.486 0q-.446.112-1.05.216a4.077 4.077 0 00-1.58.062c0-.059-.268-.1-.792-.129-1.014.227-3.872.354-1.473.618 1.876.207 5.456.127 7.953.13 4.72.007 9.465 0 14.187-.007l13.759-.012c.929 0 3.238-.054 4.016-.007a18.479 18.479 0 002.551.258c1.286.023 2.914 0 4.219 0-.293.073-.638.145-1.038.213a4.08 4.08 0 00-1.577.063q0-.089-.794-.13c-.943.212-3.614.32-1.786.578a76.61 76.61 0 007.817.168c4.439 0 8.886.013 13.326 0a5639.99 5639.99 0 0126.658-.009c17.889.036 35.847-.006 53.742-.012 35.648-.012 71.424.056 107.058-.04 9.991-.027 20.1-.03 30.1-.01 4.958.01 10.534.056 15.427-.019 2.08-.031 6.12-.14 6.481-.389.15-.1-.682-.349-.94-.452-.569-.229-.741-.21-3.278-.235 1.432-.246 3.583-.144 2.459-.463a7.215 7.215 0 00-1.118-.237c-.522-.082-.413-.078-1.2-.161 9.258.078 18.717.112 28 .138 4.5.013 9.688.13 14.075.016 2.391-.062 5.216-.14 5.274-.414.021-.092-.424-.389-.763-.468a17.321 17.321 0 00-3.3-.163c.67-.115 2.63-.131 3.036-.262.338-.11-.577-.26-.984-.359a31.478 31.478 0 00-4.876-.56 10.884 10.884 0 001.353-.258.887.887 0 00.309-.169q.74 0 1.356-.041c1.069-.117 2.013-.037 1.511-.254-.36-.155-.381-.1-2.068-.18-.96-.045-1.83-.16-2.734-.191-.474-.016-2.475.022-2.991.02-1.615-.005-3.423-.014-5.153-.026-7.081-.052-14.53-.146-21.689-.129-3.521.009-7.373-.005-10.943-.038-3.4-.032-7.105-.023-10.526-.072-3.4-.049-7.14-.047-10.526-.072-1.777-.013-3.513.041-5.152-.026-.98-.04-.794-.021-1.609-.094a15.12 15.12 0 00-2.455-.248 11.244 11.244 0 001.467-.3c1.331-.254-.32-.033 1.024-.138.407-.032 2-.064 2.183-.092-.037.005-.189-.207-.146-.188-.378-.165.662-.014-1.053-.141a111.24 111.24 0 00-4.423-.215c-1.781-.034-4.451-.018-6.206-.016-2.572 0-5.061 0-7.553.016-9.286.062-18.808.016-28.192.016-18.375 0-37.028-.032-55.4-.032-18.882 0-37.5 0-56.381.032-4.445.007-9.193.018-13.759 0-4.545-.018-9.365.022-13.944-.016-9.124-.076-18.6.02-27.7-.016-5.164-.02-10.431 0-15.477 0-5.211 0-10.4-.008-15.479 0-5.425.008-10.816-.02-16.152.016-2.569.017-5.169-.015-7.74 0-1.524.009-8.313.343-4.859.542-3.7-.2-1.194.46-.88.552.421.122 1.115.26 1.143.37.028.13-1.112.216-.196.365z" fill="#fed438" fill-rule="evenodd"/><path d="M6.549.162v15.714h1.08V1.152h4.572v-.99zm18.972 4.986a15.151 15.151 0 01-3.042 5.13 17.4 17.4 0 01-5.886 4.5 5.352 5.352 0 011.674.99.632.632 0 00.45.2.871.871 0 00.486-.162 20.184 20.184 0 005.112-4.284 21.2 21.2 0 003.492-5.85 2.167 2.167 0 01.414-.7.614.614 0 00.252-.45.452.452 0 00-.126-.306 5.539 5.539 0 00-1.313-1.192.88.88 0 00-.342-.09.508.508 0 00-.27.072 1.721 1.721 0 01-.99.18h-6.426a31.5 31.5 0 01-3.456-.126c.036.522.108 1.458.162 1.818.036.252.108.378.342.36.774-.036 1.8-.09 2.97-.09zm15.7.666a4.98 4.98 0 01.162-2 1.152 1.152 0 00.144-.45c0-.144-.09-.252-.324-.306a17.177 17.177 0 00-2.25-.378 14.372 14.372 0 01.18 3.132v5.634c0 .918.018 1.134-.108 1.368a.553.553 0 00-.072.27.718.718 0 00.162.378 5.2 5.2 0 001.08 1.1.767.767 0 00.378.144.572.572 0 00.36-.144 5.977 5.977 0 01.522-.378 29.893 29.893 0 003.2-2.16 22.753 22.753 0 002.664-2.358c.2-.2.27-.324.27-.45a.9.9 0 00-.108-.306 5.189 5.189 0 01-.558-1.818 17.273 17.273 0 01-3.15 3.06 18.3 18.3 0 01-2.556 1.674zm-6.282-2a4.842 4.842 0 01.18 1.512c-.018 2.88-.252 3.87-.756 5.094a8.936 8.936 0 01-2.988 3.582 6.379 6.379 0 011.53.756.612.612 0 00.342.144.816.816 0 00.468-.234 9.273 9.273 0 002.556-3.384 13.472 13.472 0 00.972-5.292 2.6 2.6 0 01.216-1.224c.108-.252.072-.468-.234-.558a14.552 14.552 0 00-2.291-.394zm25.146 6.246c1.332 0 2.664.018 4.014.036.252.018.324-.054.324-.27a13.269 13.269 0 000-1.692c0-.216-.054-.27-.324-.252-1.386.018-2.772.054-4.14.054h-5.8a23.125 23.125 0 01-3.888-.216 19.537 19.537 0 00.27 2.178c.054.27.2.378.414.378a14.394 14.394 0 012.646-.216zm19.026-1.8c1.242 0 2.484.036 3.42.072.162 0 .27-.072.27-.306.018-.234.018-1.152 0-1.386 0-.252-.018-.36-.2-.36a49.588 49.588 0 01-3.51.108h-8.082c-1.044 0-2.052 0-3.06-.09a10.83 10.83 0 00.144 1.728c.018.234.072.36.234.342.918-.054 1.8-.108 2.7-.108h3.42a7.645 7.645 0 01-.918 3.87 7.994 7.994 0 01-3.582 3.2 4.728 4.728 0 011.6.954.53.53 0 00.378.18 1.1 1.1 0 00.54-.216 9.067 9.067 0 003.169-3.396 10.282 10.282 0 001.062-4.59zm-1.944-4.176c.99 0 2.052.018 3.024.054.2 0 .234-.09.234-.342a8.008 8.008 0 000-1.314c0-.234-.036-.342-.216-.342-.9.054-2.034.072-3.042.072h-4.033c-.81 0-1.728-.018-2.988-.09.054.648.072 1.3.126 1.728.018.216.072.306.306.306 1.008-.036 1.728-.072 2.556-.072zm17.28 4.572c.63-.612 1.17-1.206 1.638-1.746a4.543 4.543 0 01.81-.738.411.411 0 00.27-.342.5.5 0 00-.2-.324 14.838 14.838 0 00-1.656-1.08 5.066 5.066 0 01-.954 1.548 25.606 25.606 0 01-7.47 5.85 3.126 3.126 0 011.3.9.5.5 0 00.36.18.4.4 0 00.234-.072 24.077 24.077 0 003.726-2.592v3.084c0 .954-.036 1.854-.054 2.88-.018.216.09.306.288.324a9.855 9.855 0 001.458 0c.216-.018.324-.108.306-.324-.018-.918-.054-2.07-.054-2.934zm24.912-6.966h-2.232v5.868c0 1.872.072 3.4.18 5.112h-.252a42.6 42.6 0 00-1.854-4.788l-2.9-6.192h-3.654v13.97h2.232V8.892a92.33 92.33 0 00-.126-5.04h.252a88.18 88.18 0 002 4.608l3.384 7.2h2.97zm5.8 0h-2.448v13.97h2.448zm13.95 4a5.066 5.066 0 00-5.31-4.248c-3.6 0-6.066 2.628-6.066 7.254 0 4.608 2.448 7.218 6.066 7.218a4.991 4.991 0 005.382-4.158l-2.286-.7c-.4 2.034-1.4 2.988-3.078 2.988-2.034 0-3.51-1.818-3.51-5.364 0-3.564 1.44-5.364 3.51-5.364 1.584 0 2.592 1.008 2.934 2.952zm11.538-4h-9.216v13.97h9.36v-1.926h-6.93v-4.5h5.13V7.308h-5.13v-3.69h6.786zm18.18 4a5.066 5.066 0 00-5.31-4.248c-3.6 0-6.066 2.628-6.066 7.254 0 4.608 2.448 7.218 6.066 7.218a4.991 4.991 0 005.374-4.16l-2.286-.7c-.4 2.034-1.4 2.988-3.078 2.988-2.034 0-3.51-1.818-3.51-5.364 0-3.564 1.44-5.364 3.51-5.364 1.584 0 2.592 1.008 2.934 2.952zm2.322-4v13.97h2.368V9.414h1.98c.234 0 .432-.018.63-.018l2.826 6.264h2.61l-3.222-6.624a3.542 3.542 0 002.772-3.546c0-2.43-1.548-3.8-4.95-3.8zm2.376 1.818h2.53c1.926 0 2.628.774 2.628 2.016 0 1.3-.828 2.088-2.736 2.088h-2.43zm19.422-1.818h-9.224v13.97h9.36v-1.926h-6.93v-4.5h5.13V7.308h-5.13v-3.69h6.786zm8.406 0h-2.942l-4.284 13.97h2.3l1.207-4.104h4.284l1.188 4.1h2.538zm.144 8.064h-3.42l.756-2.844c.306-1.08.558-2.088.864-3.42h.162c.306 1.314.522 2.34.828 3.438zm20.034-8.064h-3.96l-1.782 7.164c-.414 1.6-.7 3.042-1.08 4.572h-.252a86.527 86.527 0 00-1.008-4.608l-1.764-7.128h-3.951v13.97h2.142V8.64a221.3 221.3 0 00-.054-4.968h.252c.414 1.71.756 3.222 1.188 4.842l1.836 7.146h2.844l1.892-7.236c.468-1.71.792-3.15 1.152-4.752h.248c-.018 1.656-.036 3.186-.036 4.932v7.056h2.322zm17.028 2.9a4.089 4.089 0 014.032 4.176c0 3.4-2.394 4.662-5.436 5.382a3.818 3.818 0 011.26 1.134c.234.36.4.432.774.324 3.654-1.1 5.544-3.2 5.544-6.552 0-3.582-2.538-6.246-6.858-6.246a7.877 7.877 0 00-5.85 2.3 6.632 6.632 0 00-2.034 4.68c0 2.934 1.6 4.626 3.186 4.626a3.419 3.419 0 003.06-2.07 22.539 22.539 0 002.25-7.758zm-2.16.108a20.566 20.566 0 01-1.908 6.444c-.486.864-.882 1.1-1.35 1.1-.558 0-1.224-.918-1.224-2.574a5.183 5.183 0 011.4-3.33 5.421 5.421 0 013.074-1.64zm21.924.684a15.151 15.151 0 01-3.042 5.13 17.4 17.4 0 01-5.886 4.5 5.352 5.352 0 011.674.99.632.632 0 00.45.2.871.871 0 00.486-.162 20.184 20.184 0 005.112-4.284 21.2 21.2 0 003.492-5.85 2.167 2.167 0 01.414-.7.493.493 0 00.18-.342.613.613 0 00-.144-.36 6.634 6.634 0 00-1.224-1.242.422.422 0 00-.306-.126.574.574 0 00-.306.108 1.721 1.721 0 01-.99.18h-6.434a31.5 31.5 0 01-3.456-.126c.036.522.108 1.458.162 1.818.036.252.108.378.342.36.774-.036 1.8-.09 2.97-.09zm4-5.382a1.9 1.9 0 00-1.956 1.924 1.944 1.944 0 101.944-1.926zm0 .864a1.062 1.062 0 11-1.074 1.06 1.031 1.031 0 011.062-1.06zm5.688 6.5c-.882 0-2.214-.018-3.492-.126a7.958 7.958 0 00.18 1.638c.054.288.108.432.342.414.882-.072 2.214-.072 2.862-.072h3.2a7.425 7.425 0 01-.792 2.988 7.974 7.974 0 01-3.377 3.328 7.418 7.418 0 011.908.684.683.683 0 00.324.108.559.559 0 00.306-.126 8.563 8.563 0 002.862-3.366 9.768 9.768 0 00.9-3.618h2.214c1.314 0 2.358.018 3.492.054.216 0 .216-.072.234-.324a12.8 12.8 0 000-1.44c-.018-.2-.018-.288-.2-.288-.81.036-2.34.126-3.474.126h-2.227c0-.612 0-1.026.018-1.422a1.735 1.735 0 01.126-.612.9.9 0 00.108-.306.267.267 0 00-.234-.252 5.336 5.336 0 00-1.17-.234 47.472 47.472 0 003.258-.792c.378-.09.756-.252 1.134-.306.288-.018.468-.054.468-.252a.7.7 0 00-.234-.5 8.751 8.751 0 00-1.476-1.26 5.158 5.158 0 01-1.548.81 22.371 22.371 0 01-2.97.774 34.016 34.016 0 01-5.346.666 4.882 4.882 0 01.918 1.242c.072.2.18.432.45.4a40.8 40.8 0 004.266-.576c.054.36.072.594.09.828.018.522.036 1.242.036 1.818zm13.7 5.382a4.994 4.994 0 011.584.774.606.606 0 00.414.18.678.678 0 00.5-.27 19.833 19.833 0 003.852-6.048 3.449 3.449 0 01.63-1.1.534.534 0 00.18-.36.309.309 0 00-.216-.288 17.792 17.792 0 00-2.232-.918 9 9 0 01-.81 2.664 15.944 15.944 0 01-3.916 5.364zm9.2-6.84a23.536 23.536 0 014.446 7c.072.234.2.27.432.162a10.883 10.883 0 001.494-.954.348.348 0 00.18-.288.45.45 0 00-.072-.252 22.623 22.623 0 00-4.518-6.606.367.367 0 00-.27-.144.429.429 0 00-.252.108c-.317.198-.808.54-1.456.972zm5.562-4.122a1.9 1.9 0 00-1.944 1.926 1.944 1.944 0 101.944-1.926zm0 .864a1.062 1.062 0 11-1.062 1.062 1.031 1.031 0 011.046-1.064zm15.03 2.5a15.151 15.151 0 01-3.042 5.13 17.4 17.4 0 01-5.886 4.5 5.352 5.352 0 011.674.99.632.632 0 00.45.2.871.871 0 00.486-.162 20.184 20.184 0 005.112-4.284 21.2 21.2 0 003.492-5.85 2.167 2.167 0 01.414-.7.614.614 0 00.252-.45.452.452 0 00-.126-.306 5.539 5.539 0 00-1.314-1.188.88.88 0 00-.342-.09.508.508 0 00-.27.072 1.721 1.721 0 01-.99.18h-6.426a31.5 31.5 0 01-3.456-.126c.036.522.108 1.458.162 1.818.036.252.108.378.342.36.774-.036 1.8-.09 2.97-.09zm14.76 3.726h.99c.738 0 1.638.036 2.34.036.27.018.342-.054.36-.342.018-.36.018-.756 0-1.116-.018-.216-.072-.324-.288-.306-.792 0-1.62.036-2.43.036h-4c-.774 0-1.728 0-2.5-.072.036.648.054 1.134.108 1.44.036.27.126.378.288.36.828-.018 1.476-.018 2.214-.018h.99v4.554h-1.8c-1.152 0-2.034 0-3.078-.072a8.274 8.274 0 00.09 1.458c.036.27.126.378.342.378a51.704 51.704 0 012.646-.072h5.652c.828 0 1.89.036 2.826.036.216.018.288-.09.306-.324.018-.378.018-.774 0-1.152-.018-.234-.09-.342-.252-.342-.972.054-1.98.072-2.9.072h-1.908zm14.472 8.532V1.692h-1.08v14.724h-4.572v.99z" fill="#292929"/></svg>