<svg xmlns="http://www.w3.org/2000/svg" width="340" height="45" viewBox="0 0 340 45">
  <defs>
    <style>
      .cls-1 {
        fill: #292929;
        fill-rule: evenodd;
      }
    </style>
  </defs>
  <path id="STEP_01" data-name="STEP 01" class="cls-1" d="M76.277,1.806A26.6,26.6,0,0,0,69.39.913a17.771,17.771,0,0,0-7.735,1.544,11.474,11.474,0,0,0-4.9,4.208,10.949,10.949,0,0,0-1.68,5.964,10.789,10.789,0,0,0,1.559,5.888,13.891,13.891,0,0,0,3.724,4,45.611,45.611,0,0,0,5.253,3.133,35.634,35.634,0,0,1,4.98,2.755,7.7,7.7,0,0,1,2.134,2.013,3.916,3.916,0,0,1,.515,2.043,3.372,3.372,0,0,1-1.393,2.74,6.412,6.412,0,0,1-4.057,1.1q-6.025,0-12.382-5.086v9.566a30.216,30.216,0,0,0,13.744,3.512,18.573,18.573,0,0,0,7.674-1.514,12.045,12.045,0,0,0,5.237-4.3,11.33,11.33,0,0,0,1.862-6.448,10.657,10.657,0,0,0-1.5-5.8,14.293,14.293,0,0,0-3.936-4.087,58.838,58.838,0,0,0-6.675-3.89,23.212,23.212,0,0,1-5.086-3.148,3.77,3.77,0,0,1-1.3-2.785A3.29,3.29,0,0,1,66.7,9.617,5.926,5.926,0,0,1,70.449,8.6q5.722,0,11.716,4.692V4.243A22.448,22.448,0,0,0,76.277,1.806ZM128.7,10.268V1.458H87.766v8.81h15.076V43.75H113.5V10.268h15.2Zm34.573-1.241V1.458H134.326V43.75h29.426V36.182h-18.77V25.889H162.45V18.32H144.982V9.026h18.286Zm37.539-4.193q-4.117-3.375-11.444-3.375H171.532V43.75h10.656V27.13h7.69a18.322,18.322,0,0,0,8.34-1.71,11.772,11.772,0,0,0,5.041-4.586,12.7,12.7,0,0,0,1.665-6.478Q204.924,8.209,200.807,4.834Zm-13.29,15.061h-5.329V8.724h4.905q3.633,0,5.282,1.332a5.206,5.206,0,0,1,1.65,4.3q0,5.54-6.508,5.54h0Zm68.312-8.946a16.876,16.876,0,0,0-5.556-7.462A13.172,13.172,0,0,0,242.342.913a13.538,13.538,0,0,0-7.856,2.452,16.557,16.557,0,0,0-5.661,7.341,30.274,30.274,0,0,0-2.1,11.973,30.422,30.422,0,0,0,2.013,11.67,16.726,16.726,0,0,0,5.54,7.4A13.837,13.837,0,0,0,250.2,41.8a16.683,16.683,0,0,0,5.585-7.4,30.366,30.366,0,0,0,2.059-11.776A30.585,30.585,0,0,0,255.829,10.949ZM238.1,33.048q-1.242-3.315-1.242-10.369,0-7.2,1.438-10.52t3.921-3.315q2.845,0,4.117,3.5T247.609,22.8q0,7.175-1.332,10.369t-4,3.194Q239.344,36.363,238.1,33.048Zm46.863,10.7V0.913h-6.509l-14.8,12.14,5.328,6.569,6.146-4.874v29h9.839Z"/>
</svg>
