<svg xmlns="http://www.w3.org/2000/svg" width="242" height="45.462"><path d="M1.433 13.978c-.617.135-.82.263-.509.418a4.785 4.785 0 001.927.192c.8.023 1.82.006 2.64.011-.19.061-2.17.127-2.351.144a6.4 6.4 0 00-1.62.364c-.025.007-.8.169-.795.164a6.847 6.847 0 00.834.255c.456.2.975.433.933.612-.014.064-.183.148-.246.215.348.058.363.112.041.163a.924.924 0 00-.327.11c-.053.126-.158.372.826.453.7.058 3-.009 3.793 0a7.389 7.389 0 01-.726.216 1.975 1.975 0 00-1.093.062q0-.089-.548-.129c-.7.227-2.677.354-1.019.618a47.134 47.134 0 005.5.13c3.264.007 6.544 0 9.809-.007l9.513-.012c.642 0 2.239-.054 2.777-.007 1.022.089.3.22 1.764.258.889.023 2.015 0 2.917 0a7.229 7.229 0 01-.718.213 1.976 1.976 0 00-1.091.063q0-.089-.549-.13c-.652.212-2.5.32-1.235.578a36.682 36.682 0 005.405.168c3.07 0 6.144.013 9.214 0 6.119-.024 12.312-.027 18.432-.009 12.369.036 24.786-.006 37.159-.012 24.648-.012 49.385.056 74.023-.04 6.908-.027 13.9-.03 20.81-.01 3.428.01 7.283.056 10.666-.019 1.438-.031 4.231-.14 4.481-.389.1-.1-.472-.349-.65-.452-.394-.229-.512-.21-2.267-.235.99-.246 2.477-.144 1.7-.463a3.708 3.708 0 00-.773-.237 6.837 6.837 0 00-.827-.161c6.4.078 12.941.112 19.363.138 3.115.013 6.7.13 9.732.016 1.653-.062 3.606-.14 3.646-.414.014-.092-.293-.389-.527-.468a8.346 8.346 0 00-2.279-.163c.464-.115 1.819-.131 2.1-.262.233-.11-.4-.26-.681-.359a15.429 15.429 0 00-3.369-.56 5.518 5.518 0 00.935-.258.6.6 0 00.214-.169q.512 0 .938-.041c.739-.117 1.392-.037 1.044-.254-.249-.155-.263-.1-1.43-.18-.664-.045-1.265-.16-1.89-.191-.328-.016-1.712.022-2.068.02a660.137 660.137 0 01-3.563-.026c-4.9-.052-10.047-.146-15-.129-2.434.009-5.1-.005-7.566-.038-2.352-.032-4.913-.023-7.278-.072s-4.936-.047-7.278-.072c-1.228-.013-2.429.041-3.562-.026a9.9 9.9 0 01-1.112-.094 7.375 7.375 0 00-1.7-.248 5.759 5.759 0 001.015-.3c.92-.254-.221-.033.708-.138.282-.032 1.385-.064 1.509-.092-.026.005-.131-.207-.1-.188-.261-.165.457-.014-.728-.141a53.347 53.347 0 00-3.058-.215c-1.232-.034-3.078-.018-4.291-.016-1.778 0-3.5 0-5.222.016-6.421.062-13 .016-19.493.016-12.7 0-25.6-.032-38.308-.032-13.055 0-25.93 0-38.984.032-3.074.007-6.356.018-9.513 0s-6.475.022-9.641-.016c-6.309-.076-12.86.02-19.155-.016-3.57-.02-7.212 0-10.7 0-3.6 0-7.194-.008-10.7 0-3.751.008-7.479-.02-11.168.016-1.776.017-3.574-.015-5.352 0-1.054.009-5.748.343-3.359.542-2.56-.2-.825.46-.609.552.291.122.771.26.791.37.024.13-.764.216-.131.365zm59.792 26.35c-.255.135-.339.263-.21.418.177.212.337.16.8.192.333.023.752.006 1.091.011a7.469 7.469 0 01-.971.144 1.543 1.543 0 00-.669.364c-.01.007-.329.169-.328.164-.009.049.289.2.344.255.189.2.4.433.386.612-.006.064-.076.148-.1.215q.216.087.017.163a.3.3 0 00-.135.11c-.022.126-.065.372.342.453a15.07 15.07 0 001.567 0 2.086 2.086 0 01-.3.216c-.167-.151-.321.013-.452.062q0-.089-.226-.129c-.29.227-1.106.354-.421.618a8.118 8.118 0 002.272.13c1.349.007 2.7 0 4.053-.007l3.931-.012a9.3 9.3 0 011.147-.007c.422.089.124.22.729.258.367.023.833 0 1.206 0a2.039 2.039 0 01-.3.213c-.168-.15-.321.013-.451.063q0-.089-.227-.13c-.269.212-1.033.32-.51.578a6.354 6.354 0 002.234.168c1.268 0 2.539.013 3.807 0 2.528-.024 5.088-.027 7.616-.009 5.111.036 10.242-.006 15.355-.012 10.185-.012 20.407.056 30.588-.04 2.855-.027 5.744-.03 8.6-.01 1.417.01 3.01.056 4.408-.019.594-.031 1.748-.14 1.852-.389.043-.1-.195-.349-.268-.452-.163-.229-.212-.21-.937-.235.409-.246 1.024-.144.7-.463a1.084 1.084 0 00-.319-.237 1.506 1.506 0 00-.342-.161c2.645.078 5.348.112 8 .138 1.287.013 2.768.13 4.021.016.683-.062 1.49-.14 1.507-.414a.921.921 0 00-.218-.468c-.192-.158-.425-.146-.942-.163.192-.115.751-.131.867-.262.1-.11-.165-.26-.281-.359a3.252 3.252 0 00-1.393-.56 1.484 1.484 0 00.387-.258.506.506 0 00.088-.169 1.852 1.852 0 00.387-.041c.305-.117.575-.037.432-.254-.1-.155-.109-.1-.591-.18-.274-.045-.523-.16-.781-.191-.136-.016-.707.022-.855.02-.461-.005-.978-.014-1.472-.026-2.023-.052-4.151-.146-6.2-.129a77.872 77.872 0 01-3.126-.038c-.972-.032-2.03-.023-3.008-.072s-2.04-.047-3.008-.072a13.1 13.1 0 01-1.472-.026 1.788 1.788 0 01-.46-.094c-.286-.089-.218-.219-.7-.248.24-.1.259-.2.419-.3.38-.254-.091-.033.293-.138.116-.032.572-.064.624-.092a.637.637 0 01-.042-.188c-.108-.165.189-.014-.3-.141a9.559 9.559 0 00-1.264-.215c-.509-.034-1.272-.018-1.773-.016-.735 0-1.446 0-2.158.016-2.653.062-5.374.016-8.055.016-5.25 0-10.579-.032-15.83-.032-5.395 0-10.715 0-16.109.032-1.27.007-2.626.018-3.931 0s-2.676.022-3.984-.016c-2.607-.076-5.314.02-7.915-.016-1.475-.02-2.98 0-4.422 0-1.489 0-2.973-.008-4.422 0-1.55.008-3.09-.02-4.615.016-.734.017-1.477-.015-2.211 0-.435.009-2.375.343-1.388.542-1.058-.2-.341.46-.251.552.12.122.319.26.327.37.01.13-.316.216-.054.365z" fill="#fed438" fill-rule="evenodd"/><path d="M2.133 0v15.714h1.075V.99H7.78V0zm18.975 4.986a15.151 15.151 0 01-3.042 5.13 17.4 17.4 0 01-5.886 4.5 5.352 5.352 0 011.674.99.632.632 0 00.45.2.871.871 0 00.486-.162 20.184 20.184 0 005.109-4.282 21.2 21.2 0 003.492-5.85 2.167 2.167 0 01.414-.7.614.614 0 00.252-.45.452.452 0 00-.126-.306 5.539 5.539 0 00-1.314-1.194.88.88 0 00-.342-.09.508.508 0 00-.27.072 1.721 1.721 0 01-.99.18h-6.426a31.5 31.5 0 01-3.456-.126c.036.522.108 1.458.162 1.818.036.252.108.378.342.36.774-.036 1.8-.09 2.97-.09zm15.7.666a4.98 4.98 0 01.162-2 1.152 1.152 0 00.144-.45c0-.144-.09-.252-.324-.306a17.178 17.178 0 00-2.25-.378 14.373 14.373 0 01.18 3.132v5.634c0 .918.018 1.134-.108 1.368a.553.553 0 00-.072.27.718.718 0 00.162.378 5.2 5.2 0 001.08 1.1.768.768 0 00.378.144.572.572 0 00.36-.144 5.978 5.978 0 01.522-.378 29.893 29.893 0 003.2-2.16 22.753 22.753 0 002.664-2.358c.2-.2.27-.324.27-.45a.9.9 0 00-.108-.306 5.189 5.189 0 01-.558-1.818 17.273 17.273 0 01-3.15 3.06 18.3 18.3 0 01-2.559 1.672zm-6.282-2a4.842 4.842 0 01.18 1.512c-.018 2.88-.252 3.87-.756 5.094a8.936 8.936 0 01-2.988 3.582 6.378 6.378 0 011.53.756.612.612 0 00.342.144.816.816 0 00.468-.234 9.273 9.273 0 002.556-3.384 13.472 13.472 0 00.972-5.292 2.6 2.6 0 01.216-1.224c.108-.252.072-.468-.234-.558a14.552 14.552 0 00-2.293-.394zm25.146 6.246c1.332 0 2.664.018 4.014.036.252.018.324-.054.324-.27a13.269 13.269 0 000-1.692c0-.216-.054-.27-.324-.252-1.386.018-2.772.054-4.14.054h-5.8a23.125 23.125 0 01-3.888-.216 19.537 19.537 0 00.27 2.178c.054.27.2.378.414.378a14.394 14.394 0 012.646-.216zm19.026-1.8c1.242 0 2.484.036 3.42.072.162 0 .27-.072.27-.306.018-.234.018-1.152 0-1.386 0-.252-.018-.36-.2-.36a49.588 49.588 0 01-3.51.108h-8.082c-1.044 0-2.052 0-3.06-.09a10.83 10.83 0 00.144 1.728c.018.234.072.36.234.342.918-.054 1.8-.108 2.7-.108h3.42a7.645 7.645 0 01-.918 3.87 7.994 7.994 0 01-3.582 3.2 4.728 4.728 0 011.6.954.53.53 0 00.378.18 1.1 1.1 0 00.54-.216 9.067 9.067 0 003.168-3.4 10.282 10.282 0 001.062-4.59zm-1.944-4.176c.99 0 2.052.018 3.024.054.2 0 .234-.09.234-.342a8.007 8.007 0 000-1.314c0-.234-.036-.342-.216-.342-.9.054-2.034.072-3.042.072h-4.032c-.81 0-1.728-.018-2.988-.09.054.648.072 1.3.126 1.728.018.216.072.306.306.306 1.008-.036 1.728-.072 2.556-.072zm17.28 4.572c.63-.612 1.17-1.206 1.638-1.746a4.543 4.543 0 01.81-.738.411.411 0 00.27-.342.5.5 0 00-.2-.324 14.837 14.837 0 00-1.656-1.08 5.066 5.066 0 01-.954 1.548 25.606 25.606 0 01-7.47 5.85 3.126 3.126 0 011.3.9.5.5 0 00.36.18.4.4 0 00.234-.072 24.077 24.077 0 003.726-2.592v3.084c0 .954-.036 1.854-.054 2.88-.018.216.09.306.288.324a9.855 9.855 0 001.458 0c.216-.018.324-.108.306-.324-.018-.918-.054-2.07-.054-2.934zm24.912-6.966h-2.238v5.868c0 1.872.072 3.4.18 5.112h-.252a42.6 42.6 0 00-1.855-4.786l-2.9-6.192h-3.654v13.968h2.232V8.73a92.33 92.33 0 00-.126-5.04h.252a88.18 88.18 0 002 4.608l3.384 7.2h2.97zm5.8 0h-2.459v13.97h2.448zm13.95 4a5.066 5.066 0 00-5.31-4.248c-3.6 0-6.066 2.628-6.066 7.254 0 4.608 2.448 7.218 6.066 7.218a4.991 4.991 0 005.382-4.158l-2.286-.7c-.4 2.034-1.4 2.988-3.078 2.988-2.034 0-3.51-1.818-3.51-5.364 0-3.564 1.44-5.364 3.51-5.364 1.584 0 2.592 1.008 2.934 2.952zm11.538-4h-9.226v13.97h9.36v-1.926h-6.93v-4.5h5.13V7.146h-5.13v-3.69h6.786zm18.18 4a5.066 5.066 0 00-5.31-4.248c-3.6 0-6.066 2.628-6.066 7.254 0 4.608 2.448 7.218 6.066 7.218a4.991 4.991 0 005.382-4.158l-2.286-.7c-.4 2.034-1.4 2.988-3.078 2.988-2.034 0-3.51-1.818-3.51-5.364 0-3.564 1.44-5.364 3.51-5.364 1.584 0 2.592 1.008 2.934 2.952zm2.322-4v13.97h2.376V9.252h1.98c.234 0 .432-.018.63-.018l2.826 6.264h2.61l-3.222-6.624a3.542 3.542 0 002.772-3.546c0-2.43-1.548-3.8-4.95-3.8zm2.376 1.818h2.538c1.926 0 2.628.774 2.628 2.016 0 1.3-.828 2.088-2.736 2.088h-2.43zm19.422-1.818h-9.226v13.97h9.36v-1.926h-6.93v-4.5h5.13V7.146h-5.13v-3.69h6.786zm8.406 0h-2.945l-4.287 13.97h2.3l1.206-4.1h4.294l1.188 4.1h2.538zm.144 8.064h-3.42l.756-2.844c.306-1.08.558-2.088.864-3.42h.162c.306 1.314.522 2.34.828 3.438zm20.024-8.062h-3.96l-1.782 7.164c-.414 1.6-.7 3.042-1.08 4.572h-.252a86.527 86.527 0 00-1.008-4.608l-1.764-7.128h-3.943v13.968h2.142v-7.02a221.3 221.3 0 00-.054-4.968h.252c.414 1.71.756 3.222 1.188 4.842l1.836 7.146h2.844l1.89-7.236c.468-1.71.792-3.15 1.152-4.752h.252c-.018 1.656-.036 3.186-.036 4.932v7.056h2.323zm17.028 2.9a4.089 4.089 0 014.032 4.176c0 3.4-2.394 4.662-5.436 5.382a3.818 3.818 0 011.26 1.134c.234.36.4.432.774.324 3.654-1.1 5.544-3.2 5.544-6.552 0-3.582-2.538-6.246-6.858-6.246a7.877 7.877 0 00-5.85 2.3 6.632 6.632 0 00-2.034 4.68c0 2.934 1.6 4.626 3.186 4.626a3.419 3.419 0 003.06-2.07 22.539 22.539 0 002.25-7.758zm-2.16.108a20.566 20.566 0 01-1.908 6.444c-.486.864-.882 1.1-1.35 1.1-.558 0-1.224-.918-1.224-2.574a5.183 5.183 0 011.4-3.33 5.421 5.421 0 013.081-1.642zM75.186 33.22a15.151 15.151 0 01-3.042 5.13 17.4 17.4 0 01-5.886 4.5 5.352 5.352 0 011.674.99.632.632 0 00.45.2.871.871 0 00.486-.162 20.185 20.185 0 005.112-4.284 21.2 21.2 0 003.492-5.85 2.167 2.167 0 01.414-.7.493.493 0 00.18-.342.613.613 0 00-.144-.36 6.634 6.634 0 00-1.224-1.242.422.422 0 00-.306-.126.574.574 0 00-.306.108 1.721 1.721 0 01-.99.18H68.67a31.5 31.5 0 01-3.456-.126c.036.522.108 1.458.162 1.818.036.252.108.378.342.36.774-.036 1.8-.09 2.97-.09zm4-5.382a1.9 1.9 0 00-1.948 1.924 1.921 1.921 0 001.944 1.926 1.921 1.921 0 001.944-1.926 1.921 1.921 0 00-1.944-1.924zm0 .864a1.031 1.031 0 011.058 1.06 1.031 1.031 0 01-1.062 1.062 1.031 1.031 0 01-1.062-1.062 1.031 1.031 0 011.062-1.06zm5.688 6.5c-.882 0-2.214-.018-3.492-.126a7.958 7.958 0 00.18 1.638c.054.288.108.432.342.414.882-.072 2.214-.072 2.862-.072h3.2a7.425 7.425 0 01-.792 2.988 7.974 7.974 0 01-3.366 3.328 7.417 7.417 0 011.908.684.683.683 0 00.324.108.559.559 0 00.306-.126 8.563 8.563 0 002.862-3.366 9.768 9.768 0 00.9-3.618h2.214c1.314 0 2.358.018 3.492.054.216 0 .216-.072.234-.324a12.8 12.8 0 000-1.44c-.018-.2-.018-.288-.2-.288-.81.036-2.34.126-3.474.126h-2.232c0-.612 0-1.026.018-1.422a1.735 1.735 0 01.126-.612.9.9 0 00.108-.306.267.267 0 00-.234-.252 5.336 5.336 0 00-1.17-.234 47.472 47.472 0 003.258-.792c.378-.09.756-.252 1.134-.306.288-.018.468-.054.468-.252a.7.7 0 00-.234-.5 8.751 8.751 0 00-1.476-1.26 5.158 5.158 0 01-1.548.81 22.371 22.371 0 01-2.97.774 34.016 34.016 0 01-5.346.666 4.882 4.882 0 01.918 1.242c.072.2.18.432.45.4a40.8 40.8 0 004.266-.576c.054.36.072.594.09.828.018.522.036 1.242.036 1.818zm13.7 5.382a4.994 4.994 0 011.584.774.606.606 0 00.414.18.678.678 0 00.5-.27 19.833 19.833 0 003.852-6.048 3.449 3.449 0 01.63-1.1.534.534 0 00.18-.36.309.309 0 00-.216-.288 17.791 17.791 0 00-2.232-.918 9 9 0 01-.81 2.664 15.944 15.944 0 01-3.908 5.364zm9.2-6.84a23.536 23.536 0 014.446 7c.072.234.2.27.432.162a10.882 10.882 0 001.486-.954.348.348 0 00.18-.288.45.45 0 00-.072-.252 22.623 22.623 0 00-4.518-6.606.367.367 0 00-.27-.144.429.429 0 00-.25.108c-.308.198-.794.54-1.442.972zm5.562-4.122a1.9 1.9 0 00-1.944 1.926 1.921 1.921 0 001.936 1.924 1.921 1.921 0 001.944-1.926 1.921 1.921 0 00-1.944-1.926zm0 .864a1.031 1.031 0 011.062 1.062 1.031 1.031 0 01-1.07 1.06 1.031 1.031 0 01-1.062-1.062 1.031 1.031 0 011.062-1.062zm15.03 2.5a15.151 15.151 0 01-3.042 5.13 17.4 17.4 0 01-5.886 4.5 5.352 5.352 0 011.674.99.632.632 0 00.45.2.871.871 0 00.486-.162 20.184 20.184 0 005.104-4.282 21.2 21.2 0 003.492-5.85 2.167 2.167 0 01.414-.7.614.614 0 00.252-.45.452.452 0 00-.126-.306 5.539 5.539 0 00-1.314-1.194.88.88 0 00-.342-.09.508.508 0 00-.27.072 1.721 1.721 0 01-.99.18h-6.426a31.5 31.5 0 01-3.456-.126c.036.522.108 1.458.162 1.818.036.252.108.378.342.36.774-.036 1.8-.09 2.97-.09zm14.752 3.726h.99c.738 0 1.638.036 2.34.036.27.018.342-.054.36-.342.018-.36.018-.756 0-1.116-.018-.216-.072-.324-.288-.306-.792 0-1.62.036-2.43.036h-4c-.774 0-1.728 0-2.5-.072.036.648.054 1.134.108 1.44.036.27.126.378.288.36.828-.018 1.476-.018 2.214-.018h.99v4.554h-1.8c-1.152 0-2.034 0-3.078-.072a8.275 8.275 0 00.09 1.458c.036.27.126.378.342.378a51.704 51.704 0 012.646-.072h5.652c.828 0 1.89.036 2.826.036.216.018.288-.09.306-.324.018-.378.018-.774 0-1.152-.018-.234-.09-.342-.252-.342-.972.054-1.98.072-2.9.072h-1.904zm14.472 8.532V29.53h-1.082v14.724h-4.57v.99z" fill="#292929"/></svg>