<svg xmlns="http://www.w3.org/2000/svg" width="164" height="34"><path d="M12.595 13.338c0-.234-.078-.367-.235-.4a3.11 3.11 0 00-.6-.047H-.005v-.422c.5 0 .743-.141.743-.422V1.404c0-.281-.248-.422-.743-.422V.561h4.25v.421c-.461 0-.691.141-.691.422v9.331h8.2a1.025 1.025 0 00.6-.165.513.513 0 00.235-.445h.444v3.211zm2.177-.867a.726.726 0 00.506-.306 4.915 4.915 0 00.357-.586l4.57-9.118q.173-.3.31-.563a.985.985 0 00.135-.446.339.339 0 00-.173-.327 1.517 1.517 0 00-.369-.141V.563h4.174v.421a2.126 2.126 0 00-.347.129.338.338 0 00-.172.34.9.9 0 00.084.375c.059.126.145.29.26.493l5.139 9.541a.816.816 0 00.334.375 5.031 5.031 0 00.48.234v.422h-4.347v-.422a.608.608 0 00.247-.07.224.224 0 00.147-.211 1.4 1.4 0 00-.2-.61l-.939-1.734h-6.024l-.89 1.664a1.891 1.891 0 00-.247.7c0 .172.155.258.469.258v.422h-3.507zm9.312-4.36L22.009 3.75l-2.323 4.361zm7.657 4.36c.314 0 .47-.141.47-.422V1.406c0-.281-.155-.422-.47-.422V.563h4.224v.421c-.133 0-.2.079-.2.235q0 .188.493.656l7.09 6.985V1.406c0-.281-.215-.422-.644-.422V.563h3.729v.421c-.313 0-.468.141-.468.422v10.643c0 .281.154.422.468.422v.422h-4v-.422c.212 0 .319-.07.319-.211q0-.164-.395-.539l-7.535-7.455v7.783c0 .281.191.422.568.422v.422h-3.655zm29.692-8.109l-.494-.141a.867.867 0 00.05-.281.78.78 0 00-.457-.633 4.613 4.613 0 00-1.162-.481 9.555 9.555 0 00-1.531-.293 13.961 13.961 0 00-1.569-.094 6.853 6.853 0 00-1.814.246 4.849 4.849 0 00-1.605.762 3.84 3.84 0 00-1.137 1.336 4.254 4.254 0 00-.433 1.992 4.271 4.271 0 00.433 1.981 3.811 3.811 0 001.137 1.348 4.849 4.849 0 001.605.761 6.827 6.827 0 001.814.247 13.079 13.079 0 002.532-.223 16.6 16.6 0 001.916-.481V8.393h-3.161a.81.81 0 00-.521.141.92.92 0 00-.223.609h-.443v-3h.443a.666.666 0 00.223.5 1.021 1.021 0 00.521.106h6.175v.422a1.622 1.622 0 00-.619.164.486.486 0 00-.123.4v2.649a.3.3 0 00.147.3l.347.164v.375a9.033 9.033 0 01-1.716.89 11.808 11.808 0 01-1.83.551 11.344 11.344 0 01-1.853.246c-.615.031-1.222.047-1.815.047a11.328 11.328 0 01-3.148-.41 6.927 6.927 0 01-2.433-1.219 5.554 5.554 0 01-1.569-1.97 6.046 6.046 0 01-.555-2.637 6.055 6.055 0 01.555-2.637 5.673 5.673 0 011.569-1.98A7.1 7.1 0 0153.122.85 10.75 10.75 0 0156.27.416a14.7 14.7 0 012.075.141c.66.093 1.243.2 1.755.316s.935.227 1.271.328a3.292 3.292 0 00.629.152.557.557 0 00.347-.094 2.256 2.256 0 01.247-.164l.3.164zM70.249.984c-.362 0-.545.141-.545.422v7.033a2.111 2.111 0 001 2.028 6.215 6.215 0 002.929.551 6.2 6.2 0 002.927-.551 2.11 2.11 0 001-2.028V1.406c0-.281-.248-.422-.742-.422V.563h3.952v.421c-.394 0-.593.141-.593.422v6.916a5.436 5.436 0 01-.42 2.285 3.367 3.367 0 01-1.26 1.442 5.274 5.274 0 01-2.087.727 19.671 19.671 0 01-2.877.187 19.666 19.666 0 01-2.878-.187 5.279 5.279 0 01-2.088-.727 3.376 3.376 0 01-1.258-1.442 5.374 5.374 0 01-.421-2.285V1.406c0-.281-.231-.422-.691-.422V.563h4.051zm10.94 11.487a.72.72 0 00.506-.306 4.673 4.673 0 00.358-.586l4.57-9.118c.116-.2.218-.391.308-.563a.994.994 0 00.138-.446.339.339 0 00-.173-.327 1.546 1.546 0 00-.371-.141V.563h4.174v.421a2.221 2.221 0 00-.346.129.338.338 0 00-.174.34.886.886 0 00.088.375 5.383 5.383 0 00.262.493l5.135 9.541a.813.813 0 00.335.375 5.173 5.173 0 00.481.234v.422h-4.347v-.422a.616.616 0 00.247-.07.225.225 0 00.146-.211 1.432 1.432 0 00-.2-.61l-.939-1.734h-6.026l-.89 1.664a1.91 1.91 0 00-.247.7c0 .172.156.258.471.258v.422h-3.509zm9.314-4.36L88.428 3.75l-2.323 4.361zm19.862-3.749l-.5-.141a.892.892 0 00.049-.281.776.776 0 00-.457-.633 4.636 4.636 0 00-1.161-.481 9.6 9.6 0 00-1.531-.293 13.955 13.955 0 00-1.567-.094 6.862 6.862 0 00-1.816.246 4.858 4.858 0 00-1.605.762 3.86 3.86 0 00-1.137 1.336 4.242 4.242 0 00-.433 1.992 4.259 4.259 0 00.433 1.981 3.831 3.831 0 001.137 1.348 4.858 4.858 0 001.605.761 6.836 6.836 0 001.816.247 13.118 13.118 0 002.531-.223 16.656 16.656 0 001.914-.481V8.393h-3.164a.8.8 0 00-.518.141.92.92 0 00-.222.609h-.444v-3h.444a.666.666 0 00.222.5 1.009 1.009 0 00.518.106h6.177v.422a1.627 1.627 0 00-.618.164.486.486 0 00-.123.4v2.649a.3.3 0 00.147.3l.348.164v.375a9.019 9.019 0 01-1.718.89 11.754 11.754 0 01-1.828.551 11.372 11.372 0 01-1.853.246q-.926.047-1.814.047a11.342 11.342 0 01-3.15-.41 6.923 6.923 0 01-2.432-1.219 5.53 5.53 0 01-1.568-1.97 6.005 6.005 0 01-.558-2.637 6.014 6.014 0 01.558-2.637 5.648 5.648 0 011.568-1.98A7.1 7.1 0 01102.047.85a10.763 10.763 0 013.15-.434 14.719 14.719 0 012.074.141q.989.139 1.754.316t1.272.328a3.255 3.255 0 00.628.152.562.562 0 00.348-.094 2.167 2.167 0 01.247-.164l.3.164zm16.965-1.268a.425.425 0 00-.21-.388 1.486 1.486 0 00-.728-.129h-8v2.908h4.843a1.826 1.826 0 00.766-.129c.182-.086.271-.309.271-.668h.446v3.657h-.446c0-.359-.09-.59-.271-.691a1.581 1.581 0 00-.766-.152h-4.843v3.235h8.251a1.024 1.024 0 00.6-.165.512.512 0 00.235-.445h.445v3.211h-.445c0-.234-.078-.367-.235-.4a3.11 3.11 0 00-.6-.047h-11.512v-.422a.493.493 0 00.311-.106.377.377 0 00.137-.316V1.404a.374.374 0 00-.137-.316.494.494 0 00-.311-.106V.561h11.266a1.285 1.285 0 00.728-.152.48.48 0 00.21-.41h.446v3.094zM141.153.422a10.438 10.438 0 012.768.387 8.819 8.819 0 012.568 1.16 6.411 6.411 0 011.9 1.957 5.168 5.168 0 01.742 2.8 5.166 5.166 0 01-.742 2.8 6.406 6.406 0 01-1.9 1.958 8.227 8.227 0 01-2.568 1.125 11.411 11.411 0 01-2.768.351 11.378 11.378 0 01-2.766-.351 8.173 8.173 0 01-2.569-1.125 6.409 6.409 0 01-1.9-1.958 5.182 5.182 0 01-.741-2.8 5.185 5.185 0 01.741-2.8 6.414 6.414 0 011.9-1.957 8.756 8.756 0 012.569-1.16 10.408 10.408 0 012.766-.387zm0 2.156a6.51 6.51 0 00-1.878.282 5.873 5.873 0 00-1.692.808 4.314 4.314 0 00-1.221 1.3 3.294 3.294 0 00-.47 1.758 3.286 3.286 0 00.47 1.758 4.287 4.287 0 001.221 1.3 5.874 5.874 0 001.692.809 6.538 6.538 0 001.878.281 6.52 6.52 0 001.876-.281 5.892 5.892 0 001.693-.809 4.282 4.282 0 001.223-1.3 3.321 3.321 0 00.47-1.758 3.329 3.329 0 00-.47-1.758 4.308 4.308 0 00-1.223-1.3 5.891 5.891 0 00-1.693-.808 6.492 6.492 0 00-1.876-.282zm22.404.516a.429.429 0 00-.21-.388 1.5 1.5 0 00-.729-.129h-8v2.908h4.84a2.469 2.469 0 00.769-.094.4.4 0 00.273-.423h.443v3.376h-.443c0-.359-.094-.59-.273-.691a1.594 1.594 0 00-.769-.152h-4.84v4.548a.338.338 0 00.212.316 1.166 1.166 0 00.53.106v.422h-4.2v-.422c.429 0 .643-.141.643-.422V1.406c0-.281-.214-.422-.643-.422V.563h11.46a1.3 1.3 0 00.729-.152.484.484 0 00.21-.41h.443v3.094zM36.815 23.756a.427.427 0 00-.21-.388 1.5 1.5 0 00-.73-.129h-8v2.908h4.841a2.471 2.471 0 00.768-.094.4.4 0 00.272-.423h.443v3.376h-.443c0-.359-.093-.59-.272-.691a1.6 1.6 0 00-.768-.152h-4.845v4.548a.339.339 0 00.211.316 1.171 1.171 0 00.531.106v.422h-4.2v-.422c.428 0 .643-.141.643-.422V22.068c0-.281-.215-.422-.643-.422v-.421h11.458a1.3 1.3 0 00.73-.152.482.482 0 00.21-.41h.443v3.094zM51.809 34c0-.234-.08-.367-.235-.4a3.139 3.139 0 00-.606-.047H39.212v-.422c.5 0 .742-.141.742-.422V22.066c0-.281-.247-.422-.742-.422v-.421h4.248v.421c-.459 0-.691.141-.691.422v9.331h8.2a1.033 1.033 0 00.606-.165.517.517 0 00.235-.445h.445v3.211zm9.781-12.916a10.409 10.409 0 012.767.387 8.79 8.79 0 012.569 1.16 6.426 6.426 0 011.9 1.957 5.185 5.185 0 01.74 2.8 5.182 5.182 0 01-.74 2.8 6.421 6.421 0 01-1.9 1.958 8.2 8.2 0 01-2.569 1.125 11.38 11.38 0 01-2.767.351 11.36 11.36 0 01-2.766-.351 8.173 8.173 0 01-2.569-1.125 6.384 6.384 0 01-1.9-1.958 5.166 5.166 0 01-.743-2.8 5.169 5.169 0 01.743-2.8 6.389 6.389 0 011.9-1.957 8.756 8.756 0 012.569-1.16 10.392 10.392 0 012.766-.387zm0 2.156a6.51 6.51 0 00-1.878.282 5.88 5.88 0 00-1.691.808 4.324 4.324 0 00-1.224 1.3 3.337 3.337 0 00-.469 1.758 3.329 3.329 0 00.469 1.758 4.3 4.3 0 001.224 1.3 5.88 5.88 0 001.691.809 6.538 6.538 0 001.878.281 6.543 6.543 0 001.878-.281 5.88 5.88 0 001.691-.809 4.255 4.255 0 001.222-1.3 3.321 3.321 0 00.47-1.758 3.329 3.329 0 00-.47-1.758 4.281 4.281 0 00-1.222-1.3 5.88 5.88 0 00-1.691-.808 6.515 6.515 0 00-1.878-.282zm12.474-1.594c-.247 0-.37.149-.37.446a1.256 1.256 0 00.036.281 4.41 4.41 0 00.186.539l2.644 6.517h.05l2.617-6.611a3.563 3.563 0 00.16-.457 1.109 1.109 0 00.037-.269c0-.3-.106-.446-.32-.446v-.421h4.224v.421a.269.269 0 00-.247.118.455.455 0 00-.075.258 2.383 2.383 0 00.247.8l2.644 6.611h.05l2.669-6.751a1.475 1.475 0 00.171-.633.394.394 0 00-.122-.27.4.4 0 00-.3-.129v-.421h3.656v.421a.433.433 0 00-.407.282c-.089.187-.194.422-.311.7l-3.555 8.955-.261.656a1.36 1.36 0 00-.111.47.411.411 0 00.125.293.454.454 0 00.344.129v.422h-3.9v-.422a1.523 1.523 0 00.312-.141.287.287 0 00.158-.257 1.234 1.234 0 00-.086-.422 9.202 9.202 0 00-.283-.657l-2.842-6.915h-.048l-2.694 6.775a4.646 4.646 0 00-.369 1.148.434.434 0 00.32.47v.422h-3.829v-.422a.679.679 0 00.3-.07.241.241 0 00.148-.235 1.051 1.051 0 00-.086-.4l-.184-.445-3.952-9.681a2.617 2.617 0 00-.211-.434.522.522 0 00-.36-.224v-.421h3.83zm31.813 2.11a.426.426 0 00-.211-.388 1.488 1.488 0 00-.729-.129h-8v2.908h4.843a1.834 1.834 0 00.767-.129c.18-.086.271-.309.271-.668h.445v3.657h-.445c0-.359-.092-.59-.271-.691a1.588 1.588 0 00-.767-.152h-4.843v3.235h8.25a1.025 1.025 0 00.605-.165.511.511 0 00.236-.445h.442V34h-.442c0-.234-.078-.367-.236-.4a3.114 3.114 0 00-.605-.047h-11.51v-.422a.5.5 0 00.311-.106.379.379 0 00.137-.316V22.066a.377.377 0 00-.137-.316.5.5 0 00-.311-.106v-.421h11.264a1.286 1.286 0 00.729-.152.48.48 0 00.211-.41h.443v3.094zm11.339-2.531a10.61 10.61 0 012.148.2 4.967 4.967 0 011.653.633 2.956 2.956 0 011.063 1.125 3.549 3.549 0 01.371 1.7 2.934 2.934 0 01-.965 2.368 5.3 5.3 0 01-2.592 1.1l3.283 4.455a.674.674 0 00.41.281 2.208 2.208 0 00.432.047v.422h-4.62v-.422a.95.95 0 00.384-.07c.106-.047.161-.109.161-.188a.514.514 0 00-.1-.27 6.19 6.19 0 00-.295-.411l-2.716-3.656h-3.532v4.173a.352.352 0 00.159.317 1.131 1.131 0 00.58.105v.422h-4.273v-.422c.479 0 .718-.141.718-.422V22.069c0-.281-.239-.422-.718-.422v-.421zm-.643 5.485a7.118 7.118 0 001.481-.129 2.658 2.658 0 00.938-.364 1.381 1.381 0 00.5-.551 1.622 1.622 0 00.146-.691 1.629 1.629 0 00-.146-.692 1.389 1.389 0 00-.5-.55 2.687 2.687 0 00-.938-.364 7.186 7.186 0 00-1.481-.129h-4.271v3.47zm9.905 2.976l.246.118a.7.7 0 00.1.375 1.7 1.7 0 00.679.55 7.06 7.06 0 001.162.481 10.334 10.334 0 001.371.34 7.306 7.306 0 001.281.129c.281 0 .643-.02 1.086-.059a6.822 6.822 0 001.313-.246 3.765 3.765 0 001.11-.516 1.012 1.012 0 00.469-.867.865.865 0 00-.432-.8 3.287 3.287 0 00-1.136-.375 12.983 12.983 0 00-1.605-.152c-.6-.024-1.217-.059-1.84-.106a17.583 17.583 0 01-1.842-.234 5.289 5.289 0 01-1.605-.551 3.133 3.133 0 01-1.136-1.055 3.16 3.16 0 01-.433-1.746 3.135 3.135 0 01.356-1.43 3.541 3.541 0 011.1-1.243 6.214 6.214 0 011.879-.879 9.341 9.341 0 012.666-.34 12.119 12.119 0 012.274.187 16.35 16.35 0 012.853.8 2.288 2.288 0 00.8.188.7.7 0 00.5-.141l.3.188-1.706 2.93-.248-.094a1.231 1.231 0 00-.2-.539 2.07 2.07 0 00-.653-.551 5.808 5.808 0 00-1.072-.481 9.225 9.225 0 00-1.336-.34 8.062 8.062 0 00-1.433-.129 8.028 8.028 0 00-1.123.082 5.578 5.578 0 00-1.052.246 2.323 2.323 0 00-.776.434.85.85 0 00-.311.668.936.936 0 00.434.843 3.217 3.217 0 001.135.422 11.172 11.172 0 001.605.188q.9.047 1.843.117a15.843 15.843 0 011.839.246 5.473 5.473 0 011.605.563 3.172 3.172 0 011.137 1.043 3.078 3.078 0 01.431 1.711 2.9 2.9 0 01-.678 1.992 4.749 4.749 0 01-1.693 1.22 7.954 7.954 0 01-2.186.6 17.015 17.015 0 01-2.184.152 15.316 15.316 0 01-2.361-.152 9.245 9.245 0 01-1.58-.375 10.22 10.22 0 01-1-.4 1.544 1.544 0 00-.641-.175.414.414 0 00-.322.188l-.347-.188z" fill="#fff"/></svg>