<?xml version="1.0" encoding="utf-8"?>
<!-- Generator: Adobe Illustrator 26.0.2, SVG Export Plug-In . SVG Version: 6.00 Build 0)  -->
<svg version="1.1" id="レイヤー_1" xmlns="http://www.w3.org/2000/svg" xmlns:xlink="http://www.w3.org/1999/xlink" x="0px"
	 y="0px" viewBox="0 0 160.5 22.6" style="enable-background:new 0 0 160.5 22.6;" xml:space="preserve">
<style type="text/css">
	.st0{fill:none;}
	.st1{stroke:#000000;stroke-miterlimit:10;}
</style>
<path class="st0" d="M0,0"/>
<text transform="matrix(1 0 0 1 16.0042 55.1873)" class="st1" style="font-family:'GillSans-SemiBold'; font-size:29.7636px; letter-spacing:2;">ACCESS</text>
<g>
	<path class="st1" d="M29.1,0.9l9,20.3h-4.1l-2.1-4.9h-9l-2,4.9h-4.1l8.4-20.3H29.1z M24,13.3h6.6l-3.4-8L24,13.3z"/>
	<path class="st1" d="M53.2,0.6c1.2,0,2.3,0.1,3.4,0.4s2.3,0.7,3.6,1.3v3.7c-1.2-0.7-2.4-1.2-3.5-1.6C55.6,4.2,54.5,4,53.4,4
		c-1.4,0-2.7,0.3-3.9,0.9s-2.1,1.4-2.7,2.5s-1,2.3-1,3.6c0,1.4,0.3,2.6,1,3.6c0.6,1.1,1.5,1.9,2.7,2.5s2.5,0.9,3.9,0.9
		c1.1,0,2.2-0.2,3.2-0.5c1-0.3,2.3-0.9,3.8-1.7v3.7c-1.3,0.7-2.5,1.2-3.6,1.5c-1.1,0.3-2.4,0.4-3.9,0.4c-2.1,0-4.1-0.4-5.7-1.3
		c-1.7-0.9-3-2.1-4-3.7s-1.4-3.4-1.4-5.3c0-2,0.5-3.9,1.5-5.5c1-1.6,2.4-2.9,4.1-3.8C49.1,1.1,51,0.6,53.2,0.6z"/>
	<path class="st1" d="M77.5,0.6c1.2,0,2.3,0.1,3.4,0.4s2.3,0.7,3.6,1.3v3.7C83.2,5.4,82,4.8,81,4.5C79.9,4.2,78.8,4,77.7,4
		c-1.4,0-2.7,0.3-3.9,0.9S71.7,6.4,71,7.4s-1,2.3-1,3.6c0,1.4,0.3,2.6,1,3.6c0.6,1.1,1.5,1.9,2.7,2.5s2.5,0.9,3.9,0.9
		c1.1,0,2.2-0.2,3.2-0.5c1-0.3,2.3-0.9,3.8-1.7v3.7c-1.3,0.7-2.5,1.2-3.6,1.5c-1.1,0.3-2.4,0.4-3.9,0.4c-2.1,0-4.1-0.4-5.7-1.3
		c-1.7-0.9-3-2.1-4-3.7S66,13.2,66,11.2c0-2,0.5-3.9,1.5-5.5c1-1.6,2.4-2.9,4.1-3.8C73.3,1.1,75.3,0.6,77.5,0.6z"/>
	<path class="st1" d="M104.5,0.9V4h-9.2v5.3h8.8v3.1h-8.8v5.8h9.4v3.1H91.4V0.9H104.5z"/>
	<path class="st1" d="M117.2,0.6c2,0,3.9,0.5,5.7,1.5v3.5c-2.1-1.3-4-1.9-5.6-1.9c-1,0-1.8,0.2-2.3,0.6c-0.6,0.4-0.8,0.9-0.8,1.5
		c0,0.8,0.5,1.5,1.6,2.1c0.3,0.2,1.4,0.7,3.4,1.6c1.7,0.8,2.9,1.7,3.6,2.6c0.7,1,1.1,2.1,1.1,3.5c0,1.7-0.6,3.2-1.9,4.2
		c-1.3,1.1-2.9,1.6-4.9,1.6c-1.3,0-2.4-0.1-3.3-0.4c-0.9-0.3-2-0.8-3.1-1.5v-3.9c2.2,1.8,4.2,2.7,6.1,2.7c1,0,1.7-0.2,2.3-0.6
		s0.9-1,0.9-1.7c0-0.9-0.5-1.7-1.5-2.3c-0.9-0.5-2-1-3.3-1.7c-1.6-0.7-2.8-1.6-3.6-2.5s-1.2-2.1-1.2-3.4c0-1.7,0.6-3.1,1.9-4.1
		C113.5,1.2,115.2,0.6,117.2,0.6z"/>
	<path class="st1" d="M136.1,0.6c2,0,3.9,0.5,5.7,1.5v3.5c-2.1-1.3-4-1.9-5.6-1.9c-1,0-1.8,0.2-2.3,0.6c-0.6,0.4-0.8,0.9-0.8,1.5
		c0,0.8,0.5,1.5,1.6,2.1c0.3,0.2,1.4,0.7,3.4,1.6c1.7,0.8,2.9,1.7,3.6,2.6c0.7,1,1.1,2.1,1.1,3.5c0,1.7-0.6,3.2-1.9,4.2
		c-1.3,1.1-2.9,1.6-4.9,1.6c-1.3,0-2.4-0.1-3.3-0.4c-0.9-0.3-2-0.8-3.1-1.5v-3.9c2.2,1.8,4.2,2.7,6.1,2.7c1,0,1.7-0.2,2.3-0.6
		s0.9-1,0.9-1.7c0-0.9-0.5-1.7-1.5-2.3c-0.9-0.5-2-1-3.3-1.7c-1.6-0.7-2.8-1.6-3.6-2.5s-1.2-2.1-1.2-3.4c0-1.7,0.6-3.1,1.9-4.1
		C132.4,1.2,134,0.6,136.1,0.6z"/>
</g>
</svg>
