<svg xmlns="http://www.w3.org/2000/svg" width="80.213" height="225.145"><path d="M72.576 30.052a1.049 1.049 0 00.954-.509 3.541 3.541 0 00.318-1.766v-19.4h-7.174V20.11a5.8 5.8 0 00.231 1.855.98.98 0 001.04.659v1.077h-8.331v-1.077q1.331 0 1.707-.659a3.776 3.776 0 00.376-1.855V8.377H50.472a.833.833 0 00-.781.508 2.816 2.816 0 00-.26 1.287H48.39V-.005h1.041q0 1.556 1.042 1.557H76.74q1.043 0 1.042-1.557h1.041v27.777a3.073 3.073 0 00.376 1.766 1.193 1.193 0 001.013.509v1.078h-7.637zm1.272 17.6h-1.041q0-1.378-.867-1.377H52.676v16.163a2.123 2.123 0 00.319 1.2 1.016 1.016 0 00.9.479v1.077h-6.076v-1.077a.476.476 0 00.521-.479 9.865 9.865 0 00.059-1.2V38.972h1.041q0 1.558.868 1.557H71.94q.868 0 .867-1.557h1.041zm.348 40.108a22.983 22.983 0 01-.81 6.2 15.06 15.06 0 01-2.431 5.058 11.68 11.68 0 01-4.078 3.412 13.807 13.807 0 01-11.514 0 11.657 11.657 0 01-4.079-3.412 13.907 13.907 0 01-2.344-5.058 26.905 26.905 0 010-12.392 13.91 13.91 0 012.344-5.059 11.666 11.666 0 014.079-3.412 13.807 13.807 0 0111.514 0 11.689 11.689 0 014.078 3.412 15.064 15.064 0 012.431 5.059 22.966 22.966 0 01.81 6.192zm-4.283 0a11.773 11.773 0 00-.607-3.742 10.693 10.693 0 00-1.735-3.262 8.66 8.66 0 00-2.748-2.3 8.335 8.335 0 00-7.407 0 8.635 8.635 0 00-2.747 2.3 10.716 10.716 0 00-1.736 3.262 11.825 11.825 0 000 7.483 10.709 10.709 0 001.736 3.263 8.646 8.646 0 002.747 2.3 8.328 8.328 0 007.407 0 8.671 8.671 0 002.748-2.3 10.686 10.686 0 001.735-3.263 11.781 11.781 0 00.608-3.741zm2.894 28.674q0-.778-.809-.777a2.773 2.773 0 00-.9.239q-.607.239-1.533.6l-14.06 5.268v.12l13.77 5.088 1.533.569a3.542 3.542 0 001.186.269q.809 0 .809-.958h1.041v8.56h-1.041q0-1.078-.693-1.077a3.653 3.653 0 00-1.186.3q-.781.3-1.475.6l-13.944 5.268 14.06 5.566q.81.3 1.418.509a3.224 3.224 0 001.013.209c.539 0 .809-.32.809-.958h1.041v7.6h-1.041q0-1.018-2.14-1.8l-17.647-6.883q-.985-.359-1.765-.719a3.259 3.259 0 00-1.071-.359q-.751 0-.751.838H48.39v-8.382h1.041a.971.971 0 00.2.6 1.041 1.041 0 00.607.12 10.393 10.393 0 001.736-.538q1.5-.539 3.789-1.407t5.121-1.885q2.834-1.02 5.727-1.976v-.12a16.109 16.109 0 01-1.879-.66q-1.36-.538-3.124-1.256t-3.7-1.526l-3.588-1.5q-1.648-.69-2.776-1.137a7.222 7.222 0 00-1.3-.449.877.877 0 00-.636.179 1.069 1.069 0 00-.174.718h-1.041v-7.364h1.041a1.376 1.376 0 00.058.42c.038.12.173.179.405.179a2.674 2.674 0 00.9-.208q.548-.211.838-.33l20.078-7.9a1.626 1.626 0 001.1-1.257h1.041v7.6zm-4.34 67.824q1.1 0 1.1-1.855v-14.606h-5.786v9.219a5.669 5.669 0 00.144 1.5.711.711 0 00.782.48v1.077h-6.133v-1.2a.554.554 0 00.781-.48 9.212 9.212 0 00.145-1.854v-8.741h-6.828v15.325a2.115 2.115 0 00.319 1.2.966.966 0 00.839.479v1.077h-6.075v-1.077a.506.506 0 00.578-.479 9.825 9.825 0 00.059-1.2v-21.969h1.045a1.054 1.054 0 00.2.6.743.743 0 00.665.3h21.635a.743.743 0 00.664-.3 1.062 1.062 0 00.2-.6h1.041v21.25q0 1.854 1.042 1.855v1.078h-6.423zm5.381 28.256q0 5.327-1.706 8.321t-5.815 2.993a6.215 6.215 0 01-2.777-.6 7.03 7.03 0 01-2.113-1.587 8.52 8.52 0 01-1.446-2.185 12.606 12.606 0 01-.838-2.454l-8.274 5.866a3.427 3.427 0 00-.955 1.048 5.179 5.179 0 00-.492 1.227h-1.041v-9.159h1.041q0 .777.521.777a3.721 3.721 0 001.794-.9l6.829-4.727v-8.32h-8.274a.691.691 0 00-.665.389 1.606 1.606 0 00-.2.748h-1.041v-7.962h1.041q0 1.079.868 1.079H71.94q.868 0 .867-1.079h1.041zm-10.992-.12q0 5.867 3.587 5.867a2.563 2.563 0 002.285-1.407 9.043 9.043 0 00.839-4.46v-9.46h-6.712zM21.235 32.881l.347-1.2a2.136 2.136 0 00.694.119 1.927 1.927 0 001.562-1.108 11.11 11.11 0 001.186-2.814 23.083 23.083 0 00.723-3.711 33.25 33.25 0 00.231-3.8 16.35 16.35 0 00-.608-4.4 11.645 11.645 0 00-1.88-3.891 9.46 9.46 0 00-3.3-2.754 11.995 11.995 0 00-9.807 0 9.392 9.392 0 00-3.327 2.754 11.646 11.646 0 00-1.88 3.891 16.35 16.35 0 00-.607 4.4 31.094 31.094 0 00.55 6.137 39.944 39.944 0 001.186 4.638h4.978V23.48a1.935 1.935 0 00-.347-1.257 2.274 2.274 0 00-1.5-.538v-1.079h7.406v1.079a1.641 1.641 0 00-1.244.538 2.419 2.419 0 00-.26 1.257v14.965h-1.041a3.865 3.865 0 00-.405-1.5 1.214 1.214 0 00-.984-.3H6.363a.75.75 0 00-.752.359c-.116.239-.252.518-.405.838H4.28a21.786 21.786 0 01-2.2-4.16 28.317 28.317 0 01-1.361-4.43 27.562 27.562 0 01-.608-4.49q-.116-2.245-.116-4.4a26.991 26.991 0 011.013-7.632 16.656 16.656 0 013.009-5.9 13.7 13.7 0 014.86-3.8 16.4 16.4 0 0113.018 0 13.983 13.983 0 014.889 3.8 17.15 17.15 0 013.1 5.9 25.627 25.627 0 011.07 7.632 35.043 35.043 0 01-.347 5.029q-.347 2.392-.781 4.25t-.81 3.084a7.677 7.677 0 00-.376 1.527 1.344 1.344 0 00.231.838 5.431 5.431 0 01.4.6l-.4.718zM1.216 49.457a2.943 2.943 0 00.2 1.317.7.7 0 00.666.36h21.641a.7.7 0 00.665-.36 2.956 2.956 0 00.2-1.317h1.041v9.1h-1.041q0-1.675-.868-1.675H2.082q-.869 0-.869 1.675H.172v-9.1zM20.54 95.378c.192 0 .376-.141.55-.42a2.886 2.886 0 00.26-1.437V77.297h-6.129v10.536a2.337 2.337 0 00.2 1.257 1.009 1.009 0 00.665.3v1.077h-6.075V89.39a1.143 1.143 0 00.694-.3 2.1 2.1 0 00.231-1.257V77.297H2.085a.688.688 0 00-.666.42 2.159 2.159 0 00-.2.958H.178v-8.26h1.041c0 .757.289 1.138.869 1.138h21.633q.868 0 .868-1.257h1.041v23.226a2.631 2.631 0 00.289 1.437.878.878 0 00.753.42v1.077h-6.134zM1.216 112.083a1.058 1.058 0 00.2.6.747.747 0 00.666.3h19.269V105.2a1.833 1.833 0 00-.231-.9.794.794 0 00-.752-.419v-1.077h6.654v1.077a1.246 1.246 0 00-1.1.419 1.54 1.54 0 00-.289.9v21.311a1.544 1.544 0 00.289.9 1.246 1.246 0 001.1.42v1.077h-6.654v-1.077a.794.794 0 00.752-.42 1.838 1.838 0 00.231-.9v-7.783H2.085c-.58 0-.869.361-.869 1.078H.175v-7.723z" opacity=".3" fill="#fff"/></svg>