<svg xmlns="http://www.w3.org/2000/svg" width="53.12" height="424.11"><path d="M36.504 39.639a2.154 2.154 0 00.451-.05 2.53 2.53 0 01.564-.05c.374 0 .883-.333 1.522-1a11.3 11.3 0 001.86-2.845 22.384 22.384 0 001.524-4.343 22.975 22.975 0 00.618-5.493 19.017 19.017 0 00-1.071-6.54 14.07 14.07 0 00-8.51-8.536 20.214 20.214 0 00-7.214-1.2 18.658 18.658 0 00-7.27 1.346 18.01 18.01 0 00-5.523 3.547 14.752 14.752 0 00-3.495 4.99 14.473 14.473 0 00-1.183 5.691 20.158 20.158 0 00.789 5.492 33.69 33.69 0 001.862 5.092 16.285 16.285 0 002.309 3.743 3.312 3.312 0 002.254 1.449h.9a5.348 5.348 0 001.127-.1l1.127 1.1-11.946 7.389-.565-1a4.866 4.866 0 00.565-1.7 6.414 6.414 0 00-1.015-2.594q-1.017-1.8-2.313-4.545a33.881 33.881 0 01-3.1-14.527 29.085 29.085 0 011.465-9.086 21.527 21.527 0 014.678-7.987 24.63 24.63 0 018-5.691 26.378 26.378 0 0111.1-2.2 26 26 0 0111.046 2.2 24.069 24.069 0 017.947 5.79 23.641 23.641 0 014.791 8.238 29.428 29.428 0 011.578 9.534 28.622 28.622 0 01-.789 6.94 37.788 37.788 0 01-1.8 5.541q-1.015 2.4-1.8 3.992a6.23 6.23 0 00-.789 2.3 1.177 1.177 0 00.338.849 3.661 3.661 0 01.564.75l-.789 1.2-10.708-6.588zm14.879 46.129a33.185 33.185 0 01-1.578 10.335 23.821 23.821 0 01-4.734 8.436 22.289 22.289 0 01-7.947 5.691 31.035 31.035 0 01-22.431 0 22.254 22.254 0 01-7.947-5.691 21.878 21.878 0 01-4.565-8.436 38.6 38.6 0 010-20.669 21.85 21.85 0 014.565-8.438 22.279 22.279 0 017.947-5.691 31.037 31.037 0 0122.431 0 22.315 22.315 0 017.947 5.691 23.786 23.786 0 014.734 8.438 33.145 33.145 0 011.578 10.334zm-8.341 0a17.4 17.4 0 00-4.565-11.682 16.531 16.531 0 00-5.354-3.846 18.719 18.719 0 00-14.428 0 16.509 16.509 0 00-5.354 3.846 17.276 17.276 0 000 23.363 16.478 16.478 0 005.354 3.844 18.68 18.68 0 0014.428 0 16.5 16.5 0 005.354-3.844 17.4 17.4 0 004.565-11.682zM3.097 129.997q0 1.8 1.7 1.8h42.276q1.7 0 1.7-1.8h2.035v14.677h-2.035c-.075-.466-.266-.7-.565-.7q-.565 0-3.052 2.2l-28.715 23.963h30.632q1.7 0 1.7-2h2.035v12.182h-2.035q0-1.8-1.7-1.8H4.792q-1.7 0-1.7 1.8H1.057v-12.981h2.035c0 .465.187.7.565.7a3.427 3.427 0 001.583-.948q1.128-.953 2.6-2.147l29.845-24.761h-32.9q-1.7 0-1.7 2.1H1.05v-12.28zm-.016 81.419a1.619 1.619 0 00.393 1 1.547 1.547 0 001.29.5h37.361v-12.98a2.73 2.73 0 00-.449-1.5 1.6 1.6 0 00-1.458-.7v-1.8h12.9v1.8a2.62 2.62 0 00-2.13.7 2.325 2.325 0 00-.563 1.5v35.544a2.336 2.336 0 00.563 1.5 2.627 2.627 0 002.13.7v1.8h-12.9v-1.8a1.6 1.6 0 001.458-.7 2.743 2.743 0 00.449-1.5V222.5H4.764q-1.683 0-1.683 1.8H1.062v-12.88zm37.025 82.103q2.126 0 2.128-3.1v-24.358h-11.2v15.375a8.148 8.148 0 00.28 2.5c.185.532.691.8 1.513.8v1.8H20.952v-2c.82.2 1.326-.067 1.512-.8a13.317 13.317 0 00.28-3.094v-14.581H9.523v25.559a3.168 3.168 0 00.616 2 1.954 1.954 0 001.624.8v1.8H0v-1.8q1.011 0 1.12-.8a14.466 14.466 0 00.112-2v-36.642h2.016a1.616 1.616 0 00.392 1 1.538 1.538 0 001.288.5h41.9a1.542 1.542 0 001.288-.5 1.627 1.627 0 00.392-1h2.016v35.444q0 3.093 2.017 3.1v1.8H40.106zM3.097 315.878q0 1.8 1.7 1.8h42.276q1.7 0 1.7-1.8h2.035v14.676h-2.035c-.075-.465-.266-.7-.565-.7q-.565 0-3.052 2.2l-28.715 23.962h30.632q1.7 0 1.7-2h2.035v12.182h-2.035q0-1.8-1.7-1.8H4.792q-1.7 0-1.7 1.8H1.057v-12.982h2.035c0 .465.187.7.565.7a3.443 3.443 0 001.583-.947q1.128-.953 2.6-2.147l29.845-24.763h-32.9q-1.7 0-1.7 2.1H1.05v-12.281zm-.016 80.175a1.617 1.617 0 00.393 1 1.545 1.545 0 001.29.5h37.361v-12.981a2.731 2.731 0 00-.449-1.5 1.6 1.6 0 00-1.458-.7v-1.8h12.9v1.8a2.62 2.62 0 00-2.13.7 2.326 2.326 0 00-.563 1.5v35.546a2.337 2.337 0 00.563 1.5 2.627 2.627 0 002.13.7v1.8h-12.9v-1.8a1.6 1.6 0 001.458-.7 2.744 2.744 0 00.449-1.5v-12.98H4.764q-1.683 0-1.683 1.8H1.062v-12.88z" opacity=".3" fill="#fff"/></svg>