<svg xmlns="http://www.w3.org/2000/svg" width="85.774" height="318"><path d="M77.423 32.858a1.152 1.152 0 001.044-.557 3.869 3.869 0 00.348-1.93V9.165h-7.844v12.828a6.377 6.377 0 00.253 2.029 1.074 1.074 0 001.139.72v1.178h-9.11v-1.174q1.453 0 1.865-.72a4.129 4.129 0 00.411-2.029V9.169H53.253a.909.909 0 00-.853.556 3.062 3.062 0 00-.286 1.408h-1.139V.005h1.139q0 1.7 1.139 1.7h28.725q1.139 0 1.14-1.7h1.135v30.371a3.368 3.368 0 00.41 1.93 1.309 1.309 0 001.107.557v1.178h-8.351zm1.392 19.244h-1.139q0-1.508-.949-1.507H55.662v17.673a2.31 2.31 0 00.348 1.308 1.108 1.108 0 00.98.524v1.179h-6.643V70.1a.524.524 0 00.57-.524 11.3 11.3 0 00.062-1.308V42.61h1.139q0 1.7.95 1.7h23.659q.951 0 .949-1.7h1.139zm.38 43.875a25.129 25.129 0 01-.886 6.775 16.481 16.481 0 01-2.657 5.53 12.767 12.767 0 01-4.46 3.73 15.094 15.094 0 01-12.588 0 12.742 12.742 0 01-4.461-3.73 15.2 15.2 0 01-2.562-5.53 29.413 29.413 0 010-13.549 15.2 15.2 0 012.562-5.531 12.748 12.748 0 014.461-3.73 15.094 15.094 0 0112.588 0 12.773 12.773 0 014.46 3.73 16.476 16.476 0 012.657 5.531 25.109 25.109 0 01.886 6.774zm-4.681 0a12.9 12.9 0 00-.663-4.091 11.715 11.715 0 00-1.9-3.567 9.472 9.472 0 00-3.006-2.52 9.112 9.112 0 00-8.1 0 9.447 9.447 0 00-3 2.52 11.721 11.721 0 00-1.9 3.567 12.932 12.932 0 000 8.182 11.749 11.749 0 001.9 3.568 9.457 9.457 0 003 2.519 9.1 9.1 0 008.1 0 9.483 9.483 0 003.006-2.519 11.743 11.743 0 001.9-3.568 12.91 12.91 0 00.663-4.091zm3.162 31.365q0-.851-.885-.85a3.036 3.036 0 00-.982.261q-.664.261-1.676.655l-15.373 5.76v.131l15.056 5.563q.886.327 1.676.622a3.909 3.909 0 001.3.294c.589 0 .885-.35.885-1.047h1.139v9.359h-1.139q0-1.178-.758-1.178a3.991 3.991 0 00-1.3.327q-.854.326-1.613.655l-15.246 5.76 15.373 6.087q.886.327 1.551.557a3.526 3.526 0 001.107.229q.884 0 .885-1.047h1.139v8.313h-1.139q0-1.115-2.34-1.964l-19.3-7.526q-1.077-.392-1.929-.787a3.571 3.571 0 00-1.171-.392c-.548 0-.822.3-.822.917h-1.139v-9.164h1.139a1.065 1.065 0 00.221.654 1.139 1.139 0 00.664.131 11.36 11.36 0 001.9-.589q1.643-.59 4.143-1.538t5.6-2.061q3.1-1.115 6.263-2.16v-.131a17.524 17.524 0 01-2.056-.721q-1.487-.588-3.416-1.375t-4.049-1.668l-3.922-1.636q-1.801-.752-3.036-1.243a7.854 7.854 0 00-1.424-.491.959.959 0 00-.7.2 1.175 1.175 0 00-.19.785h-1.139v-8.051h1.139a1.468 1.468 0 00.064.459c.041.132.189.2.443.2a2.908 2.908 0 00.979-.229c.4-.153.706-.273.917-.359l21.953-8.641a1.78 1.78 0 001.2-1.374h1.139v8.312zm-4.744 74.171q1.2 0 1.2-2.03v-15.969h-6.326v10.08a6.139 6.139 0 00.158 1.635.777.777 0 00.854.524v1.179h-6.7v-1.309a.6.6 0 00.853-.524 10 10 0 00.159-2.029v-9.556h-7.465v16.756a2.305 2.305 0 00.348 1.309 1.055 1.055 0 00.917.524v1.178h-6.643v-1.178a.556.556 0 00.634-.524 11.244 11.244 0 00.062-1.309v-24.021h1.139a1.162 1.162 0 00.221.654.814.814 0 00.729.328h23.656a.815.815 0 00.727-.328 1.162 1.162 0 00.221-.654h1.139v23.23q0 2.029 1.14 2.03v1.178h-7.023zm5.883 30.905q0 5.825-1.866 9.1t-6.357 3.271a6.792 6.792 0 01-3.036-.654 7.666 7.666 0 01-2.31-1.734 9.308 9.308 0 01-1.582-2.389 13.885 13.885 0 01-.917-2.683l-9.046 6.414a3.747 3.747 0 00-1.044 1.146 5.7 5.7 0 00-.538 1.342H50.98v-10.016h1.139q0 .849.569.85a4.069 4.069 0 001.962-.981l7.465-5.172v-9.1h-9.046a.757.757 0 00-.728.426 1.768 1.768 0 00-.221.818h-1.139v-8.701h1.139q0 1.178.95 1.179h23.657q.951 0 .949-1.179h1.139zm-12.02-.131q0 6.415 3.923 6.414a2.8 2.8 0 002.5-1.538 9.879 9.879 0 00.917-4.876v-10.342h-7.341zM28.531 9.771h-1.139q0-1.507-.949-1.507H5.378v17.673a2.318 2.318 0 00.347 1.309 1.111 1.111 0 00.98.524v1.178H.063V27.77a.523.523 0 00.57-.524 11.251 11.251 0 00.062-1.309V.279h1.139q0 1.7.95 1.7h23.659q.949 0 .949-1.7h1.139zM1.835 34.643a2.005 2.005 0 00.728 1.276 6.547 6.547 0 001.107.752l20.56 9.753q.886.392 1.424.622a2.653 2.653 0 001.044.229q.38 0 .474-.164c.063-.11.136-.229.221-.36h1.139v9.883h-1.139a1.507 1.507 0 01-.19-.425c-.042-.154-.211-.229-.506-.229a2 2 0 00-.917.294c-.36.2-.77.4-1.234.622l-21.509 10.6a2.313 2.313 0 00-.821.719 3.01 3.01 0 00-.381.851H.696v-9.294h.949a1.482 1.482 0 00.19.688.716.716 0 00.7.36 1.816 1.816 0 00.7-.131c.211-.089.484-.2.822-.328l3.606-1.768V44.587l-3.416-1.833a10.325 10.325 0 00-.917-.426 1.992 1.992 0 00-.728-.163c-.337 0-.549.109-.633.328a2.6 2.6 0 00-.127.916H.703v-8.77zm10.5 21.86l10.628-5.3-10.628-4.647zm-10.5 20.836q0 1.178.95 1.178h23.658q.949 0 .949-1.178h1.139v9.621h-1.139c-.043-.3-.148-.457-.316-.457q-.318 0-1.708 1.439L9.3 103.654h17.143q.949 0 .949-1.308h1.139v7.985h-1.139q0-1.178-.949-1.177H2.784q-.951 0-.95 1.177H.695v-8.508h1.139c0 .3.106.459.316.459q.251 0 .886-.621t1.455-1.408l16.7-16.233H2.782q-.951 0-.95 1.375H.693v-8.051zm17.522 71.16l.443-.785c.422.086.653.13.7.13q.569 0 1.234-.852a9.588 9.588 0 001.234-2.225 16.692 16.692 0 00.917-3.109 17.842 17.842 0 00.348-3.5 18.92 18.92 0 00-.538-4.582 11.05 11.05 0 00-1.707-3.8 8.681 8.681 0 00-3.006-2.619 9.428 9.428 0 00-4.492-.981 8.757 8.757 0 00-4.46 1.047 8.61 8.61 0 00-2.91 2.716 11.807 11.807 0 00-1.613 3.7 16.131 16.131 0 00-.506 3.926 35.667 35.667 0 00.381 5.334 14.864 14.864 0 001.454 4.615h3.986v-6.742a2.56 2.56 0 00-.285-1.243 1.359 1.359 0 00-1.044-.655v-1.178h6.516v1.178a1.015 1.015 0 00-.822.655 3.645 3.645 0 00-.19 1.243V153.6h-1.138a1.69 1.69 0 00-.569-.786 1.842 1.842 0 00-.95-.2H6.33a1.4 1.4 0 00-.791.163 1.957 1.957 0 00-.474.818h-.759c-.253-.393-.6-1.013-1.044-1.865a21.665 21.665 0 01-1.3-3.208 29.651 29.651 0 01-1.044-4.483 35.973 35.973 0 01-.411-5.694 29.721 29.721 0 01.918-7.69 16.354 16.354 0 012.751-5.825 12.389 12.389 0 014.46-3.665 14.635 14.635 0 0111.956 0 12.689 12.689 0 014.492 3.665 16.875 16.875 0 012.847 5.825 28.038 28.038 0 01.981 7.69 20.734 20.734 0 01-.443 4.517 31.045 31.045 0 01-.948 3.4 22.076 22.076 0 01-.95 2.422 3.6 3.6 0 00-.443 1.375 2.454 2.454 0 00.095.786 2.522 2.522 0 00.411.655l-.38.784zm8.032 25.342q0-1.439-.952-1.439H11.91a5.945 5.945 0 00-4.884 2.291q-1.841 2.29-1.84 7t1.84 7a5.948 5.948 0 004.884 2.291h14.527q.954 0 .952-1.636h1.142v9.1h-1.139q0-1.441-.949-1.44H10.438a8.208 8.208 0 01-3.764-.916 9.224 9.224 0 01-3.195-2.782 14.117 14.117 0 01-2.182-4.778 29.975 29.975 0 010-13.679 14.081 14.081 0 012.182-4.778 9.208 9.208 0 013.195-2.783 8.2 8.2 0 013.764-.915h16.005a.772.772 0 00.727-.393 3.443 3.443 0 00.221-1.506h1.139v9.359zM1.835 206.252a2 2 0 00.728 1.276 6.562 6.562 0 001.107.752l20.56 9.753q.886.394 1.424.622a2.652 2.652 0 001.044.229q.38 0 .474-.163c.063-.109.136-.229.221-.36h1.139v9.883h-1.139a1.5 1.5 0 01-.19-.425c-.042-.154-.211-.229-.506-.229a2 2 0 00-.917.294c-.36.2-.77.4-1.234.622l-21.509 10.6a2.312 2.312 0 00-.821.719 3.007 3.007 0 00-.381.851H.696v-9.293h.949a1.477 1.477 0 00.19.686.715.715 0 00.7.361 1.818 1.818 0 00.7-.131c.211-.089.484-.2.822-.328l3.606-1.768v-14.006l-3.416-1.833a9.854 9.854 0 00-.917-.425 1.969 1.969 0 00-.728-.165c-.337 0-.549.108-.633.328a2.6 2.6 0 00-.127.916H.703v-8.77zm10.5 21.86l10.628-5.3-10.628-4.647zm7.022 46.363l.443-.786c.422.087.653.131.7.131q.569 0 1.234-.852a9.594 9.594 0 001.234-2.225 16.653 16.653 0 00.917-3.108 17.85 17.85 0 00.348-3.5 18.908 18.908 0 00-.538-4.582 11.056 11.056 0 00-1.707-3.8 8.676 8.676 0 00-3.006-2.618 9.428 9.428 0 00-4.492-.982 8.758 8.758 0 00-4.461 1.047 8.622 8.622 0 00-2.91 2.717 11.791 11.791 0 00-1.613 3.7A16.148 16.148 0 005 263.544a35.672 35.672 0 00.381 5.334 14.882 14.882 0 001.454 4.615h3.986v-6.743a2.562 2.562 0 00-.285-1.243 1.36 1.36 0 00-1.044-.655v-1.177h6.516v1.177a1.016 1.016 0 00-.822.655 3.649 3.649 0 00-.19 1.243v12.829h-1.138a1.689 1.689 0 00-.569-.786 1.838 1.838 0 00-.95-.2h-6.01a1.388 1.388 0 00-.791.165 1.949 1.949 0 00-.474.818h-.759q-.38-.59-1.044-1.866a21.6 21.6 0 01-1.3-3.207 29.6 29.6 0 01-1.044-4.483 35.98 35.98 0 01-.411-5.695 29.726 29.726 0 01.918-7.69 16.347 16.347 0 012.751-5.824 12.39 12.39 0 014.46-3.666 14.633 14.633 0 0111.956 0 12.69 12.69 0 014.492 3.666 16.869 16.869 0 012.847 5.824 28.042 28.042 0 01.981 7.69 20.733 20.733 0 01-.443 4.517 30.991 30.991 0 01-.948 3.4 22.079 22.079 0 01-.95 2.422 3.6 3.6 0 00-.443 1.374 2.459 2.459 0 00.095.787 2.517 2.517 0 00.411.655l-.38.785zm3.291 41.759q1.2 0 1.2-2.03v-15.97h-6.326v10.08a6.152 6.152 0 00.158 1.636.776.776 0 00.854.524v1.178h-6.706v-1.308a.605.605 0 00.854-.524 10.016 10.016 0 00.158-2.029v-9.557H5.376v16.756a2.314 2.314 0 00.347 1.309 1.058 1.058 0 00.917.524v1.178H-.002v-1.177a.557.557 0 00.634-.524 11.26 11.26 0 00.062-1.309v-24.02h1.139a1.16 1.16 0 00.221.654.813.813 0 00.729.327h23.661a.815.815 0 00.727-.327 1.162 1.162 0 00.221-.654h1.139v23.235q0 2.027 1.14 2.03v1.177h-7.023z" opacity=".3" fill="#fff"/></svg>