<svg xmlns="http://www.w3.org/2000/svg" width="257" height="23.998"><path d="M7.053 17.844c0 1.7.066 2.923.575 3.5.409.476.954.747 3.673.747 3.773 0 4.317-.169 5.88-3.67a.9.9 0 011.054.2 31.79 31.79 0 01-1.427 4.926c-1.427-.064-4.35-.1-8.159-.1H5.114c-1.734 0-3.432.036-4.859.1-.271-.136-.373-.813-.069-.985l1.021-.169c1.6-.2 1.9-.307 1.9-3.842V5.913c0-3.535-.3-3.637-1.9-3.875l-.951-.135C.018 1.732.018 1.054.322.918c1.7.066 3.23.1 4.793.1 1.5 0 3.026-.036 4.522-.1a.669.669 0 01.066.985l-.747.135c-1.6.238-1.9.34-1.9 3.875zm21.379-4.248c-.816 0-.918 0-.545-.987l1.43-3.977c.611-1.6.882-2.448 1.02-2.683h.066a15.866 15.866 0 01.951 2.683l1.427 4.079c.274.816.136.885-.816.885zm3.977 1.529c.951 0 1.054 0 1.394.918l1.6 4.622c.442 1.463.34 1.665-.882 1.8l-.747.1a.771.771 0 00.1.985c1.189-.031 2.683-.1 4.146-.1 1.767 0 3.026.036 4.42.1a.73.73 0 00-.036-.985l-.509-.1c-1.734-.3-1.9-.542-2.685-2.821l-4.9-14.241c-.542-1.532-.985-3.128-1.529-4.657a.673.673 0 00-.578-.271 5.933 5.933 0 01-2.379 1.632 5.427 5.427 0 01-.645 2.481l-4.657 12.1c-.714 1.836-1.258 3.263-1.665 4.148-.512 1.12-.885 1.427-1.87 1.563l-1.02.169a.76.76 0 00.033.985c1.189-.064 2.243-.1 3.366-.1 1.394.036 2.514.036 3.6.1.274-.136.307-.747.069-.985l-.985-.169c-1.258-.171-1.394-.271-.714-2.279l1.394-4.077c.3-.918.271-.918 1.153-.918zm37.804-8.398a.873.873 0 01-1.087.069c-.578-2.141-2.107-4.964-6.593-4.964-4.317 0-8.668 3.059-8.668 10.028 0 7.241 4.519 10.775 8.906 10.775 4.281 0 6.151-2.854 7.1-5.064a.678.678 0 011.018.136 13.209 13.209 0 01-1.632 5.166 11.7 11.7 0 00-1.189.3 20.216 20.216 0 01-5.3.818 15.489 15.489 0 01-8.7-2.279 10.7 10.7 0 01-4.829-9.348 11.085 11.085 0 014.284-9.005 15.742 15.742 0 019.381-2.89 26.128 26.128 0 015.88.747c.409.1.647.135.951.2.072.791.141 2.799.478 5.311zm8.558 11.831c0 3.6.3 3.706 1.9 3.908l.747.1c.24.238.2.849-.066.985-1.5-.064-3.026-.1-4.522-.1s-3.092.036-4.588.1c-.271-.136-.3-.747-.069-.985l.749-.1c1.6-.2 1.9-.3 1.9-3.908V5.913c0-3.6-.3-3.706-1.9-3.908l-.749-.1c-.235-.238-.2-.849.069-.985q2.244.1 4.588.1c1.5 0 3.026-.036 4.522-.1.271.135.307.747.066.985l-.747.1c-1.6.2-1.9.3-1.9 3.908zM92.883 3.872c0-1.425-.036-1.494-.918-1.494h-1.9c-3.128 0-4.046.373-5.3 3.125a.848.848 0 01-1.087-.235A55.393 55.393 0 0085.003.135a.426.426 0 01.376-.136.387.387 0 01.338.136c.171.849.647.882 2.959.882h13.867c1.665 0 2.176-.1 2.583-.882a.992.992 0 01.409-.136.549.549 0 01.442.169 23.736 23.736 0 00-.512 5.4.814.814 0 01-1.054.1c-.44-2.652-1.087-3.3-4.724-3.3h-1.939c-.882 0-.918.069-.918 1.494v14.686c0 3.6.307 3.706 1.905 3.875l1.223.135c.238.238.2.849-.069.985-1.969-.064-3.5-.1-4.995-.1s-3.092.036-5.269.1a.732.732 0 01-.069-.985l1.427-.169c1.6-.136 1.905-.238 1.905-3.841zm23.698 0c0-1.425-.036-1.494-.918-1.494h-1.9c-3.128 0-4.046.373-5.3 3.125a.851.851 0 01-1.09-.235A55.17 55.17 0 00108.7.135a.418.418 0 01.373-.136.4.4 0 01.34.136c.169.849.645.882 2.957.882h13.867c1.665 0 2.177-.1 2.583-.882a.992.992 0 01.409-.136.549.549 0 01.442.169 23.743 23.743 0 00-.512 5.4.814.814 0 01-1.054.1c-.442-2.652-1.09-3.3-4.724-3.3h-1.939c-.882 0-.918.069-.918 1.494v14.686c0 3.6.307 3.706 1.905 3.875l1.223.135c.238.238.2.849-.066.985-1.972-.064-3.5-.1-5-.1s-3.092.036-5.266.1a.732.732 0 01-.069-.985l1.43-.169c1.6-.136 1.9-.238 1.9-3.841zm18.82 9.724c-.816 0-.918 0-.545-.987l1.43-3.977c.609-1.6.882-2.448 1.018-2.683h.069a16.138 16.138 0 01.951 2.683l1.427 4.079c.274.816.136.885-.816.885zm3.977 1.529c.951 0 1.054 0 1.394.918l1.6 4.622c.44 1.463.338 1.665-.885 1.8l-.747.1a.774.774 0 00.1.985c1.189-.031 2.686-.1 4.148-.1 1.767 0 3.023.036 4.417.1a.727.727 0 00-.033-.985l-.509-.1c-1.734-.3-1.905-.542-2.685-2.821l-4.9-14.241c-.542-1.532-.985-3.128-1.529-4.657a.677.677 0 00-.578-.271 5.953 5.953 0 01-2.378 1.632 5.46 5.46 0 01-.645 2.481l-4.657 12.1c-.716 1.836-1.258 3.263-1.668 4.148-.509 1.12-.882 1.427-1.867 1.563l-1.023.169a.763.763 0 00.036.985c1.189-.064 2.243-.1 3.366-.1 1.391.036 2.514.036 3.6.1.271-.136.3-.747.066-.985l-.987-.169c-1.256-.171-1.391-.271-.714-2.279l1.394-4.077c.307-.918.274-.918 1.156-.918zm18.155-9.857c0-1.6.033-2.312.271-2.517a5.938 5.938 0 012.754-.476c5.675 0 9.586 3.264 9.586 9.992 0 5.747-2.721 10.028-8.773 10.028-3.6 0-3.839-1.767-3.839-5.067zm-3.944 13.289c0 3.6-.307 3.706-1.9 3.908l-.749.1c-.238.238-.2.849.069.985 1.5-.064 3.026-.1 4.317-.1 1.258 0 2.854.2 4.928.2a18.672 18.672 0 008.43-1.629 10.781 10.781 0 006.085-9.791A10.4 10.4 0 00167.8 2.066a22.4 22.4 0 00-8.021-1.153c-3.332 0-6.051.1-8.5.3a.689.689 0 00-.033.951l.714.069c1.6.2 1.632.611 1.632 3.875zm25.273-12.644c0-3.6-.307-3.706-1.905-3.944l-.545-.066c-.238-.238-.2-.849.069-.985 1.292.066 2.89.1 4.384.1h6.494c2.174 0 4.146-.033 4.588-.1.136.578.34 3.261.545 4.724-.136.271-.816.34-1.089.135-.542-1.972-1.054-2.821-2.141-3.095a10.06 10.06 0 00-2.719-.3h-2.279c-1.46 0-1.46.069-1.46 2.005v5.744c0 .885.033.918.816.918h1.632c2.957 0 3.535-.033 3.772-1.5l.238-1.156c.271-.238.918-.238 1.087.036-.033.916-.1 2.141-.1 3.4 0 1.292.066 2.481.1 3.568-.169.238-.816.238-1.087.033l-.238-1.358c-.238-1.427-.816-1.5-3.772-1.5h-1.632c-.783 0-.816.069-.816.918v4.315c0 1.734.069 2.959.578 3.537.409.476.987.747 3.842.747 4.317.069 5.064-.916 6.253-3.67a.8.8 0 011.087.2 21.637 21.637 0 01-1.427 4.926c-1.494-.064-4.417-.1-8.394-.1h-3.877c-1.494 0-3.568.036-5.1.1-.271-.136-.307-.747-.069-.985l1.258-.135c1.6-.169 1.905-.271 1.905-3.875zm24.052 11.931c0 1.7.069 2.923.578 3.5.407.476.951.747 3.673.747 3.773 0 4.317-.169 5.88-3.67a.9.9 0 011.054.2 32.366 32.366 0 01-1.427 4.926c-1.43-.064-4.353-.1-8.159-.1h-3.537c-1.732 0-3.43.036-4.859.1-.271-.136-.373-.813-.069-.985l1.023-.169c1.6-.2 1.9-.307 1.9-3.842V5.913c0-3.535-.307-3.637-1.9-3.875l-.954-.135c-.238-.171-.238-.849.069-.985 1.7.066 3.228.1 4.79.1 1.5 0 3.026-.036 4.522-.1a.669.669 0 01.069.985l-.747.135c-1.6.238-1.905.34-1.905 3.875zm19.75 0c0 1.7.069 2.923.578 3.5.407.476.951.747 3.67.747 3.775 0 4.317-.169 5.882-3.67a.9.9 0 011.054.2 32.075 32.075 0 01-1.427 4.926c-1.427-.064-4.35-.1-8.159-.1h-3.534c-1.734 0-3.432.036-4.862.1-.271-.136-.373-.813-.066-.985l1.021-.169c1.6-.2 1.9-.307 1.9-3.842V5.913c0-3.535-.3-3.637-1.9-3.875l-.954-.135c-.238-.171-.238-.849.069-.985 1.7.066 3.228.1 4.793.1 1.494 0 3.023-.036 4.522-.1a.671.671 0 01.066.985l-.747.135c-1.6.238-1.905.34-1.905 3.875zm20.157-4.248c-.816 0-.916 0-.542-.987l1.427-3.977c.611-1.6.882-2.448 1.02-2.683h.067a15.594 15.594 0 01.951 2.683l1.427 4.079c.274.816.138.885-.813.885zm3.977 1.529c.951 0 1.054 0 1.394.918l1.6 4.622c.442 1.463.34 1.665-.885 1.8l-.749.1a.778.778 0 00.1.985c1.189-.031 2.683-.1 4.146-.1 1.767 0 3.026.036 4.42.1a.73.73 0 00-.036-.985l-.509-.1c-1.732-.3-1.9-.542-2.686-2.821L248.7 5.403c-.547-1.532-.987-3.128-1.532-4.657a.67.67 0 00-.578-.271 5.933 5.933 0 01-2.379 1.632 5.394 5.394 0 01-.645 2.481l-4.657 12.1c-.714 1.836-1.258 3.263-1.665 4.148-.512 1.12-.885 1.427-1.87 1.563l-1.02.169a.763.763 0 00.033.985c1.192-.064 2.246-.1 3.366-.1 1.394.036 2.517.036 3.6.1.271-.136.3-.747.069-.985l-.987-.169c-1.258-.171-1.394-.271-.714-2.279l1.394-4.077c.307-.918.271-.918 1.156-.918z" fill="#fff"/></svg>