<svg xmlns="http://www.w3.org/2000/svg" width="147" height="14"><path d="M.871 3.731c-.375.269-.5.526-.309.835.26.424.5.32 1.171.384.489.046 1.105.013 1.6.022a8.3 8.3 0 01-1.428.289 2.205 2.205 0 00-.984.729c-.015.013-.484.337-.483.328-.012.1.425.394.506.511a2.393 2.393 0 01.567 1.225 2.618 2.618 0 01-.149.429q.318.173.025.326a.511.511 0 00-.2.22.7.7 0 00.5.906 16.292 16.292 0 002.3-.01 3.308 3.308 0 01-.441.432c-.246-.3-.472.026-.664.125q0-.178-.333-.258c-.426.455-1.626.707-.619 1.237.788.414 2.292.253 3.34.261 1.983.014 3.975-.007 5.958-.015l5.779-.024a10.054 10.054 0 011.687-.015c.621.177.182.44 1.072.516.54.046 1.224 0 1.772.007a3.23 3.23 0 01-.436.426c-.247-.3-.471.027-.663.126q0-.179-.333-.26c-.4.423-1.518.64-.75 1.157.73.491 2.2.338 3.283.336 1.865 0 3.732.026 5.6 0a497.76 497.76 0 0111.2-.017c7.513.072 15.056-.013 22.572-.024 14.972-.023 30 .111 44.964-.079 4.2-.054 8.444-.06 12.641-.019 2.083.02 4.424.111 6.479-.037.874-.063 2.57-.279 2.722-.777.063-.208-.287-.7-.395-.9-.239-.457-.311-.421-1.377-.469.6-.491 1.5-.289 1.033-.926a1.747 1.747 0 00-.47-.473 2.03 2.03 0 00-.5-.321c3.888.155 7.861.224 11.762.277a46.207 46.207 0 005.912.033c1-.124 2.191-.281 2.215-.828a2.193 2.193 0 00-.32-.937c-.283-.315-.624-.292-1.384-.326.282-.229 1.1-.261 1.275-.524.142-.219-.242-.52-.413-.718a4.225 4.225 0 00-2.049-1.132 2.283 2.283 0 00.568-.515 1.177 1.177 0 00.13-.338 2.036 2.036 0 00.569-.083c.449-.234.846-.075.634-.508-.151-.31-.16-.2-.869-.36-.4-.089-.769-.32-1.148-.383-.2-.033-1.04.044-1.256.041-.678-.011-1.437-.028-2.164-.053-2.974-.1-6.1-.293-9.109-.258-1.479.017-3.1-.011-4.6-.077-1.429-.063-2.984-.046-4.421-.144s-3-.094-4.421-.144a14.165 14.165 0 01-2.164-.053 2.04 2.04 0 01-.676-.188c-.42-.178-.32-.438-1.031-.5.353-.2.38-.394.616-.609.559-.507-.134-.066.43-.275.171-.063.841-.128.917-.183a1.674 1.674 0 01-.061-.377c-.159-.331.278-.027-.442-.281a10.709 10.709 0 00-1.858-.43c-.748-.068-1.87-.037-2.606-.032-1.08.008-2.126 0-3.172.032-3.9.124-7.9.032-11.841.032-7.717 0-15.552-.063-23.27-.064-7.93 0-15.751.006-23.68.064-1.867.013-3.861.035-5.779 0s-3.933.044-5.857-.032c-3.832-.152-7.812.04-11.635-.032-2.169-.04-4.381 0-6.5 0-2.189 0-4.37-.015-6.5 0-2.279.016-4.543-.04-6.784.032-1.079.034-2.171-.03-3.251 0C2.235.079-.616.748.834 1.146c-1.555-.4-.5.92-.37 1.1.177.245.468.519.48.74.021.277-.458.449-.073.745z" fill="#fed438" fill-rule="evenodd"/></svg>