<?xml version="1.0" encoding="utf-8"?>
<!-- Generator: Adobe Illustrator 26.0.2, SVG Export Plug-In . SVG Version: 6.00 Build 0)  -->
<svg version="1.1" id="レイヤー_1" xmlns="http://www.w3.org/2000/svg" xmlns:xlink="http://www.w3.org/1999/xlink" x="0px"
	 y="0px" viewBox="0 0 157.5 71.1" style="enable-background:new 0 0 157.5 71.1;" xml:space="preserve">
<style type="text/css">
	.st0{fill:none;}
	.st1{enable-background:new    ;}
	.st2{fill:#FBE18A;}
	.st3{fill:none;stroke:#FBE18A;stroke-miterlimit:10;}
</style>
<path class="st0" d="M0,0"/>
<g class="st1">
	<path class="st2" d="M86.6,3.3c6.3,0,11.4,2.9,15.1,8.6s5.6,13.5,5.6,23.4c0,10-1.8,17.8-5.5,23.6c-3.7,5.8-8.7,8.6-15,8.6
		c-6.4,0-11.5-2.9-15.3-8.6c-3.7-5.7-5.6-13.5-5.6-23.5c0-9.9,1.9-17.7,5.6-23.5C75.1,6.2,80.2,3.3,86.6,3.3z M77.5,35.8
		c0,14.3,3.1,21.4,9.2,21.4c6,0,9-7.5,9-22.6c0-14.1-3-21.1-9-21.1C80.5,13.6,77.5,21,77.5,35.8z"/>
	<path class="st2" d="M150.3,4.1v10.6h-19.8v13.5l1.2-0.1h0.9c3.8,0,7.3,0.8,10.4,2.5c3.1,1.7,5.5,4,7.3,7s2.6,6.3,2.6,10.1
		c0,5.9-2,10.7-5.9,14.4c-4,3.7-9.2,5.5-15.6,5.5c-5.7,0-10.8-1.2-15.2-3.5V53.5c4.7,2.9,9.1,4.3,13.4,4.3c3.3,0,6.1-0.9,8.4-2.8
		c2.2-1.9,3.4-4.2,3.4-7.1c0-3.2-1.3-5.7-3.9-7.5c-2.6-1.8-6.1-2.7-10.5-2.7c-2.1,0-4.4,0.3-6.9,0.8V4.1H150.3z"/>
</g>
<g class="st1">
	<path class="st3" d="M86.6,3.3c6.3,0,11.4,2.9,15.1,8.6s5.6,13.5,5.6,23.4c0,10-1.8,17.8-5.5,23.6s-8.7,8.6-15,8.6
		c-6.4,0-11.5-2.9-15.3-8.6c-3.7-5.7-5.6-13.5-5.6-23.5c0-9.9,1.9-17.7,5.6-23.5C75.1,6.2,80.2,3.3,86.6,3.3z M77.5,35.8
		c0,14.3,3.1,21.4,9.2,21.4c6,0,9-7.5,9-22.6c0-14.1-3-21.1-9-21.1C80.5,13.6,77.5,21,77.5,35.8z"/>
	<path class="st3" d="M150.3,4.1v10.6h-19.8v13.5l1.2-0.1h0.9c3.8,0,7.3,0.8,10.4,2.5c3.1,1.7,5.5,4,7.3,7s2.6,6.3,2.6,10.1
		c0,5.9-2,10.7-5.9,14.4c-4,3.7-9.2,5.5-15.6,5.5c-5.7,0-10.8-1.2-15.2-3.5V53.5c4.7,2.9,9.1,4.3,13.4,4.3c3.3,0,6.1-0.9,8.4-2.8
		c2.2-1.9,3.4-4.2,3.4-7.1c0-3.2-1.3-5.7-3.9-7.5c-2.6-1.8-6.1-2.7-10.5-2.7c-2.1,0-4.4,0.3-6.9,0.8V4.1H150.3z"/>
</g>
<text transform="matrix(1 0 0 1 62.3147 153.6729)" class="st3" style="font-family:'GillSans-SemiBold'; font-size:91.7115px;">05</text>
</svg>
