<?xml version="1.0" encoding="utf-8"?>
<!-- Generator: Adobe Illustrator 26.0.2, SVG Export Plug-In . SVG Version: 6.00 Build 0)  -->
<svg version="1.1" id="レイヤー_1" xmlns="http://www.w3.org/2000/svg" xmlns:xlink="http://www.w3.org/1999/xlink" x="0px"
	 y="0px" viewBox="0 0 156.3 69.6" style="enable-background:new 0 0 156.3 69.6;" xml:space="preserve">
<style type="text/css">
	.st0{fill:none;}
	.st1{enable-background:new    ;}
	.st2{fill:#FBE18A;}
	.st3{fill:none;stroke:#FBE18A;stroke-miterlimit:10;}
</style>
<path class="st0" d="M0,0"/>
<g class="st1">
	<path class="st2" d="M87.6,3.3c6.3,0,11.4,2.9,15.1,8.6s5.6,13.5,5.6,23.4c0,10-1.8,17.8-5.5,23.6c-3.7,5.8-8.7,8.6-15,8.6
		c-6.4,0-11.5-2.9-15.3-8.6c-3.7-5.7-5.6-13.5-5.6-23.5c0-9.9,1.9-17.7,5.6-23.5C76.1,6.2,81.2,3.3,87.6,3.3z M78.5,35.8
		c0,14.3,3.1,21.4,9.2,21.4c6,0,9-7.5,9-22.6c0-14.1-3-21.1-9-21.1C81.5,13.6,78.5,21,78.5,35.8z"/>
	<path class="st2" d="M132.1,3.3c5.8,0,10.5,1.4,14,4.3c3.6,2.9,5.3,6.7,5.3,11.4c0,6.4-2.9,11.2-8.7,14.3c3.3,1.2,5.9,3.1,7.6,5.8
		c1.7,2.7,2.6,5.9,2.6,9.7c0,5.6-1.9,10-5.8,13.5c-3.9,3.4-9,5.1-15.3,5.1c-5,0-9.8-1.2-14.4-3.5v-11c2.5,1.7,4.9,2.9,7,3.7
		c2.1,0.8,4.3,1.1,6.5,1.1c2.9,0,5.3-0.8,7.2-2.5c1.9-1.7,2.8-3.8,2.8-6.5c0-2.9-1-5.3-3.1-7c-2.1-1.7-4.9-2.6-8.5-2.6h-0.7v-9.7
		h0.5c3.3,0,6-0.7,7.8-2.2s2.8-3.5,2.8-6c0-2.5-0.9-4.5-2.7-6c-1.8-1.5-4.2-2.3-7-2.3c-3.5,0-7.2,0.9-11.1,2.8V6
		C122.8,4.2,127.2,3.3,132.1,3.3z"/>
</g>
<g class="st1">
	<path class="st3" d="M87.6,3.3c6.3,0,11.4,2.9,15.1,8.6s5.6,13.5,5.6,23.4c0,10-1.8,17.8-5.5,23.6s-8.7,8.6-15,8.6
		c-6.4,0-11.5-2.9-15.3-8.6c-3.7-5.7-5.6-13.5-5.6-23.5c0-9.9,1.9-17.7,5.6-23.5C76.1,6.2,81.2,3.3,87.6,3.3z M78.5,35.8
		c0,14.3,3.1,21.4,9.2,21.4c6,0,9-7.5,9-22.6c0-14.1-3-21.1-9-21.1C81.5,13.6,78.5,21,78.5,35.8z"/>
	<path class="st3" d="M132.1,3.3c5.8,0,10.5,1.4,14,4.3c3.6,2.9,5.3,6.7,5.3,11.4c0,6.4-2.9,11.2-8.7,14.3c3.3,1.2,5.9,3.1,7.6,5.8
		c1.7,2.7,2.6,5.9,2.6,9.7c0,5.6-1.9,10-5.8,13.5c-3.9,3.4-9,5.1-15.3,5.1c-5,0-9.8-1.2-14.4-3.5v-11c2.5,1.7,4.9,2.9,7,3.7
		s4.3,1.1,6.5,1.1c2.9,0,5.3-0.8,7.2-2.5s2.8-3.8,2.8-6.5c0-2.9-1-5.3-3.1-7s-4.9-2.6-8.5-2.6h-0.7v-9.7h0.5c3.3,0,6-0.7,7.8-2.2
		s2.8-3.5,2.8-6s-0.9-4.5-2.7-6s-4.2-2.3-7-2.3c-3.5,0-7.2,0.9-11.1,2.8V6C122.8,4.2,127.2,3.3,132.1,3.3z"/>
</g>
<text transform="matrix(1 0 0 1 63.3147 156.6729)" class="st3" style="font-family:'GillSans-SemiBold'; font-size:91.7115px;">03</text>
</svg>
