<?xml version="1.0" encoding="utf-8"?>
<!-- Generator: Adobe Illustrator 26.0.2, SVG Export Plug-In . SVG Version: 6.00 Build 0)  -->
<svg version="1.1" id="レイヤー_1" xmlns="http://www.w3.org/2000/svg" xmlns:xlink="http://www.w3.org/1999/xlink" x="0px"
	 y="0px" viewBox="0 0 125 69.6" style="enable-background:new 0 0 125 69.6;" xml:space="preserve">
<style type="text/css">
	.st0{fill:none;}
	.st1{enable-background:new    ;}
	.st2{fill:#FBE18A;}
	.st3{fill:none;stroke:#FBE18A;stroke-miterlimit:10;}
</style>
<path class="st0" d="M0,0"/>
<g class="st1">
	<path class="st2" d="M66.6,3.3c6.3,0,11.4,2.9,15.1,8.6s5.6,13.5,5.6,23.4c0,10-1.8,17.8-5.5,23.6c-3.7,5.8-8.7,8.6-15,8.6
		c-6.4,0-11.5-2.9-15.3-8.6c-3.7-5.7-5.6-13.5-5.6-23.5c0-9.9,1.9-17.7,5.6-23.5C55.1,6.2,60.2,3.3,66.6,3.3z M57.5,35.8
		c0,14.3,3.1,21.4,9.2,21.4c6,0,9-7.5,9-22.6c0-14.1-3-21.1-9-21.1C60.5,13.6,57.5,21,57.5,35.8z"/>
	<path class="st2" d="M120.6,4.1v62.6h-11.5V4.1H120.6z"/>
</g>
<g class="st1">
	<path class="st3" d="M66.6,3.3c6.3,0,11.4,2.9,15.1,8.6s5.6,13.5,5.6,23.4c0,10-1.8,17.8-5.5,23.6s-8.7,8.6-15,8.6
		c-6.4,0-11.5-2.9-15.3-8.6c-3.7-5.7-5.6-13.5-5.6-23.5c0-9.9,1.9-17.7,5.6-23.5C55.1,6.2,60.2,3.3,66.6,3.3z M57.5,35.8
		c0,14.3,3.1,21.4,9.2,21.4c6,0,9-7.5,9-22.6c0-14.1-3-21.1-9-21.1C60.5,13.6,57.5,21,57.5,35.8z"/>
	<path class="st3" d="M120.6,4.1v62.6h-11.5V4.1H120.6z"/>
</g>
<text transform="matrix(1 0 0 1 42.3147 168.6729)" class="st3" style="font-family:'GillSans-SemiBold'; font-size:91.7115px;">01</text>
</svg>
