<?xml version="1.0" encoding="utf-8"?>
<!-- Generator: Adobe Illustrator 26.0.2, SVG Export Plug-In . SVG Version: 6.00 Build 0)  -->
<svg version="1.1" id="レイヤー_1" xmlns="http://www.w3.org/2000/svg" xmlns:xlink="http://www.w3.org/1999/xlink" x="0px"
	 y="0px" viewBox="0 0 157.1 69.5" style="enable-background:new 0 0 157.1 69.5;" xml:space="preserve">
<style type="text/css">
	.st0{fill:none;}
	.st1{enable-background:new    ;}
	.st2{fill:#FBE18A;}
	.st3{fill:none;stroke:#FBE18A;stroke-miterlimit:10;}
</style>
<path class="st0" d="M0,0"/>
<g class="st1">
	<path class="st2" d="M86.6,3.3c6.3,0,11.4,2.9,15.1,8.6s5.6,13.5,5.6,23.4c0,10-1.8,17.8-5.5,23.6c-3.7,5.8-8.7,8.6-15,8.6
		c-6.4,0-11.5-2.9-15.3-8.6c-3.7-5.7-5.6-13.5-5.6-23.5c0-9.9,1.9-17.7,5.6-23.5C75.1,6.2,80.2,3.3,86.6,3.3z M77.5,35.8
		c0,14.3,3.1,21.4,9.2,21.4c6,0,9-7.5,9-22.6c0-14.1-3-21.1-9-21.1C80.5,13.6,77.5,21,77.5,35.8z"/>
	<path class="st2" d="M150.4,3.3c-3.3,2.8-7,6.9-11.1,12.3c-4,5.4-6.9,10.2-8.7,14.3c2.3-1,4.7-1.5,7.2-1.5c3.2,0,6.2,0.8,8.8,2.4
		c2.6,1.6,4.7,3.9,6.2,6.8c1.5,2.9,2.2,6.1,2.2,9.6c0,3.7-0.9,7.1-2.6,10.3c-1.7,3.1-4.1,5.5-7.2,7.3c-3,1.8-6.4,2.7-9.9,2.7
		c-6.1,0-11-2.1-14.8-6.2c-3.8-4.1-5.7-9.4-5.7-16c0-6.5,2-13.5,5.9-21c3.9-7.5,9.3-14.5,16.1-21H150.4z M126.4,47.2
		c0,2.9,0.8,5.3,2.4,7.2c1.6,1.9,3.7,2.8,6.3,2.8c2.5,0,4.5-0.9,6.1-2.7c1.6-1.8,2.3-4.1,2.3-7.1c0-2.7-0.8-5-2.4-6.8
		c-1.6-1.8-3.7-2.7-6.2-2.7c-2.4,0-4.5,0.9-6.1,2.7C127.2,42.4,126.4,44.6,126.4,47.2z"/>
</g>
<g class="st1">
	<path class="st3" d="M86.6,3.3c6.3,0,11.4,2.9,15.1,8.6s5.6,13.5,5.6,23.4c0,10-1.8,17.8-5.5,23.6s-8.7,8.6-15,8.6
		c-6.4,0-11.5-2.9-15.3-8.6c-3.7-5.7-5.6-13.5-5.6-23.5c0-9.9,1.9-17.7,5.6-23.5C75.1,6.2,80.2,3.3,86.6,3.3z M77.5,35.8
		c0,14.3,3.1,21.4,9.2,21.4c6,0,9-7.5,9-22.6c0-14.1-3-21.1-9-21.1C80.5,13.6,77.5,21,77.5,35.8z"/>
	<path class="st3" d="M150.4,3.3c-3.3,2.8-7,6.9-11.1,12.3c-4,5.4-6.9,10.2-8.7,14.3c2.3-1,4.7-1.5,7.2-1.5c3.2,0,6.2,0.8,8.8,2.4
		s4.7,3.9,6.2,6.8s2.2,6.1,2.2,9.6c0,3.7-0.9,7.1-2.6,10.3c-1.7,3.1-4.1,5.5-7.2,7.3c-3,1.8-6.4,2.7-9.9,2.7c-6.1,0-11-2.1-14.8-6.2
		s-5.7-9.4-5.7-16c0-6.5,2-13.5,5.9-21s9.3-14.5,16.1-21C136.8,3.3,150.4,3.3,150.4,3.3z M126.4,47.2c0,2.9,0.8,5.3,2.4,7.2
		c1.6,1.9,3.7,2.8,6.3,2.8c2.5,0,4.5-0.9,6.1-2.7s2.3-4.1,2.3-7.1c0-2.7-0.8-5-2.4-6.8c-1.6-1.8-3.7-2.7-6.2-2.7
		c-2.4,0-4.5,0.9-6.1,2.7C127.2,42.4,126.4,44.6,126.4,47.2z"/>
</g>
<text transform="matrix(1 0 0 1 62.3147 149.6729)" class="st3" style="font-family:'GillSans-SemiBold'; font-size:91.7115px;">06</text>
</svg>
