<?xml version="1.0" encoding="utf-8"?>
<!-- Generator: Adobe Illustrator 26.0.2, SVG Export Plug-In . SVG Version: 6.00 Build 0)  -->
<svg version="1.1" id="レイヤー_1" xmlns="http://www.w3.org/2000/svg" xmlns:xlink="http://www.w3.org/1999/xlink" x="0px"
	 y="0px" viewBox="0 0 156.2 70.8" style="enable-background:new 0 0 156.2 70.8;" xml:space="preserve">
<style type="text/css">
	.st0{fill:none;}
	.st1{enable-background:new    ;}
	.st2{fill:#FBE18A;}
	.st3{fill:none;stroke:#FBE18A;stroke-miterlimit:10;}
</style>
<path class="st0" d="M0,0"/>
<g class="st1">
	<path class="st2" d="M86.6,3.3c6.3,0,11.4,2.9,15.1,8.6s5.6,13.5,5.6,23.4c0,10-1.8,17.8-5.5,23.6c-3.7,5.8-8.7,8.6-15,8.6
		c-6.4,0-11.5-2.9-15.3-8.6c-3.7-5.7-5.6-13.5-5.6-23.5c0-9.9,1.9-17.7,5.6-23.5C75.1,6.2,80.2,3.3,86.6,3.3z M77.5,35.8
		c0,14.3,3.1,21.4,9.2,21.4c6,0,9-7.5,9-22.6c0-14.1-3-21.1-9-21.1C80.5,13.6,77.5,21,77.5,35.8z"/>
	<path class="st2" d="M131.8,3.3c5.9,0,10.7,1.7,14.2,5.1c3.5,3.4,5.3,7.9,5.3,13.5c0,4.3-1.3,9-3.9,14s-7.2,11.7-13.8,19.9H155
		v10.8h-40.5v-1.3c4.7-5.8,8.8-11.1,12.2-15.7c3.4-4.6,6-8.5,7.9-11.6c1.9-3.1,3.2-5.7,3.9-7.8s1.2-4.4,1.2-6.7
		c0-2.9-0.9-5.3-2.8-7.2c-1.8-2-4.1-2.9-6.7-2.9c-4.7,0-9.6,2.7-14.7,8.1V9.3C120.8,5.3,126.3,3.3,131.8,3.3z"/>
</g>
<g class="st1">
	<path class="st3" d="M86.6,3.3c6.3,0,11.4,2.9,15.1,8.6s5.6,13.5,5.6,23.4c0,10-1.8,17.8-5.5,23.6s-8.7,8.6-15,8.6
		c-6.4,0-11.5-2.9-15.3-8.6c-3.7-5.7-5.6-13.5-5.6-23.5c0-9.9,1.9-17.7,5.6-23.5C75.1,6.2,80.2,3.3,86.6,3.3z M77.5,35.8
		c0,14.3,3.1,21.4,9.2,21.4c6,0,9-7.5,9-22.6c0-14.1-3-21.1-9-21.1C80.5,13.6,77.5,21,77.5,35.8z"/>
	<path class="st3" d="M131.8,3.3c5.9,0,10.7,1.7,14.2,5.1s5.3,7.9,5.3,13.5c0,4.3-1.3,9-3.9,14s-7.2,11.7-13.8,19.9H155v10.8h-40.5
		v-1.3c4.7-5.8,8.8-11.1,12.2-15.7s6-8.5,7.9-11.6c1.9-3.1,3.2-5.7,3.9-7.8s1.2-4.4,1.2-6.7c0-2.9-0.9-5.3-2.8-7.2
		c-1.8-2-4.1-2.9-6.7-2.9c-4.7,0-9.6,2.7-14.7,8.1V9.3C120.8,5.3,126.3,3.3,131.8,3.3z"/>
</g>
<text transform="matrix(1 0 0 1 62.3147 157.6729)" class="st3" style="font-family:'GillSans-SemiBold'; font-size:91.7115px;">02</text>
</svg>
