<svg xmlns="http://www.w3.org/2000/svg" width="437" height="37"><path d="M40.18 31.813a1.338 1.338 0 00-1.05-.485c-.235 0-.712.3-1.436.905a19.472 19.472 0 01-3.08 1.993 23.8 23.8 0 01-5.074 1.931 28.694 28.694 0 01-7.49.844 27.591 27.591 0 01-8.96-1.384 19.959 19.959 0 01-6.965-3.976 18.191 18.191 0 01-4.516-6.156A18.649 18.649 0 010 17.705a15.5 15.5 0 011.505-6.708 17.1 17.1 0 014.34-5.636 21.506 21.506 0 016.859-3.907A26.586 26.586 0 0121.769.002 29.817 29.817 0 0128 .59a43.091 43.091 0 014.76 1.279q2.028.692 3.325 1.28a5.421 5.421 0 001.784.588q.56 0 .7-.173c.093-.115.21-.266.351-.449l.84.552-4.34 7.4-.91-.415a1.213 1.213 0 00.349-.9q0-.553-1.05-1.418a12.315 12.315 0 00-2.87-1.661 25.8 25.8 0 00-4.269-1.382 22.458 22.458 0 00-5.25-.589 20.853 20.853 0 00-5.636.794 15.055 15.055 0 00-5.04 2.449A12.487 12.487 0 005.739 18.36a11.529 11.529 0 001.436 5.692 14.564 14.564 0 003.814 4.45 18.216 18.216 0 005.426 2.9 19.338 19.338 0 006.265 1.034 15.7 15.7 0 004.794-.726 19.6 19.6 0 004.026-1.763 13.685 13.685 0 002.8-2.11 2.933 2.933 0 001.049-1.763 1.305 1.305 0 00-.349-.968l.909-.553 5.181 6.639zM63.558 5.57a20.129 20.129 0 017.315 1.26 17.291 17.291 0 015.565 3.394 14.532 14.532 0 013.536 5.006 16.113 16.113 0 010 12.32 14.488 14.488 0 01-3.536 5 15.894 15.894 0 01-5.565 3.29 23.724 23.724 0 01-14.63 0 15.891 15.891 0 01-5.564-3.29 14.462 14.462 0 01-3.536-5 16.1 16.1 0 010-12.32 14.506 14.506 0 013.536-5.006 17.287 17.287 0 015.564-3.394 20.127 20.127 0 017.315-1.26zm0 3.92a15.3 15.3 0 00-5.424.91 11.885 11.885 0 00-4.1 2.52 11.168 11.168 0 00-2.59 3.78 11.839 11.839 0 00-.91 4.62 12.006 12.006 0 00.91 4.689 11.152 11.152 0 002.59 3.781 12.3 12.3 0 004.1 2.554 16.027 16.027 0 0010.849 0 12.292 12.292 0 004.095-2.554 11.151 11.151 0 002.59-3.781 12 12 0 00.91-4.689 11.837 11.837 0 00-.91-4.62 11.166 11.166 0 00-2.59-3.78 11.88 11.88 0 00-4.095-2.52 15.312 15.312 0 00-5.425-.91zm53.178 26.46a2.165 2.165 0 001.505-.385 2.3 2.3 0 00.385-1.575V12.009h-.14l-12.67 23.311-12.671-23.311h-.139V33.99a2.294 2.294 0 00.384 1.575 2.161 2.161 0 001.505.385v.84h-7.7v-.84a2.163 2.163 0 001.505-.385 2.3 2.3 0 00.385-1.575V8.79a2.3 2.3 0 00-.385-1.575 2.168 2.168 0 00-1.505-.385v-.84h9.38v.84q-1.68 0-1.681.769a3.678 3.678 0 00.421.91l10.5 19.111 10.5-19.111a3.694 3.694 0 00.42-.91q0-.768-1.681-.769v-.84h9.521v.84a1.648 1.648 0 00-1.295.385 2.683 2.683 0 00-.316 1.575v25.2a2.681 2.681 0 00.316 1.575 1.645 1.645 0 001.295.385v.84h-7.84zm17.878 0q1.119 0 1.435-.385a2.684 2.684 0 00.315-1.575V8.79a2.686 2.686 0 00-.315-1.575q-.315-.384-1.435-.385v-.84h7.84v.84q-1.121 0-1.435.385a2.686 2.686 0 00-.315 1.575v25.2a2.684 2.684 0 00.315 1.575q.315.385 1.435.385v.84h-7.84zm17.823 0a2.158 2.158 0 001.5-.385 2.3 2.3 0 00.385-1.575V8.79a2.3 2.3 0 00-.385-1.575 2.163 2.163 0 00-1.5-.385v-.84h10.219v.84a4.219 4.219 0 00-1.505.175q-.384.176-.384.455a3.8 3.8 0 00.769 1.19l18.97 21.77V8.79a2.3 2.3 0 00-.385-1.575 2.168 2.168 0 00-1.505-.385v-.84h7.7v.84a2.16 2.16 0 00-1.5.385 2.3 2.3 0 00-.385 1.575v25.2a2.293 2.293 0 00.385 1.575 2.155 2.155 0 001.5.385v.84h-9.379v-.84a5.416 5.416 0 001.679-.141.5.5 0 00.281-.489.816.816 0 00-.246-.6q-.246-.243-.594-.665l-19.811-22.609v22.54a2.293 2.293 0 00.385 1.575 2.164 2.164 0 001.506.385v.84h-7.7zm69.607-20.79a3.873 3.873 0 00.14-.771c0-.232-.27-.617-.8-1.154a10.181 10.181 0 00-2.38-1.645 18.88 18.88 0 00-3.886-1.47 20.285 20.285 0 00-5.319-.63 14.6 14.6 0 00-5.25.91 11.664 11.664 0 00-6.755 6.545 12.905 12.905 0 00-.945 5.005 11.084 11.084 0 00.875 4.375 10.045 10.045 0 002.59 3.6 12.517 12.517 0 004.339 2.451 18.688 18.688 0 006.125.91 19.179 19.179 0 002.415-.175q1.367-.174 2.8-.49a18.173 18.173 0 002.7-.8 7.494 7.494 0 002.1-1.19v-4.2h-6.369a1.409 1.409 0 00-1.75 1.681h-.841v-6.721h.841a1.031 1.031 0 00.35.806 2.193 2.193 0 001.4.314h11.97v.84a1.5 1.5 0 00-.771.386 1.378 1.378 0 00-.21.875v4.69a1.11 1.11 0 00.981 1.19v.7a17.081 17.081 0 01-3.641 2.765 22.724 22.724 0 01-4.165 1.854 21.505 21.505 0 01-4.305.946 36.939 36.939 0 01-4.129.245 25.76 25.76 0 01-7.14-.946 14.947 14.947 0 01-5.67-2.974 14.315 14.315 0 01-3.745-5.005 16.2 16.2 0 01-1.365-6.825 14.187 14.187 0 011.19-5.6 15.852 15.852 0 013.43-5.04 17.213 17.213 0 015.564-3.641 19.447 19.447 0 017.6-1.4 22.415 22.415 0 015.354.595 29.942 29.942 0 014.2 1.33 27.189 27.189 0 012.905 1.365 4.594 4.594 0 001.4.63.7.7 0 00.561-.175 3.7 3.7 0 01.279-.315l.841.349-2.66 6.16zm38.011 10.705a2.271 2.271 0 00-.21.9 2.807 2.807 0 001.225 2.007 12.908 12.908 0 003.22 1.9 24.584 24.584 0 004.515 1.419 23.716 23.716 0 005.11.553q6.649 0 9.625-1.937a5.767 5.767 0 002.975-4.979 3.9 3.9 0 00-.735-2.422 4.666 4.666 0 00-2.03-1.487 12.022 12.022 0 00-3.01-.725 30.486 30.486 0 00-3.675-.208q-3.22 0-6.825-.035a24.722 24.722 0 01-6.615-.9 11.047 11.047 0 01-4.97-2.87q-1.961-2.005-1.96-5.948a7.822 7.822 0 011.4-4.53 12.073 12.073 0 013.815-3.493 20.967 20.967 0 015.7-2.283 29.188 29.188 0 017.14-.829 28.654 28.654 0 015.215.414 37.711 37.711 0 013.815.9q1.609.485 2.66.9a4.975 4.975 0 001.75.415 1.806 1.806 0 001.12-.278 8.229 8.229 0 00.7-.621l.84.346-3.85 7.953-.77-.484a3.573 3.573 0 00.07-.9q0-.485-.84-1.176a9.961 9.961 0 00-2.38-1.349 19.794 19.794 0 00-3.675-1.107 22.627 22.627 0 00-4.655-.45 19 19 0 00-8.995 1.8q-3.326 1.8-3.325 4.7a2.982 2.982 0 00.735 2.108 4.869 4.869 0 002.03 1.246 12.138 12.138 0 003.01.588q1.715.139 3.675.138 3.289 0 6.86.1a23.63 23.63 0 016.58 1.072 11.275 11.275 0 014.97 3.111q1.959 2.146 1.96 6.294a8.512 8.512 0 01-1.155 4.253 11.1 11.1 0 01-3.465 3.631 18.2 18.2 0 01-5.705 2.49 30.914 30.914 0 01-7.875.9 31.955 31.955 0 01-6.545-.588 28.337 28.337 0 01-4.725-1.383q-1.961-.8-3.22-1.452a4.737 4.737 0 00-2.03-.657 2.118 2.118 0 00-1.47.83l-.7-.415 3.78-7.953zM315.731 5.57a20.127 20.127 0 017.314 1.26 17.3 17.3 0 015.566 3.394 14.531 14.531 0 013.535 5.006 16.113 16.113 0 010 12.32 14.487 14.487 0 01-3.535 5 15.9 15.9 0 01-5.566 3.29 23.724 23.724 0 01-14.63 0 15.889 15.889 0 01-5.564-3.29 14.447 14.447 0 01-3.535-5 16.089 16.089 0 010-12.32 14.491 14.491 0 013.535-5.006 17.285 17.285 0 015.564-3.394 20.134 20.134 0 017.316-1.26zm0 3.92a15.3 15.3 0 00-5.425.91 11.894 11.894 0 00-4.1 2.52 11.168 11.168 0 00-2.59 3.78 11.839 11.839 0 00-.91 4.62 12.006 12.006 0 00.91 4.689 11.153 11.153 0 002.59 3.781 12.306 12.306 0 004.1 2.554 16.029 16.029 0 0010.85 0 12.3 12.3 0 004.094-2.554 11.139 11.139 0 002.59-3.781 11.988 11.988 0 00.91-4.689 11.822 11.822 0 00-.91-4.62 11.154 11.154 0 00-2.59-3.78 11.885 11.885 0 00-4.094-2.52 15.315 15.315 0 00-5.425-.91zm39.86-3.92a20.132 20.132 0 017.315 1.26 17.287 17.287 0 015.564 3.394 14.519 14.519 0 013.536 5.006 16.1 16.1 0 010 12.32 14.475 14.475 0 01-3.536 5 15.891 15.891 0 01-5.564 3.29 23.724 23.724 0 01-14.63 0 15.894 15.894 0 01-5.565-3.29 14.46 14.46 0 01-3.535-5 16.1 16.1 0 010-12.32 14.5 14.5 0 013.535-5.006 17.291 17.291 0 015.565-3.394 20.129 20.129 0 017.315-1.26zm0 3.92a15.307 15.307 0 00-5.425.91 11.88 11.88 0 00-4.095 2.52 11.152 11.152 0 00-2.59 3.78 11.82 11.82 0 00-.91 4.62 11.986 11.986 0 00.91 4.689 11.137 11.137 0 002.59 3.781 12.292 12.292 0 004.095 2.554 16.029 16.029 0 0010.85 0 12.3 12.3 0 004.1-2.554 11.166 11.166 0 002.59-3.781 12.023 12.023 0 00.91-4.689 11.857 11.857 0 00-.91-4.62 11.181 11.181 0 00-2.59-3.78 11.89 11.89 0 00-4.1-2.52 15.315 15.315 0 00-5.425-.91zm24.99 26.46a2.163 2.163 0 001.505-.385 2.3 2.3 0 00.384-1.575V8.79a2.3 2.3 0 00-.384-1.575 2.168 2.168 0 00-1.505-.385v-.84h10.22v.84a4.212 4.212 0 00-1.505.175q-.385.176-.385.455a3.819 3.819 0 00.769 1.19l18.97 21.77V8.79a2.3 2.3 0 00-.385-1.575 2.164 2.164 0 00-1.505-.385v-.84h7.7v.84a2.164 2.164 0 00-1.505.385 2.3 2.3 0 00-.385 1.575v25.2a2.293 2.293 0 00.385 1.575 2.159 2.159 0 001.505.385v.84h-9.38v-.84a5.415 5.415 0 001.679-.141.5.5 0 00.281-.489.815.815 0 00-.245-.6 9.145 9.145 0 01-.595-.665l-19.811-22.609v22.54a2.293 2.293 0 00.385 1.575 2.164 2.164 0 001.506.385v.84h-7.7zm48.72-10.5q1.538 0 1.539-1.659c0-.277-.012-.553-.035-.83s-.059-.576-.1-.9l-1.33-19.015a2.821 2.821 0 00-.42-1.452 1.512 1.512 0 00-.91-.347v-.83h8.96v.83a1.509 1.509 0 00-.91.347 2.8 2.8 0 00-.42 1.452l-1.33 19.015c-.047.323-.082.621-.105.9s-.035.552-.035.83q0 1.659 1.54 1.659v.831h-6.439zm-.281 8.16a3.316 3.316 0 011.015-2.455 3.581 3.581 0 014.97 0 3.319 3.319 0 011.015 2.455 2.994 2.994 0 01-1.015 2.351 3.884 3.884 0 01-4.97 0 2.99 2.99 0 01-1.015-2.351z" fill="#fff"/></svg>