<svg xmlns="http://www.w3.org/2000/svg" width="628" height="221.006"><path d="M34.136 3.719l22.979 66.147h.267L80.759 3.719h33.206v1.859h-12.22v90.854h12.22v1.859H70.397v-1.859h12.084V5.578h-.266L49.54 98.291h-2.125L14.607 5.578h-.266v90.854h12.22v1.859H-.001v-1.859h12.22V5.578H-.001V3.719z" fill="#fff"/><path d="M34.136 3.719l22.979 66.147h.267L80.759 3.719h33.206v1.859h-12.22v90.854h12.22v1.859H70.397v-1.859h12.084V5.578h-.266L49.54 98.291h-2.125L14.607 5.578h-.266v90.854h12.22v1.859H-.001v-1.859h12.22V5.578H-.001V3.719z" fill="none"/><path d="M177.891 3.719v1.859h-12.217v90.854h12.22v1.859h-43.7v-1.859h12.22V5.578h-12.22V3.719z" fill="#fff"/><path d="M177.891 3.719v1.859h-12.217v90.854h12.22v1.859h-43.7v-1.859h12.22V5.578h-12.22V3.719z" fill="none"/><path d="M232.291 3.719l22.979 66.147h.266l23.377-66.147h33.207v1.859h-12.221v90.854h12.221v1.859h-43.567v-1.859h12.087V5.578h-.266l-32.675 92.713h-2.125L212.766 5.578h-.266v90.854h12.22v1.859h-26.565v-1.859h12.22V5.578h-12.22V3.719z" fill="#fff"/><path d="M232.291 3.719l22.979 66.147h.266l23.377-66.147h33.207v1.859h-12.221v90.854h12.221v1.859h-43.567v-1.859h12.087V5.578h-.266l-32.675 92.713h-2.125L212.766 5.578h-.266v90.854h12.22v1.859h-26.565v-1.859h12.22V5.578h-12.22V3.719z" fill="none"/><path d="M332.02 30.815a52.855 52.855 0 0111.752-15.67 52.5 52.5 0 0116.073-10.028 47.162 47.162 0 0117.4-3.52 50.108 50.108 0 0118.131 3.454 50.089 50.089 0 0115.94 9.829 49.388 49.388 0 0111.289 15.465 47.32 47.32 0 014.318 20.522 45.44 45.44 0 01-4.053 18.928 52.179 52.179 0 01-10.892 15.739 51.613 51.613 0 01-15.8 10.693 46.765 46.765 0 01-18.928 3.918 48.29 48.29 0 01-18.861-3.785 51.252 51.252 0 01-15.869-10.355 50.816 50.816 0 01-10.958-15.475 45.27 45.27 0 01-4.117-19.26 45.1 45.1 0 014.575-20.455m18.662 43.368q1.593 9.1 4.982 14.478a18.122 18.122 0 008.766 7.5 34.812 34.812 0 0012.818 2.126q9.828 0 15.408-3.653a22.346 22.346 0 008.367-10.1 48.43 48.43 0 003.52-15.275q.73-8.829.732-19.193 0-9.3-.6-17.732a45.338 45.338 0 00-3.388-14.877 23.048 23.048 0 00-8.435-10.227q-5.645-3.786-15.606-3.786-9.3 0-14.877 3.52a22.435 22.435 0 00-8.5 9.9 48.55 48.55 0 00-3.849 15.147 183.514 183.514 0 00-.93 19.259 136.754 136.754 0 001.594 22.913" fill="#fff"/><path d="M332.02 30.815a52.855 52.855 0 0111.752-15.67 52.5 52.5 0 0116.073-10.028 47.162 47.162 0 0117.4-3.52 50.108 50.108 0 0118.131 3.454 50.089 50.089 0 0115.94 9.829 49.388 49.388 0 0111.289 15.465 47.32 47.32 0 014.318 20.522 45.44 45.44 0 01-4.053 18.928 52.179 52.179 0 01-10.892 15.739 51.613 51.613 0 01-15.8 10.693 46.765 46.765 0 01-18.928 3.918 48.29 48.29 0 01-18.861-3.785 51.252 51.252 0 01-15.869-10.355 50.816 50.816 0 01-10.958-15.475 45.27 45.27 0 01-4.117-19.26 45.111 45.111 0 014.575-20.455zm18.662 43.368q1.593 9.1 4.982 14.478a18.122 18.122 0 008.766 7.5 34.812 34.812 0 0012.818 2.126q9.828 0 15.408-3.653a22.346 22.346 0 008.367-10.1 48.43 48.43 0 003.52-15.275q.729-8.829.732-19.193 0-9.3-.6-17.732a45.312 45.312 0 00-3.387-14.877 23.048 23.048 0 00-8.435-10.227q-5.646-3.786-15.606-3.786-9.3 0-14.877 3.52a22.435 22.435 0 00-8.5 9.9 48.55 48.55 0 00-3.853 15.142 183.514 183.514 0 00-.93 19.259 136.661 136.661 0 001.595 22.914z" fill="none"/><path d="M448.102 68.803q.269 1.594.93 4.184a40.048 40.048 0 001.925 5.579 45.056 45.056 0 003.19 6.11 28.822 28.822 0 004.715 5.778 27.439 27.439 0 005.91 4.649 25.345 25.345 0 005.447 2.325 20.172 20.172 0 004.914.8q2.325.069 4.316.068a26.494 26.494 0 0011.557-2.193 20.481 20.481 0 007.106-5.379 19.612 19.612 0 003.652-6.708 21.686 21.686 0 001.062-6.176 13.409 13.409 0 00-2.324-8.1 18.666 18.666 0 00-6.176-5.313 44.466 44.466 0 00-8.767-3.586q-4.914-1.461-10.094-2.989a96.864 96.864 0 01-10.1-3.586 33.524 33.524 0 01-8.765-5.313 24.2 24.2 0 01-6.178-8.036 27.241 27.241 0 01-2.323-11.954 23.114 23.114 0 012.39-10.228 27.955 27.955 0 016.643-8.7 33.574 33.574 0 0110.159-6.11 34.721 34.721 0 0112.82-2.325 33.286 33.286 0 017.7.8q3.32.8 5.845 1.66t4.45 1.661a9.29 9.29 0 003.519.8 3.594 3.594 0 002.458-.6 7.19 7.19 0 001.263-2.191h2.125v25.237h-1.729q-1.594-4.647-3.386-9.165a34.249 34.249 0 00-4.582-8.169 21.327 21.327 0 00-7.041-5.911 22.825 22.825 0 00-10.758-2.259 27.547 27.547 0 00-9.365 1.463 21.672 21.672 0 00-6.84 3.851 17.047 17.047 0 00-4.25 5.313 13.2 13.2 0 00-1.461 5.977 11.89 11.89 0 002.456 7.7 21.248 21.248 0 006.441 5.247 49.317 49.317 0 009.1 3.785q5.112 1.594 10.492 3.321t10.494 3.785a36.008 36.008 0 019.1 5.247 25.2 25.2 0 016.443 7.7 23.108 23.108 0 012.457 11.158 29.515 29.515 0 01-2.656 12.352 30.914 30.914 0 01-7.506 10.228 36.739 36.739 0 01-11.555 6.973 41.178 41.178 0 01-14.943 2.59 42.112 42.112 0 01-8.168-.8q-4.055-.8-7.572-1.66t-6.242-1.66a16.144 16.144 0 00-4.053-.8 4.521 4.521 0 00-2.656.6 5.315 5.315 0 00-1.461 2.458h-2.125V68.802z" fill="#fff"/><path d="M448.102 68.803q.269 1.594.93 4.184a40.048 40.048 0 001.925 5.579 45.056 45.056 0 003.19 6.11 28.822 28.822 0 004.715 5.778 27.439 27.439 0 005.91 4.649 25.345 25.345 0 005.447 2.325 20.172 20.172 0 004.914.8q2.325.069 4.316.068a26.494 26.494 0 0011.557-2.193 20.481 20.481 0 007.106-5.379 19.612 19.612 0 003.652-6.708 21.686 21.686 0 001.062-6.176 13.409 13.409 0 00-2.324-8.1 18.666 18.666 0 00-6.176-5.313 44.466 44.466 0 00-8.767-3.586q-4.914-1.461-10.094-2.989a96.864 96.864 0 01-10.1-3.586 33.524 33.524 0 01-8.765-5.313 24.2 24.2 0 01-6.178-8.036 27.241 27.241 0 01-2.323-11.954 23.114 23.114 0 012.39-10.228 27.955 27.955 0 016.643-8.7 33.574 33.574 0 0110.159-6.11 34.721 34.721 0 0112.82-2.325 33.286 33.286 0 017.7.8q3.32.8 5.845 1.66t4.45 1.661a9.29 9.29 0 003.519.8 3.594 3.594 0 002.458-.6 7.19 7.19 0 001.263-2.191h2.125v25.237h-1.729q-1.594-4.647-3.386-9.165a34.249 34.249 0 00-4.582-8.169 21.327 21.327 0 00-7.041-5.911 22.825 22.825 0 00-10.758-2.259 27.547 27.547 0 00-9.365 1.463 21.672 21.672 0 00-6.84 3.851 17.047 17.047 0 00-4.25 5.313 13.2 13.2 0 00-1.461 5.977 11.89 11.89 0 002.456 7.7 21.248 21.248 0 006.441 5.247 49.317 49.317 0 009.1 3.785q5.112 1.594 10.492 3.321t10.494 3.785a36.008 36.008 0 019.1 5.247 25.2 25.2 0 016.443 7.7 23.108 23.108 0 012.457 11.158 29.515 29.515 0 01-2.656 12.352 30.914 30.914 0 01-7.506 10.228 36.739 36.739 0 01-11.555 6.973 41.178 41.178 0 01-14.943 2.59 42.112 42.112 0 01-8.168-.8q-4.055-.8-7.572-1.66t-6.242-1.66a16.144 16.144 0 00-4.053-.8 4.521 4.521 0 00-2.656.6 5.315 5.315 0 00-1.461 2.458h-2.125V68.802z" fill="none"/><path d="M531.569 96.432L571.152 0h3.588l41.839 96.432H628v1.859h-44.631v-1.859h12.354l-15.408-35.6h-31.877l-14.742 35.6h11.82v1.859h-25.1v-1.859zm17.533-37.457h30.552L563.98 22.712z" fill="#fff"/><path d="M531.569 96.432L571.152 0h3.588l41.839 96.432H628v1.859h-44.631v-1.859h12.354l-15.408-35.6h-31.877l-14.742 35.6h11.82v1.859h-25.1v-1.859zm17.533-37.457h30.552L563.98 22.712z" fill="none"/><path d="M86.199 146.741a2.056 2.056 0 00-.752-1.882 4.9 4.9 0 00-2.918-.753H62.477v19.2a2.623 2.623 0 00.471 1.647 2.148 2.148 0 001.789.612v1.13H52.31v-1.13a2.152 2.152 0 001.789-.612 2.636 2.636 0 00.471-1.647v-42.739a2.647 2.647 0 00-.471-1.648 2.158 2.158 0 00-1.789-.611v-1.13h40.479a6.965 6.965 0 003.107-.424 1.6 1.6 0 00.659-1.459h1.13v10.732h-1.13a2.519 2.519 0 00-.753-1.93 4.387 4.387 0 00-2.918-.706H62.477v14.5h19.958a6.96 6.96 0 003.106-.424 1.6 1.6 0 00.658-1.459h1.13v10.731zm26.266-26.174a2.647 2.647 0 00-.471-1.648 2.159 2.159 0 00-1.789-.611v-1.13h39.445a6.963 6.963 0 003.106-.424 1.6 1.6 0 00.658-1.459h1.13v10.732h-1.13a2.519 2.519 0 00-.753-1.93 4.383 4.383 0 00-2.918-.706h-29.371v14.874h19.111a5.978 5.978 0 002.776-.565 2.123 2.123 0 001.083-2.071h1.13v11.391h-1.13a2.2 2.2 0 00-.848-1.977 5.292 5.292 0 00-2.824-.565h-19.3v16h31.443a4.874 4.874 0 002.918-.706 2.934 2.934 0 00.941-2.495h1.13v11.2h-1.13q0-1.788-3.295-1.788h-42.174v-1.13a2.153 2.153 0 001.789-.612 2.636 2.636 0 00.471-1.647zm64.101 31.258a3.148 3.148 0 00-.282 1.224 3.828 3.828 0 001.648 2.73 17.323 17.323 0 004.331 2.589 32.741 32.741 0 006.071 1.929 31.528 31.528 0 006.872.753q8.943 0 12.944-2.635t4-6.778a5.344 5.344 0 00-.988-3.295 6.267 6.267 0 00-2.73-2.024 15.947 15.947 0 00-4.048-.988 40.639 40.639 0 00-4.943-.283q-4.331 0-9.178-.047a32.851 32.851 0 01-8.9-1.224 14.808 14.808 0 01-6.684-3.907q-2.636-2.728-2.636-8.095a10.74 10.74 0 011.883-6.166 16.3 16.3 0 015.13-4.754 28 28 0 017.672-3.107 38.752 38.752 0 019.6-1.13 38.041 38.041 0 017.014.565 50.2 50.2 0 015.129 1.224q2.166.66 3.578 1.223a6.61 6.61 0 002.353.565 2.421 2.421 0 001.507-.376 11.547 11.547 0 00.941-.847l1.129.471-5.177 10.825-1.036-.658a4.9 4.9 0 00.1-1.225q0-.657-1.13-1.6a13.4 13.4 0 00-3.2-1.836 26.648 26.648 0 00-4.942-1.506 30.115 30.115 0 00-6.26-.612q-7.626 0-12.1 2.448t-4.472 6.4a4.089 4.089 0 00.989 2.871 6.525 6.525 0 002.73 1.695 16.171 16.171 0 004.048.8q2.306.189 4.942.188 4.425 0 9.226.141a31.5 31.5 0 018.849 1.459 15.139 15.139 0 016.683 4.236q2.636 2.919 2.636 8.567a11.7 11.7 0 01-1.553 5.789 15.043 15.043 0 01-4.66 4.942 24.3 24.3 0 01-7.672 3.389 41.066 41.066 0 01-10.591 1.224 42.415 42.415 0 01-8.8-.8 37.508 37.508 0 01-6.355-1.883q-2.637-1.08-4.33-1.977a6.345 6.345 0 00-2.73-.894 2.841 2.841 0 00-1.977 1.13l-.941-.565 5.083-10.826zm72.341 13.742a2.153 2.153 0 001.789-.612 2.642 2.642 0 00.471-1.647v-39.915h-15.816a4.671 4.671 0 00-2.542.518 2.183 2.183 0 00-.753 1.93h-1.13v-11.109h1.13q0 2.45 3.3 2.448h39.538q3.3 0 3.3-2.448h1.122v11.109h-1.129a2.186 2.186 0 00-.754-1.93 4.672 4.672 0 00-2.541-.518h-15.818v39.915a2.623 2.623 0 00.471 1.647 2.147 2.147 0 001.788.612v1.13h-12.426zm49.09-4.517q-.378.847-.848 1.883a4.26 4.26 0 00-.471 1.6c0 .691.532 1.035 1.6 1.035v1.13H286.7v-1.13a4.572 4.572 0 00.988-.094 1.455 1.455 0 00.8-.565 8.816 8.816 0 00.847-1.365q.471-.894 1.224-2.4l17.039-38.032 1.13-2.4a3.254 3.254 0 00.377-1.271q0-1.131-1.695-1.13v-1.13h13.744v1.13q-1.506 0-1.506 1.13a3.337 3.337 0 00.471 1.458q.469.9 1.223 2.495l18.075 37.467q.847 1.7 1.318 2.636a6.465 6.465 0 00.894 1.412 1.648 1.648 0 00.895.565 7.069 7.069 0 001.317.094v1.13h-13.085v-1.13a2.4 2.4 0 001.506-.329 1.247 1.247 0 00.377-.989 2.406 2.406 0 00-.235-.988q-.236-.516-.988-2.213l-3.578-7.53h-26.641zm26.64-13.744l-10.638-22.216-9.79 22.216zm56.786 19.861a19.208 19.208 0 012.448-10.026 24.756 24.756 0 016.166-6.967 42.809 42.809 0 018.049-4.9q4.327-2.022 8.048-4.048a29.522 29.522 0 006.167-4.33 7.625 7.625 0 002.447-5.79 7.815 7.815 0 00-2.73-6.448q-2.731-2.211-7.813-2.212a16.818 16.818 0 00-6.637 1.224 19.334 19.334 0 00-4.754 2.777 13.071 13.071 0 00-2.824 3.059 3.908 3.908 0 00-.848 2.071 3.559 3.559 0 00.142 1.036c.094.315.2.628.329.941l-.941.753-7.437-9.79.941-.659c.188.126.471.329.847.612a1.721 1.721 0 00.942.423 3.783 3.783 0 002.4-1.317 26.035 26.035 0 013.719-2.871 27.491 27.491 0 015.93-2.825 27.348 27.348 0 019.037-1.271q8 0 12.427 3.86t4.424 10.637a12.065 12.065 0 01-2.118 7.2 20.749 20.749 0 01-5.318 5.131 45.32 45.32 0 01-7.014 3.859q-3.812 1.7-7.2 3.484a32.442 32.442 0 00-5.884 3.906 8.743 8.743 0 00-3.06 5.225h30.594a2.547 2.547 0 001.883-.518 2.571 2.571 0 00.471-1.741h1.129v10.637h-1.129a1.477 1.477 0 00-.471-1.224 3.246 3.246 0 00-1.883-.376h-36.714q-2.354 0-2.636 1.6h-1.129zm105.666-25.226a28.038 28.038 0 01-1.741 9.978 23.333 23.333 0 01-4.989 8 21.841 21.841 0 01-7.955 5.225 29.393 29.393 0 01-10.732 1.835 29.385 29.385 0 01-10.732-1.835 21.82 21.82 0 01-7.954-5.225 23.3 23.3 0 01-4.989-8 27.973 27.973 0 01-1.743-9.978 27.982 27.982 0 011.743-9.979 23.322 23.322 0 014.989-8 23.4 23.4 0 017.954-5.366 27.5 27.5 0 0110.732-1.977 27.5 27.5 0 0110.732 1.977 23.426 23.426 0 017.955 5.366 23.352 23.352 0 014.989 8 28.047 28.047 0 011.741 9.979zm-7.719 0q0-8.943-4.33-14.215t-13.368-5.272q-9.038 0-13.368 5.272t-4.33 14.215q0 8.943 4.33 14.214t13.368 5.272q9.038 0 13.368-5.272t4.33-14.214zm17.905 25.226a19.218 19.218 0 012.448-10.026 24.771 24.771 0 016.166-6.967 42.874 42.874 0 018.049-4.9q4.329-2.022 8.049-4.048a29.514 29.514 0 006.166-4.33 7.622 7.622 0 002.447-5.79 7.817 7.817 0 00-2.729-6.448q-2.731-2.211-7.814-2.212a16.816 16.816 0 00-6.636 1.224 19.334 19.334 0 00-4.754 2.777 13.071 13.071 0 00-2.824 3.059 3.9 3.9 0 00-.848 2.071 3.594 3.594 0 00.141 1.036c.094.315.2.628.33.941l-.942.753-7.436-9.79.941-.659c.188.126.471.329.847.612a1.718 1.718 0 00.941.423 3.784 3.784 0 002.4-1.317 26.077 26.077 0 013.718-2.871 27.5 27.5 0 015.931-2.825 27.344 27.344 0 019.037-1.271q8 0 12.427 3.86t4.424 10.637a12.059 12.059 0 01-2.119 7.2 20.733 20.733 0 01-5.318 5.131 45.32 45.32 0 01-7.014 3.859q-3.812 1.7-7.2 3.484a32.512 32.512 0 00-5.884 3.906 8.742 8.742 0 00-3.059 5.225h30.6a2.543 2.543 0 001.882-.518 2.566 2.566 0 00.471-1.741h1.13v10.637h-1.13a1.474 1.474 0 00-.471-1.224 3.24 3.24 0 00-1.882-.376h-36.719q-2.355 0-2.636 1.6h-1.13zm65.994.808a2.1 2.1 0 001.789-.643 2.869 2.869 0 00.471-1.73v-37.165a13.352 13.352 0 00-1.507.1 5.719 5.719 0 00-1.552.4 2.913 2.913 0 00-1.177.889 2.3 2.3 0 00-.471 1.483h-1.13v-10.082h1.13q0 1.878 1.224 1.878a6.388 6.388 0 002.729-.791 2.363 2.363 0 001.6-2.075q0-1.876-2.165-1.879v-1.186h11.108v1.186a1.73 1.73 0 00-1.506.544 3.563 3.563 0 00-.377 1.927v44.777a2.862 2.862 0 00.471 1.73 2.093 2.093 0 001.788.643v1.186h-12.425zm-420.45 52.434a10.15 10.15 0 011.292-5.294 13.078 13.078 0 013.257-3.678 22.6 22.6 0 014.25-2.586q2.286-1.068 4.251-2.137a15.623 15.623 0 003.256-2.287 4.025 4.025 0 001.292-3.057 4.127 4.127 0 00-1.441-3.406 6.415 6.415 0 00-4.127-1.168 8.871 8.871 0 00-3.5.646 10.205 10.205 0 00-2.514 1.467 6.906 6.906 0 00-1.491 1.616 2.056 2.056 0 00-.448 1.093 1.884 1.884 0 00.075.547q.074.25.174.5l-.5.4-3.928-5.17.5-.348c.1.067.249.174.448.324a.9.9 0 00.5.223 1.994 1.994 0 001.267-.7 13.867 13.867 0 011.964-1.516 14.59 14.59 0 013.132-1.492 14.453 14.453 0 014.772-.671 9.67 9.67 0 016.563 2.039 7.063 7.063 0 012.336 5.618 6.366 6.366 0 01-1.119 3.8 10.938 10.938 0 01-2.808 2.709 24 24 0 01-3.7 2.039q-2.013.894-3.8 1.839a17.163 17.163 0 00-3.107 2.063 4.615 4.615 0 00-1.616 2.759h16.156a1.342 1.342 0 00.995-.274 1.358 1.358 0 00.248-.919h.6v5.618h-.6a.783.783 0 00-.248-.646 1.715 1.715 0 00-.995-.2h-19.388q-1.244 0-1.392.845h-.6zm28.768-2.535a2.4 2.4 0 01.721-1.764 2.4 2.4 0 011.764-.721 2.4 2.4 0 011.765.721 2.4 2.4 0 01.72 1.764 2.162 2.162 0 01-.72 1.69 2.549 2.549 0 01-1.765.646 2.547 2.547 0 01-1.764-.646 2.163 2.163 0 01-.721-1.69zm11.029 1.69a1.133 1.133 0 00.944-.324 1.389 1.389 0 00.249-.87v-18.692a7.541 7.541 0 00-.8.049 3.165 3.165 0 00-.82.2 1.543 1.543 0 00-.622.447 1.126 1.126 0 00-.248.746h-.6v-5.071h.6q0 .944.646.945a3.5 3.5 0 001.441-.4q.846-.4.845-1.044 0-.944-1.143-.945v-.6h5.866v.6a.936.936 0 00-.8.274 1.726 1.726 0 00-.2.969v22.52a1.389 1.389 0 00.248.87 1.133 1.133 0 00.945.324v.6h-6.561zm13.061-16.555a1.318 1.318 0 001.043-.522 4.187 4.187 0 00.249-1.814v-4.823a1.35 1.35 0 00-.274-.995 1.358 1.358 0 00-.919-.248v-.6h19.835a1.344 1.344 0 00.995-.274 1.354 1.354 0 00.249-.919h.6v6.015h-.6a1.465 1.465 0 00-.249-.945 1.271 1.271 0 00-.995-.3h-14.964v5.816a13.532 13.532 0 013.828-1.267 21.6 21.6 0 013.53-.324 14.594 14.594 0 014.574.671 10.593 10.593 0 013.48 1.865 8.133 8.133 0 012.212 2.834 8.309 8.309 0 01.771 3.579 8.81 8.81 0 01-2.932 6.96q-2.936 2.585-9.049 2.585a18.536 18.536 0 01-4.3-.447 17.155 17.155 0 01-3.157-1.044 17.177 17.177 0 01-2.063-1.094 2.611 2.611 0 00-1.069-.5.944.944 0 00-.8.4l-.547-.347 3.43-4.972.448.4a2.173 2.173 0 00-.2.895 1.643 1.643 0 00.571.995 5.992 5.992 0 001.69 1.142 13.705 13.705 0 002.734.946 15.806 15.806 0 003.753.4 8.6 8.6 0 005.344-1.566 5.362 5.362 0 002.063-4.549 4.881 4.881 0 00-1.939-4.051 8 8 0 00-5.071-1.516 11.71 11.71 0 00-4.7.771q-1.714.771-1.715 1.417a1.265 1.265 0 00.3.547l-.546.547-5.618-5.171zm35.942 4.683c0 4.721 1.776 8.565 5.78 12.118a.35.35 0 01.08.265.439.439 0 01-.451.477.347.347 0 01-.212-.08c-4.455-3.394-6.657-7.742-6.657-12.781s2.281-9.439 6.682-12.781a.352.352 0 01.186-.08.477.477 0 01.451.5.352.352 0 01-.08.266c-4.002 3.558-5.779 7.377-5.779 12.096zm7.386 6.921a.683.683 0 00.556-.172.732.732 0 00.133-.464V201.94a.7.7 0 00-.146-.464.776.776 0 00-.6-.172v-.318h4.482v.318q-.61 0-.611.345a.455.455 0 00.106.291l4.322 8.485 4.48-8.485a1.268 1.268 0 01.067-.159.356.356 0 00.039-.159.269.269 0 00-.145-.226 1.039 1.039 0 00-.517-.093v-.318h4.746v.318a.774.774 0 00-.6.172.692.692 0 00-.146.464v12.037a.688.688 0 00.146.464.77.77 0 00.6.172v.319h-3.711v-.319a.774.774 0 00.6-.172.7.7 0 00.146-.464v-10.473l-.08-.054-5.647 11.216-5.648-11.216-.026.054v10.473a.634.634 0 00.106.464.6.6 0 00.5.172v.319h-3.155zm27.719-13.787a10.474 10.474 0 013.181.464 7.242 7.242 0 012.532 1.38 6.275 6.275 0 011.67 2.24 7.351 7.351 0 01.6 3.049 7.353 7.353 0 01-.6 3.05 6.16 6.16 0 01-1.67 2.227 7.019 7.019 0 01-2.532 1.339 11.009 11.009 0 01-3.181.438 11 11 0 01-3.181-.438 7.012 7.012 0 01-2.532-1.339 6.172 6.172 0 01-1.671-2.227 7.366 7.366 0 01-.6-3.05 7.365 7.365 0 01.6-3.049 6.287 6.287 0 011.671-2.24 7.235 7.235 0 012.532-1.38 10.466 10.466 0 013.181-.464zm0 1.8a5.779 5.779 0 00-4.175 1.422 5.156 5.156 0 00-1.472 3.9 5.156 5.156 0 001.472 3.9 5.779 5.779 0 004.176 1.414 5.782 5.782 0 004.176-1.414 5.155 5.155 0 001.471-3.9 5.155 5.155 0 00-1.471-3.9 5.782 5.782 0 00-4.177-1.419zm23.554 8.806v-9.492a.741.741 0 00-.132-.464.609.609 0 00-.5-.172v-.318h3.183v.318a.607.607 0 00-.5.172.736.736 0 00-.132.464v12.037a.732.732 0 00.132.464.6.6 0 00.5.172v.319h-3.398v-.319q.53 0 .53-.211a.446.446 0 00-.105-.3 1.873 1.873 0 01-.16-.2l-9.439-10.738v10.818a.742.742 0 00.132.464.607.607 0 00.5.172v.319h-3.181v-.319a.607.607 0 00.5-.172.742.742 0 00.133-.464v-12.037a.747.747 0 00-.133-.464.61.61 0 00-.5-.172v-.318h4.48v.318a.834.834 0 00-.4.066.246.246 0 00-.106.225.3.3 0 00.067.172 1.235 1.235 0 00.145.172l8.325 9.492zm5.159-16.096a.478.478 0 01.451-.5.342.342 0 01.185.08c4.4 3.341 6.683 7.742 6.683 12.781s-2.2 9.387-6.656 12.781a.349.349 0 01-.212.08.439.439 0 01-.451-.477.354.354 0 01.08-.265c4-3.553 5.781-7.4 5.781-12.118s-1.776-8.538-5.781-12.091a.356.356 0 01-.08-.271zm16.214 9.178h14.715v3.4h-14.715zm31.747 7.895v.7q0 .348.745 1.069a8.769 8.769 0 002.114 1.417 18.352 18.352 0 003.282 1.243 15.244 15.244 0 004.2.547q3.677 0 5.344-1.516a4.875 4.875 0 001.665-3.753 3.816 3.816 0 00-1.939-3.53 12.085 12.085 0 00-5.964-1.143 12.476 12.476 0 00-1.791.1 3.86 3.86 0 00-.969.249.935.935 0 00-.448.373 1.6 1.6 0 00-.174.522h-.6v-5.668h.6a2.563 2.563 0 00.15.6.876.876 0 00.4.423 2.413 2.413 0 00.895.248 13.89 13.89 0 001.64.075 11.838 11.838 0 004.449-.721 2.751 2.751 0 001.765-2.808 3.35 3.35 0 00-1.64-2.958 7.921 7.921 0 00-4.375-1.069 10.666 10.666 0 00-3.057.422 12.329 12.329 0 00-2.486 1.019 6.44 6.44 0 00-1.69 1.292 1.993 1.993 0 00-.622 1.244 1.67 1.67 0 00.4.844l-.5.5-4.125-4.772.5-.5c.1.1.206.2.323.3a.7.7 0 00.473.149 2.379 2.379 0 001.119-.572 14.584 14.584 0 012.113-1.243 18.88 18.88 0 013.281-1.218 17.4 17.4 0 014.673-.547 15.446 15.446 0 013.8.448 9.662 9.662 0 013.083 1.342 6.756 6.756 0 012.063 2.163 5.629 5.629 0 01.745 2.908 5.77 5.77 0 01-.844 3.406 5.11 5.11 0 01-2.486 1.764v.1a8.037 8.037 0 013.728 2.187 6.143 6.143 0 011.293 4.225 6.878 6.878 0 01-3.007 5.891q-3.01 2.162-8.875 2.162a18.254 18.254 0 01-4.077-.422 19.815 19.815 0 01-3.206-.994q-1.369-.572-2.287-1.044a3.488 3.488 0 00-1.318-.472 1.485 1.485 0 00-.895.547l-.448-.3 2.487-5.529zm24.946 5.465a2.4 2.4 0 01.721-1.764 2.4 2.4 0 011.764-.721 2.4 2.4 0 011.765.721 2.4 2.4 0 01.72 1.764 2.165 2.165 0 01-.72 1.69 2.549 2.549 0 01-1.765.646 2.547 2.547 0 01-1.764-.646 2.163 2.163 0 01-.721-1.69zm9.478-25.056a1.35 1.35 0 00.249.919 1.344 1.344 0 00.995.274H399.1a1.343 1.343 0 00.994-.274 1.354 1.354 0 00.248-.919h.6v4.077l-11.683 21.327a2.02 2.02 0 01-.223.422.8.8 0 00-.124.472q0 .447.895.448v.6h-6.91v-.6a1.7 1.7 0 001.318-.423 8.388 8.388 0 00.919-1.417l10.887-20.134h-16.955a1.271 1.271 0 00-.995.3 1.46 1.46 0 00-.249.945h-.6v-6.015zm34.609 14.874c0 4.721 1.777 8.565 5.781 12.118a.354.354 0 01.08.265.439.439 0 01-.451.477.349.349 0 01-.212-.08c-4.455-3.394-6.656-7.742-6.656-12.781s2.28-9.439 6.681-12.781a.351.351 0 01.187-.08.478.478 0 01.451.5.356.356 0 01-.08.266c-4.004 3.558-5.781 7.377-5.781 12.096zm8.418 3.051a.866.866 0 00-.08.344 1.077 1.077 0 00.464.769 4.856 4.856 0 001.22.729 9.166 9.166 0 001.71.544 8.866 8.866 0 001.936.212 6.829 6.829 0 003.645-.742 2.213 2.213 0 001.126-1.909 1.508 1.508 0 00-.278-.928 1.764 1.764 0 00-.769-.569 4.492 4.492 0 00-1.14-.279 11.4 11.4 0 00-1.392-.08q-1.221 0-2.585-.014a9.253 9.253 0 01-2.505-.344 4.176 4.176 0 01-1.882-1.1 3.161 3.161 0 01-.742-2.281 3.026 3.026 0 01.529-1.736 4.621 4.621 0 011.445-1.339 7.9 7.9 0 012.161-.875 10.9 10.9 0 012.7-.318 10.668 10.668 0 011.975.16 14.058 14.058 0 011.446.344q.609.186 1.007.345a1.86 1.86 0 00.662.159.678.678 0 00.425-.106 3.191 3.191 0 00.265-.238l.318.132-1.458 3.049-.291-.185a1.372 1.372 0 00.026-.345q0-.186-.318-.451a3.8 3.8 0 00-.9-.516 7.419 7.419 0 00-1.392-.425 8.472 8.472 0 00-1.763-.172 7.121 7.121 0 00-3.407.69 2.043 2.043 0 00-1.259 1.8 1.15 1.15 0 00.279.809 1.834 1.834 0 00.769.477 4.534 4.534 0 001.14.225q.649.054 1.391.054 1.246 0 2.6.039a8.9 8.9 0 012.492.411 4.264 4.264 0 011.882 1.194 3.486 3.486 0 01.742 2.412 3.291 3.291 0 01-.437 1.631 4.233 4.233 0 01-1.312 1.391 6.845 6.845 0 01-2.161.955 11.6 11.6 0 01-2.983.345 11.9 11.9 0 01-2.479-.226 10.571 10.571 0 01-1.79-.53q-.743-.3-1.219-.556a1.786 1.786 0 00-.77-.252.8.8 0 00-.556.318l-.266-.159 1.432-3.049zm15.576-8.803a.741.741 0 00-.132-.464.609.609 0 00-.5-.172v-.318h3.5v.318a.605.605 0 00-.5.172.736.736 0 00-.133.464v8.485a2.234 2.234 0 001.128 2.134 7.094 7.094 0 003.353.624 7.1 7.1 0 003.354-.624 2.235 2.235 0 001.123-2.139v-8.485a.741.741 0 00-.133-.464.607.607 0 00-.5-.172v-.318h3.5v.318a.6.6 0 00-.5.172.736.736 0 00-.133.464v7.9a6.247 6.247 0 01-.464 2.6 3.771 3.771 0 01-1.325 1.59 5.146 5.146 0 01-2.108.783 17.936 17.936 0 01-2.81.2 17.955 17.955 0 01-2.811-.2 5.151 5.151 0 01-2.108-.783 3.777 3.777 0 01-1.325-1.59 6.246 6.246 0 01-.465-2.6zm30.216 9.492v-9.492a.747.747 0 00-.132-.464.609.609 0 00-.5-.172v-.318h3.182v.318a.605.605 0 00-.5.172.736.736 0 00-.133.464v12.037a.732.732 0 00.133.464.6.6 0 00.5.172v.319h-3.394v-.319c.353 0 .53-.07.53-.211a.446.446 0 00-.105-.3 1.769 1.769 0 01-.16-.2l-9.439-10.738v10.818a.742.742 0 00.132.464.606.606 0 00.5.172v.319h-3.181v-.319a.6.6 0 00.5-.172.737.737 0 00.133-.464v-12.037a.741.741 0 00-.133-.464.607.607 0 00-.5-.172v-.318h4.48v.318a.832.832 0 00-.4.066.246.246 0 00-.106.225.294.294 0 00.066.172 1.24 1.24 0 00.146.172l8.325 9.492zm5.169-16.096a.477.477 0 01.451-.5.345.345 0 01.185.08c4.4 3.341 6.683 7.742 6.683 12.781s-2.2 9.387-6.656 12.781a.349.349 0 01-.212.08.439.439 0 01-.451-.477.354.354 0 01.08-.265c4-3.553 5.781-7.4 5.781-12.118s-1.777-8.538-5.781-12.091a.356.356 0 01-.08-.271z" fill="#fff"/></svg>