<svg xmlns="http://www.w3.org/2000/svg" width="256" height="118"><defs><clipPath id="a"><path transform="translate(65 736)" fill="none" stroke="#707070" d="M0 0h256v118H0z"/></clipPath></defs><g transform="translate(-65 -736)" clip-path="url(#a)"><path d="M115.163 853.515a4.644 4.644 0 01.591-2.422 5.979 5.979 0 011.49-1.683 10.33 10.33 0 011.944-1.183q1.046-.488 1.944-.978a7.11 7.11 0 001.489-1.046 1.84 1.84 0 00.591-1.4 1.889 1.889 0 00-.659-1.558 2.935 2.935 0 00-1.888-.534 4.055 4.055 0 00-1.6.3 4.676 4.676 0 00-1.149.671 3.166 3.166 0 00-.682.739.941.941 0 00-.2.5.859.859 0 00.034.25c.023.076.049.152.08.228l-.227.182-1.8-2.365.227-.159c.046.03.114.079.2.148a.413.413 0 00.227.1.912.912 0 00.58-.318 6.345 6.345 0 01.9-.693 6.637 6.637 0 011.433-.682 6.6 6.6 0 012.183-.307 4.424 4.424 0 013 .932 3.232 3.232 0 011.069 2.57 2.911 2.911 0 01-.512 1.74 5.013 5.013 0 01-1.285 1.24 10.94 10.94 0 01-1.694.932q-.921.41-1.74.842a7.846 7.846 0 00-1.421.944 2.109 2.109 0 00-.739 1.262h7.39a.616.616 0 00.455-.125.623.623 0 00.113-.421h.273v2.57h-.273a.358.358 0 00-.113-.3.786.786 0 00-.455-.091h-8.866q-.569 0-.637.387h-.273zm13.189-1.16a1.1 1.1 0 01.33-.807 1.1 1.1 0 01.807-.33 1.1 1.1 0 01.807.33 1.1 1.1 0 01.33.807.99.99 0 01-.33.773 1.166 1.166 0 01-.807.3 1.166 1.166 0 01-.807-.3.989.989 0 01-.33-.773zm5.049.774a.519.519 0 00.432-.148.636.636 0 00.114-.4v-8.551a3.3 3.3 0 00-.364.023 1.434 1.434 0 00-.375.091.7.7 0 00-.284.2.514.514 0 00-.113.341h-.273v-2.32h.273c0 .288.1.432.3.432a1.6 1.6 0 00.659-.182q.387-.182.387-.478 0-.432-.523-.432v-.273h2.683v.273a.428.428 0 00-.364.125.789.789 0 00-.091.443v10.3a.636.636 0 00.113.4.519.519 0 00.432.148v.273h-3zm5.98-7.575a.6.6 0 00.477-.239 1.916 1.916 0 00.114-.83v-2.206a.616.616 0 00-.125-.455.622.622 0 00-.42-.114v-.273h9.073a.614.614 0 00.455-.125.621.621 0 00.114-.421h.273v2.752h-.273a.67.67 0 00-.114-.432.582.582 0 00-.455-.137h-6.844v2.66a6.2 6.2 0 011.751-.58 9.919 9.919 0 011.614-.148 6.668 6.668 0 012.092.307 4.841 4.841 0 011.592.853 3.719 3.719 0 011.012 1.3 3.8 3.8 0 01.353 1.637 4.03 4.03 0 01-1.341 3.184 6.134 6.134 0 01-4.139 1.183 8.481 8.481 0 01-1.967-.2 7.829 7.829 0 01-1.444-.477 7.9 7.9 0 01-.943-.5 1.188 1.188 0 00-.489-.227.431.431 0 00-.364.182l-.25-.159 1.569-2.274.2.182a1 1 0 00-.091.409.75.75 0 00.261.455 2.72 2.72 0 00.773.523 6.275 6.275 0 001.251.432 7.242 7.242 0 001.717.182 3.932 3.932 0 002.445-.716 2.452 2.452 0 00.944-2.081 2.234 2.234 0 00-.887-1.854 3.66 3.66 0 00-2.319-.693 5.359 5.359 0 00-2.149.352q-.784.354-.785.648a.581.581 0 00.136.25l-.25.25-2.57-2.365zm16.453 2.143a7.022 7.022 0 002.644 5.543.16.16 0 01.036.121.2.2 0 01-.206.219.162.162 0 01-.1-.036 7.121 7.121 0 01-3.045-5.847 7.164 7.164 0 013.057-5.846.163.163 0 01.085-.036.218.218 0 01.206.23.159.159 0 01-.036.121 7 7 0 00-2.641 5.531zm3.382 3.167a.313.313 0 00.255-.079.337.337 0 00.061-.212v-5.506a.319.319 0 00-.067-.212.354.354 0 00-.273-.079v-.145h2.05v.145c-.186 0-.279.053-.279.158a.209.209 0 00.049.134l1.977 3.881 2.049-3.881a.579.579 0 01.031-.073.161.161 0 00.018-.073.122.122 0 00-.067-.1.469.469 0 00-.237-.043v-.145h2.171v.145a.353.353 0 00-.273.079.318.318 0 00-.067.212v5.506a.316.316 0 00.067.212.352.352 0 00.273.079v.145h-1.7v-.145a.355.355 0 00.273-.079.32.32 0 00.067-.212v-4.791l-.036-.024-2.583 5.13-2.584-5.13-.012.024v4.791a.292.292 0 00.049.212.276.276 0 00.23.079v.145h-1.443zm12.687-6.307a4.781 4.781 0 011.455.212 3.314 3.314 0 011.158.631 2.877 2.877 0 01.764 1.025 3.361 3.361 0 01.273 1.395 3.359 3.359 0 01-.273 1.4 2.818 2.818 0 01-.764 1.019 3.211 3.211 0 01-1.158.613 5.049 5.049 0 01-1.455.2 5.046 5.046 0 01-1.455-.2 3.207 3.207 0 01-1.158-.613 2.826 2.826 0 01-.764-1.019 3.368 3.368 0 01-.273-1.4 3.37 3.37 0 01.273-1.395 2.885 2.885 0 01.764-1.025 3.311 3.311 0 011.158-.631 4.778 4.778 0 011.455-.212zm0 .825a2.643 2.643 0 00-1.91.647 2.36 2.36 0 00-.674 1.785 2.36 2.36 0 00.674 1.785 2.645 2.645 0 001.91.647 2.647 2.647 0 001.91-.647 2.361 2.361 0 00.673-1.785 2.36 2.36 0 00-.673-1.785 2.646 2.646 0 00-1.91-.647zm10.781 4.026v-4.342a.341.341 0 00-.06-.212.278.278 0 00-.231-.079v-.145h1.456v.145a.277.277 0 00-.231.079.338.338 0 00-.06.212v5.506a.337.337 0 00.06.212.277.277 0 00.231.079v.145h-1.553v-.145q.242 0 .242-.1a.2.2 0 00-.048-.139.868.868 0 01-.073-.091l-4.317-4.912v4.948a.341.341 0 00.06.212.278.278 0 00.231.079v.145h-1.455v-.145a.276.276 0 00.23-.079.338.338 0 00.061-.212v-5.506a.34.34 0 00-.061-.212.277.277 0 00-.23-.079v-.145h2.049v.145a.377.377 0 00-.182.031.113.113 0 00-.049.1.138.138 0 00.031.079.608.608 0 00.066.079l3.808 4.342zm2.365-7.363a.219.219 0 01.206-.23.159.159 0 01.085.036 7.164 7.164 0 013.057 5.846 7.121 7.121 0 01-3.045 5.847.163.163 0 01-.1.036.2.2 0 01-.206-.219.161.161 0 01.037-.121 7.023 7.023 0 002.644-5.543 7 7 0 00-2.644-5.531.161.161 0 01-.034-.121zm7.424 4.199h6.731v1.556h-6.731zm14.535 3.609v.318q0 .159.341.489a4.009 4.009 0 00.967.648 8.367 8.367 0 001.5.568 6.959 6.959 0 001.922.25 3.569 3.569 0 002.445-.693 2.231 2.231 0 00.762-1.717 1.745 1.745 0 00-.887-1.615 5.521 5.521 0 00-2.728-.523 5.723 5.723 0 00-.819.045 1.749 1.749 0 00-.443.114.426.426 0 00-.2.17.737.737 0 00-.08.239h-.272v-2.593h.272a1.171 1.171 0 00.068.273.4.4 0 00.182.193 1.109 1.109 0 00.409.114 6.437 6.437 0 00.75.034 5.409 5.409 0 002.035-.33 1.259 1.259 0 00.807-1.285 1.533 1.533 0 00-.75-1.353 3.621 3.621 0 00-2-.489 4.866 4.866 0 00-1.4.193 5.616 5.616 0 00-1.137.466 2.934 2.934 0 00-.773.591.91.91 0 00-.284.568.765.765 0 00.182.387l-.228.227-1.896-2.179.227-.228c.046.046.094.091.148.137a.321.321 0 00.216.068 1.091 1.091 0 00.512-.262 6.665 6.665 0 01.966-.568 8.619 8.619 0 011.5-.557 7.936 7.936 0 012.138-.25 7.051 7.051 0 011.74.2 4.421 4.421 0 011.41.614 3.088 3.088 0 01.943.99 2.574 2.574 0 01.341 1.33 2.638 2.638 0 01-.386 1.557 2.339 2.339 0 01-1.137.808v.045a3.679 3.679 0 011.706 1 2.809 2.809 0 01.591 1.933 3.145 3.145 0 01-1.376 2.695 6.929 6.929 0 01-4.059.99 8.366 8.366 0 01-1.865-.193 9.087 9.087 0 01-1.466-.455q-.626-.261-1.046-.478a1.6 1.6 0 00-.6-.216.681.681 0 00-.409.25l-.2-.136 1.137-2.524zm11.416 2.502a1.1 1.1 0 01.33-.807 1.1 1.1 0 01.807-.33 1.1 1.1 0 01.807.33 1.1 1.1 0 01.329.807.99.99 0 01-.329.773 1.166 1.166 0 01-.807.3 1.165 1.165 0 01-.807-.3.989.989 0 01-.33-.773zm4.343-11.461a.619.619 0 00.114.421.614.614 0 00.455.125h9.164a.614.614 0 00.455-.125.62.62 0 00.114-.421h.273v1.865l-5.344 9.756a.922.922 0 01-.1.193.365.365 0 00-.057.216c0 .136.136.2.409.2v.273h-3.161v-.273a.777.777 0 00.6-.193 3.859 3.859 0 00.42-.648l4.98-9.21h-7.749a.581.581 0 00-.455.137.667.667 0 00-.114.432h-.273v-2.752zm15.838 6.803a7.022 7.022 0 002.644 5.543.161.161 0 01.037.121.2.2 0 01-.206.219.163.163 0 01-.1-.036 7.121 7.121 0 01-3.045-5.847 7.164 7.164 0 013.056-5.846.163.163 0 01.086-.036.219.219 0 01.206.23.161.161 0 01-.037.121 7 7 0 00-2.641 5.531zm3.857 1.392a.4.4 0 00-.037.157.5.5 0 00.212.352 2.244 2.244 0 00.558.333 4.208 4.208 0 00.782.249 4.054 4.054 0 00.886.1 3.128 3.128 0 001.667-.34 1.013 1.013 0 00.515-.873.689.689 0 00-.127-.424.809.809 0 00-.352-.261 2.06 2.06 0 00-.522-.127 5.271 5.271 0 00-.637-.036q-.558 0-1.182-.006a4.212 4.212 0 01-1.146-.158 1.907 1.907 0 01-.861-.5 1.446 1.446 0 01-.34-1.043 1.386 1.386 0 01.242-.795 2.113 2.113 0 01.661-.613 3.615 3.615 0 01.989-.4 4.99 4.99 0 011.237-.145 4.892 4.892 0 01.9.073 6.472 6.472 0 01.661.158q.279.084.461.158a.86.86 0 00.3.073.311.311 0 00.194-.049 1.514 1.514 0 00.121-.109l.145.061-.667 1.394-.133-.084a.645.645 0 00.012-.158c0-.056-.049-.125-.145-.206a1.745 1.745 0 00-.413-.236 3.445 3.445 0 00-.637-.194 3.9 3.9 0 00-.806-.078 3.256 3.256 0 00-1.559.315.935.935 0 00-.576.825.525.525 0 00.127.37.843.843 0 00.352.219 2.08 2.08 0 00.522.1c.2.017.41.024.637.024q.57 0 1.189.018a4.038 4.038 0 011.14.188 1.951 1.951 0 01.861.546 1.6 1.6 0 01.34 1.1 1.505 1.505 0 01-.2.746 1.935 1.935 0 01-.6.637 3.133 3.133 0 01-.989.437 5.289 5.289 0 01-1.364.158 5.46 5.46 0 01-1.134-.1 4.818 4.818 0 01-.819-.243 6.504 6.504 0 01-.558-.255.816.816 0 00-.352-.115.364.364 0 00-.255.146l-.122-.073.655-1.395zm7.13-4.022a.339.339 0 00-.06-.212.278.278 0 00-.231-.079v-.145h1.6v.145a.276.276 0 00-.23.079.337.337 0 00-.061.212v3.881a1.023 1.023 0 00.516.977 3.252 3.252 0 001.534.285 3.256 3.256 0 001.534-.285 1.024 1.024 0 00.516-.977v-3.881a.34.34 0 00-.061-.212.277.277 0 00-.23-.079v-.145h1.6v.145a.276.276 0 00-.23.079.338.338 0 00-.061.212v3.614a2.856 2.856 0 01-.212 1.188 1.725 1.725 0 01-.606.728 2.359 2.359 0 01-.964.358 8.2 8.2 0 01-1.285.091 8.208 8.208 0 01-1.286-.091 2.362 2.362 0 01-.964-.358 1.729 1.729 0 01-.606-.728 2.858 2.858 0 01-.212-1.188zm13.85 4.341v-4.342a.343.343 0 00-.06-.212.278.278 0 00-.231-.079v-.145h1.456v.145a.277.277 0 00-.231.079.338.338 0 00-.06.212v5.506a.337.337 0 00.06.212.276.276 0 00.231.079v.145h-1.553v-.145c.161 0 .242-.032.242-.1a.2.2 0 00-.048-.139.824.824 0 01-.073-.091l-4.321-4.909v4.948a.341.341 0 00.06.212.278.278 0 00.231.079v.145h-1.451v-.145a.276.276 0 00.23-.079.338.338 0 00.061-.212v-5.506a.34.34 0 00-.061-.212.277.277 0 00-.23-.079v-.145h2.049v.145a.375.375 0 00-.182.031.113.113 0 00-.049.1.137.137 0 00.03.079.617.617 0 00.067.079l3.808 4.342zm2.365-7.363a.218.218 0 01.206-.23.16.16 0 01.085.036 7.164 7.164 0 013.057 5.846 7.121 7.121 0 01-3.045 5.847.163.163 0 01-.1.036.2.2 0 01-.206-.219.16.16 0 01.036-.121 7.023 7.023 0 002.644-5.543 7 7 0 00-2.644-5.531.159.159 0 01-.033-.121z" fill="#292929"/><path d="M98.484 745.412a1.467 1.467 0 00-.281.328c-.424.989-.887 1.967-1.231 2.984-.273.8-.626 1.571-.909 2.365-.5 1.408-1.184 2.739-1.661 4.157-.268.8-.662 1.556-1 2.331a1.387 1.387 0 00-.1.208 15.626 15.626 0 01-1.068 2.669 7.024 7.024 0 00-.475 1.167 7.626 7.626 0 01-.49 1.161c-.269.628-.457 1.291-.7 1.931s-.506 1.276-.784 1.9c-.326.736-.695 1.452-.957 2.217a9.323 9.323 0 01-.638 1.6 8.1 8.1 0 01-1 1.252c-.06.069-.213.074-.324.076a.731.731 0 01-.678-.368q-.436-.743-.837-1.507c-.2-.373-.358-.763-.542-1.142-.872-1.8-1.953-3.485-2.737-5.328a5.248 5.248 0 00-.5-.91c-.351-.512-.568-1.092-.864-1.629a31.8 31.8 0 00-1.934-3.656 19.5 19.5 0 00-1.193-2.473 24.552 24.552 0 01-1.593-3.194 50.158 50.158 0 01-2.344-4.5c-.6-1.161-1.181-2.335-1.783-3.5-.212-.409-.462-.8-.7-1.2a.406.406 0 00-.084-.077c-.041.048-.114.1-.116.145-.017.423-.029.846-.027 1.27a25.417 25.417 0 01.026 2.637 2.918 2.918 0 00.075.678c.016.113.092.235.068.335a12.321 12.321 0 00-.029 2.284 4.3 4.3 0 00.017.789 9.05 9.05 0 01-.028 1.017c0 .306.059.611.063.917.005.448-.2.89.025 1.351a.842.842 0 01-.055.561.9.9 0 000 .549c.062.258.013.544.084.8.14.5-.307.92-.094 1.46a3.917 3.917 0 01.076 1.364c0 .5-.063 1-.029 1.5a21.968 21.968 0 010 2.884 5.085 5.085 0 00.082.8 3.412 3.412 0 01.052.681c-.192 1.84-.059 3.688-.14 5.531-.01.23-.026.462-.059.69-.106.743-.109.753.661.758 1.194.007 2.388 0 3.583-.007.5 0 1-.007 1.5 0 .324.007.594.24.562.457-.045.3-.333.662-.576.641-.462-.04-.916.038-1.373.032-.808-.011-1.617-.086-2.423-.058a4.684 4.684 0 00-1.365.019 1.241 1.241 0 01-.574.013 28.933 28.933 0 00-4.265-.142c-.423-.012-.848-.005-1.27-.036a.985.985 0 01-.411-.171.3.3 0 01.009-.488 1.843 1.843 0 011-.236q1.329 0 2.658-.005a2.5 2.5 0 00.573-.042.324.324 0 00.2-.238c0-.961-.028-1.922-.047-2.883-.232-.51.019-1.049-.109-1.586a7.507 7.507 0 01-.033-1.612c-.006-.538-.026-1.077-.028-1.615s.009-1.077.015-1.615a2.649 2.649 0 000-.577c-.118-.538.212-1.035.074-1.594a6.2 6.2 0 01-.053-1.5c0-.267.048-.533.069-.8a1.222 1.222 0 00.011-.444 2.149 2.149 0 01-.04-.912 6.556 6.556 0 00-.005-.9 6.144 6.144 0 01.1-1.95 2.524 2.524 0 00.049-.574c.036-.8-.115-1.6-.019-2.409a21.522 21.522 0 00.031-2.416c0-.924-.005-1.849.018-2.772a7.938 7.938 0 00.1-1.48 14.07 14.07 0 01-.059-1.493 4.3 4.3 0 01.112-1.375c.083-.324-.079-.485-.437-.508-.842-.054-1.685-.1-2.526-.166a3.832 3.832 0 01-.669-.143c-.132-.035-.161-.285-.062-.395a.872.872 0 01.592-.32c.269-.02.539-.044.808-.045q4.681-.021 9.362-.034l2.542-.009a.5.5 0 01.53.367 9.679 9.679 0 001.165 2.493c.75 1.471 1.6 2.892 2.39 4.341.555 1.012 1.088 2.036 1.634 3.053.835 1.557 1.7 3.1 2.5 4.674.561 1.091 1.208 2.137 1.675 3.279a16.5 16.5 0 00.886 1.612c.166.3.324.61.472.922.066.141.113.311.3.283.085-.013.177-.128.221-.219.184-.381.334-.778.529-1.154.633-1.226 1.033-2.549 1.59-3.807.592-1.335 1.137-2.691 1.7-4.039.445-1.064.848-2.147 1.345-3.186.331-.692.6-1.407.912-2.1s.58-1.431.952-2.1a5.9 5.9 0 00.6-3.126.31.31 0 00-.27-.323c-.305-.033-.613-.036-.919-.055-.191-.012-.383-.022-.572-.047a.445.445 0 01-.3-.442.352.352 0 01.282-.321 3.165 3.165 0 01.572-.049c2.89-.017 5.779-.008 8.668-.058a14.692 14.692 0 003.221-.091 1.02 1.02 0 01.931.349.429.429 0 01.094.316c-.009.1-.075.265-.149.286a2.477 2.477 0 01-1.007.173 9.021 9.021 0 00-1.148-.07c-.446 0-.691.233-.606.643.141.679-.024 1.359.093 2.045a13.115 13.115 0 01.043 2.076c.017 2.118-.009 4.237.071 6.352.03.794.025 1.593.118 2.394a28.286 28.286 0 01.05 3.232 1.151 1.151 0 01-.108.443.7.7 0 00.019.661.568.568 0 01.1.326 23.871 23.871 0 00.016 2.528 1.7 1.7 0 01-.053.455.8.8 0 00-.014.665.636.636 0 01.058.337c-.109.919.053 1.836.023 2.755-.025.8-.083 1.6-.036 2.41s0 1.616 0 2.425a2.947 2.947 0 01-.12 1.14.26.26 0 00.245.319c.345.02.691.035 1.036.038.616.006 1.232.01 1.848 0a1.1 1.1 0 01.818.359c.435.423.372.665-.239.836a2.654 2.654 0 01-.673.115c-1.193.013-2.388-.013-3.581.022-.42.012-.8-.2-1.246-.082a4.624 4.624 0 01-1.246.052c-.413-.007-.825-.053-1.237-.074-.688-.034-1.378-.105-2.064-.082-.882.03-1.76.011-2.64-.022-.846-.032-1.694 0-2.542 0a4.243 4.243 0 01-.46-.032.372.372 0 01-.353-.377.478.478 0 01.319-.438 1.5 1.5 0 01.452-.068c.616-.019 1.233-.025 1.849-.045.321-.01.444-.137.361-.423a1.169 1.169 0 010-.892.833.833 0 00.015-.565 4.569 4.569 0 01-.072-1.911c.026-.294-.14-.631-.049-.889a1.782 1.782 0 00-.023-.893 2.128 2.128 0 01.007-.687 3.7 3.7 0 00-.025-1.132c-.033-.368.2-.722.011-1.12a.962.962 0 01.043-.673c.168-.433-.161-.816-.063-1.242a9.874 9.874 0 00.134-1.136c-.285-.515.122-1.053-.053-1.572a19.29 19.29 0 00.061-3.1c-.161-.34.037-.673.031-1.014-.023-1.348.042-2.7.027-4.045-.01-.882.074-1.758.059-2.641-.011-.65-.04-1.3-.089-1.944.053-.041.127-.073.153-.128s0-.126-.01-.19a.574.574 0 00-.086.136 1.147 1.147 0 00-.024.209m-17.841-2.083c-.039-.05.042-.238-.142-.124l.172.093a.406.406 0 00.033.093c.012.018.04.025.06.037l-.124-.1m7.17 22.864a.388.388 0 00.086-.033c.017-.011.024-.038.036-.057l-.089.121a.357.357 0 00-.1.031c-.019.012-.023.047-.034.072l.1-.134m-1.141-9.464a1.715 1.715 0 00.42-.1c.266-.141.278-.275.087-.533-.022-.03-.039-.072-.07-.087a.945.945 0 00-.293-.111c-.036 0-.116.1-.122.164-.021.221-.019.443-.026.666a.316.316 0 00-.1.044c-.018.017-.014.056-.02.086l.123-.126m.049 1.638c.026.032.056.092.072.088a.959.959 0 00.836-.682.408.408 0 00-.05-.214c-.037-.1-.2-.109-.284-.01-.2.231-.384.469-.571.708-.019.024 0 .074 0 .11m-4.622-8.548a1.816 1.816 0 00-.078-.331c-.017-.04-.134-.086-.16-.067a.547.547 0 00-.2.681c.013.03.056.07.08.067.07-.008.162-.014.2-.059a1.482 1.482 0 00.154-.29m21.8-1.536c-.063-.035-.138-.111-.187-.1a.816.816 0 00-.548.525c-.008.022.015.065.036.086a.151.151 0 00.094.047.638.638 0 00.592-.451.444.444 0 00.013-.11m1.079 10.153c-.069-.122-.152-.274-.243-.421-.015-.024-.081-.047-.1-.035-.052.034-.117.08-.131.133a.441.441 0 00.148.493c.051.04.141.083.185.063s.073-.115.139-.233m-3.349-4.959c-.01-.154-.093-.212-.325-.2a.264.264 0 00-.193.084c-.054.1.24.305.4.271.048-.01.079-.1.118-.154m-18.247-1.551c-.06-.069-.113-.172-.2-.218-.152-.082-.19.061-.219.164a.431.431 0 000 .223c.017.065.072.167.112.167a.3.3 0 00.184-.113 1.162 1.162 0 00.125-.223m-4.442-11.433l.214-.263c-.085-.054-.166-.139-.256-.152s-.244.032-.206.171c.024.087.144.147.248.244m-4-.268c-.007-.027-.006-.06-.021-.078a.155.155 0 00-.088-.06 3.54 3.54 0 00-.437 0c-.027 0-.06.046-.076.078a.087.087 0 00.019.079c.149.136.523.124.6-.016m26.72 1.936a.356.356 0 00-.29-.374c-.025 0-.078.034-.076.049a.585.585 0 00.053.282c.051.067.164.089.254.122.009 0 .039-.051.06-.079m-21.9 7.364c.057-.032.138-.05.167-.1.056-.094-.093-.274-.23-.27a.222.222 0 00-.166.084c-.054.1.1.273.229.285m26.467-7.976c.026-.028.074-.055.075-.084a4.32 4.32 0 00.007-.448c0-.029-.06-.084-.07-.08-.054.025-.143.064-.143.1a2.748 2.748 0 00.048.445c0 .026.054.045.083.067m-6.029 2.156c-.04-.045-.062-.093-.087-.095-.133-.009-.212.055-.2.195 0 .032.032.063.05.094l.241-.194m5.59 1.706a2.33 2.33 0 00-.111.24c-.006.019.035.055.055.083l.22-.2-.165-.128m-4.065 6.586l-.112-.21c-.049.076-.135.151-.137.229s.08.155.125.233l.125-.252m1.187-10.206a2.752 2.752 0 00-.2.255.357.357 0 00.078.071 2.117 2.117 0 00.231-.213c.013-.014-.007-.073-.027-.1s-.072-.028-.083-.016m.563 5.4a1.235 1.235 0 00-.147-.124 1.285 1.285 0 00-.206.226.463.463 0 00.109.114c.085-.064.162-.14.244-.215m-17.635 7.014a1.853 1.853 0 00-.121.384c0 .058.07.119.108.179.041-.057.116-.114.116-.171a1.884 1.884 0 00-.1-.392m16.682 4.929c-.033-.03-.056-.067-.089-.079a.27.27 0 00-.113 0 .263.263 0 00-.112.021.966.966 0 00-.129.119 1.652 1.652 0 00.319.063c.041 0 .082-.081.124-.126m-.88-14.408l-.087-.157c-.058.045-.135.08-.169.139-.025.044 0 .121.016.181a.162.162 0 00.1-.01 1.3 1.3 0 00.139-.153m3.985 20.151l-.1-.184c-.042.048-.1.09-.12.146a.373.373 0 00-.008.216c.014.049.081.083.124.123.025-.027.064-.051.072-.083a1.718 1.718 0 00.029-.218m-5.245 6.07a.958.958 0 00-.177-.035c-.025 0-.052.039-.078.06l.244.049c0-.025.007-.05.011-.075m2.575.013c-.025.021-.074.047-.071.061a1.1 1.1 0 00.065.171c.023-.022.068-.049.065-.066a.888.888 0 00-.06-.166m-17.574-4.622c-.034.051-.093.1-.093.154s.058.108.09.162c.034-.051.1-.1.1-.152s-.058-.11-.092-.164m-1.995-16.53l-.087-.181c-.028.024-.079.046-.08.071a.942.942 0 00.029.19l.138-.08m-8.092-8.815l-.09-.176c-.029.024-.081.048-.081.072a.95.95 0 00.035.192l.137-.088m24.9 6.15c-.022-.025-.049-.075-.065-.072a1.1 1.1 0 00-.177.065c.024.023.052.069.071.066a.9.9 0 00.172-.059m-17.584-.01c-.024.025-.068.051-.065.071a1.057 1.057 0 00.053.181c.023-.021.068-.046.065-.064a1.287 1.287 0 00-.053-.188m-3.918-.893c.028-.024.083-.053.079-.07a1.141 1.141 0 00-.073-.191c-.039.04-.11.082-.108.118s.064.1.1.143m-6.031-3.461c.026-.025.079-.057.074-.073a1.126 1.126 0 00-.085-.18c-.021.028-.063.06-.058.083a.863.863 0 00.069.171m17.572 18.934a1.371 1.371 0 00.091-.19c.006-.018-.053-.079-.06-.076-.049.024-.133.068-.129.091a.6.6 0 00.1.174m10.688-4.614l-.054-.041-.009.068zm-15.486-.231l-.061-.077c-.025.022-.065.041-.069.066s.036.049.056.074l.074-.063m19.614 11.515l-.041.055.062.01zm-2.133-12l.065.042.01-.06zm-.342 12.515c-.046-.1-.1-.105-.155-.007-.005.01.045.068.073.07s.055-.04.082-.063m-16.791-12.971l.074.049.008-.08zm18.29-3.006l.05.038.01-.059zm-.927-1.619l.058.046.01-.074zm-26.126-1.392l.049.039.011-.058zm.448-1.382l.061.045.01-.07zm70.561 13.482c.023-3.374.052-6.183.053-8.993a15.105 15.105 0 00.031-1.712c-.063-.565.084-1.154.016-1.718-.047-.391.22-.718.074-1.129a2.116 2.116 0 01-.051-1.113 20.734 20.734 0 00.091-2.163 19.546 19.546 0 00.035-2.078c.008-.732.019-1.463.023-2.195 0-.269-.007-.539-.022-.808a.283.283 0 00-.3-.274c-1.339-.062-2.679-.116-4.019-.178-.307-.014-.614-.044-.921-.071a.322.322 0 01-.291-.306.444.444 0 01.252-.475 1.759 1.759 0 01.448-.1c1.537-.041 3.068-.234 4.609-.184 1.075.035 2.155.11 3.225.045.962-.059 1.917.113 2.863.027.963-.087 1.921-.015 2.88-.06a2.012 2.012 0 011.015.165.414.414 0 01.257.551.935.935 0 00.062.876c.35.686.687 1.379 1.021 2.073.933 1.938 1.822 3.9 2.81 5.808a18.524 18.524 0 001.32 2.543 16.233 16.233 0 001.18 2.493c.386.837.772 1.675 1.164 2.51q.928 1.975 1.866 3.945c.049.1.117.2.176.3.093.155.286.171.36.021.135-.275.273-.55.383-.836a9.023 9.023 0 011.004-2.437 17.407 17.407 0 01.818-2.274c.054-.144.074-.3.139-.439a14.89 14.89 0 00.775-1.66 13.168 13.168 0 01.64-1.589c.391-.829.666-1.713 1-2.569.306-.784.621-1.565.937-2.345q.694-1.708 1.4-3.412c.2-.5.416-.992.615-1.491q.234-.59.439-1.19a.2.2 0 00-.1-.16c-.342-.043-.689-.055-1.031-.1a.415.415 0 01-.272-.629.662.662 0 01.624-.429c.655 0 1.31-.013 1.965-.014q4.968-.008 9.935-.011c.27 0 .54 0 .809.019.321.02.516.225.6.6a.417.417 0 01-.266.457 2.168 2.168 0 01-.453.072c-.655.007-1.31 0-1.965 0-.307 0-.615.013-.921.04-.113.01-.229.089-.194.232a4.049 4.049 0 010 2.049 4.915 4.915 0 01.061 1.121c.2 3.886.076 7.775.119 11.662v.115a11.613 11.613 0 01.026 1.939 8.846 8.846 0 00-.006 1.842 16.524 16.524 0 01.018 1.716 10.946 10.946 0 01-.012 1.71 5.047 5.047 0 01-.025 2.27.946.946 0 00-.01.231 15.518 15.518 0 01.02 2.18c-.06.726-.007 1.461-.009 2.192s-.012 1.463-.015 2.2c0 .31.1.417.4.427.5.016 1 .018 1.5.029a.792.792 0 01.667.392.29.29 0 01-.034.408 1.29 1.29 0 01-.951.339c-.925 0-1.849.023-2.774.019-2.966-.01-5.933-.03-8.9-.041a2.025 2.025 0 01-1.112-.241c-.139-.087-.182-.413-.041-.507a2.085 2.085 0 01.6-.312 2.972 2.972 0 01.69-.033c.616-.01 1.233-.012 1.85-.029.38-.01.472-.091.529-.461a2.025 2.025 0 00.026-.562 3.167 3.167 0 01.06-1.372 1.125 1.125 0 00-.035-.442c-.01-.075-.046-.147-.058-.222-.058-.378.264-.705.09-1.125a3.035 3.035 0 01-.113-1.024c-.013-.384.013-.77.013-1.155q0-3.756-.015-7.512c0-.8.077-1.6.02-2.4a20.992 20.992 0 010-2.309c.05-1.305-.042-2.61.012-3.914.034-.8-.025-1.608-.017-2.412a4.554 4.554 0 01.1-1.145 2.809 2.809 0 00-.021-.793 3.74 3.74 0 01-.024-.916 10.694 10.694 0 00.116-2.069c.013-.615 0-1.231 0-1.846a.146.146 0 00-.061-.093.083.083 0 00-.079.019 1.637 1.637 0 00-.242.388 4.265 4.265 0 01-.556 1.259.793.793 0 00-.135.313 22.19 22.19 0 01-1.25 3.457c-.168.47-.37.928-.556 1.392-.314.785-.63 1.57-.94 2.357-.225.572-.44 1.148-.665 1.721-1.012 2.572-2 5.155-3.052 7.711-.423 1.029-.811 2.074-1.258 3.091-.88 2-1.695 4.03-2.567 6.035a42.349 42.349 0 00-1.847 4.6.442.442 0 01-.754.131 5.707 5.707 0 01-.615-.97q-1.5-3.114-2.975-6.243c-.489-1.041-.935-2.1-1.419-3.147-.225-.486-.493-.952-.741-1.427a3.27 3.27 0 01-.208-.412c-.512-1.452-1.311-2.768-1.958-4.157-.5-1.079-.942-2.188-1.469-3.254-.7-1.413-1.234-2.9-1.979-4.291a18.05 18.05 0 01-1.252-2.838.835.835 0 00-.077-.216 18.28 18.28 0 01-1.321-2.689 1.545 1.545 0 00-.2-.28c-.022-.027-.08-.059-.1-.048a.318.318 0 00-.138.128.523.523 0 00-.027.227c.083 1.421-.092 2.849.131 4.265-.187.634.234 1.29-.069 1.92.292.578-.162 1.208.124 1.792a.828.828 0 01.006.343 8.957 8.957 0 00-.012 1.7 11.1 11.1 0 01.009 1.728c0 .577.029 1.154.039 1.732s.034 1.154.014 1.729c-.07 1.963.047 3.926.015 5.888-.019 1.151-.152 2.305-.1 3.452.036.766.011 1.53.047 2.294a1.49 1.49 0 01-.3 1.193c-.018.019.032.153.069.163a1.912 1.912 0 00.452.062c.655 0 1.311.014 1.965-.012a23.139 23.139 0 002.866.022.638.638 0 01.687.322.5.5 0 01-.282.737 2.488 2.488 0 01-.457.04q-3.987 0-7.973-.01-1.27 0-2.54.018a.863.863 0 01-.75-.458.313.313 0 01.07-.4 1.031 1.031 0 01.744-.254c1.117 0 2.235-.009 3.352-.016a1.945 1.945 0 00.458-.025c.087-.022.224-.135.218-.195-.319-2.989-.039-5.99-.186-8.416m3.93-17.985l-.056-.174-.086.08.168.068a.388.388 0 00.034.091c.012.017.041.023.062.034zm28.712 1.162a.854.854 0 00-.208.013c-.05.015-.089.067-.133.1a.266.266 0 00.085.041.137.137 0 00.1-.026 1.539 1.539 0 00.127-.16.424.424 0 00.1-.042c.017-.013.019-.047.027-.072l-.1.143m-19.211 5.074c.132-.024.309-.005.386-.084.116-.117 0-.261-.088-.376-.021-.029-.044-.074-.071-.079a.342.342 0 00-.166.006c-.032.173-.049.349-.071.524a.317.317 0 00-.095.049c-.017.018-.013.055-.018.084l.122-.124m22.646 1.058h-.015c0-.186.008-.372-.005-.556 0-.051-.067-.1-.1-.147-.027.024-.069.043-.08.073a5.063 5.063 0 00-.2.632.537.537 0 00.07.313.256.256 0 00.177.113.18.18 0 00.148-.1 1.684 1.684 0 00.007-.331m-17.9 11.837a.512.512 0 00.145-.018.766.766 0 00.378-.636.124.124 0 00-.051-.09.092.092 0 00-.089 0 4.066 4.066 0 00-.456.472c-.036.048.047.184.073.274m-7.073-15.519a.277.277 0 00-.227-.315c-.178-.015-.442.176-.381.287a.729.729 0 00.314.272c.116.056.279-.1.295-.244m3.1 3.991a.454.454 0 00.414.415.154.154 0 00.083-.062 4.065 4.065 0 00-.259-.465c-.017-.026-.128 0-.191.023-.022.007-.031.058-.047.089m18.827 18.02c-.066-.093-.092-.173-.141-.191a.291.291 0 00-.379.112.429.429 0 000 .286c.007.029.141.061.188.036a2.726 2.726 0 00.336-.243m-21.454-24.619a4.028 4.028 0 00-.235-.408.174.174 0 00-.168 0 .3.3 0 00.054.473c.074.031.188-.032.349-.066m22.851 25.627c-.027-.084-.029-.173-.073-.206s-.171-.027-.187 0a2.057 2.057 0 00-.143.386c-.007.023.029.083.049.085.058.006.14.012.174-.022a1.593 1.593 0 00.18-.246m.528-26.623c-.038-.059-.067-.155-.118-.168s-.133.043-.19.085a.311.311 0 00-.108.387.231.231 0 00.176.094c.172.009.262-.15.24-.4m-25.908 9.931a.928.928 0 00-.037-.211c-.065-.156-.275-.253-.339-.157a.483.483 0 00-.051.3.311.311 0 00.122.178c.052.042.141.088.19.07s.077-.113.114-.174m1.132-4.473a1.062 1.062 0 00-.316-.138c-.123-.006-.287.22-.261.316s.262.17.387.091c.078-.049.116-.159.19-.269m25.472 10.469a.311.311 0 00.178-.512c-.019-.027-.055-.064-.081-.062-.171.01-.378.364-.289.508.027.045.126.045.192.065m.273-3.934c-.123.115-.212.17-.255.25a.2.2 0 00.056.189c.1.049.237.062.271-.077.021-.085-.035-.19-.073-.362m-22.788-4.322c.008-.137-.164-.288-.274-.24a.212.212 0 00-.1.158c-.006.152.143.281.264.231.048-.02.073-.1.107-.149m22.986-5.224a1.006 1.006 0 00-.174-.274c-.082-.063-.3.173-.239.28.046.087.15.144.228.215l.185-.221m-34.107-6.233c.075-.094.141-.173.2-.257.006-.009-.034-.069-.061-.076-.114-.031-.222-.012-.238.124-.007.054.053.116.1.209m32.152 9.718c-.059-.058-.1-.125-.145-.135a.162.162 0 00-.211.173c0 .051.063.1.1.152l.258-.191m-2 7.732c-.064.077-.131.149-.185.229-.009.013.034.062.053.094l.242-.221-.11-.1m2.822 9.475a.232.232 0 00-.253.257.121.121 0 00.062.082.259.259 0 00.3-.209c0-.04-.067-.087-.1-.13m-19.057-10.143c0-.036 0-.1-.013-.1-.056-.02-.135-.048-.175-.024-.057.035-.087.113-.128.173.06.029.124.085.181.08s.091-.08.136-.125m-10.24-16.612l-.241-.219c-.023.027-.07.058-.065.08.012.066.027.16.072.183s.129-.021.235-.044m6.705 18.689c-.087-.066-.169-.129-.255-.186 0 0-.069.069-.063.078.053.08.116.155.176.231l.142-.123m18.769-6.99l-.043-.1c-.026.016-.075.043-.073.048a1.525 1.525 0 00.079.152l.038-.1m-24.576-12.158c-.022-.025-.048-.074-.064-.071a1.073 1.073 0 00-.178.062c.023.023.048.068.067.065a1 1 0 00.175-.056m6.03 8.3a.949.949 0 00-.176-.055c-.02 0-.045.045-.069.069.046.032.09.084.139.089.03 0 .068-.064.106-.1m18.546-4.96l-.052-.1c-.023.028-.072.065-.065.082a.513.513 0 00.089.121l.029-.1m-16.917 19.106c-.023-.029-.053-.087-.067-.083a1.366 1.366 0 00-.193.083c.026.025.057.075.077.071a.982.982 0 00.182-.071m19.7.013l-.059-.076c-.024.02-.065.039-.068.062s.034.049.054.074zm-25.73-21.128l-.042.071.066.009zm27.063 13.891l-.036.054.052.009zm-1.664-2.73l.048.039.011-.056zm-21.028-2.961l.044-.066-.069-.01zm-2.545-7.411l.045-.059-.065-.01zm25.42-2.633c-.011.019-.04.048-.034.06a.3.3 0 00.067.072l.043-.132zm-2.279 1.838l-.042.063.068.008zm34.387-4.46c.423 0 .845.01 1.267 0a7.736 7.736 0 012.269.364 27.029 27.029 0 013.585 1.259 10.6 10.6 0 013.374 2.15c.649.647 1.448 1.106 2.094 1.767a12.5 12.5 0 011.117 1.307 17.123 17.123 0 011.081 1.766 6.363 6.363 0 01.355.849c.167.43.332.861.487 1.3a1.74 1.74 0 01.183.656 3.493 3.493 0 00.292 1.346 12.092 12.092 0 01.516 2.117 2.732 2.732 0 01-.033 1.468.83.83 0 00.013.45 17.6 17.6 0 01.266 3.077 2.346 2.346 0 01.017.449 24.3 24.3 0 01-.423 3.52 11.635 11.635 0 01-1.3 3.061 20.614 20.614 0 00-1.163 1.853c-.255.484-.934.588-1 1.206-.368.392-.717.805-1.111 1.168s-.831.678-1.257 1a1.9 1.9 0 01-.58.369 7.353 7.353 0 00-1.411.763 11.2 11.2 0 01-3.483 1.428 3.515 3.515 0 00-.658.2 10.708 10.708 0 01-2.224.472c-1.216.17-2.445.2-3.658.4a6.628 6.628 0 01-2.522-.063c-.938-.206-1.886-.367-2.817-.6a12.229 12.229 0 01-4.274-1.946 16.525 16.525 0 01-2.6-2.436 19.669 19.669 0 01-1.984-2.669 21.13 21.13 0 01-1.52-2.972c-.337-.784-.421-1.629-.71-2.423a11.208 11.208 0 01-.375-2.38 26.038 26.038 0 01-.159-2.755 1.492 1.492 0 010-.572 5.525 5.525 0 00.187-1.59 13.475 13.475 0 01.905-4.026c.138-.312.161-.681.324-.975a15.844 15.844 0 011.053-1.637c.408-.558.9-1.056 1.295-1.621a14.157 14.157 0 011.84-2.214 18.734 18.734 0 015.906-3.7 12.185 12.185 0 014.1-1.014 12.429 12.429 0 012.286-.227c.148-.015.3-.028.445-.042v.1m-12.36 18.3a.382.382 0 00-.1.033c-.017.012-.021.045-.03.068l.1-.131c.049-.034.213.025.109-.134l-.079.163m3.237-5.32a.688.688 0 00-.317.856c.047.141.046.3.082.443a.8.8 0 00.105.191c.04-.058.1-.112.115-.175a3.271 3.271 0 00-.016-1.345.3.3 0 00.1-.024c.02-.012.023-.05.034-.077l-.105.131m1.132 6.78h-.029c.021 1.463.019 2.928.072 4.39.032.88.131 1.76.236 2.635a3.581 3.581 0 00.3 1.222 3.218 3.218 0 01.373 1.663 1.358 1.358 0 00.136.662 18.325 18.325 0 00.944 1.587 2.551 2.551 0 00.638.659c.6.42 1.23.789 1.834 1.2a1.654 1.654 0 00.979.284c.847 0 1.695.005 2.542-.008a1.141 1.141 0 00.549-.121 15.8 15.8 0 001.539-1.014 4.067 4.067 0 00.957-.975 19.272 19.272 0 001.238-2.327 15.586 15.586 0 001.14-3.731 21.3 21.3 0 00.486-3.869 1.161 1.161 0 01.06-.454 3.685 3.685 0 00.151-1.253c.047-.647.105-1.294.158-1.941.018-.229.049-.458.05-.688 0-.885 0-1.771-.006-2.657a2 2 0 00-.006-.573 4 4 0 01-.115-1.481c.029-.491-.117-.989-.123-1.485a20.219 20.219 0 00-.522-3.75 6.866 6.866 0 00-.282-1.231 10.543 10.543 0 00-2.4-3.63 5.819 5.819 0 00-.937-.844 7.1 7.1 0 00-1.775-.805 1.979 1.979 0 00-1.553-.127.988.988 0 01-.458.026 5.38 5.38 0 00-1.812.3 4.377 4.377 0 00-3.2 3.45c-.066.3-.135.6-.2.9-.094.451-.206.9-.269 1.356-.181 1.33-.213 2.674-.362 4.009a17.149 17.149 0 00-.125 1.946 6.449 6.449 0 01-.209 2.056.781.781 0 000 .23v4.389m20.013-12.712c-.02.031-.061.066-.058.094a1.085 1.085 0 00.565.929.233.233 0 00.2-.053c.044-.043.083-.165.057-.2-.213-.261-.441-.51-.668-.759-.018-.02-.066-.01-.1-.015m-5.648 25.119a.631.631 0 00.571-.3.387.387 0 00.018-.293c-.009-.036-.146-.084-.193-.06a4.148 4.148 0 00-.568.339c-.037.026-.04.152-.011.2s.119.074.183.108m-15.574-5.882c-.064-.03-.138-.1-.192-.083a.5.5 0 00-.376.688.205.205 0 00.169.1.658.658 0 00.4-.709m23.6-.949c-.064-.025-.142-.086-.191-.068-.38.137-.5.332-.421.683a.185.185 0 00.159.085.793.793 0 00.476-.6.28.28 0 00-.023-.1m-28.429-2.233c-.05-.046-.1-.134-.148-.13a.514.514 0 00-.484.632c.007.041.123.108.148.094a.814.814 0 00.483-.6m25.41 5.041c-.027-.227-.28-.4-.446-.333a.346.346 0 00-.162.251c-.02.231.166.416.328.336a1.218 1.218 0 00.279-.254m3.2-15.766c-.044-.192-.244-.287-.348-.2a3.79 3.79 0 00-.312.311c-.024.025-.05.088-.039.1.045.046.106.114.156.11a1.076 1.076 0 00.419-.091c.073-.039.1-.173.124-.231m-23.26-2.214a.414.414 0 00-.011-.113c-.026-.067-.061-.129-.093-.194a2.206 2.206 0 00-.152.165c-.068.09-.167.18-.182.281s.066.2.115.293c.009.017.068.009.1.011.149 0 .181-.1.2-.217a2.144 2.144 0 00.017-.226m-6.867 10.714c-.062.027-.171.048-.176.084a1.06 1.06 0 00.008.414.292.292 0 00.256.048.343.343 0 00-.088-.546m27.954-6.074a1.132 1.132 0 00-.026-.2c-.028-.067-.064-.131-.1-.2-.062.034-.143.053-.181.1a.653.653 0 00-.132.625c.033.094.1.118.169.038.111-.134.2-.284.267-.373m2.472 3.839c-.061-.025-.137-.087-.18-.069a.319.319 0 00-.21.45.185.185 0 00.162.082.39.39 0 00.228-.464m-24.04-.957l-.062-.2a.613.613 0 00-.168.077.405.405 0 00-.122.178c-.028.1-.015.22.122.236a.234.234 0 00.178-.082.557.557 0 00.052-.206m-3.317 4.3a.956.956 0 00.23-.129c.046-.041.079-.18.057-.2-.081-.062-.2-.142-.28-.121s-.163.141-.224.231.028.221.217.216m-1.642-3.418a.483.483 0 00-.268.451c0 .03.057.089.059.088.095-.055.216-.1.268-.183a.6.6 0 00.02-.3c0-.018-.049-.034-.079-.053m17.857 15.155l.224-.09a1.064 1.064 0 00-.112-.229c-.011-.015-.162.038-.164.068a.831.831 0 00.052.251m-16.443-16.544c-.068.121-.158.21-.15.289s.117.143.182.215c.069-.077.194-.156.191-.23s-.124-.16-.223-.274m20.74 8.323c-.062.03-.153.044-.179.093s.011.134.021.2c.075-.072.151-.143.222-.218a.688.688 0 00-.063-.077m3.344-18.237c-.092-.073-.173-.141-.259-.2a.163.163 0 00-.074.077c-.025.119.01.222.146.231.051 0 .107-.058.187-.105m-7.328-5.4a1.37 1.37 0 00-.225-.168c-.022-.011-.085.063-.13.1l.2.221.155-.15m-18.163 18.407c-.019-.028-.043-.081-.057-.078a1.349 1.349 0 00-.193.059c.019.028.043.082.057.079a1.309 1.309 0 00.193-.059m2.556.421a1.137 1.137 0 00-.084.189c-.005.021.044.056.068.084.028-.025.081-.054.078-.075a1.117 1.117 0 00-.062-.2m-4.307-8.686l-.069-.08a1.075 1.075 0 00-.084.177c-.005.018.042.052.065.079l.088-.175m28.363 12.62a1 1 0 00-.18-.064c-.021 0-.05.041-.075.064.04.033.081.092.12.091s.088-.057.136-.091m-4.384-21.067l-.04.053.058.011zm-19.374 14.393l-.056-.075c-.024.021-.064.039-.067.063s.033.049.052.074l.071-.061m-4.5-.025l.057.045.011-.069zm4.491-.444l-.062-.038-.008.061zm17.052-14.443v.142c.023-.018.061-.034.065-.056s-.032-.045-.065-.086m-17.511 5.417l-.063-.076c-.025.022-.065.042-.069.067s.037.049.058.073l.074-.064m38.44 19.704v-5.2a5.789 5.789 0 01.054-.8c.038-.261.348-.544.536-.526a.652.652 0 01.5.561c.018.886.023 1.772.034 2.658a6.24 6.24 0 00.055 1.606 6.079 6.079 0 00.8 1.257 14.385 14.385 0 002.45 3.048 16.975 16.975 0 002.817 2.183 8.635 8.635 0 003.836 1.132 9.071 9.071 0 011.137.137 9.153 9.153 0 001.15.1 8.212 8.212 0 001.028.085 4.327 4.327 0 001.253-.044 4.186 4.186 0 011.033-.064 16.293 16.293 0 002.615-.395 1.351 1.351 0 00.7-.367 4.172 4.172 0 01.724-.571 2.292 2.292 0 001.065-2.556 7.664 7.664 0 00-.481-1.883 3.376 3.376 0 00-.517-.88 22.583 22.583 0 01-.439-.533 9.794 9.794 0 00-1.521-1.713 10.545 10.545 0 01-1.038-1.078 2.972 2.972 0 00-.491-.481 20.11 20.11 0 00-3.218-1.8 25.237 25.237 0 00-2.612-.875 23.773 23.773 0 01-2.908-1.072 20.4 20.4 0 01-2.458-1.252 9.3 9.3 0 01-1.654-1.248 2.2 2.2 0 00-.437-.37 3.274 3.274 0 01-1.261-1.47c-.429-.813-.777-1.67-1.127-2.521a6.848 6.848 0 01-.306-1.345 15.324 15.324 0 01.047-2.979 1.835 1.835 0 01.119-.561 12.527 12.527 0 012.2-4.4 7.508 7.508 0 011.3-1.3 15.9 15.9 0 014.923-2.481c.63-.169 1.262-.334 1.9-.478a4.658 4.658 0 01.915-.113 22.139 22.139 0 012.311 0 20.916 20.916 0 016.142 1.423 5.721 5.721 0 011 .58c.7.468 1.392.961 2.1 1.425.2.134.288.477.631.379.052-.259.106-.519.157-.778a.831.831 0 00.05-.337 8.4 8.4 0 01.1-2.506.806.806 0 01.164-.416.387.387 0 01.287-.143.527.527 0 01.276.167.331.331 0 01.1.2 7.423 7.423 0 01.17 2.619.491.491 0 00-.036.225 15.386 15.386 0 01.123 3.218c.023 1.039-.01 2.079-.006 3.119a3.974 3.974 0 01-.206 1.247c-.055.169-.215.207-.374.206-.195 0-.43-.015-.478-.233a7 7 0 01-.129-1.707 21.77 21.77 0 00.006-1.575.622.622 0 00-.242-.372 1.12 1.12 0 01-.414-.793c-.02-.188-.118-.367-.149-.555a1.918 1.918 0 00-1.118-1.5 3.1 3.1 0 01-.68-.434c-1.45-1.271-3.266-1.641-5.054-2.088a11.751 11.751 0 00-2.624-.3 16.973 16.973 0 00-1.939.148.813.813 0 00-.32.129 16.966 16.966 0 01-1.517.819 1.436 1.436 0 00-.509.455 3.849 3.849 0 00-.525.892 5.517 5.517 0 00-.419 3.372 4.4 4.4 0 00.8 2.376 6.891 6.891 0 00.544.735 10.193 10.193 0 003.45 2.619 34.219 34.219 0 003.92 1.9 2.172 2.172 0 01.517.254 3.88 3.88 0 001.526.766 18.63 18.63 0 002.254 1.109c.719.441 1.508.776 2.2 1.255a5.767 5.767 0 011.629 1.441c.342.507.787.943 1.172 1.422a7.485 7.485 0 011.007 1.937 6.018 6.018 0 01.268 1.933 10.37 10.37 0 01-.528 4.319 8.762 8.762 0 01-2.63 3.871 21.512 21.512 0 01-2.241 1.619 13.649 13.649 0 01-3.3 1.33 1.615 1.615 0 01-.341.054c-1.034.084-2.072.13-3.1.254a20.708 20.708 0 01-4.559-.076 13.752 13.752 0 01-4.982-1.3 6.728 6.728 0 01-1.062-.681c-.787-.614-1.58-1.226-2.321-1.893a12.139 12.139 0 01-2.168-2.828c-.059-.1-.111-.2-.175-.293a.109.109 0 00-.1-.03c-.063.024-.169.062-.171.1-.035.65-.07 1.3-.078 1.953q-.016 1.56 0 3.12a1.351 1.351 0 01-.29.855.321.321 0 01-.416.036 1 1 0 01-.428-.781c.007-.385 0-.77 0-1.156v-4.507h.008m23.1-10.109a.35.35 0 00.037.1c.014.019.048.022.074.032l-.141-.1a.293.293 0 00-.325-.217.7.7 0 00-.2.065c.041.036.078.1.123.1.142.017.287.013.431.017m2.084 5.817a.317.317 0 00.312-.265c.012-.042-.041-.111-.079-.154a.116.116 0 00-.1 0c-.058.127-.106.259-.157.389-.187.122-.216.2-.081.169.046-.011.074-.092.11-.141m-20.82-17.579c-.292.087-.238.3-.186.512.007.028.042.049.065.073.024-.027.066-.053.068-.081.013-.177.018-.354.025-.531a.366.366 0 00.093-.035c.018-.013.023-.044.034-.067l-.1.129m18.839 13.23a.7.7 0 00-.041-.106c-.1-.179-.386-.394-.42-.331a3.315 3.315 0 00-.166.413.716.716 0 00-.07.214.318.318 0 00.073.174c.011.017.076.01.108 0a3.43 3.43 0 00.407-.193c.051-.031.073-.109.108-.166m2.13 7.98c.153-.1.309-.2.28-.42-.006-.048-.1-.131-.125-.122a.4.4 0 00-.3.408c0 .041.083.081.141.133m-6.845-4.73a1.371 1.371 0 00.272.1.274.274 0 00.077-.18c-.012-.139-.131-.166-.237-.131-.046.015-.063.116-.112.215m-9.489-13.22c-.106-.1-.161-.2-.24-.224-.139-.05-.183.06-.2.177s.031.225.158.214c.083-.007.158-.089.285-.167m-1.134-3.386c-.063.084-.179.173-.167.242a.339.339 0 00.214.2c.1.032.185-.174.117-.329-.02-.047-.095-.07-.164-.117m4.339 6.872a.263.263 0 00-.32-.263c-.041 0-.1.1-.107.153a.22.22 0 00.261.251c.069-.008.127-.107.166-.142m1.37.385a.917.917 0 00-.228-.156.2.2 0 00-.17.083c-.057.1.133.291.255.251.049-.016.078-.093.143-.178m6.261 4.16l.136-.091-.186-.26c-.042.041-.127.1-.119.118a1.762 1.762 0 00.169.233m-2.2-1.045a1.127 1.127 0 00-.068.2c0 .022.045.052.07.078.034-.05.089-.1.095-.15 0-.037-.06-.081-.1-.126m-5.534-.877c.025-.024.076-.054.072-.072a1.088 1.088 0 00-.074-.182c-.022.027-.065.059-.061.081a.889.889 0 00.063.172m11.638 14.907l-.071-.176c-.024.023-.068.046-.069.07a.957.957 0 00.024.18l.115-.075m-17.921-19.529a1.01 1.01 0 00-.031.186.108.108 0 00.067.078c.09.021.127-.187.042-.255-.017-.014-.051-.007-.077-.01m9.524 8.94l-.043.069.069.007zm-11.114-10.302l.042-.072-.065-.009zm2.153-3.057l-.06-.071-.071.06c.02.023.039.063.06.065s.047-.034.071-.054m62.614 28.986h-6.354a1.514 1.514 0 01-1-.218.544.544 0 01-.194-.262.316.316 0 01.205-.368 2.484 2.484 0 01.649-.208c.3-.038.615-.014.924-.024.393-.013.466-.137.275-.49-.365-.676-.744-1.345-1.108-2.021-.673-1.249-1.338-2.5-2.007-3.753-.613-1.149-1.224-2.3-1.843-3.445a1.3 1.3 0 00-.291-.355c-.078-.068-.226-.15-.3-.118a4.1 4.1 0 01-1.819.168 11.55 11.55 0 00-1.6 0 2.8 2.8 0 01-1.032-.02 2.939 2.939 0 00-.889-.011 25.39 25.39 0 01-4.144-.085c-.382-.055-.729.168-1.132-.013a2.811 2.811 0 00-1.021-.06c-.385-.01-.77-.021-1.155-.016a.492.492 0 00-.438.32c-.347.687-.716 1.363-1.052 2.056q-1.611 3.319-3.321 6.587c-.125.238-.228.488-.337.735-.067.15.039.29.221.3h7.97a6.047 6.047 0 01.921.045.664.664 0 01.361.25.471.471 0 01-.226.749 2.327 2.327 0 01-.567.08q-5.312-.01-10.624-.032a3.811 3.811 0 01-.8-.054 1.392 1.392 0 01-.486-.284c-.138-.1-.074-.458.088-.488.49-.092.98-.184 1.475-.243a.694.694 0 00.564-.338c.1-.164.2-.325.289-.5 1.724-3.483 3.407-6.986 5.186-10.44a37.568 37.568 0 012.106-4.092c.763-1.852 1.777-3.584 2.613-5.4.353-.767.832-1.462 1.142-2.255s.752-1.514 1.132-2.271.725-1.53 1.139-2.267c.452-.8.818-1.648 1.233-2.468.4-.788.809-1.57 1.2-2.363a1.923 1.923 0 01.747-.855.532.532 0 01.643.036 4.741 4.741 0 01.669.784 57.944 57.944 0 011.626 2.791c.525.976 1.082 1.933 1.629 2.9a15.666 15.666 0 011.145 2.248 1.091 1.091 0 00.154.3 12.524 12.524 0 011.5 2.579 5.05 5.05 0 00.3.486c.162.26.338.513.484.782.678 1.247 1.347 2.5 2.02 3.749.055.1.119.2.177.3a15.388 15.388 0 011.22 2.216 14.341 14.341 0 001.02 1.8c.188.333.351.68.524 1.021.017.034.018.079.041.108a16.72 16.72 0 011.28 2.307c.573.993 1.141 1.99 1.7 2.993q.921 1.665 1.813 3.347c.27.508.5 1.037.754 1.553.136.276.292.542.429.817a.5.5 0 00.455.294 3.166 3.166 0 01.688.057 1.818 1.818 0 01.592.33.415.415 0 01-.178.658 12.811 12.811 0 01-1.491.12c-1.963.013-3.926.005-5.889.005zm-12.915-25.158c-.011-.091.028-.244-.153-.123l.177.1a.387.387 0 00.039.1c.013.017.049.015.075.022l-.138-.1m5.805 2.746a.438.438 0 00.037.1c.013.019.044.025.068.037l-.131-.108c.021-.2.019-.388-.223-.46a.559.559 0 00-.044-.091c-.013-.018-.039-.025-.059-.038l.132.1c-.02.2-.07.412.221.463m3.462 6.72a.347.347 0 00.047.086c.015.016.046.017.071.025l-.123-.105c-.021-.175-.041-.35-.067-.524 0-.018-.055-.046-.074-.039a.138.138 0 00-.08.071c-.081.241-.038.329.227.486m-10.585 3.181h2.531c.133 0 .247-.234.179-.356-.354-.636-.713-1.269-1.065-1.906-.613-1.109-1.234-2.213-1.832-3.331-.924-1.727-1.83-3.464-2.746-5.2a4.282 4.282 0 00-.3-.49c-.062-.086-.156-.2-.268-.051a2.777 2.777 0 00-.39.569c-.437 1.066-1.017 2.059-1.543 3.078-1.178 2.286-2.224 4.64-3.53 6.86a1.626 1.626 0 00-.081.214c-.25.617-.215.637.485.734a9.192 9.192 0 001.368-.042c1.576-.011 3.152-.022 4.728-.041a6.3 6.3 0 011.241-.045c.461.09.914-.156 1.224 0m2.526-15.152c-.037.005-.092 0-.107.018-.04.056-.106.153-.086.184a6.316 6.316 0 00.392.517.147.147 0 00.1.04c.044-.057.108-.123.107-.186a.516.516 0 00-.4-.573m3.158 2.328c0-.161-.179-.411-.309-.416-.029 0-.066.038-.085.068a.3.3 0 00.249.468c.049 0 .1-.078.145-.12m-3.013-3.982a.9.9 0 00-.079.151 3.411 3.411 0 00.358.232.109.109 0 00.094-.024.319.319 0 000-.185.331.331 0 00-.372-.174m.3 7.972c-.022-.14-.034-.251-.058-.359-.007-.033-.042-.06-.065-.089-.042.039-.112.073-.12.118a1.145 1.145 0 000 .331.769.769 0 00.085.2l.161-.2m-2.372-8.106c-.055.022-.15.033-.159.068a.776.776 0 00-.018.311c.006.041.086.078.138.1.02.009.067-.021.089-.044a.254.254 0 00-.05-.436m14.738 23.284a2.58 2.58 0 00-.132-.3c-.026-.044-.093-.065-.141-.1-.022.067-.07.139-.06.2a1.125 1.125 0 00.113.3.1.1 0 00.1.027.776.776 0 00.121-.13m-7.06.356a.757.757 0 00-.206-.142c-.047-.014-.117.049-.176.076l.273.285.11-.219m10.352 4.426c-.022-.03-.039-.079-.067-.087-.112-.033-.311.165-.271.269a.135.135 0 00.086.066.2.2 0 00.252-.247m-5.58-2.4a1.114 1.114 0 00-.19-.066c-.022 0-.052.04-.078.062.041.035.083.1.124.1s.094-.058.144-.094m3.974-.411l-.07-.087a1.065 1.065 0 00-.074.187c0 .023.041.056.064.085l.08-.185m-8.3-10.742l-.088-.18c-.029.022-.081.043-.081.066a.952.952 0 00.028.19l.141-.076m-3.807 2.6c-.027-.024-.055-.066-.074-.063a1 1 0 00-.168.06c.021.023.047.069.063.066a1.2 1.2 0 00.179-.063m5.543-2.481l.044-.073-.075-.007zm-6.01-1.185l.038-.052-.053-.01zm-.038-11.383l.06.043.01-.066zm-1.588-2.951l.046-.068-.071-.01zm-171.37-3.604c1.424.029 2.848.1 4.271.07a13.245 13.245 0 012.056.138 1.6 1.6 0 01.339.056.489.489 0 01.359.405.4.4 0 01-.338.4 4.558 4.558 0 01-.569.074c-.307.018-.616.01-.923.03-1.132.075-1.127.077-1.036 1.145.016.186-.054.38-.039.566.08.947-.031 1.894.013 2.839a26.889 26.889 0 01.051 3.891 2.4 2.4 0 00-.017.335c.026.614.079 1.227.083 1.841q.03 5.714.039 11.428c0 1.422-.044 2.845-.05 4.267-.006 1.5.009 3 .02 4.5 0 .533.133.647.7.653.346 0 .692-.005 1.038.006a.374.374 0 01.347.389 2.372 2.372 0 01-.022.458.47.47 0 01-.477.418 11.864 11.864 0 01-2.285-.1c-.222-.076-.517.1-.777.092-1.322-.016-2.644-.066-3.967-.073a8.331 8.331 0 00-1.591-.037c-.506.1-1-.08-1.486 0a6.907 6.907 0 01-1.591 0c-.537-.033-1.076-.018-1.615-.033-.324-.009-.49-.132-.507-.351a.6.6 0 01.368-.651 1.061 1.061 0 01.217-.074 3.208 3.208 0 01.344-.025c1.228-.055 1.247-.055 1.262-1.308.009-.724-.039-1.449-.086-2.173-.042-.648.078-1.29.008-1.943a19.1 19.1 0 01-.021-1.962v-1.847c0-.654-.018-1.309-.017-1.963 0-1.654-.017-3.309.033-4.963.026-.88-.019-1.757 0-2.636.021-.847-.013-1.694.006-2.541.048-2.138.066-4.275.021-6.413a19.74 19.74 0 00.137-2.282 7.89 7.89 0 00.024-1.038.456.456 0 00-.368-.389 3.758 3.758 0 00-.459-.04c-.577-.009-1.154-.01-1.731-.019-.269 0-.539-.008-.807-.029a.548.548 0 01-.479-.43c-.031-.186.192-.416.439-.452a.546.546 0 01.114-.019c1.959.116 3.9-.311 5.87-.124a21.428 21.428 0 002.629-.062h.462v-.03m-3.344 6.709a.423.423 0 00-.088.043c-.016.013-.019.042-.028.064l.084-.139c.049-.033.206.031.117-.128l-.085.16m5.51 4.616c-.038-.062-.062-.147-.117-.181a.261.261 0 00-.214-.019 1 1 0 00-.463.749c0 .018.046.065.078.076a.139.139 0 00.111-.012c.184-.133.369-.266.541-.413.045-.039.045-.131.066-.2m.7 19.111c-.006-.06-.019-.207-.036-.353a.855.855 0 00-.034-.1c-.02-.078-.225-.158-.267-.1s-.09.137-.074.186c.078.241.175.476.27.711.011.028.048.045.073.067a.406.406 0 00.044-.1c.011-.073.013-.147.026-.309m-7.333-25.117a.343.343 0 00-.1.051c-.136.147-.008.278.039.407a.163.163 0 00.258.1 1.793 1.793 0 00.292-.166.181.181 0 000-.178.566.566 0 00-.494-.209m2.688 21.947a1.187 1.187 0 00-.094-.188c-.012-.017-.073-.013-.105 0a.567.567 0 00-.324.521c0 .032.136.081.186.062a.46.46 0 00.337-.4m4.655-20.823c-.067-.075-.088-.119-.116-.124-.067-.012-.16-.033-.2 0a.476.476 0 00-.121.594c.015.037.146.071.15.064.105-.181.2-.368.288-.534m-1.332 16.028a1.377 1.377 0 00-.273.111c-.055.036-.08.117-.119.178.063.031.129.093.189.087a.653.653 0 00.292-.1c.034-.023.021-.127.013-.192 0-.024-.052-.042-.1-.08m1.4-1.441a3.372 3.372 0 00-.056-.36.889.889 0 00-.1-.192.771.771 0 00-.117.178.817.817 0 00.035.654.639.639 0 00.07.089c.028-.026.068-.046.08-.078.038-.1.066-.208.091-.292m-5.544.25c-.153-.083-.254-.178-.3-.156-.071.03-.112.145-.143.232-.005.016.108.108.151.1a1.281 1.281 0 00.3-.175m4.082-13.714c-.091-.051-.151-.113-.209-.112a.2.2 0 00-.208.212c0 .13.109.21.224.136a.992.992 0 00.193-.236m-3.76-2.44l-.256-.171c-.02.062-.068.134-.051.184a.208.208 0 00.153.1c.038 0 .086-.061.154-.115m-.767 9.762a.36.36 0 00.065.081.332.332 0 00.4-.019c.015-.011.013-.046.019-.07-.135-.022-.27-.048-.406-.061-.025 0-.054.046-.081.07m2.2-8.253a1.7 1.7 0 00-.072-.316 1.35 1.35 0 00-.093.3c-.005.064.052.134.081.2.03-.06.087-.122.084-.181m-1.957 18.956c.091.07.168.132.25.189 0 0 .068-.063.063-.071a1.2 1.2 0 00-.16-.215.917.917 0 00-.153.1m1.938 3.765l-.046-.1c-.023.027-.069.061-.063.079a.45.45 0 00.079.116l.03-.1m.717-.934l-.057-.092c-.023.026-.071.066-.065.077a.6.6 0 00.1.115l.027-.1m.905-2.084l.2-.077c-.017-.026-.029-.065-.053-.076-.121-.057-.269 0-.233.083.013.03.055.047.083.07m-1.667-11.482l-.052.072.086.009zm3.978-13.362l-.056-.067-.067.057c.019.021.036.059.057.06s.044-.032.067-.05m-7.724-.014l.053.043.011-.067zm77.496 43.794c.042 1.191.091 2.381.121 3.571a2.663 2.663 0 01-.1.673.608.608 0 01-.77.5c-.156-.018-.3-.093-.312-.278-.019-.5-.041-1-.031-1.5a2.29 2.29 0 00-.418-1.521c-.324-.427-.58-.906-.878-1.354a7.91 7.91 0 00-3.224-2.725 6.064 6.064 0 01-.618-.31 5.01 5.01 0 00-6.327 1.258 9.272 9.272 0 00-.776 1.411 2.428 2.428 0 00.465 2.88 8.476 8.476 0 001.013.945 1.546 1.546 0 00.393.227 13.83 13.83 0 001.583.677c.957.289 1.832.8 2.813 1.015 1.247.686 2.5 1.354 3.736 2.064.564.325 1.065.759 1.625 1.093a4.727 4.727 0 011.134.97 32.246 32.246 0 011.472 1.77 5.658 5.658 0 01.718 1.932 3.1 3.1 0 01.186 1.129c-.061.62.141 1.223.06 1.831a21.021 21.021 0 01-.471 2.716.894.894 0 01-.131.316 2.729 2.729 0 00-.663 1.183 6.528 6.528 0 01-2.665 2.473c-.874.385-1.771.734-2.659 1.1a.75.75 0 01-.226.043c-1.035.075-2.044.341-3.071.448a6.752 6.752 0 01-2.186-.047c-.3-.067-.61-.069-.913-.116a10.579 10.579 0 01-3.152-1.068 14.1 14.1 0 01-1.784-1.265 4.4 4.4 0 00-.548-.407 5.378 5.378 0 01-1.54-1.2c-.44-.483-.906-.944-1.363-1.411a1.3 1.3 0 00-.19-.129.238.238 0 00-.346.165c-.012.269-.02.538-.016.807a16.848 16.848 0 00.069 2.288 1 1 0 01-.452 1.075c-.232.177-.392.139-.562-.107a.871.871 0 01-.165-.757c.2-.6-.051-1.2.085-1.817a9.112 9.112 0 00.049-1.841c.006-.616.008-1.233.014-1.849s.01-1.233.023-1.849c.011-.539.023-1.079.059-1.617a1.151 1.151 0 01.171-.417c.061-.116.327-.1.4.013a1.319 1.319 0 01.219.765c.012.694.044 1.387.036 2.08a1.426 1.426 0 00.33.951 15.013 15.013 0 001.909 2.3c.613.523 1.225 1.048 1.853 1.553a7.227 7.227 0 001.632 1.065 1.277 1.277 0 01.4.232 5.307 5.307 0 003.07 1.113 10.336 10.336 0 002.747.2 6.152 6.152 0 002.337-.543 3.371 3.371 0 002-3.119 4.385 4.385 0 00-.943-2.666 12.672 12.672 0 00-.946-1.158 4.937 4.937 0 00-1.988-1.542c-1.312-.637-2.6-1.314-3.972-1.837-1.429-.547-2.89-1.014-4.291-1.625a5.477 5.477 0 01-2.583-2.035c-.122-.194-.269-.37-.4-.559a2.942 2.942 0 01-.627-1.339 1.042 1.042 0 00-.094-.331 6.634 6.634 0 01-.386-3.4 6.114 6.114 0 01.551-1.995 10.342 10.342 0 011.867-3.009 10.472 10.472 0 012.095-1.617 7.133 7.133 0 011.426-.746 9.035 9.035 0 013.144-.649 13.15 13.15 0 017.5 2.253 9.194 9.194 0 012.035 1.848.67.67 0 00.191.12 1.177 1.177 0 00.148-.265 1.48 1.48 0 00.02-.345c.01-.655.013-1.31.03-1.965a2.965 2.965 0 01.282-1.229.29.29 0 01.479-.049 1.257 1.257 0 01.3.853c.017.693.022 1.387.027 2.081v1.618zm-17.555 1.24a.411.411 0 00.086-.036c.017-.012.023-.038.034-.059l-.088.126a.389.389 0 00-.091.035c-.018.013-.025.042-.037.064l.1-.129m16.239 12.351c-.066.028-.152.037-.192.085-.116.139-.1.4.015.388a.491.491 0 00.265-.146.25.25 0 00.055-.2c-.011-.049-.092-.084-.142-.125m-13.071-5.706c-.047-.045-.07-.081-.1-.09a.116.116 0 00-.1.018c-.1.143-.193.29-.283.439a.1.1 0 00.025.082c.065.008.168.029.191 0a5.162 5.162 0 00.271-.446m2.459 2.152a1.991 1.991 0 00-.211.125c-.008.006.013.075.038.1a1.073 1.073 0 00.252.205.212.212 0 00.191-.057c.024-.028-.006-.136-.044-.181a1.542 1.542 0 00-.225-.191m9.412 8.1c-.09-.059-.17-.116-.255-.161-.014-.007-.084.059-.082.062.056.088.119.171.18.256l.157-.156m-10.939-9.7a2.529 2.529 0 00-.112.261c-.007.021.04.059.062.089l.231-.211-.18-.139m12.914 9.7l.04-.106c-.066-.02-.177-.073-.189-.055a1.221 1.221 0 00-.112.259c.029.011.068.039.086.029a1.706 1.706 0 00.175-.127m-11.339-12.856c.021.023.045.067.063.065a1.1 1.1 0 00.177-.046c-.021-.022-.044-.063-.063-.061a1.09 1.09 0 00-.177.043m-5.716.647l-.071-.182c-.026.022-.074.044-.075.067a.993.993 0 00.026.187l.12-.072m11.58 4.167l-.07-.178c-.024.015-.068.028-.07.045a1.284 1.284 0 000 .186l.136-.053m-10.5-4.4c-.026.023-.077.055-.073.067.036.106.091.109.139.008.005-.012-.043-.05-.066-.075m12.23 3.061l.066.046.01-.068zm-2.053 4.443l.041-.053-.063-.01zm-34.17 10.505h4.738a7.814 7.814 0 011.261.1 6.191 6.191 0 001.139-.089 2.91 2.91 0 011.251.134c.219.091.526-.2.539-.466.018-.385.019-.77.019-1.155a8.6 8.6 0 01.211-2.4.8.8 0 01.118-.314.509.509 0 01.294-.127.228.228 0 01.189.1 2.877 2.877 0 01.3 1.22c0 1.156.019 2.311.022 3.467a.645.645 0 01-.62.69c-.345.018-.693-.018-1.039 0-.459.018-.918.062-1.377.095a1 1 0 01-.34.017 5.062 5.062 0 00-2.061-.045c-.456.051-.9-.154-1.366.023a1.951 1.951 0 01-1.251-.03c-.673.224-1.364-.133-2.048.073a1.574 1.574 0 01-.8-.047 1.693 1.693 0 00-1.017.018.94.94 0 01-.567.025 4.093 4.093 0 00-1.592-.051c-.643.033-1.291-.069-1.937-.073-3.312-.021-6.624-.03-9.937-.045-.192 0-.385-.014-.576-.033a.546.546 0 01-.439-.468.353.353 0 01.134-.283.957.957 0 01.433-.126c.384-.019.769-.006 1.154-.017a.488.488 0 00.461-.435c.016-.192.023-.385.022-.577-.009-3.7-.032-7.393-.027-11.089.006-4.082.039-8.165.059-12.247q0-.231-.015-.462a.369.369 0 00-.381-.356c-.616-.015-1.232-.013-1.848-.03a10.047 10.047 0 01-.917-.069.4.4 0 01-.279-.446.347.347 0 01.282-.321 7.942 7.942 0 01.918-.077c1.194-.017 2.388-.02 3.582-.03a8.8 8.8 0 001.612-.044c.493-.1.973.031 1.471-.076a6.742 6.742 0 011.728-.032c1.649.084 3.3-.124 4.949.057 2.613-.126 5.228-.039 7.843-.073.731-.009 1.465.04 2.194 0a16.546 16.546 0 012.057.188.854.854 0 01.779.854c.029 1.193.045 2.386.061 3.579a.664.664 0 01-.06.337c-.073.121-.186.273-.3.3a.575.575 0 01-.4-.156.763.763 0 01-.2-.638c.008-.886.015-1.772.03-2.658.007-.412-.1-.7-.716-.647-.381.03-.758.119-1.14.141-.422.024-.847.01-1.27 0a26.813 26.813 0 01-3.687-.082 13.017 13.017 0 01-2.763.062c-1.188-.015-2.374.034-3.561.03-.344 0-.688-.055-1.032-.077a.663.663 0 00-.776.751 41.082 41.082 0 01.141 4.956 31.6 31.6 0 01-.02 1.847c-.021.573.087 1.136.061 1.715a7.978 7.978 0 01.053 1.368c-.03.145.113.293.28.315a5.2 5.2 0 00.691.034q1.907-.006 3.813-.022a4.2 4.2 0 00.461-.027.469.469 0 00.425-.465c.025-.539.032-1.078.052-1.617a.448.448 0 01.313-.433.478.478 0 01.565.281 3.589 3.589 0 01.175.895c.026 1.193.024 2.386.028 3.579 0 .5 0 1-.02 1.5a.422.422 0 01-.449.425c-.322 0-.587-.161-.62-.407a7.484 7.484 0 01-.046-.8 31.604 31.604 0 01-.01-1.152c.011-.834-.03-.834-.819-.857a33.331 33.331 0 01-3.454-.094 4.155 4.155 0 00-1.027.111.292.292 0 00-.275.309 7.76 7.76 0 00-.019 2.163.7.7 0 01.005.23 14.553 14.553 0 00-.073 2.292 16.821 16.821 0 01.06 2.3 12.909 12.909 0 00-.082 1.817 6.89 6.89 0 01.088 1.489c-.063.691.054 1.376.026 2.064a.281.281 0 00.277.3q.46.031.922.032h4.966zm-7.52-20.145c.041.045-.009.223.147.1l-.147-.1a.713.713 0 00.006-.218.621.621 0 00-.118-.17c-.032.063-.106.147-.087.183a.917.917 0 00.2.205m-6.012-.723c.051-.053.146-.109.177-.19.066-.176-.079-.259-.205-.325a.168.168 0 00-.154.057c-.082.222-.021.4.183.458m5.511 5.087l-.075-.121c-.087.061-.176.119-.258.186-.024.02-.029.064-.042.1.062.019.148.072.182.049a1.083 1.083 0 00.194-.212m-4.436 14.745c0-.029 0-.072-.013-.086-.076-.065-.159-.123-.239-.183-.023.059-.082.151-.063.171a.8.8 0 00.231.151c.015.008.055-.034.084-.053m4.013-23.282a1.237 1.237 0 00-.221-.178c-.026-.013-.094.058-.143.091l.207.235.157-.149m-4.082 1.307l.018.188c.022-.026.054-.049.063-.079a.153.153 0 00-.014-.1c-.005-.011-.044-.008-.067-.011m5.177 19.009l-.058-.075a1.022 1.022 0 00-.061.173c0 .02.038.049.058.074l.061-.171m-1.9-19.542l-.037.053.054.01zm-.226 7.156l-.047.08.074.009zm.751 3.993l-.063-.074-.073.064c.021.024.041.065.064.067s.049-.036.073-.057m72.408-14.226h10.865c.847 0 1.7.011 2.543.024a.4.4 0 01.41.334c.039.149.158.326.113.439a6.061 6.061 0 00-.1 2.06c-.025.461.013.924.007 1.387-.005.438-.133.588-.583.742a.45.45 0 01-.546-.295 2.869 2.869 0 01-.065-.571c0-.655.024-1.31.034-1.964 0-.23 0-.461-.011-.69a.332.332 0 00-.371-.345c-.578-.009-1.155-.011-1.733-.01q-2.716 0-5.432.008c-.077 0-.154 0-.23.008a.383.383 0 00-.381.358c-.012.307-.006.615-.012.923a23.952 23.952 0 01-.082 3.454 5.327 5.327 0 00.123.9c.018.732 0 1.464 0 2.2.008 1.849-.024 3.7.053 5.546a7.7 7.7 0 00.1 2.165 1.129 1.129 0 01-.017.571 7.5 7.5 0 00-.062 2.4c.056.6-.031 1.221-.029 1.831a20.779 20.779 0 00.077 2.166 4.9 4.9 0 01-.059.679q-.021.635-.012 1.27a.513.513 0 00.56.457 20.475 20.475 0 013.226-.088 1.76 1.76 0 01.561.1c.168.049.265.325.238.6a.4.4 0 01-.351.389 3.97 3.97 0 01-.345.024c-.385.008-.771.018-1.156.017q-4.738 0-9.476-.012c-1.271 0-2.541-.042-3.812-.045a4.2 4.2 0 01-1.246-.208c-.114-.035-.226-.1-.186-.239a.521.521 0 01.155-.291.884.884 0 01.425-.139c.538-.025 1.078-.021 1.618-.04a.457.457 0 00.453-.435 3.805 3.805 0 000-.807 2.945 2.945 0 01-.013-1.481.815.815 0 00-.013-.34c-.01-.075-.059-.147-.061-.222a6.491 6.491 0 01-.008-1.036 3.671 3.671 0 00-.007-1.022 5.636 5.636 0 01.024-1.035c.02-.5.082-1 .054-1.494a7.96 7.96 0 01.026-1.809 1.452 1.452 0 00-.01-.686c-.122-.352.025-.692-.023-1.018a7.413 7.413 0 010-1.019c-.01-.65.055-1.3.029-1.945a16.779 16.779 0 010-1.586c.038-.691.01-1.386.016-2.078q.023-2.947.048-5.893a5.812 5.812 0 00-.033-.8c-.011-.086-.136-.223-.212-.225a9.331 9.331 0 00-1.129-.086c-.84.08-1.692.043-2.539.041-1.117 0-2.235-.018-3.352-.025-.231 0-.462 0-.693.019-.288.018-.423.149-.424.426 0 .847.007 1.694.014 2.542 0 .308.007.617.02.925a1.09 1.09 0 01-.467.884.385.385 0 01-.574-.171 2.932 2.932 0 01-.092-.678c0-1.117.02-2.234.033-3.352a2.38 2.38 0 00-.1-.91.521.521 0 01.355-.7 4.308 4.308 0 01.8-.072q2.543-.018 5.086-.02h7.972zm2.947 14.5c0 .315-.007.545.006.775 0 .051.08.1.123.147.028-.026.073-.048.081-.08.123-.437.319-.877.005-1.315a.185.185 0 00-.092-.066c-.015 0-.06.036-.063.06-.027.187-.048.376-.06.48m.451 4.916v-.139a.346.346 0 00-.025-.108.768.768 0 00-.057-.1c-.032.02-.08.032-.095.061-.1.2-.21.4-.293.608-.05.126.109.317.237.322.155.006.18-.1.195-.215s.021-.227.039-.429m-2.783-16.912a.578.578 0 00.207-.048.49.49 0 00.245-.473c-.006-.046-.1-.105-.164-.112-.26-.028-.277.2-.347.362a.49.49 0 00-.026.209c0 .022.055.042.085.062m-2.273 17.626a2.528 2.528 0 00.289-.226.168.168 0 00-.058-.276.321.321 0 00-.281-.01.391.391 0 00-.136.284c0 .072.112.143.186.229m4.068.823c.125-.025.257-.222.2-.329-.049-.087-.2-.219-.217-.205a.868.868 0 00-.28.291c-.042.079.2.263.3.243m.274-18.823c-.057.038-.16.072-.163.113a2.412 2.412 0 00.032.436c0 .013.073.034.079.026a2.152 2.152 0 00.234-.357c.021-.046-.039-.135-.076-.2-.013-.021-.069-.016-.106-.023m.711 5.321a.636.636 0 00-.178-.161c-.037-.015-.121.067-.175.114a.268.268 0 00.153.416c.142 0 .181-.093.193-.21 0-.037 0-.073.008-.159m-4.15 1.747c.155-.047.259-.215.182-.319a.236.236 0 00-.185-.067.21.21 0 00-.172.308c.027.045.115.053.175.078m3.953 16.259a1.091 1.091 0 00-.191.228c-.018.037.037.147.085.17.126.062.3-.1.267-.243-.012-.05-.087-.086-.162-.155m-6.607-21.395c-.027-.023-.061-.07-.079-.065-.068.02-.159.043-.186.094s.02.131.035.2a1.867 1.867 0 00.182-.127c.026-.022.033-.066.048-.1m1.5 12.954c-.007-.077 0-.126-.017-.15a.444.444 0 00-.143-.1c-.009 0-.056.048-.071.081a.173.173 0 00-.015.111c.03.1.071.2.108.3l.138-.238m4.966-15.737a1.306 1.306 0 00.2.083c.019 0 .051-.045.078-.07-.043-.035-.084-.1-.129-.1s-.094.053-.146.086m-1.289 14.693l-.064-.178c-.046.03-.125.056-.129.09a.483.483 0 00.055.184l.137-.1m-.966-8.684l-.073-.047-.008.075zm-1.381.7c-.02-.023-.037-.061-.059-.063s-.047.032-.07.05c.019.022.037.06.058.061s.047-.031.07-.048m3.863 3.733l.04-.063-.057-.01zm-1.431 1.335l.076.05.01-.078zm-106.109 6.784c.042 1.576.1 3.151.119 4.727.008.611-.072 1.223-.092 1.835-.011.313.069.383.388.456a1.892 1.892 0 01.545.143.574.574 0 01.211.378.3.3 0 01-.259.328 1.873 1.873 0 01-.569.063c-.612-.063-1.211.129-1.832.039a12.433 12.433 0 00-1.73-.036c-.616 0-1.232.006-1.849 0-1.309-.006-2.619-.011-3.928-.027a.983.983 0 01-.763-.18.546.546 0 01-.131-.288.239.239 0 01.113-.179 2.482 2.482 0 011.232-.232c.347-.013.459-.147.459-.519 0-2.233-.01-4.467-.007-6.7q.011-7.856.03-15.712v-.924c-.007-.623-.009-.6-.742-.615-.836-.013-1.672-.061-2.507-.1a.873.873 0 01-.629-.238c-.167-.168-.307-.422-.221-.493a1.971 1.971 0 01.38-.224 2.738 2.738 0 011.247-.176c1.886-.015 3.772-.013 5.658-.019 1.425 0 2.849-.013 4.274-.01a2.658 2.658 0 001.138-.113c.382-.172.735.181 1.126.021a1.269 1.269 0 011.014.035c.239.107.469-.086.671-.037.5.121 1.01-.215 1.476-.009s.9-.161 1.355.048c.169.077.448-.128.661-.1a6.7 6.7 0 002.4.017 4.2 4.2 0 001.705.018c.478-.055.978.122 1.48.114.769-.011 1.539 0 2.308.016a3.127 3.127 0 01.571.075c.218.045.459.315.405.5a.8.8 0 01-.294.461 1.662 1.662 0 01-1.095.27 10.12 10.12 0 00-1.368.053c-.421-.031-.847-.017-1.27-.014a17.006 17.006 0 01-2.3 0 14.276 14.276 0 00-1.812.029c-.578 0-1.155-.011-1.733-.011-1.616 0-3.231.01-4.847.006-.267 0-.534-.06-.8-.074-.05 0-.131.075-.151.132a1.021 1.021 0 00-.056.338q.017 3.928.042 7.856a5.35 5.35 0 00.052.8c.014.086.136.167.225.225a.426.426 0 00.222.042q2.773-.016 5.547-.038c.288 0 .407-.121.416-.424.015-.5.008-1 .027-1.5a1.829 1.829 0 01.1-.559.458.458 0 01.258-.2c.047-.019.157.039.195.093a2.606 2.606 0 01.28.493.97.97 0 01.024.343c.018 1.617.037 3.235.047 4.852a4.22 4.22 0 01-.067.685.464.464 0 01-.4.36.483.483 0 01-.521-.362 1.247 1.247 0 01-.078-.334 7.148 7.148 0 01.077-1.723c.132-.556-.068-.767-.666-.778-.886-.017-1.772-.017-2.657-.024s-1.771-.013-2.656-.013a.375.375 0 00-.422.425c0 1.309.006 2.618.009 3.927v2.773zm-5.313-.884a.364.364 0 00.1-.037c.017-.013.017-.047.025-.072l-.1.134c-.1.01-.242-.018-.117.157l.092-.182m3.237-14.347a1.743 1.743 0 00.215-.234c.013-.02-.062-.1-.1-.15-.027.027-.073.052-.077.081-.011.111-.009.223-.011.334a.345.345 0 00-.1.024c-.02.012-.026.046-.038.07l.107-.126m1.166 21.8c-.042-.043-.112-.169-.167-.163a.625.625 0 00-.41.457c0 .041.1.1.161.105.289.027.406-.079.416-.4m-5.988-7.454c-.024-.142-.052-.322-.086-.5-.005-.027-.041-.049-.062-.072-.022.03-.062.059-.063.089q0 .378.011.757c0 .022.056.066.068.06a.152.152 0 00.074-.078c.023-.069.033-.142.058-.255m5.655-12.995c.071-.012.158 0 .21-.04a.292.292 0 00.056-.407.184.184 0 00-.172-.005.778.778 0 00-.181.274c-.016.043.055.118.086.178m.322 3.934a.434.434 0 00-.01-.11c-.024-.068-.056-.133-.086-.2a1.12 1.12 0 00-.148.157c-.059.093-.146.2-.142.292a.379.379 0 00.185.238c.182.111.15-.078.178-.159a.916.916 0 00.022-.22m-3.053-6.3c-.081-.051-.124-.092-.136-.084-.12.075-.236.155-.349.24-.016.012-.012.081-.007.082.065.015.153.054.2.026a2.376 2.376 0 00.3-.265m-2.825 23.147a.59.59 0 00-.069-.182.81.81 0 00-.177-.126c-.026.064-.091.155-.07.185a.727.727 0 00.225.17c.016.009.06-.031.091-.048m4.716-14.881l-.082-.184a1.229 1.229 0 00-.1.275c-.008.056.05.121.078.181a1.846 1.846 0 00.1-.171.312.312 0 00.009-.1m-4.66-.539l.176-.074c-.036-.038-.07-.1-.109-.107a.484.484 0 00-.177.056l.109.124m5.788.659l-.058-.085a1.07 1.07 0 00-.073.177c0 .022.036.054.056.081l.075-.173m-1.028 4.982l-.185.025c.025.021.048.054.077.062a.142.142 0 00.1-.017c.013-.007.009-.045.013-.07m-2.747-14.485l.045-.06-.073-.009zm2.613 5.967h-.148l.059.07.076-.07m-.992 10.68l.04-.062-.058-.01zm150.87 7.95c-1.537 0-3.073-.093-4.61-.069-.571.009-1.143-.028-1.714-.058a2.282 2.282 0 01-.449-.1.326.326 0 01-.282-.312.392.392 0 01.374-.363c.23-.016.462-.022.693-.025.424-.006.848 0 1.271-.011.392-.012.55-.266.393-.629a2.909 2.909 0 00-.232-.391c-.206-.324-.442-.633-.617-.972a37.93 37.93 0 00-1.6-2.792 2.077 2.077 0 01-.151-.311c-.357-.851-.9-1.6-1.306-2.421a1.032 1.032 0 00-1.1-.614q-3.062.009-6.125 0a6.469 6.469 0 01-1.491-.1 6.874 6.874 0 00-1.264-.054.533.533 0 00-.534.355c-.34.69-.7 1.371-1.029 2.067-.787 1.67-1.7 3.281-2.4 4.991-.216.523-.168.64.345.644.885.008 1.771 0 2.657 0 1.039 0 2.079 0 3.118.009.267 0 .407.181.4.458-.018.433-.218.66-.629.665-.77.01-1.543.043-2.31-.007-1.494-.1-2.989.121-4.483-.064a10.661 10.661 0 00-1.487.051 2.674 2.674 0 01-1.222-.294.286.286 0 01-.085-.393.693.693 0 01.545-.378c.423-.021.846-.035 1.27-.054a.739.739 0 00.706-.511c.424-1.242 1.169-2.327 1.684-3.526.5-1.166 1.107-2.286 1.667-3.426l4.624-9.422c.708-1.45 1.394-2.911 2.092-4.366a6.8 6.8 0 01.313-.618c.643-1.051 1.083-2.2 1.634-3.3.118-.235.177-.5.276-.744a.326.326 0 01.407-.106 1.61 1.61 0 01.352.292 13.031 13.031 0 01.925 1.318 261.375 261.375 0 002.648 4.593c.723 1.219 1.308 2.52 2.05 3.726.706 1.146 1.3 2.348 1.955 3.517.169.3.36.589.546.88a4.089 4.089 0 01.7 1.314.515.515 0 00.1.208 31.26 31.26 0 011.766 3.088c1.045 1.66 1.849 3.454 2.914 5.1.336.518.493 1.119.859 1.625a.821.821 0 00.745.42c.423-.01.848-.009 1.271 0 .348.01.534.191.623.566a.387.387 0 01-.324.507 6.515 6.515 0 01-.69.039h-5.777m-5.226-5.789a.37.37 0 00.034.1c.013.018.048.021.074.031l-.117-.122-.065-.176-.094.094.169.073m-5.544-17.79c-.055.039-.133.068-.16.121s.01.122.018.185c.037-.042.092-.079.106-.127a.8.8 0 00.006-.21.333.333 0 00.1-.025c.02-.012.026-.047.039-.072l-.109.127m-2.442 13.442v-.017h3c.191 0 .383-.019.573-.036a.245.245 0 00.215-.327c-.015-.035-.029-.071-.047-.105a288.033 288.033 0 00-4.025-7.492c-.093-.167-.209-.321-.317-.48-.062-.091-.2-.066-.275.053a5.111 5.111 0 00-.285.5c-.243.521-.462 1.054-.715 1.57q-1.444 2.942-2.9 5.876c-.017.034-.028.072-.043.107a.242.242 0 00.137.369 1.37 1.37 0 00.782.1 9.537 9.537 0 011.255-.111c.883-.016 1.767 0 2.651 0m10.1 7.391l.262.128c.029-.061.1-.159.081-.176a1.235 1.235 0 00-.238-.163l-.1.21m2.815-2.248a3.191 3.191 0 00-.205.4.193.193 0 00.086.172.248.248 0 00.2-.056.3.3 0 00.042-.41c-.018-.03-.056-.049-.125-.106m-3.475-.226c.025 0 .057.007.072-.006a.337.337 0 000-.416.077.077 0 00-.072.008.328.328 0 000 .415m2.678-1.375c-.023-.064-.044-.128-.072-.19 0-.008-.051-.007-.068 0a.275.275 0 000 .372c.017.012.065.012.069 0 .028-.061.049-.126.072-.19m-83.053 28.127a9.4 9.4 0 01-2.627-.486 4.967 4.967 0 01-2.33-1.615c-.3-.348-.618-.684-.893-1.05a6.558 6.558 0 01-.745-2.035 5.222 5.222 0 01.087-2.727 7.722 7.722 0 011.142-2.753 5.951 5.951 0 011.585-1.649 11.644 11.644 0 012.742-1.444 2.791 2.791 0 011.467-.144 18.757 18.757 0 012.146.421 4 4 0 012.539 1.832 8.382 8.382 0 011.068 2.281 1.535 1.535 0 01.049.789 1.691 1.691 0 00.017.558 1.875 1.875 0 01.042.567 6.685 6.685 0 00-.124 1.607 4.029 4.029 0 01-.653 2.173 32.575 32.575 0 01-1.046 1.508 4.347 4.347 0 01-.84.778 5.834 5.834 0 01-2.776 1.3c-.26.039-.524.052-.85.083m2.013-7.049a11.46 11.46 0 00-.312-2.723 4.425 4.425 0 00-1.089-2 1.069 1.069 0 00-.364-.273.654.654 0 00-.433-.043 2.944 2.944 0 00-1.733 1.886 8.706 8.706 0 00-.548 2.918c0 .3-.059.609-.069.915a4.952 4.952 0 00.466 2.548 14.022 14.022 0 001.305 1.866.519.519 0 00.8.139 3.862 3.862 0 001.7-2.367 11.865 11.865 0 00.276-2.864m16.131 5.899l1.385-.06c.231-.01.461-.033.692-.034a.617.617 0 01.644.385c.095.261-.072.433-.2.623a1.321 1.321 0 01-1.178.6c-.808-.006-1.615.014-2.422 0a9.185 9.185 0 00-2.062.127 2.861 2.861 0 01-.573.058c-1.155.009-2.31 0-3.464.02a3.019 3.019 0 01-1.326-.344.848.848 0 01-.447-.972 5.675 5.675 0 01.367-.965 7.388 7.388 0 012.224-2.876 24.469 24.469 0 002.6-2.438 16.578 16.578 0 002.63-3.764 3.862 3.862 0 00.423-1.779.73.73 0 00-.432-.748 4.094 4.094 0 00-1.524-.487 2.533 2.533 0 00-1.633.454 3.156 3.156 0 00-1.364 1.927 1.685 1.685 0 00-.012.68 1.577 1.577 0 01-.035.56c-.082.415-.229.6-.425.6-.319-.005-.473-.24-.616-.463a2.323 2.323 0 01-.013-2.2 2.235 2.235 0 01.339-.6 6.21 6.21 0 012.619-2.186 2.015 2.015 0 00.216-.082 4.876 4.876 0 014.64.161 3.819 3.819 0 012.118 2.843 5.307 5.307 0 01.01 1.953 8.565 8.565 0 01-.959 3.062 11.629 11.629 0 01-2 2.657c-.942.84-1.857 1.709-2.851 2.491a4.623 4.623 0 00-.481.492c-.075.08-.056.158.052.175a4 4 0 001.128.139 10.016 10.016 0 011.931 0m-34.363 1.531h-3.349a1.676 1.676 0 01-1-.22c-.242-.165-.321-.3-.259-.571a4.716 4.716 0 011.286-2.285c1.24-1.261 2.5-2.5 3.759-3.745.245-.241.542-.431.8-.656a11.821 11.821 0 001.986-2.077 4.308 4.308 0 00.658-3.081.556.556 0 00-.111-.32c-.3-.3-.607-.586-.926-.863a.557.557 0 00-.316-.125 3.406 3.406 0 00-3.944 2.266.594.594 0 00.175.637c.244.242.526.446.791.668a.24.24 0 01-.079.381 1.36 1.36 0 01-1.859-.313.6.6 0 01-.123-.193 2.932 2.932 0 01.472-3.128 9.105 9.105 0 012.747-2.061 4.932 4.932 0 014.623.251 3.424 3.424 0 011.666 2.134 9.022 9.022 0 01.291 3.537 3.384 3.384 0 01-.263 1 15.863 15.863 0 01-1.037 2.044 8.8 8.8 0 01-1.545 1.839c-.746.661-1.461 1.358-2.216 2.008-.346.3-.759.515-1.131.783-.248.179-.482.38-.714.581a.272.272 0 00-.094.2c.006.045.109.109.169.11a6.655 6.655 0 001.151-.014 38.143 38.143 0 014.935-.192c.4-.012.525.2.4.6a1.1 1.1 0 00-.033.11.444.444 0 01-.461.42c-.154 0-.308-.007-.462 0a12.459 12.459 0 00-2.065.161 5.548 5.548 0 01-1.151.034h-2.77v.077m47.352-.935a15.266 15.266 0 01-1.944.022 4.394 4.394 0 00-1.489.1 2.222 2.222 0 01-1.462-.181.347.347 0 01-.073-.572 1.039 1.039 0 01.293-.178 3.168 3.168 0 01.453-.075c.368-.058.774.108 1.1-.187.013-.38.032-.759.037-1.139.022-1.808-.016-3.619.084-5.423.05-.917.171-1.832.15-2.754a3.352 3.352 0 00-.061-.567c-.009-.045-.134-.115-.17-.1a3.394 3.394 0 00-.489.282 2.526 2.526 0 01-1.064.413.926.926 0 01-1.166-.931.238.238 0 01.32-.217c.035.015.085.015.106.041.354.424.714.276 1.117.058a3.035 3.035 0 001.172-1.236c.134-.232.224-.49.354-.725a.95.95 0 01.944-.533 6.907 6.907 0 002.4-.175c.343-.1.573.064.709.425.08.211.21.472.149.654a4.611 4.611 0 00-.008 1.6c.022 1.919.051 3.839.068 5.758.011 1.347 0 2.693.01 4.04 0 .361.09.439.493.462.269.016.538.027.807.036a.667.667 0 01.573.332.687.687 0 01.133.412.417.417 0 01-.431.317c-.654.023-1.307.036-1.961.046-.385.006-.77 0-1.155 0" fill="#1a1311"/></g></svg>