<svg xmlns="http://www.w3.org/2000/svg" width="300" height="84" viewBox="0 0 300 84">
  <defs>
    <style>
      .cls-1 {
        fill: #fff;
        fill-rule: evenodd;
      }
    </style>
  </defs>
  <path id="STAMP_RALLY" data-name="STAMP RALLY" class="cls-1" d="M74.807,3.356a23.239,23.239,0,0,0-6.017-.78,15.525,15.525,0,0,0-6.758,1.349A10.025,10.025,0,0,0,57.748,7.6a9.566,9.566,0,0,0-1.468,5.21,9.426,9.426,0,0,0,1.362,5.144A12.135,12.135,0,0,0,60.9,21.446a39.836,39.836,0,0,0,4.589,2.738,31.125,31.125,0,0,1,4.351,2.407A6.726,6.726,0,0,1,71.7,28.349a3.422,3.422,0,0,1,.45,1.785,2.946,2.946,0,0,1-1.217,2.394,5.6,5.6,0,0,1-3.544.965q-5.263,0-10.817-4.443v8.358a26.4,26.4,0,0,0,12.008,3.068,16.226,16.226,0,0,0,6.7-1.323A10.523,10.523,0,0,0,79.859,35.4a9.9,9.9,0,0,0,1.627-5.634A9.311,9.311,0,0,0,80.176,24.7a12.487,12.487,0,0,0-3.438-3.571,51.423,51.423,0,0,0-5.832-3.4,20.278,20.278,0,0,1-4.443-2.751,3.294,3.294,0,0,1-1.137-2.433,2.874,2.874,0,0,1,1.111-2.367,5.178,5.178,0,0,1,3.28-.886q5,0,10.236,4.1V5.485A19.612,19.612,0,0,0,74.807,3.356Zm45.8,7.392v-7.7H84.844v7.7H98.016V40h9.309V10.748H120.6ZM163.582,40L147.342,3h-9.706L121.555,40h9.521l3.544-8.516h15.87L154.06,40h9.522ZM148.03,25.533H137.054L142.528,12.1Zm39.593-8.225L176.039,3.051h-8.49V40h9.1V16.381l10.447,12.96h0.873l10.394-12.96V40h9.31V3.051h-8.437ZM241.182,6q-3.6-2.949-10-2.949H215.606V40h9.31V25.48h6.718a16.009,16.009,0,0,0,7.286-1.494,10.284,10.284,0,0,0,4.4-4.007,11.1,11.1,0,0,0,1.455-5.66A10.154,10.154,0,0,0,241.182,6ZM229.571,19.159h-4.655V9.4H229.2a7.35,7.35,0,0,1,4.616,1.164,4.548,4.548,0,0,1,1.441,3.756q0,4.84-5.686,4.84h0ZM88.9,47.786q-3.438-3.068-9.786-3.068H63.751V81.667h9.31V66.776h1.666a7.911,7.911,0,0,1,2.989.489A6.391,6.391,0,0,1,80.07,69.13a21.563,21.563,0,0,1,2.566,4.205l4.285,8.331H97.1l-4.814-9.31a33.577,33.577,0,0,0-3.015-4.774,10.347,10.347,0,0,0-3.015-2.552,10.126,10.126,0,0,0,4.562-3.7,9.817,9.817,0,0,0,1.521-5.448A10.325,10.325,0,0,0,88.9,47.786ZM81.34,59.7a7.687,7.687,0,0,1-4.39,1.045H73.061v-9.68h4.047q5.739,0,5.739,4.919Q82.847,58.657,81.34,59.7Zm58.108,21.966-16.239-37H113.5l-16.081,37h9.522l3.544-8.517h15.869l3.571,8.517h9.521ZM123.9,67.2H112.919l5.475-13.436Zm28.829,6.824v-29.3h-9.31V81.667h26.052V74.023H152.724Zm31.474,0v-29.3h-9.31V81.667H200.94V74.023H184.2Zm37-17.324-8.834-11.981H202.4L216.756,64.1V81.667h9.31V63.946l14.15-19.228H230.139Z"/>
</svg>
