<svg xmlns="http://www.w3.org/2000/svg" width="251" height="68"><path d="M7.035 24.8a.779.779 0 00.31.675 1.2 1.2 0 00.725.225v.9H0v-.9q1.135 0 1.137-.9V2.1q0-.9-1.137-.9V.3h8.07v.9a1.2 1.2 0 00-.725.225.779.779 0 00-.31.675v9.5l10.709-8.15q.724-.6 1.138-.975c.275-.25.414-.458.414-.625a.551.551 0 00-.233-.5.983.983 0 00-.544-.15V.3h10.864v.9a2.966 2.966 0 00-1.862.75l-11.9 9.15 10.863 12.15a13.177 13.177 0 001.578 1.475 5.133 5.133 0 001.784.975v.9h-9.57v-.9q.672 0 .673-.35 0-.25-.725-1.1l-8.845-9.85-4.346 3.25zm26.331.9a1.512 1.512 0 001.06-.65 10.514 10.514 0 00.75-1.25l9.572-19.45q.36-.649.646-1.2a2.147 2.147 0 00.284-.95.733.733 0 00-.362-.7 3.139 3.139 0 00-.775-.3V.3h8.742v.9a4.4 4.4 0 00-.725.275.724.724 0 00-.361.725 1.916 1.916 0 00.181.8q.18.4.543 1.05l10.76 20.35a1.719 1.719 0 00.7.8 10.529 10.529 0 001.008.5v.9h-9.1v-.9a1.251 1.251 0 00.517-.15.481.481 0 00.311-.45 3.039 3.039 0 00-.414-1.3l-1.966-3.7H42.109l-1.862 3.55a4.08 4.08 0 00-.518 1.5c0 .367.327.55.984.55v.9h-7.347zm19.5-9.3l-4.345-9.3-4.863 9.3zM71.752 1.2q-.777 0-.777.95a2.9 2.9 0 00.078.6 9.224 9.224 0 00.388 1.15l5.535 13.9h.1l5.483-14.1a7.914 7.914 0 00.337-.975 2.5 2.5 0 00.077-.575q0-.949-.673-.95V.3h8.847v.9a.563.563 0 00-.518.25 1.027 1.027 0 00-.155.55 5.184 5.184 0 00.518 1.7l5.535 14.1h.1l5.587-14.4a3.15 3.15 0 00.363-1.35.838.838 0 00-.259-.575.825.825 0 00-.621-.275V.3h7.656v.9a.91.91 0 00-.853.6q-.285.6-.647 1.5l-7.449 19.1-.543 1.4a2.905 2.905 0 00-.234 1 .883.883 0 00.259.625.944.944 0 00.725.275v.9h-8.174v-.9a3.1 3.1 0 00.646-.3.613.613 0 00.337-.55 2.669 2.669 0 00-.181-.9q-.181-.5-.595-1.4L86.695 7.8h-.1l-5.638 14.45a9.868 9.868 0 00-.776 2.45.922.922 0 00.672 1v.9h-8.018v-.9a1.417 1.417 0 00.621-.15.514.514 0 00.31-.5 2.294 2.294 0 00-.18-.85c-.123-.3-.251-.617-.389-.95L64.92 2.6a5.381 5.381 0 00-.44-.925 1.072 1.072 0 00-.75-.475V.3h8.019zm35.641 24.5a1.516 1.516 0 001.061-.65 10.514 10.514 0 00.75-1.25l9.571-19.45q.36-.649.647-1.2a2.162 2.162 0 00.284-.95.732.732 0 00-.363-.7 3.132 3.132 0 00-.775-.3V.3h8.742v.9a4.361 4.361 0 00-.724.275.722.722 0 00-.362.725 1.916 1.916 0 00.181.8c.12.267.3.617.543 1.05l10.761 20.35a1.714 1.714 0 00.7.8 10.508 10.508 0 001.009.5v.9h-9.106v-.9a1.255 1.255 0 00.518-.15.48.48 0 00.31-.45 3.018 3.018 0 00-.414-1.3l-1.966-3.7h-12.622l-1.862 3.55a4.073 4.073 0 00-.517 1.5q0 .551.983.55v.9h-7.347zm19.5-9.3l-4.345-9.3-4.863 9.3zm18.834 1.95l.517.25a1.544 1.544 0 00.207.8 3.654 3.654 0 001.423 1.175 14.745 14.745 0 002.431 1.025 21.678 21.678 0 002.871.725 15.015 15.015 0 002.69.275c.586 0 1.346-.042 2.276-.125a13.907 13.907 0 002.742-.525 7.85 7.85 0 002.329-1.1 2.169 2.169 0 00.982-1.85 1.853 1.853 0 00-.9-1.7 6.778 6.778 0 00-2.38-.8 26.533 26.533 0 00-3.362-.325q-1.89-.075-3.855-.225a36.341 36.341 0 01-3.853-.5 10.89 10.89 0 01-3.363-1.175 6.583 6.583 0 01-2.38-2.25 6.86 6.86 0 01-.9-3.725 6.754 6.754 0 01.75-3.05 7.485 7.485 0 012.3-2.65 12.867 12.867 0 013.931-1.875A19.263 19.263 0 01155.77 0a24.828 24.828 0 014.76.4q2.017.4 3.492.85t2.483.85a4.759 4.759 0 001.681.4 1.461 1.461 0 001.035-.3l.621.4-3.57 6.25-.517-.2a2.712 2.712 0 00-.414-1.15 4.393 4.393 0 00-1.37-1.175A12.143 12.143 0 00161.72 5.3a18.931 18.931 0 00-2.793-.725 16.655 16.655 0 00-3-.275 16.615 16.615 0 00-2.354.175 11.446 11.446 0 00-2.2.525 4.9 4.9 0 00-1.63.925 1.827 1.827 0 00-.646 1.425 2.014 2.014 0 00.9 1.8 6.712 6.712 0 002.38.9 23 23 0 003.362.4q1.888.1 3.853.25a32.46 32.46 0 013.855.525 11.364 11.364 0 013.362 1.2 6.652 6.652 0 012.38 2.225 6.626 6.626 0 01.9 3.65 6.278 6.278 0 01-1.422 4.25 10.018 10.018 0 01-3.543 2.6 16.408 16.408 0 01-4.579 1.275 35.178 35.178 0 01-4.579.325 31.506 31.506 0 01-4.94-.325 18.991 18.991 0 01-3.311-.8c-.878-.317-1.578-.6-2.094-.85a3.2 3.2 0 00-1.346-.375.867.867 0 00-.672.4l-.724-.4zm26.537 7.35a1.514 1.514 0 001.061-.65 10.514 10.514 0 00.75-1.25l9.571-19.45q.36-.649.647-1.2a2.16 2.16 0 00.284-.95.732.732 0 00-.362-.7 3.146 3.146 0 00-.776-.3V.3h8.742v.9a4.372 4.372 0 00-.724.275.722.722 0 00-.362.725 1.916 1.916 0 00.181.8q.18.4.543 1.05L202.58 24.4a1.714 1.714 0 00.7.8 10.553 10.553 0 001.009.5v.9h-9.106v-.9a1.254 1.254 0 00.518-.15.48.48 0 00.31-.45 3.018 3.018 0 00-.414-1.3l-1.965-3.7h-12.623l-1.862 3.55a4.073 4.073 0 00-.517 1.5q0 .551.983.55v.9h-7.347zm19.5-9.3l-4.344-9.3-4.864 9.3zm23.179 8.4a.78.78 0 00.311.675 1.2 1.2 0 00.724.225v.9h-8.07v-.9q1.137 0 1.138-.9V2.1q0-.9-1.138-.9V.3h8.07v.9a1.2 1.2 0 00-.724.225.78.78 0 00-.311.675v9.5l10.709-8.15q.723-.6 1.138-.975c.275-.25.414-.458.414-.625a.548.548 0 00-.233-.5.982.982 0 00-.544-.15V.3h10.865v.9a2.971 2.971 0 00-1.863.75l-11.9 9.15 10.863 12.15a13.134 13.134 0 001.578 1.475 5.139 5.139 0 001.785.975v.9h-9.571v-.9c.448 0 .673-.117.673-.35q0-.25-.725-1.1l-8.845-9.85-4.346 3.25zm27.47.9q1.344 0 1.344-.9V2.1q0-.9-1.344-.9V.3H251v.9q-1.345 0-1.345.9v22.7q0 .9 1.345.9v.9h-8.587zm-181.047 40a1.511 1.511 0 001.06-.649 10.593 10.593 0 00.75-1.25l9.572-19.451q.36-.648.646-1.2a2.144 2.144 0 00.284-.95.734.734 0 00-.362-.7 3.132 3.132 0 00-.775-.3v-.9h8.742v.9a4.3 4.3 0 00-.725.274.725.725 0 00-.361.725 1.921 1.921 0 00.181.8c.12.266.3.617.543 1.05l10.76 20.349a1.719 1.719 0 00.7.8 10.29 10.29 0 001.008.5v.9h-9.1v-.9a1.262 1.262 0 00.517-.149.482.482 0 00.311-.451 3.036 3.036 0 00-.414-1.3l-1.966-3.7H70.109l-1.862 3.55a4.08 4.08 0 00-.518 1.5c0 .367.327.55.984.55v.9h-7.347zm19.5-9.3l-4.345-9.3-4.863 9.3zm34.198-16.099a21.993 21.993 0 014.5.424 10.373 10.373 0 013.466 1.35 6.293 6.293 0 012.225 2.4 7.722 7.722 0 01.776 3.625 6.32 6.32 0 01-2.018 5.05 11.026 11.026 0 01-5.431 2.351l6.88 9.5a1.394 1.394 0 00.853.6 4.46 4.46 0 00.9.1v.9h-9.673v-.9a1.969 1.969 0 00.8-.149c.225-.1.337-.234.337-.4a1.118 1.118 0 00-.207-.575 15.463 15.463 0 00-.621-.875l-5.69-7.8h-7.4v8.9a.757.757 0 00.336.674 2.327 2.327 0 001.216.225v.9h-8.949v-.9q1.5 0 1.5-.9v-22.7q0-.9-1.5-.9v-.9zm-1.346 11.7a14.627 14.627 0 003.1-.276 5.576 5.576 0 001.966-.775 2.919 2.919 0 001.034-1.175 3.482 3.482 0 00.31-1.474 3.488 3.488 0 00-.31-1.476 2.938 2.938 0 00-1.034-1.175 5.615 5.615 0 00-1.966-.774 14.627 14.627 0 00-3.1-.276h-8.949V52zM158 45.7a.908.908 0 00-.44-.824 3.051 3.051 0 00-1.526-.276h-16.761v6.2h10.14a3.755 3.755 0 001.6-.276q.569-.273.57-1.425h.93v7.8h-.93q0-1.149-.57-1.474a3.258 3.258 0 00-1.6-.326h-10.14v6.9h17.278a2.132 2.132 0 001.268-.351 1.106 1.106 0 00.491-.95h.932v6.851h-.932c0-.5-.164-.785-.491-.851a6.62 6.62 0 00-1.268-.1h-24.106v-.9a1.01 1.01 0 00.646-.225.807.807 0 00.285-.674v-22.7a.807.807 0 00-.285-.674 1.01 1.01 0 00-.646-.225v-.9h23.589a2.651 2.651 0 001.526-.326 1.031 1.031 0 00.44-.875h.931v6.6zm5.069 20a1.515 1.515 0 001.061-.649 11.005 11.005 0 00.75-1.25l9.571-19.451q.36-.648.646-1.2a2.148 2.148 0 00.285-.95.735.735 0 00-.363-.7 3.128 3.128 0 00-.775-.3v-.9h8.742v.9a4.317 4.317 0 00-.725.274.725.725 0 00-.361.725 1.921 1.921 0 00.181.8c.12.266.3.617.543 1.05l10.76 20.349a1.716 1.716 0 00.7.8 10.4 10.4 0 001.008.5v.9h-9.1v-.9a1.266 1.266 0 00.518-.149.481.481 0 00.31-.451 3.036 3.036 0 00-.414-1.3l-1.966-3.7h-12.622l-1.862 3.55a4.09 4.09 0 00-.518 1.5c0 .367.327.55.984.55v.9h-7.347zm19.5-9.3l-4.345-9.3-4.863 9.3z" fill="#fff"/><path fill="none" d="M0 0h251v68H0z"/></svg>