<?xml version="1.0" encoding="utf-8"?>
<!-- Generator: Adobe Illustrator 26.0.2, SVG Export Plug-In . SVG Version: 6.00 Build 0)  -->
<svg version="1.1" id="レイヤー_1" xmlns="http://www.w3.org/2000/svg" xmlns:xlink="http://www.w3.org/1999/xlink" x="0px"
	 y="0px" viewBox="0 0 264 18" style="enable-background:new 0 0 264 18;" xml:space="preserve">
<style type="text/css">
	.st0{fill:none;}
	.st1{fill:#FFFFFF;stroke:#FFFFFF;stroke-width:0.4794;stroke-miterlimit:10;}
</style>
<path class="st0" d="M0,0h264v18H0V0z"/>
<path class="st0" d="M0,0"/>
<g>
	<path class="st1" d="M22.8,1.6l5.1,6.1l5.1-6.1h2.7V17h-3V6.2h-0.1l-4.4,5.4h-0.4l-4.4-5.4h-0.1V17h-3V1.6H22.8z"/>
	<path class="st1" d="M44.3,1.6V17h-3V1.6H44.3z"/>
	<path class="st1" d="M52.6,1.6l5.1,6.1l5.1-6.1h2.7V17h-3V6.2h-0.1l-4.4,5.4h-0.4L53,6.2h-0.1V17h-3V1.6H52.6z"/>
	<path class="st1" d="M78.9,1.4c1.6,0,3,0.3,4.3,1c1.3,0.7,2.3,1.6,3,2.8c0.8,1.2,1.1,2.6,1.1,4.1c0,1.4-0.4,2.8-1.1,4
		c-0.7,1.2-1.8,2.2-3,2.9c-1.3,0.7-2.7,1-4.4,1c-1.6,0-3-0.3-4.3-1c-1.3-0.7-2.3-1.6-3-2.8s-1.1-2.5-1.1-4c0-1.4,0.4-2.7,1.1-4
		s1.7-2.2,3-2.9S77.3,1.4,78.9,1.4z M73.5,9.3c0,1,0.2,1.9,0.7,2.8s1.1,1.4,1.9,1.9c0.8,0.4,1.8,0.7,2.8,0.7c1.6,0,2.9-0.5,3.9-1.5
		c1-1,1.5-2.3,1.5-3.8c0-1-0.2-1.9-0.7-2.8c-0.5-0.8-1.1-1.5-1.9-1.9C80.9,4.2,79.9,4,78.9,4s-2,0.2-2.8,0.7
		c-0.8,0.5-1.5,1.1-1.9,1.9C73.7,7.4,73.5,8.3,73.5,9.3z"/>
	<path class="st1" d="M96.9,1.4c1.5,0,2.9,0.4,4.3,1.1v2.6c-1.6-1-3-1.4-4.2-1.4c-0.7,0-1.3,0.1-1.8,0.4s-0.6,0.7-0.6,1.2
		c0,0.6,0.4,1.1,1.2,1.6c0.2,0.1,1.1,0.6,2.5,1.2c1.3,0.6,2.2,1.3,2.7,2c0.6,0.7,0.8,1.6,0.8,2.6c0,1.3-0.5,2.4-1.4,3.2
		c-1,0.8-2.2,1.2-3.7,1.2c-1,0-1.8-0.1-2.5-0.3c-0.7-0.2-1.5-0.6-2.4-1.1v-2.9c1.6,1.4,3.2,2,4.6,2c0.7,0,1.3-0.2,1.8-0.5
		s0.7-0.7,0.7-1.3c0-0.7-0.4-1.3-1.2-1.7c-0.6-0.4-1.5-0.8-2.5-1.3C94,9.6,93.1,9,92.5,8.2c-0.6-0.7-0.9-1.6-0.9-2.6
		c0-1.3,0.5-2.3,1.4-3.1C94.1,1.8,95.3,1.4,96.9,1.4z"/>
	<path class="st1" d="M114.1,1.6l6.8,15.4h-3.1l-1.6-3.7h-6.8l-1.5,3.7h-3.1L111,1.6H114.1z M110.2,11h5l-2.6-6.1L110.2,11z"/>
	<path class="st1" d="M144.6,1.6v2.3h-5.5V17h-3V3.9h-5.5V1.6H144.6z"/>
	<path class="st1" d="M159.1,1.6v2.3h-7v4h6.7v2.3h-6.7v4.4h7.1V17h-10.1V1.6H159.1z"/>
	<path class="st1" d="M169.8,1.6c1.4,0,2.6,0.4,3.5,1.2s1.4,1.8,1.4,3.1c0,0.9-0.2,1.6-0.7,2.3s-1.1,1.2-2,1.5
		c0.5,0.3,0.9,0.6,1.3,1.1c0.4,0.5,0.9,1.2,1.4,2.3c0.9,1.9,1.6,3.1,2.1,3.9h-3.3c-0.2-0.3-0.5-0.9-0.9-1.6
		c-0.8-1.6-1.5-2.7-1.9-3.3s-0.8-1-1.1-1.2s-0.8-0.4-1.3-0.4h-1.1V17h-3V1.6H169.8z M169.1,8.2c0.8,0,1.4-0.2,1.8-0.6
		c0.4-0.4,0.7-0.9,0.7-1.6c0-0.7-0.2-1.2-0.7-1.6c-0.4-0.3-1.1-0.5-1.9-0.5h-1.8v4.3H169.1z"/>
	<path class="st1" d="M186.6,1.6c1.4,0,2.6,0.4,3.5,1.2s1.4,1.8,1.4,3.1c0,0.9-0.2,1.6-0.7,2.3s-1.1,1.2-2,1.5
		c0.5,0.3,0.9,0.6,1.3,1.1c0.4,0.5,0.9,1.2,1.4,2.3c0.9,1.9,1.6,3.1,2.1,3.9h-3.3c-0.2-0.3-0.5-0.9-0.9-1.6
		c-0.8-1.6-1.5-2.7-1.9-3.3s-0.8-1-1.1-1.2s-0.8-0.4-1.3-0.4H184V17h-3V1.6H186.6z M185.9,8.2c0.8,0,1.4-0.2,1.8-0.6
		c0.4-0.4,0.7-0.9,0.7-1.6c0-0.7-0.2-1.2-0.7-1.6c-0.4-0.3-1.1-0.5-1.9-0.5H184v4.3H185.9z"/>
	<path class="st1" d="M205.6,1.6l6.8,15.4h-3.1l-1.6-3.7h-6.8l-1.5,3.7h-3.1l6.3-15.4H205.6z M201.7,11h5l-2.6-6.1L201.7,11z"/>
	<path class="st1" d="M223.8,1.4c0.9,0,1.7,0.1,2.6,0.3c0.8,0.2,1.7,0.5,2.7,1v2.8c-0.9-0.5-1.8-0.9-2.6-1.2S224.9,4,224,4
		c-1.1,0-2.1,0.2-3,0.7c-0.9,0.5-1.6,1.1-2.1,1.9s-0.7,1.7-0.7,2.7c0,1,0.2,1.9,0.7,2.8s1.2,1.4,2,1.9c0.9,0.4,1.9,0.7,3,0.7
		c0.8,0,1.7-0.1,2.4-0.4c0.8-0.2,1.7-0.7,2.9-1.3v2.8c-1,0.5-1.9,0.9-2.8,1.1c-0.8,0.2-1.8,0.3-2.9,0.3c-1.6,0-3.1-0.3-4.3-1
		s-2.3-1.6-3-2.8c-0.7-1.2-1.1-2.5-1.1-4c0-1.5,0.4-2.9,1.1-4.2s1.8-2.2,3.1-2.9C220.7,1.8,222.2,1.4,223.8,1.4z"/>
	<path class="st1" d="M244.3,1.6v2.3h-7v4h6.7v2.3h-6.7v4.4h7.1V17h-10.1V1.6H244.3z"/>
</g>
<text transform="matrix(1 0 0 1 17.0986 40.0883)" class="st1" style="font-family:'GillSans-SemiBold'; font-size:22.5429px; letter-spacing:2;">MIMOSA TERRACE</text>
</svg>
