<?xml version="1.0" encoding="utf-8"?>
<!-- Generator: Adobe Illustrator 26.0.2, SVG Export Plug-In . SVG Version: 6.00 Build 0)  -->
<svg version="1.1" id="レイヤー_1" xmlns="http://www.w3.org/2000/svg" xmlns:xlink="http://www.w3.org/1999/xlink" x="0px"
	 y="0px" viewBox="0 0 213 34" style="enable-background:new 0 0 213 34;" xml:space="preserve">
<style type="text/css">
	.st0{fill:none;}
	.st1{enable-background:new    ;}
	.st2{fill:#FFFFFF;}
	.st3{fill:none;stroke:#FFFFFF;stroke-width:0.9954;stroke-miterlimit:10;}
</style>
<path class="st0" d="M0,0"/>
<g class="st1">
	<path class="st2" d="M20.3,0.9l14.1,31.9h-6.5l-3.3-7.8H10.4l-3.1,7.8H0.8L14,0.9H20.3z M12.3,20.4h10.3L17.2,7.7L12.3,20.4z"/>
	<path class="st2" d="M49.9,0.9c2.9,0,5.3,0.8,7.2,2.3s2.8,3.4,2.8,5.7c0,1.5-0.4,2.8-1.2,3.9c-0.8,1.1-1.9,2-3.3,2.7v0.3
		c2.2,0.5,4,1.5,5.2,3c1.2,1.5,1.9,3.2,1.9,5.2c0,1.8-0.5,3.3-1.4,4.7c-0.9,1.4-2.2,2.4-3.8,3.1c-1.6,0.7-3.5,1.1-5.7,1.1H38.2V0.9
		H49.9z M48.2,14.2c1.6,0,2.9-0.4,3.9-1.2c0.9-0.8,1.4-1.9,1.4-3.2c0-1.2-0.4-2.2-1.3-2.9s-2-1.1-3.4-1.1h-4.4v8.4H48.2z M49.7,28
		c2.1,0,3.7-0.4,4.7-1.2c1.1-0.8,1.6-1.9,1.6-3.5c0-1.4-0.5-2.4-1.6-3.2c-1.1-0.8-2.5-1.2-4.3-1.2h-5.8v9H49.7z"/>
	<path class="st2" d="M83.9,0.5c3.3,0,6.3,0.7,8.9,2c2.6,1.4,4.7,3.3,6.3,5.9c1.6,2.6,2.4,5.4,2.4,8.4c0,3-0.8,5.8-2.3,8.3
		c-1.5,2.6-3.6,4.5-6.3,5.9c-2.7,1.4-5.7,2.1-9,2.1c-3.3,0-6.3-0.7-9-2.1c-2.7-1.4-4.8-3.4-6.3-5.9c-1.5-2.5-2.3-5.3-2.3-8.3
		c0-2.9,0.8-5.7,2.3-8.2c1.5-2.6,3.6-4.6,6.2-6C77.4,1.2,80.5,0.5,83.9,0.5z M72.6,16.9c0,2.1,0.5,4,1.4,5.7c1,1.7,2.3,3,4,3.9
		c1.7,0.9,3.7,1.4,5.8,1.4c3.3,0,6-1,8.1-3.1s3.2-4.7,3.2-8c0-2.1-0.5-4-1.4-5.7c-1-1.7-2.3-3-4-3.9C88,6.3,86,5.8,83.9,5.8
		c-2.2,0-4.1,0.5-5.8,1.4c-1.7,0.9-3.1,2.2-4,3.9S72.6,14.8,72.6,16.9z"/>
	<path class="st2" d="M113.2,0.9v18.6c0,1.9,0.3,3.4,0.9,4.5c0.6,1.1,1.5,2.1,2.8,2.8c1.3,0.7,2.8,1.1,4.5,1.1c1.9,0,3.5-0.3,4.8-1
		s2.3-1.6,2.9-2.8c0.6-1.2,0.9-2.9,0.9-5V0.9h6.2v19c0,4.3-1.3,7.6-3.9,9.9c-2.6,2.3-6.2,3.5-10.9,3.5c-3,0-5.5-0.5-7.7-1.6
		c-2.2-1.1-3.8-2.6-5-4.6s-1.7-4.3-1.7-7V0.9H113.2z"/>
	<path class="st2" d="M169.5,0.9v4.8h-11.3v27.1H152V5.7h-11.3V0.9H169.5z"/>
</g>
<g class="st1">
	<path class="st3" d="M20.3,0.9l14.1,31.9h-6.5L24.6,25H10.4l-3.1,7.8H0.8L14,0.9H20.3z M12.3,20.4h10.3L17.2,7.7L12.3,20.4z"/>
	<path class="st3" d="M49.9,0.9c2.9,0,5.3,0.8,7.2,2.3s2.8,3.4,2.8,5.7c0,1.5-0.4,2.8-1.2,3.9s-1.9,2-3.3,2.7v0.3
		c2.2,0.5,4,1.5,5.2,3s1.9,3.2,1.9,5.2c0,1.8-0.5,3.3-1.4,4.7c-0.9,1.4-2.2,2.4-3.8,3.1c-1.6,0.7-3.5,1.1-5.7,1.1H38.2v-32H49.9z
		 M48.2,14.2c1.6,0,2.9-0.4,3.9-1.2c0.9-0.8,1.4-1.9,1.4-3.2c0-1.2-0.4-2.2-1.3-2.9s-2-1.1-3.4-1.1h-4.4v8.4H48.2z M49.7,28
		c2.1,0,3.7-0.4,4.7-1.2c1.1-0.8,1.6-1.9,1.6-3.5c0-1.4-0.5-2.4-1.6-3.2c-1.1-0.8-2.5-1.2-4.3-1.2h-5.8v9h5.4V28z"/>
	<path class="st3" d="M83.9,0.5c3.3,0,6.3,0.7,8.9,2c2.6,1.4,4.7,3.3,6.3,5.9c1.6,2.6,2.4,5.4,2.4,8.4s-0.8,5.8-2.3,8.3
		c-1.5,2.6-3.6,4.5-6.3,5.9c-2.7,1.4-5.7,2.1-9,2.1s-6.3-0.7-9-2.1s-4.8-3.4-6.3-5.9s-2.3-5.3-2.3-8.3c0-2.9,0.8-5.7,2.3-8.2
		c1.5-2.6,3.6-4.6,6.2-6C77.4,1.2,80.5,0.5,83.9,0.5z M72.6,16.9c0,2.1,0.5,4,1.4,5.7c1,1.7,2.3,3,4,3.9s3.7,1.4,5.8,1.4
		c3.3,0,6-1,8.1-3.1s3.2-4.7,3.2-8c0-2.1-0.5-4-1.4-5.7c-1-1.7-2.3-3-4-3.9C88,6.3,86,5.8,83.9,5.8c-2.2,0-4.1,0.5-5.8,1.4
		c-1.7,0.9-3.1,2.2-4,3.9S72.6,14.8,72.6,16.9z"/>
	<path class="st3" d="M113.2,0.9v18.6c0,1.9,0.3,3.4,0.9,4.5s1.5,2.1,2.8,2.8c1.3,0.7,2.8,1.1,4.5,1.1c1.9,0,3.5-0.3,4.8-1
		s2.3-1.6,2.9-2.8c0.6-1.2,0.9-2.9,0.9-5V0.9h6.2v19c0,4.3-1.3,7.6-3.9,9.9c-2.6,2.3-6.2,3.5-10.9,3.5c-3,0-5.5-0.5-7.7-1.6
		s-3.8-2.6-5-4.6s-1.7-4.3-1.7-7V0.9H113.2z"/>
	<path class="st3" d="M169.5,0.9v4.8h-11.3v27.1H152V5.7h-11.3V0.9H169.5z"/>
</g>
<text transform="matrix(1 0 0 1 0.6162 79.8389)" class="st3" style="font-family:'GillSans-SemiBold'; font-size:46.8021px;">ABOUT</text>
</svg>
