<svg xmlns="http://www.w3.org/2000/svg" width="214.939" height="14.362"><path d="M12.226 1.558c0-.312-.2-.467-.591-.467V.624h4.138v.467a.524.524 0 00-.336.117.42.42 0 00-.148.351V13.35a.42.42 0 00.148.351.52.52 0 00.336.117v.467h-4.138v-.467c.393 0 .591-.156.591-.468V8.467H3.573v4.883a.423.423 0 00.147.351.523.523 0 00.336.117v.467H-.001v-.467q.51 0 .51-.468V1.559q0-.467-.51-.467V.625h4.057v.467a.526.526 0 00-.336.117.423.423 0 00-.147.351v4.415h8.653zM27.999.468a11.134 11.134 0 013.009.428 9.49 9.49 0 012.795 1.286 7.047 7.047 0 012.068 2.169 5.8 5.8 0 01.807 3.1 5.8 5.8 0 01-.807 3.1 7.04 7.04 0 01-2.068 2.169 8.791 8.791 0 01-2.795 1.247 12.172 12.172 0 01-3.009.39 12.168 12.168 0 01-3.01-.39 8.782 8.782 0 01-2.795-1.247 7.032 7.032 0 01-2.069-2.169 5.811 5.811 0 01-.806-3.1 5.812 5.812 0 01.806-3.1 7.038 7.038 0 012.069-2.169A9.479 9.479 0 0124.989.896a11.13 11.13 0 013.01-.428zm0 2.389a6.966 6.966 0 00-2.043.312 6.324 6.324 0 00-1.841.9 4.707 4.707 0 00-1.33 1.441 3.737 3.737 0 00-.51 1.948 3.737 3.737 0 00.51 1.948 4.707 4.707 0 001.33 1.441 6.319 6.319 0 001.841.9 6.962 6.962 0 002.043.312 6.964 6.964 0 002.041-.312 6.337 6.337 0 001.842-.9 4.744 4.744 0 001.33-1.441 3.746 3.746 0 00.51-1.948 3.746 3.746 0 00-.51-1.948 4.743 4.743 0 00-1.33-1.441 6.341 6.341 0 00-1.842-.9 6.968 6.968 0 00-2.041-.312zm13.543 7.142l.269.13a.794.794 0 00.107.416 1.893 1.893 0 00.738.61 7.7 7.7 0 001.263.532 11.359 11.359 0 001.492.377 7.826 7.826 0 001.4.143c.3 0 .7-.021 1.183-.065a7.182 7.182 0 001.424-.273 4.045 4.045 0 001.209-.571 1.125 1.125 0 00.51-.961.96.96 0 00-.469-.883 3.54 3.54 0 00-1.236-.415 13.9 13.9 0 00-1.747-.169q-.981-.039-2-.117a18.792 18.792 0 01-2-.26 5.68 5.68 0 01-1.746-.61 3.423 3.423 0 01-1.237-1.169 3.565 3.565 0 01-.469-1.935 3.509 3.509 0 01.389-1.584 3.876 3.876 0 011.2-1.377 6.67 6.67 0 012.042-.974 10.009 10.009 0 012.9-.376 12.894 12.894 0 012.472.207q1.048.208 1.813.442t1.289.441a2.475 2.475 0 00.875.208.756.756 0 00.537-.156l.323.208-1.854 3.246-.269-.1a1.4 1.4 0 00-.214-.6 2.292 2.292 0 00-.712-.611 6.257 6.257 0 00-1.169-.532 9.835 9.835 0 00-1.451-.377 8.667 8.667 0 00-1.559-.143 8.6 8.6 0 00-1.222.091 5.862 5.862 0 00-1.141.273 2.537 2.537 0 00-.848.48.95.95 0 00-.336.74 1.049 1.049 0 00.471.935 3.493 3.493 0 001.236.467 11.968 11.968 0 001.747.208q.981.053 2 .13a16.842 16.842 0 012 .273 5.924 5.924 0 011.748.623 3.47 3.47 0 011.236 1.156 3.449 3.449 0 01.47 1.9 3.26 3.26 0 01-.739 2.208 5.192 5.192 0 01-1.84 1.351 8.549 8.549 0 01-2.378.662 18.264 18.264 0 01-2.379.169 16.336 16.336 0 01-2.565-.169 9.923 9.923 0 01-1.72-.415 11.729 11.729 0 01-1.088-.442 1.657 1.657 0 00-.7-.195.449.449 0 00-.35.208l-.376-.208zm24.56 3.35q0 .467.591.468v.467h-4.139v-.467a.524.524 0 00.336-.117.423.423 0 00.146-.351V3.013h-4.434a.942.942 0 00-.47.13.517.517 0 00-.229.493h-.483V0h.483a.517.517 0 00.229.493.943.943 0 00.47.13h11.93a.946.946 0 00.471-.13.518.518 0 00.229-.493h.483v3.636h-.483a.518.518 0 00-.229-.493.945.945 0 00-.471-.13h-4.434zm33.723-.935a.757.757 0 01-.149-.013.783.783 0 00-.147-.013 2.537 2.537 0 00-.765.312q-.606.312-1.532.7a13.9 13.9 0 01-2.11.675 10.489 10.489 0 01-2.472.286 12.562 12.562 0 01-3.252-.416 8.238 8.238 0 01-2.754-1.286 6.407 6.407 0 01-1.895-2.169 6.318 6.318 0 01-.7-3.039 6.341 6.341 0 01.7-3.026 6.494 6.494 0 011.895-2.195A8.486 8.486 0 0189.398.905 11.88 11.88 0 0192.65.464a13.636 13.636 0 012.485.207q1.115.208 1.948.442a10.989 10.989 0 011.317.441 2.432 2.432 0 00.591.208.278.278 0 00.229-.13c.063-.086.111-.156.147-.208l.4.312-2.1 3.143-.268-.182a.933.933 0 00-.014-.156 2.274 2.274 0 00-.041-.181c-.035-.191-.214-.386-.538-.585a5.558 5.558 0 00-1.2-.532 12.627 12.627 0 00-1.5-.39 7.641 7.641 0 00-1.465-.156 7.457 7.457 0 00-2.163.312 5.435 5.435 0 00-1.8.909 4.476 4.476 0 00-1.224 1.467 4.21 4.21 0 00-.456 1.987 4.207 4.207 0 00.456 1.987 4.463 4.463 0 001.224 1.467 5.423 5.423 0 001.8.909 7.457 7.457 0 002.163.312 8.889 8.889 0 001.8-.195 11.173 11.173 0 001.72-.493 5.773 5.773 0 001.3-.675q.524-.376.524-.714a.475.475 0 00-.107-.312l.376-.208 1.773 2.753zM111.648.468a11.131 11.131 0 013.009.428 9.5 9.5 0 012.795 1.286 7.031 7.031 0 012.069 2.169 5.808 5.808 0 01.806 3.1 5.807 5.807 0 01-.806 3.1 7.025 7.025 0 01-2.069 2.169 8.8 8.8 0 01-2.795 1.247 12.169 12.169 0 01-3.009.39 12.174 12.174 0 01-3.01-.39 8.786 8.786 0 01-2.795-1.247 7.043 7.043 0 01-2.069-2.169 5.819 5.819 0 01-.805-3.1 5.821 5.821 0 01.805-3.1 7.05 7.05 0 012.069-2.169 9.485 9.485 0 012.795-1.286 11.135 11.135 0 013.01-.428zm0 2.389a6.974 6.974 0 00-2.043.312 6.327 6.327 0 00-1.84.9 4.727 4.727 0 00-1.331 1.441 3.741 3.741 0 00-.509 1.948 3.741 3.741 0 00.509 1.948 4.727 4.727 0 001.331 1.441 6.322 6.322 0 001.84.9 6.97 6.97 0 002.043.312 6.954 6.954 0 002.041-.312 6.322 6.322 0 001.841-.9 4.739 4.739 0 001.331-1.441 3.742 3.742 0 00.51-1.948 3.742 3.742 0 00-.51-1.948 4.739 4.739 0 00-1.331-1.441 6.327 6.327 0 00-1.841-.9 6.958 6.958 0 00-2.041-.312zm12.007 10.96a.623.623 0 00.376-.117.4.4 0 00.161-.351V1.506a.341.341 0 00-.161-.325.76.76 0 00-.376-.091V.623h5.025v.467a.618.618 0 00-.283.078.249.249 0 00-.146.234.784.784 0 00.107.338c.071.138.15.286.241.442l3.843 6.753 3.87-6.675c.124-.225.218-.4.281-.532a.824.824 0 00.094-.351c0-.19-.117-.286-.349-.286V.624h4.971v.467a.755.755 0 00-.376.091.34.34 0 00-.161.325V13.35a.4.4 0 00.161.351.619.619 0 00.376.117v.467h-4.219v-.467q.725 0 .725-.468V4.727h-.053l-5.4 9.557h-.082l-5.289-9.588h-.054v8.649c0 .312.25.468.753.468v.467h-4.035zm21.796.467v-.467q.994 0 .994-.468V1.558q0-.467-.994-.467V.624h9.458a7.636 7.636 0 014.058.922 3.4 3.4 0 011.477 3.13 3.4 3.4 0 01-1.477 3.13 7.635 7.635 0 01-4.058.922h-5.4v4.623q0 .467.86.468v.467zm9.781-7.947a3.176 3.176 0 001.518-.338 1.363 1.363 0 00.631-1.325 1.364 1.364 0 00-.631-1.325 3.185 3.185 0 00-1.518-.338h-5.725v3.324zm5.321 7.48a.79.79 0 00.551-.338 5.525 5.525 0 00.389-.649l4.972-10.1c.125-.225.237-.432.335-.623a1.114 1.114 0 00.149-.493.382.382 0 00-.189-.364 1.669 1.669 0 00-.4-.156V.627h4.542v.467a2.2 2.2 0 00-.376.143.376.376 0 00-.188.377.986.986 0 00.094.416q.094.208.282.545l5.59 10.57a.882.882 0 00.363.416 5.688 5.688 0 00.523.26v.467h-4.729v-.467a.65.65 0 00.268-.078.251.251 0 00.162-.234 1.585 1.585 0 00-.215-.675l-1.021-1.922h-6.557l-.967 1.844a2.141 2.141 0 00-.269.779c0 .191.17.286.511.286v.467h-3.815zm10.13-4.831l-2.257-4.831-2.526 4.831zm9.404 4.831c.34 0 .511-.156.511-.468V1.558c0-.312-.171-.467-.511-.467V.624h4.595v.467c-.144 0-.214.087-.214.26 0 .139.178.381.537.727l7.712 7.74V1.559q0-.467-.7-.467V.625h4.059v.467q-.511 0-.511.467V13.35q0 .467.511.468v.467h-4.354v-.467c.231 0 .349-.078.349-.234q0-.181-.43-.6l-8.2-8.259v8.623q0 .467.618.468v.467h-3.978zM204.7.623v.467a1.587 1.587 0 00-.457.065.3.3 0 00-.216.325 2.168 2.168 0 00.391.74c.258.39.564.831.913 1.325s.712 1 1.088 1.519.681.961.914 1.325l3.144-4.181c.143-.208.258-.372.349-.493a.582.582 0 00.134-.338c0-.121-.084-.2-.255-.234a2.394 2.394 0 00-.47-.052V.624h4.7v.467a1.991 1.991 0 00-.4.039 1.053 1.053 0 00-.389.182 2.364 2.364 0 00-.43.416c-.151.182-.336.429-.551.74l-4.567 6.259v4.623q0 .467.617.468v.467h-4.245v-.467a.663.663 0 00.4-.117.4.4 0 00.161-.351V8.727l-5.185-7.012a1.454 1.454 0 00-.579-.442 1.631 1.631 0 00-.657-.182V.624z" fill="#292929"/></svg>