<svg xmlns="http://www.w3.org/2000/svg" width="110" height="17"><path d="M.005 15.419a.913.913 0 00.637-.389 6.49 6.49 0 00.449-.75L6.833 2.61c.145-.26.273-.5.389-.72a1.3 1.3 0 00.17-.57.439.439 0 00-.217-.42A1.918 1.918 0 006.71.719V.18h5.244v.539a2.75 2.75 0 00-.434.165.437.437 0 00-.217.436 1.148 1.148 0 00.107.479c.072.161.182.371.326.631l6.457 12.21a1.035 1.035 0 00.418.48 6.262 6.262 0 00.605.3v.54h-5.463v-.54a.754.754 0 00.311-.089.286.286 0 00.186-.27 1.815 1.815 0 00-.248-.78l-1.18-2.22H5.25l-1.117 2.13a2.462 2.462 0 00-.311.9c0 .221.2.33.59.33v.54H.005zm11.7-5.58l-2.607-5.58-2.918 5.58zM32.84.18a13.132 13.132 0 012.7.255 6.221 6.221 0 012.08.81 3.779 3.779 0 011.334 1.44 4.626 4.626 0 01.467 2.175 3.8 3.8 0 01-1.211 3.03 6.6 6.6 0 01-3.26 1.409l4.129 5.7a.837.837 0 00.512.36 2.73 2.73 0 00.543.059v.54h-5.8v-.54a1.178 1.178 0 00.482-.089c.135-.06.2-.14.2-.241a.67.67 0 00-.123-.344c-.084-.13-.209-.3-.373-.526l-3.414-4.679h-4.439v5.339a.454.454 0 00.2.406 1.411 1.411 0 00.73.134v.54h-5.369v-.54c.6 0 .9-.179.9-.54V1.258c0-.359-.3-.54-.9-.54V.179zm-.809 7.02a8.8 8.8 0 001.863-.165 3.373 3.373 0 001.18-.465 1.773 1.773 0 00.621-.705 2.113 2.113 0 00.186-.885 2.117 2.117 0 00-.186-.886 1.77 1.77 0 00-.621-.7 3.391 3.391 0 00-1.18-.466 8.871 8.871 0 00-1.863-.165h-5.369v4.441zM52.672-.004a12.863 12.863 0 013.477.495 10.969 10.969 0 013.229 1.485 8.152 8.152 0 012.391 2.505 6.725 6.725 0 01.93 3.585 6.724 6.724 0 01-.93 3.585 8.151 8.151 0 01-2.391 2.505 10.181 10.181 0 01-3.229 1.44 14.063 14.063 0 01-3.477.449 14.063 14.063 0 01-3.477-.449 10.151 10.151 0 01-3.227-1.44 8.128 8.128 0 01-2.391-2.505 6.707 6.707 0 01-.932-3.585 6.708 6.708 0 01.932-3.585 8.129 8.129 0 012.391-2.505A10.935 10.935 0 0149.195.491a12.863 12.863 0 013.477-.495zm0 2.759a8.014 8.014 0 00-2.359.361 7.312 7.312 0 00-2.125 1.035 5.45 5.45 0 00-1.537 1.665 4.317 4.317 0 00-.59 2.25 4.317 4.317 0 00.59 2.25 5.45 5.45 0 001.537 1.665 7.312 7.312 0 002.125 1.035 8.08 8.08 0 002.359.359 8.08 8.08 0 002.359-.359 7.323 7.323 0 002.127-1.035 5.444 5.444 0 001.535-1.665 4.317 4.317 0 00.59-2.25 4.317 4.317 0 00-.59-2.25 5.444 5.444 0 00-1.535-1.665 7.323 7.323 0 00-2.127-1.035 8.014 8.014 0 00-2.359-.357zm13.875 12.664a.718.718 0 00.434-.134.467.467 0 00.188-.406V1.196a.392.392 0 00-.187-.375.857.857 0 00-.434-.106V.176h5.8v.539a.7.7 0 00-.326.091.287.287 0 00-.172.27.891.891 0 00.125.389c.082.161.176.33.279.511l4.438 7.8 4.471-7.71a15.6 15.6 0 00.327-.615.962.962 0 00.106-.406c0-.219-.135-.33-.4-.33V.176h5.742v.539a.864.864 0 00-.436.106.4.4 0 00-.186.375v13.679a.47.47 0 00.186.406.724.724 0 00.436.134v.54h-4.873v-.54c.559 0 .838-.179.838-.54v-9.96h-.062l-6.238 11.04h-.094L70.394 4.886h-.061v9.989c0 .361.289.54.869.54v.54h-4.656zm23.465 0a.909.909 0 00.637-.389 6.49 6.49 0 00.451-.75l5.742-11.67q.217-.39.387-.72a1.3 1.3 0 00.172-.57.439.439 0 00-.217-.42 1.932 1.932 0 00-.467-.181V.18h5.246v.539a2.77 2.77 0 00-.436.165.437.437 0 00-.217.436 1.151 1.151 0 00.109.479c.073.161.18.371.326.631l6.455 12.21a1.039 1.039 0 00.42.48 6.262 6.262 0 00.605.3v.54h-5.463v-.54a.754.754 0 00.311-.089.289.289 0 00.186-.27 1.843 1.843 0 00-.248-.78l-1.18-2.22h-7.574l-1.117 2.13a2.462 2.462 0 00-.311.9c0 .221.2.33.59.33v.54h-4.408zm11.7-5.58l-2.607-5.58-2.918 5.58z" fill="#fff"/><path fill="none" d="M0 0h110v17H0z"/></svg>