<?xml version="1.0" encoding="utf-8"?>
<!-- Generator: Adobe Illustrator 26.0.2, SVG Export Plug-In . SVG Version: 6.00 Build 0)  -->
<svg version="1.1" id="レイヤー_1" xmlns="http://www.w3.org/2000/svg" xmlns:xlink="http://www.w3.org/1999/xlink" x="0px"
	 y="0px" viewBox="0 0 163 35" style="enable-background:new 0 0 163 35;" xml:space="preserve">
<style type="text/css">
	.st0{fill:none;}
	.st1{enable-background:new    ;}
	.st2{fill:#FFFFFF;}
	.st3{fill:none;stroke:#FFFFFF;stroke-width:0.9954;stroke-miterlimit:10;}
</style>
<path class="st0" d="M0,0h163v35H0V0z"/>
<path class="st0" d="M0,0"/>
<g class="st1">
	<path class="st2" d="M29.6,1.6l10.5,12.6L50.5,1.6h5.5v31.9h-6.2V11.1h-0.2l-9.2,11.2h-0.9l-9.2-11.2h-0.2v22.4H24V1.6H29.6z"/>
	<path class="st2" d="M69,1.6v18.6c0,1.9,0.3,3.4,0.9,4.5c0.6,1.1,1.5,2.1,2.8,2.8c1.3,0.7,2.8,1.1,4.5,1.1c1.9,0,3.5-0.3,4.8-1
		s2.3-1.6,2.9-2.8c0.6-1.2,0.9-2.9,0.9-5V1.6H92v19c0,4.3-1.3,7.6-3.9,9.9c-2.6,2.3-6.2,3.5-10.9,3.5c-3,0-5.5-0.5-7.7-1.6
		c-2.2-1.1-3.8-2.6-5-4.6s-1.7-4.3-1.7-7V1.6H69z"/>
	<path class="st2" d="M108.1,1.2c3.1,0,6.1,0.8,9,2.3V9c-3.3-2-6.2-3-8.8-3c-1.6,0-2.8,0.3-3.6,0.9c-0.9,0.6-1.3,1.4-1.3,2.4
		c0,1.2,0.8,2.3,2.4,3.3c0.5,0.3,2.2,1.2,5.3,2.6c2.6,1.2,4.5,2.6,5.7,4.1c1.2,1.5,1.7,3.3,1.7,5.4c0,2.7-1,5-3,6.6
		c-2,1.7-4.5,2.5-7.7,2.5c-2,0-3.8-0.2-5.3-0.7c-1.5-0.4-3.1-1.2-4.9-2.3v-6.1c3.4,2.8,6.6,4.3,9.6,4.3c1.5,0,2.7-0.3,3.7-1
		c0.9-0.7,1.4-1.5,1.4-2.6c0-1.5-0.8-2.7-2.4-3.6c-1.3-0.7-3.1-1.6-5.2-2.6c-2.5-1.1-4.4-2.5-5.6-4c-1.2-1.5-1.9-3.3-1.9-5.3
		c0-2.7,1-4.8,3-6.4C102.2,2,104.8,1.2,108.1,1.2z"/>
	<path class="st2" d="M144.4,1.6v4.8H130v8.4h13.8v4.8H130v9.1h14.8v4.8h-21V1.6H144.4z"/>
</g>
<g class="st1">
	<path class="st3" d="M29.6,1.6l10.5,12.6L50.5,1.6H56v31.9h-6.2V11.1h-0.2l-9.2,11.2h-0.9l-9.2-11.2h-0.2v22.4H24V1.6H29.6z"/>
	<path class="st3" d="M69,1.6v18.6c0,1.9,0.3,3.4,0.9,4.5s1.5,2.1,2.8,2.8c1.3,0.7,2.8,1.1,4.5,1.1c1.9,0,3.5-0.3,4.8-1
		s2.3-1.6,2.9-2.8c0.6-1.2,0.9-2.9,0.9-5V1.6H92v19c0,4.3-1.3,7.6-3.9,9.9S81.9,34,77.2,34c-3,0-5.5-0.5-7.7-1.6
		c-2.2-1.1-3.8-2.6-5-4.6s-1.7-4.3-1.7-7V1.6H69z"/>
	<path class="st3" d="M108.1,1.2c3.1,0,6.1,0.8,9,2.3V9c-3.3-2-6.2-3-8.8-3c-1.6,0-2.8,0.3-3.6,0.9c-0.9,0.6-1.3,1.4-1.3,2.4
		c0,1.2,0.8,2.3,2.4,3.3c0.5,0.3,2.2,1.2,5.3,2.6c2.6,1.2,4.5,2.6,5.7,4.1s1.7,3.3,1.7,5.4c0,2.7-1,5-3,6.6c-2,1.7-4.5,2.5-7.7,2.5
		c-2,0-3.8-0.2-5.3-0.7c-1.5-0.4-3.1-1.2-4.9-2.3v-6.1c3.4,2.8,6.6,4.3,9.6,4.3c1.5,0,2.7-0.3,3.7-1c0.9-0.7,1.4-1.5,1.4-2.6
		c0-1.5-0.8-2.7-2.4-3.6c-1.3-0.7-3.1-1.6-5.2-2.6c-2.5-1.1-4.4-2.5-5.6-4s-1.9-3.3-1.9-5.3c0-2.7,1-4.8,3-6.4
		C102.2,2,104.8,1.2,108.1,1.2z"/>
	<path class="st3" d="M144.4,1.6v4.8H130v8.4h13.8v4.8H130v9.1h14.8v4.8h-21V1.6H144.4z"/>
</g>
<text transform="matrix(1 0 0 1 20.4968 85.4979)" class="st3" style="font-family:'GillSans-SemiBold'; font-size:46.8021px;">MUSE</text>
</svg>
