<?xml version="1.0" encoding="utf-8"?>
<!-- Generator: Adobe Illustrator 26.0.2, SVG Export Plug-In . SVG Version: 6.00 Build 0)  -->
<svg version="1.1" id="レイヤー_1" xmlns="http://www.w3.org/2000/svg" xmlns:xlink="http://www.w3.org/1999/xlink" x="0px"
	 y="0px" viewBox="0 0 254 35" style="enable-background:new 0 0 254 35;" xml:space="preserve">
<style type="text/css">
	.st0{fill:none;}
	.st1{enable-background:new    ;}
	.st2{fill:#FFFFFF;}
	.st3{fill:none;stroke:#FFFFFF;stroke-width:0.9954;stroke-miterlimit:10;}
</style>
<path class="st0" d="M0,0"/>
<path class="st0" d="M0,0h254v35H0V0z"/>
<g class="st1">
	<path class="st2" d="M39.5,1.1L50,13.7L60.5,1.1H66V33h-6.2V10.6h-0.2l-9.2,11.2h-0.9l-9.2-11.2h-0.2V33H34V1.1H39.5z"/>
	<path class="st2" d="M89.2,1.1L103.3,33h-6.5l-3.3-7.8H79.3L76.2,33h-6.5L82.9,1.1H89.2z M81.2,20.5h10.3L86.1,7.9L81.2,20.5z"/>
	<path class="st2" d="M118.6,1.1c3,0,5.4,0.8,7.3,2.5c1.9,1.7,2.8,3.8,2.8,6.5c0,1.8-0.5,3.4-1.4,4.7c-0.9,1.3-2.3,2.4-4.2,3.2
		c1,0.5,1.9,1.3,2.7,2.2c0.8,0.9,1.8,2.5,2.9,4.8c2,3.9,3.4,6.5,4.3,8h-6.9c-0.5-0.7-1.1-1.8-1.9-3.4c-1.8-3.4-3.1-5.7-3.9-6.9
		s-1.6-2-2.4-2.5c-0.8-0.5-1.6-0.7-2.6-0.7h-2.2V33h-6.2V1.1H118.6z M117.2,14.7c1.6,0,2.9-0.4,3.8-1.2c0.9-0.8,1.4-1.9,1.4-3.3
		c0-1.5-0.5-2.6-1.4-3.3c-0.9-0.7-2.2-1.1-3.9-1.1h-3.8v8.9H117.2z"/>
	<path class="st2" d="M152.6,0.7c1.8,0,3.6,0.2,5.3,0.6c1.7,0.4,3.6,1.1,5.6,2.1v5.8c-2-1.1-3.8-1.9-5.5-2.4
		c-1.7-0.5-3.4-0.8-5.2-0.8c-2.3,0-4.3,0.5-6.1,1.4c-1.8,0.9-3.2,2.3-4.3,4c-1,1.7-1.5,3.6-1.5,5.7c0,2.1,0.5,4,1.5,5.7
		c1,1.7,2.4,3,4.3,3.9s3.9,1.4,6.2,1.4c1.8,0,3.4-0.3,5-0.8c1.6-0.5,3.6-1.4,6-2.7v5.8c-2.1,1.1-4,1.9-5.7,2.3
		c-1.7,0.5-3.8,0.7-6.1,0.7c-3.4,0-6.4-0.7-9-2c-2.7-1.3-4.7-3.3-6.3-5.8c-1.5-2.5-2.3-5.3-2.3-8.3c0-3.2,0.8-6.1,2.3-8.7
		c1.6-2.6,3.7-4.5,6.4-5.9C146.1,1.4,149.2,0.7,152.6,0.7z"/>
	<path class="st2" d="M175.9,1.1v13.4h16.6V1.1h6.2V33h-6.2V19.5h-16.6V33h-6.2V1.1H175.9z"/>
	<path class="st2" d="M226.4,1.1v4.8h-14.5v8.4h13.8v4.8h-13.8v9.1h14.8V33h-21V1.1H226.4z"/>
</g>
<g class="st1">
	<path class="st3" d="M39.5,1.1L50,13.7L60.5,1.1H66V33h-6.2V10.6h-0.2l-9.2,11.2h-0.9l-9.2-11.2h-0.2V33H34V1.1H39.5z"/>
	<path class="st3" d="M89.2,1.1L103.3,33h-6.5l-3.3-7.8H79.3L76.2,33h-6.5L82.9,1.1H89.2z M81.2,20.5h10.3L86.1,7.9L81.2,20.5z"/>
	<path class="st3" d="M118.6,1.1c3,0,5.4,0.8,7.3,2.5s2.8,3.8,2.8,6.5c0,1.8-0.5,3.4-1.4,4.7s-2.3,2.4-4.2,3.2
		c1,0.5,1.9,1.3,2.7,2.2c0.8,0.9,1.8,2.5,2.9,4.8c2,3.9,3.4,6.5,4.3,8h-6.9c-0.5-0.7-1.1-1.8-1.9-3.4c-1.8-3.4-3.1-5.7-3.9-6.9
		s-1.6-2-2.4-2.5s-1.6-0.7-2.6-0.7h-2.2V33h-6.2V1.1H118.6z M117.2,14.7c1.6,0,2.9-0.4,3.8-1.2s1.4-1.9,1.4-3.3
		c0-1.5-0.5-2.6-1.4-3.3s-2.2-1.1-3.9-1.1h-3.8v8.9C113.3,14.7,117.2,14.7,117.2,14.7z"/>
	<path class="st3" d="M152.6,0.7c1.8,0,3.6,0.2,5.3,0.6s3.6,1.1,5.6,2.1v5.8c-2-1.1-3.8-1.9-5.5-2.4S154.6,6,152.8,6
		c-2.3,0-4.3,0.5-6.1,1.4s-3.2,2.3-4.3,4c-1,1.7-1.5,3.6-1.5,5.7s0.5,4,1.5,5.7s2.4,3,4.3,3.9s3.9,1.4,6.2,1.4c1.8,0,3.4-0.3,5-0.8
		s3.6-1.4,6-2.7v5.8c-2.1,1.1-4,1.9-5.7,2.3c-1.7,0.5-3.8,0.7-6.1,0.7c-3.4,0-6.4-0.7-9-2c-2.7-1.3-4.7-3.3-6.3-5.8
		c-1.5-2.5-2.3-5.3-2.3-8.3c0-3.2,0.8-6.1,2.3-8.7c1.6-2.6,3.7-4.5,6.4-5.9C146.1,1.4,149.2,0.7,152.6,0.7z"/>
	<path class="st3" d="M175.9,1.1v13.4h16.6V1.1h6.2V33h-6.2V19.5h-16.6V33h-6.2V1.1H175.9z"/>
	<path class="st3" d="M226.4,1.1v4.8h-14.5v8.4h13.8v4.8h-13.8v9.1h14.8V33h-21V1.1H226.4z"/>
</g>
<text transform="matrix(1 0 0 1 30.4681 95.9999)" class="st3" style="font-family:'GillSans-SemiBold'; font-size:46.8021px;">MARCHE</text>
</svg>
