<?xml version="1.0" encoding="utf-8"?>
<!-- Generator: Adobe Illustrator 26.0.2, SVG Export Plug-In . SVG Version: 6.00 Build 0)  -->
<svg version="1.1" id="レイヤー_1" xmlns="http://www.w3.org/2000/svg" xmlns:xlink="http://www.w3.org/1999/xlink" x="0px"
	 y="0px" viewBox="0 0 322 23" style="enable-background:new 0 0 322 23;" xml:space="preserve">
<style type="text/css">
	.st0{fill:none;}
	.st1{stroke:#000000;stroke-miterlimit:10;}
</style>
<path class="st0" d="M0,0"/>
<path class="st0" d="M0,0h322v23H0V0z"/>
<g>
	<path class="st1" d="M31.2,1v3.1H22v5.3h8.8v3.1H22v5.8h9.4v3.1H18.1V1H31.2z"/>
	<path class="st1" d="M40.1,1l5.7,13l5.6-13h4.1l-9,20.6h-1.4L36,1H40.1z"/>
	<path class="st1" d="M74,1v3.1h-9.2v5.3h8.8v3.1h-8.8v5.8h9.4v3.1H60.9V1H74z"/>
	<path class="st1" d="M84.3,1l12.1,14.2V1h3.8v20.3h-3.4L84.7,6.9v14.4h-3.8V1H84.3z"/>
	<path class="st1" d="M124.5,1v3.1h-7.2v17.2h-3.9V4.1h-7.2V1H124.5z"/>
	<path class="st1" d="M152.1,0.7c2.1,0,4,0.4,5.7,1.3c1.7,0.9,3,2.1,4,3.7c1,1.6,1.5,3.4,1.5,5.4c0,1.9-0.5,3.7-1.5,5.3
		c-1,1.6-2.3,2.9-4,3.8c-1.7,0.9-3.6,1.3-5.7,1.3c-2.1,0-4-0.5-5.7-1.4c-1.7-0.9-3.1-2.2-4-3.8c-1-1.6-1.4-3.4-1.4-5.3
		c0-1.9,0.5-3.6,1.4-5.2c1-1.6,2.3-2.9,4-3.8C148,1.2,149.9,0.7,152.1,0.7z M144.9,11.2c0,1.3,0.3,2.6,0.9,3.6s1.5,1.9,2.6,2.5
		c1.1,0.6,2.3,0.9,3.7,0.9c2.1,0,3.8-0.7,5.1-2c1.3-1.3,2-3,2-5.1c0-1.3-0.3-2.6-0.9-3.6c-0.6-1.1-1.5-1.9-2.6-2.5
		c-1.1-0.6-2.3-0.9-3.7-0.9c-1.4,0-2.6,0.3-3.7,0.9s-1.9,1.4-2.5,2.5C145.2,8.6,144.9,9.8,144.9,11.2z"/>
	<path class="st1" d="M173.7,1v11.8c0,1.2,0.2,2.2,0.5,2.9c0.4,0.7,1,1.3,1.8,1.8s1.8,0.7,2.9,0.7c1.2,0,2.2-0.2,3.1-0.7
		c0.8-0.4,1.5-1,1.8-1.8s0.6-1.8,0.6-3.2V1h3.9v12.1c0,2.7-0.8,4.8-2.5,6.3s-4,2.2-6.9,2.2c-1.9,0-3.5-0.3-4.9-1s-2.4-1.6-3.2-2.9
		s-1.1-2.7-1.1-4.5V1H173.7z"/>
	<path class="st1" d="M212.5,1v3.1h-7.2v17.2h-3.9V4.1h-7.2V1H212.5z"/>
	<path class="st1" d="M222.4,1v17.2h9.9v3.1h-13.8V1H222.4z"/>
	<path class="st1" d="M241.9,1v20.3H238V1H241.9z"/>
	<path class="st1" d="M252.9,1l12.1,14.2V1h3.8v20.3h-3.4L253.3,6.9v14.4h-3.8V1H252.9z"/>
	<path class="st1" d="M289.3,1v3.1h-9.2v5.3h8.8v3.1h-8.8v5.8h9.4v3.1h-13.3V1H289.3z"/>
</g>
<text transform="matrix(1 0 0 1 15.8423 48.8894)" class="st1" style="font-family:'GillSans-SemiBold'; font-size:29.7636px; letter-spacing:2;">EVENT OUTLINE</text>
</svg>
