<?xml version="1.0" encoding="utf-8"?>
<!-- Generator: Adobe Illustrator 26.0.2, SVG Export Plug-In . SVG Version: 6.00 Build 0)  -->
<svg version="1.1" id="レイヤー_1" xmlns="http://www.w3.org/2000/svg" xmlns:xlink="http://www.w3.org/1999/xlink" x="0px"
	 y="0px" viewBox="0 0 237.5 66.5" style="enable-background:new 0 0 237.5 66.5;" xml:space="preserve">
<style type="text/css">
	.st0{enable-background:new    ;}
	.st1{fill:#FFFFFF;}
	.st2{fill:none;stroke:#FFFFFF;stroke-width:0.8068;stroke-miterlimit:10;}
</style>
<g class="st0">
	<path class="st1" d="M42.5,3.5c1.5,0,2.9,0.2,4.3,0.5c1.4,0.3,2.9,0.9,4.6,1.7v4.7c-1.6-0.9-3.1-1.6-4.4-2
		c-1.4-0.4-2.8-0.6-4.2-0.6c-1.8,0-3.5,0.4-5,1.1s-2.6,1.8-3.5,3.2s-1.2,2.9-1.2,4.6c0,1.7,0.4,3.3,1.2,4.6c0.8,1.4,2,2.4,3.4,3.2
		c1.5,0.7,3.1,1.1,5,1.1c1.4,0,2.8-0.2,4.1-0.6c1.3-0.4,2.9-1.1,4.9-2.2v4.7c-1.7,0.9-3.2,1.5-4.6,1.9C45.7,29.9,44,30,42.1,30
		c-2.7,0-5.2-0.5-7.3-1.6c-2.1-1.1-3.8-2.7-5.1-4.7c-1.2-2-1.8-4.3-1.8-6.7c0-2.6,0.6-4.9,1.9-7c1.3-2.1,3-3.7,5.2-4.8
		C37.3,4.1,39.8,3.5,42.5,3.5z"/>
	<path class="st1" d="M69.4,3.5c2.7,0,5.1,0.6,7.2,1.7c2.1,1.1,3.8,2.7,5.1,4.8c1.3,2.1,1.9,4.4,1.9,6.8c0,2.4-0.6,4.7-1.9,6.7
		c-1.2,2.1-2.9,3.7-5.1,4.8C74.5,29.5,72,30,69.3,30c-2.7,0-5.1-0.6-7.3-1.7c-2.2-1.2-3.9-2.8-5.1-4.8c-1.2-2-1.8-4.3-1.8-6.7
		c0-2.4,0.6-4.6,1.8-6.7s2.9-3.7,5.1-4.9C64.1,4.1,66.6,3.5,69.4,3.5z M60.2,16.8c0,1.7,0.4,3.3,1.2,4.6c0.8,1.4,1.9,2.4,3.3,3.2
		s3,1.1,4.7,1.1c2.7,0,4.8-0.8,6.5-2.5s2.6-3.8,2.6-6.4c0-1.7-0.4-3.3-1.2-4.6c-0.8-1.4-1.9-2.4-3.3-3.2c-1.4-0.8-3-1.1-4.7-1.1
		S66,8.2,64.6,9c-1.4,0.8-2.5,1.8-3.2,3.2C60.6,13.5,60.2,15.1,60.2,16.8z"/>
	<path class="st1" d="M93.3,3.8v22h12.6v3.9H88.3V3.8H93.3z"/>
	<path class="st1" d="M114.3,3.8v22h12.6v3.9h-17.6V3.8H114.3z"/>
	<path class="st1" d="M143.4,3.8l11.4,25.9h-5.3l-2.7-6.3h-11.5l-2.5,6.3h-5.2l10.7-25.9H143.4z M136.9,19.6h8.4l-4.4-10.2
		L136.9,19.6z"/>
	<path class="st1" d="M167.3,3.8c2.4,0,4.3,0.6,5.8,1.9c1.5,1.2,2.2,2.8,2.2,4.6c0,1.2-0.3,2.2-0.9,3.1c-0.6,0.9-1.5,1.6-2.7,2.1
		v0.2c1.8,0.4,3.2,1.2,4.2,2.4c1,1.2,1.5,2.6,1.5,4.2c0,1.4-0.4,2.7-1.1,3.8c-0.7,1.1-1.8,2-3.1,2.5c-1.3,0.6-2.8,0.9-4.6,0.9h-10.8
		V3.8H167.3z M166,14.6c1.3,0,2.4-0.3,3.1-0.9s1.1-1.5,1.1-2.6c0-1-0.4-1.8-1.1-2.4c-0.7-0.6-1.6-0.9-2.8-0.9h-3.6v6.8H166z
		 M167.2,25.8c1.7,0,3-0.3,3.8-1c0.9-0.6,1.3-1.6,1.3-2.8c0-1.1-0.4-2-1.3-2.6c-0.9-0.6-2-1-3.5-1h-4.7v7.3H167.2z"/>
	<path class="st1" d="M194.9,3.5c2.7,0,5.1,0.6,7.2,1.7s3.8,2.7,5.1,4.8c1.3,2.1,1.9,4.4,1.9,6.8c0,2.4-0.6,4.7-1.9,6.7
		c-1.2,2.1-2.9,3.7-5.1,4.8s-4.6,1.7-7.3,1.7c-2.7,0-5.1-0.6-7.3-1.7c-2.2-1.2-3.9-2.8-5.1-4.8c-1.2-2-1.8-4.3-1.8-6.7
		c0-2.4,0.6-4.6,1.8-6.7s2.9-3.7,5.1-4.9C189.7,4.1,192.1,3.5,194.9,3.5z M185.8,16.8c0,1.7,0.4,3.3,1.2,4.6
		c0.8,1.4,1.9,2.4,3.3,3.2c1.4,0.8,3,1.1,4.7,1.1c2.7,0,4.8-0.8,6.5-2.5c1.7-1.7,2.6-3.8,2.6-6.4c0-1.7-0.4-3.3-1.2-4.6
		c-0.8-1.4-1.9-2.4-3.3-3.2c-1.4-0.8-3-1.1-4.7-1.1c-1.8,0-3.3,0.4-4.7,1.1s-2.5,1.8-3.2,3.2C186.2,13.5,185.8,15.1,185.8,16.8z"/>
</g>
<g class="st0">
	<path class="st2" d="M42.5,3.5c1.5,0,2.9,0.2,4.3,0.5c1.4,0.3,2.9,0.9,4.6,1.7v4.7c-1.6-0.9-3.1-1.6-4.4-2
		c-1.4-0.4-2.8-0.6-4.2-0.6c-1.8,0-3.5,0.4-5,1.1s-2.6,1.8-3.5,3.2s-1.2,2.9-1.2,4.6c0,1.7,0.4,3.3,1.2,4.6c0.8,1.4,2,2.4,3.4,3.2
		c1.5,0.7,3.1,1.1,5,1.1c1.4,0,2.8-0.2,4.1-0.6c1.3-0.4,2.9-1.1,4.9-2.2v4.7c-1.7,0.9-3.2,1.5-4.6,1.9C45.7,29.9,44,30,42.1,30
		c-2.7,0-5.2-0.5-7.3-1.6c-2.1-1.1-3.8-2.7-5.1-4.7c-1.2-2-1.8-4.3-1.8-6.7c0-2.6,0.6-4.9,1.9-7c1.3-2.1,3-3.7,5.2-4.8
		C37.3,4.1,39.8,3.5,42.5,3.5z"/>
	<path class="st2" d="M69.4,3.5c2.7,0,5.1,0.6,7.2,1.7c2.1,1.1,3.8,2.7,5.1,4.8c1.3,2.1,1.9,4.4,1.9,6.8c0,2.4-0.6,4.7-1.9,6.7
		c-1.2,2.1-2.9,3.7-5.1,4.8C74.5,29.5,72,30,69.3,30c-2.7,0-5.1-0.6-7.3-1.7c-2.2-1.2-3.9-2.8-5.1-4.8c-1.2-2-1.8-4.3-1.8-6.7
		c0-2.4,0.6-4.6,1.8-6.7s2.9-3.7,5.1-4.9C64.1,4.1,66.6,3.5,69.4,3.5z M60.2,16.8c0,1.7,0.4,3.3,1.2,4.6c0.8,1.4,1.9,2.4,3.3,3.2
		s3,1.1,4.7,1.1c2.7,0,4.8-0.8,6.5-2.5s2.6-3.8,2.6-6.4c0-1.7-0.4-3.3-1.2-4.6c-0.8-1.4-1.9-2.4-3.3-3.2c-1.4-0.8-3-1.1-4.7-1.1
		S66,8.2,64.6,9c-1.4,0.8-2.5,1.8-3.2,3.2C60.6,13.5,60.2,15.1,60.2,16.8z"/>
	<path class="st2" d="M93.3,3.8v22h12.6v3.9H88.3V3.8H93.3z"/>
	<path class="st2" d="M114.3,3.8v22h12.6v3.9h-17.6V3.8H114.3z"/>
	<path class="st2" d="M143.4,3.8l11.4,25.9h-5.3l-2.7-6.3h-11.5l-2.5,6.3h-5.2l10.7-25.9H143.4z M136.9,19.6h8.4l-4.4-10.2
		L136.9,19.6z"/>
	<path class="st2" d="M167.3,3.8c2.4,0,4.3,0.6,5.8,1.9c1.5,1.2,2.2,2.8,2.2,4.6c0,1.2-0.3,2.2-0.9,3.1c-0.6,0.9-1.5,1.6-2.7,2.1
		v0.2c1.8,0.4,3.2,1.2,4.2,2.4c1,1.2,1.5,2.6,1.5,4.2c0,1.4-0.4,2.7-1.1,3.8c-0.7,1.1-1.8,2-3.1,2.5c-1.3,0.6-2.8,0.9-4.6,0.9h-10.8
		V3.8H167.3z M166,14.6c1.3,0,2.4-0.3,3.1-0.9s1.1-1.5,1.1-2.6c0-1-0.4-1.8-1.1-2.4c-0.7-0.6-1.6-0.9-2.8-0.9h-3.6v6.8H166z
		 M167.2,25.8c1.7,0,3-0.3,3.8-1c0.9-0.6,1.3-1.6,1.3-2.8c0-1.1-0.4-2-1.3-2.6c-0.9-0.6-2-1-3.5-1h-4.7v7.3H167.2z"/>
	<path class="st2" d="M194.9,3.5c2.7,0,5.1,0.6,7.2,1.7s3.8,2.7,5.1,4.8c1.3,2.1,1.9,4.4,1.9,6.8c0,2.4-0.6,4.7-1.9,6.7
		c-1.2,2.1-2.9,3.7-5.1,4.8s-4.6,1.7-7.3,1.7c-2.7,0-5.1-0.6-7.3-1.7c-2.2-1.2-3.9-2.8-5.1-4.8c-1.2-2-1.8-4.3-1.8-6.7
		c0-2.4,0.6-4.6,1.8-6.7s2.9-3.7,5.1-4.9C189.7,4.1,192.1,3.5,194.9,3.5z M185.8,16.8c0,1.7,0.4,3.3,1.2,4.6
		c0.8,1.4,1.9,2.4,3.3,3.2c1.4,0.8,3,1.1,4.7,1.1c2.7,0,4.8-0.8,6.5-2.5c1.7-1.7,2.6-3.8,2.6-6.4c0-1.7-0.4-3.3-1.2-4.6
		c-0.8-1.4-1.9-2.4-3.3-3.2c-1.4-0.8-3-1.1-4.7-1.1c-1.8,0-3.3,0.4-4.7,1.1s-2.5,1.8-3.2,3.2C186.2,13.5,185.8,15.1,185.8,16.8z"/>
</g>
<g class="st0">
	<path class="st1" d="M55.6,37c2.4,0,4.4,0.7,5.9,2s2.3,3.1,2.3,5.3c0,1.5-0.4,2.8-1.1,3.8c-0.8,1.1-1.9,2-3.4,2.6
		c0.8,0.4,1.6,1,2.2,1.8s1.4,2.1,2.4,3.9c1.6,3.1,2.8,5.3,3.5,6.5h-5.6c-0.4-0.6-0.9-1.5-1.6-2.7c-1.4-2.8-2.5-4.6-3.1-5.6
		c-0.7-1-1.3-1.6-1.9-2c-0.6-0.4-1.3-0.6-2.1-0.6h-1.8v10.9h-5V37H55.6z M54.4,48.1c1.3,0,2.3-0.3,3.1-1s1.1-1.5,1.1-2.7
		c0-1.2-0.4-2.1-1.1-2.7c-0.7-0.6-1.8-0.9-3.2-0.9h-3.1v7.2H54.4z"/>
	<path class="st1" d="M83.8,37l11.4,25.9h-5.3l-2.7-6.3H75.8l-2.5,6.3H68L78.7,37H83.8z M77.3,52.8h8.4l-4.4-10.2L77.3,52.8z"/>
	<path class="st1" d="M116.7,37v3.9h-9.2v22h-5v-22h-9.2V37H116.7z"/>
	<path class="st1" d="M125.6,37v25.9h-5V37H125.6z"/>
	<path class="st1" d="M144.7,36.7c2.7,0,5.1,0.6,7.2,1.7c2.1,1.1,3.8,2.7,5.1,4.8c1.3,2.1,1.9,4.4,1.9,6.8c0,2.4-0.6,4.7-1.9,6.7
		c-1.2,2.1-2.9,3.7-5.1,4.8c-2.2,1.1-4.6,1.7-7.3,1.7c-2.7,0-5.1-0.6-7.3-1.7c-2.2-1.2-3.9-2.8-5.1-4.8c-1.2-2-1.8-4.3-1.8-6.7
		c0-2.4,0.6-4.6,1.8-6.7s2.9-3.7,5.1-4.9C139.4,37.3,141.9,36.7,144.7,36.7z M135.6,50c0,1.7,0.4,3.3,1.2,4.6
		c0.8,1.4,1.9,2.4,3.3,3.2c1.4,0.8,3,1.1,4.7,1.1c2.7,0,4.8-0.8,6.5-2.5c1.7-1.7,2.6-3.8,2.6-6.4c0-1.7-0.4-3.3-1.2-4.6
		c-0.8-1.4-1.9-2.4-3.3-3.2c-1.4-0.8-3-1.1-4.7-1.1c-1.8,0-3.3,0.4-4.7,1.1c-1.4,0.8-2.5,1.8-3.2,3.2
		C135.9,46.7,135.6,48.3,135.6,50z"/>
	<path class="st1" d="M168,37l15.4,18.1V37h4.9v25.9H184l-15.5-18.4v18.4h-4.9V37H168z"/>
</g>
<g class="st0">
	<path class="st2" d="M55.6,37c2.4,0,4.4,0.7,5.9,2s2.3,3.1,2.3,5.3c0,1.5-0.4,2.8-1.1,3.8c-0.8,1.1-1.9,2-3.4,2.6
		c0.8,0.4,1.6,1,2.2,1.8s1.4,2.1,2.4,3.9c1.6,3.1,2.8,5.3,3.5,6.5h-5.6c-0.4-0.6-0.9-1.5-1.6-2.7c-1.4-2.8-2.5-4.6-3.1-5.6
		c-0.7-1-1.3-1.6-1.9-2c-0.6-0.4-1.3-0.6-2.1-0.6h-1.8v10.9h-5V37H55.6z M54.4,48.1c1.3,0,2.3-0.3,3.1-1s1.1-1.5,1.1-2.7
		c0-1.2-0.4-2.1-1.1-2.7c-0.7-0.6-1.8-0.9-3.2-0.9h-3.1v7.2H54.4z"/>
	<path class="st2" d="M83.8,37l11.4,25.9h-5.3l-2.7-6.3H75.8l-2.5,6.3H68L78.7,37H83.8z M77.3,52.8h8.4l-4.4-10.2L77.3,52.8z"/>
	<path class="st2" d="M116.7,37v3.9h-9.2v22h-5v-22h-9.2V37H116.7z"/>
	<path class="st2" d="M125.6,37v25.9h-5V37H125.6z"/>
	<path class="st2" d="M144.7,36.7c2.7,0,5.1,0.6,7.2,1.7c2.1,1.1,3.8,2.7,5.1,4.8c1.3,2.1,1.9,4.4,1.9,6.8c0,2.4-0.6,4.7-1.9,6.7
		c-1.2,2.1-2.9,3.7-5.1,4.8c-2.2,1.1-4.6,1.7-7.3,1.7c-2.7,0-5.1-0.6-7.3-1.7c-2.2-1.2-3.9-2.8-5.1-4.8c-1.2-2-1.8-4.3-1.8-6.7
		c0-2.4,0.6-4.6,1.8-6.7s2.9-3.7,5.1-4.9C139.4,37.3,141.9,36.7,144.7,36.7z M135.6,50c0,1.7,0.4,3.3,1.2,4.6
		c0.8,1.4,1.9,2.4,3.3,3.2c1.4,0.8,3,1.1,4.7,1.1c2.7,0,4.8-0.8,6.5-2.5c1.7-1.7,2.6-3.8,2.6-6.4c0-1.7-0.4-3.3-1.2-4.6
		c-0.8-1.4-1.9-2.4-3.3-3.2c-1.4-0.8-3-1.1-4.7-1.1c-1.8,0-3.3,0.4-4.7,1.1c-1.4,0.8-2.5,1.8-3.2,3.2
		C135.9,46.7,135.6,48.3,135.6,50z"/>
	<path class="st2" d="M168,37l15.4,18.1V37h4.9v25.9H184l-15.5-18.4v18.4h-4.9V37H168z"/>
</g>
<text transform="matrix(1 0 0 1 26.1005 107.7095)" class="st1" style="font-family:'GillSans-SemiBold'; font-size:37.9348px;">COLLABO</text>
<text transform="matrix(1 0 0 1 26.1005 107.7095)" class="st2" style="font-family:'GillSans-SemiBold'; font-size:37.9348px;">COLLABO</text>
<text transform="matrix(1 0 0 1 43.4005 140.9095)" class="st1" style="font-family:'GillSans-SemiBold'; font-size:37.9348px;">RATION</text>
<text transform="matrix(1 0 0 1 43.4005 140.9095)" class="st2" style="font-family:'GillSans-SemiBold'; font-size:37.9348px;">RATION</text>
</svg>
