<?xml version="1.0" encoding="utf-8"?>
<!-- Generator: Adobe Illustrator 26.0.2, SVG Export Plug-In . SVG Version: 6.00 Build 0)  -->
<svg version="1.1" id="レイヤー_1" xmlns="http://www.w3.org/2000/svg" xmlns:xlink="http://www.w3.org/1999/xlink" x="0px"
	 y="0px" viewBox="0 0 238 82" style="enable-background:new 0 0 238 82;" xml:space="preserve">
<style type="text/css">
	.st0{fill:none;}
	.st1{enable-background:new    ;}
	.st2{fill:#FFFFFF;}
	.st3{fill:none;stroke:#FFFFFF;stroke-width:0.9954;stroke-miterlimit:10;}
</style>
<path class="st0" d="M0,0"/>
<path class="st0" d="M0,0h238v82H0V0z"/>
<g class="st1">
	<path class="st2" d="M32.9,4.6l10.5,12.6L53.8,4.6h5.5v31.9h-6.2V14.1H53l-9.2,11.2h-0.9l-9.2-11.2h-0.2v22.4h-6.2V4.6H32.9z"/>
	<path class="st2" d="M72.7,4.6v31.9h-6.2V4.6H72.7z"/>
	<path class="st2" d="M85.4,4.6l10.5,12.6l10.5-12.6h5.5v31.9h-6.2V14.1h-0.2l-9.2,11.2h-0.9l-9.2-11.2H86v22.4h-6.2V4.6H85.4z"/>
	<path class="st2" d="M135.3,4.2c3.3,0,6.3,0.7,8.9,2s4.8,3.3,6.3,5.9c1.6,2.6,2.4,5.4,2.4,8.4c0,3-0.8,5.8-2.3,8.3
		c-1.5,2.6-3.6,4.5-6.3,5.9c-2.7,1.4-5.7,2.1-9,2.1c-3.3,0-6.3-0.7-9-2.1c-2.7-1.4-4.8-3.4-6.3-5.9c-1.5-2.5-2.3-5.3-2.3-8.3
		c0-2.9,0.8-5.7,2.3-8.2c1.5-2.6,3.6-4.6,6.2-6C128.8,4.9,131.9,4.2,135.3,4.2z M124,20.5c0,2.1,0.5,4,1.4,5.7c1,1.7,2.3,3,4,3.9
		c1.7,0.9,3.7,1.4,5.8,1.4c3.3,0,6-1,8.1-3.1s3.2-4.7,3.2-8c0-2.1-0.5-4-1.4-5.7c-1-1.7-2.3-3-4-3.9c-1.7-0.9-3.7-1.4-5.8-1.4
		s-4.1,0.5-5.8,1.4c-1.7,0.9-3.1,2.2-4,3.9C124.5,16.5,124,18.4,124,20.5z"/>
	<path class="st2" d="M168,4.2c3.1,0,6.1,0.8,9,2.3V12c-3.3-2-6.2-3-8.8-3c-1.6,0-2.8,0.3-3.6,0.9c-0.9,0.6-1.3,1.4-1.3,2.4
		c0,1.2,0.8,2.3,2.4,3.3c0.5,0.3,2.2,1.2,5.3,2.6c2.6,1.2,4.5,2.6,5.7,4.1c1.2,1.5,1.7,3.3,1.7,5.4c0,2.7-1,5-3,6.6
		c-2,1.7-4.5,2.5-7.7,2.5c-2,0-3.8-0.2-5.3-0.7s-3.1-1.2-4.9-2.3v-6.1c3.4,2.8,6.6,4.3,9.6,4.3c1.5,0,2.7-0.3,3.7-1
		c0.9-0.7,1.4-1.5,1.4-2.6c0-1.5-0.8-2.7-2.4-3.6c-1.3-0.7-3.1-1.6-5.2-2.6c-2.5-1.1-4.4-2.5-5.6-4c-1.2-1.5-1.9-3.3-1.9-5.3
		c0-2.7,1-4.8,3-6.4S164.7,4.2,168,4.2z"/>
	<path class="st2" d="M198.9,4.6L213,36.5h-6.5l-3.3-7.8H189l-3.1,7.8h-6.5l13.2-31.9H198.9z M190.9,24h10.3l-5.4-12.6L190.9,24z"/>
</g>
<g class="st1">
	<path class="st3" d="M32.9,4.6l10.5,12.6L53.8,4.6h5.5v31.9h-6.2V14.1H53l-9.2,11.2h-0.9l-9.2-11.2h-0.2v22.4h-6.2V4.6H32.9z"/>
	<path class="st3" d="M72.7,4.6v31.9h-6.2V4.6H72.7z"/>
	<path class="st3" d="M85.4,4.6l10.5,12.6l10.5-12.6h5.5v31.9h-6.2V14.1h-0.2l-9.2,11.2h-0.9l-9.2-11.2H86v22.4h-6.2V4.6H85.4z"/>
	<path class="st3" d="M135.3,4.2c3.3,0,6.3,0.7,8.9,2s4.8,3.3,6.3,5.9c1.6,2.6,2.4,5.4,2.4,8.4c0,3-0.8,5.8-2.3,8.3
		c-1.5,2.6-3.6,4.5-6.3,5.9c-2.7,1.4-5.7,2.1-9,2.1c-3.3,0-6.3-0.7-9-2.1c-2.7-1.4-4.8-3.4-6.3-5.9c-1.5-2.5-2.3-5.3-2.3-8.3
		c0-2.9,0.8-5.7,2.3-8.2c1.5-2.6,3.6-4.6,6.2-6C128.8,4.9,131.9,4.2,135.3,4.2z M124,20.5c0,2.1,0.5,4,1.4,5.7c1,1.7,2.3,3,4,3.9
		c1.7,0.9,3.7,1.4,5.8,1.4c3.3,0,6-1,8.1-3.1s3.2-4.7,3.2-8c0-2.1-0.5-4-1.4-5.7c-1-1.7-2.3-3-4-3.9c-1.7-0.9-3.7-1.4-5.8-1.4
		s-4.1,0.5-5.8,1.4c-1.7,0.9-3.1,2.2-4,3.9C124.5,16.5,124,18.4,124,20.5z"/>
	<path class="st3" d="M168,4.2c3.1,0,6.1,0.8,9,2.3V12c-3.3-2-6.2-3-8.8-3c-1.6,0-2.8,0.3-3.6,0.9c-0.9,0.6-1.3,1.4-1.3,2.4
		c0,1.2,0.8,2.3,2.4,3.3c0.5,0.3,2.2,1.2,5.3,2.6c2.6,1.2,4.5,2.6,5.7,4.1c1.2,1.5,1.7,3.3,1.7,5.4c0,2.7-1,5-3,6.6
		c-2,1.7-4.5,2.5-7.7,2.5c-2,0-3.8-0.2-5.3-0.7s-3.1-1.2-4.9-2.3v-6.1c3.4,2.8,6.6,4.3,9.6,4.3c1.5,0,2.7-0.3,3.7-1
		c0.9-0.7,1.4-1.5,1.4-2.6c0-1.5-0.8-2.7-2.4-3.6c-1.3-0.7-3.1-1.6-5.2-2.6c-2.5-1.1-4.4-2.5-5.6-4c-1.2-1.5-1.9-3.3-1.9-5.3
		c0-2.7,1-4.8,3-6.4S164.7,4.2,168,4.2z"/>
	<path class="st3" d="M198.9,4.6L213,36.5h-6.5l-3.3-7.8H189l-3.1,7.8h-6.5l13.2-31.9H198.9z M190.9,24h10.3l-5.4-12.6L190.9,24z"/>
</g>
<g class="st1">
	<path class="st2" d="M90.6,45.6v4.8H77.3v8.2h13.3v4.9H77.3v14h-6.2V45.6H90.6z"/>
	<path class="st2" d="M111,45.6l14.1,31.9h-6.5l-3.3-7.8h-14.2L98,77.5h-6.5l13.2-31.9H111z M102.9,65h10.3l-5.4-12.6L102.9,65z"/>
	<path class="st2" d="M135.1,45.6v31.9H129V45.6H135.1z"/>
	<path class="st2" d="M153.8,45.6c3,0,5.4,0.8,7.3,2.5c1.9,1.7,2.8,3.8,2.8,6.5c0,1.8-0.5,3.4-1.4,4.7c-0.9,1.3-2.3,2.4-4.2,3.2
		c1,0.5,1.9,1.3,2.7,2.2c0.8,0.9,1.8,2.5,2.9,4.8c2,3.9,3.4,6.5,4.3,8h-6.9c-0.5-0.7-1.1-1.8-1.9-3.4c-1.8-3.4-3.1-5.7-3.9-6.9
		c-0.8-1.2-1.6-2-2.4-2.5s-1.6-0.7-2.6-0.7h-2.2v13.5h-6.2V45.6H153.8z M152.4,59.2c1.6,0,2.9-0.4,3.8-1.2s1.4-1.9,1.4-3.3
		c0-1.5-0.5-2.6-1.4-3.3c-0.9-0.7-2.2-1.1-3.9-1.1h-3.8v8.9H152.4z"/>
</g>
<g class="st1">
	<path class="st3" d="M90.6,45.6v4.8H77.3v8.2h13.3v4.9H77.3v14h-6.2V45.6H90.6z"/>
	<path class="st3" d="M111,45.6l14.1,31.9h-6.5l-3.3-7.8h-14.2L98,77.5h-6.5l13.2-31.9H111z M102.9,65h10.3l-5.4-12.6L102.9,65z"/>
	<path class="st3" d="M135.1,45.6v31.9H129V45.6H135.1z"/>
	<path class="st3" d="M153.8,45.6c3,0,5.4,0.8,7.3,2.5c1.9,1.7,2.8,3.8,2.8,6.5c0,1.8-0.5,3.4-1.4,4.7c-0.9,1.3-2.3,2.4-4.2,3.2
		c1,0.5,1.9,1.3,2.7,2.2c0.8,0.9,1.8,2.5,2.9,4.8c2,3.9,3.4,6.5,4.3,8h-6.9c-0.5-0.7-1.1-1.8-1.9-3.4c-1.8-3.4-3.1-5.7-3.9-6.9
		c-0.8-1.2-1.6-2-2.4-2.5s-1.6-0.7-2.6-0.7h-2.2v13.5h-6.2V45.6H153.8z M152.4,59.2c1.6,0,2.9-0.4,3.8-1.2s1.4-1.9,1.4-3.3
		c0-1.5-0.5-2.6-1.4-3.3c-0.9-0.7-2.2-1.1-3.9-1.1h-3.8v8.9H152.4z"/>
</g>
<text transform="matrix(1 0 0 1 23.7961 123.4999)" class="st2" style="font-family:'GillSans-SemiBold'; font-size:46.8021px;">MIMOSA</text>
<text transform="matrix(1 0 0 1 23.7961 123.4999)" class="st3" style="font-family:'GillSans-SemiBold'; font-size:46.8021px;">MIMOSA</text>
<text transform="matrix(1 0 0 1 67.5961 164.4999)" class="st2" style="font-family:'GillSans-SemiBold'; font-size:46.8021px;">FAIR</text>
<text transform="matrix(1 0 0 1 67.5961 164.4999)" class="st3" style="font-family:'GillSans-SemiBold'; font-size:46.8021px;">FAIR</text>
</svg>
