<?xml version="1.0" encoding="utf-8"?>
<!-- Generator: Adobe Illustrator 26.0.2, SVG Export Plug-In . SVG Version: 6.00 Build 0)  -->
<svg version="1.1" id="レイヤー_1" xmlns="http://www.w3.org/2000/svg" xmlns:xlink="http://www.w3.org/1999/xlink" x="0px"
	 y="0px" viewBox="0 0 286 85" style="enable-background:new 0 0 286 85;" xml:space="preserve">
<style type="text/css">
	.st0{fill:none;}
	.st1{enable-background:new    ;}
	.st2{fill:#FFFFFF;}
	.st3{fill:none;stroke:#FFFFFF;stroke-width:0.9954;stroke-miterlimit:10;}
</style>
<path class="st0" d="M0,0"/>
<path class="st0" d="M0,0h286v85H0V0z"/>
<g class="st1">
	<path class="st2" d="M71.9,8.6c3,0,5.4,0.9,7.3,2.6s2.8,4,2.8,6.7c0,2.8-0.9,5-2.8,6.7c-1.9,1.7-4.4,2.6-7.5,2.6h-5.9v13.4h-6.2
		V8.6H71.9z M70.4,22.3c1.6,0,2.9-0.4,3.9-1.1s1.4-1.9,1.4-3.3c0-2.9-1.9-4.4-5.7-4.4h-4.2v8.9H70.4z"/>
	<path class="st2" d="M93.1,8.6V22h16.6V8.6h6.2v31.9h-6.2V27H93.1v13.5h-6.2V8.6H93.1z"/>
	<path class="st2" d="M139.2,8.2c3.3,0,6.3,0.7,8.9,2c2.6,1.4,4.7,3.3,6.3,5.9c1.6,2.6,2.4,5.4,2.4,8.4c0,3-0.8,5.8-2.3,8.3
		c-1.5,2.6-3.6,4.5-6.3,5.9s-5.7,2.1-9,2.1c-3.3,0-6.3-0.7-9-2.1c-2.7-1.4-4.8-3.4-6.3-5.9c-1.5-2.5-2.3-5.3-2.3-8.3
		c0-2.9,0.8-5.7,2.3-8.2c1.5-2.6,3.6-4.6,6.2-6C132.7,8.9,135.8,8.2,139.2,8.2z M127.9,24.5c0,2.1,0.5,4,1.4,5.7c1,1.7,2.3,3,4,3.9
		c1.7,0.9,3.7,1.4,5.8,1.4c3.3,0,6-1,8.1-3.1s3.2-4.7,3.2-8c0-2.1-0.5-4-1.4-5.7c-1-1.7-2.3-3-4-3.9c-1.7-0.9-3.7-1.4-5.8-1.4
		c-2.2,0-4.1,0.5-5.8,1.4c-1.7,0.9-3.1,2.2-4,3.9C128.4,20.5,127.9,22.4,127.9,24.5z"/>
	<path class="st2" d="M187.2,8.6v4.8h-11.3v27.1h-6.2V13.4h-11.3V8.6H187.2z"/>
	<path class="st2" d="M206.4,8.2c3.3,0,6.3,0.7,8.9,2s4.8,3.3,6.3,5.9c1.6,2.6,2.4,5.4,2.4,8.4c0,3-0.8,5.8-2.3,8.3
		c-1.5,2.6-3.6,4.5-6.3,5.9c-2.7,1.4-5.7,2.1-9,2.1c-3.3,0-6.3-0.7-9-2.1c-2.7-1.4-4.8-3.4-6.3-5.9c-1.5-2.5-2.3-5.3-2.3-8.3
		c0-2.9,0.8-5.7,2.3-8.2c1.5-2.6,3.6-4.6,6.2-6C199.9,8.9,202.9,8.2,206.4,8.2z M195.1,24.5c0,2.1,0.5,4,1.4,5.7c1,1.7,2.3,3,4,3.9
		c1.7,0.9,3.7,1.4,5.8,1.4c3.3,0,6-1,8.1-3.1s3.2-4.7,3.2-8c0-2.1-0.5-4-1.4-5.7c-1-1.7-2.3-3-4-3.9c-1.7-0.9-3.7-1.4-5.8-1.4
		s-4.1,0.5-5.8,1.4c-1.7,0.9-3.1,2.2-4,3.9C195.6,20.5,195.1,22.4,195.1,24.5z"/>
</g>
<g class="st1">
	<path class="st3" d="M71.9,8.6c3,0,5.4,0.9,7.3,2.6s2.8,4,2.8,6.7c0,2.8-0.9,5-2.8,6.7c-1.9,1.7-4.4,2.6-7.5,2.6h-5.9v13.4h-6.2
		V8.6H71.9z M70.4,22.3c1.6,0,2.9-0.4,3.9-1.1s1.4-1.9,1.4-3.3c0-2.9-1.9-4.4-5.7-4.4h-4.2v8.9H70.4z"/>
	<path class="st3" d="M93.1,8.6V22h16.6V8.6h6.2v31.9h-6.2V27H93.1v13.5h-6.2V8.6H93.1z"/>
	<path class="st3" d="M139.2,8.2c3.3,0,6.3,0.7,8.9,2c2.6,1.4,4.7,3.3,6.3,5.9c1.6,2.6,2.4,5.4,2.4,8.4c0,3-0.8,5.8-2.3,8.3
		c-1.5,2.6-3.6,4.5-6.3,5.9s-5.7,2.1-9,2.1c-3.3,0-6.3-0.7-9-2.1c-2.7-1.4-4.8-3.4-6.3-5.9c-1.5-2.5-2.3-5.3-2.3-8.3
		c0-2.9,0.8-5.7,2.3-8.2c1.5-2.6,3.6-4.6,6.2-6C132.7,8.9,135.8,8.2,139.2,8.2z M127.9,24.5c0,2.1,0.5,4,1.4,5.7c1,1.7,2.3,3,4,3.9
		c1.7,0.9,3.7,1.4,5.8,1.4c3.3,0,6-1,8.1-3.1s3.2-4.7,3.2-8c0-2.1-0.5-4-1.4-5.7c-1-1.7-2.3-3-4-3.9c-1.7-0.9-3.7-1.4-5.8-1.4
		c-2.2,0-4.1,0.5-5.8,1.4c-1.7,0.9-3.1,2.2-4,3.9C128.4,20.5,127.9,22.4,127.9,24.5z"/>
	<path class="st3" d="M187.2,8.6v4.8h-11.3v27.1h-6.2V13.4h-11.3V8.6H187.2z"/>
	<path class="st3" d="M206.4,8.2c3.3,0,6.3,0.7,8.9,2s4.8,3.3,6.3,5.9c1.6,2.6,2.4,5.4,2.4,8.4c0,3-0.8,5.8-2.3,8.3
		c-1.5,2.6-3.6,4.5-6.3,5.9c-2.7,1.4-5.7,2.1-9,2.1c-3.3,0-6.3-0.7-9-2.1c-2.7-1.4-4.8-3.4-6.3-5.9c-1.5-2.5-2.3-5.3-2.3-8.3
		c0-2.9,0.8-5.7,2.3-8.2c1.5-2.6,3.6-4.6,6.2-6C199.9,8.9,202.9,8.2,206.4,8.2z M195.1,24.5c0,2.1,0.5,4,1.4,5.7c1,1.7,2.3,3,4,3.9
		c1.7,0.9,3.7,1.4,5.8,1.4c3.3,0,6-1,8.1-3.1s3.2-4.7,3.2-8c0-2.1-0.5-4-1.4-5.7c-1-1.7-2.3-3-4-3.9c-1.7-0.9-3.7-1.4-5.8-1.4
		s-4.1,0.5-5.8,1.4c-1.7,0.9-3.1,2.2-4,3.9C195.6,20.5,195.1,22.4,195.1,24.5z"/>
</g>
<g class="st1">
	<path class="st2" d="M50.7,49.2c1.8,0,3.6,0.2,5.3,0.6c1.7,0.4,3.6,1.1,5.6,2.1v5.8c-2-1.1-3.8-1.9-5.5-2.4
		c-1.7-0.5-3.4-0.8-5.2-0.8c-2.3,0-4.3,0.5-6.1,1.4c-1.8,0.9-3.2,2.3-4.3,4c-1,1.7-1.5,3.6-1.5,5.7c0,2.1,0.5,4,1.5,5.7
		c1,1.7,2.4,3,4.3,3.9c1.8,0.9,3.9,1.4,6.2,1.4c1.8,0,3.4-0.3,5-0.8c1.6-0.5,3.6-1.4,6-2.7v5.8c-2.1,1.1-4,1.9-5.7,2.3
		s-3.8,0.7-6.1,0.7c-3.4,0-6.4-0.7-9-2s-4.7-3.3-6.3-5.8s-2.3-5.3-2.3-8.3c0-3.2,0.8-6.1,2.3-8.7c1.6-2.6,3.7-4.5,6.4-5.9
		C44.2,49.9,47.3,49.2,50.7,49.2z"/>
	<path class="st2" d="M83.8,49.2c3.3,0,6.3,0.7,8.9,2c2.6,1.4,4.7,3.3,6.3,5.9c1.6,2.6,2.4,5.4,2.4,8.4c0,3-0.8,5.8-2.3,8.3
		c-1.5,2.6-3.6,4.5-6.3,5.9c-2.7,1.4-5.7,2.1-9,2.1c-3.3,0-6.3-0.7-9-2.1c-2.7-1.4-4.8-3.4-6.3-5.9c-1.5-2.5-2.3-5.3-2.3-8.3
		c0-2.9,0.8-5.7,2.3-8.2c1.5-2.6,3.6-4.6,6.2-6C77.3,49.9,80.4,49.2,83.8,49.2z M72.5,65.5c0,2.1,0.5,4,1.4,5.7c1,1.7,2.3,3,4,3.9
		c1.7,0.9,3.7,1.4,5.8,1.4c3.3,0,6-1,8.1-3.1s3.2-4.7,3.2-8c0-2.1-0.5-4-1.4-5.7c-1-1.7-2.3-3-4-3.9c-1.7-0.9-3.7-1.4-5.8-1.4
		c-2.2,0-4.1,0.5-5.8,1.4c-1.7,0.9-3.1,2.2-4,3.9S72.5,63.4,72.5,65.5z"/>
	<path class="st2" d="M112.6,49.6l19,22.3V49.6h6v31.9h-5.3l-19.1-22.6v22.6h-6V49.6H112.6z"/>
	<path class="st2" d="M171.1,49.6v4.8h-11.3v27.1h-6.2V54.4h-11.3v-4.8H171.1z"/>
	<path class="st2" d="M196.4,49.6v4.8h-14.5v8.4h13.8v4.8h-13.8v9.1h14.8v4.8h-21V49.6H196.4z"/>
	<path class="st2" d="M211.7,49.2c3.1,0,6.1,0.8,9,2.3V57c-3.3-2-6.2-3-8.8-3c-1.6,0-2.8,0.3-3.6,0.9c-0.9,0.6-1.3,1.4-1.3,2.4
		c0,1.2,0.8,2.3,2.4,3.3c0.5,0.3,2.2,1.2,5.3,2.6c2.6,1.2,4.5,2.6,5.7,4.1c1.2,1.5,1.7,3.3,1.7,5.4c0,2.7-1,5-3,6.6
		c-2,1.7-4.5,2.5-7.7,2.5c-2,0-3.8-0.2-5.3-0.7s-3.1-1.2-4.9-2.3v-6.1c3.4,2.8,6.6,4.3,9.6,4.3c1.5,0,2.7-0.3,3.7-1
		c0.9-0.7,1.4-1.5,1.4-2.6c0-1.5-0.8-2.7-2.4-3.6c-1.3-0.7-3.1-1.6-5.2-2.6c-2.5-1.1-4.4-2.5-5.6-4c-1.2-1.5-1.9-3.3-1.9-5.3
		c0-2.7,1-4.8,3-6.4S208.5,49.2,211.7,49.2z"/>
	<path class="st2" d="M253,49.6v4.8h-11.3v27.1h-6.2V54.4h-11.3v-4.8H253z"/>
</g>
<g class="st1">
	<path class="st3" d="M50.7,49.2c1.8,0,3.6,0.2,5.3,0.6c1.7,0.4,3.6,1.1,5.6,2.1v5.8c-2-1.1-3.8-1.9-5.5-2.4
		c-1.7-0.5-3.4-0.8-5.2-0.8c-2.3,0-4.3,0.5-6.1,1.4c-1.8,0.9-3.2,2.3-4.3,4c-1,1.7-1.5,3.6-1.5,5.7c0,2.1,0.5,4,1.5,5.7
		c1,1.7,2.4,3,4.3,3.9c1.8,0.9,3.9,1.4,6.2,1.4c1.8,0,3.4-0.3,5-0.8c1.6-0.5,3.6-1.4,6-2.7v5.8c-2.1,1.1-4,1.9-5.7,2.3
		s-3.8,0.7-6.1,0.7c-3.4,0-6.4-0.7-9-2s-4.7-3.3-6.3-5.8s-2.3-5.3-2.3-8.3c0-3.2,0.8-6.1,2.3-8.7c1.6-2.6,3.7-4.5,6.4-5.9
		C44.2,49.9,47.3,49.2,50.7,49.2z"/>
	<path class="st3" d="M83.8,49.2c3.3,0,6.3,0.7,8.9,2c2.6,1.4,4.7,3.3,6.3,5.9c1.6,2.6,2.4,5.4,2.4,8.4c0,3-0.8,5.8-2.3,8.3
		c-1.5,2.6-3.6,4.5-6.3,5.9c-2.7,1.4-5.7,2.1-9,2.1c-3.3,0-6.3-0.7-9-2.1c-2.7-1.4-4.8-3.4-6.3-5.9c-1.5-2.5-2.3-5.3-2.3-8.3
		c0-2.9,0.8-5.7,2.3-8.2c1.5-2.6,3.6-4.6,6.2-6C77.3,49.9,80.4,49.2,83.8,49.2z M72.5,65.5c0,2.1,0.5,4,1.4,5.7c1,1.7,2.3,3,4,3.9
		c1.7,0.9,3.7,1.4,5.8,1.4c3.3,0,6-1,8.1-3.1s3.2-4.7,3.2-8c0-2.1-0.5-4-1.4-5.7c-1-1.7-2.3-3-4-3.9c-1.7-0.9-3.7-1.4-5.8-1.4
		c-2.2,0-4.1,0.5-5.8,1.4c-1.7,0.9-3.1,2.2-4,3.9S72.5,63.4,72.5,65.5z"/>
	<path class="st3" d="M112.6,49.6l19,22.3V49.6h6v31.9h-5.3l-19.1-22.6v22.6h-6V49.6H112.6z"/>
	<path class="st3" d="M171.1,49.6v4.8h-11.3v27.1h-6.2V54.4h-11.3v-4.8H171.1z"/>
	<path class="st3" d="M196.4,49.6v4.8h-14.5v8.4h13.8v4.8h-13.8v9.1h14.8v4.8h-21V49.6H196.4z"/>
	<path class="st3" d="M211.7,49.2c3.1,0,6.1,0.8,9,2.3V57c-3.3-2-6.2-3-8.8-3c-1.6,0-2.8,0.3-3.6,0.9c-0.9,0.6-1.3,1.4-1.3,2.4
		c0,1.2,0.8,2.3,2.4,3.3c0.5,0.3,2.2,1.2,5.3,2.6c2.6,1.2,4.5,2.6,5.7,4.1c1.2,1.5,1.7,3.3,1.7,5.4c0,2.7-1,5-3,6.6
		c-2,1.7-4.5,2.5-7.7,2.5c-2,0-3.8-0.2-5.3-0.7s-3.1-1.2-4.9-2.3v-6.1c3.4,2.8,6.6,4.3,9.6,4.3c1.5,0,2.7-0.3,3.7-1
		c0.9-0.7,1.4-1.5,1.4-2.6c0-1.5-0.8-2.7-2.4-3.6c-1.3-0.7-3.1-1.6-5.2-2.6c-2.5-1.1-4.4-2.5-5.6-4c-1.2-1.5-1.9-3.3-1.9-5.3
		c0-2.7,1-4.8,3-6.4S208.5,49.2,211.7,49.2z"/>
	<path class="st3" d="M253,49.6v4.8h-11.3v27.1h-6.2V54.4h-11.3v-4.8H253z"/>
</g>
<text transform="matrix(1 0 0 1 56.0344 146.4998)" class="st2" style="font-family:'GillSans-SemiBold'; font-size:46.8021px;">PHOTO</text>
<text transform="matrix(1 0 0 1 56.0344 146.4998)" class="st3" style="font-family:'GillSans-SemiBold'; font-size:46.8021px;">PHOTO</text>
<text transform="matrix(1 0 0 1 30.4344 187.4998)" class="st2" style="font-family:'GillSans-SemiBold'; font-size:46.8021px;">CONTEST</text>
<text transform="matrix(1 0 0 1 30.4344 187.4998)" class="st3" style="font-family:'GillSans-SemiBold'; font-size:46.8021px;">CONTEST</text>
</svg>
