<?xml version="1.0" encoding="utf-8"?>
<!-- Generator: Adobe Illustrator 26.0.2, SVG Export Plug-In . SVG Version: 6.00 Build 0)  -->
<svg version="1.1" id="レイヤー_1" xmlns="http://www.w3.org/2000/svg" xmlns:xlink="http://www.w3.org/1999/xlink" x="0px"
	 y="0px" viewBox="0 0 194 17" style="enable-background:new 0 0 194 17;" xml:space="preserve">
<style type="text/css">
	.st0{fill:none;}
	.st1{fill:#FFFFFF;stroke:#FFFFFF;stroke-width:0.4794;stroke-miterlimit:10;}
</style>
<path class="st0" d="M0,0"/>
<path class="st0" d="M0,0h194v17H0V0z"/>
<g>
	<path class="st1" d="M18.6,0.6l5.1,6.1l5.1-6.1h2.7V16h-3V5.2h-0.1l-4.4,5.4h-0.4L19,5.2h-0.1V16h-3V0.6H18.6z"/>
	<path class="st1" d="M44.8,0.6L51.6,16h-3.1l-1.6-3.7H40L38.5,16h-3.1l6.3-15.4H44.8z M40.9,10h5l-2.6-6.1L40.9,10z"/>
	<path class="st1" d="M58.7,0.6V16h-3V0.6H58.7z"/>
	<path class="st1" d="M67,0.6l9.1,10.7V0.6h2.9V16h-2.6L67.3,5.1V16h-2.9V0.6H67z"/>
	<path class="st1" d="M92.3,0.6l4.3,9.9l4.2-9.9h3.1l-6.8,15.6h-1l-7-15.6H92.3z"/>
	<path class="st1" d="M111.1,0.6V16h-3V0.6H111.1z"/>
	<path class="st1" d="M121.3,0.4c1.5,0,2.9,0.4,4.3,1.1v2.6c-1.6-1-3-1.4-4.2-1.4c-0.7,0-1.3,0.1-1.8,0.4S119,3.9,119,4.3
		c0,0.6,0.4,1.1,1.2,1.6c0.2,0.1,1.1,0.6,2.5,1.2c1.3,0.6,2.2,1.3,2.7,2c0.6,0.7,0.8,1.6,0.8,2.6c0,1.3-0.5,2.4-1.4,3.2
		c-1,0.8-2.2,1.2-3.7,1.2c-1,0-1.8-0.1-2.5-0.3c-0.7-0.2-1.5-0.6-2.4-1.1v-2.9c1.6,1.4,3.2,2,4.6,2c0.7,0,1.3-0.2,1.8-0.5
		s0.7-0.7,0.7-1.3c0-0.7-0.4-1.3-1.2-1.7c-0.6-0.4-1.5-0.8-2.5-1.3c-1.2-0.5-2.1-1.2-2.7-1.9c-0.6-0.7-0.9-1.6-0.9-2.6
		c0-1.3,0.5-2.3,1.4-3.1C118.4,0.8,119.7,0.4,121.3,0.4z"/>
	<path class="st1" d="M134,0.6v8.9c0,0.9,0.1,1.6,0.4,2.2c0.3,0.5,0.7,1,1.3,1.3c0.6,0.4,1.3,0.5,2.2,0.5c0.9,0,1.7-0.2,2.3-0.5
		s1.1-0.8,1.4-1.4c0.3-0.6,0.4-1.4,0.4-2.4V0.6h3v9.1c0,2.1-0.6,3.7-1.9,4.8c-1.2,1.1-3,1.7-5.3,1.7c-1.4,0-2.7-0.3-3.7-0.8
		c-1-0.5-1.8-1.2-2.4-2.2c-0.5-1-0.8-2.1-0.8-3.4V0.6H134z"/>
	<path class="st1" d="M158.1,0.6l6.8,15.4h-3.1l-1.6-3.7h-6.8l-1.5,3.7h-3.1l6.3-15.4H158.1z M154.2,10h5l-2.6-6.1L154.2,10z"/>
	<path class="st1" d="M171.9,0.6v13.1h7.5V16H169V0.6H171.9z"/>
</g>
<text transform="matrix(1 0 0 1 12.8987 40.7777)" class="st1" style="font-family:'GillSans-SemiBold'; font-size:22.5429px; letter-spacing:2;">MAIN VISUAL</text>
</svg>
