<?xml version="1.0" encoding="utf-8"?>
<!-- Generator: Adobe Illustrator 26.0.2, SVG Export Plug-In . SVG Version: 6.00 Build 0)  -->
<svg version="1.1" id="レイヤー_1" xmlns="http://www.w3.org/2000/svg" xmlns:xlink="http://www.w3.org/1999/xlink" x="0px"
	 y="0px" viewBox="0 0 326 85" style="enable-background:new 0 0 326 85;" xml:space="preserve">
<style type="text/css">
	.st0{fill:none;}
	.st1{enable-background:new    ;}
	.st2{fill:#FFFFFF;}
	.st3{fill:none;stroke:#FFFFFF;stroke-width:0.9954;stroke-miterlimit:10;}
</style>
<path class="st0" d="M0,0h326v85H0V0z"/>
<path class="st0" d="M0,0"/>
<g class="st1">
	<path class="st2" d="M92.5,9.2c3.3,0,6.3,0.7,8.9,2c2.6,1.4,4.7,3.3,6.3,5.9c1.6,2.6,2.4,5.4,2.4,8.4c0,3-0.8,5.8-2.3,8.3
		c-1.5,2.6-3.6,4.5-6.3,5.9s-5.7,2.1-9,2.1c-3.3,0-6.3-0.7-9-2.1c-2.7-1.4-4.8-3.4-6.3-5.9c-1.5-2.5-2.3-5.3-2.3-8.3
		c0-2.9,0.8-5.7,2.3-8.2c1.5-2.6,3.6-4.6,6.2-6C86,9.9,89.1,9.2,92.5,9.2z M81.3,25.5c0,2.1,0.5,4,1.4,5.7c1,1.7,2.3,3,4,3.9
		c1.7,0.9,3.7,1.4,5.8,1.4c3.3,0,6-1,8.1-3.1s3.2-4.7,3.2-8c0-2.1-0.5-4-1.4-5.7c-1-1.7-2.3-3-4-3.9c-1.7-0.9-3.7-1.4-5.8-1.4
		c-2.2,0-4.1,0.5-5.8,1.4c-1.7,0.9-3.1,2.2-4,3.9C81.7,21.5,81.3,23.4,81.3,25.5z"/>
	<path class="st2" d="M121.3,9.6l19,22.3V9.6h6v31.9H141l-19.1-22.6v22.6h-6V9.6H121.3z"/>
	<path class="st2" d="M159.5,9.6v27.1H175v4.8h-21.7V9.6H159.5z"/>
	<path class="st2" d="M185.5,9.6v31.9h-6.2V9.6H185.5z"/>
	<path class="st2" d="M198.1,9.6l19,22.3V9.6h6v31.9h-5.3l-19.1-22.6v22.6h-6V9.6H198.1z"/>
	<path class="st2" d="M250.8,9.6v4.8h-14.5v8.4h13.8v4.8h-13.8v9.1h14.8v4.8h-21V9.6H250.8z"/>
</g>
<g class="st1">
	<path class="st3" d="M92.5,9.2c3.3,0,6.3,0.7,8.9,2c2.6,1.4,4.7,3.3,6.3,5.9c1.6,2.6,2.4,5.4,2.4,8.4c0,3-0.8,5.8-2.3,8.3
		c-1.5,2.6-3.6,4.5-6.3,5.9s-5.7,2.1-9,2.1c-3.3,0-6.3-0.7-9-2.1c-2.7-1.4-4.8-3.4-6.3-5.9c-1.5-2.5-2.3-5.3-2.3-8.3
		c0-2.9,0.8-5.7,2.3-8.2c1.5-2.6,3.6-4.6,6.2-6C86,9.9,89.1,9.2,92.5,9.2z M81.3,25.5c0,2.1,0.5,4,1.4,5.7c1,1.7,2.3,3,4,3.9
		c1.7,0.9,3.7,1.4,5.8,1.4c3.3,0,6-1,8.1-3.1s3.2-4.7,3.2-8c0-2.1-0.5-4-1.4-5.7c-1-1.7-2.3-3-4-3.9c-1.7-0.9-3.7-1.4-5.8-1.4
		c-2.2,0-4.1,0.5-5.8,1.4c-1.7,0.9-3.1,2.2-4,3.9C81.7,21.5,81.3,23.4,81.3,25.5z"/>
	<path class="st3" d="M121.3,9.6l19,22.3V9.6h6v31.9H141l-19.1-22.6v22.6h-6V9.6H121.3z"/>
	<path class="st3" d="M159.5,9.6v27.1H175v4.8h-21.7V9.6H159.5z"/>
	<path class="st3" d="M185.5,9.6v31.9h-6.2V9.6H185.5z"/>
	<path class="st3" d="M198.1,9.6l19,22.3V9.6h6v31.9h-5.3l-19.1-22.6v22.6h-6V9.6H198.1z"/>
	<path class="st3" d="M250.8,9.6v4.8h-14.5v8.4h13.8v4.8h-13.8v9.1h14.8v4.8h-21V9.6H250.8z"/>
</g>
<g class="st1">
	<path class="st2" d="M51.9,50.2c1.8,0,3.6,0.2,5.3,0.6c1.7,0.4,3.6,1.1,5.6,2.1v5.8c-2-1.1-3.8-1.9-5.5-2.4
		c-1.7-0.5-3.4-0.8-5.2-0.8c-2.3,0-4.3,0.5-6.1,1.4c-1.8,0.9-3.2,2.3-4.3,4c-1,1.7-1.5,3.6-1.5,5.7c0,2.1,0.5,4,1.5,5.7
		c1,1.7,2.4,3,4.3,3.9s3.9,1.4,6.2,1.4c1.8,0,3.4-0.3,5-0.8c1.6-0.5,3.6-1.4,6-2.7v5.8c-2.1,1.1-4,1.9-5.7,2.3
		c-1.7,0.5-3.8,0.7-6.1,0.7c-3.4,0-6.4-0.7-9-2c-2.7-1.3-4.7-3.3-6.3-5.8c-1.5-2.5-2.3-5.3-2.3-8.3c0-3.2,0.8-6.1,2.3-8.7
		c1.6-2.6,3.7-4.5,6.4-5.9C45.4,50.9,48.5,50.2,51.9,50.2z"/>
	<path class="st2" d="M85,50.2c3.3,0,6.3,0.7,8.9,2s4.8,3.3,6.3,5.9c1.6,2.6,2.4,5.4,2.4,8.4c0,3-0.8,5.8-2.3,8.3
		c-1.5,2.6-3.6,4.5-6.3,5.9c-2.7,1.4-5.7,2.1-9,2.1c-3.3,0-6.3-0.7-9-2.1c-2.7-1.4-4.8-3.4-6.3-5.9c-1.5-2.5-2.3-5.3-2.3-8.3
		c0-2.9,0.8-5.7,2.3-8.2c1.5-2.6,3.6-4.6,6.2-6C78.5,50.9,81.6,50.2,85,50.2z M73.7,66.5c0,2.1,0.5,4,1.4,5.7c1,1.7,2.3,3,4,3.9
		c1.7,0.9,3.7,1.4,5.8,1.4c3.3,0,6-1,8.1-3.1s3.2-4.7,3.2-8c0-2.1-0.5-4-1.4-5.7c-1-1.7-2.3-3-4-3.9c-1.7-0.9-3.7-1.4-5.8-1.4
		s-4.1,0.5-5.8,1.4c-1.7,0.9-3.1,2.2-4,3.9C74.2,62.5,73.7,64.4,73.7,66.5z"/>
	<path class="st2" d="M113.8,50.6l19,22.3V50.6h6v31.9h-5.3l-19.1-22.6v22.6h-6V50.6H113.8z"/>
	<path class="st2" d="M172.3,50.6v4.8H161v27.1h-6.2V55.4h-11.3v-4.8H172.3z"/>
	<path class="st2" d="M197.6,50.6v4.8h-14.5v8.4H197v4.8h-13.8v9.1H198v4.8h-21V50.6H197.6z"/>
	<path class="st2" d="M209.1,50.6l19,22.3V50.6h6v31.9h-5.3l-19.1-22.6v22.6h-6V50.6H209.1z"/>
	<path class="st2" d="M267.6,50.6v4.8h-11.3v27.1h-6.2V55.4h-11.3v-4.8H267.6z"/>
	<path class="st2" d="M281.1,50.2c3.1,0,6.1,0.8,9,2.3V58c-3.3-2-6.2-3-8.8-3c-1.6,0-2.8,0.3-3.6,0.9c-0.9,0.6-1.3,1.4-1.3,2.4
		c0,1.2,0.8,2.3,2.4,3.3c0.5,0.3,2.2,1.2,5.3,2.6c2.6,1.2,4.5,2.6,5.7,4.1c1.2,1.5,1.7,3.3,1.7,5.4c0,2.7-1,5-3,6.6
		c-2,1.7-4.5,2.5-7.7,2.5c-2,0-3.8-0.2-5.3-0.7c-1.5-0.4-3.1-1.2-4.9-2.3v-6.1c3.4,2.8,6.6,4.3,9.6,4.3c1.5,0,2.7-0.3,3.7-1
		c0.9-0.7,1.4-1.5,1.4-2.6c0-1.5-0.8-2.7-2.4-3.6c-1.3-0.7-3.1-1.6-5.2-2.6c-2.5-1.1-4.4-2.5-5.6-4c-1.2-1.5-1.9-3.3-1.9-5.3
		c0-2.7,1-4.8,3-6.4C275.2,51,277.8,50.2,281.1,50.2z"/>
</g>
<g class="st1">
	<path class="st3" d="M51.9,50.2c1.8,0,3.6,0.2,5.3,0.6c1.7,0.4,3.6,1.1,5.6,2.1v5.8c-2-1.1-3.8-1.9-5.5-2.4
		c-1.7-0.5-3.4-0.8-5.2-0.8c-2.3,0-4.3,0.5-6.1,1.4c-1.8,0.9-3.2,2.3-4.3,4c-1,1.7-1.5,3.6-1.5,5.7c0,2.1,0.5,4,1.5,5.7
		c1,1.7,2.4,3,4.3,3.9s3.9,1.4,6.2,1.4c1.8,0,3.4-0.3,5-0.8c1.6-0.5,3.6-1.4,6-2.7v5.8c-2.1,1.1-4,1.9-5.7,2.3
		c-1.7,0.5-3.8,0.7-6.1,0.7c-3.4,0-6.4-0.7-9-2c-2.7-1.3-4.7-3.3-6.3-5.8c-1.5-2.5-2.3-5.3-2.3-8.3c0-3.2,0.8-6.1,2.3-8.7
		c1.6-2.6,3.7-4.5,6.4-5.9C45.4,50.9,48.5,50.2,51.9,50.2z"/>
	<path class="st3" d="M85,50.2c3.3,0,6.3,0.7,8.9,2s4.8,3.3,6.3,5.9c1.6,2.6,2.4,5.4,2.4,8.4c0,3-0.8,5.8-2.3,8.3
		c-1.5,2.6-3.6,4.5-6.3,5.9c-2.7,1.4-5.7,2.1-9,2.1c-3.3,0-6.3-0.7-9-2.1c-2.7-1.4-4.8-3.4-6.3-5.9c-1.5-2.5-2.3-5.3-2.3-8.3
		c0-2.9,0.8-5.7,2.3-8.2c1.5-2.6,3.6-4.6,6.2-6C78.5,50.9,81.6,50.2,85,50.2z M73.7,66.5c0,2.1,0.5,4,1.4,5.7c1,1.7,2.3,3,4,3.9
		c1.7,0.9,3.7,1.4,5.8,1.4c3.3,0,6-1,8.1-3.1s3.2-4.7,3.2-8c0-2.1-0.5-4-1.4-5.7c-1-1.7-2.3-3-4-3.9c-1.7-0.9-3.7-1.4-5.8-1.4
		s-4.1,0.5-5.8,1.4c-1.7,0.9-3.1,2.2-4,3.9C74.2,62.5,73.7,64.4,73.7,66.5z"/>
	<path class="st3" d="M113.8,50.6l19,22.3V50.6h6v31.9h-5.3l-19.1-22.6v22.6h-6V50.6H113.8z"/>
	<path class="st3" d="M172.3,50.6v4.8H161v27.1h-6.2V55.4h-11.3v-4.8H172.3z"/>
	<path class="st3" d="M197.6,50.6v4.8h-14.5v8.4H197v4.8h-13.8v9.1H198v4.8h-21V50.6H197.6z"/>
	<path class="st3" d="M209.1,50.6l19,22.3V50.6h6v31.9h-5.3l-19.1-22.6v22.6h-6V50.6H209.1z"/>
	<path class="st3" d="M267.6,50.6v4.8h-11.3v27.1h-6.2V55.4h-11.3v-4.8H267.6z"/>
	<path class="st3" d="M281.1,50.2c3.1,0,6.1,0.8,9,2.3V58c-3.3-2-6.2-3-8.8-3c-1.6,0-2.8,0.3-3.6,0.9c-0.9,0.6-1.3,1.4-1.3,2.4
		c0,1.2,0.8,2.3,2.4,3.3c0.5,0.3,2.2,1.2,5.3,2.6c2.6,1.2,4.5,2.6,5.7,4.1c1.2,1.5,1.7,3.3,1.7,5.4c0,2.7-1,5-3,6.6
		c-2,1.7-4.5,2.5-7.7,2.5c-2,0-3.8-0.2-5.3-0.7c-1.5-0.4-3.1-1.2-4.9-2.3v-6.1c3.4,2.8,6.6,4.3,9.6,4.3c1.5,0,2.7-0.3,3.7-1
		c0.9-0.7,1.4-1.5,1.4-2.6c0-1.5-0.8-2.7-2.4-3.6c-1.3-0.7-3.1-1.6-5.2-2.6c-2.5-1.1-4.4-2.5-5.6-4c-1.2-1.5-1.9-3.3-1.9-5.3
		c0-2.7,1-4.8,3-6.4C275.2,51,277.8,50.2,281.1,50.2z"/>
</g>
<text transform="matrix(1 0 0 1 72.6521 161.4999)" class="st2" style="font-family:'GillSans-SemiBold'; font-size:46.8021px;">ONLINE</text>
<text transform="matrix(1 0 0 1 72.6521 161.4999)" class="st3" style="font-family:'GillSans-SemiBold'; font-size:46.8021px;">ONLINE</text>
<text transform="matrix(1 0 0 1 31.6521 202.4999)" class="st2" style="font-family:'GillSans-SemiBold'; font-size:46.8021px;">CONTENTS</text>
<text transform="matrix(1 0 0 1 31.6521 202.4999)" class="st3" style="font-family:'GillSans-SemiBold'; font-size:46.8021px;">CONTENTS</text>
</svg>
