<?xml version="1.0" encoding="utf-8"?>
<!-- Generator: Adobe Illustrator 26.0.2, SVG Export Plug-In . SVG Version: 6.00 Build 0)  -->
<svg version="1.1" id="レイヤー_1" xmlns="http://www.w3.org/2000/svg" xmlns:xlink="http://www.w3.org/1999/xlink" x="0px"
	 y="0px" viewBox="0 0 275 17" style="enable-background:new 0 0 275 17;" xml:space="preserve">
<style type="text/css">
	.st0{fill:none;}
	.st1{fill:#FFFFFF;stroke:#FFFFFF;stroke-width:0.4794;stroke-miterlimit:10;}
</style>
<path class="st0" d="M0,0"/>
<path class="st0" d="M0,0h275v17H0V0z"/>
<g>
	<path class="st1" d="M20.3,0.6l5.1,6.1l5.1-6.1h2.7V16h-3V5.2H30l-4.4,5.4h-0.4l-4.4-5.4h-0.1V16h-3V0.6H20.3z"/>
	<path class="st1" d="M41.7,0.6V16h-3V0.6H41.7z"/>
	<path class="st1" d="M50.1,0.6l5.1,6.1l5.1-6.1h2.7V16h-3V5.2h-0.1l-4.4,5.4H55l-4.4-5.4h-0.1V16h-3V0.6H50.1z"/>
	<path class="st1" d="M76.4,0.4c1.6,0,3,0.3,4.3,1C82,2.1,83,3,83.7,4.2c0.8,1.2,1.1,2.6,1.1,4.1c0,1.4-0.4,2.8-1.1,4
		c-0.7,1.2-1.8,2.2-3,2.9c-1.3,0.7-2.7,1-4.4,1c-1.6,0-3-0.3-4.3-1c-1.3-0.7-2.3-1.6-3-2.8s-1.1-2.5-1.1-4c0-1.4,0.4-2.7,1.1-4
		s1.7-2.2,3-2.9S74.7,0.4,76.4,0.4z M71,8.3c0,1,0.2,1.9,0.7,2.8s1.1,1.4,1.9,1.9c0.8,0.4,1.8,0.7,2.8,0.7c1.6,0,2.9-0.5,3.9-1.5
		c1-1,1.5-2.3,1.5-3.8c0-1-0.2-1.9-0.7-2.8c-0.5-0.8-1.1-1.5-1.9-1.9C78.4,3.2,77.4,3,76.4,3s-2,0.2-2.8,0.7
		c-0.8,0.5-1.5,1.1-1.9,1.9C71.2,6.4,71,7.3,71,8.3z"/>
	<path class="st1" d="M94.4,0.4c1.5,0,2.9,0.4,4.3,1.1v2.6c-1.6-1-3-1.4-4.2-1.4c-0.7,0-1.3,0.1-1.8,0.4s-0.6,0.7-0.6,1.2
		c0,0.6,0.4,1.1,1.2,1.6c0.2,0.1,1.1,0.6,2.5,1.2c1.3,0.6,2.2,1.3,2.7,2c0.6,0.7,0.8,1.6,0.8,2.6c0,1.3-0.5,2.4-1.4,3.2
		c-1,0.8-2.2,1.2-3.7,1.2c-1,0-1.8-0.1-2.5-0.3c-0.7-0.2-1.5-0.6-2.4-1.1v-2.9c1.6,1.4,3.2,2,4.6,2c0.7,0,1.3-0.2,1.8-0.5
		s0.7-0.7,0.7-1.3c0-0.7-0.4-1.3-1.2-1.7c-0.6-0.4-1.5-0.8-2.5-1.3C91.5,8.6,90.6,8,90,7.2c-0.6-0.7-0.9-1.6-0.9-2.6
		c0-1.3,0.5-2.3,1.4-3.1C91.5,0.8,92.8,0.4,94.4,0.4z"/>
	<path class="st1" d="M111.6,0.6l6.8,15.4h-3.1l-1.6-3.7h-6.8l-1.5,3.7h-3.1l6.3-15.4H111.6z M107.7,10h5L110,3.9L107.7,10z"/>
	<path class="st1" d="M134,0.6V16h-3V0.6H134z"/>
	<path class="st1" d="M142.3,0.6l9.1,10.7V0.6h2.9V16h-2.6l-9.2-10.9V16h-2.9V0.6H142.3z"/>
	<path class="st1" d="M174.1,0.6c1.4,0,2.6,0.4,3.4,1.1s1.3,1.7,1.3,2.8c0,0.7-0.2,1.3-0.6,1.9c-0.4,0.5-0.9,1-1.6,1.3v0.1
		c1.1,0.2,1.9,0.7,2.5,1.4c0.6,0.7,0.9,1.6,0.9,2.5c0,0.9-0.2,1.6-0.7,2.3c-0.4,0.7-1,1.2-1.8,1.5c-0.8,0.3-1.7,0.5-2.7,0.5h-6.4
		V0.6H174.1z M173.3,7c0.8,0,1.4-0.2,1.9-0.6c0.5-0.4,0.7-0.9,0.7-1.6c0-0.6-0.2-1.1-0.6-1.4s-1-0.5-1.7-0.5h-2.1V7H173.3z
		 M174,13.7c1,0,1.8-0.2,2.3-0.6s0.8-0.9,0.8-1.7c0-0.7-0.3-1.2-0.8-1.5s-1.2-0.6-2.1-0.6h-2.8v4.3H174z"/>
	<path class="st1" d="M187.9,0.6v13.1h7.5V16h-10.4V0.6H187.9z"/>
	<path class="st1" d="M207,0.4c1.6,0,3,0.3,4.3,1c1.3,0.7,2.3,1.6,3,2.8c0.8,1.2,1.1,2.6,1.1,4.1c0,1.4-0.4,2.8-1.1,4
		c-0.7,1.2-1.8,2.2-3,2.9c-1.3,0.7-2.7,1-4.4,1c-1.6,0-3-0.3-4.3-1c-1.3-0.7-2.3-1.6-3-2.8s-1.1-2.5-1.1-4c0-1.4,0.4-2.7,1.1-4
		s1.7-2.2,3-2.9C203.9,0.8,205.4,0.4,207,0.4z M201.6,8.3c0,1,0.2,1.9,0.7,2.8c0.5,0.8,1.1,1.4,1.9,1.9c0.8,0.4,1.8,0.7,2.8,0.7
		c1.6,0,2.9-0.5,3.9-1.5s1.5-2.3,1.5-3.8c0-1-0.2-1.9-0.7-2.8c-0.5-0.8-1.1-1.5-1.9-1.9C209,3.2,208.1,3,207,3c-1,0-2,0.2-2.8,0.7
		c-0.8,0.5-1.5,1.1-1.9,1.9C201.8,6.4,201.6,7.3,201.6,8.3z"/>
	<path class="st1" d="M228.4,0.4c1.6,0,3,0.3,4.3,1c1.3,0.7,2.3,1.6,3,2.8c0.8,1.2,1.1,2.6,1.1,4.1c0,1.4-0.4,2.8-1.1,4
		c-0.7,1.2-1.8,2.2-3,2.9s-2.7,1-4.4,1c-1.6,0-3-0.3-4.3-1c-1.3-0.7-2.3-1.6-3-2.8c-0.7-1.2-1.1-2.5-1.1-4c0-1.4,0.4-2.7,1.1-4
		c0.7-1.2,1.7-2.2,3-2.9S226.8,0.4,228.4,0.4z M223,8.3c0,1,0.2,1.9,0.7,2.8s1.1,1.4,1.9,1.9c0.8,0.4,1.8,0.7,2.8,0.7
		c1.6,0,2.9-0.5,3.9-1.5c1-1,1.5-2.3,1.5-3.8c0-1-0.2-1.9-0.7-2.8s-1.1-1.5-1.9-1.9c-0.8-0.4-1.8-0.7-2.8-0.7c-1,0-2,0.2-2.8,0.7
		c-0.8,0.5-1.5,1.1-1.9,1.9C223.2,6.4,223,7.3,223,8.3z"/>
	<path class="st1" d="M244.6,0.6l5.1,6.1l5.1-6.1h2.7V16h-3V5.2h-0.1l-4.4,5.4h-0.4L245,5.2h-0.1V16h-3V0.6H244.6z"/>
</g>
<text transform="matrix(1 0 0 1 15.4722 44.9072)" class="st1" style="font-family:'GillSans-SemiBold'; font-size:22.5429px; letter-spacing:2;">MIMOSA IN BLOOM</text>
</svg>
