<svg xmlns="http://www.w3.org/2000/svg" width="164" height="34" viewBox="0 0 164 34">
  <defs>
    <style>
      .cls-1 {
        fill: #fff;
        fill-rule: evenodd;
      }
    </style>
  </defs>
  <path id="LANGAGE_OF_FLOWERS" data-name="LANGAGE OF FLOWERS" class="cls-1" d="M12.68,11.678V0.857H9.242V14.5h9.619V11.678H12.68ZM36.116,14.5l-6-13.662H26.536L20.6,14.5h3.516l1.309-3.145h5.859L32.6,14.5h3.516ZM30.374,9.158H26.321L28.343,4.2ZM49.455,9.363L41.8,0.857H38.781V14.5H42.16V6.023L49.8,14.5h3.057V0.857h-3.4V9.363ZM67.178,3.621a9.173,9.173,0,0,1,2.217.937V1.717A16,16,0,0,0,66.709.911,13.817,13.817,0,0,0,64.1.682a8.632,8.632,0,0,0-4.194.957A6.484,6.484,0,0,0,57.266,4.2a7.144,7.144,0,0,0-.889,3.525,7.021,7.021,0,0,0,.918,3.6,6.328,6.328,0,0,0,2.642,2.466,8.652,8.652,0,0,0,4.019.889,14.817,14.817,0,0,0,2.842-.269,15.848,15.848,0,0,0,2.861-.864V7.225H64.5V9.656h2.08v1.982a6.645,6.645,0,0,1-1.074.264,7.541,7.541,0,0,1-1.006.059,5.072,5.072,0,0,1-2.446-.562,3.973,3.973,0,0,1-1.6-1.528A4.228,4.228,0,0,1,59.9,7.723a4.54,4.54,0,0,1,.518-2.095,4.1,4.1,0,0,1,1.616-1.66A5.35,5.35,0,0,1,64.8,3.318,9.124,9.124,0,0,1,67.178,3.621ZM87.831,14.5l-6-13.662H78.251L72.314,14.5h3.516l1.309-3.145H83L84.316,14.5h3.516ZM82.089,9.158H78.036L80.058,4.2Zm18.6-5.537a9.165,9.165,0,0,1,2.217.937V1.717a16,16,0,0,0-2.685-.806A13.823,13.823,0,0,0,97.615.682a8.632,8.632,0,0,0-4.194.957A6.483,6.483,0,0,0,90.779,4.2a7.144,7.144,0,0,0-.889,3.525,7.021,7.021,0,0,0,.918,3.6,6.328,6.328,0,0,0,2.642,2.466,8.652,8.652,0,0,0,4.019.889,14.824,14.824,0,0,0,2.842-.269,15.85,15.85,0,0,0,2.861-.864V7.225H98.016V9.656h2.08v1.982a6.655,6.655,0,0,1-1.075.264,7.541,7.541,0,0,1-1.006.059,5.073,5.073,0,0,1-2.446-.562,3.973,3.973,0,0,1-1.6-1.528,4.228,4.228,0,0,1-.557-2.148,4.539,4.539,0,0,1,.518-2.095,4.1,4.1,0,0,1,1.616-1.66,5.349,5.349,0,0,1,2.759-.649A9.12,9.12,0,0,1,100.691,3.621ZM116.628,3.3V0.857h-9.336V14.5h9.492V12.059h-6.055V8.738h5.635V6.3h-5.635v-3h5.9Zm24.509,0.82A6.427,6.427,0,0,0,138.52,1.6a8.36,8.36,0,0,0-4.014-.918,8.222,8.222,0,0,0-4.248,1.011A6.437,6.437,0,0,0,127.729,4.3a7.342,7.342,0,0,0-.82,3.4,7.092,7.092,0,0,0,.879,3.486,6.446,6.446,0,0,0,2.578,2.539,8.258,8.258,0,0,0,4.082.947,8.4,8.4,0,0,0,4.082-.937,6.5,6.5,0,0,0,2.617-2.529,7.046,7.046,0,0,0,.9-3.525A7.093,7.093,0,0,0,141.137,4.119ZM130.922,5.608a3.457,3.457,0,0,1,1.407-1.421,4.342,4.342,0,0,1,2.138-.508,4.233,4.233,0,0,1,2.183.542,3.614,3.614,0,0,1,1.4,1.45,4.208,4.208,0,0,1,.479,1.992A3.869,3.869,0,0,1,137.4,10.6a4.1,4.1,0,0,1-2.954,1.079,4.287,4.287,0,0,1-2.08-.5,3.517,3.517,0,0,1-1.426-1.411,4.172,4.172,0,0,1-.508-2.065A4.38,4.38,0,0,1,130.922,5.608Zm23.6-2.31V0.857H145.57V14.5h3.437V8.738h5.518V6.277h-5.518V3.3h5.518ZM38.674,21.632V19.191H29.719V32.833h3.437V27.072h5.518V24.611H33.156V21.632h5.518Zm7,8.379V19.191H42.237V32.833h9.619V30.011H45.675Zm23.007-7.559a6.428,6.428,0,0,0-2.617-2.52,8.362,8.362,0,0,0-4.014-.918A8.224,8.224,0,0,0,57.8,20.026a6.435,6.435,0,0,0-2.529,2.607,7.345,7.345,0,0,0-.82,3.4,7.093,7.093,0,0,0,.879,3.486,6.453,6.453,0,0,0,2.578,2.539,8.261,8.261,0,0,0,4.082.947,8.4,8.4,0,0,0,4.082-.937,6.494,6.494,0,0,0,2.617-2.529A7.407,7.407,0,0,0,68.681,22.453ZM58.466,23.942a3.458,3.458,0,0,1,1.406-1.421,4.348,4.348,0,0,1,2.139-.508,4.233,4.233,0,0,1,2.183.542,3.614,3.614,0,0,1,1.4,1.45A4.209,4.209,0,0,1,66.074,26a3.87,3.87,0,0,1-1.128,2.935,4.1,4.1,0,0,1-2.954,1.079,4.291,4.291,0,0,1-2.08-.5A3.52,3.52,0,0,1,58.486,28.1a4.176,4.176,0,0,1-.508-2.065A4.374,4.374,0,0,1,58.466,23.942ZM78.29,27.316l-3.106-8.125H71.649L77.313,32.97h1.8l3.857-8.955,3.818,8.955h1.767l5.752-13.779h-3.5l-3.184,8.125-3.34-8.125h-2.6Zm28.016-5.684V19.191H96.97V32.833h9.492V30.392h-6.055v-3.32h5.635V24.63h-5.635v-3h5.9Zm13.153-1.309a5.248,5.248,0,0,0-3.613-1.133h-5.674V32.833h3.437v-5.5h0.616a2.922,2.922,0,0,1,1.1.181,2.356,2.356,0,0,1,.869.689,7.972,7.972,0,0,1,.948,1.553l1.582,3.076h3.759L120.709,29.4a12.482,12.482,0,0,0-1.113-1.763,3.825,3.825,0,0,0-1.114-.942,3.736,3.736,0,0,0,1.685-1.367,3.628,3.628,0,0,0,.562-2.012A3.813,3.813,0,0,0,119.459,20.324Zm-2.793,4.4a2.84,2.84,0,0,1-1.621.386h-1.436V21.535h1.5q2.118,0,2.119,1.816A1.553,1.553,0,0,1,116.666,24.723ZM131.6,19.3a8.575,8.575,0,0,0-2.221-.288,5.732,5.732,0,0,0-2.495.5A3.7,3.7,0,0,0,125.3,20.87a3.526,3.526,0,0,0-.542,1.924,3.484,3.484,0,0,0,.5,1.9,4.487,4.487,0,0,0,1.2,1.289,14.664,14.664,0,0,0,1.694,1.011,11.432,11.432,0,0,1,1.606.889,2.478,2.478,0,0,1,.689.649,1.26,1.26,0,0,1,.166.659,1.088,1.088,0,0,1-.449.884,2.07,2.07,0,0,1-1.309.357,6.454,6.454,0,0,1-3.994-1.641v3.086a9.749,9.749,0,0,0,4.434,1.133,5.989,5.989,0,0,0,2.475-.488,3.889,3.889,0,0,0,1.69-1.387,3.657,3.657,0,0,0,.6-2.08,3.44,3.44,0,0,0-.483-1.87,4.607,4.607,0,0,0-1.27-1.318,18.982,18.982,0,0,0-2.153-1.255A7.493,7.493,0,0,1,128.52,23.6a1.216,1.216,0,0,1-.42-0.9,1.06,1.06,0,0,1,.411-0.874,1.909,1.909,0,0,1,1.21-.327,6.175,6.175,0,0,1,3.78,1.514v-2.92A7.238,7.238,0,0,0,131.6,19.3Z"/>
</svg>
