<?xml version="1.0" encoding="utf-8"?>
<!-- Generator: Adobe Illustrator 26.0.2, SVG Export Plug-In . SVG Version: 6.00 Build 0)  -->
<svg version="1.1" id="レイヤー_1" xmlns="http://www.w3.org/2000/svg" xmlns:xlink="http://www.w3.org/1999/xlink" x="0px"
	 y="0px" viewBox="0 0 78 17" style="enable-background:new 0 0 78 17;" xml:space="preserve">
<style type="text/css">
	.st0{fill:none;}
	.st1{fill:#FFFFFF;stroke:#FFFFFF;stroke-width:0.4794;stroke-miterlimit:10;}
</style>
<path class="st0" d="M0,0"/>
<path class="st0" d="M0,0h78v17H0V0z"/>
<g>
	<path class="st1" d="M13.9,0.5c1.5,0,2.9,0.4,4.3,1.1v2.6c-1.6-1-3-1.4-4.2-1.4c-0.7,0-1.3,0.1-1.8,0.4s-0.6,0.7-0.6,1.2
		C11.6,5,12,5.5,12.8,6c0.2,0.1,1.1,0.6,2.5,1.2c1.3,0.6,2.2,1.3,2.7,2c0.6,0.7,0.8,1.6,0.8,2.6c0,1.3-0.5,2.4-1.4,3.2
		c-1,0.8-2.2,1.2-3.7,1.2c-1,0-1.8-0.1-2.5-0.3c-0.7-0.2-1.5-0.6-2.4-1.1v-2.9c1.6,1.4,3.2,2,4.6,2c0.7,0,1.3-0.2,1.8-0.5
		s0.7-0.7,0.7-1.3c0-0.7-0.4-1.3-1.2-1.7c-0.6-0.4-1.5-0.8-2.5-1.3C11,8.6,10.1,8,9.5,7.3C8.9,6.5,8.6,5.7,8.6,4.7
		c0-1.3,0.5-2.3,1.4-3.1C11,0.9,12.3,0.5,13.9,0.5z"/>
	<path class="st1" d="M30.2,0.7c1.6,0,3,0.3,4.3,1s2.2,1.6,2.9,2.8c0.7,1.2,1,2.5,1,4c0,1.5-0.3,2.8-1,4s-1.7,2.1-3,2.7
		c-1.3,0.6-2.7,1-4.4,1h-6.3V0.7H30.2z M29.9,13.7c1.6,0,3-0.5,4-1.5c1-1,1.5-2.3,1.5-3.9c0-1.7-0.5-3-1.5-3.9c-1-1-2.4-1.4-4-1.4
		h-3.1v10.7H29.9z"/>
	<path class="st1" d="M51.5,0.5c1.9,0,3.8,0.4,5.6,1.3v2.7C55.3,3.5,53.4,3,51.6,3c-1.1,0-2.1,0.2-3,0.7c-0.9,0.4-1.5,1.1-2,1.9
		c-0.5,0.8-0.7,1.8-0.7,2.8c0,1.6,0.5,2.8,1.6,3.8c1,1,2.4,1.4,4.1,1.4c0.5,0,0.9,0,1.3-0.1c0.4-0.1,0.9-0.2,1.5-0.5v-2.6h-2.5V8.2
		h5.5v6.3c-0.8,0.5-1.7,0.9-2.7,1.2c-1.1,0.3-2.2,0.4-3.3,0.4c-1.6,0-3.1-0.3-4.4-1c-1.3-0.7-2.3-1.6-3.1-2.8
		c-0.7-1.2-1.1-2.5-1.1-4c0-1.5,0.4-2.9,1.1-4.1c0.7-1.2,1.8-2.2,3.1-2.8C48.4,0.8,49.8,0.5,51.5,0.5z"/>
	<path class="st1" d="M65.8,5.6c0.6,0,1.1,0.1,1.6,0.2s1,0.3,1.6,0.6v2.2c-0.5-0.3-1.1-0.6-1.7-0.8c-0.6-0.2-1.1-0.3-1.6-0.3
		c-0.4,0-0.7,0.1-0.9,0.2c-0.2,0.1-0.3,0.4-0.3,0.6c0,0.2,0.1,0.3,0.3,0.5c0.2,0.2,0.7,0.4,1.5,0.8c1.2,0.6,2,1.1,2.5,1.6
		c0.5,0.5,0.7,1.1,0.7,1.8c0,1-0.3,1.8-1,2.3c-0.7,0.6-1.6,0.9-2.8,0.9c-0.7,0-1.4-0.1-2.1-0.2s-1.2-0.4-1.6-0.6v-2.3
		c1.3,0.7,2.4,1.1,3.3,1.1c0.5,0,0.8-0.1,1.1-0.2s0.4-0.4,0.4-0.7c0-0.2-0.1-0.3-0.2-0.4s-0.3-0.3-0.5-0.4c-0.2-0.1-0.8-0.5-1.9-1
		c-0.8-0.4-1.4-0.8-1.8-1.3c-0.4-0.5-0.6-1-0.6-1.7c0-0.9,0.4-1.6,1.1-2.2C63.7,5.8,64.7,5.6,65.8,5.6z"/>
</g>
<text transform="matrix(1 0 0 1 7.7422 38.852)" class="st1" style="font-family:'GillSans-SemiBold'; font-size:22.5429px; letter-spacing:2;">SDGs</text>
</svg>
