<?xml version="1.0" encoding="utf-8"?>
<!-- Generator: Adobe Illustrator 26.0.2, SVG Export Plug-In . SVG Version: 6.00 Build 0)  -->
<svg version="1.1" id="レイヤー_1" xmlns="http://www.w3.org/2000/svg" xmlns:xlink="http://www.w3.org/1999/xlink" x="0px"
	 y="0px" viewBox="0 0 298 18" style="enable-background:new 0 0 298 18;" xml:space="preserve">
<style type="text/css">
	.st0{fill:none;}
	.st1{fill:#FFFFFF;stroke:#FFFFFF;stroke-width:0.4794;stroke-miterlimit:10;}
</style>
<path class="st0" d="M0,0"/>
<path class="st0" d="M0,0h298v18H0V0z"/>
<text transform="matrix(1 0 0 1 19.4116 46.1479)" class="st1" style="font-family:'GillSans-SemiBold'; font-size:22.5429px; letter-spacing:2;">ENJOY THE YELLOW</text>
<g>
	<path class="st1" d="M33.3,0.6v2.3h-7v4H33v2.3h-6.7v4.4h7.1V16H23.4V0.6H33.3z"/>
	<path class="st1" d="M41.1,0.6l9.1,10.7V0.6h2.9V16h-2.6L41.4,5.1V16h-2.9V0.6H41.1z"/>
	<path class="st1" d="M61.8,0.6v14.8c0,1.6-0.4,3-1.3,3.9c-0.9,1-2,1.5-3.5,1.5c-0.1,0-0.2,0-0.3,0c-0.1,0-0.2,0-0.3,0l-0.2-2.6
		c1.8,0,2.6-1,2.6-3.1V0.6H61.8z"/>
	<path class="st1" d="M75.4,0.4c1.6,0,3,0.3,4.3,1C81,2.1,82,3,82.7,4.2c0.8,1.2,1.1,2.6,1.1,4.1c0,1.4-0.4,2.8-1.1,4
		c-0.7,1.2-1.8,2.2-3,2.9c-1.3,0.7-2.7,1-4.4,1c-1.6,0-3-0.3-4.3-1c-1.3-0.7-2.3-1.6-3-2.8s-1.1-2.5-1.1-4c0-1.4,0.4-2.7,1.1-4
		s1.7-2.2,3-2.9S73.7,0.4,75.4,0.4z M70,8.3c0,1,0.2,1.9,0.7,2.8s1.1,1.4,1.9,1.9c0.8,0.4,1.8,0.7,2.8,0.7c1.6,0,2.9-0.5,3.9-1.5
		c1-1,1.5-2.3,1.5-3.8c0-1-0.2-1.9-0.7-2.8c-0.5-0.8-1.1-1.5-1.9-1.9C77.4,3.2,76.4,3,75.4,3s-2,0.2-2.8,0.7
		c-0.8,0.5-1.5,1.1-1.9,1.9C70.2,6.4,70,7.3,70,8.3z"/>
	<path class="st1" d="M89.8,0.6l3.7,5.1l3.8-5.1h3.5L95,8.4V16h-3V8.4l-5.8-7.7H89.8z"/>
	<path class="st1" d="M124.6,0.6v2.3h-5.5V16h-3V2.9h-5.5V0.6H124.6z"/>
	<path class="st1" d="M132,0.6v6.5h8V0.6h3V16h-3V9.5h-8V16h-3V0.6H132z"/>
	<path class="st1" d="M158.6,0.6v2.3h-7v4h6.7v2.3h-6.7v4.4h7.1V16h-10.1V0.6H158.6z"/>
	<path class="st1" d="M173.4,0.6l3.7,5.1l3.8-5.1h3.5l-5.8,7.8V16h-3V8.4l-5.8-7.7H173.4z"/>
	<path class="st1" d="M198.4,0.6v2.3h-7v4h6.7v2.3h-6.7v4.4h7.1V16h-10.1V0.6H198.4z"/>
	<path class="st1" d="M206.5,0.6v13.1h7.5V16h-10.4V0.6H206.5z"/>
	<path class="st1" d="M221.3,0.6v13.1h7.5V16h-10.4V0.6H221.3z"/>
	<path class="st1" d="M240.4,0.4c1.6,0,3,0.3,4.3,1c1.3,0.7,2.3,1.6,3,2.8c0.8,1.2,1.1,2.6,1.1,4.1c0,1.4-0.4,2.8-1.1,4
		c-0.7,1.2-1.8,2.2-3,2.9c-1.3,0.7-2.7,1-4.4,1c-1.6,0-3-0.3-4.3-1c-1.3-0.7-2.3-1.6-3-2.8s-1.1-2.5-1.1-4c0-1.4,0.4-2.7,1.1-4
		s1.7-2.2,3-2.9C237.3,0.8,238.8,0.4,240.4,0.4z M235,8.3c0,1,0.2,1.9,0.7,2.8c0.5,0.8,1.1,1.4,1.9,1.9c0.8,0.4,1.8,0.7,2.8,0.7
		c1.6,0,2.9-0.5,3.9-1.5s1.5-2.3,1.5-3.8c0-1-0.2-1.9-0.7-2.8c-0.5-0.8-1.1-1.5-1.9-1.9c-0.8-0.4-1.8-0.7-2.8-0.7
		c-1,0-2,0.2-2.8,0.7c-0.8,0.5-1.5,1.1-1.9,1.9C235.2,6.4,235,7.3,235,8.3z"/>
	<path class="st1" d="M255,0.6l3.8,9.5l4-9.5h2.5l4.1,9.5l3.8-9.5h3l-6.3,15.6h-1l-4.8-11.4l-4.9,11.4h-1l-6.3-15.6H255z"/>
</g>
</svg>
