<?xml version="1.0" encoding="utf-8"?>
<!-- Generator: Adobe Illustrator 26.0.2, SVG Export Plug-In . SVG Version: 6.00 Build 0)  -->
<svg version="1.1" id="レイヤー_1" xmlns="http://www.w3.org/2000/svg" xmlns:xlink="http://www.w3.org/1999/xlink" x="0px"
	 y="0px" viewBox="0 0 214 29" style="enable-background:new 0 0 214 29;" xml:space="preserve">
<style type="text/css">
	.st0{fill:none;}
	.st1{enable-background:new    ;}
	.st2{fill:#FFFFFF;}
	.st3{fill:none;stroke:#FFFFFF;stroke-width:0.8068;stroke-miterlimit:10;}
</style>
<path class="st0" d="M0,0"/>
<path class="st0" d="M0,0h214v29H0V0z"/>
<g class="st1">
	<path class="st2" d="M41.8,1.2c2.5,0,4.9,0.6,7.3,1.9v4.4C46.4,6,44,5.2,42,5.2c-1.3,0-2.2,0.2-3,0.7c-0.7,0.5-1.1,1.1-1.1,2
		c0,1,0.7,1.9,2,2.7c0.4,0.2,1.8,0.9,4.3,2.1c2.1,1,3.7,2.1,4.6,3.3s1.4,2.7,1.4,4.4c0,2.2-0.8,4-2.4,5.4c-1.6,1.4-3.7,2-6.2,2
		c-1.7,0-3.1-0.2-4.3-0.5s-2.5-1-4-1.9v-4.9c2.8,2.3,5.4,3.4,7.8,3.4c1.2,0,2.2-0.3,3-0.8c0.8-0.5,1.1-1.2,1.1-2.1
		c0-1.2-0.7-2.2-2-2.9c-1.1-0.6-2.5-1.3-4.2-2.1c-2-0.9-3.6-2-4.6-3.2c-1-1.2-1.5-2.7-1.5-4.3c0-2.2,0.8-3.9,2.4-5.2
		C37,1.9,39.2,1.2,41.8,1.2z"/>
	<path class="st2" d="M64.6,1.6c2.4,0,4.4,0.7,5.9,2.1c1.5,1.4,2.3,3.2,2.3,5.4c0,2.2-0.8,4-2.3,5.4s-3.6,2.1-6.1,2.1h-4.8v10.9h-5
		V1.6H64.6z M63.3,12.7c1.3,0,2.4-0.3,3.1-0.9s1.1-1.5,1.1-2.7c0-2.4-1.5-3.6-4.6-3.6h-3.4v7.2H63.3z"/>
	<path class="st2" d="M93.5,1.6v3.9H81.7v6.8H93v3.9H81.7v7.4h12v3.9h-17V1.6H93.5z"/>
	<path class="st2" d="M112,1.2c1.5,0,2.9,0.2,4.3,0.5c1.4,0.3,2.9,0.9,4.6,1.7v4.7c-1.6-0.9-3.1-1.6-4.4-2c-1.4-0.4-2.8-0.6-4.2-0.6
		c-1.8,0-3.5,0.4-5,1.1s-2.6,1.8-3.5,3.2s-1.2,2.9-1.2,4.6c0,1.7,0.4,3.3,1.2,4.6c0.8,1.4,2,2.4,3.4,3.2c1.5,0.7,3.1,1.1,5,1.1
		c1.4,0,2.8-0.2,4.1-0.6c1.3-0.4,2.9-1.1,4.9-2.2v4.7c-1.7,0.9-3.2,1.5-4.6,1.9c-1.4,0.4-3.1,0.6-4.9,0.6c-2.7,0-5.2-0.5-7.3-1.6
		c-2.1-1.1-3.8-2.7-5.1-4.7c-1.2-2-1.8-4.3-1.8-6.7c0-2.6,0.6-4.9,1.9-7c1.3-2.1,3-3.7,5.2-4.8C106.7,1.8,109.2,1.2,112,1.2z"/>
	<path class="st2" d="M131,1.6v25.9h-5V1.6H131z"/>
	<path class="st2" d="M149.9,1.6l11.4,25.9h-5.3l-2.7-6.3h-11.5l-2.5,6.3h-5.2l10.7-25.9H149.9z M143.4,17.4h8.4l-4.4-10.2
		L143.4,17.4z"/>
	<path class="st2" d="M169.4,1.6v22H182v3.9h-17.6V1.6H169.4z"/>
</g>
<g class="st1">
	<path class="st3" d="M41.8,1.2c2.5,0,4.9,0.6,7.3,1.9v4.4C46.4,6,44,5.2,42,5.2c-1.3,0-2.2,0.2-3,0.7c-0.7,0.5-1.1,1.1-1.1,2
		c0,1,0.7,1.9,2,2.7c0.4,0.2,1.8,0.9,4.3,2.1c2.1,1,3.7,2.1,4.6,3.3s1.4,2.7,1.4,4.4c0,2.2-0.8,4-2.4,5.4c-1.6,1.4-3.7,2-6.2,2
		c-1.7,0-3.1-0.2-4.3-0.5s-2.5-1-4-1.9v-4.9c2.8,2.3,5.4,3.4,7.8,3.4c1.2,0,2.2-0.3,3-0.8s1.1-1.2,1.1-2.1c0-1.2-0.7-2.2-2-2.9
		c-1.1-0.6-2.5-1.3-4.2-2.1c-2-0.9-3.6-2-4.6-3.2s-1.5-2.7-1.5-4.3c0-2.2,0.8-3.9,2.4-5.2C37,1.9,39.2,1.2,41.8,1.2z"/>
	<path class="st3" d="M64.6,1.6c2.4,0,4.4,0.7,5.9,2.1s2.3,3.2,2.3,5.4s-0.8,4-2.3,5.4s-3.6,2.1-6.1,2.1h-4.8v10.9h-5V1.6H64.6z
		 M63.3,12.7c1.3,0,2.4-0.3,3.1-0.9s1.1-1.5,1.1-2.7c0-2.4-1.5-3.6-4.6-3.6h-3.4v7.2C59.5,12.7,63.3,12.7,63.3,12.7z"/>
	<path class="st3" d="M93.5,1.6v3.9H81.7v6.8H93v3.9H81.7v7.4h12v3.9h-17V1.6H93.5z"/>
	<path class="st3" d="M112,1.2c1.5,0,2.9,0.2,4.3,0.5s2.9,0.9,4.6,1.7v4.7c-1.6-0.9-3.1-1.6-4.4-2c-1.4-0.4-2.8-0.6-4.2-0.6
		c-1.8,0-3.5,0.4-5,1.1s-2.6,1.8-3.5,3.2s-1.2,2.9-1.2,4.6c0,1.7,0.4,3.3,1.2,4.6c0.8,1.4,2,2.4,3.4,3.2c1.5,0.7,3.1,1.1,5,1.1
		c1.4,0,2.8-0.2,4.1-0.6c1.3-0.4,2.9-1.1,4.9-2.2v4.7c-1.7,0.9-3.2,1.5-4.6,1.9s-3.1,0.6-4.9,0.6c-2.7,0-5.2-0.5-7.3-1.6
		c-2.1-1.1-3.8-2.7-5.1-4.7c-1.2-2-1.8-4.3-1.8-6.7c0-2.6,0.6-4.9,1.9-7s3-3.7,5.2-4.8C106.7,1.8,109.2,1.2,112,1.2z"/>
	<path class="st3" d="M131,1.6v25.9h-5V1.6H131z"/>
	<path class="st3" d="M149.9,1.6l11.4,25.9H156l-2.7-6.3h-11.5l-2.5,6.3h-5.2l10.7-25.9C144.8,1.6,149.9,1.6,149.9,1.6z M143.4,17.4
		h8.4l-4.4-10.2L143.4,17.4z"/>
	<path class="st3" d="M169.4,1.6v22H182v3.9h-17.6V1.6H169.4z"/>
</g>
<text transform="matrix(1 0 0 1 31.4639 88.457)" class="st3" style="font-family:'GillSans-SemiBold'; font-size:37.9348px;">SPECIAL</text>
</svg>
