<?xml version="1.0" encoding="utf-8"?>
<!-- Generator: Adobe Illustrator 26.0.2, SVG Export Plug-In . SVG Version: 6.00 Build 0)  -->
<svg version="1.1" id="レイヤー_1" xmlns="http://www.w3.org/2000/svg" xmlns:xlink="http://www.w3.org/1999/xlink" x="0px"
	 y="0px" viewBox="0 0 362 18" style="enable-background:new 0 0 362 18;" xml:space="preserve">
<style type="text/css">
	.st0{fill:none;}
	.st1{fill:#FFFFFF;stroke:#FFFFFF;stroke-width:0.4794;stroke-miterlimit:10;}
</style>
<path class="st0" d="M0,0h362v18H0V0z"/>
<path class="st0" d="M0,0"/>
<g>
	<path class="st1" d="M26.8,1.1v13.1h7.5v2.3H23.9V1.1H26.8z"/>
	<path class="st1" d="M46.4,1.1l6.8,15.4H50l-1.6-3.7h-6.8l-1.5,3.7H37l6.3-15.4H46.4z M42.5,10.5h5l-2.6-6.1L42.5,10.5z"/>
	<path class="st1" d="M59.8,1.1L69,11.8V1.1h2.9v15.4h-2.6L60.1,5.6v10.9h-2.9V1.1H59.8z"/>
	<path class="st1" d="M85.6,0.9c1.9,0,3.8,0.4,5.6,1.3v2.7c-1.9-0.9-3.7-1.4-5.5-1.4c-1.1,0-2.1,0.2-3,0.7c-0.9,0.4-1.6,1.1-2,1.9
		S80,7.9,80,8.9c0,1.6,0.5,2.8,1.6,3.8c1,1,2.4,1.4,4.1,1.4c0.5,0,0.9,0,1.3-0.1c0.4-0.1,0.9-0.2,1.5-0.5V11H86V8.7h5.5V15
		c-0.8,0.5-1.7,0.9-2.7,1.2c-1.1,0.3-2.2,0.4-3.3,0.4c-1.6,0-3.1-0.3-4.4-1c-1.3-0.7-2.3-1.6-3.1-2.8c-0.7-1.2-1.1-2.5-1.1-4
		c0-1.5,0.4-2.9,1.1-4.1s1.8-2.2,3.1-2.8S83.9,0.9,85.6,0.9z"/>
	<path class="st1" d="M99.8,1.1v8.9c0,0.9,0.1,1.6,0.4,2.2c0.3,0.5,0.7,1,1.3,1.3c0.6,0.4,1.4,0.5,2.2,0.5c0.9,0,1.7-0.2,2.3-0.5
		s1.1-0.8,1.4-1.4s0.4-1.4,0.4-2.4V1.1h3v9.1c0,2.1-0.6,3.7-1.9,4.8c-1.2,1.1-3,1.7-5.3,1.7c-1.4,0-2.7-0.3-3.7-0.8
		c-1-0.5-1.8-1.2-2.4-2.2c-0.6-1-0.8-2.1-0.8-3.4V1.1H99.8z"/>
	<path class="st1" d="M124,1.1l6.8,15.4h-3.1l-1.6-3.7h-6.8l-1.5,3.7h-3.1l6.3-15.4H124z M120.1,10.5h5l-2.6-6.1L120.1,10.5z"/>
	<path class="st1" d="M142.2,0.9c1.9,0,3.8,0.4,5.6,1.3v2.7c-1.9-0.9-3.7-1.4-5.5-1.4c-1.1,0-2.1,0.2-3,0.7c-0.9,0.4-1.6,1.1-2,1.9
		s-0.7,1.8-0.7,2.8c0,1.6,0.5,2.8,1.6,3.8c1,1,2.4,1.4,4.1,1.4c0.5,0,0.9,0,1.3-0.1c0.4-0.1,0.9-0.2,1.5-0.5V11h-2.5V8.7h5.5V15
		c-0.8,0.5-1.7,0.9-2.7,1.2c-1.1,0.3-2.2,0.4-3.3,0.4c-1.6,0-3.1-0.3-4.4-1c-1.3-0.7-2.3-1.6-3.1-2.8c-0.7-1.2-1.1-2.5-1.1-4
		c0-1.5,0.4-2.9,1.1-4.1s1.8-2.2,3.1-2.8S140.6,0.9,142.2,0.9z"/>
	<path class="st1" d="M163.5,1.1v2.3h-7v4h6.7v2.3h-6.7v4.4h7.1v2.3h-10.1V1.1H163.5z"/>
	<path class="st1" d="M185.1,0.9c1.6,0,3,0.3,4.3,1c1.3,0.7,2.3,1.6,3,2.8c0.8,1.2,1.1,2.6,1.1,4.1c0,1.4-0.4,2.8-1.1,4
		c-0.7,1.2-1.8,2.2-3,2.9c-1.3,0.7-2.7,1-4.4,1c-1.6,0-3-0.3-4.3-1c-1.3-0.7-2.3-1.6-3-2.8s-1.1-2.5-1.1-4c0-1.4,0.4-2.7,1.1-4
		s1.7-2.2,3-2.9S183.5,0.9,185.1,0.9z M179.7,8.8c0,1,0.2,1.9,0.7,2.8s1.1,1.4,1.9,1.9c0.8,0.4,1.8,0.7,2.8,0.7
		c1.6,0,2.9-0.5,3.9-1.5s1.5-2.3,1.5-3.8c0-1-0.2-1.9-0.7-2.8c-0.5-0.8-1.1-1.5-1.9-1.9c-0.8-0.4-1.8-0.7-2.8-0.7
		c-1,0-2,0.2-2.8,0.7c-0.8,0.5-1.5,1.1-1.9,1.9C179.9,6.9,179.7,7.8,179.7,8.8z"/>
	<path class="st1" d="M208,1.1v2.3h-6.4v4h6.4v2.3h-6.4v6.7h-3V1.1H208z"/>
	<path class="st1" d="M230.9,1.1v2.3h-6.4v4h6.4v2.3h-6.4v6.7h-3V1.1H230.9z"/>
	<path class="st1" d="M238.8,1.1v13.1h7.5v2.3h-10.4V1.1H238.8z"/>
	<path class="st1" d="M258,0.9c1.6,0,3,0.3,4.3,1c1.3,0.7,2.3,1.6,3,2.8c0.8,1.2,1.1,2.6,1.1,4.1c0,1.4-0.4,2.8-1.1,4
		c-0.7,1.2-1.8,2.2-3,2.9s-2.7,1-4.4,1c-1.6,0-3-0.3-4.3-1c-1.3-0.7-2.3-1.6-3-2.8c-0.7-1.2-1.1-2.5-1.1-4c0-1.4,0.4-2.7,1.1-4
		c0.7-1.2,1.7-2.2,3-2.9S256.3,0.9,258,0.9z M252.6,8.8c0,1,0.2,1.9,0.7,2.8s1.1,1.4,1.9,1.9c0.8,0.4,1.8,0.7,2.8,0.7
		c1.6,0,2.9-0.5,3.9-1.5c1-1,1.5-2.3,1.5-3.8c0-1-0.2-1.9-0.7-2.8s-1.1-1.5-1.9-1.9c-0.8-0.4-1.8-0.7-2.8-0.7c-1,0-2,0.2-2.8,0.7
		c-0.8,0.5-1.5,1.1-1.9,1.9C252.8,6.9,252.6,7.8,252.6,8.8z"/>
	<path class="st1" d="M272.5,1.1l3.8,9.5l4-9.5h2.5l4.1,9.5l3.8-9.5h3l-6.3,15.6h-1l-4.8-11.4l-4.9,11.4h-1l-6.3-15.6H272.5z"/>
	<path class="st1" d="M307.8,1.1v2.3h-7v4h6.7v2.3h-6.7v4.4h7.1v2.3h-10.1V1.1H307.8z"/>
	<path class="st1" d="M318.5,1.1c1.4,0,2.6,0.4,3.5,1.2c0.9,0.8,1.4,1.8,1.4,3.1c0,0.9-0.2,1.6-0.7,2.3s-1.1,1.2-2,1.5
		c0.5,0.3,0.9,0.6,1.3,1.1c0.4,0.5,0.9,1.2,1.4,2.3c0.9,1.9,1.6,3.1,2.1,3.9h-3.3c-0.2-0.3-0.5-0.9-0.9-1.6
		c-0.9-1.6-1.5-2.7-1.9-3.3s-0.8-1-1.1-1.2S317.5,10,317,10h-1.1v6.5h-3V1.1H318.5z M317.8,7.7c0.8,0,1.4-0.2,1.8-0.6
		c0.4-0.4,0.7-0.9,0.7-1.6c0-0.7-0.2-1.2-0.7-1.6c-0.4-0.3-1.1-0.5-1.9-0.5h-1.8v4.3H317.8z"/>
	<path class="st1" d="M334,0.9c1.5,0,2.9,0.4,4.3,1.1v2.6c-1.6-1-3-1.4-4.2-1.4c-0.7,0-1.3,0.1-1.8,0.4s-0.6,0.7-0.6,1.2
		c0,0.6,0.4,1.1,1.2,1.6c0.2,0.1,1.1,0.6,2.5,1.2c1.3,0.6,2.2,1.3,2.7,2c0.6,0.7,0.8,1.6,0.8,2.6c0,1.3-0.5,2.4-1.4,3.2
		c-0.9,0.8-2.2,1.2-3.7,1.2c-1,0-1.8-0.1-2.5-0.3c-0.7-0.2-1.5-0.6-2.4-1.1v-2.9c1.6,1.4,3.2,2,4.6,2c0.7,0,1.3-0.2,1.8-0.5
		s0.7-0.7,0.7-1.3c0-0.7-0.4-1.3-1.2-1.7c-0.6-0.4-1.5-0.8-2.5-1.3c-1.2-0.6-2.1-1.2-2.7-1.9s-0.9-1.6-0.9-2.6
		c0-1.3,0.5-2.3,1.4-3.1C331.1,1.3,332.4,0.9,334,0.9z"/>
</g>
<text transform="matrix(1 0 0 1 21.1504 46.1479)" class="st1" style="font-family:'GillSans-SemiBold'; font-size:22.5429px; letter-spacing:2;">LANGUAGE OF FLOWERS</text>
</svg>
