<?xml version="1.0" encoding="utf-8"?>
<!-- Generator: Adobe Illustrator 26.0.2, SVG Export Plug-In . SVG Version: 6.00 Build 0)  -->
<svg version="1.1" id="レイヤー_1" xmlns="http://www.w3.org/2000/svg" xmlns:xlink="http://www.w3.org/1999/xlink" x="0px"
	 y="0px" viewBox="0 0 1236 74.2" style="enable-background:new 0 0 1236 74.2;" xml:space="preserve">
<style type="text/css">
	.st0{fill:none;}
	.st1{fill:#FBF5DD;stroke:#FBF5DD;stroke-width:2.5525;stroke-miterlimit:10;}
</style>
<path class="st0" d="M0,0"/>
<g>
	<path class="st1" d="M84.8,6.2l21.7,26.1l21.7-26.1h11.4v66h-12.8V25.8h-0.4l-19.1,23.3h-1.8L86.4,25.8H86v46.4H73.3v-66H84.8z"/>
	<path class="st1" d="M176.9,6.2v66h-12.8v-66H176.9z"/>
	<path class="st1" d="M212.9,6.2l21.7,26.1l21.7-26.1h11.4v66h-12.8V25.8h-0.4l-19.1,23.3h-1.8l-19.1-23.3h-0.4v46.4h-12.8v-66
		H212.9z"/>
	<path class="st1" d="M325.8,5.3c6.8,0,13,1.4,18.5,4.2c5.5,2.8,9.8,6.9,13.1,12.2c3.2,5.3,4.9,11.1,4.9,17.5
		c0,6.2-1.6,11.9-4.8,17.2s-7.5,9.4-13,12.3c-5.5,2.9-11.8,4.4-18.7,4.4c-6.8,0-13.1-1.5-18.7-4.4c-5.6-3-10-7-13.1-12.2
		c-3.1-5.2-4.7-10.9-4.7-17.2c0-6.1,1.6-11.7,4.7-17.1c3.1-5.3,7.4-9.5,12.9-12.4C312.3,6.8,318.6,5.3,325.8,5.3z M302.5,39.2
		c0,4.4,1,8.3,3,11.8c2,3.5,4.8,6.2,8.3,8.1c3.5,1.9,7.6,2.9,12,2.9c6.8,0,12.3-2.1,16.7-6.4c4.4-4.3,6.5-9.7,6.5-16.5
		c0-4.4-1-8.3-3-11.8c-2-3.5-4.7-6.2-8.3-8.2c-3.6-1.9-7.6-2.9-12.1-2.9c-4.5,0-8.5,1-12.1,2.9c-3.6,1.9-6.3,4.6-8.2,8.1
		C303.4,30.9,302.5,34.8,302.5,39.2z"/>
	<path class="st1" d="M403,5.3c6.4,0,12.6,1.6,18.6,4.8v11.3c-6.8-4.1-12.9-6.2-18.2-6.2c-3.2,0-5.7,0.6-7.5,1.9
		c-1.8,1.2-2.7,2.9-2.7,5c0,2.5,1.7,4.8,5.1,6.9c0.9,0.6,4.6,2.4,10.9,5.3c5.4,2.6,9.3,5.4,11.7,8.5c2.4,3.1,3.6,6.9,3.6,11.3
		c0,5.7-2,10.3-6.1,13.7c-4.1,3.5-9.4,5.2-15.9,5.2c-4.2,0-7.9-0.5-10.9-1.4c-3-0.9-6.5-2.5-10.2-4.8V54.3c7.1,5.9,13.7,8.8,20,8.8
		c3.1,0,5.6-0.7,7.6-2c1.9-1.4,2.9-3.2,2.9-5.4c0-3.1-1.7-5.5-5-7.5c-2.8-1.5-6.4-3.3-10.7-5.4c-5.2-2.4-9.1-5.1-11.7-8.3
		c-2.6-3.2-3.9-6.8-3.9-11c0-5.5,2.1-10,6.2-13.3C390.7,7,396.2,5.3,403,5.3z"/>
	<path class="st1" d="M476.8,6.2l29.2,66h-13.5l-6.9-16.1h-29.4l-6.4,16.1h-13.4l27.2-66H476.8z M460.1,46.5h21.3l-11.2-26.1
		L460.1,46.5z"/>
	<path class="st1" d="M600.2,6.2v10h-27.5v17.1h27.5v10.1h-27.5v28.9h-12.8v-66H600.2z"/>
	<path class="st1" d="M664.2,6.2v10h-29.9v17.4H663v10h-28.7v18.8h30.6v10h-43.4v-66H664.2z"/>
	<path class="st1" d="M705.6,5.3c6.4,0,12.6,1.6,18.6,4.8v11.3c-6.8-4.1-12.9-6.2-18.2-6.2c-3.2,0-5.7,0.6-7.5,1.9
		c-1.8,1.2-2.7,2.9-2.7,5c0,2.5,1.7,4.8,5.1,6.9c0.9,0.6,4.6,2.4,10.9,5.3c5.4,2.6,9.3,5.4,11.7,8.5c2.4,3.1,3.6,6.9,3.6,11.3
		c0,5.7-2,10.3-6.1,13.7c-4.1,3.5-9.4,5.2-15.9,5.2c-4.2,0-7.9-0.5-10.9-1.4c-3-0.9-6.5-2.5-10.2-4.8V54.3c7.1,5.9,13.7,8.8,20,8.8
		c3.1,0,5.6-0.7,7.6-2c1.9-1.4,2.9-3.2,2.9-5.4c0-3.1-1.7-5.5-5-7.5c-2.8-1.5-6.4-3.3-10.7-5.4c-5.2-2.4-9.1-5.1-11.7-8.3
		c-2.6-3.2-3.9-6.8-3.9-11c0-5.5,2.1-10,6.2-13.3C693.4,7,698.9,5.3,705.6,5.3z"/>
	<path class="st1" d="M800.8,6.2v10h-23.5v56.1h-12.8V16.2h-23.5v-10H800.8z"/>
	<path class="st1" d="M845.9,6.2l29.2,66h-13.5l-6.9-16.1h-29.4L819,72.2h-13.4l27.2-66H845.9z M829.2,46.5h21.3l-11.2-26.1
		L829.2,46.5z"/>
	<path class="st1" d="M944,5.3c6.3,0,11.3,1.8,15,5.4c3.7,3.6,5.6,8.3,5.6,14.3c0,4.5-1.4,9.5-4.1,14.8c-2.8,5.3-7.6,12.3-14.5,21
		h22.6v11.4h-42.8v-1.4c5-6.1,9.3-11.7,12.8-16.6c3.6-4.9,6.3-9,8.3-12.2c2-3.2,3.3-6,4.2-8.3c0.8-2.3,1.2-4.6,1.2-7
		c0-3-1-5.6-2.9-7.6c-1.9-2.1-4.3-3.1-7.1-3.1c-5,0-10.1,2.8-15.5,8.5v-13C932.4,7.4,938.2,5.3,944,5.3z"/>
	<path class="st1" d="M1008.2,5.3c6.7,0,12,3,15.9,9c3.9,6,5.9,14.2,5.9,24.7c0,10.5-1.9,18.8-5.8,24.9s-9.2,9.1-15.9,9.1
		c-6.8,0-12.2-3-16.1-9.1c-4-6-5.9-14.3-5.9-24.8c0-10.5,2-18.7,5.9-24.8C996.1,8.4,1001.4,5.3,1008.2,5.3z M998.5,39.6
		c0,15.1,3.2,22.6,9.7,22.6c6.3,0,9.5-7.9,9.5-23.8c0-14.8-3.2-22.3-9.5-22.3C1001.7,16.2,998.5,24,998.5,39.6z"/>
	<path class="st1" d="M1065.6,5.3c6.3,0,11.3,1.8,15,5.4c3.7,3.6,5.6,8.3,5.6,14.3c0,4.5-1.4,9.5-4.1,14.8
		c-2.8,5.3-7.6,12.3-14.5,21h22.6v11.4h-42.8v-1.4c5-6.1,9.3-11.7,12.8-16.6c3.6-4.9,6.3-9,8.3-12.2c2-3.2,3.3-6,4.2-8.3
		c0.8-2.3,1.2-4.6,1.2-7c0-3-1-5.6-2.9-7.6c-1.9-2.1-4.3-3.1-7.1-3.1c-5,0-10.1,2.8-15.5,8.5v-13C1054,7.4,1059.8,5.3,1065.6,5.3z"
		/>
	<path class="st1" d="M1126.4,5.3c6.3,0,11.3,1.8,15,5.4c3.7,3.6,5.6,8.3,5.6,14.3c0,4.5-1.4,9.5-4.1,14.8
		c-2.8,5.3-7.6,12.3-14.5,21h22.6v11.4h-42.8v-1.4c5-6.1,9.3-11.7,12.8-16.6c3.6-4.9,6.3-9,8.3-12.2c2-3.2,3.3-6,4.2-8.3
		c0.8-2.3,1.2-4.6,1.2-7c0-3-1-5.6-2.9-7.6c-1.9-2.1-4.3-3.1-7.1-3.1c-5,0-10.1,2.8-15.5,8.5v-13C1114.8,7.4,1120.5,5.3,1126.4,5.3z
		"/>
</g>
<text transform="matrix(1 0 0 1 60.1836 169.0865)" class="st1" style="font-family:'GillSans-SemiBold'; font-size:96.8269px; letter-spacing:9;">MIMOSA FESTA 2022</text>
</svg>
