<?xml version="1.0" encoding="utf-8"?>
<!-- Generator: Adobe Illustrator 26.0.2, SVG Export Plug-In . SVG Version: 6.00 Build 0)  -->
<svg version="1.1" id="レイヤー_1" xmlns="http://www.w3.org/2000/svg" xmlns:xlink="http://www.w3.org/1999/xlink" x="0px"
	 y="0px" viewBox="0 0 59 12" style="enable-background:new 0 0 59 12;" xml:space="preserve">
<style type="text/css">
	.st0{fill:none;}
	.st1{enable-background:new    ;}
</style>
<path class="st0" d="M0,0"/>
<path class="st0" d="M0,0h59v12H0V0z"/>
<g class="st1">
	<path d="M5.6,0.2l6.9,8.1V0.2h2.2v11.6h-1.9L5.8,3.6v8.2H3.6V0.2H5.6z"/>
	<path d="M24.7,0.2V2h-5.2v3h5v1.7h-5V10h5.4v1.7h-7.6V0.2H24.7z"/>
	<path d="M28,0.2l2.9,7.1l3-7.1h1.9l3,7.2l2.9-7.2H44l-4.8,11.7h-0.8l-3.6-8.6l-3.7,8.6h-0.7L25.7,0.2H28z"/>
	<path d="M48.3,0.1c1.1,0,2.2,0.3,3.3,0.8v2c-1.2-0.7-2.3-1.1-3.2-1.1c-0.6,0-1,0.1-1.3,0.3c-0.3,0.2-0.5,0.5-0.5,0.9
		c0,0.4,0.3,0.8,0.9,1.2c0.2,0.1,0.8,0.4,1.9,0.9c0.9,0.4,1.6,0.9,2.1,1.5c0.4,0.5,0.6,1.2,0.6,2c0,1-0.4,1.8-1.1,2.4
		c-0.7,0.6-1.6,0.9-2.8,0.9c-0.7,0-1.4-0.1-1.9-0.2c-0.5-0.2-1.1-0.4-1.8-0.8V8.6c1.2,1,2.4,1.5,3.5,1.5c0.5,0,1-0.1,1.3-0.4
		c0.3-0.2,0.5-0.6,0.5-0.9c0-0.5-0.3-1-0.9-1.3c-0.5-0.3-1.1-0.6-1.9-1c-0.9-0.4-1.6-0.9-2-1.4c-0.4-0.6-0.7-1.2-0.7-1.9
		c0-1,0.4-1.7,1.1-2.3C46.2,0.4,47.1,0.1,48.3,0.1z"/>
</g>
<text transform="matrix(1 0 0 1 2.3569 30.3642)" style="font-family:'GillSans-SemiBold'; font-size:16.9528px;">NEWS</text>
</svg>
