<svg xmlns="http://www.w3.org/2000/svg" width="268" height="20.065"><path d="M18.36 5.899a.724.724 0 00-.022-.179.877.877 0 01-.023-.223c0-.148-.155-.35-.462-.6a5.408 5.408 0 00-1.318-.738 11.3 11.3 0 00-2.011-.6 12.246 12.246 0 00-2.543-.247 10.185 10.185 0 00-3.029.425 6.849 6.849 0 00-2.381 1.274 5.721 5.721 0 00-1.572 2.1 6.991 6.991 0 00-.554 2.861 6.467 6.467 0 00.624 2.883 7.128 7.128 0 001.642 2.189 6.966 6.966 0 002.313 1.386 7.672 7.672 0 002.635.469 10.832 10.832 0 002.544-.313 17.279 17.279 0 002.357-.737 7.849 7.849 0 001.734-.917q.671-.491.67-.894v-.357a1.8 1.8 0 00-.046-.447l.509-.447 3.422 4.738-.463.223a2.549 2.549 0 00-.786-.223 3.277 3.277 0 00-1.2.4q-.831.4-2.1.915a17.8 17.8 0 01-2.958.872 18.239 18.239 0 01-3.77.357 15.557 15.557 0 01-4.208-.58 10.463 10.463 0 01-3.7-1.855 9.956 9.956 0 01-2.635-3.173 9.178 9.178 0 01-1.018-4.4 9.046 9.046 0 011.018-4.38 9.8 9.8 0 012.682-3.152 11.532 11.532 0 013.814-1.9 15.783 15.783 0 014.417-.625 15.361 15.361 0 013.214.313 19.778 19.778 0 012.566.715c.739.267 1.354.507 1.849.714a3.188 3.188 0 001.063.314.6.6 0 00.392-.134 1.72 1.72 0 01.348-.224l.555.313-3.052 4.246zM36.945 0a17.811 17.811 0 014.786.625 11.656 11.656 0 013.907 1.878 9.019 9.019 0 012.635 3.15 9.639 9.639 0 01.972 4.448 9.632 9.632 0 01-.972 4.447 9.006 9.006 0 01-2.635 3.151 10.716 10.716 0 01-3.907 1.809 19.7 19.7 0 01-4.786.559 19.687 19.687 0 01-4.785-.559 10.7 10.7 0 01-3.907-1.809 9 9 0 01-2.637-3.151 9.657 9.657 0 01-.971-4.447 9.663 9.663 0 01.971-4.448 9.014 9.014 0 012.637-3.15A11.638 11.638 0 0132.16.625 17.8 17.8 0 0136.945 0zm0 3.306a9.1 9.1 0 00-2.89.47 8.234 8.234 0 00-2.521 1.341 6.685 6.685 0 00-1.781 2.123 5.958 5.958 0 00-.67 2.86 5.958 5.958 0 00.67 2.86 6.677 6.677 0 001.781 2.123 8.282 8.282 0 002.521 1.341 9.1 9.1 0 002.89.469 9.1 9.1 0 002.891-.469 8.3 8.3 0 002.52-1.341 6.671 6.671 0 001.779-2.123 5.958 5.958 0 00.671-2.86 5.958 5.958 0 00-.671-2.86 6.679 6.679 0 00-1.779-2.123 8.252 8.252 0 00-2.52-1.341 9.1 9.1 0 00-2.891-.469zm16.137 15.822a.85.85 0 00.393-.18c.108-.088.162-.3.162-.625V1.965a1.459 1.459 0 00-.115-.759.568.568 0 00-.439-.135v-.8h6.428v.8c-.309 0-.462.135-.462.4a1.042 1.042 0 00.161.469c.109.194.27.469.486.827l5.641 10.056 5.688-10.011q.322-.536.509-.872a1.254 1.254 0 00.185-.469c0-.268-.124-.4-.37-.4v-.8h6.519v.8a.931.931 0 00-.439.112.486.486 0 00-.208.47v16.8a.6.6 0 00.208.514.719.719 0 00.439.156v.8h-5.364v-.8q.972 0 .833-.67V5.895h-.092l-7.861 14.033h-.37L57.569 5.895h-.046v12.558q0 .67.785.67v.8h-5.225zm30.934 0a2.277 2.277 0 001.017-.156.543.543 0 00.278-.514V1.742a.544.544 0 00-.278-.513 2.272 2.272 0 00-1.017-.157v-.8h7.028v.8q-1.3 0-1.3.671v16.716q0 .67 1.3.67v.8h-7.028zm12.67 0q.831 0 .832-.67V1.742q0-.671-.832-.671v-.8h6.8v.8c-.217.031-.324.105-.324.224q0 .225 1.018 1.208l11.1 11.352V1.743q0-.671-.924-.671v-.8h5.64v.8q-.831 0-.831.671v16.716q0 .67.831.67v.8h-6.01v-.8c.214 0 .323-.074.323-.224q0-.178-.439-.626t-.994-1.027l-11.467-11.8v13.005q0 .67.971.67v.8h-5.687zm47.488-12.38l-.555-.314c.061-.3.093-.46.093-.491 0-.268-.2-.559-.6-.872a6.831 6.831 0 00-1.573-.872 11.867 11.867 0 00-2.2-.647 12.577 12.577 0 00-2.474-.247 13.371 13.371 0 00-3.237.381 7.789 7.789 0 00-2.682 1.207 6.106 6.106 0 00-1.85 2.123 6.643 6.643 0 00-.694 3.173 6.181 6.181 0 00.741 3.151 6.1 6.1 0 001.918 2.056 8.309 8.309 0 002.613 1.14 11.426 11.426 0 002.774.358 25.309 25.309 0 003.769-.268 10.5 10.5 0 003.261-1.029v-2.815h-4.763a1.812 1.812 0 00-.878.2.961.961 0 00-.462.737h-.832v-4.6h.832a.719.719 0 00.462.582 2.6 2.6 0 00.878.134h9.063v.8a1.178 1.178 0 00-.554.4 1.3 1.3 0 00-.139.67v4.246a.983.983 0 00.115.559 1.388 1.388 0 00.578.335v.535q-.415.27-1.317.738a15.24 15.24 0 01-2.266.916 21 21 0 01-3.167.738 25.5 25.5 0 01-4.022.29 21.088 21.088 0 01-5.434-.647 11.556 11.556 0 01-4.114-1.944 8.766 8.766 0 01-2.59-3.151 9.544 9.544 0 01-.9-4.223 9.551 9.551 0 01.9-4.224 8.968 8.968 0 012.59-3.172A11.925 11.925 0 01131.572.69a19.78 19.78 0 015.434-.693 14.611 14.611 0 013.19.313 21.6 21.6 0 012.4.67 15.287 15.287 0 011.711.67 2.542 2.542 0 00.971.312 1.73 1.73 0 00.555-.066 1.8 1.8 0 00.463-.291l.555.268zm21.083 6.347a3.48 3.48 0 01-.022.379 3.392 3.392 0 00-.024.426 1.533 1.533 0 00.879 1.229 8.663 8.663 0 002.1.939 20.881 20.881 0 002.45.6 11.389 11.389 0 001.92.224q.647 0 1.595-.089a9.047 9.047 0 001.874-.38 4.827 4.827 0 001.571-.8 1.654 1.654 0 00.647-1.364 1.51 1.51 0 00-1.132-1.429 12.924 12.924 0 00-2.844-.694q-1.711-.244-3.7-.491a19.6 19.6 0 01-3.7-.8 7.556 7.556 0 01-2.844-1.61 3.847 3.847 0 01-1.133-2.971 5.282 5.282 0 012.451-4.559 11.985 11.985 0 016.891-1.7 17.863 17.863 0 013.722.335 18.831 18.831 0 012.612.736q1.063.4 1.735.738a2.568 2.568 0 00.994.335 1.078 1.078 0 00.554-.112q.185-.111.463-.246l.509.492-2.312 4.2-.831-.269a49.883 49.883 0 01-.093-.535.916.916 0 00-.417-.536 7.888 7.888 0 00-2.866-1.3 16.335 16.335 0 00-4.347-.537 13.428 13.428 0 00-1.757.112 5.933 5.933 0 00-1.479.381 2.658 2.658 0 00-1.017.693 1.541 1.541 0 00-.37 1.049 1.471 1.471 0 001.133 1.409 13.8 13.8 0 002.842.671q1.712.245 3.7.491a18.676 18.676 0 013.7.828 7.343 7.343 0 012.843 1.7 4.133 4.133 0 011.134 3.084 5.013 5.013 0 01-.994 3.217 7.014 7.014 0 01-2.475 1.967 10.392 10.392 0 01-3.26.938 26.943 26.943 0 01-3.352.223 16.961 16.961 0 01-3.122-.29 27.871 27.871 0 01-2.82-.67q-1.272-.38-2.15-.716a4.957 4.957 0 00-1.063-.335.713.713 0 00-.556.269l-.646-.447 2.127-5.006zM199.475 0a17.8 17.8 0 014.785.625 11.665 11.665 0 013.908 1.878 9.036 9.036 0 012.635 3.15 9.651 9.651 0 01.971 4.448 9.645 9.645 0 01-.971 4.447 9.023 9.023 0 01-2.635 3.151 10.724 10.724 0 01-3.908 1.809 19.69 19.69 0 01-4.785.559 19.688 19.688 0 01-4.786-.559 10.712 10.712 0 01-3.907-1.809 9.012 9.012 0 01-2.637-3.151 9.663 9.663 0 01-.97-4.447 9.669 9.669 0 01.97-4.448 9.026 9.026 0 012.637-3.15 11.651 11.651 0 013.907-1.878A17.8 17.8 0 01199.475 0zm0 3.306a9.1 9.1 0 00-2.891.47 8.243 8.243 0 00-2.52 1.341 6.678 6.678 0 00-1.781 2.123 5.963 5.963 0 00-.67 2.86 5.964 5.964 0 00.67 2.86 6.67 6.67 0 001.781 2.123 8.291 8.291 0 002.52 1.341 9.1 9.1 0 002.891.469 9.1 9.1 0 002.891-.469 8.305 8.305 0 002.52-1.341 6.686 6.686 0 001.78-2.123 5.964 5.964 0 00.67-2.86 5.963 5.963 0 00-.67-2.86 6.694 6.694 0 00-1.78-2.123 8.257 8.257 0 00-2.52-1.341 9.1 9.1 0 00-2.891-.469zM228.189 0a17.8 17.8 0 014.786.625 11.656 11.656 0 013.907 1.878 9.021 9.021 0 012.635 3.15 9.645 9.645 0 01.972 4.448 9.639 9.639 0 01-.972 4.447 9.007 9.007 0 01-2.635 3.151 10.716 10.716 0 01-3.907 1.809 19.694 19.694 0 01-4.786.559 19.688 19.688 0 01-4.786-.559 10.708 10.708 0 01-3.907-1.809 9.011 9.011 0 01-2.637-3.151 9.657 9.657 0 01-.971-4.447 9.663 9.663 0 01.971-4.448 9.024 9.024 0 012.637-3.15 11.647 11.647 0 013.907-1.878A17.8 17.8 0 01228.189 0zm0 3.306a9.1 9.1 0 00-2.89.47 8.232 8.232 0 00-2.52 1.341 6.665 6.665 0 00-1.781 2.123 5.958 5.958 0 00-.67 2.86 5.958 5.958 0 00.67 2.86 6.657 6.657 0 001.781 2.123 8.279 8.279 0 002.52 1.341 9.1 9.1 0 002.89.469 9.1 9.1 0 002.891-.469 8.3 8.3 0 002.52-1.341 6.687 6.687 0 001.78-2.123 5.969 5.969 0 00.67-2.86 5.969 5.969 0 00-.67-2.86 6.7 6.7 0 00-1.78-2.123 8.252 8.252 0 00-2.52-1.341 9.1 9.1 0 00-2.891-.469zm16.507 15.822c.554 0 .832-.224.832-.67V1.742c0-.447-.278-.671-.832-.671v-.8h6.8v.8c-.217.031-.324.105-.324.224q0 .225 1.017 1.208l11.1 11.352V1.743q0-.671-.924-.671v-.8h5.64v.8q-.831 0-.832.671v16.716q0 .67.832.67v.8h-6.01v-.8c.214 0 .324-.074.324-.224q0-.178-.44-.626t-.994-1.027l-11.468-11.8v13.005c0 .447.325.67.972.67v.8h-5.693z" fill="#fff"/></svg>