<svg xmlns="http://www.w3.org/2000/svg" width="971" height="74" viewBox="0 0 971 74">
  <defs>
    <style>
      .cls-1 {
        fill: #fed438;
        fill-rule: evenodd;
        opacity: 0.1;
      }
    </style>
  </defs>
  <path id="SPECIAL_MENU_GOODS" data-name="SPECIAL MENU&amp;GOODS" class="cls-1" d="M32.44,11.906a33.966,33.966,0,0,0-8.794-1.14,22.691,22.691,0,0,0-9.877,1.971A14.651,14.651,0,0,0,7.507,18.11a13.981,13.981,0,0,0-2.145,7.615,13.777,13.777,0,0,0,1.991,7.518,17.737,17.737,0,0,0,4.755,5.1,58.234,58.234,0,0,0,6.707,4,45.49,45.49,0,0,1,6.359,3.518A9.829,9.829,0,0,1,27.9,48.436a5,5,0,0,1,.657,2.609,4.305,4.305,0,0,1-1.778,3.5,8.187,8.187,0,0,1-5.18,1.411q-7.693,0-15.81-6.494V61.675a38.582,38.582,0,0,0,17.55,4.484,23.716,23.716,0,0,0,9.8-1.933,15.382,15.382,0,0,0,6.688-5.489A14.468,14.468,0,0,0,42.2,50.5a13.607,13.607,0,0,0-1.913-7.4,18.247,18.247,0,0,0-5.025-5.218,75.132,75.132,0,0,0-8.524-4.967,29.638,29.638,0,0,1-6.494-4.02,4.814,4.814,0,0,1-1.662-3.556,4.2,4.2,0,0,1,1.624-3.46A7.567,7.567,0,0,1,25,20.584q7.306,0,14.96,5.992V15.018A28.662,28.662,0,0,0,32.44,11.906Zm56.418,3.866q-5.258-4.31-14.612-4.31H51.478v54H65.084V44.242H74.9a23.4,23.4,0,0,0,10.65-2.184A15.03,15.03,0,0,0,91.989,36.2a16.209,16.209,0,0,0,2.126-8.272Q94.115,20.082,88.858,15.772ZM71.888,35h-6.8V20.739h6.262q4.639,0,6.745,1.7T80.2,27.929Q80.2,35,71.888,35h0ZM139.11,21.126V11.462H102.155v54h37.573V55.8H115.762V42.657h22.3V32.993h-22.3V21.126H139.11Zm38.308-10.36a34.834,34.834,0,0,0-15.5,3.363,25.51,25.51,0,0,0-10.766,9.664,27.418,27.418,0,0,0-3.885,14.689,27.966,27.966,0,0,0,3.595,14.109,25.485,25.485,0,0,0,10.379,9.935,33.29,33.29,0,0,0,15.946,3.634q11.867,0,20.68-4.716V49.305a32.945,32.945,0,0,1-18.438,5.953,20.254,20.254,0,0,1-9.761-2.223,15.537,15.537,0,0,1-6.281-6.011,16.45,16.45,0,0,1-2.165-8.311,17.38,17.38,0,0,1,2.126-8.485,15.722,15.722,0,0,1,6.32-6.224,20.377,20.377,0,0,1,10.07-2.339,27.763,27.763,0,0,1,8.871,1.43,42.184,42.184,0,0,1,8.949,4.368V14.941a52.718,52.718,0,0,0-20.139-4.175h0Zm43.8,54.7v-54H207.608v54h13.606Zm67.184,0L264.663,11.384H250.477l-23.5,54.079H240.89l5.18-12.447h23.193l5.219,12.447H288.4Zm-22.73-21.145H249.626l8-19.637ZM307.8,54.292V11.462H294.2v54h38.076V54.292H307.8Zm84.772-22L375.643,11.462H363.235v54h13.3V30.944L391.8,49.885h1.276l15.192-18.941V65.463h13.607v-54H409.544Zm77.852-11.171V11.462H433.472v54h37.573V55.8H447.079V42.657h22.3V32.993h-22.3V21.126h23.348Zm52.8,24.005L492.925,11.462H480.98v54h13.375V31.91l30.228,33.553h12.1v-54H523.231V45.131Zm41.458,5.914q-3.384-3.556-3.383-10.282v-29.3H547.7v30q0,11.675,6.977,18.188t19.85,6.513q12.678,0,19.695-6.475t7.016-18.458V11.462H587.592V40.917q0,6.958-3.363,10.321t-9.7,3.363Q568.07,54.6,564.689,51.045Zm87.419-13.008q-0.542,10.437-3.556,15.539a194.425,194.425,0,0,1-13.529-17.82q7.15-2.087,10.668-5.45a13.217,13.217,0,0,0,3.9-9.934,12.115,12.115,0,0,0-3.673-9.161q-4.175-3.943-11.442-3.943a16.571,16.571,0,0,0-10.707,3.44,12.691,12.691,0,0,0-4.832,10.4q0,5.682,4.523,12.331a25.868,25.868,0,0,0-9.432,6.765A17.07,17.07,0,0,0,610.4,51.374a17.235,17.235,0,0,0,5.025,12.718q5.721,5.721,15.54,5.721,10.089,0,16.235-5.219a16.267,16.267,0,0,0,4.871,3.75,19.09,19.09,0,0,0,8.04,1.392h2.706l1.971-7.151a19.407,19.407,0,0,1-6.107-.618,11.268,11.268,0,0,1-4.987-3.556q5.643-6.107,6.8-18.555Zm-9.586,21.531a13.894,13.894,0,0,1-9.548,3.208,13.546,13.546,0,0,1-8.968-3.093,11.9,11.9,0,0,1-4.33-9.587q0-7.538,7.113-11.4a167.485,167.485,0,0,0,15.733,20.874h0Zm-14.651-38.81A6.849,6.849,0,0,1,629.611,16a6.3,6.3,0,0,1,4.87-2.126,6.085,6.085,0,0,1,4.252,1.546,6.244,6.244,0,0,1,2.011,4.871,9.337,9.337,0,0,1-1.7,5.8q-2.05,2.745-7.345,4.523-3.826-5.643-3.827-9.857h0ZM712.682,22.4a36.3,36.3,0,0,1,8.774,3.711V14.863a63.309,63.309,0,0,0-10.63-3.189,54.69,54.69,0,0,0-10.321-.908,34.165,34.165,0,0,0-16.6,3.788,25.668,25.668,0,0,0-10.457,10.128,28.279,28.279,0,0,0-3.517,13.955,27.794,27.794,0,0,0,3.633,14.245,25.049,25.049,0,0,0,10.457,9.761,34.245,34.245,0,0,0,15.906,3.518A58.652,58.652,0,0,0,711.174,65.1,62.705,62.705,0,0,0,722.5,61.675V36.665H702.09V46.29h8.234v7.847a26.361,26.361,0,0,1-4.252,1.044,29.894,29.894,0,0,1-3.982.232,20.078,20.078,0,0,1-9.683-2.223,15.716,15.716,0,0,1-6.32-6.05,16.736,16.736,0,0,1-2.2-8.5,17.972,17.972,0,0,1,2.049-8.292,16.215,16.215,0,0,1,6.4-6.571A21.177,21.177,0,0,1,703.25,21.2,36.122,36.122,0,0,1,712.682,22.4Zm75.3,1.971a25.452,25.452,0,0,0-10.36-9.973,33.1,33.1,0,0,0-15.887-3.634q-10.052,0-16.816,4a25.464,25.464,0,0,0-10.011,10.321,29.064,29.064,0,0,0-3.247,13.471,28.068,28.068,0,0,0,3.479,13.8,25.54,25.54,0,0,0,10.205,10.05,32.7,32.7,0,0,0,16.158,3.75,33.261,33.261,0,0,0,16.158-3.711,25.7,25.7,0,0,0,10.359-10.012,27.894,27.894,0,0,0,3.557-13.955A28.106,28.106,0,0,0,787.983,24.373Zm-40.434,5.9a13.688,13.688,0,0,1,5.566-5.624,17.211,17.211,0,0,1,8.466-2.01,16.754,16.754,0,0,1,8.639,2.145,14.3,14.3,0,0,1,5.548,5.74,16.664,16.664,0,0,1,1.894,7.886q0,7.345-4.465,11.616T761.5,54.292a16.984,16.984,0,0,1-8.234-1.971,13.932,13.932,0,0,1-5.644-5.586,16.533,16.533,0,0,1-2.01-8.176A17.309,17.309,0,0,1,747.549,30.268ZM854.7,24.373A25.443,25.443,0,0,0,844.343,14.4a33.1,33.1,0,0,0-15.888-3.634q-10.052,0-16.815,4a25.473,25.473,0,0,0-10.012,10.321,29.064,29.064,0,0,0-3.247,13.471,28.079,28.079,0,0,0,3.479,13.8,25.54,25.54,0,0,0,10.205,10.05,32.7,32.7,0,0,0,16.158,3.75,33.261,33.261,0,0,0,16.158-3.711,25.7,25.7,0,0,0,10.36-10.012A27.893,27.893,0,0,0,858.3,38.482,28.1,28.1,0,0,0,854.7,24.373Zm-40.433,5.9a13.682,13.682,0,0,1,5.566-5.624,17.211,17.211,0,0,1,8.466-2.01,16.754,16.754,0,0,1,8.639,2.145,14.308,14.308,0,0,1,5.547,5.74,16.664,16.664,0,0,1,1.894,7.886q0,7.345-4.464,11.616t-11.694,4.272a16.98,16.98,0,0,1-8.233-1.971,13.926,13.926,0,0,1-5.644-5.586,16.533,16.533,0,0,1-2.01-8.176A17.309,17.309,0,0,1,814.269,30.268ZM917.44,24.373a23.5,23.5,0,0,0-10.417-9.509q-6.939-3.4-16.758-3.4H867.5v54h23.58q14.5,0,22.169-7.132t7.673-20A27.687,27.687,0,0,0,917.44,24.373ZM902.655,51.258q-4.311,4.311-12.931,4.31H881.1V21.126h8.156q8.543,0,13.124,4.561t4.581,12.872Q906.965,46.948,902.655,51.258Zm52.532-39.351a33.961,33.961,0,0,0-8.794-1.14,22.688,22.688,0,0,0-9.876,1.971,14.647,14.647,0,0,0-6.262,5.373,13.975,13.975,0,0,0-2.146,7.615,13.773,13.773,0,0,0,1.991,7.518,17.736,17.736,0,0,0,4.755,5.1,58.245,58.245,0,0,0,6.706,4,45.475,45.475,0,0,1,6.359,3.518,9.81,9.81,0,0,1,2.725,2.571,5,5,0,0,1,.658,2.609,4.306,4.306,0,0,1-1.779,3.5,8.184,8.184,0,0,1-5.179,1.411q-7.694,0-15.811-6.494V61.675a38.585,38.585,0,0,0,17.55,4.484,23.716,23.716,0,0,0,9.8-1.933,15.385,15.385,0,0,0,6.688-5.489,14.466,14.466,0,0,0,2.377-8.234,13.613,13.613,0,0,0-1.913-7.4,18.257,18.257,0,0,0-5.026-5.218,75.116,75.116,0,0,0-8.523-4.967,29.611,29.611,0,0,1-6.494-4.02,4.813,4.813,0,0,1-1.663-3.556,4.2,4.2,0,0,1,1.624-3.46,7.566,7.566,0,0,1,4.793-1.3q7.307,0,14.96,5.992V15.018A28.658,28.658,0,0,0,955.187,11.906Z"/>
</svg>
