<svg xmlns="http://www.w3.org/2000/svg" width="1020" height="74"><path d="M43.444 66.82q0 2.337 2.96 2.34v2.34H25.69v-2.34a2.642 2.642 0 001.681-.586 2.1 2.1 0 00.74-1.754V15.08H5.918a4.688 4.688 0 00-2.353.65 2.587 2.587 0 00-1.144 2.469H0v-18.2h2.421a2.58 2.58 0 001.144 2.468 4.67 4.67 0 002.353.651h59.718a4.675 4.675 0 002.353-.651 2.586 2.586 0 001.144-2.468h2.421v18.2h-2.418a2.592 2.592 0 00-1.144-2.469 4.694 4.694 0 00-2.353-.65H43.446zm29.592 2.34a3.953 3.953 0 002.758-1.692 27.555 27.555 0 001.95-3.25l24.883-50.568q.939-1.69 1.681-3.121a5.588 5.588 0 00.74-2.471 1.9 1.9 0 00-.941-1.818 8.242 8.242 0 00-2.018-.782V3.119h22.731v2.339a11.431 11.431 0 00-1.883.715 1.882 1.882 0 00-.942 1.885 4.975 4.975 0 00.471 2.08q.469 1.043 1.412 2.731l27.977 52.91a4.47 4.47 0 001.815 2.08 28.027 28.027 0 002.623 1.3v2.34H132.62v-2.34a3.265 3.265 0 001.346-.391 1.249 1.249 0 00.807-1.17 7.936 7.936 0 00-1.076-3.381l-5.111-9.619H95.767l-4.842 9.231a10.647 10.647 0 00-1.345 3.9q0 1.43 2.556 1.43v2.34h-19.1zm50.707-24.18l-11.3-24.182L99.799 44.98zm60.253 21.84a2.027 2.027 0 00.808 1.754 3.12 3.12 0 001.883.586v2.34h-20.983v-2.34q2.958 0 2.959-2.34V7.798q0-2.337-2.959-2.34V3.119h20.983v2.339a3.121 3.121 0 00-1.883.586 2.026 2.026 0 00-.808 1.754v24.7l27.842-21.192q1.883-1.559 2.959-2.533t1.076-1.625a1.431 1.431 0 00-.6-1.3 2.554 2.554 0 00-1.413-.391V3.118h28.246v2.339a7.724 7.724 0 00-4.843 1.952l-30.935 23.789 28.246 31.59a34 34 0 004.1 3.836 13.351 13.351 0 004.64 2.535v2.34h-24.883v-2.34c1.164 0 1.749-.3 1.749-.91q0-.651-1.884-2.862l-23-25.609-11.3 8.451zm135.578-49.66a2.372 2.372 0 00-1.144-2.147 7.988 7.988 0 00-3.968-.715h-43.578v16.121h26.362a9.824 9.824 0 004.17-.714q1.479-.716 1.48-3.705h2.421v20.279h-2.421q0-2.988-1.48-3.834a8.5 8.5 0 00-4.17-.846h-26.362v17.94h44.924a5.544 5.544 0 003.3-.911 2.874 2.874 0 001.277-2.468h2.422v17.808h-2.422q0-1.949-1.277-2.209a16.862 16.862 0 00-3.3-.259H253.13v-2.34a2.642 2.642 0 001.681-.586 2.1 2.1 0 00.74-1.754V7.798a2.1 2.1 0 00-.74-1.754 2.644 2.644 0 00-1.681-.586V3.119h61.332a6.915 6.915 0 003.968-.844A2.687 2.687 0 00319.574 0h2.42v17.16zm91.593-14.821a55.754 55.754 0 0115.065 2.145 47.514 47.514 0 0113.988 6.435 35.306 35.306 0 0110.356 10.856 31.912 31.912 0 010 31.068 35.281 35.281 0 01-10.356 10.856 44.078 44.078 0 01-13.988 6.24 59.194 59.194 0 01-30.129 0 44.048 44.048 0 01-13.988-6.24 35.286 35.286 0 01-10.357-10.856 31.92 31.92 0 010-31.068 35.311 35.311 0 0110.357-10.856 47.48 47.48 0 0113.988-6.435 55.736 55.736 0 0115.064-2.145zm0 11.959a34.871 34.871 0 00-10.221 1.561 31.665 31.665 0 00-9.214 4.484 23.611 23.611 0 00-6.658 7.215 19.881 19.881 0 000 19.5 23.6 23.6 0 006.658 7.217 31.665 31.665 0 009.214 4.484 34.248 34.248 0 0020.444 0 31.747 31.747 0 009.213-4.484 23.646 23.646 0 006.658-7.217 19.874 19.874 0 000-19.5 23.659 23.659 0 00-6.658-7.215 31.746 31.746 0 00-9.213-4.484 34.905 34.905 0 00-10.223-1.561zm76.532-8.84q-2.96 0-2.959 2.34v39q0 8.191 5.448 11.246t15.938 3.055q10.491 0 15.939-3.055t5.447-11.246v-39q0-2.337-4.035-2.34V3.119h21.52v2.339q-3.228 0-3.228 2.34V46.15a30.593 30.593 0 01-2.286 12.674 18.613 18.613 0 01-6.861 8 28.4 28.4 0 01-11.365 4.029 118.7 118.7 0 01-31.339 0 28.388 28.388 0 01-11.365-4.029 18.569 18.569 0 01-6.859-8 30.527 30.527 0 01-2.287-12.674V7.798q0-2.337-3.766-2.34V3.119h22.058zM601.217 66.82q0 2.337 2.959 2.34v2.34h-20.713v-2.34a2.64 2.64 0 001.681-.586 2.1 2.1 0 00.74-1.754V15.08h-22.193a4.694 4.694 0 00-2.354.65 2.588 2.588 0 00-1.143 2.469h-2.421v-18.2h2.421a2.582 2.582 0 001.143 2.468 4.676 4.676 0 002.354.651h59.718a4.682 4.682 0 002.355-.651 2.586 2.586 0 001.143-2.468h2.421v18.2h-2.421a2.592 2.592 0 00-1.143-2.469 4.7 4.7 0 00-2.355-.65h-22.192zM714.6 2.339a55.742 55.742 0 0115.064 2.145 47.508 47.508 0 0113.989 6.435 35.319 35.319 0 0110.356 10.856 31.92 31.92 0 010 31.068 35.294 35.294 0 01-10.356 10.856 44.073 44.073 0 01-13.989 6.24 59.194 59.194 0 01-30.129 0 44.053 44.053 0 01-13.987-6.24 35.262 35.262 0 01-10.357-10.856 31.919 31.919 0 010-31.068 35.286 35.286 0 0110.357-10.856 47.485 47.485 0 0113.987-6.435A55.743 55.743 0 01714.6 2.339zm0 11.959a34.878 34.878 0 00-10.222 1.561 31.69 31.69 0 00-9.214 4.484 23.608 23.608 0 00-6.657 7.215 19.874 19.874 0 000 19.5 23.594 23.594 0 006.657 7.217 31.69 31.69 0 009.214 4.484 34.252 34.252 0 0020.445 0 31.729 31.729 0 009.212-4.484 23.637 23.637 0 006.659-7.217 19.88 19.88 0 000-19.5 23.651 23.651 0 00-6.659-7.215 31.728 31.728 0 00-9.212-4.484 34.91 34.91 0 00-10.223-1.561zm60.526 54.862q2.553 0 2.556-2.34V7.798q0-2.337-2.556-2.34V3.119h23v2.339c-.718 0-1.075.436-1.075 1.3q0 1.044 2.69 3.641l38.6 38.738V7.797q0-2.337-3.5-2.34V3.118h20.31v2.339q-2.558 0-2.556 2.34v59.022q0 2.337 2.556 2.34v2.34h-21.79v-2.34q1.748 0 1.749-1.17 0-.909-2.152-2.99l-41.023-41.34v43.16q0 2.337 3.093 2.34v2.34h-19.902zm165.572 4.808q0-1.949-1.278-2.209a16.858 16.858 0 00-3.3-.259h-64.022v-2.34q4.035 0 4.035-2.34V7.798q0-2.337-4.035-2.34V3.119h23.138v2.339q-3.768 0-3.767 2.34v51.741h44.654a5.542 5.542 0 003.3-.911 2.874 2.874 0 001.278-2.468h2.42v17.808zm27.707-70.849v2.339a7.867 7.867 0 00-2.288.327 1.5 1.5 0 00-1.076 1.625q0 .779 1.95 3.705t4.574 6.629q2.624 3.705 5.447 7.605t4.573 6.631l15.738-20.932q1.073-1.559 1.748-2.468a2.919 2.919 0 00.672-1.692q0-.9-1.278-1.17a11.967 11.967 0 00-2.353-.26V3.119h23.538v2.339a9.978 9.978 0 00-2.018.2 5.292 5.292 0 00-1.95.91 11.861 11.861 0 00-2.152 2.08q-1.144 1.365-2.757 3.705l-22.866 31.33v23.141q0 2.337 3.093 2.34v2.34h-21.251v-2.34a3.349 3.349 0 002.018-.586 2.027 2.027 0 00.807-1.754V43.683l-25.959-35.1a7.277 7.277 0 00-2.892-2.211 8.153 8.153 0 00-3.295-.911V3.122z" opacity=".1" fill="#fed438"/><path fill="none" d="M0 0h1020v74H0z"/></svg>