<svg xmlns="http://www.w3.org/2000/svg" width="70" height="25"><path d="M41.46 7.586h.5l-.02.777h-1.915v-.077a1.232 1.232 0 01.351-.9 2.471 2.471 0 01.32-.28 3.1 3.1 0 00.41-.35.35.35 0 00.092-.223.257.257 0 00-.062-.179.237.237 0 00-.187-.07q-.267 0-.267.348l-.62-.02a.728.728 0 01.275-.605 1.292 1.292 0 011.347.027.658.658 0 01.132.928 1.633 1.633 0 01-.528.385 3.274 3.274 0 00-.422.248.622.622 0 00-.166.2h.759zm.958-.479a1.342 1.342 0 01.307-.943.955.955 0 01.729-.336.941.941 0 01.74.346 1.38 1.38 0 01.3.932 1.336 1.336 0 01-.308.946.964.964 0 01-.729.332.938.938 0 01-.738-.346 1.377 1.377 0 01-.301-.931zm.785 0a1.722 1.722 0 00.068.609.208.208 0 00.187.145q.121 0 .185-.152a1.8 1.8 0 00.064-.6 1.726 1.726 0 00-.068-.612.209.209 0 00-.186-.139.2.2 0 00-.181.139 1.676 1.676 0 00-.069.61zm3.451 1.255h-1.441v-.571h.343V6.668a1.025 1.025 0 01-.256.025.578.578 0 01-.087-.005v-.55h.043a.981.981 0 00.421-.091.677.677 0 00.282-.219h.362V7.79h.333zm.603-.668l.627-.041a.314.314 0 00.32.2.364.364 0 00.237-.079.3.3 0 00.094-.246.294.294 0 00-.094-.241.349.349 0 00-.222-.075.421.421 0 00-.326.147l-.525-.191.073-1.292h1.775v.65h-.407l-.057-.152h-.861l-.021.493a.994.994 0 01.552-.15.971.971 0 01.648.216.735.735 0 01.256.593.791.791 0 01-.27.612 1.089 1.089 0 01-.757.245 1.246 1.246 0 01-.7-.186.757.757 0 01-.342-.503zm-23.008.071l.718.091a.688.688 0 01-.135.208.848.848 0 01-.211.16 1.222 1.222 0 01-.6.139 1.334 1.334 0 01-.883-.252.817.817 0 01-.3-.655.854.854 0 01.293-.661 1.119 1.119 0 01.785-.264 1.172 1.172 0 01.776.25.986.986 0 01.313.755h-1.323q.005.421.3.421a.27.27 0 00.267-.192zm-.554-.453h.49v-.061a.382.382 0 00-.069-.234.219.219 0 00-.183-.091.2.2 0 00-.18.1.469.469 0 00-.062.25l.004.036zm2.216 1.022h-.539v-.55h.5a.572.572 0 00.424.211q.232 0 .232-.1a.084.084 0 00-.05-.077 1.545 1.545 0 00-.275-.084q-.18-.05-.4-.116a.912.912 0 01-.3-.139.477.477 0 01-.151-.164.461.461 0 01-.042-.211.477.477 0 01.2-.423.858.858 0 01.5-.134 1.035 1.035 0 01.523.121v-.089h.532v.5h-.492a.6.6 0 00-.436-.18q-.2 0-.2.109a.068.068 0 00.059.068c.033.011.144.036.333.077a3.566 3.566 0 01.5.139.617.617 0 01.268.184.444.444 0 01.088.28.494.494 0 01-.216.443.949.949 0 01-.53.141 1.109 1.109 0 01-.532-.118zm2.927-.654v.532a.832.832 0 01-.246.1 1.24 1.24 0 01-.325.046.78.78 0 01-.336-.066.5.5 0 01-.216-.182.664.664 0 01-.059-.121.581.581 0 01-.028-.122q-.013-.118-.012-.455v-.291h-.215v-.545h.215V6.31l.871-.427v.693h.352v.545h-.352v.335a.537.537 0 00.029.22.119.119 0 00.118.055.5.5 0 00.204-.051zm1.266.633h-.864v-.65h.864zm7.209-4.387c-.794.616-3.508.964-4.689-.349-.762-.848-.385-1.9.9-2.1a5.732 5.732 0 013.525.6l.5.05c.129-.041.191-.283.316-.316C36.585.68 33.695.452 32.179.897a2.641 2.641 0 00-2 3.059c.57 6.915 8.483 5.528 8.23.366-.029-.613-.426-.915-1.096-.396z" fill="#221714"/><path d="M36.956 2.022a1.959 1.959 0 01.556.537c1.863-.4 2.311 1.4.688 2.649a4.562 4.562 0 01-.439 1.578c2.941-1.617 3.862-6.246-.805-4.764zm-1.854 2.026a2.973 2.973 0 01-2.163-.754.839.839 0 01-.249-.826.924.924 0 01.673-.519 2.526 2.526 0 011.325.676 4.383 4.383 0 002.21 1.062 4.222 4.222 0 01-1.796.361z" fill="#221714"/><path d="M4.369 13.207H1.926v1.388h.925v-.068a.69.69 0 01.131-.461.5.5 0 01.4-.152.547.547 0 01.386.138.455.455 0 01.15.35c0 .007 0 .031.005.07s.005.08.005.119v1.122a.837.837 0 01-.126.52.5.5 0 01-.41.157.527.527 0 01-.4-.146.613.613 0 01-.137-.434v-.1h-.929v1.621h2.445v-.645a.8.8 0 01.134-.521.549.549 0 01.439-.157.529.529 0 01.428.155.824.824 0 01.129.523v1.311a.518.518 0 01-.11.391.69.69 0 01-.436.1H.649a.714.714 0 01-.5-.141.762.762 0 01-.008-.9.547.547 0 01.415-.149h.089v-4.044H.556a.538.538 0 01-.413-.155.622.622 0 01-.145-.442.6.6 0 01.152-.458.708.708 0 01.494-.143H4.95a.679.679 0 01.434.1.53.53 0 01.113.4v1.214a.836.836 0 01-.131.528.52.52 0 01-.426.16.539.539 0 01-.439-.162.826.826 0 01-.134-.526zm4.17.054v4.044h2.39v-.965a.848.848 0 01.129-.531.524.524 0 01.428-.157.545.545 0 01.437.16.813.813 0 01.137.528v1.664a.519.519 0 01-.11.391.7.7 0 01-.442.1H6.739a.694.694 0 01-.489-.141.616.616 0 01-.147-.46.6.6 0 01.145-.45.712.712 0 01.492-.135h.463v-4.044H6.74a.693.693 0 01-.489-.141.608.608 0 01-.147-.455.6.6 0 01.155-.458.709.709 0 01.492-.143h2.24a.71.71 0 01.492.143.756.756 0 010 .913.715.715 0 01-.494.141zm7.027-1.377a2.7 2.7 0 012.127.954 3.982 3.982 0 01.006 4.873 2.858 2.858 0 01-4.261-.008 3.959 3.959 0 01-.008-4.867 2.709 2.709 0 012.136-.952zm0 1.258a1.219 1.219 0 00-1.063.564 3.375 3.375 0 000 3.138 1.279 1.279 0 002.125 0 3.38 3.38 0 000-3.141 1.224 1.224 0 00-1.062-.561zm6.282.119v4.044h.883a.766.766 0 01.513.138.572.572 0 01.155.447.592.592 0 01-.158.458.746.746 0 01-.51.143h-3.123a.753.753 0 01-.513-.141.6.6 0 01-.155-.46.576.576 0 01.152-.45.774.774 0 01.515-.135h.883v-4.044h-.883a.752.752 0 01-.513-.141.751.751 0 010-.911.775.775 0 01.515-.136h3.123a.772.772 0 01.521.136.766.766 0 01-.005.911.752.752 0 01-.516.141zm6.236-1.069a.547.547 0 01.179-.239.568.568 0 01.3-.065q.3 0 .391.116a.889.889 0 01.1.464l.021 1.041v.06a.638.638 0 01-.124.447.568.568 0 01-.418.127.6.6 0 01-.557-.412l-.042-.1a1.176 1.176 0 00-.442-.507 1.234 1.234 0 00-.657-.171 1.219 1.219 0 00-.765.225.7.7 0 00-.292.577q0 .5 1.335.786l.358.076a2.894 2.894 0 011.462.694 1.752 1.752 0 01.452 1.274 1.875 1.875 0 01-.657 1.537 2.9 2.9 0 01-1.882.539 5.037 5.037 0 01-.849-.069 3.839 3.839 0 01-.728-.2.549.549 0 01-.195.2.624.624 0 01-.3.062.5.5 0 01-.6-.591l-.021-1.274v-.06a.743.743 0 01.129-.5.59.59 0 01.45-.141q.342 0 .573.509c.035.083.063.146.084.19a1.4 1.4 0 00.57.623 1.8 1.8 0 00.9.206 1.211 1.211 0 00.752-.206.689.689 0 00.268-.58q0-.58-1.215-.878-.363-.087-.573-.146a3.074 3.074 0 01-1.414-.691 1.579 1.579 0 01-.394-1.135 1.917 1.917 0 01.676-1.515 2.566 2.566 0 011.748-.588 3.263 3.263 0 01.7.076 3.606 3.606 0 01.677.239zm6.226 1.015h-2.445v1.388h.925v-.068a.688.688 0 01.131-.461.5.5 0 01.4-.152.547.547 0 01.386.138.456.456 0 01.15.35c0 .007 0 .031.005.07s.005.08.005.119v1.122a.838.838 0 01-.126.52.5.5 0 01-.41.157.527.527 0 01-.4-.146.613.613 0 01-.137-.434v-.1h-.925v1.621h2.445v-.645a.8.8 0 01.134-.521.548.548 0 01.439-.157.528.528 0 01.428.155.824.824 0 01.129.523v1.311a.519.519 0 01-.11.391.691.691 0 01-.436.1h-4.306a.715.715 0 01-.5-.141.763.763 0 01-.008-.9.547.547 0 01.416-.149h.089v-4.044H30.5a.538.538 0 01-.413-.155.622.622 0 01-.145-.442.6.6 0 01.152-.458.708.708 0 01.494-.143h4.306a.678.678 0 01.434.1.529.529 0 01.113.4v1.214a.836.836 0 01-.131.528.519.519 0 01-.426.16.538.538 0 01-.439-.162.827.827 0 01-.134-.526zm5.505 5.208a1.111 1.111 0 01-.281.166.81.81 0 01-.3.057.37.37 0 01-.318-.125.834.834 0 01-.092-.466v-.721a.844.844 0 01.116-.507.476.476 0 01.4-.149.58.58 0 01.5.309 1.981 1.981 0 00.194.249 1.686 1.686 0 00.6.358 2.351 2.351 0 00.778.119 1.069 1.069 0 00.6-.152.459.459 0 00.226-.4q0-.439-1.215-.607a7.498 7.498 0 01-.421-.06 2.653 2.653 0 01-1.362-.512 1.282 1.282 0 01-.447-1.027 1.411 1.411 0 01.536-1.182 2.445 2.445 0 011.53-.417 4.491 4.491 0 01.7.057 5.114 5.114 0 01.739.176.764.764 0 01.234-.2.58.58 0 01.276-.065.4.4 0 01.329.138.646.646 0 01.113.415v.667a.518.518 0 01-.116.36.419.419 0 01-.326.127 1.636 1.636 0 01-.739-.387 1.756 1.756 0 00-1.049-.388 1.224 1.224 0 00-.636.138.428.428 0 00-.226.382q0 .38.946.51.273.032.431.054a3.618 3.618 0 011.633.534 1.268 1.268 0 01.444 1.054 1.5 1.5 0 01-.586 1.266 2.7 2.7 0 01-1.664.447 5.62 5.62 0 01-.81-.057 5.327 5.327 0 01-.737-.161zm12.09-6.173a.825.825 0 01.216-.276.458.458 0 01.278-.081.433.433 0 01.366.141.818.818 0 01.107.482l.011 1.409a.778.778 0 01-.118.5.566.566 0 01-.429.13.485.485 0 01-.339-.108.878.878 0 01-.2-.4 1.309 1.309 0 00-.436-.74 1.36 1.36 0 00-.831-.225 1.468 1.468 0 00-1.24.563 3.286 3.286 0 00.005 3.263 1.477 1.477 0 001.246.569 2.5 2.5 0 001.217-.379 2.661 2.661 0 01.839-.379.422.422 0 01.345.179.7.7 0 01.139.445q0 .477-.815.9a3.921 3.921 0 01-1.835.423 2.87 2.87 0 01-2.23-.938 3.892 3.892 0 01.011-4.873 2.805 2.805 0 012.187-.965 3.145 3.145 0 01.736.087 4.376 4.376 0 01.77.273zm6.526 5.063h.084a.577.577 0 01.434.154.609.609 0 01.15.442.579.579 0 01-.155.453.767.767 0 01-.513.138h-.494a.62.62 0 01-.391-.1.759.759 0 01-.213-.374 3.569 3.569 0 01-.925.455 3.215 3.215 0 01-.989.157 1.919 1.919 0 01-1.33-.434 1.513 1.513 0 01-.484-1.187 1.466 1.466 0 01.626-1.263 2.969 2.969 0 011.756-.45q.252 0 .536.027t.636.087v-.1a1.078 1.078 0 00-.229-.743.861.861 0 00-.676-.255 2.131 2.131 0 00-.886.266 2.089 2.089 0 01-.792.266.547.547 0 01-.4-.149.525.525 0 01-.152-.393q0-.439.623-.7a4.543 4.543 0 011.7-.258 2.343 2.343 0 011.6.444 1.977 1.977 0 01.484 1.507zm-1.272-1.046a5.45 5.45 0 00-.484-.089 3.065 3.065 0 00-.41-.03 1.741 1.741 0 00-.907.2.62.62 0 00-.329.553.574.574 0 00.211.48.962.962 0 00.6.165 2.12 2.12 0 00.684-.108 2.334 2.334 0 00.631-.336zm5.064-2.619h1.13a.761.761 0 01.515.138.748.748 0 010 .908.755.755 0 01-.513.141h-1.13v2.475h1.046a.773.773 0 01.515.135.575.575 0 01.152.45.6.6 0 01-.155.46.754.754 0 01-.513.141h-2.9a.752.752 0 01-.515-.141.6.6 0 01-.152-.46.584.584 0 01.15-.45.773.773 0 01.518-.135h.557v-2.477h-.557a.752.752 0 01-.515-.141.762.762 0 010-.911.774.774 0 01.518-.136h.557v-.309a1.878 1.878 0 01.531-1.51 2.834 2.834 0 011.809-.447 2.213 2.213 0 01.975.162.533.533 0 01.313.5.481.481 0 01-.139.363.514.514 0 01-.376.136 3.432 3.432 0 01-.491-.049 3.464 3.464 0 00-.444-.049.879.879 0 00-.686.225 1.22 1.22 0 00-.2.794zm3.617 2.667a1.5 1.5 0 00.528.9 1.68 1.68 0 001.044.3 2.785 2.785 0 001.288-.328 2.967 2.967 0 01.768-.328.4.4 0 01.318.149.58.58 0 01.124.382q0 .509-.731.878a3.992 3.992 0 01-1.809.369 2.924 2.924 0 01-2.069-.737 2.651 2.651 0 010-3.789 2.924 2.924 0 012.069-.737 2.666 2.666 0 011.883.691 2.221 2.221 0 01.746 1.694.536.536 0 01-.149.439 1.082 1.082 0 01-.618.119zm2.834-.846a1.192 1.192 0 00-.46-.78 1.57 1.57 0 00-.965-.277 1.5 1.5 0 00-.923.263 1.385 1.385 0 00-.486.794zm-2.245-2.445l-.184-.417 2.513-1.512a.115.115 0 01.039-.016.206.206 0 01.045-.005.239.239 0 01.134.044.284.284 0 01.1.124l.216.466a.052.052 0 00.01.022.245.245 0 01-.026.2.212.212 0 01-.105.087z" fill="#dc5518"/><path d="M23.171 21.984v.81l.8-.826a.289.289 0 01-.189-.079.39.39 0 01.019-.427.361.361 0 01.25-.069h.636a.361.361 0 01.25.069.376.376 0 010 .448.3.3 0 01-.217.074h-.06l-.755.773a1.72 1.72 0 01.384.421 5.354 5.354 0 01.407.8h.086a.32.32 0 01.229.072.288.288 0 01.075.217.3.3 0 01-.077.228.372.372 0 01-.253.069h-.32q-.21 0-.34-.292a1.444 1.444 0 01-.036-.086 3.772 3.772 0 00-.314-.578 2.1 2.1 0 00-.335-.372l-.244.241v.5h.042a.258.258 0 01.288.289.3.3 0 01-.076.228.372.372 0 01-.253.069h-.669a.376.376 0 01-.254-.068.3.3 0 01-.075-.229.293.293 0 01.073-.215.286.286 0 01.213-.074h.044v-2h-.045a.282.282 0 01-.212-.075.3.3 0 01-.073-.219.3.3 0 01.075-.227.371.371 0 01.254-.069h.669a.372.372 0 01.252.069.291.291 0 01.078.227.3.3 0 01-.074.219.288.288 0 01-.214.075zm4.404 1.995h.041a.284.284 0 01.214.076.3.3 0 01.074.218.285.285 0 01-.077.223.375.375 0 01-.253.068h-.244a.307.307 0 01-.193-.051.372.372 0 01-.1-.185 1.761 1.761 0 01-.457.225 1.589 1.589 0 01-.488.078.948.948 0 01-.656-.214.746.746 0 01-.239-.586.724.724 0 01.309-.623 1.465 1.465 0 01.867-.222q.124 0 .265.013t.314.043v-.051a.531.531 0 00-.113-.366.426.426 0 00-.334-.126 1.05 1.05 0 00-.437.131 1.03 1.03 0 01-.39.131.27.27 0 01-.2-.073.259.259 0 01-.075-.194q0-.217.307-.344a2.244 2.244 0 01.837-.127 1.156 1.156 0 01.791.219.975.975 0 01.239.744zm-.628-.516a2.692 2.692 0 00-.239-.044 1.51 1.51 0 00-.2-.015.858.858 0 00-.447.1.305.305 0 00-.162.273.283.283 0 00.1.237.473.473 0 00.3.082 1.044 1.044 0 00.337-.054 1.155 1.155 0 00.311-.166zm2.378-.35v.867h.612a.371.371 0 01.25.067.287.287 0 01.074.222.3.3 0 01-.074.228.361.361 0 01-.25.069h-1.45a.371.371 0 01-.254-.069.3.3 0 01-.075-.228.287.287 0 01.074-.222.379.379 0 01.255-.067h.2v-1.3h-.112a.366.366 0 01-.25-.068.386.386 0 010-.45.369.369 0 01.253-.067h.552a.172.172 0 01.109.031.1.1 0 01.039.084v.4a2.119 2.119 0 01.528-.447 1.086 1.086 0 01.528-.134.639.639 0 01.407.119.386.386 0 01.15.32.339.339 0 01-.1.255.368.368 0 01-.267.1.593.593 0 01-.276-.088.577.577 0 00-.222-.088.545.545 0 00-.293.115 2.687 2.687 0 00-.408.351zm3.446-.433h-.042a.279.279 0 01-.211-.075.305.305 0 01-.071-.219.294.294 0 01.073-.225.37.37 0 01.252-.067h.491a.172.172 0 01.109.031.1.1 0 01.039.084v1.77h.042a.288.288 0 01.214.075.292.292 0 01.074.214.3.3 0 01-.075.229.375.375 0 01-.254.068h-.436a.179.179 0 01-.113-.032.108.108 0 01-.04-.088v-.2a.826.826 0 01-.3.289.886.886 0 01-.424.1.738.738 0 01-.62-.259 1.285 1.285 0 01-.2-.795v-.893h-.058a.284.284 0 01-.213-.075.3.3 0 01-.073-.219.291.291 0 01.074-.225.38.38 0 01.255-.067h.488a.161.161 0 01.106.031.1.1 0 01.036.084v1.244a.883.883 0 00.088.462.321.321 0 00.291.134.443.443 0 00.354-.164.647.647 0 00.139-.432zm2.876 1.299h.557a.381.381 0 01.255.067.285.285 0 01.075.222.3.3 0 01-.077.228.372.372 0 01-.253.069h-1.752a.372.372 0 01-.253-.069.3.3 0 01-.076-.228.287.287 0 01.074-.222.381.381 0 01.256-.067h.557v-1.3h-.293a.365.365 0 01-.249-.068.291.291 0 01-.075-.226.294.294 0 01.072-.225.371.371 0 01.252-.067h.781a.178.178 0 01.112.031.1.1 0 01.039.084zm-.374-3.094a.321.321 0 01.252.075.645.645 0 01.063.358.624.624 0 01-.056.338c-.037.044-.125.065-.263.065a.379.379 0 01-.261-.061.371.371 0 01-.058-.246.98.98 0 01.06-.436c.039-.062.127-.093.264-.093zm2.184 3.143h.846l.015-.184a.483.483 0 01.074-.27.258.258 0 01.2-.064.231.231 0 01.195.076.426.426 0 01.06.258v.393a.475.475 0 01-.049.27q-.049.059-.249.059h-1.614a.351.351 0 01-.235-.068.249.249 0 01-.079-.2.379.379 0 01.034-.152.532.532 0 01.093-.145l1.258-1.369h-.8v.126a.423.423 0 01-.063.255.231.231 0 01-.2.084.251.251 0 01-.206-.075.43.43 0 01-.061-.265v-.34a.468.468 0 01.048-.266q.048-.058.25-.058h1.53a.356.356 0 01.24.069.268.268 0 01.079.211.32.32 0 01-.035.142.636.636 0 01-.1.147zm4.093-.049h.041a.284.284 0 01.214.076.3.3 0 01.074.218.286.286 0 01-.077.223.376.376 0 01-.253.068h-.241a.306.306 0 01-.193-.051.375.375 0 01-.105-.185 1.759 1.759 0 01-.457.225 1.589 1.589 0 01-.488.078.949.949 0 01-.656-.214.746.746 0 01-.239-.586.723.723 0 01.309-.623 1.465 1.465 0 01.867-.222q.124 0 .265.013t.314.043v-.051a.532.532 0 00-.113-.366.426.426 0 00-.334-.126 1.052 1.052 0 00-.437.131 1.028 1.028 0 01-.39.131.27.27 0 01-.2-.073.259.259 0 01-.075-.194q0-.217.307-.344a2.246 2.246 0 01.837-.127 1.156 1.156 0 01.791.219.976.976 0 01.239.744zm-.628-.516a2.627 2.627 0 00-.239-.044 1.506 1.506 0 00-.2-.015.858.858 0 00-.447.1.305.305 0 00-.162.273.283.283 0 00.1.237.473.473 0 00.3.082 1.044 1.044 0 00.337-.054 1.148 1.148 0 00.311-.166zm1.695-.783l.208 1.316.278-1.019a.4.4 0 01.112-.211.329.329 0 01.2-.051.344.344 0 01.2.048.394.394 0 01.114.214l.288 1.019.2-1.316h-.044a.283.283 0 01-.213-.075.3.3 0 01-.073-.219.291.291 0 01.074-.225.38.38 0 01.255-.067h.61a.378.378 0 01.254.068.291.291 0 01.075.224.3.3 0 01-.074.219.284.284 0 01-.211.075h-.044l-.324 1.688a.3.3 0 01-.119.2.489.489 0 01-.272.063.483.483 0 01-.27-.063.354.354 0 01-.135-.2l-.3-1.04-.27 1.04a.318.318 0 01-.135.2.5.5 0 01-.275.065.475.475 0 01-.27-.063.3.3 0 01-.117-.2l-.329-1.688h-.044a.275.275 0 01-.209-.075.306.306 0 01-.071-.219.3.3 0 01.073-.224.367.367 0 01.252-.068h.615a.368.368 0 01.252.068.3.3 0 01.073.224.308.308 0 01-.071.219.276.276 0 01-.209.075zm4.778 1.299h.042a.284.284 0 01.214.076.3.3 0 01.074.218.286.286 0 01-.077.223.376.376 0 01-.253.068h-.244a.307.307 0 01-.193-.051.375.375 0 01-.105-.185 1.752 1.752 0 01-.457.225 1.587 1.587 0 01-.488.078.948.948 0 01-.656-.214.746.746 0 01-.239-.586.723.723 0 01.309-.623 1.464 1.464 0 01.866-.222c.083 0 .171 0 .265.013s.2.024.314.043v-.051a.53.53 0 00-.113-.366.425.425 0 00-.333-.126 1.05 1.05 0 00-.437.131 1.03 1.03 0 01-.39.131.269.269 0 01-.2-.073.258.258 0 01-.075-.194q0-.217.307-.344a2.245 2.245 0 01.837-.127 1.156 1.156 0 01.791.219.975.975 0 01.239.744zm-.628-.516a2.674 2.674 0 00-.238-.044 1.513 1.513 0 00-.2-.015.859.859 0 00-.447.1.305.305 0 00-.162.273.283.283 0 00.1.237.472.472 0 00.3.082 1.041 1.041 0 00.337-.054 1.148 1.148 0 00.311-.166z" fill="#221714"/><path d="M36.475 13.532a2.175 2.175 0 00.455-.19 1.793 1.793 0 00.371-.271 1.293 1.293 0 00.25-.325.746.746 0 00.092-.352c0-.1-.007-.152-.021-.152a.191.191 0 00-.095.027l-.105.06a.938.938 0 01-.129.06.454.454 0 01-.161.027.559.559 0 01-.255-.06.68.68 0 01-.208-.163.791.791 0 01-.142-.244.859.859 0 01-.053-.3.77.77 0 01.068-.323.794.794 0 01.187-.257.873.873 0 01.279-.171.92.92 0 01.339-.062.89.89 0 01.418.1 1.113 1.113 0 01.342.276 1.341 1.341 0 01.229.407 1.458 1.458 0 01.084.5 1.748 1.748 0 01-.158.743 1.947 1.947 0 01-.423.6 2.1 2.1 0 01-.618.409 2.218 2.218 0 01-.747.182z" fill="#dc5518"/><path fill="none" d="M0 0h70v25H0z"/></svg>