<svg xmlns="http://www.w3.org/2000/svg" width="71.083" height="51.982"><path d="M5.343 32.22a.346.346 0 01.277-.162c.158 0 .239.107.239.328a6.961 6.961 0 00-1.281 4.517c0 1.681.035 3.666.081 5.967a8.45 8.45 0 01-3.479 6.72c-.214.213-.375.319-.478.319s-.161-.106-.161-.319a11.247 11.247 0 002.723-7.36c0-1.869-.03-3.593-.081-5.173a7.222 7.222 0 012.16-4.836m1.438-2.2h-2.68c-.934 0-1.4-.363-1.4-1.076a1.1 1.1 0 01.244-.76 10.378 10.378 0 00.955-.486 17.155 17.155 0 011.687-1.085 5.637 5.637 0 01-1.84-.64 1.645 1.645 0 01-.837-1.558 1.306 1.306 0 01.473-.8 5.413 5.413 0 011.443-.764c.879-.529 1.315-.956 1.315-1.272a1.049 1.049 0 00-.234-.6c.051-.226.153-.324.316-.324a.831.831 0 01.406.153 1.514 1.514 0 01.6 1.246 1.656 1.656 0 01-.721 1.247 10.225 10.225 0 01-1.554.794 2.5 2.5 0 00-.564.32.849.849 0 00.44.756 5.265 5.265 0 001.482.972h.077a2.76 2.76 0 01.725-.486c1.012-.828 1.52-1.451 1.52-1.878 0-.213.064-.32.2-.32.422 0 .636.269.636.806 0 .607-.478 1.341-1.443 2.186a16.985 16.985 0 01-3.359 2.323.149.149 0 00.162.171h5.366c.392 0 .6-.222.6-.65a2.772 2.772 0 00-.483-.921c0-.317.089-.478.277-.478a2.019 2.019 0 01.725.161c.8.538 1.2 1.051 1.2 1.563 0 .93-.951 1.4-2.877 1.4H8.343q0 18.492-.486 20.489c-.043.317-.205.478-.474.478a.6.6 0 01-.278-.478q-.332-2.165-.325-20.489M5.342 15.166a83.869 83.869 0 018.562-.435q4.643 0 9.161.435l.047-.153a.653.653 0 111.238.153 4.875 4.875 0 01-.755 3.014c-.67 1.212-2.873 1.938-6.6 2.151h.038a8.236 8.236 0 00-.243 2.049 5.171 5.171 0 01-.162.922h2.723a7.632 7.632 0 011.123-2.007 1.83 1.83 0 01.875-.486.57.57 0 01.645.649 1.876 1.876 0 01-.363.6 12.842 12.842 0 01-.794 1.247h3.317c.609 0 .917.2.917.632 0 .332-.247.482-.76.482h-3.678c.081.717.145 1.5.205 2.323h3.12c.61.106.918.319.918.636 0 .435-.256.64-.755.64h-3.21c.056.827.1 1.664.124 2.484h2.924c.61.1.918.324.918.636 0 .405-.256.61-.755.61h-3.044q.078 2.523.078 5.643 0 10.962-.4 12.52h4.405q.922 0 .922.6c0 .427-.256.64-.76.64H14.55a.937.937 0 01-.606-.162h-.039a.657.657 0 01-.482.325c-.1 0-.163-.111-.163-.325a32.322 32.322 0 00.846-7.965V30.337c0-2.074-.657-3.534-1.963-4.362-.158-.107-.239-.205-.239-.316s.11-.167.324-.167a3.873 3.873 0 002.194-1.4 3.53 3.53 0 001.281-2.518 8.5 8.5 0 01.726-1.247 9.036 9.036 0 01-1.763.162q-7.767-.167-9.642-2.313a3.72 3.72 0 01-.8-2.694c.056-.712.226-1.071.521-1.071.32 0 .521.247.6.751m5.118 3.924v-2.635a.979.979 0 01.043-.486c-1.656.111-3.308.213-4.96.325a3.353 3.353 0 00.956 1.72 10.745 10.745 0 003.961 1.076m-.956 12.968a.492.492 0 01.325.162 7.363 7.363 0 011.109 4.085 35.02 35.02 0 01.244 4.362 21.06 21.06 0 001.883 8.922c0 .213-.051.319-.163.319s-.26-.106-.477-.319a12.81 12.81 0 01-2.643-8.281c0-1.682-.034-3.347-.115-5a13.934 13.934 0 00-.4-3.919c0-.222.077-.328.239-.328m5.079-12.806h2.245v-2.8a2.316 2.316 0 01.038-.486h-5.238c.026.111.043.273.077.486v2.8zm.205 7.646a.675.675 0 01.473-.158h4.525c.025-.825.073-1.606.124-2.323h-3.927a6.95 6.95 0 01-1.84 1.558 2.954 2.954 0 01.645.922m-.325 23.011h5.6v-.158q-.474-2.522-.478-12.362c.03-2.079.051-3.961.086-5.643h-4.085v11.594a18.281 18.281 0 01-1.123 6.569m1.319-19.409h3.889q.038-1.4.077-2.484h-4.525a7.692 7.692 0 01.363 2.484zm7.086-14.205c-1.6-.111-3.215-.213-4.845-.325a2.267 2.267 0 01.043.486v2.635c2.134-.1 3.432-.466 3.883-1.076.428-.209.735-.789.919-1.72" fill="#ca1e1d"/><path d="M5.343 32.22a.346.346 0 01.277-.162c.158 0 .239.107.239.328a6.961 6.961 0 00-1.281 4.517c0 1.681.035 3.666.081 5.967a8.45 8.45 0 01-3.479 6.72c-.214.213-.375.319-.478.319s-.161-.106-.161-.319a11.247 11.247 0 002.723-7.36c0-1.869-.03-3.593-.081-5.173a7.222 7.222 0 012.16-4.837zm1.438-2.2h-2.68c-.934 0-1.4-.363-1.4-1.076a1.1 1.1 0 01.244-.76 10.378 10.378 0 00.955-.486 17.155 17.155 0 011.687-1.085 5.637 5.637 0 01-1.84-.64 1.645 1.645 0 01-.837-1.558 1.306 1.306 0 01.473-.8 5.413 5.413 0 011.443-.764c.879-.529 1.315-.956 1.315-1.272a1.049 1.049 0 00-.234-.6c.051-.226.153-.324.316-.324a.831.831 0 01.406.153 1.514 1.514 0 01.6 1.246 1.656 1.656 0 01-.721 1.247 10.225 10.225 0 01-1.554.794 2.5 2.5 0 00-.564.32.849.849 0 00.44.756 5.265 5.265 0 001.482.972h.077a2.76 2.76 0 01.725-.486c1.012-.828 1.52-1.451 1.52-1.878 0-.213.064-.32.2-.32.422 0 .636.269.636.806 0 .607-.478 1.341-1.443 2.186a16.985 16.985 0 01-3.359 2.323.149.149 0 00.162.171h5.366c.392 0 .6-.222.6-.65a2.772 2.772 0 00-.483-.921c0-.317.089-.478.277-.478a2.019 2.019 0 01.725.161c.8.538 1.2 1.051 1.2 1.563 0 .93-.951 1.4-2.877 1.4H8.343q0 18.492-.486 20.489c-.043.317-.205.478-.474.478a.6.6 0 01-.278-.478q-.332-2.163-.324-20.488zM5.343 15.165a83.869 83.869 0 018.562-.435q4.643 0 9.161.435l.047-.153a.653.653 0 111.238.153 4.875 4.875 0 01-.755 3.014c-.67 1.212-2.873 1.938-6.6 2.151h.038a8.236 8.236 0 00-.243 2.049 5.171 5.171 0 01-.162.922h2.723a7.632 7.632 0 011.123-2.007 1.83 1.83 0 01.875-.486.57.57 0 01.645.649 1.876 1.876 0 01-.363.6 12.842 12.842 0 01-.794 1.247h3.317c.609 0 .917.2.917.632 0 .332-.247.482-.76.482h-3.679c.081.717.145 1.5.205 2.323h3.12c.61.106.918.319.918.636 0 .435-.256.64-.755.64h-3.21c.056.827.1 1.664.124 2.484h2.924c.61.1.918.324.918.636 0 .405-.256.61-.755.61h-3.044q.078 2.523.078 5.643 0 10.962-.4 12.52h4.405q.922 0 .922.6c0 .427-.256.64-.76.64H14.55a.937.937 0 01-.606-.162h-.039a.657.657 0 01-.482.325c-.1 0-.163-.111-.163-.325a32.322 32.322 0 00.846-7.965V30.337c0-2.074-.657-3.534-1.963-4.362-.158-.107-.239-.205-.239-.316s.11-.167.324-.167a3.873 3.873 0 002.194-1.4 3.53 3.53 0 001.281-2.518 8.5 8.5 0 01.726-1.247 9.036 9.036 0 01-1.763.162q-7.767-.167-9.642-2.313a3.72 3.72 0 01-.8-2.694c.056-.712.226-1.071.521-1.071.316.005.517.25.598.755zm5.118 3.924v-2.635a.979.979 0 01.043-.486c-1.656.111-3.308.213-4.96.325a3.353 3.353 0 00.956 1.72 10.745 10.745 0 003.961 1.077zm-.956 12.968a.492.492 0 01.325.162 7.363 7.363 0 011.109 4.085 35.02 35.02 0 01.244 4.362 21.06 21.06 0 001.883 8.922c0 .213-.051.319-.163.319s-.26-.106-.477-.319a12.81 12.81 0 01-2.643-8.281c0-1.682-.034-3.347-.115-5a13.934 13.934 0 00-.4-3.919c-.002-.227.074-.327.237-.327zm5.079-12.806h2.249v-2.8a2.316 2.316 0 01.038-.486h-5.238c.026.111.043.273.077.486v2.8zm.205 7.646a.675.675 0 01.473-.158h4.525c.025-.825.073-1.606.124-2.323h-3.927a6.95 6.95 0 01-1.84 1.558 2.954 2.954 0 01.645.923zm-.325 23.011h5.6v-.158q-.474-2.522-.478-12.362c.03-2.079.051-3.961.086-5.643h-4.085v11.594a18.281 18.281 0 01-1.122 6.569zm1.319-19.409h3.889q.038-1.4.077-2.484h-4.525a7.692 7.692 0 01.363 2.484zm7.086-14.205c-1.6-.111-3.215-.213-4.845-.325a2.267 2.267 0 01.043.486v2.635c2.134-.1 3.432-.466 3.883-1.076.429-.209.737-.79.92-1.72z" fill="none" stroke="#ca1e1d" stroke-width="1.083"/><path d="M47.935 24.983q.083 4.559.081 10.808-.038 12.2-1.844 15.324c-.214.213-.376.325-.479.325s-.158-.051-.158-.162q1.082-3.764 1.118-15.486 0-14.841.038-20.019c0-.525.1-.795.32-.795s.376.214.483.64v.317a22.081 22.081 0 012.68-.162 20.462 20.462 0 012.562.162l.043-.162c.077-.427.18-.632.316-.632.107 0 .205.158.282.478q.512 6.237.521 17.685 0 14.86-.359 16.891c-.116.4-.222.606-.368.606-.077 0-.166-.255-.277-.76-.269-2.194-.4-7.76-.4-16.737q0-4.718.038-8.32zm4.725-5.446c0-.854.008-1.639.034-2.356a10.6 10.6 0 00-2.6-.325 20.277 20.277 0 00-2.48.162c.051.743.085 1.588.115 2.519zm-.086 4.209c0-1.042.017-2.088.043-3.125h-4.8c.026 1.037.042 2.084.077 3.125zm10.163-6.89a1.111 1.111 0 01-.238.325 72.964 72.964 0 01-7.282 7.039c-.244.217-.414.325-.521.325a.429.429 0 01-.483-.487.99.99 0 01.282-.636q3.444-3.279 6.886-6.565h-6.484c-.5 0-.76-.2-.76-.6 0-.324.349-.537 1.042-.64h12.926c.61.1.922.317.922.64 0 .4-.256.6-.76.6zm-1.877 7.688l-5.123 6.232c-.243.218-.422.333-.558.333-.3 0-.444-.115-.444-.333 0-.2.171-.465.521-.79l4.96-6.85a20.181 20.181 0 00-.832-2.037.41.41 0 01.2-.316c.132 0 .252.1.362.316a31.782 31.782 0 013.04 5 14.04 14.04 0 012.079 7.043 19.734 19.734 0 01-2.6 8.887q-2.644 5.647-4.558 8.922c-.111.217-.231.324-.359.324-.086 0-.129-.162-.129-.478q.8-2.484 3.006-7.487 3.2-7.05 3.2-9.724a16.289 16.289 0 00-1.037-5.17c-.136-.286-.252-.546-.359-.755l-5.886 7.367a1.089 1.089 0 01-.56.277c-.289 0-.435-.1-.435-.277a1.269 1.269 0 01.521-.8l5.72-7.966a23.387 23.387 0 00-.721-1.72m4.477-1.883c.752-.752 1.494-1.477 2.245-2.2.086-.1.137-.153.162-.153a.563.563 0 01.64.636c0 .107-.043.158-.12.158a23.355 23.355 0 01-2.6 2.647c-.081.1-.145.161-.2.161a25.44 25.44 0 005.079 13.13c0 .312-.115.474-.359.474-1.566-.833-2.946-2.715-4.111-5.643a26.888 26.888 0 01-1.576-9.207c0-.828.12-1.238.363-1.238.319 0 .473.307.473.922z" fill="#ca1e1d"/><path d="M47.935 24.983q.083 4.559.081 10.808-.038 12.2-1.844 15.324c-.214.213-.376.325-.479.325s-.158-.051-.158-.162q1.082-3.764 1.118-15.486 0-14.841.038-20.019c0-.525.1-.795.32-.795s.376.214.483.64v.317a22.081 22.081 0 012.68-.162 20.462 20.462 0 012.562.162l.043-.162c.077-.427.18-.632.316-.632.107 0 .205.158.282.478q.512 6.237.521 17.685 0 14.86-.359 16.891c-.116.4-.222.606-.368.606-.077 0-.166-.255-.277-.76-.269-2.194-.4-7.76-.4-16.737q0-4.718.038-8.32zm4.725-5.446c0-.854.008-1.639.034-2.356a10.6 10.6 0 00-2.6-.325 20.277 20.277 0 00-2.48.162c.051.743.085 1.588.115 2.519zm-.086 4.209c0-1.042.017-2.088.043-3.125h-4.8c.026 1.037.042 2.084.077 3.125zm10.163-6.89a1.111 1.111 0 01-.238.325 72.964 72.964 0 01-7.282 7.039c-.244.217-.414.325-.521.325a.429.429 0 01-.483-.487.99.99 0 01.282-.636q3.444-3.279 6.886-6.565h-6.484c-.5 0-.76-.2-.76-.6 0-.324.349-.537 1.042-.64h12.926c.61.1.922.317.922.64 0 .4-.256.6-.76.6zm-1.877 7.688l-5.123 6.232c-.243.218-.422.333-.558.333-.3 0-.444-.115-.444-.333 0-.2.171-.465.521-.79l4.96-6.85a20.181 20.181 0 00-.832-2.037.41.41 0 01.2-.316c.132 0 .252.1.362.316a31.782 31.782 0 013.04 5 14.04 14.04 0 012.079 7.043 19.734 19.734 0 01-2.6 8.887q-2.644 5.647-4.558 8.922c-.111.217-.231.324-.359.324-.086 0-.129-.162-.129-.478q.8-2.484 3.006-7.487 3.2-7.05 3.2-9.724a16.289 16.289 0 00-1.037-5.17c-.136-.286-.252-.546-.359-.755l-5.886 7.367a1.089 1.089 0 01-.56.277c-.289 0-.435-.1-.435-.277a1.269 1.269 0 01.521-.8l5.72-7.966a27.41 27.41 0 00-.728-1.717zm4.477-1.883c.752-.752 1.494-1.477 2.245-2.2.086-.1.137-.153.162-.153a.563.563 0 01.64.636c0 .107-.043.158-.12.158a23.355 23.355 0 01-2.6 2.647c-.081.1-.145.161-.2.161a25.44 25.44 0 005.079 13.13c0 .312-.115.474-.359.474-1.566-.833-2.946-2.715-4.111-5.643a26.888 26.888 0 01-1.568-9.209c0-.828.12-1.238.363-1.238.319 0 .473.307.473.922z" fill="none" stroke="#ca1e1d" stroke-width="1.083"/><path d="M37.507 27.289a3.028 3.028 0 01-.828 1.58c-.5.555-.978 1.109-1.461 1.673-.059.081-.11.137-.144.137s-.065-.009-.065-.056a.323.323 0 01.056-.154 6.735 6.735 0 01.666-.964 13.212 13.212 0 00.837-1.174 2.311 2.311 0 00.406-1.127c0-.265-.184-.487-.543-.691A9.1 9.1 0 0035.219 26a12.785 12.785 0 01-1.238-.5 1.1 1.1 0 01-.52-.982 2.321 2.321 0 01.1-.572 2.4 2.4 0 01.18-.546c.026-.056.056-.081.081-.081s.051.035.043.116a7.5 7.5 0 00-.043.939.832.832 0 00.461.76c.068.026.478.2 1.234.5a8.3 8.3 0 011.336.6 1.226 1.226 0 01.658 1.045m-.777-4.225a1.855 1.855 0 00-.188.008c-.081 0-.171.009-.265.009a3.891 3.891 0 01-2.689-.965.152.152 0 01-.064-.12c0-.035.026-.059.089-.059a.406.406 0 01.111.025 9.98 9.98 0 002.967.922c.124.026.179.051.179.089 0 .056-.047.09-.141.09" fill="#211613"/><path d="M37.507 27.289a3.028 3.028 0 01-.828 1.58c-.5.555-.978 1.109-1.461 1.673-.059.081-.11.137-.144.137s-.065-.009-.065-.056a.323.323 0 01.056-.154 6.735 6.735 0 01.666-.964 13.212 13.212 0 00.837-1.174 2.311 2.311 0 00.406-1.127c0-.265-.184-.487-.543-.691A9.1 9.1 0 0035.219 26a12.785 12.785 0 01-1.238-.5 1.1 1.1 0 01-.52-.982 2.321 2.321 0 01.1-.572 2.4 2.4 0 01.18-.546c.026-.056.056-.081.081-.081s.051.035.043.116a7.5 7.5 0 00-.043.939.832.832 0 00.461.76c.068.026.478.2 1.234.5a8.3 8.3 0 011.336.6 1.226 1.226 0 01.654 1.055zm-.777-4.225a1.855 1.855 0 00-.188.008c-.081 0-.171.009-.265.009a3.891 3.891 0 01-2.689-.965.152.152 0 01-.064-.12c0-.035.026-.059.089-.059a.406.406 0 01.111.025 9.98 9.98 0 002.967.922c.124.026.179.051.179.089-.004.056-.047.091-.141.091z" fill="none" stroke="#211613" stroke-linecap="round" stroke-linejoin="round" stroke-width=".479"/><path d="M33.73 37.803c-.227.816-.5 1.84-.8 3.069-.03.129-.1.2-.2.2-.137 0-.188-.094-.154-.265a12.833 12.833 0 01.965-3.091c.059-.1.111-.154.175-.154.026 0 .038.035.038.1a.629.629 0 01-.021.145m3.06.636a6.218 6.218 0 01-1.877 3.919c-.073.086-.116.128-.145.128a.045.045 0 01-.051-.051.387.387 0 01.072-.179c.555-.961.879-1.545.977-1.759a5.26 5.26 0 00.572-2.237 3.041 3.041 0 00-.921-2.16c-.235-.252-.35-.432-.35-.521a2.873 2.873 0 01.265-.6 6.72 6.72 0 00.282-.546c0-.038-.051-.056-.162-.056h-1.542c-.175 0-.265-.055-.265-.171s.089-.188.265-.188h1.772c.311 0 .465.065.465.18a1 1 0 01-.205.392c-.128.2-.247.38-.359.568a1.234 1.234 0 00-.209.418 2.435 2.435 0 00.367.427 3.857 3.857 0 01.7.918 3.164 3.164 0 01.349 1.515m.7-3.278a.093.093 0 01-.1.1c-.047 0-.158-.1-.346-.3a2.285 2.285 0 01-.265-.252c-.059-.077-.043-.116.068-.116a.711.711 0 01.418.244c.154.115.226.222.226.325m.44-.368c0 .068-.026.1-.077.1-.068 0-.175-.086-.333-.256a3.514 3.514 0 01-.38-.342c-.038-.08-.008-.119.081-.119.124 0 .329.136.607.388a.317.317 0 01.1.226m.5 5.874c.022.2-.029.3-.161.3-.111 0-.18-.073-.205-.256a27.231 27.231 0 00-.444-2.924c-.034-.137 0-.205.086-.205.068 0 .111.043.136.129a12.763 12.763 0 01.38 1.587c.107.577.18 1.034.209 1.367" fill="#211613"/><path d="M33.73 37.803c-.227.816-.5 1.84-.8 3.069-.03.129-.1.2-.2.2-.137 0-.188-.094-.154-.265a12.833 12.833 0 01.965-3.091c.059-.1.111-.154.175-.154.026 0 .038.035.038.1a.629.629 0 01-.024.141zm3.06.636a6.218 6.218 0 01-1.877 3.919c-.073.086-.116.128-.145.128a.045.045 0 01-.051-.051.387.387 0 01.072-.179c.555-.961.879-1.545.977-1.759a5.26 5.26 0 00.572-2.237 3.041 3.041 0 00-.921-2.16c-.235-.252-.35-.432-.35-.521a2.873 2.873 0 01.265-.6 6.72 6.72 0 00.282-.546c0-.038-.051-.056-.162-.056h-1.539c-.175 0-.265-.055-.265-.171s.089-.188.265-.188h1.772c.311 0 .465.065.465.18a1 1 0 01-.205.392c-.128.2-.247.38-.359.568a1.234 1.234 0 00-.209.418 2.435 2.435 0 00.367.427 3.857 3.857 0 01.7.918 3.164 3.164 0 01.345 1.518zm.7-3.278a.093.093 0 01-.1.1c-.047 0-.158-.1-.346-.3a2.285 2.285 0 01-.265-.252c-.059-.077-.043-.116.068-.116a.711.711 0 01.418.244c.148.114.22.222.22.322zm.44-.368c0 .068-.026.1-.077.1-.068 0-.175-.086-.333-.256a3.514 3.514 0 01-.38-.342c-.038-.08-.008-.119.081-.119.124 0 .329.136.607.388a.317.317 0 01.097.23zm.5 5.874c.022.2-.029.3-.161.3-.111 0-.18-.073-.205-.256a27.231 27.231 0 00-.444-2.924c-.034-.137 0-.205.086-.205.068 0 .111.043.136.129a12.763 12.763 0 01.38 1.587c.104.58.177 1.037.207 1.37z" fill="none" stroke="#211613" stroke-linecap="round" stroke-linejoin="round" stroke-width=".479"/><path d="M4.399 4.675a.15.15 0 01.089-.043c.043 0 .064.035.064.089a2.053 2.053 0 00-.316 1.217c0 .427.016.93.026 1.536a3.44 3.44 0 01-.888 2.4c-.068.089-.111.132-.141.132s-.047-.043-.047-.132A4.966 4.966 0 003.86 7.3c0-.486-.008-.939-.026-1.366a1.966 1.966 0 01.564-1.263M4.487.389C5.067.36 5.644.351 6.225.351c.563 0 1.118.009 1.664.038a.246.246 0 01.188-.213c.115.029.171.115.171.26a3.691 3.691 0 01-.153 1.221q-.231.807-1.69.9v.341h1.391c.175 0 .265.056.265.162s-.077.18-.222.18H6.397a2.028 2.028 0 01-.073.546h2.318c.171.025.26.072.26.161 0 .12-.072.171-.218.171h-4.9c-.145 0-.213-.051-.213-.171 0-.089.1-.137.3-.161h2.287v-.035a1.541 1.541 0 01-.09-.512h-1.5c-.136 0-.2-.068-.2-.18s.1-.162.3-.162h1.384v-.341c-.914-.059-1.491-.371-1.72-.93A3.119 3.119 0 014.178.482c.013-.213.073-.3.154-.3s.149.072.171.213m.064.718h1.511a3.513 3.513 0 01.038-.376c0-.03.014-.056.017-.09-.537 0-1.085.017-1.622.043.008.18.025.317.038.423m1.486 1.066c0-.286.008-.537.025-.773H4.618a1.045 1.045 0 00.072.223 1.719 1.719 0 001.346.55m-.607 2.668c.03 0 .059.051.094.171a13.544 13.544 0 01.145 2.237 10.028 10.028 0 01-.11 2.16c-.026.145-.06.217-.108.217a.682.682 0 01-.089-.252 11.888 11.888 0 01-.11-2.126c.012-1.037.038-1.793.085-2.237.017-.12.051-.171.094-.171M7.872.688A32.864 32.864 0 006.258.645a.29.29 0 00.017.09 3.256 3.256 0 01.077.376h1.485a4.16 4.16 0 00.035-.423m-.107.717H6.381c.022.235.022.487.022.773.709-.038 1.135-.217 1.259-.55a.532.532 0 00.1-.223m-.935 3.441c.029 0 .056.051.085.171a12.075 12.075 0 01.154 2.237 9.791 9.791 0 01-.111 2.126c-.029.132-.064.213-.107.213s-.055-.081-.089-.213a11.106 11.106 0 01-.12-2.126c.017-1.037.043-1.793.081-2.237.026-.12.064-.171.107-.171m1.058-.171a.129.129 0 01.089.047 1.579 1.579 0 01.389 1.055 7.287 7.287 0 01.078 1.1 5.2 5.2 0 001.007 3.091c0 .056-.013.081-.03.081a.2.2 0 01-.132-.081 3.763 3.763 0 01-1.23-2.877 12.759 12.759 0 00-.072-1.315 2.6 2.6 0 00-.158-1.02c0-.047.016-.081.059-.081" fill="#89898a"/><path d="M4.399 4.675a.15.15 0 01.089-.043c.043 0 .064.035.064.089a2.053 2.053 0 00-.316 1.217c0 .427.016.93.026 1.536a3.44 3.44 0 01-.888 2.4c-.068.089-.111.132-.141.132s-.047-.043-.047-.132A4.966 4.966 0 003.86 7.3c0-.486-.008-.939-.026-1.366a1.966 1.966 0 01.565-1.259zM4.488.393C5.068.364 5.645.355 6.226.355c.563 0 1.118.009 1.664.038A.246.246 0 018.078.18c.115.029.171.115.171.26a3.691 3.691 0 01-.153 1.221q-.231.807-1.69.9v.341h1.391c.175 0 .265.056.265.162s-.077.18-.222.18H6.398a2.028 2.028 0 01-.073.546h2.318c.171.025.26.072.26.161 0 .12-.072.171-.218.171h-4.9c-.145 0-.213-.051-.213-.171 0-.089.1-.137.3-.161h2.287v-.035a1.541 1.541 0 01-.09-.512h-1.5c-.136 0-.2-.068-.2-.18s.1-.162.3-.162h1.384V2.56c-.914-.059-1.491-.371-1.72-.93A3.119 3.119 0 014.179.486c.013-.213.073-.3.154-.3s.134.066.156.207zm.064.718h1.526a3.513 3.513 0 01.038-.376c0-.03.014-.056.017-.09-.537 0-1.085.017-1.622.043.012.179.029.316.042.426zm1.486 1.066c0-.286.008-.537.025-.773H4.621a1.045 1.045 0 00.072.223 1.719 1.719 0 001.346.55zm-.607 2.668c.03 0 .059.051.094.171a13.544 13.544 0 01.145 2.237 10.028 10.028 0 01-.11 2.16c-.026.145-.06.217-.108.217a.682.682 0 01-.089-.252 11.888 11.888 0 01-.11-2.126c.012-1.037.038-1.793.085-2.237.017-.119.051-.17.094-.17zM7.873.687A32.864 32.864 0 006.259.644a.29.29 0 00.017.09 3.256 3.256 0 01.077.376h1.485a4.16 4.16 0 00.04-.423zm-.107.717H6.382c.022.235.022.487.022.773.709-.038 1.135-.217 1.259-.55a.532.532 0 00.104-.223zm-.935 3.441c.029 0 .056.051.085.171a12.075 12.075 0 01.154 2.237 9.791 9.791 0 01-.111 2.126c-.029.132-.064.213-.107.213s-.055-.081-.089-.213a11.106 11.106 0 01-.12-2.126c.017-1.037.043-1.793.081-2.237.027-.12.065-.171.108-.171zm1.058-.171a.129.129 0 01.089.047 1.579 1.579 0 01.389 1.055 7.287 7.287 0 01.078 1.1 5.2 5.2 0 001.007 3.091c0 .056-.013.081-.03.081a.2.2 0 01-.132-.081A3.763 3.763 0 018.06 7.09a12.759 12.759 0 00-.072-1.315 2.6 2.6 0 00-.158-1.02c.001-.047.018-.08.061-.08z" fill="none" stroke="#89898a" stroke-linecap="round" stroke-linejoin="round" stroke-width=".359"/><path d="M13.474 2.933c.016.819.026 1.793.026 2.928a10.721 10.721 0 01-.5 4.149c-.064.055-.1.085-.132.085s-.043-.013-.043-.047a18.39 18.39 0 00.3-4.187c0-2.689.008-4.491.017-5.426 0-.141.029-.222.081-.222s.107.056.136.179v.09a6.843 6.843 0 01.726-.047 6.065 6.065 0 01.687.047l.017-.047c.021-.115.047-.175.086-.175s.051.052.077.132c.089 1.128.145 2.729.145 4.794 0 2.677-.038 4.209-.1 4.576-.025.108-.059.162-.094.162s-.051-.068-.077-.213c-.077-.589-.11-2.092-.11-4.525 0-.854.008-1.6.008-2.253zm1.28-1.478c0-.23.009-.435.009-.639a2.981 2.981 0 00-.7-.081c-.222 0-.453.013-.674.034.013.205.026.431.035.687zm-.026 1.14c0-.277.009-.564.017-.849h-1.3c0 .286.008.572.016.849zM17.486.734a.492.492 0 01-.064.081 21.041 21.041 0 01-1.968 1.917.4.4 0 01-.145.081.114.114 0 01-.129-.129.228.228 0 01.077-.171c.615-.6 1.238-1.191 1.861-1.78h-1.753c-.141 0-.205-.056-.205-.162 0-.089.089-.15.277-.18h3.5c.171.03.252.09.252.18 0 .107-.073.162-.205.162zm-.508 2.079l-1.387 1.69a.235.235 0 01-.154.081c-.077 0-.12-.017-.12-.081a.377.377 0 01.145-.223l1.34-1.856a5.2 5.2 0 00-.23-.546c0-.03.016-.056.059-.089.03 0 .068.034.094.089a7.958 7.958 0 01.828 1.362 3.806 3.806 0 01.564 1.9 5.355 5.355 0 01-.709 2.412c-.478 1.02-.879 1.826-1.23 2.416-.034.064-.068.081-.1.081-.017 0-.034-.038-.034-.124.144-.448.418-1.127.81-2.036a7.881 7.881 0 00.871-2.634 4.384 4.384 0 00-.282-1.4c-.034-.072-.072-.15-.094-.2l-1.6 2a.314.314 0 01-.153.077c-.078 0-.119-.03-.119-.077a.36.36 0 01.145-.222l1.55-2.16c-.073-.166-.133-.328-.2-.461m1.217-.5c.2-.214.4-.415.606-.61.017-.017.03-.039.043-.039.111 0 .171.06.171.18 0 .021-.008.038-.03.038a6.61 6.61 0 01-.7.717.086.086 0 01-.059.038 6.847 6.847 0 001.378 3.56c0 .094-.034.129-.1.129a2.8 2.8 0 01-1.118-1.528 7.331 7.331 0 01-.419-2.484c0-.235.035-.342.1-.342s.128.081.128.239z" fill="#89898a"/><path d="M13.474 2.933c.016.819.026 1.793.026 2.928a10.721 10.721 0 01-.5 4.149c-.064.055-.1.085-.132.085s-.043-.013-.043-.047a18.39 18.39 0 00.3-4.187c0-2.689.008-4.491.017-5.426 0-.141.029-.222.081-.222s.107.056.136.179v.09a6.843 6.843 0 01.726-.047 6.065 6.065 0 01.687.047l.017-.047c.021-.115.047-.175.086-.175s.051.052.077.132c.089 1.128.145 2.729.145 4.794 0 2.677-.038 4.209-.1 4.576-.025.108-.059.162-.094.162s-.051-.068-.077-.213c-.077-.589-.11-2.092-.11-4.525 0-.854.008-1.6.008-2.253zm1.28-1.478c0-.23.009-.435.009-.639a2.981 2.981 0 00-.7-.081c-.222 0-.453.013-.674.034.013.205.026.431.035.687zm-.026 1.14c0-.277.009-.564.017-.849h-1.3c0 .286.008.572.016.849zM17.486.734a.492.492 0 01-.064.081 21.041 21.041 0 01-1.968 1.917.4.4 0 01-.145.081.114.114 0 01-.129-.129.228.228 0 01.077-.171c.615-.6 1.238-1.191 1.861-1.78h-1.753c-.141 0-.205-.056-.205-.162 0-.089.089-.15.277-.18h3.5c.171.03.252.09.252.18 0 .107-.073.162-.205.162zm-.508 2.079l-1.387 1.69a.235.235 0 01-.154.081c-.077 0-.12-.017-.12-.081a.377.377 0 01.145-.223l1.34-1.856a5.2 5.2 0 00-.23-.546c0-.03.016-.056.059-.089.03 0 .068.034.094.089a7.958 7.958 0 01.828 1.362 3.806 3.806 0 01.564 1.9 5.355 5.355 0 01-.709 2.412c-.478 1.02-.879 1.826-1.23 2.416-.034.064-.068.081-.1.081-.017 0-.034-.038-.034-.124.144-.448.418-1.127.81-2.036a7.881 7.881 0 00.871-2.634 4.384 4.384 0 00-.282-1.4c-.034-.072-.072-.15-.094-.2l-1.6 2a.314.314 0 01-.153.077c-.078 0-.119-.03-.119-.077a.36.36 0 01.145-.222l1.55-2.16c-.07-.162-.13-.327-.194-.462zm1.217-.5c.2-.214.4-.415.606-.61.017-.017.03-.039.043-.039.111 0 .171.06.171.18 0 .021-.008.038-.03.038a6.61 6.61 0 01-.7.717.086.086 0 01-.059.038 6.847 6.847 0 001.378 3.56c0 .094-.034.129-.1.129a2.8 2.8 0 01-1.118-1.528 7.331 7.331 0 01-.419-2.484c0-.235.035-.342.1-.342s.128.081.128.239z" fill="none" stroke="#89898a" stroke-linecap="round" stroke-linejoin="round" stroke-width=".359"/><path d="M27.578 8.405a6.471 6.471 0 01-1.388.841 3.877 3.877 0 01-1.622.5 1.417 1.417 0 01-.913-.231 1.266 1.266 0 01-.3-.965c0-.332.1-1.3.294-2.876a31.3 31.3 0 00.3-3.189A2.628 2.628 0 0023.42.692a.156.156 0 01-.077-.124c0-.085.06-.094.183-.026a1.707 1.707 0 01.691.9 4.452 4.452 0 01.154 1.3q0 .627-.269 2.919a28.26 28.26 0 00-.282 3.073.605.605 0 00.205.47.69.69 0 00.507.205 8.737 8.737 0 002.971-1.128c.056-.008.089-.026.107-.026.094 0 .086.056-.034.145" fill="#89898a"/><path d="M27.578 8.405a6.471 6.471 0 01-1.388.841 3.877 3.877 0 01-1.622.5 1.417 1.417 0 01-.913-.231 1.266 1.266 0 01-.3-.965c0-.332.1-1.3.294-2.876a31.3 31.3 0 00.3-3.189A2.628 2.628 0 0023.42.692a.156.156 0 01-.077-.124c0-.085.06-.094.183-.026a1.707 1.707 0 01.691.9 4.452 4.452 0 01.154 1.3q0 .627-.269 2.919a28.26 28.26 0 00-.282 3.073.605.605 0 00.205.47.69.69 0 00.507.205 8.737 8.737 0 002.971-1.128c.056-.008.089-.026.107-.026.095.005.087.061-.032.15z" fill="none" stroke="#89898a" stroke-linecap="round" stroke-linejoin="round" stroke-width=".359"/><path d="M34.844 10.321c-.051 0-.094-.043-.141-.154a9.7 9.7 0 00-1.993-2.672 5.932 5.932 0 01-1.1-1.3 4.672 4.672 0 01-.411-1.895h-.512c-.158 0-.248-.051-.248-.153s.09-.171.248-.171c.089 0 .252-.008.47-.008-.014-.059-.038-.179-.09-.359a2.214 2.214 0 01-.077-.338.043.043 0 01.047-.047c.072 0 .153.068.243.188a1.5 1.5 0 01.256.555l1.246-.017c-.051-.15-.11-.3-.179-.452-.051-.137-.035-.2.077-.2a.249.249 0 01.158.094 1.783 1.783 0 01.338.563l.918-.008a.906.906 0 00.247-.034c.108-.017.162-.035.2-.035.081 0 .124.06.124.167a.814.814 0 01-.073.3 2.476 2.476 0 01-.759.9.278.278 0 01-.154.073c-.034 0-.051 0-.051-.03a.251.251 0 01.1-.179c.166-.213.268-.368.311-.435a.981.981 0 00.171-.4 1.267 1.267 0 01-.145.008h-.286c-.022 0-.76.008-2.211.008a3.866 3.866 0 001.106 2.621 7.447 7.447 0 012.168 3.236c.026.111.026.162 0 .18" fill="#89898a"/><path d="M34.844 10.321c-.051 0-.094-.043-.141-.154a9.7 9.7 0 00-1.993-2.672 5.932 5.932 0 01-1.1-1.3 4.672 4.672 0 01-.411-1.895h-.512c-.158 0-.248-.051-.248-.153s.09-.171.248-.171c.089 0 .252-.008.47-.008-.014-.059-.038-.179-.09-.359a2.214 2.214 0 01-.077-.338.043.043 0 01.047-.047c.072 0 .153.068.243.188a1.5 1.5 0 01.256.555l1.246-.017c-.051-.15-.11-.3-.179-.452-.051-.137-.035-.2.077-.2a.249.249 0 01.158.094 1.783 1.783 0 01.338.563l.918-.008a.906.906 0 00.247-.034c.108-.017.162-.035.2-.035.081 0 .124.06.124.167a.814.814 0 01-.073.3 2.476 2.476 0 01-.759.9.278.278 0 01-.154.073c-.034 0-.051 0-.051-.03a.251.251 0 01.1-.179c.166-.213.268-.368.311-.435a.981.981 0 00.171-.4 1.267 1.267 0 01-.145.008h-.286c-.022 0-.76.008-2.211.008a3.866 3.866 0 001.106 2.621 7.447 7.447 0 012.168 3.236c.027.102.027.153.002.174z" fill="none" stroke="#89898a" stroke-linecap="round" stroke-linejoin="round" stroke-width=".359"/><path d="M39.24 4.742c-.24.871-.53 1.981-.863 3.305-.034.136-.11.209-.222.209-.137 0-.2-.09-.158-.286a13.8 13.8 0 011.045-3.33c.056-.1.111-.153.179-.153.026 0 .047.034.047.1a.65.65 0 01-.029.153m3.295.684a6.692 6.692 0 01-2.023 4.217c-.068.089-.119.136-.15.136s-.056-.021-.056-.051a.451.451 0 01.077-.2c.6-1.033.948-1.664 1.05-1.886a5.691 5.691 0 00.619-2.417 3.292 3.292 0 00-.994-2.322c-.252-.274-.376-.465-.376-.564a3.206 3.206 0 01.286-.64 5.469 5.469 0 00.3-.6c0-.026-.06-.051-.175-.051h-1.66c-.188 0-.282-.064-.282-.18 0-.137.094-.2.282-.2h1.912c.333 0 .5.059.5.188a.986.986 0 01-.217.418c-.141.213-.265.41-.393.607a1.358 1.358 0 00-.213.452 1.953 1.953 0 00.393.461 4.45 4.45 0 01.743.982 3.534 3.534 0 01.376 1.639m.755-3.535a.1.1 0 01-.111.111c-.051 0-.175-.108-.38-.317-.064-.051-.154-.158-.282-.282-.068-.077-.043-.12.077-.12a.786.786 0 01.452.261c.162.132.244.244.244.346m.473-.389c0 .073-.026.107-.085.107s-.193-.094-.358-.269a4.2 4.2 0 01-.411-.371c-.042-.085-.008-.14.086-.14.137 0 .359.15.661.431a.351.351 0 01.107.244m.546 6.314c.017.231-.038.341-.179.341-.12 0-.2-.094-.231-.282a28.03 28.03 0 00-.47-3.15c-.034-.154 0-.222.094-.222.068 0 .111.042.145.136a14.3 14.3 0 01.41 1.717q.172.935.23 1.46" fill="#89898a"/><path d="M39.24 4.742c-.24.871-.53 1.981-.863 3.305-.034.136-.11.209-.222.209-.137 0-.2-.09-.158-.286a13.8 13.8 0 011.045-3.33c.056-.1.111-.153.179-.153.026 0 .047.034.047.1a.65.65 0 01-.028.155zm3.295.684a6.692 6.692 0 01-2.023 4.217c-.068.089-.119.136-.15.136s-.056-.021-.056-.051a.451.451 0 01.077-.2c.6-1.033.948-1.664 1.05-1.886a5.691 5.691 0 00.619-2.417 3.292 3.292 0 00-.994-2.322c-.252-.274-.376-.465-.376-.564a3.206 3.206 0 01.286-.64 5.469 5.469 0 00.3-.6c0-.026-.06-.051-.175-.051h-1.66c-.188 0-.282-.064-.282-.18 0-.137.094-.2.282-.2h1.912c.333 0 .5.059.5.188a.986.986 0 01-.217.418c-.141.213-.265.41-.393.607a1.358 1.358 0 00-.213.452 1.953 1.953 0 00.393.461 4.45 4.45 0 01.743.982 3.534 3.534 0 01.373 1.65zm.755-3.535a.1.1 0 01-.111.111c-.051 0-.175-.108-.38-.317-.064-.051-.154-.158-.282-.282-.068-.077-.043-.12.077-.12a.786.786 0 01.452.261c.164.134.245.245.245.347zm.473-.389c0 .073-.026.107-.085.107s-.193-.094-.358-.269a4.2 4.2 0 01-.411-.371c-.042-.085-.008-.14.086-.14.137 0 .359.15.661.431a.351.351 0 01.108.243zm.546 6.314c.017.231-.038.341-.179.341-.12 0-.2-.094-.231-.282a28.03 28.03 0 00-.47-3.15c-.034-.154 0-.222.094-.222.068 0 .111.042.145.136a14.3 14.3 0 01.41 1.717q.175.935.233 1.46z" fill="none" stroke="#89898a" stroke-linecap="round" stroke-linejoin="round" stroke-width=".359"/><path d="M51.644 8.405a6.515 6.515 0 01-1.383.841 3.907 3.907 0 01-1.627.5 1.418 1.418 0 01-.913-.231 1.266 1.266 0 01-.3-.965c0-.332.1-1.3.295-2.876a30.654 30.654 0 00.294-3.189 2.633 2.633 0 00-.52-1.793.154.154 0 01-.077-.124c0-.085.059-.094.179-.026a1.718 1.718 0 01.7.9 4.489 4.489 0 01.153 1.3q0 .627-.269 2.919a28.832 28.832 0 00-.286 3.073.637.637 0 00.2.47.7.7 0 00.513.205 8.726 8.726 0 002.967-1.128c.051-.008.094-.026.111-.026.093 0 .081.056-.035.145" fill="#89898a"/><path d="M51.644 8.405a6.515 6.515 0 01-1.383.841 3.907 3.907 0 01-1.627.5 1.418 1.418 0 01-.913-.231 1.266 1.266 0 01-.3-.965c0-.332.1-1.3.295-2.876a30.654 30.654 0 00.294-3.189 2.633 2.633 0 00-.52-1.793.154.154 0 01-.077-.124c0-.085.059-.094.179-.026a1.718 1.718 0 01.7.9 4.489 4.489 0 01.153 1.3q0 .627-.269 2.919a28.832 28.832 0 00-.286 3.073.637.637 0 00.2.47.7.7 0 00.513.205 8.726 8.726 0 002.967-1.128c.051-.008.094-.026.111-.026.09.005.079.061-.037.15z" fill="none" stroke="#89898a" stroke-linecap="round" stroke-linejoin="round" stroke-width=".359"/><path d="M58.909 10.321c-.051 0-.094-.043-.141-.154a9.81 9.81 0 00-1.993-2.672 5.584 5.584 0 01-1.094-1.3 4.682 4.682 0 01-.413-1.895h-.513c-.166 0-.247-.051-.247-.153s.081-.171.247-.171c.1 0 .252-.008.466-.008a2.455 2.455 0 00-.086-.359 2 2 0 01-.073-.338c0-.029.017-.047.038-.047.078 0 .154.068.256.188a1.435 1.435 0 01.244.555l1.251-.017c-.051-.15-.115-.3-.175-.452-.056-.137-.038-.2.072-.2a.252.252 0 01.159.094 1.569 1.569 0 01.332.563l.922-.008a.986.986 0 00.253-.034c.1-.017.161-.035.2-.035.082 0 .124.06.124.167a.81.81 0 01-.072.3 2.477 2.477 0 01-.76.9.276.276 0 01-.153.073c-.035 0-.052 0-.052-.03a.251.251 0 01.1-.179c.166-.213.269-.368.312-.435a1.007 1.007 0 00.171-.4 1.359 1.359 0 01-.154.008h-.289c-.021 0-.76.008-2.211.008a3.88 3.88 0 001.1 2.621 7.42 7.42 0 012.172 3.236c.026.111.026.162 0 .18" fill="#89898a"/><path d="M58.909 10.321c-.051 0-.094-.043-.141-.154a9.81 9.81 0 00-1.993-2.672 5.584 5.584 0 01-1.094-1.3 4.682 4.682 0 01-.413-1.895h-.513c-.166 0-.247-.051-.247-.153s.081-.171.247-.171c.1 0 .252-.008.466-.008a2.455 2.455 0 00-.086-.359 2 2 0 01-.073-.338c0-.029.017-.047.038-.047.078 0 .154.068.256.188a1.435 1.435 0 01.244.555l1.251-.017c-.051-.15-.115-.3-.175-.452-.056-.137-.038-.2.072-.2a.252.252 0 01.159.094 1.569 1.569 0 01.332.563l.922-.008a.986.986 0 00.253-.034c.1-.017.161-.035.2-.035.082 0 .124.06.124.167a.81.81 0 01-.072.3 2.477 2.477 0 01-.76.9.276.276 0 01-.153.073c-.035 0-.052 0-.052-.03a.251.251 0 01.1-.179c.166-.213.269-.368.312-.435a1.007 1.007 0 00.171-.4 1.359 1.359 0 01-.154.008h-.289c-.021 0-.76.008-2.211.008a3.88 3.88 0 001.1 2.621 7.42 7.42 0 012.172 3.236c.032.102.032.153.007.174z" fill="none" stroke="#89898a" stroke-linecap="round" stroke-linejoin="round" stroke-width=".359"/><path d="M63.741 4.742c-.244.871-.537 1.981-.862 3.305-.038.136-.111.209-.218.209-.15 0-.2-.09-.166-.286a14.453 14.453 0 011.037-3.33c.064-.1.124-.153.187-.153.03 0 .047.034.047.1a.579.579 0 01-.026.153m3.295.684a6.681 6.681 0 01-2.027 4.217c-.073.089-.124.136-.15.136a.05.05 0 01-.056-.051.418.418 0 01.081-.2c.6-1.033.948-1.664 1.045-1.886a5.691 5.691 0 00.619-2.417 3.241 3.241 0 00-1-2.322c-.239-.274-.368-.465-.368-.564a3.068 3.068 0 01.283-.64 5.01 5.01 0 00.307-.6c0-.026-.059-.051-.179-.051h-1.657c-.188 0-.281-.064-.281-.18 0-.137.093-.2.281-.2h1.9c.333 0 .5.059.5.188a.986.986 0 01-.217.418c-.141.213-.265.41-.389.607a1.311 1.311 0 00-.218.452 1.825 1.825 0 00.393.461 4.626 4.626 0 01.747.982 3.591 3.591 0 01.375 1.639m.752-3.535a.1.1 0 01-.107.111c-.056 0-.18-.108-.38-.317a3.5 3.5 0 01-.281-.282c-.068-.077-.043-.12.077-.12a.765.765 0 01.448.261c.162.132.244.244.244.346m.473-.389c0 .073-.026.107-.08.107-.078 0-.2-.094-.359-.269a5.209 5.209 0 01-.419-.371c-.035-.085 0-.14.085-.14.146 0 .368.15.666.431a.333.333 0 01.107.244m.546 6.314c.017.231-.034.341-.175.341-.12 0-.2-.094-.226-.282a29.717 29.717 0 00-.478-3.15c-.029-.154 0-.222.1-.222.064 0 .111.042.145.136a14.566 14.566 0 01.4 1.717c.12.623.2 1.109.234 1.46" fill="#89898a"/><path d="M63.741 4.742c-.244.871-.537 1.981-.862 3.305-.038.136-.111.209-.218.209-.15 0-.2-.09-.166-.286a14.453 14.453 0 011.037-3.33c.064-.1.124-.153.187-.153.03 0 .047.034.047.1a.579.579 0 01-.025.155zm3.295.684a6.681 6.681 0 01-2.027 4.217c-.073.089-.124.136-.15.136a.05.05 0 01-.056-.051.418.418 0 01.081-.2c.6-1.033.948-1.664 1.045-1.886a5.691 5.691 0 00.619-2.417 3.241 3.241 0 00-1-2.322c-.239-.274-.368-.465-.368-.564a3.068 3.068 0 01.283-.64 5.01 5.01 0 00.307-.6c0-.026-.059-.051-.179-.051h-1.657c-.188 0-.281-.064-.281-.18 0-.137.093-.2.281-.2h1.9c.333 0 .5.059.5.188a.986.986 0 01-.217.418c-.141.213-.265.41-.389.607a1.311 1.311 0 00-.218.452 1.825 1.825 0 00.393.461 4.626 4.626 0 01.747.982 3.591 3.591 0 01.386 1.65zm.752-3.535a.1.1 0 01-.107.111c-.056 0-.18-.108-.38-.317a3.5 3.5 0 01-.281-.282c-.068-.077-.043-.12.077-.12a.765.765 0 01.448.261c.162.134.243.245.243.347zm.473-.389c0 .073-.026.107-.08.107-.078 0-.2-.094-.359-.269a5.209 5.209 0 01-.419-.371c-.035-.085 0-.14.085-.14.146 0 .368.15.666.431a.333.333 0 01.107.243zm.546 6.314c.017.231-.034.341-.175.341-.12 0-.2-.094-.226-.282a29.717 29.717 0 00-.478-3.15c-.029-.154 0-.222.1-.222.064 0 .111.042.145.136a14.566 14.566 0 01.4 1.717c.12.624.201 1.11.235 1.46z" fill="none" stroke="#89898a" stroke-linecap="round" stroke-linejoin="round" stroke-width=".359"/></svg>