<svg xmlns="http://www.w3.org/2000/svg" width="70" height="22"><g fill="#231815"><path d="M16.106 17.531a1.861 1.861 0 01.516.068 2.921 2.921 0 01.467.181l.127.059a.245.245 0 00.1.028c.067 0 .11-.039.131-.118a.056.056 0 01.04-.037.163.163 0 01.069-.009.169.169 0 01.06.015.032.032 0 01.019.038 1.272 1.272 0 00-.034.2 2.57 2.57 0 00-.01.218 2.386 2.386 0 00.025.348l.05.361a.046.046 0 01-.028.04.168.168 0 01-.069.019.189.189 0 01-.078-.009.058.058 0 01-.043-.043 1.5 1.5 0 00-.5-.825 1.411 1.411 0 00-.877-.264 1.219 1.219 0 00-.678.174 1.3 1.3 0 00-.426.451 1.935 1.935 0 00-.221.61 3.537 3.537 0 00-.062.65 3.331 3.331 0 00.074.7 2.046 2.046 0 00.243.628 1.4 1.4 0 00.438.458 1.175 1.175 0 00.657.177 2.429 2.429 0 00.534-.053.884.884 0 00.4-.2 1.361 1.361 0 00.317-.432 2.119 2.119 0 00.168-.57.064.064 0 01.04-.056.12.12 0 01.071 0 .179.179 0 01.069.034q.031.025.025.05c-.013.083-.02.165-.025.245s-.006.163-.006.246c0 .142.005.285.016.433s.02.3.028.464a.064.064 0 01-.025.056.109.109 0 01-.059.022.124.124 0 01-.066-.012.067.067 0 01-.037-.047.37.37 0 00-.043-.109.274.274 0 00-.082-.087.2.2 0 00-.118-.035.313.313 0 00-.143.044 2.618 2.618 0 01-.264.127 1.6 1.6 0 01-.258.084 1.954 1.954 0 01-.274.043c-.1.008-.2.013-.311.013a1.907 1.907 0 01-2.165-2.128 2.586 2.586 0 01.168-.967 2 2 0 01.463-.706 1.942 1.942 0 01.7-.432 2.616 2.616 0 01.887-.146m3.291 2.837a.21.21 0 00-.124.028.247.247 0 00-.068.1l-.28.734a.488.488 0 00-.031.143.212.212 0 00.041.134.276.276 0 00.109.084.759.759 0 00.155.05 1.244 1.244 0 00.181.025.064.064 0 01.062.035.147.147 0 010 .143.065.065 0 01-.062.034 2.682 2.682 0 01-.342-.025 2.923 2.923 0 00-.367-.025 1.919 1.919 0 00-.311.025 1.961 1.961 0 01-.324.025.063.063 0 01-.052-.031.143.143 0 01-.012-.14.07.07 0 01.059-.04l.093-.012a1.193 1.193 0 00.172-.047.415.415 0 00.143-.09.85.85 0 00.127-.165 1.714 1.714 0 00.125-.265l1.406-3.54c.012-.033.046-.05.1-.05a.185.185 0 01.137.05l.332.852.364.924q.186.47.373.933l.355.874a1.433 1.433 0 00.146.28.606.606 0 00.143.149.44.44 0 00.146.068c.049.013.1.025.162.037a.067.067 0 01.053.04.17.17 0 01.016.072.15.15 0 01-.016.069.05.05 0 01-.046.031 2.818 2.818 0 01-.383-.025 3.158 3.158 0 00-.415-.025 4.667 4.667 0 00-.491.025 4.066 4.066 0 01-.441.025.073.073 0 01-.065-.034.142.142 0 01-.022-.078.116.116 0 01.019-.065.086.086 0 01.063-.035.991.991 0 00.311-.075.207.207 0 00.1-.205.623.623 0 00-.01-.1 1.176 1.176 0 00-.04-.152c-.021-.065-.05-.147-.088-.249s-.087-.231-.149-.389a.166.166 0 00-.084-.1.483.483 0 00-.171-.022zm1.071-.242a.177.177 0 00.118-.028q.031-.027 0-.1l-.541-1.456a.049.049 0 00-.049-.031.05.05 0 00-.051.031l-.566 1.456q-.032.081-.006.106a.131.131 0 00.093.025zm5.264-2.468a.381.381 0 01.1.013c.031.008.043.041.034.1a3.222 3.222 0 00-.012.417q.006.236.019.436a.046.046 0 01-.029.04.162.162 0 01-.065.019.143.143 0 01-.071-.012.065.065 0 01-.041-.046 3.1 3.1 0 00-.087-.38.477.477 0 00-.121-.209.386.386 0 00-.212-.09 3.273 3.273 0 00-.352-.025h-.373q-.162 0-.259.006a.285.285 0 00-.152.047.2.2 0 00-.075.127 1.231 1.231 0 00-.018.243v1.089q0 .087.031.109a.113.113 0 00.063.022 3.216 3.216 0 00.451-.025.539.539 0 00.249-.09.312.312 0 00.112-.171 1.95 1.95 0 00.046-.274.078.078 0 01.037-.056.138.138 0 01.137 0 .062.062 0 01.031.056c0 .066 0 .125-.006.177s-.009.1-.012.156-.009.105-.013.161-.006.121-.006.2a2.742 2.742 0 00.019.339 3.174 3.174 0 01.019.37.049.049 0 01-.031.047.123.123 0 01-.068.013.192.192 0 01-.069-.019.068.068 0 01-.037-.053 2.176 2.176 0 00-.046-.292.286.286 0 00-.112-.171.566.566 0 00-.249-.081 3.72 3.72 0 00-.451-.022.113.113 0 00-.063.022.106.106 0 00-.031.09v1.046a1.347 1.347 0 00.034.339.381.381 0 00.119.2.476.476 0 00.22.1 3.09 3.09 0 00.343.047.065.065 0 01.062.035.15.15 0 01.019.078.116.116 0 01-.021.069.076.076 0 01-.065.031 5.651 5.651 0 01-.576-.025 4.559 4.559 0 00-.464-.025 4.39 4.39 0 00-.466.025 4.152 4.152 0 01-.449.025.061.061 0 01-.056-.031.15.15 0 01-.022-.069.128.128 0 01.015-.072.08.08 0 01.062-.04 1.792 1.792 0 00.286-.05.364.364 0 00.175-.1.368.368 0 00.084-.181 1.625 1.625 0 00.021-.3v-2.339q0-.137-.009-.268a1.215 1.215 0 00-.041-.242.517.517 0 00-.1-.193.329.329 0 00-.177-.112c-.045-.013-.094-.023-.143-.032s-.1-.014-.143-.019a.061.061 0 01-.056-.031.132.132 0 01-.019-.068.136.136 0 01.019-.069.061.061 0 01.056-.031c.141 0 .267 0 .379.012s.243.012.392.012zm3.478 0a.378.378 0 01.1.013c.032.008.042.041.034.1a.9.9 0 00-.012.156v.174c0 .187.006.361.019.523a.045.045 0 01-.028.04.162.162 0 01-.065.019.155.155 0 01-.072-.01.058.058 0 01-.04-.049 3.294 3.294 0 00-.087-.38.476.476 0 00-.122-.209.381.381 0 00-.211-.09 3.278 3.278 0 00-.352-.025H28c-.108 0-.194 0-.258.006a.287.287 0 00-.153.047.2.2 0 00-.074.127 1.206 1.206 0 00-.019.243v1.089c0 .058.01.095.031.109a.111.111 0 00.062.022 3.222 3.222 0 00.451-.025.533.533 0 00.249-.09.31.31 0 00.112-.171 1.977 1.977 0 00.047-.274.077.077 0 01.037-.056.13.13 0 01.069-.018.134.134 0 01.068.018.062.062 0 01.031.056c0 .066 0 .125-.007.177s-.008.1-.012.156-.009.105-.012.161-.007.121-.007.2a2.84 2.84 0 00.019.339 3.162 3.162 0 01.019.37.049.049 0 01-.031.047.123.123 0 01-.068.013.184.184 0 01-.069-.019.067.067 0 01-.037-.053 2.2 2.2 0 00-.047-.292.284.284 0 00-.112-.171.56.56 0 00-.249-.081 3.726 3.726 0 00-.451-.022.111.111 0 00-.062.022.1.1 0 00-.031.09v.816a1.716 1.716 0 00.028.339.678.678 0 00.083.231.455.455 0 00.137.143.556.556 0 00.193.078 1.63 1.63 0 00.2.028c.073.007.148.01.227.01.1 0 .193 0 .28-.013a.841.841 0 00.2-.037 1.39 1.39 0 00.215-.093.49.49 0 00.153-.13.688.688 0 00.1-.2 1.677 1.677 0 00.065-.308.062.062 0 01.044-.05.257.257 0 01.081-.012.16.16 0 01.078.019.044.044 0 01.028.05l-.056.488a3.463 3.463 0 00-.019.464.1.1 0 01-.025.053c-.017.023-.056.034-.118.034h-2.259q-.237 0-.464.013l-.408.025a.1.1 0 01-.075-.028.132.132 0 01-.031-.068.1.1 0 01.018-.075.11.11 0 01.081-.04 1.4 1.4 0 00.255-.052.456.456 0 00.175-.1.412.412 0 00.1-.165.791.791 0 00.034-.255v-2.4c0-.091 0-.181-.01-.268a1.234 1.234 0 00-.04-.242.531.531 0 00-.1-.193.336.336 0 00-.177-.112c-.046-.013-.093-.023-.143-.032s-.1-.014-.144-.019a.06.06 0 01-.055-.031.128.128 0 01-.019-.068.131.131 0 01.019-.069.06.06 0 01.055-.031q.212 0 .38.012c.112.009.243.012.393.012zm3.857 2.107q.242.256.485.5t.5.5q.223-.286.4-.5a3.92 3.92 0 01.327-.361 1.328 1.328 0 01.292-.221.63.63 0 01.3-.075.412.412 0 01.289.094.291.291 0 01.1.223.323.323 0 01-.062.193.273.273 0 01-.236.087.215.215 0 01-.171-.05.145.145 0 01-.041-.087.387.387 0 00-.009-.072c-.006-.031-.043-.047-.109-.047a.254.254 0 00-.136.043.877.877 0 00-.165.153c-.064.072-.146.171-.245.3s-.224.282-.373.473l.211.2c.079.072.161.141.246.205a1.782 1.782 0 00.255.162.534.534 0 00.239.065.449.449 0 00.324-.1.565.565 0 00.149-.283.064.064 0 01.038-.041.1.1 0 01.062-.009.144.144 0 01.056.025.052.052 0 01.018.056.86.86 0 01-.074.281.954.954 0 01-.165.248.8.8 0 01-.242.18.707.707 0 01-.315.069 1.175 1.175 0 01-.348-.05 1.55 1.55 0 01-.3-.13 1.866 1.866 0 01-.274-.19 3.585 3.585 0 01-.249-.227.03.03 0 00-.043 0 1.9 1.9 0 01-.557.451 1.4 1.4 0 01-.638.146 1.438 1.438 0 01-.414-.059 1.109 1.109 0 01-.345-.171.8.8 0 01-.236-.284.858.858 0 01-.087-.395 1.183 1.183 0 01.072-.432.983.983 0 01.2-.321 1.408 1.408 0 01.295-.24c.112-.068.233-.134.361-.2-.066-.071-.13-.14-.192-.209a1.626 1.626 0 01-.168-.221 1.038 1.038 0 01-.162-.585.856.856 0 01.062-.314.876.876 0 01.19-.29.943.943 0 01.33-.211 1.3 1.3 0 01.482-.081 1.394 1.394 0 01.355.047 1.039 1.039 0 01.323.143.749.749 0 01.233.256.762.762 0 01.09.382.64.64 0 01-.09.336 1.127 1.127 0 01-.227.267 1.784 1.784 0 01-.3.209c-.108.06-.209.113-.3.158m.579 1.413l-.532-.566q-.259-.273-.52-.566a1.033 1.033 0 00-.308.4 1.141 1.141 0 00-.091.442.749.749 0 00.146.483.564.564 0 00.47.183 1.274 1.274 0 00.454-.09 1.186 1.186 0 00.385-.227c.017-.017.014-.035-.006-.056m-.716-1.593a1.081 1.081 0 00.414-.311.755.755 0 00.128-.455.781.781 0 00-.043-.267.621.621 0 00-.116-.2.493.493 0 00-.158-.121.415.415 0 00-.175-.04.634.634 0 00-.271.049.441.441 0 00-.161.128.449.449 0 00-.081.18 1.012 1.012 0 00-.022.208.564.564 0 00.05.231 1.575 1.575 0 00.122.221 1.7 1.7 0 00.155.2l.159.174m8.664 1.759c0 .033-.01.054-.031.062q-.162.117-.311.214a1.526 1.526 0 01-.339.162 2.354 2.354 0 01-.442.1 4.624 4.624 0 01-.607.034 2.6 2.6 0 01-.906-.146 1.741 1.741 0 01-.663-.424 1.818 1.818 0 01-.408-.681 2.825 2.825 0 01-.14-.921 2.525 2.525 0 01.165-.943 1.931 1.931 0 01.457-.693 1.962 1.962 0 01.694-.426 2.54 2.54 0 01.875-.146 1.981 1.981 0 01.569.081 3.351 3.351 0 01.5.193.8.8 0 00.218.075c.058.008.1-.029.13-.112a.058.058 0 01.041-.044.161.161 0 01.068-.009.136.136 0 01.06.019.035.035 0 01.019.04 1.84 1.84 0 00-.041.529q.015.293.047.6a.072.072 0 01-.031.056.147.147 0 01-.069.031.133.133 0 01-.074-.009.067.067 0 01-.044-.053 1.249 1.249 0 00-.463-.831 1.533 1.533 0 00-.961-.289 1.123 1.123 0 00-.619.165 1.365 1.365 0 00-.423.426 1.931 1.931 0 00-.243.591 2.859 2.859 0 00-.077.653 3.493 3.493 0 00.09.824 1.965 1.965 0 00.268.634 1.262 1.262 0 00.432.408 1.189 1.189 0 00.591.143 2.552 2.552 0 00.442-.035.921.921 0 00.339-.121.59.59 0 00.218-.24.849.849 0 00.078-.389 1.321 1.321 0 00-.025-.293.286.286 0 00-.093-.162.406.406 0 00-.187-.078 3.913 3.913 0 00-.305-.04.068.068 0 01-.062-.031.124.124 0 01-.019-.062.134.134 0 01.015-.065.057.057 0 01.053-.028q.218 0 .451.016c.155.01.293.015.413.015.058 0 .113 0 .166-.006s.105-.007.161-.009l.18-.009c.064 0 .138-.006.221-.006a.051.051 0 01.047.028.137.137 0 01.015.065.109.109 0 01-.018.059.08.08 0 01-.056.035.74.74 0 00-.211.043.219.219 0 00-.109.087.307.307 0 00-.041.14c0 .056-.006.123-.006.2zm1.419-2.639c0-.091 0-.18-.009-.268a1.186 1.186 0 00-.041-.242.527.527 0 00-.1-.193.339.339 0 00-.178-.112q-.068-.018-.143-.031c-.05-.008-.1-.014-.143-.019a.06.06 0 01-.056-.031.128.128 0 01-.019-.068.124.124 0 01.019-.069.06.06 0 01.056-.032c.141 0 .268 0 .38.013s.243.012.392.012c.249 0 .455-.009.619-.015s.32-.01.469-.01a2.071 2.071 0 01.491.059 1.3 1.3 0 01.433.19.989.989 0 01.3.343 1.056 1.056 0 01.115.51 1.075 1.075 0 01-.071.411.892.892 0 01-.2.3.994.994 0 01-.3.2 1.871 1.871 0 01-.371.121c-.029.008-.043.023-.043.044s.015.033.043.049a1.488 1.488 0 01.452.318 1.376 1.376 0 01.242.36 1.708 1.708 0 01.122.383c.025.131.052.258.081.383a.383.383 0 00.1.208.215.215 0 00.146.066.21.21 0 00.143-.062.409.409 0 00.106-.187.088.088 0 01.05-.065.111.111 0 01.072-.006.139.139 0 01.062.038.061.061 0 01.021.059.65.65 0 01-.086.268.64.64 0 01-.165.184.668.668 0 01-.218.106.882.882 0 01-.239.034.747.747 0 01-.361-.088.441.441 0 01-.218-.249c-.024-.071-.048-.147-.071-.23s-.045-.167-.066-.252l-.062-.249-.056-.215a1.286 1.286 0 00-.29-.572.673.673 0 00-.494-.174.352.352 0 00-.18.043.185.185 0 00-.075.174v.84a1.083 1.083 0 00.043.339.427.427 0 00.131.2.526.526 0 00.215.1 1.839 1.839 0 00.295.043.069.069 0 01.06.035.145.145 0 01.021.078.121.121 0 01-.021.069.077.077 0 01-.066.031 5.256 5.256 0 01-.547-.025 4.481 4.481 0 00-.461-.025 4.4 4.4 0 00-.467.025 4.138 4.138 0 01-.448.025.061.061 0 01-.056-.031.153.153 0 01-.021-.069.117.117 0 01.016-.072.078.078 0 01.062-.04 1.81 1.81 0 00.286-.05.329.329 0 00.258-.28 1.67 1.67 0 00.021-.3zm.678.74c0 .108.031.172.09.19a.961.961 0 00.271.028 1.536 1.536 0 00.408-.046.559.559 0 00.265-.156.616.616 0 00.14-.28 1.863 1.863 0 00.041-.42 1.583 1.583 0 00-.044-.4.61.61 0 00-.14-.267.54.54 0 00-.252-.146 1.427 1.427 0 00-.379-.044.559.559 0 00-.32.062.318.318 0 00-.078.255zm3.478-.852a2.127 2.127 0 00-.022-.33.524.524 0 00-.084-.224.391.391 0 00-.178-.134 1.023 1.023 0 00-.307-.059.06.06 0 01-.056-.034.147.147 0 01-.019-.071.127.127 0 01.019-.069.061.061 0 01.056-.032c.132 0 .284.006.454.019s.33.019.479.019c.088 0 .169 0 .246-.006l.224-.013.221-.012c.075 0 .155-.006.243-.006a.054.054 0 01.053.032.135.135 0 01.013.069.19.19 0 01-.022.071.056.056 0 01-.05.034 1.276 1.276 0 00-.311.052.369.369 0 00-.18.125.472.472 0 00-.081.221 2.624 2.624 0 00-.019.349v2.439a1.6 1.6 0 00.025.32.328.328 0 00.09.177.388.388 0 00.184.09 2.308 2.308 0 00.3.047.086.086 0 01.06.04.134.134 0 01.021.072.119.119 0 01-.021.069.076.076 0 01-.065.031 4.335 4.335 0 01-.476-.025 4.224 4.224 0 00-.451-.025q-.237 0-.489.025t-.457.025a.063.063 0 01-.057-.031.133.133 0 01-.018-.069.15.15 0 01.018-.072.078.078 0 01.057-.04 2.23 2.23 0 00.308-.047.386.386 0 00.18-.09.314.314 0 00.087-.177 1.8 1.8 0 00.022-.32zm2.359 0a2.094 2.094 0 00-.022-.33.527.527 0 00-.083-.224.393.393 0 00-.177-.134 1.031 1.031 0 00-.309-.059.06.06 0 01-.055-.034.147.147 0 01-.019-.071.127.127 0 01.019-.069.06.06 0 01.055-.032c.133 0 .285.006.455.019s.33.019.479.019c.086 0 .169 0 .246-.006l.224-.013.221-.012q.111-.006.243-.006a.054.054 0 01.053.032.13.13 0 01.012.069.177.177 0 01-.022.071.056.056 0 01-.05.034 1.274 1.274 0 00-.311.052.366.366 0 00-.18.125.472.472 0 00-.081.221 2.624 2.624 0 00-.019.349v2.165a2.42 2.42 0 00.019.333.637.637 0 00.068.224.352.352 0 00.137.14.96.96 0 00.218.087 1.557 1.557 0 00.2.028c.073.007.149.01.227.01q.149 0 .28-.013a.834.834 0 00.2-.037 1.428 1.428 0 00.215-.093.486.486 0 00.152-.13.684.684 0 00.1-.2 1.773 1.773 0 00.066-.308.059.059 0 01.043-.05.255.255 0 01.081-.012.164.164 0 01.078.019.045.045 0 01.028.05l-.057.488a3.464 3.464 0 00-.019.464.106.106 0 01-.025.053c-.017.023-.056.034-.117.034h-2.259q-.242 0-.467.016l-.442.028a.075.075 0 01-.065-.032.117.117 0 01-.022-.068.131.131 0 01.022-.071.089.089 0 01.065-.041 3.009 3.009 0 00.312-.053.382.382 0 00.18-.087.312.312 0 00.083-.174 1.774 1.774 0 00.022-.32v-2.445zm3.788 0a2.127 2.127 0 00-.022-.33.527.527 0 00-.083-.224.4.4 0 00-.177-.134 1.033 1.033 0 00-.308-.059.06.06 0 01-.056-.034.146.146 0 01-.019-.071.126.126 0 01.019-.069.061.061 0 01.056-.032q.2 0 .454.019c.17.013.33.019.479.019.087 0 .169 0 .246-.006l.224-.013.221-.012c.075 0 .156-.006.242-.006a.055.055 0 01.053.032.123.123 0 01.012.069.184.184 0 01-.021.071.056.056 0 01-.05.034 1.272 1.272 0 00-.311.052.368.368 0 00-.18.125.48.48 0 00-.081.221 2.8 2.8 0 00-.019.349v2.165a2.586 2.586 0 00.019.333.642.642 0 00.069.224.354.354 0 00.137.14.951.951 0 00.217.087 1.581 1.581 0 00.2.028c.073.007.148.01.227.01.1 0 .193 0 .281-.013a.831.831 0 00.2-.037 1.432 1.432 0 00.215-.093.49.49 0 00.153-.13.709.709 0 00.1-.2 1.8 1.8 0 00.065-.308.06.06 0 01.044-.05.251.251 0 01.08-.012.163.163 0 01.078.019.045.045 0 01.028.05c-.021.174-.04.337-.056.488a3.463 3.463 0 00-.019.464.106.106 0 01-.025.053c-.017.023-.056.034-.118.034h-2.259c-.161 0-.317.005-.466.016s-.3.02-.442.028a.073.073 0 01-.065-.032.113.113 0 01-.022-.068.126.126 0 01.022-.071.087.087 0 01.065-.041 3 3 0 00.311-.053.38.38 0 00.181-.087.312.312 0 00.083-.174 1.8 1.8 0 00.022-.32v-2.445zM6.277 0l.046.046L6.644 0h.183l.183.046L7.193 0h.046a4.817 4.817 0 011.925.641 2.306 2.306 0 01.458.917 1.759 1.759 0 01-1.375.687l-.458.138-.046-.046-1.283.137v-.046a3.623 3.623 0 00-1.191.229 1.37 1.37 0 01-.229.55 5.036 5.036 0 00.458 1.741 4.443 4.443 0 00.275 1.192l-.045.138A31.465 31.465 0 006.919 9.99l-.138.092-.045-.046H6.69l-.092.092-.229-.183h-.046c.077 0 .069.24.115 1.584h-.046l.279 1.175v.046l-.092.092h-.046l-.045-.046h-.046l-.092.092-.646-.808a1.719 1.719 0 01-.551 1.008h-.046l-.183-.183.091-.733c-.062 0-.206-.347-.573-1.905l.046-.046v-.046a6.647 6.647 0 01-.367-2.016L3.8 6.876l.046-.046-.046-.229v-.092l.229-1.512-.045-.046.137-1.6q-.218-.733-.413-.734l-.045.046h-.046L1.05 2.251l-.321-.092-.183.046a.735.735 0 01-.321-.5v-.046l.091-.091h.138l.687.412.138-.184-.183-.825V.879l.092-.137a6.919 6.919 0 011.558.458v.046l.138-.046.687.229.046-.046h.046l.229.137.367-.183V1.2q.217-.825.825-.825A4.587 4.587 0 006.276.008M4.489 6.47l-.046.458v.275l.046.229h-.046a3.352 3.352 0 00.366 1.1l.366.87.138-.137-.5-2.2zm.092-1.925l-.092 1.1a2.9 2.9 0 01.55.825 7.462 7.462 0 00-.413-1.925zM6.139.833v.046q.5.068.5.138l.045-.046h.413l.321-.046q0-.091-.321-.183zm2.063.779v.046h.092a.912.912 0 00.733-.229c-.061-.138-.122-.214-.183-.229h-.046a1.943 1.943 0 01-.6.412m10.108 4.951l-.832.088a.93.93 0 00-.09-.378l.017-.017-.015-.047a3.92 3.92 0 00-.412-.969c-.094-.761-.184-.95-.243-1.026l-.024-.031h-.039a.673.673 0 01-.486-.334l-.024-.032h-.309l-.185.247.1.333a.375.375 0 01-.127.066l-.063.024.223 1.117h-.035l.1 1.225v.115a12.853 12.853 0 01-2.882.53l-.029-.141v-.076l.048-.241-.092-1.045a2.112 2.112 0 00.091-.747v-.092a.834.834 0 00-.349-.61l-.022-.019h-.03a.716.716 0 01-.444-.128l-.023-.025h-.153l-.236.177v.039a7.948 7.948 0 00.183 1.375v.013l-.052.051.235 1.311v.262l-.027.082c-2.428.539-2.632.775-2.632.955v.216l.287.287.266-.089.226.316.052-.012a13.327 13.327 0 001.788-.5h.194l.006.025h-.034l.1.784-.042.042v.112l.036.036-.036.036-.016 1.328c.073 1.015.326 1.672.646 1.672h.125l.184-.184v-.575l.049-.489-.019-.025a.664.664 0 01-.167-.365v-.077l.048-.285-.183-1.74.079-.355a3.453 3.453 0 00.934-.353 2.406 2.406 0 00.753-.177l.278.047.2-.121.024.025h.045v.017l.494-.1.053.107-.043.309.046 2.024c.124 1.094.237 1.437.342 1.541l-.03.03.01.044c.023.09.1.2.352.2h.092a.149.149 0 00.141-.091 1.016 1.016 0 00.363.4l.021.015h.1l.237-.177v-.1l-.008-.016a6.519 6.519 0 01-.817-2.611l.048-.335-.131-.613.039-.039v-.178l-.042-.419a.651.651 0 01.319-.08l.042.042v.945l.037.187-.043.043.092.825-.048.048.007.041c.113.646.35 1.114.564 1.114h.066l.018-.009a.534.534 0 00.268-.321l.006-.021-.276-1.1.041-.164v-.877l-.04-.04.124-.741.558-.233v-.052a.518.518 0 00-.184-.425l.047-.047a.46.46 0 00.456-.38l.01-.039zm-5.912 1.752l-.984.218v-.2l.047-.021a2.629 2.629 0 01.8-.19h.133zm3.541-.705a21.5 21.5 0 01-2.383.412v-.046q.459-.114.458-.228l.046.046.963-.183.046.045h.137l.046-.045v.045l.687-.137zm1.056-.713l-.308.058h-.236v-.084c.035-.631.127-.9.308-.9h.064l.167.767z"/><path d="M22.121 1.294l.321.046.046-.046h.046l.137.092.046-.046.825.092.275-.092.5.092.183-.046h.092v.046l.55-.092.184.046.045-.046h.046l.138.046.183-.046.5.138.229-.092v.046l.046-.046h.091q.458 0 .458.5-.642 1.008-1.238 1.008a.939.939 0 01-.6.229h-.046l-.046-.046h-.046q0 .1-.779.229a3.579 3.579 0 01-1.009.138h-.137l-.046-.046-.046.046h-.366l-.138-.138.045-.046v-.046l-.045-.138h-.321l-.939.183v.6l-.046.183.046.183-.046.184.046.046v.046l-.046.046.046.229-.046.183.046.046v.046l-.046.046v.046l.046.046-.046.321v.092l.046.275-.046.046.046.32v.275l-.046.045.046.046v.046l.046 1.008-.046.137.046.046a4.264 4.264 0 011.031-.229h.102l.413.046.5-.138.229.046.275-.046.275.092.092-.092h.092v.046q.825-.058.825-.138l.229.046h.321l.229-.046c0 .061.046.092.137.092l.5-.046a.892.892 0 01.184.641c0 .084-.077.16-.229.229l-.275-.092-1.054.092-.183-.046-.871.092v-.046l-.046.046h-.229l-.046-.046-.046.046h-.275l-.183-.046-.046.046-.274-.046-.367.046-.275-.046a2.75 2.75 0 01-.916.183c-.215.068-.2.13-.2.183l-.046 1.192q.252 1.787.6 1.787v.137l.293-.046.137.046.046-.046h.046l.733.137h.046q0-.183.6-.183h.092l.046.046a1.6 1.6 0 01.641-.137l.046.046a12.76 12.76 0 002.521-.55l.138.183v.275q0 .321-2.612 1.008 0 .058-.642.183v-.046l-.917.137a11.121 11.121 0 01-2.246-.6q-.916 0-.917-.458h.046l-.046-.046v-.046c.061-.137.123-.213.184-.229l.274.092h.23v-.092h.046a2.142 2.142 0 01-.138-.87l.046-.367-.046-.046.092-.871q-.081-.413-.184-.412a1.1 1.1 0 00-.733.458.792.792 0 01-.458-.275l-.183.183c-.153 0-.244-.046-.275-.137v-.229h-.138l-.229.183h-.046c-.046 0-.091-.107-.137-.321l.642-.412 1.512-.412-.229-1.971h.046a4.748 4.748 0 01-.091-1.191V3.486c0-.061-.046-.092-.137-.092a2.589 2.589 0 00-.734.412h-.091c-.076 0-.123-.076-.138-.229h-.045l-.229.046-.046-.046v-.275l.092-.091.046.046h.046l.549-.5-.046-.6 1.238-.412a3.7 3.7 0 011.558-.458m-1.65 2.979l.046.229-.046.138.046.733v.046l-.046.229.092.687h-.046l.046.046v.529l.205-.042-.04-.631h.046l-.046-.046v-.092l-.046-1.008h.046l-.046-.138.046-.32-.046-.046v-.046l.046-.183-.091-.092zm.138 2.842v.046l.045.229.139-.087-.006-.211zm.275-4.812l-.007.205h.458l.137-.091h.229q.825-.058.825-.229h.137l.046.046h.046l.046-.046v-.046l-.038-.16h-.045zm17.716 10.5h-.017a3.218 3.218 0 01-2.719-1.985 4.852 4.852 0 01-1.185-2.928v-.744l.066-.033a9.2 9.2 0 00.212-1.182l.012-.049A12.991 12.991 0 0136.6 2.616a2.663 2.663 0 012.307-1.526h.18l.224-.05.045.007c1.3.2 1.69.419 1.856.6a2.876 2.876 0 011.163 1.322l.02.058.241 1.2h-.046l.044.219-.009.046c-.041.212-.118.605-.417.605h-.183c-.33 0-.46-.361-.512-1.427a2.075 2.075 0 00-.775-.925 1.2 1.2 0 01-.415-.307l-.327-.007-.6-.15-.02.02h-.678a1.434 1.434 0 00-.765.345 11.445 11.445 0 00-1.6 2.538 8.509 8.509 0 00-.713 2.624l.053.212-.052.209a6.02 6.02 0 00.972 1.957 5.766 5.766 0 001.01 1.2l.789.3.006-.007h.192l.1.02.026-.025h.243l.033.033.5-.1.063.064a1.841 1.841 0 00.738-.326l.059-.037h.056a.812.812 0 00.218-.29l.036-.066.068-.033a2.258 2.258 0 00.7-.665l.183-.236s.006-.026.068 0a4.344 4.344 0 01.479.921c0 .077-.139.165-.139.165-.489.314-.532.448-.533.453v.18l-.172.036a.34.34 0 00-.063.15l-.021.086-.072.051a3.8 3.8 0 01-2.229.686zm-2.163-2.012c.658 1.168 1.235 1.564 2.118 1.571l.346-.046a3.408 3.408 0 001.922-.544.7.7 0 01.244-.346c.018-.046.011-.125.046-.174-.038.027-.075.05-.111.071a.789.789 0 01-.511.395 2 2 0 01-1 .375h-.145l-.025-.025-.379.071h-.085l-.02.02-.217-.051-.157.02-1.048-.442a2.7 2.7 0 01-.979-.895m16.23.648l-1.387-2.385.192-.12.572.191.346-.345v-.112a1.016 1.016 0 00-.266-.652l-.056-.067-.436.055a5.946 5.946 0 01-1.388-.238 2.094 2.094 0 00-.453-.663 17.3 17.3 0 01-1.213-2.379 7 7 0 00-.645-1.435c-.354-1.274-.525-1.378-.7-1.378h-.1l-.29.217V2.2a1.116 1.116 0 01-.24.726l-.043.053.142 1.046-.06.241.02.02v.18l.045.045a9.567 9.567 0 01-.406 2v.023c-.135 1.121-.247 1.874-.332 2.243h-.108l-.088-.222-.508.169-.3-.086h-.029a3.61 3.61 0 00-.831.145l-.068-.069-.085.019c-.442.1-.949.257-.949.613v.138a.474.474 0 00.279.467l.031.013h.284v-.142c.049-.054.352-.251 2.2-.438v.03h.074l-.078.741-.087.088v.27l.008.008c-.094.216-.158-.161-.241 1.036v.016l.046.372v.25l.184.459c.006.328.105.495.3.495h.162l.023-.008a.417.417 0 00.277-.359h.029l.031-.013a.474.474 0 00.278-.466v-.716l.086-.389a14.273 14.273 0 00.505-1.76 12.821 12.821 0 011.9-.294l.155.039h.13l.156-.028a21.053 21.053 0 001.427 2.94c.014.3.16.342.249.342h.341l.185-.185v-.2a2.294 2.294 0 00-.493-.978l-.448-.717.08-.094.054-.056a11.892 11.892 0 001.457 2.328l.046.043h.22l.277-.276v-.249a.753.753 0 00-.456-.621m-6.028-1.259l-.207-.1v-.367q.057-.458.183-.458l.151.007zm.46-3.45l-.17 1.527h-.247l-.046-.046c0-.152.031-.229.092-.229.16-.978.287-1.439.372-1.439zm1.51 1.434l-.138-.091h-.046l-.046.046-.092-.092-.687.137-.183-.046v-.367l.092-.5v-.047l-.046-.046.137-.55-.046-.229.046-.6v-.138l-.046-.321.092-.137-.046-.642v-.046h.046a7.567 7.567 0 01.871 1.925l.825 1.6q0 .092-.458.092h-.229zm1.076.607l-.138.046a.527.527 0 00-.32-.137h-.184l-.137.137-.206-.148v-.046q0-.138.551-.183l.045.046.184-.046.183.137zm10.731-5.177q.39.275.6 1.6a15.954 15.954 0 00.688 2.062 38.093 38.093 0 01.825 3.8l.413 1.192v.5c-.031.092-.122.138-.275.138l-.092-.138.046-.137-.229-1.1h-.046v.459l-.229.183h-.137a7.282 7.282 0 01-.5-2.246 9.568 9.568 0 01-.551-2.75q-.32-1.042-.779-1.237l-.137-.137a.932.932 0 00-1.009.734q-.149 0-.32.687l.137 1.283h-.046l.046.046v.871l-.046.275.046.046v.046l-.046.046.046.229v.046a1.2 1.2 0 01-.229.733l.046.184-.321.229q-.16 0-.412-.413l-.138-1.283h.046l-.184-1.42h.046a2.634 2.634 0 01-.274-.871q-.092 0-.138-.458h-.137l.046.275-.183.642.046.275-.55 3.254v.092l.046.275-.046.6v.046l-.183.183h-.183c-.306 0-.458-.122-.458-.366a4.52 4.52 0 01-.413-2.017v-.917l.046-.046a26.113 26.113 0 01-.641-3.666l-.047-.55c.047-.122.092-.183.138-.183h.092q.469.5.733.5h.046q.172-.447.275-.458h.046l.733.229q.24-1.066.779-1.1.779.539.779 1.055c.061 0 .107.137.138.412l.046.046h.045a3.961 3.961 0 011.97-1.788M55.76 6.467l.274 2.841h.092q.229 0 .5-3.483-.195-.412-.5-.412-.2.046-.367.917zm1.7-1.054l-.031.122a6.1 6.1 0 00.413 1.742l.031.015.183-.825q0-1.054-.6-1.054m12.472-.306c-.453-1.875-1.369-2.826-2.721-2.826a4.346 4.346 0 00-2.143.526 1.574 1.574 0 00-.949 1.283l.046.289a11.1 11.1 0 00.556 3.65 24.554 24.554 0 01.546 2.957l.01.077.067.039c.107.062.28 0 .438 1.044l-.083.336v.18l.084.045a1.568 1.568 0 01.283.175V13h.159c.393 0 .5-.224.523-.357l.008-.04-.012-.039a9.641 9.641 0 01-.409-2.311h.077l-.083-.33.045-.045-.1-1.025.046-.735-.088-.746.016-.032.146.029.359-.09.417.125.158.007.022-.023.08.027 1-.143h.018a1.951 1.951 0 001.493-2.124zm-4.784 1.825h-.091l-.413-1.6.092-.229-.092-.917.367-.366.091.092v.092l-.183.137.275 2.613zm2.089-.434a3.058 3.058 0 01-.8-.471l-.043-.033h-.166L66.218 6a18.273 18.273 0 01-.41-2.188l.037-.339a4.762 4.762 0 011.267-.312 1.72 1.72 0 00.572.08 2.054 2.054 0 011.516 2.25c-.185.673-.83 1-1.968 1.007m2.527 8.405H.242a.241.241 0 100 .483h69.517a.241.241 0 100-.483"/></g><path fill="none" d="M0 0h70v22H0z"/></svg>