<svg xmlns="http://www.w3.org/2000/svg" width="70" height="36"><path d="M7.709 21.464l-.262.048c-.181.035-.352.07-.526.111-.135.042-.268.077-.4.115a.452.452 0 00.033.387c.258.337.913-.3 1.106-.5.018-.016.151-.154.107-.154v-.009zm-5.569 1.29v.021h.146l.083-.011.1-.009.093-.014.069-.009a.359.359 0 01.136-.021.418.418 0 01.172-.037l.069-.007a.415.415 0 01.217-.054 1.369 1.369 0 01.344-.076c.265-.076.531-.148.8-.226.347-.111.693-.226 1.041-.337a1.487 1.487 0 01.322-.115v-.023h-.069c-.278.063-.555.118-.834.177-.56.111-1.107.261-1.658.4-.236.073-.472.143-.708.214-.1.037-.2.072-.309.111l-.01.014m6.341-2.611c-.026-.044-.135-.033-.182-.037s-.1.016-.149.018a1.422 1.422 0 00-.238.07 2.218 2.218 0 00-.719.452c-.06.066-.121.126-.183.191s-.378.47-.335.53l.126.016a.271.271 0 01.138-.023.392.392 0 01.183-.032l.068-.009a.279.279 0 01.138-.023.4.4 0 01.183-.037.535.535 0 01.195-.034c.1-.069.256-.046.35-.131a2.4 2.4 0 00.426-.949" fill="#d7321a"/><path d="M1.801 19.119v-.012c.13-.147.236-.313.37-.463a4.611 4.611 0 012.029-1.3 2.744 2.744 0 01.7-.168.285.285 0 01.126-.023.4.4 0 01.2-.023l.081-.011a.6.6 0 01.206-.014 3.623 3.623 0 011.053.087c.213.051.412.1.616.171a2.359 2.359 0 011.687 1.847 2.384 2.384 0 01-.021.6c-.008.048-.018.1-.025.159 0 .111.153.176.153.274h.046a.461.461 0 01.186-.152.608.608 0 01.407-.106c.1.024.18.076.279.1.057.007.113.007.17.011.088-.044.179-.082.268-.12a3.4 3.4 0 01.784-.4 1.251 1.251 0 01.261.016l.052-.2c0-.044.007-.083.01-.122a5.2 5.2 0 00-3.631-5.873 5.39 5.39 0 00-1.609-.189c-.187.021-.371.051-.56.073a3.665 3.665 0 00-.76.208 5.1 5.1 0 00-2.778 2.539 3.5 3.5 0 00-.195.428 4.81 4.81 0 00-.312 1.438 4.481 4.481 0 00.032.583c.01.1.086.65.175.65" fill="#d7321a"/><path d="M15.917 20.271c-.187.027-.375.06-.562.094a6.666 6.666 0 00-.665.1q-1.044.142-2.089.279l-.926.124c-.151.022-.3.044-.454.072-.081.021-.28.461-.33.555a8.211 8.211 0 01-5.353 3.871 4.7 4.7 0 01-.778.067 2.675 2.675 0 01-.516-.028.811.811 0 00-.132-.014 3.736 3.736 0 01-.916-.306 4.028 4.028 0 01-1.866-2.242 4.35 4.35 0 01-.214-1.673 4.536 4.536 0 01.266-1.224l.2-.45.047-.105a.428.428 0 00-.047-.2c-.052-.191-.09-.391-.129-.595a1.591 1.591 0 01-.018-.238 5.35 5.35 0 01.023-.891c.017-.184.087-.347.105-.525l.009-.041c.016-.051.1-.337.127-.337a.349.349 0 01.045-.159.84.84 0 00.091-.3c.053-.04.062-.1.092-.153.06-.091.1-.2.165-.29l.018-.037a.62.62 0 01.083-.133c.06-.1.122-.187.185-.289a5.759 5.759 0 01.423-.532c.075-.087.17-.154.247-.238a3.661 3.661 0 01.8-.622c.128-.071.245-.154.371-.225a4.342 4.342 0 01.941-.38 1.84 1.84 0 01.495-.108.279.279 0 01.125-.023l.092-.011.091-.01a1.275 1.275 0 01.2-.034c.074.007.146.007.219.012.049-.023.128 0 .184 0a.865.865 0 01.376.016h.023a5.455 5.455 0 014.435 3.47 4.094 4.094 0 01.154.514 8.014 8.014 0 01.159.809 5.535 5.535 0 01.005 1.147 2.959 2.959 0 01-.029.277c-.009.064-.093.356-.054.408s.131.025.187.025a.51.51 0 01.149-.01 1.013 1.013 0 01.455.111.955.955 0 00.208.076c.258.044.444-.173.686-.187a.437.437 0 01.274.077c.066.05.091.094.185.094l.08-.011.077-.012.071-.009c.072-.039.144-.071.219-.106.1-.027.3-.023.318.095a.129.129 0 01-.031.109 1.027 1.027 0 01-.427.122q-.646.1-1.292.193c-.255.049-.512.092-.766.14-.159.037-.319.067-.479.1a.6.6 0 00-.176.054l-.055.091v.024l.069.021.08-.011a.433.433 0 01.194-.024.408.408 0 01.184-.021l.092-.009.067-.014.091-.009.115-.011a.307.307 0 01.16-.023l.092-.009.077-.014.069-.015a.46.46 0 01.127-.011.354.354 0 01.16-.023l.092-.009.078-.011.07-.009.1-.014.081-.012a.868.868 0 01.262-.033l.068-.009.068-.018.091-.009.1-.011a.363.363 0 01.161-.023l.072-.009.09-.014a.564.564 0 01.239-.033l.07-.011.068-.009.1-.018.069-.009.091-.011.081-.009a.506.506 0 01.24-.037l.113-.024.1-.007a.448.448 0 01.217-.034.467.467 0 01.229-.037.327.327 0 01.171-.034l.069-.009.069-.012.068-.011a.4.4 0 01.183-.034.479.479 0 01.217-.048c.065-.018.13-.04.193-.056l.033-.021v-7.61H-.013v16.86h16.861v-8.988l-.1.023c-.276.065-.558.108-.843.166" fill="#d7321a"/><path d="M11.481 20.192l.1.021a.4.4 0 01.161-.03 8.114 8.114 0 01.353-.067.41.41 0 01.206-.034c.043-.016.087-.032.127-.051v-.021a.973.973 0 00-.367-.12c-.112 0-.22 0-.331-.007a1.063 1.063 0 01-.122.023c-.08.027-.1.138-.117.209l-.012.076m-2.865-.511a1.673 1.673 0 00-.438-1.437 3.627 3.627 0 00-2.763-.931 1.6 1.6 0 01-.309.04 3.355 3.355 0 00-.379.071c-.071.016-.143.032-.214.05-.151.049-.3.1-.457.141a4.542 4.542 0 00-1.789 1.274 2.894 2.894 0 00-.25.336 1.117 1.117 0 00-.115.2c-.051.138.362.733.46.864a3.268 3.268 0 001.352 1.046c.209.085.428.15.648.217a4.254 4.254 0 00.64.17.968.968 0 00.161-.018.659.659 0 01.229-.044l.1-.019.069-.014a.316.316 0 01.148-.03v-.018l.023.018v-.018l.1-.011a.893.893 0 01.3-.056.4.4 0 01.182-.034l.091-.027c.064-.021.085-.081.112-.136h-.011c.1-.166.184-.332.293-.491a2.087 2.087 0 011.48-.9c.075-.034.227.016.283-.027s.039-.148.05-.2m1.752 1.039l-.264.079v.009a1.69 1.69 0 01.218-.009l.068-.016.1-.011.035-.023h.127a.293.293 0 01.147-.024l.092-.009c.053-.025.193-.048.114-.15-.214.053-.427.1-.639.154" fill="#d7321a"/><path d="M2.164 22.482a11.825 11.825 0 011.142-.355c.069-.016.139-.03.207-.053a.926.926 0 01.241-.055 2.019 2.019 0 01.458-.108.278.278 0 01.159-.04.363.363 0 01.16-.034.282.282 0 01.137-.043 1.806 1.806 0 00-.41-.081l-.229-.066a4.227 4.227 0 01-1.037-.507 3.88 3.88 0 01-.913-.927c-.054-.08-.106-.164-.161-.251s-.077-.193-.165-.249a1.891 1.891 0 00-.192.456 3.739 3.739 0 00-.179 1.85c.024.129.107.682.213.716h.021c.061-.034.124-.064.187-.1.121-.048.242-.1.361-.147m9.008-2.715c-.065.023-.13.034-.193.06a2.948 2.948 0 00-.274.133 2.9 2.9 0 01-.679.337c-.28.062-.395-.215-.686-.09a.746.746 0 00-.306.21c-.073.092-.023.385-.215.364-.159-.016-.073-.226-.068-.33l-.014-.092h-.036a1.5 1.5 0 01-.125.3 3.826 3.826 0 00-.116.247l-.033.032v.027h.012v.011h.069c.093-.027.189-.059.283-.087.146-.042.292-.083.435-.12a.677.677 0 01.195-.047.986.986 0 01.251-.071c.088-.021.175-.044.265-.065a.568.568 0 01.159-.034.815.815 0 01.272-.072 1.371 1.371 0 01.311-.066.555.555 0 01.172-.051 1.033 1.033 0 00.289-.073c.068-.047.11-.233.132-.309.033-.134.007-.166-.1-.216m-.467 1.227c-.157.022-.317.051-.48.072-.124.014-.246.037-.37.06-.3.044-.6.083-.9.139l-.445.064a1.887 1.887 0 00-.307.057c-.07.028-.212.24-.27.307a1.8 1.8 0 01-1.012.71.472.472 0 01-.53-.341l-.03-.231-.1-.032c-.123.032-.247.071-.37.1-.292.082-.585.17-.879.251-.574.173-1.144.343-1.713.518-.354.118-.7.24-1.061.338a2.115 2.115 0 01-.506.071c-.017.1.074.221.119.3a5.312 5.312 0 00.286.456 3.021 3.021 0 00.532.59 3.146 3.146 0 002.182.769.688.688 0 01.229-.016.544.544 0 01.125-.009l.091-.014.069-.007.091-.014.081-.009a.229.229 0 01.114-.023l.114-.021c.159-.047.319-.09.478-.134a6.543 6.543 0 00.934-.36 8.292 8.292 0 002.855-2.283 6.452 6.452 0 00.693-1.03 1.465 1.465 0 00.137-.275l-.034-.023a.793.793 0 00-.125.011" fill="#d7321a"/><path d="M.768 27.961l.1-.585.064-.009c.08 0 .136.044.136.191a.525.525 0 01-.094.3.206.206 0 01-.183.1zm-.017.092h.031a.75.75 0 00.322-.069.447.447 0 00.186-.392.353.353 0 00-.1-.253.246.246 0 00-.171-.049H.597l-.047.044c0 .037.026.041.045.041s.048.023.048.066l-.012.088-.145.816-.03.143c-.016.041-.044.041-.07.048a.047.047 0 00-.051.054l.034.037c.064 0 .129-.009.191-.009s.128 0 .192.009l.04-.044-.029-.047a.071.071 0 01-.082-.076l.007-.083.058-.325zm.761.293l-.016.115c0 .055.016.071.047.076l.044.047a.039.039 0 01-.045.044c-.058 0-.118-.009-.174-.009s-.118 0-.177.009l-.03-.037c0-.044.026-.044.045-.054l.065-.048.034-.147.147-.825.012-.088c0-.041-.024-.053-.045-.053l-.037-.037.037-.049h.347l.022.03c0 .046-.034.055-.055.062-.054.016-.058.052-.072.138l-.148.825zm.49.115l-.015.046.085.023.163-.018c.074-.023.093-.06.129-.161l.048-.081.023.032v.04l-.027.218-.031.067c-.172 0-.343-.009-.514-.009-.051 0-.1 0-.156.009l-.029-.027.029-.083.558-1.1.006-.016h-.052l-.158.011c-.071.014-.087.051-.127.143l-.045.067-.021-.037.011-.07.017-.1.023-.1.044-.016h.547l.052.026-.028.073-.532 1.067zm.778 0l-.015.046.084.023.164-.018c.074-.023.092-.06.13-.161l.048-.081.021.032v.04l-.027.218-.031.067c-.169 0-.34-.009-.511-.009-.052 0-.106 0-.158.009l-.026-.027.028-.083.558-1.1.006-.016h-.049l-.159.011c-.073.014-.088.051-.126.143l-.045.067-.021-.037.01-.07.016-.1.023-.1.042-.016h.55l.05.026-.027.073-.532 1.067z" fill="#fff"/><path d="M3.721 28.072h-.2l.192-.456.009.456zm0 .1l.007.15v.1c0 .072-.008.108-.052.115a.05.05 0 00-.056.053l.028.037c.054 0 .11-.009.166-.009s.111 0 .166.009l.037-.049-.03-.041c-.061-.014-.059-.076-.062-.159l-.033-.979-.011-.138-.036-.016c-.041 0-.052.032-.071.09l-.448 1.028a.62.62 0 01-.07.145l-.04.025c-.023 0-.055 0-.055.058l.032.037a1.248 1.248 0 01.13-.009c.042 0 .086 0 .13.009l.036-.044c0-.081-.105-.01-.105-.122a1.186 1.186 0 01.078-.242l.019-.051zm1.355-.638l-.034.1c-.069 0 0-.281-.165-.281a.164.164 0 00-.13.179.493.493 0 00.1.244.832.832 0 01.16.408.53.53 0 01-.113.346.311.311 0 01-.237.113.405.405 0 01-.2-.055c-.039-.017-.047-.03-.047-.1a1.619 1.619 0 01.011-.2l.032-.062c.033 0 .033.055.034.095a.387.387 0 00.037.159.136.136 0 00.118.066l.11-.043a.315.315 0 00.062-.175.451.451 0 00-.1-.26.8.8 0 01-.163-.431.467.467 0 01.089-.274.257.257 0 01.2-.1.362.362 0 01.191.067l.06.064-.01.074-.011.062zm.438.538h-.2l.189-.456.01.456zm0 .1l.007.15v.1c0 .072-.007.108-.052.115a.049.049 0 00-.055.053l.027.037c.054 0 .11-.009.167-.009s.11 0 .166.009l.037-.049-.03-.041c-.061-.014-.059-.076-.063-.159l-.033-.979-.012-.138-.036-.016c-.038 0-.051.032-.071.09l-.447 1.028a.742.742 0 01-.07.145l-.038.025c-.025 0-.058 0-.058.058l.033.037a1.251 1.251 0 01.129-.009 1.3 1.3 0 01.13.009l.036-.044c0-.081-.1-.01-.1-.122a1.118 1.118 0 01.077-.242l.018-.051zm.598-.58c0-.044.019-.111.019-.15 0-.055-.025-.066-.051-.071l-.034-.037.044-.051a1.508 1.508 0 00.18.011 1.58 1.58 0 00.182-.011l.031.037c0 .05-.026.055-.049.055s-.049.007-.071.053a.6.6 0 00-.042.15l-.15.834-.009.067c0 .066.05.053.076.053.112 0 .156-.039.214-.2l.038-.058.03.046-.018.115-.013.083-.018.081-.035.023c-.13 0-.264 0-.393-.009-.062 0-.123 0-.187.009l-.033-.037c0-.044.028-.054.049-.054.071-.021.075-.043.1-.159l.01-.053.133-.732zm1.019.168a1.583 1.583 0 00.114-.31c0-.051-.022-.067-.046-.067s-.05-.007-.05-.044l.036-.049h.244l.03.044-.026.048-.078.048-.077.148-.075.168-.325.756c-.029.064-.048.143-.1.143-.039 0-.041-.027-.044-.085l-.055-1.1c-.008-.051-.016-.063-.046-.081l-.044-.041.034-.044h.35l.026.044c0 .037-.023.041-.042.053-.054.018-.072.032-.072.129v.056l.04.67.212-.482zm.529.312h-.2l.191-.456.01.456zm0 .1l.006.15v.1c0 .072-.007.108-.051.115a.05.05 0 00-.056.053l.026.037c.055 0 .112-.009.168-.009s.108 0 .166.009l.037-.049-.031-.041c-.06-.014-.057-.076-.063-.159l-.031-.979-.01-.138-.038-.016c-.039 0-.051.032-.072.09l-.447 1.028a.7.7 0 01-.07.145l-.039.025c-.024 0-.057 0-.057.058l.033.037a1.244 1.244 0 01.129-.009 1.291 1.291 0 01.131.009l.035-.044c0-.081-.1-.01-.1-.122a1.119 1.119 0 01.077-.242l.019-.051zm.673-.757l-.029-.016-.117.021c-.041.023-.062.09-.085.138l-.04.058-.026-.037.018-.088.048-.214.041-.088.025.049v.046l.091.021h.473l.065-.066.03-.03.022.03-.005.046-.039.18-.025.115-.027.023-.027-.053v-.074c0-.1-.059-.083-.1-.083h-.061l-.033.078-.169.928-.01.078c0 .044.026.053.047.053s.06 0 .06.046l-.03.049c-.063 0-.129-.009-.193-.009s-.129 0-.194.009l-.034-.044c0-.047.042-.051.063-.053.066-.007.075-.079.092-.173l.171-.943zm.777 1.159c-.125 0-.17-.2-.17-.37a2.309 2.309 0 01.077-.535c.049-.159.138-.329.253-.329s.17.166.17.345c0 .307-.092.889-.33.889m.021.072c.273 0 .506-.327.506-.79a.816.816 0 00-.117-.436.3.3 0 00-.253-.159c-.26 0-.529.311-.529.767 0 .367.169.618.391.618m1.062-1.275c.07 0 .124.034.124.173 0 .235-.156.445-.295.429l.106-.6h.065zm-.187.693h.049l.045.1.072.325.015.078.035.06a1.085 1.085 0 01.119-.009 1.125 1.125 0 01.121.009c.017 0 .034 0 .034-.049l-.046-.048c-.055-.018-.055-.064-.074-.145l-.059-.237a.721.721 0 00-.055-.181.419.419 0 00.281-.394c0-.233-.145-.282-.258-.282h-.422c-.022 0-.058 0-.058.044s.026.037.046.041.051.018.051.074l-.013.1-.145.8c-.016.1-.02.17-.089.184-.026 0-.062.007-.062.06l.023.037c.063 0 .124-.009.185-.009s.124 0 .188.009c.017 0 .045-.009.045-.054 0-.066-.093-.007-.093-.122l.012-.1.052-.286z" fill="#fff"/><path d="M10.865 28.306l-.022.155c0 .076.06.071.092.071.284 0 .235-.254.295-.254l.026.046-.014.088-.024.133c-.01.072-.006.081-.049.081-.156 0-.31-.009-.465-.009-.063 0-.125 0-.183.009l-.03-.037.043-.054.063-.025a.809.809 0 00.044-.17l.137-.762.017-.122c0-.058-.017-.074-.045-.081l-.039-.037.031-.049h.619l.023.021-.034.171-.026.115-.024.021-.022-.053a.271.271 0 00-.044-.15l-.1-.032h-.048c-.052 0-.049-.007-.063.074l-.073.405h.047c.08 0 .152.012.193-.122l.04-.067.025.035-.015.082a3.124 3.124 0 00-.055.33l-.03.071-.029-.071c0-.043.007-.1-.016-.131l-.1-.032h-.081l-.06.345zm1.698-1.03a.053.053 0 01.045.058l-.006.041-.027.177c-.007.04-.011.092-.042.092s-.035-.124-.037-.163c0-.083.007-.133-.053-.133a.413.413 0 00-.3.216 1.07 1.07 0 00-.16.574c0 .224.089.417.233.417.093 0 .151-.1.191-.225.015-.04.031-.111.066-.111l.022.034c0 .016-.03.175-.035.212-.01.089-.016.094-.073.124a.657.657 0 01-.244.055.324.324 0 01-.256-.113.61.61 0 01-.118-.394.955.955 0 01.239-.647.614.614 0 01.446-.224l.113.009zm.797.824a1.1 1.1 0 01-.118.389.306.306 0 01-.275.152.394.394 0 01-.2-.055.272.272 0 01-.129-.244.933.933 0 01.023-.2l.107-.6.014-.1c0-.051-.015-.056-.038-.063s-.048-.011-.048-.048.02-.049.039-.049h.377l.031.044c0 .041-.033.041-.054.048-.089.023-.1.081-.118.214l-.086.474a1.673 1.673 0 00-.037.275c0 .143.083.191.159.191a.239.239 0 00.217-.163 1.784 1.784 0 00.1-.385l.058-.325a1.638 1.638 0 00.026-.2c0-.062-.02-.074-.051-.078s-.062-.007-.062-.048l.035-.044h.247l.028.037c0 .043-.021.048-.04.048s-.053.011-.07.055a1.213 1.213 0 00-.055.233l-.079.441zm.54.474c-.126 0-.169-.2-.169-.37a2.233 2.233 0 01.077-.535c.047-.159.136-.329.252-.329s.17.166.17.345c0 .307-.093.889-.33.889m.021.072c.273 0 .506-.327.506-.79a.8.8 0 00-.117-.436.293.293 0 00-.252-.159c-.261 0-.528.311-.528.767 0 .367.17.618.391.618m.964-.162c-.021.048-.043.126-.087.126s-.042-.06-.042-.122l-.012-.915-.134.594a1.576 1.576 0 00-.042.276c0 .134.109.04.109.134l-.045.049-.117-.009c-.04 0-.079.009-.12.009l-.037-.044.04-.053.073-.051a1.247 1.247 0 00.043-.155l.184-.834.008-.06c0-.069-.092-.021-.092-.092l.035-.044h.271l.018.088.013.781.324-.8.044-.067h.241l.026.04c0 .048-.033.053-.056.06l-.041.034-.024.106-.115.756c0 .047-.018.131-.018.171 0 .106.082.041.082.117l-.039.049c-.057 0-.116-.009-.173-.009s-.114.009-.171.009l-.029-.044a.049.049 0 01.046-.051c.027 0 .047 0 .061-.048l.029-.147.125-.763-.378.91zm1.054.09c-.126 0-.171-.2-.171-.37a2.2 2.2 0 01.078-.535c.047-.159.136-.329.253-.329s.17.166.17.345c0 .307-.092.889-.329.889m.021.072c.272 0 .5-.327.5-.79a.8.8 0 00-.115-.436.3.3 0 00-.253-.159c-.26 0-.528.311-.528.767 0 .367.167.618.391.618" fill="#fff"/><path d="M2.112 6.949l.517-2.889.316-.039c.39 0 .667.2.667.942A2.635 2.635 0 013.16 6.47a1.058 1.058 0 01-.9.479zm-.081.449h.159a3.728 3.728 0 001.587-.343 2.192 2.192 0 00.908-1.919 1.67 1.67 0 00-.471-1.242 1.251 1.251 0 00-.846-.274c-.259.011-.523.055-.787.055-.43 0-.857-.044-1.287-.055a.214.214 0 00-.232.231c0 .2.132.209.214.221.113.009.24.1.24.325a3.544 3.544 0 01-.059.433l-.718 4a4.8 4.8 0 01-.146.706c-.073.2-.22.209-.345.242-.107.021-.247.055-.247.274 0 .154.1.166.17.166.316-.011.632-.048.946-.048s.631.037.946.048c.113 0 .2-.059.2-.221s-.059-.174-.146-.2c-.144-.021-.408-.054-.408-.378a2.727 2.727 0 01.044-.408l.283-1.617zm4.928 1.436a4.633 4.633 0 00-.082.59c0 .274.082.345.232.357.089.011.214.044.214.218 0 .206-.13.221-.22.221-.289-.011-.579-.048-.858-.048s-.578.037-.868.048c-.071 0-.147-.048-.147-.188 0-.2.121-.219.215-.251.121-.044.246-.056.323-.231a5.22 5.22 0 00.163-.74l.724-4.057a3.217 3.217 0 00.065-.429c0-.209-.12-.244-.221-.253-.076-.011-.183-.034-.183-.186s.094-.265.183-.265c.276.011.566.055.858.055.276 0 .567-.044.851-.055.063 0 .111.059.111.175 0 .226-.176.265-.283.3-.264.072-.278.282-.346.673l-.731 4.068zm3.408.59a1.065 1.065 0 00-.083.207c0 .118.385.095.423.106l.808-.1c.358-.078.454-.267.637-.762.049-.127.117-.4.239-.4.055 0 .113.058.113.15 0 .074-.015.138-.019.2l-.132 1.085c-.013.163-.025.313-.144.313-.846-.011-1.691-.048-2.535-.048-.253 0-.518.037-.769.048-.056 0-.139-.011-.139-.126a1.208 1.208 0 01.145-.4l2.749-5.428.031-.083c0-.05-.232-.043-.252-.043l-.781.052c-.353.083-.43.245-.619.717-.05.126-.113.324-.22.324-.063 0-.107-.082-.107-.175a2.067 2.067 0 01.044-.329l.089-.491a2.529 2.529 0 01.113-.5c.044-.083.144-.072.207-.072h2.711c.044 0 .252-.034.252.118a1.294 1.294 0 01-.137.343l-2.622 5.288zm4.816 0a1.144 1.144 0 00-.082.207c0 .118.383.095.421.106l.808-.1c.359-.078.454-.267.637-.762.05-.127.12-.4.24-.4.056 0 .114.058.114.15a1.511 1.511 0 01-.021.2l-.13 1.085c-.014.163-.026.313-.146.313-.845-.011-1.689-.048-2.534-.048-.252 0-.517.037-.769.048-.057 0-.138-.011-.138-.126a1.154 1.154 0 01.146-.4l2.747-5.428.033-.083c0-.05-.235-.043-.252-.043l-.783.052c-.353.083-.431.245-.618.717-.052.126-.114.324-.222.324-.062 0-.105-.082-.105-.175a1.876 1.876 0 01.044-.329l.089-.491a2.59 2.59 0 01.114-.5c.042-.083.144-.072.206-.072h2.711c.044 0 .253-.034.253.118a1.323 1.323 0 01-.139.343l-2.622 5.288zm5.621-1.925h-.983l.938-2.262.045 2.262zm.006.479l.03.74v.518c0 .346-.036.5-.253.544-.112.021-.275.032-.275.274 0 .131.055.166.131.166.271-.011.548-.048.827-.048s.541.037.819.048c.085 0 .183-.039.183-.231 0-.154-.064-.188-.153-.209-.294-.06-.288-.357-.308-.766l-.157-4.852a2.707 2.707 0 00-.056-.65.174.174 0 00-.183-.1c-.2 0-.253.177-.354.429l-2.2 5.1a4.323 4.323 0 01-.347.7.3.3 0 01-.19.118c-.121.024-.276.044-.276.3 0 .166.075.166.155.166.21-.011.423-.048.638-.048s.429.037.644.048c.08 0 .176-.048.176-.221 0-.394-.511-.048-.511-.6a5.144 5.144 0 01.385-1.177l.094-.244zm8.211-3.121c-.018.159-.037.486-.176.486-.34 0 .018-1.387-.8-1.387-.308 0-.641.36-.641.9a2.476 2.476 0 00.484 1.18 4.1 4.1 0 01.8 2.032 2.628 2.628 0 01-.552 1.688 1.485 1.485 0 01-1.175.553 2.026 2.026 0 01-.989-.256c-.19-.1-.234-.159-.234-.484a8.871 8.871 0 01.056-.982c.02-.136.058-.292.158-.292.159 0 .159.262.171.465a1.769 1.769 0 00.176.788.676.676 0 00.581.336.722.722 0 00.542-.247 1.349 1.349 0 00.3-.854 2.233 2.233 0 00-.473-1.274 3.926 3.926 0 01-.8-2.115 2.377 2.377 0 01.438-1.369 1.256 1.256 0 01.994-.491 1.815 1.815 0 01.948.3c.08.056.288.162.288.348a2.5 2.5 0 01-.045.348l-.049.322zm3.145 2.642h-.984l.94-2.262.044 2.262zm0 .479l.032.74v.518c0 .346-.037.5-.252.544-.113.021-.278.032-.278.274 0 .131.057.166.132.166.271-.011.549-.048.826-.048s.541.037.82.048c.089 0 .183-.039.183-.231 0-.154-.065-.188-.151-.209-.3-.06-.292-.357-.311-.766l-.155-4.852a2.65 2.65 0 00-.058-.65.171.171 0 00-.181-.1c-.2 0-.254.177-.354.429l-2.207 5.1a3.936 3.936 0 01-.348.7.287.287 0 01-.187.118c-.121.024-.277.044-.277.3 0 .166.075.166.156.166.209-.011.424-.048.636-.048s.429.037.645.048c.081 0 .175-.048.175-.221 0-.394-.51-.048-.51-.6a5.081 5.081 0 01.384-1.177l.095-.244zm3.931-2.856a5.771 5.771 0 00.095-.735c0-.262-.12-.339-.253-.36-.069 0-.164-.027-.164-.177 0-.183.114-.231.209-.231.288.011.593.048.9.048s.593-.037.9-.048c.08 0 .151.021.151.182 0 .226-.127.246-.241.269-.137.044-.245.033-.345.233a3.057 3.057 0 00-.207.765l-.739 4.113a2.9 2.9 0 00-.045.322c0 .309.247.265.366.265.549 0 .776-.175 1.06-.983.044-.129.094-.265.189-.265.074 0 .138.082.138.22a3.743 3.743 0 01-.082.577l-.063.391a2.873 2.873 0 01-.088.419.155.155 0 01-.169.092c-.646-.011-1.3-.034-1.944-.048-.3.014-.6.037-.913.048-.077 0-.164-.021-.164-.177a.239.239 0 01.232-.262c.359-.083.378-.2.479-.766l.051-.274.656-3.619zm6.366.843a7.649 7.649 0 00.563-1.559c0-.221-.108-.3-.227-.316-.088-.011-.252-.011-.252-.207 0-.173.095-.265.183-.265.2.011.4.055.605.055s.4-.044.6-.055c.089 0 .152.082.152.242a.221.221 0 01-.139.23.8.8 0 00-.386.242 5.766 5.766 0 00-.371.735l-.371.825-1.61 3.714c-.142.319-.235.7-.513.7-.189 0-.2-.138-.221-.4l-.269-5.456c-.033-.256-.084-.315-.229-.371-.088-.044-.214-.053-.214-.242 0-.17.075-.218.164-.218.279.011.567.055.857.055s.58-.044.864-.055c.069 0 .133.082.133.218a.271.271 0 01-.207.286c-.272.085-.348.154-.348.617v.274l.182 3.32 1.054-2.371zm4.018 1.534h-.982l.938-2.262.044 2.262zm.008.479l.032.74v.518c0 .346-.04.5-.252.544-.114.021-.279.032-.279.274 0 .131.058.166.134.166.272-.011.548-.048.824-.048s.543.037.821.048c.088 0 .181-.039.181-.231 0-.154-.061-.188-.151-.209-.3-.06-.289-.357-.307-.766l-.157-4.852a2.687 2.687 0 00-.058-.65.172.172 0 00-.182-.1c-.2 0-.253.177-.354.429l-2.207 5.1a4.017 4.017 0 01-.346.7.285.285 0 01-.189.118c-.119.024-.276.044-.276.3 0 .166.075.166.157.166.208-.011.422-.048.638-.048s.427.037.642.048c.082 0 .177-.048.177-.221 0-.394-.513-.048-.513-.6a5.111 5.111 0 01.386-1.177l.094-.244zm4.572-3.709c.01-.118-.1-.095-.146-.095a1.184 1.184 0 00-.572.118c-.2.1-.3.421-.412.679-.042.106-.112.256-.207.256-.05 0-.12-.073-.12-.166a3.009 3.009 0 01.089-.424l.233-1.051c.032-.177.056-.431.2-.431.081 0 .12.081.12.219a.522.522 0 00.025.221c.07.161.334.105.443.105h2.33c.152-.039.209-.138.316-.3.036-.041.094-.168.158-.168s.106.064.106.159a1.455 1.455 0 01-.038.231l-.19.876c-.025.122-.073.442-.118.566-.031.083-.078.122-.139.122-.1 0-.128-.133-.128-.272 0-.115.014-.231.014-.346 0-.507-.3-.415-.517-.415h-.3c-.133.023-.133.217-.164.383l-.832 4.6a2.559 2.559 0 00-.049.364c0 .226.125.262.232.274s.283.012.283.221c0 .138-.061.231-.137.231-.314-.011-.644-.048-.959-.048s-.642.037-.958.048c-.083 0-.171-.034-.171-.2 0-.241.2-.253.317-.274.326-.027.369-.387.452-.838l.839-4.641zm4.821 5.691c-.617 0-.837-.968-.837-1.832a11.223 11.223 0 01.377-2.623c.233-.791.675-1.632 1.248-1.632.625 0 .833.818.833 1.723 0 1.5-.455 4.364-1.62 4.364m.1.35c1.342 0 2.5-1.613 2.5-3.885a4.016 4.016 0 00-.572-2.133 1.423 1.423 0 00-1.249-.779c-1.286 0-2.6 1.493-2.6 3.755 0 1.818.832 3.041 1.928 3.041m6.472-6.272c.353 0 .619.173.619.855 0 1.156-.763 2.175-1.452 2.115l.524-2.927.309-.044zm-.914 3.431l.12-.011.119-.021c.146 0 .183.348.226.53l.355 1.6.075.367c.032.157.057.292.164.292.2-.011.389-.048.593-.048s.389.037.592.048c.076 0 .17 0 .17-.231 0-.188-.126-.209-.221-.242-.278-.109-.27-.292-.372-.716l-.289-1.162a3.1 3.1 0 00-.272-.884 2.092 2.092 0 001.393-1.956c0-1.136-.712-1.41-1.275-1.41-.435.011-.876.048-1.317.048-.251 0-.517-.037-.77-.048-.1 0-.283.011-.283.231 0 .2.134.186.228.209.12.032.252.076.252.348a3.576 3.576 0 01-.063.5l-.712 3.944c-.081.473-.1.821-.44.88-.12.021-.3.044-.3.307 0 .118.049.177.113.177.307-.011.609-.048.914-.048s.6.037.919.048c.089 0 .227-.039.227-.249 0-.353-.464-.055-.464-.611a2.548 2.548 0 01.061-.484l.252-1.41zm5.466 1.179a6.052 6.052 0 00-.109.753c0 .392.292.357.454.357 1.4 0 1.153-1.225 1.458-1.225.068 0 .125.071.125.2a4.208 4.208 0 01-.068.454l-.115.643c-.057.348-.026.4-.247.4-.767-.011-1.524-.048-2.294-.048-.3 0-.6.037-.9.048-.068 0-.151-.034-.151-.177a.22.22 0 01.215-.251c.087-.011.245-.023.315-.127a3.634 3.634 0 00.22-.866l.669-3.721a4.972 4.972 0 00.088-.638c0-.265-.088-.348-.227-.369-.082-.011-.189-.039-.189-.2s.057-.253.152-.253c.278.011.569.055.844.055.732 0 1.475-.044 2.206-.055.045 0 .109.011.109.115 0 .069-.158.776-.171.864-.019.106-.088.47-.121.567-.024.071-.062.108-.118.108-.1 0-.1-.161-.114-.288a1.211 1.211 0 00-.215-.738.54.54 0 00-.516-.145h-.24c-.247 0-.239-.033-.3.348l-.366 2.018h.228c.389 0 .755.051.95-.62.044-.15.089-.315.2-.315.062 0 .12.062.12.166a2.024 2.024 0 01-.07.412 13.527 13.527 0 00-.265 1.611c-.019.136-.037.367-.157.367-.139 0-.133-.191-.133-.355a1.286 1.286 0 00-.086-.668c-.114-.154-.336-.133-.474-.133l-.4.016-.3 1.7zM60.15.03a.1.1 0 01.1.109l-.014.1-.056.373c-.011.083-.025.193-.091.193-.086 0-.075-.26-.077-.341 0-.182.013-.282-.111-.282a.894.894 0 00-.646.449 2.305 2.305 0 00-.337 1.218c0 .472.19.885.5.885.2 0 .319-.215.4-.479.032-.081.063-.231.137-.231.024 0 .045.021.045.06s-.062.375-.073.467c-.022.183-.036.194-.153.249a1.224 1.224 0 01-.521.115.673.673 0 01-.539-.235 1.3 1.3 0 01-.251-.831 1.976 1.976 0 01.5-1.364 1.284 1.284 0 01.946-.482l.237.023zm2.025 1.744a2.305 2.305 0 01-.249.832.651.651 0 01-.583.313.841.841 0 01-.417-.108.567.567 0 01-.273-.518 2.121 2.121 0 01.05-.419l.228-1.267a1.329 1.329 0 00.031-.219c0-.1-.036-.111-.082-.127s-.1-.016-.1-.1c0-.113.042-.113.083-.113.129.007.264.021.4.021s.265-.014.4-.021c.033 0 .064.035.064.092 0 .095-.07.106-.115.117-.189.041-.2.166-.255.45l-.182 1a3.961 3.961 0 00-.077.585c0 .3.179.417.338.417a.523.523 0 00.461-.345 4.1 4.1 0 00.2-.827l.123-.689a2.935 2.935 0 00.059-.436c0-.12-.042-.147-.107-.159-.046 0-.132 0-.132-.1 0-.066.038-.1.076-.1.086.007.173.021.259.021s.173-.014.26-.021c.032 0 .06.028.06.083 0 .092-.043.1-.086.115-.066.016-.113.016-.149.115a2.936 2.936 0 00-.118.484l-.169.931zm1.537.998c-.263 0-.361-.412-.361-.788a4.74 4.74 0 01.164-1.126c.1-.344.288-.7.535-.7.268 0 .357.353.357.738 0 .65-.193 1.877-.7 1.877m.044.147c.579 0 1.073-.686 1.073-1.668a1.706 1.706 0 00-.247-.915A.607.607 0 0064.04 0c-.551 0-1.118.64-1.118 1.615 0 .781.357 1.3.829 1.3m2.471-.33c-.047.108-.094.264-.186.264s-.086-.125-.086-.254L65.923.661l-.286 1.256a3.514 3.514 0 00-.088.585c0 .279.233.082.233.279a.1.1 0 01-.1.106c-.081 0-.167-.021-.248-.021s-.167.021-.256.021c-.034 0-.075-.021-.075-.1a.094.094 0 01.081-.1.225.225 0 00.159-.118 2.1 2.1 0 00.087-.322l.392-1.755a.9.9 0 00.017-.134c0-.15-.2-.044-.2-.2 0-.069.039-.092.074-.092h.574c.055 0 .04.122.04.188l.029 1.65.681-1.693c.029-.074.04-.145.1-.145h.51c.033.014.055.023.055.082 0 .1-.066.111-.116.122a.1.1 0 00-.089.065 1.553 1.553 0 00-.05.244l-.243 1.6c-.013.092-.041.274-.041.36 0 .224.179.085.179.251 0 .079-.045.1-.087.1-.118 0-.243-.021-.362-.021s-.245.021-.363.021c-.036 0-.067-.025-.067-.092 0-.09.057-.095.1-.106.059-.012.1 0 .129-.1a2.442 2.442 0 00.061-.308l.263-1.615-.8 1.924zm2.661.187c-.265 0-.361-.412-.361-.788a4.873 4.873 0 01.161-1.126c.1-.344.291-.7.539-.7.267 0 .356.353.356.738 0 .65-.194 1.877-.695 1.877m.044.147c.576 0 1.073-.686 1.073-1.668a1.707 1.707 0 00-.248-.915.609.609 0 00-.537-.337c-.552 0-1.119.64-1.119 1.615 0 .781.358 1.3.831 1.3" fill="#d7321a"/><path d="M21.655 20.853l-.075-.113c-.057-.106-.106-.143-.2-.145-.136 0-.173.058-.2.2l-.011.037a.332.332 0 00-.1.17c-.013.051-.013.051-.052.067-.095.051-.122.086-.138.122a2.349 2.349 0 01-.251.246 1.667 1.667 0 01-.443.286c-.07.034-.2.1-.294.154a3.313 3.313 0 01-.359.178 2.606 2.606 0 00-.3.136 4.979 4.979 0 01-.578.253l-.025-.011c-.075-.06-.116-.049-.2-.016l-.061.016a2.435 2.435 0 01-.457-.7l-.177-.364a1.7 1.7 0 01-.094-.463v-.06l.058-.055a2.7 2.7 0 01.313-.231 3.374 3.374 0 00.3-.205 1.047 1.047 0 01.15-.115 4.392 4.392 0 00.347-.281 3.176 3.176 0 01.272-.219c.084-.059.39-.327.519-.435a4.2 4.2 0 00.6-.656 1.374 1.374 0 00.246-.572.716.716 0 00-.364-.541 1.43 1.43 0 00-.768-.235 1.542 1.542 0 00-.51.039l-.243.076a.575.575 0 00-.378.255l-.029.025a.307.307 0 00-.146.147l-.062.06a.38.38 0 00-.172.2.835.835 0 01-.1.146.645.645 0 00-.116.175l-.04.069c-.045.067-.12.2-.176.3a.941.941 0 00-.118.26 3.073 3.073 0 01-.1.24 6.222 6.222 0 00-.225.656c-.154.544-.168.586-.209.618l-.113.111a.51.51 0 01-.111.069.458.458 0 00-.154.118l-.078.056a.731.731 0 00-.124.092l-.145.1a15.61 15.61 0 00-.889.661 2.252 2.252 0 01-.3.205h.017c-.1 0-.306.212-.331.3a.5.5 0 01-.143.141.537.537 0 00-.146.131l-.11.143a1.015 1.015 0 00-.149.324 1.039 1.039 0 00-.038.265.737.737 0 00.109.387 1.006 1.006 0 00.592.438l.028.014a2.771 2.771 0 001.319.125 6.461 6.461 0 00.87-.173l.05-.011a.506.506 0 00.155-.042c.029-.014.136-.048.228-.076.174-.044.52-.171.865-.3.072-.03.132-.046.165-.06a1.442 1.442 0 01.139.147c.249.288.3.341.487.389a.514.514 0 00.506-.088.375.375 0 00.121-.166l.01-.062a.4.4 0 00-.185-.3l-.073-.083-.09-.207-.021-.058c.019-.009.046-.023.091-.041l.3-.154.32-.161.359-.171.327-.17a2.092 2.092 0 00.531-.346l-.01.018.051-.03a2.632 2.632 0 00.255-.177.78.78 0 00.366-.563c.006-.274-.005-.4-.085-.489m-2.852-1.972a1.68 1.68 0 01-.345.281.37.37 0 00-.179.182l.007-.011-.05.06-.124.138-.08.057a2.602 2.602 0 00-.232.136l-.014.009c.071-.186.232-.544.262-.6l.1-.169a3.1 3.1 0 01.367-.518 1.349 1.349 0 01.508-.346.706.706 0 01.364-.062h.035a1.041 1.041 0 01-.095.217l-.164.17a2.259 2.259 0 00-.194.228l-.07.095a.6.6 0 00-.089.122m-3.038 3.292a2.591 2.591 0 00.257-.178l.408-.311a3.839 3.839 0 01.441-.288c.014.034.036.082.059.15.053.138.136.324.186.419l.134.251a1.18 1.18 0 00.254.348l.072.109a.332.332 0 00.131.166l.045.074-.058.055-.068.021a2.219 2.219 0 00-.355.115c-.205.077-.785.249-1.129.325a4.867 4.867 0 01-1.2.078c-.114-.018-.119-.023-.148-.1l-.015-.048a.5.5 0 01.026-.1 1.14 1.14 0 01.276-.446.312.312 0 00.115-.131.89.89 0 01.193-.192 1.86 1.86 0 00.277-.253l.1-.066zm1.929.562l.005-.011-.005.016" fill="#323333"/><path d="M51.245 13.619h.069c.132.115.241.235.4.369.109.088.384.221.41.357.021.1-.067.242-.094.408-.06.357-.144.618-.4.726-.949.408-.977-1.567-.385-1.86zm6.295 7.202c.988-.062 2.307-.062 3.454-.095a2.2 2.2 0 011.025.12 1.737 1.737 0 01.905 1.058.6.6 0 01-.165.6 1.534 1.534 0 01-.891.044c-.866-.15-1.614-.4-2.479-.535-.974-.154-1.564.385-2.412.535-.36.059-.8.055-.929-.21a1.209 1.209 0 01.026-.793c.1-.348.2-.683.494-.783.258-1.265 0-3.215.137-4.67.036-.382.043-1 .547-.834.314.1.428.7.48 1.113a20.89 20.89 0 01-.191 4.449zm-13.15-.658c1.483.546 2.9 1.152 4.3 1.779.078-.274.147-.65.2-.986s.078-.721.4-.765c.066.057.048.2.069.3a8.1 8.1 0 00.411 1.067 4.349 4.349 0 01.356 1.124c.056.56-.184.944-.725.848a6.417 6.417 0 01-1.261-.479 23.839 23.839 0 00-3.685-1.52 6.142 6.142 0 01.095 2.34c-.07.205-.194.456-.411.466-.3.014-.487-.366-.575-.629a3.481 3.481 0 00-.3-.887c-.068-.095-.176-.115-.275-.182.1-.594.345-1.445-.193-1.723-.137-.074-.285-.047-.343-.138-.077-.133.019-.44.055-.59a12.279 12.279 0 01.534-1.518.529.529 0 01-.3-.534 1.538 1.538 0 01.644-1.15 4.8 4.8 0 011.094-.692 8.137 8.137 0 012.74-.836 2.009 2.009 0 01.452 0 1.861 1.861 0 011.727 1.527 2.261 2.261 0 01-.357 1.269 3.612 3.612 0 01-1.726 1.52 1.9 1.9 0 01-1.027.136 2.835 2.835 0 00-.316-.083c-.09 0-.207.074-.327.083-.221.023-.49-.025-.672.018-.216.048-.337.219-.589.231zm3.2-2.4c.258-.159.706-.41.712-.754.008-.242-.237-.468-.437-.578a2.14 2.14 0 00-1.027-.2 2.341 2.341 0 00-2.494 2.673 10.328 10.328 0 003.245-1.136zm-23.654 4.402v-.249a3.192 3.192 0 011.136-1.64 14.152 14.152 0 015.521-2.781c1.377-.434 2.773-.9 4.232-1.3a13.073 13.073 0 012.289-.478c.4-.037.863-.065 1.314-.065.42 0 1.121-.053 1.205.188a.524.524 0 01-.258.537 4.013 4.013 0 01-.4.064 1.519 1.519 0 01-.384.083c-.06-.016-.045-.023-.068-.067-.044-.087.021-.053-.069-.08a2.127 2.127 0 00-.562.027 14.245 14.245 0 00-3.412.738c-1.191.38-2.3.808-3.494 1.244a40.74 40.74 0 00-3.355 1.387 13.719 13.719 0 00-2.273 1.272c-.189.136-.56.424-.576.615-.016.216.363.38.576.451a4.974 4.974 0 00.8.194 39.745 39.745 0 005.394.562 44 44 0 007.618-.108 8.274 8.274 0 01-.932-.509c-.081-.076-.11-.163-.192-.2a3.842 3.842 0 00-.6-.152 2.3 2.3 0 00-.328-.055c-.1 0-.22.067-.261-.067a2.352 2.352 0 01-1.013.169 23.166 23.166 0 01-2.342-.047c-.349-.016-.8-.064-.852-.341a.562.562 0 01.247-.491 3.065 3.065 0 011.247-.5 8.98 8.98 0 011.671-.047c.561.023 1.137.062 1.7.071a7.247 7.247 0 001.657-.111c.174-.043.29-.163.451-.191a1.42 1.42 0 01.9.221c.433.268.474.94.37 1.518.468.281 1.189.38 1.549.749a.628.628 0 01.15.265c.2.737-.735.872-1.383.781a.87.87 0 00-.48-.016c-.133.055-.225.375-.273.605-.055.254-.1.507-.137.71a40.586 40.586 0 00-.756 4.315c-.131 1.5-.241 3.168-.368 4.686-.036.427-.017 1.272-.385 1.318-.433.048-.628-.624-.684-1.049a9.965 9.965 0 01-.015-1.64c.057-1.184.162-2.152.3-3.119.3-2.032.746-3.905 1.07-5.756-2.883-.071-5.72.194-8.617.131a17.955 17.955 0 01-5.808-.763c-.516-.2-1.033-.466-1.123-1.069zm40.302-1.604a6 6 0 001.823.193 1.832 1.832 0 00.618-.018c.1-.039.109-.2.246-.258a1.75 1.75 0 011.206.233c.331.182.781.5.726.917-.078.581-.905.526-1.577.479a14.9 14.9 0 00-2.643-.147c-.369.032-1.013.194-1.288-.025-.311-.249-.173-1.088-.1-1.539.228-1.344.014-2.968.4-4.122.061-.181.2-.606.371-.618h.012a1.33 1.33 0 01.6.935c.349 1.387-.263 2.793-.4 3.97zm-11.648-4.41l.027-.016c.159.021.308.571.357.744a16.909 16.909 0 01.521 2.753 12.14 12.14 0 01.109 2.067 2.716 2.716 0 01-.192.905c-.108.249-.283.551-.534.544-.235 0-.386-.3-.467-.5a6.862 6.862 0 01-.232-2.628c.041-.973.18-1.765.2-2.685.013-.4-.13-1.127.207-1.18z" fill="#323333" fill-rule="evenodd"/><path fill="none" d="M0 0h70v36H0z"/></svg>