<svg xmlns="http://www.w3.org/2000/svg" xmlns:xlink="http://www.w3.org/1999/xlink" width="63.636" height="69.464"><defs><clipPath id="c"><path d="M519.906 737.027h.257c.383 0 .829-.006.693.412v.28a3.036 3.036 0 00-1.288-.211.4.4 0 01.338-.485m9.8-1.039c-.188-.3.016-.731-.171-1.037.11-.185.669-.308.347-.554.516-.068 1.026-.137 1.542-.2l1.2.758a4.127 4.127 0 00.085 1.249l-.169.273a5.076 5.076 0 00-.952 0c-.185.012-.37.023-.552.023a1.609 1.609 0 01-1.333-.507m6.094-3.051c.108-.007.218-.013.281.069l.084-.069c.6.2.3.649.254 1.038a.887.887 0 01-.855.279c-.136-.191-.382-.156-.517-.347-.018-.39.381-.65.6-.97a.407.407 0 00.06 0h.09m-.379-3.025c-.416-.375.17-.758.347-1.107.1.115.322.1.543.077.3-.026.6-.053.567.272.077.314-.135.533-.34.758a1.892 1.892 0 01-.562.077 1.85 1.85 0 01-.557-.077m-3.267-2.164c-.416-.375.169-.757.347-1.106.1.115.323.1.543.077.3-.027.6-.053.567.272.076.314-.135.532-.339.757a1.9 1.9 0 01-.562.077 1.834 1.834 0 01-.556-.077m-6.078-1.6c.078 0 .155-.011.2.049l.061-.049c.43.141.212.464.182.742a.636.636 0 01-.611.2c-.1-.136-.274-.111-.37-.249-.013-.277.273-.463.431-.692a.3.3 0 00.043 0h.064m-10.117 10.6a5.151 5.151 0 00-.347-2.424 4.8 4.8 0 00.085-2.355 1.067 1.067 0 00.093-.97l-.093-.068c.1-.143-.1-.444.093-.621 0-.881.128-1.973-.779-2.636a13.376 13.376 0 00-.424-1.727 24.685 24.685 0 014.9.968l.085-.068a23.666 23.666 0 013.949 1.244l.085-.069 2.068.622a.487.487 0 01.316.025.5.5 0 00.454-.025l.084.074a1.944 1.944 0 011.035.205c.762.4 2.1.054 2.924.553a12.729 12.729 0 002.059.136.3.3 0 00.169.348c-.152.211-.059.594-.085.765a2.255 2.255 0 00.085.757 5.732 5.732 0 010 2.493.687.687 0 01-.554-.34c-.2-.25-.38-.5-.818-.213a2.538 2.538 0 00-.333 0 1.993 1.993 0 01-.438 0c-.382.382-1.119.349-1.289.832a2.079 2.079 0 00-.517 2.629 4.242 4.242 0 003.263 1.387l.516-.205c.1.3.2.778-.083 1.038a6.56 6.56 0 01-1.286-.119 5.06 5.06 0 00-1.553-.092c-.459-.219-1.085-.123-1.543-.342-.178.13-.415-.027-.6-.075h-1.466a1.226 1.226 0 00-.8-.136 2.4 2.4 0 01-.407 0 .736.736 0 00-.152 0c-.108.007-.215.014-.273-.068l-.084.068c-.983-.534-3.457.361-3.1-1.318-.348-.587-1.026-.342-1.542-.205-.254.205-.567.458-.772.621-1.025-.327-2.008-.15-2.924-.689m18.134-.348l.085-.068c-.372-.73-.3-1.351-.686-2.076a1.4 1.4 0 00-.093-.621 6.616 6.616 0 00.178-3.188c.229-.157-.058-.321-.084-.485a1.167 1.167 0 00.941-.833c.771-.546 1.026-1.215 1.806-1.728a5.228 5.228 0 011.456-2.007l.093.068a6.206 6.206 0 00-.093 1.523l.093.067a1.573 1.573 0 01-.178.622l.084.211a5.527 5.527 0 00-.334.894c-.127-.3-.013-.786-.568-.6a2.6 2.6 0 00-1.2.341c-.22.39-.618.717-.6 1.182a2.032 2.032 0 001.034 1.037c.608.134.65-.43 1.1-.536a26.167 26.167 0 00.065 3.152l-.023.025a1.007 1.007 0 00-.141-.584c-.416-.295-.508-.943-1.2-.9-1.034-.075-1.1.869-1.636 1.319a2.835 2.835 0 00-.169.833 7.763 7.763 0 01.516.757 3.715 3.715 0 001.182.415c-.468.7-.9 1.411-1.448 2.084-.186-.252.017-.642-.17-.9m-4.78-10.881c-.474-.427.192-.862.394-1.259.114.131.368.109.619.087.345-.03.684-.06.646.31.085.357-.155.606-.387.862a2.172 2.172 0 01-.64.088 2.1 2.1 0 01-.632-.088m6.539-1.884a1.234 1.234 0 00.555.024l.084.069c.088-.112.175-.072.26-.033.086.04.172.081.258-.036a.283.283 0 010 .417c-.8.785-1.985 1.25-2.23 2.219a4.572 4.572 0 01-.574.645.187.187 0 010-.167c-.322-.226-.016-.983-.686-.757a2.591 2.591 0 00-1.2.341c-.22.39-.618.717-.6 1.182a1.8 1.8 0 00.867.936 3.33 3.33 0 00-.129.171.739.739 0 00-.153 0c-.109.009-.218.017-.28-.07h-.772a27.854 27.854 0 00-3.78-.553c-.118-.076-.338-.158-.431-.069a2.817 2.817 0 00-.719-.183.787.787 0 00.132-.038c.08-.59.872-1 .49-1.684-.3-.21-.363-.673-.86-.644-.739-.054-.787.619-1.168.942a2.061 2.061 0 00-.122.6 5.83 5.83 0 01.37.542 3.5 3.5 0 00.587.244 2.593 2.593 0 01-1.458-.394 4.027 4.027 0 01-1.551-.281 32.483 32.483 0 00-3.78-.968l-.084.067c-.677-.273-1.551-.293-2.152-.552a17.07 17.07 0 013.61-1.107 1.314 1.314 0 00.554-.076 1.21 1.21 0 01.649-.06c.087-.091.189-.06.292-.029.107.033.215.064.311-.04a5.831 5.831 0 001.889 0l.085.069a7.341 7.341 0 011.906-.137 6.228 6.228 0 002.135-.211c.179.136.417-.02.6-.068a2.532 2.532 0 00.7.073c-.256.413-.66.774-.643 1.274a2.315 2.315 0 001.177 1.182c.743.163.743-.59 1.372-.63-.05-.342.491-.575.289-.871.25-.172-.126-.326 0-.552-.169-.117-.187-.36-.231-.566a1.6 1.6 0 00.431-.121 8.022 8.022 0 002.492-.069.413.413 0 00.43.02.416.416 0 01.341-.02 1.169 1.169 0 01.733-.024m-1.336-1.014a4.138 4.138 0 00-.444 0 3.454 3.454 0 01-.58 0c-1.118.1-2.287.082-3.356.279a.881.881 0 00-.645-.026.949.949 0 01-.473.026 3.976 3.976 0 00-1.119.274.9.9 0 00-.464.034.894.894 0 01-.477.033.687.687 0 01-.441.073 1.621 1.621 0 00-.246 0 5.786 5.786 0 01-1.288.137 6.389 6.389 0 01-2.407.347 32.374 32.374 0 00-5.5.69.852.852 0 00-.433.034.817.817 0 01-.432.034c-.254.049-.55.227-.771.138-.347.225-.856.129-1.2.347a1.572 1.572 0 00-1.119 0c-.043.526-.6.881-.516 1.455-.06.1.211.136 0 .21a2.136 2.136 0 01.178.69 4.12 4.12 0 01.6 1.523 5.478 5.478 0 00.254 2.007 2.423 2.423 0 01.264 1.174 3.7 3.7 0 010 1.667l.083.067c-.3.513.187.854 0 1.318.339.39.043.737.255 1.175-.212.656.592.929 1.117 1.386.221-.259.636-.075.856.068a.268.268 0 00.135-.035c.079-.035.153-.07.212.035a2.232 2.232 0 011.636.205 4.433 4.433 0 001.111.143c.039.084.134.076.225.069a.529.529 0 01.123 0c1.492.888 3.287.574 5.067.9l.085-.068c1.152.342 2.11.43 3.27.758a.829.829 0 01.428.035.829.829 0 00.429.034c.084-.02.128.034.168.068l.094-.068c.229.02.449.259.686.068a13.06 13.06 0 012.744.553l.085-.068a1.564 1.564 0 00.78.068l.084.076c.356-.014.535-.4.856-.486-.34-.314.263-.485.263-.764a7.072 7.072 0 001.543-1.8c.117-1.14 1.142-1.98 1.719-2.976.135-.117.34-.22.253-.411.161-.287.06-.738.086-.969a9.186 9.186 0 000-2.7.892.892 0 00.092-.621c.364-.566.253-1.032.423-1.591a10.01 10.01 0 00-.085-2.007c-.016-.1.2-.2 0-.279l.085-.069c-.128-.423.264-.922 0-1.386.347-.43-.3-.7-.085-1.175a3.8 3.8 0 00-2.922-.7 2.479 2.479 0 00-.642-.078 2.557 2.557 0 00-.648.078" transform="translate(-512.594 -722.549)" fill="none"/></clipPath><clipPath id="d"><path transform="rotate(-59.246 55.568 31.596)" fill="none" d="M0 0h73.534v73.509H0z"/></clipPath><clipPath id="e"><path d="M524.242 730.437a1.762 1.762 0 01.7.015c-.14.287.318.932-.394.83-.444.071-.915-.052-1.031-.41v-.318c.116.04.192-.04.255-.1a.909.909 0 00.159.013 2.338 2.338 0 00.312-.029m.7-1.1a.72.72 0 01-.151 0c-.56.58-1.686.5-1.889 1.319-.323.572.144 1.057.6 1.453a2.848 2.848 0 002.229-.416c-.313-.69.279-1.428-.169-2.076.169-.076-.025-.2-.084-.28-.1.007-.2-.014-.263.068a.2.2 0 00-.183-.073h-.09" transform="translate(-522.794 -729.333)" fill="none"/></clipPath><clipPath id="f"><path transform="rotate(-59.25 3.26 1.854)" fill="none" d="M0 0h4.313v4.509H0z"/></clipPath><clipPath id="h"><path d="M518.689 728.789c.109-.007.217-.014.28.069l.084-.069c.6.2.3.649.254 1.038a.887.887 0 01-.855.279c-.136-.19-.382-.155-.517-.347-.017-.389.381-.649.6-.969a.411.411 0 00.06 0h.09m-1.618.279a2.871 2.871 0 00-.169.833 7.953 7.953 0 01.517.758 2.377 2.377 0 001.8.347c.11-.825 1.22-1.4.686-2.354-.416-.294-.508-.943-1.2-.9h-.113c-.926 0-1.008.889-1.522 1.322" transform="translate(-516.9 -727.747)" fill="none"/></clipPath><clipPath id="i"><path transform="matrix(.511 -.859 .859 .511 0 4.169)" fill="none" d="M0 0h4.852v4.852H0z"/></clipPath><clipPath id="k"><path d="M525.6 734.288c.349 0 .769-.009.775.349-.109.266.221.47 0 .689a.519.519 0 00-.452-.034c-.176.04-.346.081-.488-.1-.321.115-.466-.192-.516-.348a.737.737 0 01.516-.554h.165m.606-.621a2.646 2.646 0 00-2.321 1.107c.211.559.186 1.27.948 1.59a1.478 1.478 0 00.856-.273.442.442 0 00.438-.017c.16-.063.312-.126.418.017l.694-.486c.144-.279.449-.587.424-.832.025-.157.322-.328.083-.486l.094-.067c-.161-.048-.06-.184-.094-.28a1.963 1.963 0 00-1.074-.346 1.521 1.521 0 00-.467.072" transform="translate(-523.886 -733.595)" fill="none"/></clipPath><clipPath id="l"><path transform="rotate(-59.25 55.567 31.6)" fill="none" d="M0 0h73.507v73.531H0z"/></clipPath><clipPath id="n"><path d="M519.3 733.81c-.416-.376.17-.758.347-1.107.1.115.322.1.542.077.3-.026.6-.053.568.272.075.314-.136.533-.34.758a1.927 1.927 0 01-.562.077 1.871 1.871 0 01-.557-.077m1.372-1.728a2.587 2.587 0 00-1.2.341c-.221.389-.619.718-.6 1.181a2.035 2.035 0 001.035 1.038c.653.144.653-.517 1.2-.553-.043-.3.432-.5.253-.764.221-.152-.11-.287 0-.486-.281-.2-.084-.8-.475-.8a.681.681 0 00-.211.042" transform="translate(-518.869 -732.04)" fill="none"/></clipPath><clipPath id="o"><path transform="matrix(.511 -.859 .859 .511 0 63.174)" fill="none" d="M0 0h73.512v73.512H0z"/></clipPath><clipPath id="q"><path d="M522.04 725.276c.061 0 .124-.009.158.038l.048-.038c.339.111.167.365.143.584a.5.5 0 01-.481.157c-.077-.108-.215-.088-.291-.2-.01-.219.214-.366.338-.546a.2.2 0 00.035 0h.05m-.91.157a1.633 1.633 0 00-.094.468 4.593 4.593 0 01.291.427 1.343 1.343 0 001.015.2c.062-.465.686-.788.386-1.325-.233-.165-.286-.531-.677-.508h-.063c-.521 0-.568.5-.858.744" transform="translate(-521.035 -724.69)" fill="none"/></clipPath><clipPath id="r"><path transform="matrix(.511 -.859 .859 .511 0 63.165)" fill="none" d="M0 0h73.502v73.502H0z"/></clipPath><radialGradient id="a" cx=".813" cy=".06" r=".333" gradientTransform="matrix(0 1 1 0 -2.587 2.588)" gradientUnits="objectBoundingBox"><stop offset="0" stop-color="#f2ff2a"/><stop offset=".5" stop-color="#f2ff2a"/><stop offset="1" stop-color="#fac21f"/></radialGradient><radialGradient id="g" cx=".793" cy="-1.524" r="5.435" gradientTransform="matrix(0 1 1.045 0 -49.362 46.579)" xlink:href="#a"/><radialGradient id="j" cx="1.07" cy="-.3" r="5.05" gradientTransform="matrix(0 1 1 0 -42.993 42.993)" xlink:href="#a"/><radialGradient id="m" cx="1.024" cy="-.136" r=".333" gradientTransform="matrix(0 1 1 0 -2.371 2.369)" xlink:href="#a"/><radialGradient id="p" cx="1.049" cy="-.075" r=".333" gradientTransform="matrix(0 1 1 0 -2.316 2.316)" xlink:href="#a"/><radialGradient id="s" cx=".96" cy="-.047" r=".333" gradientTransform="matrix(0 1 1 0 -2.436 2.436)" xlink:href="#a"/><linearGradient id="b" x1=".5" y1="1" x2=".5" gradientUnits="objectBoundingBox"><stop offset=".006" stop-color="#fffac6"/><stop offset=".063" stop-color="#fff8bd"/><stop offset=".156" stop-color="#fff5a5"/><stop offset=".272" stop-color="#fff07e"/><stop offset=".408" stop-color="#ffea48"/><stop offset=".558" stop-color="#ffe104"/><stop offset=".567" stop-color="#ffe100"/><stop offset=".787" stop-color="#fcd100"/><stop offset="1" stop-color="#f9be00"/></linearGradient></defs><path d="M5.235 66.907a1.88 1.88 0 00.9.32.745.745 0 00.519-.26 1.463 1.463 0 00.24-.339l.4.339a3.509 3.509 0 01-.459.519 1.07 1.07 0 01-.759.3 2.039 2.039 0 01-.939-.36 1.571 1.571 0 00-.759-.279.631.631 0 00-.519.22 1.021 1.021 0 00-.22.339l-.419-.259a2.143 2.143 0 01.44-.56.969.969 0 01.679-.279 1.792 1.792 0 01.896.299zm4.474 1.318a5.416 5.416 0 00.878-2.257l.48.12c.107.039.1.08-.02.12a7.188 7.188 0 01-.9 2.3zm2.018.56V65.15h.439c.133.026.14.08.02.159v3.736a.229.229 0 01-.259.259h-.56l-.16-.44h.44a.071.071 0 00.08-.079zm2.5-.778l-.5.219a8.371 8.371 0 00-.979-2.057l.379-.2a7.562 7.562 0 011.096 2.037zm5.049-2.358l.06.379a9.854 9.854 0 01-1 .16 4.709 4.709 0 00.959 1.338l-.3.379a2.032 2.032 0 00-1.219-.419.854.854 0 00-.658.22.576.576 0 00-.181.419.561.561 0 00.3.539 3.468 3.468 0 001.559.24l-.08.44a3.128 3.128 0 01-1.838-.4.892.892 0 01-.36-.739.943.943 0 01.34-.779 1.038 1.038 0 01.759-.32 2.863 2.863 0 01.879.14 10.38 10.38 0 01-.58-1 12.362 12.362 0 01-1.458.16l-.04-.419c.373-.027.819-.074 1.339-.14q-.141-.4-.28-.819l.4-.12c.094.332.187.626.28.878q.681-.057 1.119-.137zm2.198.479v-.44h.858a41.2 41.2 0 00.12-.8l.419.08-.12.719h.82v.44h-.9a10.574 10.574 0 01-.859 2.717l-.379-.24a9.143 9.143 0 00.819-2.477zm2.6.68h.4v1.279q.32.18.639.4l-.24.379a4.572 4.572 0 00-.419-.3.846.846 0 01-.339.639 1.272 1.272 0 01-1.339-.02.707.707 0 01-.259-.6.778.778 0 01.279-.619.953.953 0 01.619-.179 1.981 1.981 0 01.659.119zm-.619 1.358q-.54 0-.539.419c0 .267.186.4.56.4a.6.6 0 00.44-.18.627.627 0 00.159-.46 1.119 1.119 0 00-.623-.179zm.379-2.317a5.522 5.522 0 011.258.4l-.139.419a5.024 5.024 0 00-1.239-.419zm5.61.859h1.419v.379h-1.419v.34a2.112 2.112 0 01-1.3 1.977l-.26-.359a1.635 1.635 0 001.158-1.618v-.34h-1.678v-.379h1.678v-.919a11.058 11.058 0 01-1.278.14l-.159-.379a14.183 14.183 0 002.776-.419l.2.4a9.4 9.4 0 01-1.139.2zm7.011.2v.44h-3.478v-.44zm4.496.599a11.552 11.552 0 011.279 1.378l-.32.4a8.068 8.068 0 00-1.179-1.438 4.273 4.273 0 01-1.858 1.558l-.239-.4a3.906 3.906 0 001.7-1.358 2.823 2.823 0 00.639-1.678h-2.018v-.44h2.456v.36a3.142 3.142 0 01-.46 1.618zm.919-2.617v.779h-.34v-.779zm.539 0v.779h-.34v-.779zm5.233 1.019a1.8 1.8 0 01.419 1.2 2.2 2.2 0 01-.26 1.1 2.515 2.515 0 01-1.138.959l-.32-.419a1.59 1.59 0 001.238-1.478 1.368 1.368 0 00-.359-1.2 1.4 1.4 0 00-.959-.3 1.328 1.328 0 00-1 .479 1.922 1.922 0 00-.44 1.219 1.822 1.822 0 00.12.739c.08.146.173.22.279.22.213 0 .394-.207.539-.62a9.478 9.478 0 00.4-1.9l.439.04a6.42 6.42 0 01-.659 2.5.839.839 0 01-.739.46.616.616 0 01-.5-.32 1.879 1.879 0 01-.3-1.278 2.375 2.375 0 01.48-1.238 1.775 1.775 0 011.438-.719 1.732 1.732 0 011.322.556zm2.556 3.196a2.2 2.2 0 00.46-1.378v-2.282h1.638v-.56h.44c.132.027.139.08.019.159v.4h1.779v.379h-3.478v1.922a2.733 2.733 0 01-.519 1.678zm2.6-3.056c.107.013.113.053.02.12v.419h1.6v.379h-1.6v.619h1.338v1.838h-.4v-.22h-1.86v.26h-.4v-1.878h.919v-1.541zm.959 2.777v-.859h-1.861v.859zm5.291-1.919a1.883 1.883 0 00.9.32.748.748 0 00.52-.26 1.5 1.5 0 00.239-.339l.4.339a3.57 3.57 0 01-.46.519 1.07 1.07 0 01-.759.3 2.039 2.039 0 01-.939-.36 1.571 1.571 0 00-.759-.279.631.631 0 00-.519.22 1.024 1.024 0 00-.22.339l-.419-.259a2.145 2.145 0 01.44-.56.969.969 0 01.679-.279 1.792 1.792 0 01.897.299z" fill="#41210d"/><path d="M525.56 772.046a31.817 31.817 0 1131.816-31.816 31.853 31.853 0 01-31.816 31.816" transform="translate(-493.742 -708.342)" fill="url(#b)"/><path d="M31.817 63.636a31.818 31.818 0 1131.819-31.818 31.854 31.854 0 01-31.819 31.818m0-61.663a29.845 29.845 0 1029.841 29.845A29.877 29.877 0 0031.812 1.973" fill="#41210d"/><path d="M3.491 24.256l3.35 1.122-.235 1.115q-.823-.014-1.858-.11.422.145 1.749.63l-.234 1.108-3.519-.324.183-.868 1.219.158 1.177.154q-.888-.239-2.3-.745l.2-.926q.156.013 1.153.141l1.328.177q-1.232-.338-2.387-.763zm3.32-3.234c.326.133.554.235.684.305a.842.842 0 01.439.73 1.306 1.306 0 01-.106.518 1.345 1.345 0 01-.276.435.849.849 0 01-.825.229 7.258 7.258 0 01-.712-.263l-.556-.226a7.753 7.753 0 01-.684-.305.841.841 0 01-.44-.73 1.432 1.432 0 01.382-.952.831.831 0 01.392-.23.843.843 0 01.434 0 7.46 7.46 0 01.712.262zm-1.413.411a1.039 1.039 0 00-.3-.093.108.108 0 00-.106.078.122.122 0 00.011.122.772.772 0 00.288.158l1.517.618a1.623 1.623 0 00.359.119.11.11 0 00.11-.081.112.112 0 00-.032-.141 1.755 1.755 0 00-.353-.173zm.456-3.213l.333-.553a4.987 4.987 0 01.5-.723.608.608 0 01.411-.188 1.168 1.168 0 01.634.215 1.017 1.017 0 01.418.372.537.537 0 01-.062.43.69.69 0 01.342-.218.526.526 0 01.237.008 3.226 3.226 0 01.457.248l.792.479-.438.726-1-.6a.808.808 0 00-.321-.142c-.055 0-.114.057-.178.164l1.354.819-.472.781zm.985-.47l.669.4a.4.4 0 00.075-.206c0-.05-.071-.114-.2-.195l-.165-.1A.287.287 0 007 17.587a.338.338 0 00-.158.159m2.057-4.142l2.173 1.777.352-.43.544.445-.93 1.136-2.717-2.222zm2.183-2.476l.5-.462a4.317 4.317 0 01.7-.56.7.7 0 01.4-.093.637.637 0 01.322.126 4.524 4.524 0 01.473.471l.831.906a2.83 2.83 0 01.394.5.47.47 0 01.055.288.648.648 0 01-.116.277 2.47 2.47 0 01-.337.358l-.848.778zm1.079-.175l1.561 1.7c.1-.089.139-.164.126-.223a1.189 1.189 0 00-.258-.348l-.921-1a1.84 1.84 0 00-.218-.215.142.142 0 00-.117-.026.433.433 0 00-.172.114m7.751-3.631c.167.311.277.536.332.672a.838.838 0 01-.128.843 1.445 1.445 0 01-.9.49.845.845 0 01-.781-.349 7.357 7.357 0 01-.382-.656l-.283-.53q-.25-.467-.332-.672a.836.836 0 01.128-.842 1.293 1.293 0 01.412-.332 1.331 1.331 0 01.491-.157.845.845 0 01.781.349 7.361 7.361 0 01.382.657zm-1.349-.584a1.086 1.086 0 00-.173-.264.109.109 0 00-.13-.007.124.124 0 00-.07.1.781.781 0 00.121.305l.775 1.445a1.6 1.6 0 00.2.322.11.11 0 00.136.008.112.112 0 00.065-.129 1.73 1.73 0 00-.162-.359zm2.512-2.185l1.453-.527.24.66-.595.216.227.626.53-.193.228.628-.529.193.5 1.385-.858.311zm8.802-.434l-.907.1-.065-.606a1.12 1.12 0 00-.064-.328.127.127 0 00-.135-.052.138.138 0 00-.134.095 1.251 1.251 0 00.007.348l.175 1.621a1.166 1.166 0 00.065.328.13.13 0 00.145.063.128.128 0 00.124-.092 1.263 1.263 0 00-.009-.369l-.046-.439.907-.1.014.135a2.7 2.7 0 01.007.777.785.785 0 01-.3.433 1.153 1.153 0 01-.627.24 1.342 1.342 0 01-.673-.074.707.707 0 01-.386-.363 2.672 2.672 0 01-.167-.759L27.7 4.06a4.734 4.734 0 01-.035-.569.787.787 0 01.116-.379.857.857 0 01.325-.314 1.47 1.47 0 011.19-.072.744.744 0 01.384.35 2.318 2.318 0 01.159.711zm4.425-1.481l-.179 3.505-.911-.047.075-1.473-.273-.014-.075 1.473-.911-.046.179-3.5.911.046-.064 1.253.273.014.064-1.253zm2.513.334l1.493.3-.136.689-.6-.118-.129.653.559.111-.13.655-.559-.11-.15.757.657.13-.137.69-1.552-.307zm3.915.936l1.44.492-.228.664-.576-.2-.216.63.539.185-.216.631-.539-.185-.25.731.634.217-.227.664-1.5-.512zm4.973 3.281l-.754-.387.119-.231a.527.527 0 00.077-.222.12.12 0 00-.074-.094.138.138 0 00-.141 0 .391.391 0 00-.131.163.563.563 0 00-.079.256.7.7 0 00.131.309 2.619 2.619 0 01.413.878 1.362 1.362 0 01-.2.738 1.3 1.3 0 01-.33.451.678.678 0 01-.438.11 1.481 1.481 0 01-1.069-.567.679.679 0 01-.14-.469 1.772 1.772 0 01.206-.579l.1-.2.754.386-.195.381a.555.555 0 00-.084.242.138.138 0 00.087.107.149.149 0 00.154 0 .411.411 0 00.136-.169.658.658 0 00.109-.4 2.678 2.678 0 00-.235-.478 4.209 4.209 0 01-.251-.5.769.769 0 01-.035-.335 1.237 1.237 0 01.145-.442 1.291 1.291 0 01.36-.478.7.7 0 01.43-.107 1.314 1.314 0 01.541.159 1.447 1.447 0 01.487.378.641.641 0 01.164.409 1.548 1.548 0 01-.2.565zm2.641.382l1.241.881-.407.572-.5-.352-.385.543.464.33-.386.545-.465-.33-.447.629.546.388-.406.573-1.291-.916zm3.759 5.656l-.41.427-.285-.057-.184.633-.585-.562.059-.213a1.426 1.426 0 01-.743-.341.715.715 0 01-.248-.59.941.941 0 01.276-.584.73.73 0 01.4-.239.838.838 0 01.445.061.789.789 0 01.217-.727.756.756 0 01.587-.254.975.975 0 01.645.311.838.838 0 01.292.584.746.746 0 01-.224.557.871.871 0 01-.634.266l-.164.617zm-1.347-.265l.124-.536a.425.425 0 00-.338.117.285.285 0 00-.092.169.182.182 0 00.066.148.45.45 0 00.24.1m.8-1.113a.614.614 0 00.362-.165.236.236 0 00.065-.13.137.137 0 00-.043-.13.132.132 0 00-.111-.041.24.24 0 00-.128.08.543.543 0 00-.145.386m5.183 4.548l-3.082 1.726-.668-.924q.564-.6 1.329-1.3-.389.216-1.64.872l-.663-.919 2.606-2.387.518.719-.936.8-.9.769q.773-.5 2.1-1.206l.555.769q-.112.105-.879.758l-1.024.864q1.078-.682 2.17-1.253zm-2.002 3.575l3.13-1.588.413.814-3.13 1.587zm5.185 3.48l-3.315 1.154-.263-.755 1.351-.973-1.507.525-.251-.721 3.315-1.154.25.721-1.324 1 1.492-.52zm.588 2.449l.286 1.495-.69.132-.114-.6-.654.126.107.56-.656.126-.107-.56-.758.145.126.658-.69.132-.3-1.554z" fill="#41210d"/><path d="M31.818 57.087a25.265 25.265 0 1125.266-25.268 25.293 25.293 0 01-25.266 25.268m0-49.492a24.227 24.227 0 1024.228 24.228A24.255 24.255 0 0031.818 7.587" fill="#41210d"/><path d="M31.818 55.233a23.415 23.415 0 1123.415-23.415 23.442 23.442 0 01-23.415 23.415m0-46.207a22.792 22.792 0 1022.788 22.792A22.819 22.819 0 0031.815 9.026" fill="#41210d"/><path d="M31.818 55.234a23.415 23.415 0 1123.415-23.416 23.442 23.442 0 01-23.415 23.416" fill="#41210d"/><g clip-path="url(#c)" transform="translate(18.094 13.639)"><g clip-path="url(#d)" transform="translate(-30.551 -11.633)"><path transform="rotate(-59.246 55.568 31.596)" fill="url(#a)" d="M0 0h73.534v73.509H0z"/></g></g><g clip-path="url(#e)" transform="translate(27.885 20.151)"><g clip-path="url(#f)" transform="translate(-1.337 -1.669)"><path transform="rotate(-59.25 3.26 1.854)" fill="url(#g)" d="M0 0h4.313v4.509H0z"/></g></g><g clip-path="url(#h)" transform="translate(22.228 18.628)"><g clip-path="url(#i)" transform="translate(-1.342 -1.655)"><path transform="matrix(.511 -.859 .859 .511 0 4.169)" fill="url(#j)" d="M0 0h4.852v4.852H0z"/></g></g><g clip-path="url(#k)" transform="translate(28.933 24.241)"><g clip-path="url(#l)" transform="translate(-36.871 -1.737)"><path transform="rotate(-59.25 55.567 31.6)" fill="url(#m)" d="M0 0h73.507v73.531H0z"/></g></g><g clip-path="url(#n)" transform="translate(24.118 22.749)"><g clip-path="url(#o)" transform="translate(-36.983 -1.158)"><path transform="rotate(-59.246 55.551 31.587)" fill="url(#p)" d="M0 0h73.512v73.512H0z"/></g></g><g clip-path="url(#q)" transform="translate(26.196 15.694)"><g clip-path="url(#r)" transform="translate(-36.998 -.876)"><path transform="matrix(.511 -.859 .859 .511 0 63.165)" fill="url(#s)" d="M0 0h73.502v73.502H0z"/></g></g><path d="M12.809 42.11a1.211 1.211 0 00.162.79 1.15 1.15 0 00.723.152 3.206 3.206 0 001.907-.488 3.394 3.394 0 001.084-1.682h.314l-.438 2.637h-6.6v-.3a1.116 1.116 0 00.791-.249 1.213 1.213 0 00.219-.83v-5.093a1.089 1.089 0 00-.219-.776 1.165 1.165 0 00-.779-.25v-.285h3.995v.285a1.587 1.587 0 00-.929.2 1.075 1.075 0 00-.229.821zm7.59.816a2.877 2.877 0 01-.846.557 2.421 2.421 0 01-.942.191 1.3 1.3 0 01-.936-.339 1.184 1.184 0 01-.352-.894 1.456 1.456 0 01.694-1.2 7.985 7.985 0 012.359-.964v-.869a1.007 1.007 0 00-.211-.706.868.868 0 00-.659-.224 1.3 1.3 0 00-.558.1.294.294 0 00-.194.269.7.7 0 00.163.305.732.732 0 01.163.429.63.63 0 01-.219.5.813.813 0 01-.56.193.743.743 0 01-.559-.21.782.782 0 01-.2-.569 1.168 1.168 0 01.614-1.006 2.908 2.908 0 011.6-.394 2.7 2.7 0 011.715.431 1.742 1.742 0 01.522 1.419v2.526a1.185 1.185 0 00.041.405.155.155 0 00.155.087.261.261 0 00.115-.034 1.277 1.277 0 00.159-.107l.152.241a2.044 2.044 0 01-.6.469 1.523 1.523 0 01-.679.155 1.036 1.036 0 01-.662-.188.772.772 0 01-.275-.573zm-.022-.487v-1.807a2.023 2.023 0 00-1.034.531 1.3 1.3 0 00-.347.924 1.218 1.218 0 00.137.652.478.478 0 00.43.21.8.8 0 00.407-.14 1.534 1.534 0 00.407-.369zm8.998-6.698a8.8 8.8 0 011.452.089 2.967 2.967 0 01.876.292 1.9 1.9 0 01.748.72 1.982 1.982 0 01.26 1.011 1.877 1.877 0 01-.752 1.586 3.408 3.408 0 01-2.1.572h-1.022v2.133a1.218 1.218 0 00.211.842 1.243 1.243 0 00.811.238v.3h-3.87v-.3a1.114 1.114 0 00.792-.25 1.213 1.213 0 00.219-.83v-5.091a1.093 1.093 0 00-.219-.776 1.166 1.166 0 00-.78-.25v-.285zm-.539 3.858h.334a1.562 1.562 0 001.2-.389 1.93 1.93 0 00.356-1.312 2.254 2.254 0 00-.306-1.332 1.159 1.159 0 00-.994-.408.66.66 0 00-.457.12.608.608 0 00-.127.445zm8.48 2.678a3.031 3.031 0 01-.977 1.063 2.308 2.308 0 01-1.257.351 2.033 2.033 0 01-1.659-.79 3.186 3.186 0 01-.638-2.067 2.926 2.926 0 01.666-1.984 2.134 2.134 0 011.686-.77 1.959 1.959 0 011.573.668 2.75 2.75 0 01.572 1.844v.09h-2.826a2.877 2.877 0 00.364 1.574 1.173 1.173 0 001.04.538 1.193 1.193 0 00.643-.188 1.961 1.961 0 00.56-.56zm-2.877-2.045h1.456c0-.044 0-.109.006-.195s.006-.149.006-.19a2.55 2.55 0 00-.163-1.077.554.554 0 00-.532-.319.618.618 0 00-.579.393 2.771 2.771 0 00-.194 1.181zm6.952 2.161a2.24 2.24 0 01-.685.96 1.6 1.6 0 01-1 .327 1.28 1.28 0 01-.977-.333 1.49 1.49 0 01-.311-1.043v-3.549h-.479v-.351q.682-.649 1.151-1.181a6.368 6.368 0 00.708-.94h.264v1.935h1.078v.537h-1.078v3.364a1.158 1.158 0 00.1.546.328.328 0 00.307.165.519.519 0 00.352-.146 1.39 1.39 0 00.3-.437zm2.644.178a.838.838 0 00.118.521.565.565 0 00.419.157v.274h-2.768l.006-.274a.639.639 0 00.454-.16.788.788 0 00.129-.518v-3.352a.941.941 0 00-.112-.572.627.627 0 00-.437-.14v-.286h2.187zm-1.684-6.091a.849.849 0 01.249-.621.871.871 0 011.228 0 .844.844 0 01.253.618.824.824 0 01-.251.608.843.843 0 01-.617.25.832.832 0 01-.61-.25.821.821 0 01-.252-.609zm6.323 5.913a2.242 2.242 0 01-.686.96 1.6 1.6 0 01-1 .327 1.279 1.279 0 01-.977-.333 1.49 1.49 0 01-.311-1.043v-3.549h-.48v-.351q.684-.649 1.151-1.181a6.454 6.454 0 00.709-.94h.263v1.935h1.079v.537h-1.079v3.364a1.16 1.16 0 00.1.546.329.329 0 00.308.165.517.517 0 00.351-.146 1.358 1.358 0 00.3-.437zm4.966-.116a3.043 3.043 0 01-.978 1.063 2.306 2.306 0 01-1.257.351 2.03 2.03 0 01-1.658-.79 3.181 3.181 0 01-.639-2.067 2.922 2.922 0 01.667-1.984 2.132 2.132 0 011.685-.77 1.962 1.962 0 011.574.668 2.749 2.749 0 01.571 1.844v.09h-2.826a2.876 2.876 0 00.364 1.574 1.174 1.174 0 001.04.538 1.194 1.194 0 00.644-.188 1.958 1.958 0 00.56-.56zm-2.877-2.045h1.455c0-.044 0-.109.006-.195s.006-.149.006-.19a2.552 2.552 0 00-.162-1.077.555.555 0 00-.532-.319.619.619 0 00-.58.393 2.789 2.789 0 00-.193 1.181z" fill="#41210d" stroke="#41210d" stroke-linecap="round" stroke-linejoin="round" stroke-width="1.963"/><path d="M12.809 42.11c0 .426.055.689.162.79a1.15 1.15 0 00.723.152 3.2 3.2 0 001.907-.488 3.394 3.394 0 001.084-1.682h.314l-.438 2.637h-6.6v-.3a1.112 1.112 0 00.791-.249 1.213 1.213 0 00.219-.83v-5.093a1.089 1.089 0 00-.219-.776 1.17 1.17 0 00-.779-.25v-.285h3.995v.285a1.587 1.587 0 00-.929.2 1.075 1.075 0 00-.229.821zm7.59.816a2.877 2.877 0 01-.846.557 2.4 2.4 0 01-.942.191 1.3 1.3 0 01-.936-.339 1.183 1.183 0 01-.352-.894 1.455 1.455 0 01.694-1.206 7.985 7.985 0 012.359-.964v-.869a1.007 1.007 0 00-.211-.706.868.868 0 00-.659-.224 1.3 1.3 0 00-.558.1.294.294 0 00-.194.269.691.691 0 00.163.305.731.731 0 01.163.428.631.631 0 01-.219.5.814.814 0 01-.56.193.743.743 0 01-.559-.21.781.781 0 01-.2-.569 1.168 1.168 0 01.614-1.006 2.908 2.908 0 011.6-.394 2.7 2.7 0 011.715.431 1.742 1.742 0 01.522 1.419v2.525a1.188 1.188 0 00.041.406.155.155 0 00.155.087.261.261 0 00.115-.034 1.17 1.17 0 00.159-.107l.152.241a2.028 2.028 0 01-.6.469 1.523 1.523 0 01-.679.155 1.042 1.042 0 01-.662-.188.772.772 0 01-.275-.566zm-.022-.487v-1.807a2.023 2.023 0 00-1.034.532 1.3 1.3 0 00-.347.923 1.215 1.215 0 00.137.652.478.478 0 00.43.21.8.8 0 00.407-.14 1.552 1.552 0 00.407-.369zm8.998-6.698a8.8 8.8 0 011.452.089 3 3 0 01.876.292 1.91 1.91 0 01.748.72 1.982 1.982 0 01.26 1.011 1.877 1.877 0 01-.752 1.586 3.408 3.408 0 01-2.1.571h-1.022v2.133a1.218 1.218 0 00.211.843 1.243 1.243 0 00.811.238v.3h-3.87v-.3a1.114 1.114 0 00.792-.249 1.217 1.217 0 00.219-.832v-5.089a1.094 1.094 0 00-.219-.777 1.171 1.171 0 00-.78-.25v-.285zm-.539 3.858h.334a1.562 1.562 0 001.2-.389 1.93 1.93 0 00.356-1.312 2.254 2.254 0 00-.306-1.332 1.161 1.161 0 00-.994-.408.666.666 0 00-.457.12.608.608 0 00-.127.445zm8.48 2.678a3.044 3.044 0 01-.977 1.064 2.316 2.316 0 01-1.257.35 2.036 2.036 0 01-1.659-.79 3.183 3.183 0 01-.638-2.066 2.927 2.927 0 01.666-1.985 2.134 2.134 0 011.686-.77 1.959 1.959 0 011.573.668 2.75 2.75 0 01.572 1.844v.09h-2.826a2.875 2.875 0 00.364 1.574 1.172 1.172 0 001.04.538 1.193 1.193 0 00.643-.188 1.947 1.947 0 00.56-.56zm-2.877-2.045h1.456c0-.044 0-.109.006-.195s.006-.149.006-.19a2.553 2.553 0 00-.163-1.077.554.554 0 00-.532-.319.618.618 0 00-.579.393 2.774 2.774 0 00-.194 1.181zm6.952 2.161a2.235 2.235 0 01-.685.96 1.6 1.6 0 01-1 .327 1.28 1.28 0 01-.977-.333 1.49 1.49 0 01-.311-1.043v-3.549h-.479v-.352q.682-.648 1.151-1.18a6.412 6.412 0 00.708-.939h.264v1.934h1.078v.536h-1.078v3.364a1.158 1.158 0 00.1.546.326.326 0 00.307.165.519.519 0 00.352-.146 1.39 1.39 0 00.3-.437zm2.644.178a.838.838 0 00.118.521.565.565 0 00.419.157v.274h-2.768l.006-.274a.639.639 0 00.454-.16.788.788 0 00.129-.518v-3.353a.941.941 0 00-.112-.571.633.633 0 00-.437-.14v-.286h2.187zm-1.684-6.09a.853.853 0 01.248-.622.872.872 0 011.229 0 .845.845 0 01.253.619.824.824 0 01-.251.607.843.843 0 01-.617.25.832.832 0 01-.61-.25.821.821 0 01-.252-.608zm6.323 5.912a2.236 2.236 0 01-.686.96 1.6 1.6 0 01-1 .327 1.279 1.279 0 01-.977-.333 1.49 1.49 0 01-.311-1.043v-3.549h-.48v-.352q.684-.648 1.151-1.18a6.5 6.5 0 00.709-.939h.263v1.934h1.079v.536h-1.079v3.364a1.16 1.16 0 00.1.546.328.328 0 00.308.165.517.517 0 00.351-.146 1.358 1.358 0 00.3-.437zm4.966-.116a3.056 3.056 0 01-.978 1.064 2.314 2.314 0 01-1.257.35 2.033 2.033 0 01-1.658-.79 3.179 3.179 0 01-.639-2.066 2.923 2.923 0 01.667-1.985 2.132 2.132 0 011.685-.77 1.962 1.962 0 011.574.668 2.749 2.749 0 01.571 1.844v.09h-2.826a2.874 2.874 0 00.364 1.574 1.172 1.172 0 001.04.538 1.194 1.194 0 00.644-.188 1.958 1.958 0 00.56-.56zm-2.877-2.045h1.455c0-.044 0-.109.006-.195s.006-.149.006-.19a2.555 2.555 0 00-.162-1.077.555.555 0 00-.532-.319.618.618 0 00-.58.393 2.792 2.792 0 00-.193 1.181z" fill="#fff"/><path d="M3.75 54.461v-.3a1.141 1.141 0 00.8-.272 1.316 1.316 0 00.213-.865v-4.967a1.191 1.191 0 00-.207-.821 1.351 1.351 0 00-.824-.267v-.291h6.482v2.329h-.275a2.32 2.32 0 00-.7-1.478 2.651 2.651 0 00-1.672-.428h-.218a1.1 1.1 0 00-.632.109.646.646 0 00-.114.456v2.574h.14a1.477 1.477 0 001.122-.4 2.221 2.221 0 00.478-1.3h.314v3.9h-.3a2.346 2.346 0 00-.465-1.383 1.47 1.47 0 00-1.147-.42h-.14v2.442a1.1 1.1 0 00.254.853 1.726 1.726 0 001.018.227v.3zm6.544 0v-.274a.638.638 0 00.454-.16.784.784 0 00.129-.517v-3.349a.958.958 0 00-.112-.57.606.606 0 00-.437-.146l.006-.286h2.137v1a2.551 2.551 0 01.689-.833 1.327 1.327 0 01.806-.305.989.989 0 01.706.241.855.855 0 01.258.656.753.753 0 01-.2.541.682.682 0 01-.515.2.874.874 0 01-.333-.057.49.49 0 01-.222-.174 1.771 1.771 0 01-.089-.14c-.108-.183-.232-.275-.37-.275a.568.568 0 00-.471.336 1.578 1.578 0 00-.2.824v2.336a.645.645 0 00.171.517 1.123 1.123 0 00.652.16v.274zm4.927-2.652a2.87 2.87 0 01.708-2.018 2.577 2.577 0 013.68 0 3.236 3.236 0 010 4.041 2.359 2.359 0 01-1.829.779 2.385 2.385 0 01-1.84-.785 2.868 2.868 0 01-.719-2.017zm1.672-.011a6.267 6.267 0 00.2 1.942.7.7 0 00.689.5.686.686 0 00.682-.49 9.952 9.952 0 000-3.9.689.689 0 00-.68-.5.7.7 0 00-.689.5 6.26 6.26 0 00-.205 1.952zm4.061 2.663l.006-.274a.626.626 0 00.454-.155.8.8 0 00.129-.524v-3.374a.837.837 0 00-.127-.528.618.618 0 00-.45-.174v-.275h2.181v.78a2.393 2.393 0 01.716-.677 1.7 1.7 0 011.765.014 1.218 1.218 0 01.493.718 2.334 2.334 0 01.745-.727 1.786 1.786 0 01.919-.246 1.33 1.33 0 011.1.453 2.149 2.149 0 01.368 1.371v2.666a.83.83 0 00.123.518.556.556 0 00.425.16v.274h-2.706v-.274a.547.547 0 00.425-.163.831.831 0 00.123-.515v-2.758a1.532 1.532 0 00-.12-.729.463.463 0 00-.428-.2.875.875 0 00-.482.143 1.518 1.518 0 00-.425.44v3.1a.839.839 0 00.12.518.537.537 0 00.417.16v.274h-2.671l.006-.274a.55.55 0 00.422-.163.817.817 0 00.126-.515v-2.758a1.474 1.474 0 00-.126-.726.469.469 0 00-.429-.2.861.861 0 00-.5.154 1.471 1.471 0 00-.408.463v3.071a.843.843 0 00.114.513.556.556 0 00.411.166v.274zm12.577-.593a2.864 2.864 0 01-.847.557 2.408 2.408 0 01-.941.191 1.292 1.292 0 01-.936-.34 1.183 1.183 0 01-.353-.894 1.456 1.456 0 01.695-1.2 7.984 7.984 0 012.359-.964v-.869a1.006 1.006 0 00-.211-.706.867.867 0 00-.658-.224 1.3 1.3 0 00-.559.1.3.3 0 00-.194.269.713.713 0 00.163.305.73.73 0 01.163.428.632.632 0 01-.219.5.815.815 0 01-.561.193.744.744 0 01-.558-.21.782.782 0 01-.2-.569 1.17 1.17 0 01.614-1.006 2.906 2.906 0 011.6-.394 2.7 2.7 0 011.715.431 1.745 1.745 0 01.521 1.419v2.525a1.177 1.177 0 00.042.406.155.155 0 00.154.087.253.253 0 00.114-.034 1.275 1.275 0 00.16-.107l.152.241a2.054 2.054 0 01-.6.469 1.518 1.518 0 01-.678.154 1.037 1.037 0 01-.661-.188.766.766 0 01-.276-.57zm-.022-.487v-1.808a2.031 2.031 0 00-1.034.532 1.294 1.294 0 00-.347.923 1.211 1.211 0 00.137.653.477.477 0 00.43.21.8.8 0 00.407-.14 1.553 1.553 0 00.407-.369zm7.903-4.119v.622h-.841a1.889 1.889 0 01.3.527 1.674 1.674 0 01.1.572 1.555 1.555 0 01-.568 1.241 2.2 2.2 0 01-1.476.486c-.023 0-.091 0-.205-.012s-.217-.011-.31-.011a.782.782 0 00-.5.159.5.5 0 00-.2.4.3.3 0 00.162.288 1.173 1.173 0 00.527.087h.588a3.734 3.734 0 011.867.336 1.237 1.237 0 01.533 1.136 1.446 1.446 0 01-.759 1.3 4.159 4.159 0 01-2.151.463 3.715 3.715 0 01-1.649-.3.918.918 0 01-.6-.824.634.634 0 01.228-.492 1.857 1.857 0 01.7-.342 1.559 1.559 0 01-.582-.418.83.83 0 01-.185-.535 1.033 1.033 0 01.32-.733 3.222 3.222 0 011-.633 2.2 2.2 0 01-1.006-.689 1.682 1.682 0 01-.333-1.054 1.593 1.593 0 01.647-1.3 2.572 2.572 0 011.656-.515 3.612 3.612 0 01.673.06 3.83 3.83 0 01.628.179zm-3.767 5.782a.971.971 0 00-.3.3.657.657 0 00-.1.354.609.609 0 00.4.543 2.474 2.474 0 001.091.2 3.087 3.087 0 001.312-.219.688.688 0 00.449-.637.437.437 0 00-.233-.414 1.676 1.676 0 00-.767-.129zm.3-4.184a2.7 2.7 0 00.174 1.132.584.584 0 00.56.346.572.572 0 00.554-.342 3.95 3.95 0 000-2.27.573.573 0 00-.557-.333.584.584 0 00-.562.336 2.683 2.683 0 00-.172 1.131zm8.492 2.359a3.032 3.032 0 01-.977 1.063 2.309 2.309 0 01-1.257.351 2.036 2.036 0 01-1.659-.79 3.186 3.186 0 01-.638-2.066 2.926 2.926 0 01.666-1.984 2.136 2.136 0 011.686-.77 1.962 1.962 0 011.574.668 2.754 2.754 0 01.571 1.844v.09h-2.826a2.878 2.878 0 00.364 1.574 1.174 1.174 0 001.04.538 1.2 1.2 0 00.644-.188 1.962 1.962 0 00.56-.56zm-2.876-2.045h1.455c0-.044 0-.109.006-.195s.006-.149.006-.19a2.568 2.568 0 00-.162-1.077.553.553 0 00-.532-.319.617.617 0 00-.58.394 2.786 2.786 0 00-.193 1.181zm3.465 3.287l.006-.274a.64.64 0 00.454-.16.785.785 0 00.129-.517v-3.349a.958.958 0 00-.112-.57.608.608 0 00-.437-.146l.006-.286h2.137v1a2.538 2.538 0 01.688-.833 1.331 1.331 0 01.807-.305.989.989 0 01.705.241.854.854 0 01.258.656.75.75 0 01-.2.541.681.681 0 01-.515.2.881.881 0 01-.333-.057.487.487 0 01-.221-.174 1.721 1.721 0 01-.09-.14c-.108-.183-.231-.275-.37-.275a.568.568 0 00-.47.336 1.578 1.578 0 00-.2.824v2.336a.645.645 0 00.171.517 1.118 1.118 0 00.651.16v.274zm7.145-.948a.838.838 0 00.117.521.565.565 0 00.419.157v.274h-2.768l.006-.274a.635.635 0 00.453-.16.787.787 0 00.129-.518V50.16a.949.949 0 00-.111-.571.63.63 0 00-.438-.14l.006-.286h2.187zm-1.684-6.091a.852.852 0 01.248-.621.825.825 0 01.613-.251.833.833 0 01.614.254.845.845 0 01.253.618.824.824 0 01-.251.608.88.88 0 01-1.228 0 .824.824 0 01-.252-.611zm7.389 5.797a3.041 3.041 0 01-.977 1.063 2.309 2.309 0 01-1.257.351 2.035 2.035 0 01-1.659-.79 3.186 3.186 0 01-.638-2.066 2.921 2.921 0 01.666-1.984 2.133 2.133 0 011.686-.77 1.962 1.962 0 011.574.668 2.754 2.754 0 01.57 1.844v.09h-2.825a2.87 2.87 0 00.364 1.574 1.173 1.173 0 001.04.538 1.194 1.194 0 00.643-.188 1.949 1.949 0 00.56-.56zm-2.877-2.045h1.456c0-.044 0-.109.006-.195s0-.149 0-.19a2.553 2.553 0 00-.162-1.077.552.552 0 00-.532-.319.619.619 0 00-.58.394 2.8 2.8 0 00-.193 1.181z" fill="#41210d" stroke="#41210d" stroke-linecap="round" stroke-linejoin="round" stroke-width="1.963"/><path d="M3.75 54.461v-.3a1.136 1.136 0 00.8-.272 1.315 1.315 0 00.213-.864v-4.967a1.192 1.192 0 00-.207-.822 1.351 1.351 0 00-.824-.267v-.291h6.482v2.329h-.275a2.317 2.317 0 00-.7-1.477 2.645 2.645 0 00-1.672-.429h-.218a1.1 1.1 0 00-.632.109.647.647 0 00-.114.457v2.573h.14a1.478 1.478 0 001.122-.4 2.221 2.221 0 00.478-1.3h.314v3.9h-.3a2.349 2.349 0 00-.465-1.383 1.47 1.47 0 00-1.147-.42h-.14v2.442a1.1 1.1 0 00.254.853 1.726 1.726 0 001.018.227v.3zm6.544 0v-.274a.642.642 0 00.454-.159.789.789 0 00.129-.518v-3.349a.954.954 0 00-.112-.569.6.6 0 00-.437-.147l.006-.286h2.137v1a2.562 2.562 0 01.689-.833 1.333 1.333 0 01.806-.305.994.994 0 01.706.241.856.856 0 01.258.656.75.75 0 01-.2.541.682.682 0 01-.515.2.876.876 0 01-.333-.056.5.5 0 01-.222-.174 1.832 1.832 0 01-.089-.141c-.108-.182-.232-.275-.37-.275a.568.568 0 00-.471.337 1.573 1.573 0 00-.2.824v2.335a.649.649 0 00.171.518 1.133 1.133 0 00.652.159v.274zm4.927-2.652a2.872 2.872 0 01.708-2.018 2.577 2.577 0 013.68 0 3.236 3.236 0 010 4.041 2.359 2.359 0 01-1.829.779 2.387 2.387 0 01-1.84-.784 2.87 2.87 0 01-.719-2.018zm1.672-.011a6.267 6.267 0 00.2 1.942.7.7 0 00.689.5.686.686 0 00.682-.49 9.957 9.957 0 000-3.9.689.689 0 00-.68-.5.7.7 0 00-.689.5 6.26 6.26 0 00-.205 1.952zm4.061 2.663l.006-.274a.626.626 0 00.454-.155.8.8 0 00.129-.524v-3.374a.839.839 0 00-.127-.528.618.618 0 00-.45-.174v-.275h2.181v.78a2.393 2.393 0 01.716-.677 1.7 1.7 0 011.765.014 1.218 1.218 0 01.493.718 2.334 2.334 0 01.745-.727 1.786 1.786 0 01.919-.246 1.33 1.33 0 011.1.453 2.151 2.151 0 01.368 1.372v2.665a.83.83 0 00.123.518.553.553 0 00.425.16v.274h-2.706v-.274a.547.547 0 00.425-.163.829.829 0 00.123-.515v-2.757a1.54 1.54 0 00-.12-.729.463.463 0 00-.428-.2.883.883 0 00-.482.143 1.518 1.518 0 00-.425.44v3.1a.839.839 0 00.12.518.534.534 0 00.417.16v.274h-2.671l.006-.274a.55.55 0 00.422-.163.815.815 0 00.126-.515v-2.757a1.478 1.478 0 00-.126-.727.469.469 0 00-.429-.2.861.861 0 00-.5.154 1.471 1.471 0 00-.408.463v3.07a.846.846 0 00.114.513.559.559 0 00.411.165v.274zm12.577-.593a2.864 2.864 0 01-.847.557 2.392 2.392 0 01-.941.191 1.3 1.3 0 01-.936-.339 1.185 1.185 0 01-.353-.895 1.456 1.456 0 01.695-1.2 7.984 7.984 0 012.359-.964v-.869a1.006 1.006 0 00-.211-.706.867.867 0 00-.658-.224 1.3 1.3 0 00-.559.1.3.3 0 00-.194.269.7.7 0 00.163.305.73.73 0 01.163.428.631.631 0 01-.219.5.815.815 0 01-.561.193.744.744 0 01-.558-.21.78.78 0 01-.2-.569 1.17 1.17 0 01.614-1.006 2.906 2.906 0 011.6-.394 2.7 2.7 0 011.715.431 1.745 1.745 0 01.521 1.419v2.525a1.177 1.177 0 00.042.406.155.155 0 00.154.087.253.253 0 00.114-.034 1.275 1.275 0 00.16-.107l.152.241a2.039 2.039 0 01-.6.469 1.518 1.518 0 01-.678.154 1.037 1.037 0 01-.661-.188.766.766 0 01-.276-.57zm-.022-.487v-1.808a2.025 2.025 0 00-1.034.533 1.291 1.291 0 00-.347.923 1.209 1.209 0 00.137.652.477.477 0 00.43.21.8.8 0 00.407-.14 1.553 1.553 0 00.407-.369zm7.903-4.119v.622h-.841a1.9 1.9 0 01.3.527 1.674 1.674 0 01.1.572 1.558 1.558 0 01-.568 1.242 2.2 2.2 0 01-1.476.485c-.023 0-.091 0-.205-.012s-.217-.011-.31-.011a.777.777 0 00-.5.16.494.494 0 00-.2.4.3.3 0 00.162.289 1.189 1.189 0 00.527.086h.588a3.734 3.734 0 011.867.336 1.239 1.239 0 01.533 1.136 1.444 1.444 0 01-.759 1.3 4.159 4.159 0 01-2.151.463 3.715 3.715 0 01-1.649-.3.918.918 0 01-.6-.823.634.634 0 01.228-.493 1.857 1.857 0 01.7-.342 1.569 1.569 0 01-.582-.417.833.833 0 01-.185-.535 1.03 1.03 0 01.32-.733 3.2 3.2 0 011-.634 2.191 2.191 0 01-1.006-.689 1.681 1.681 0 01-.333-1.053 1.6 1.6 0 01.647-1.3 2.577 2.577 0 011.656-.515 3.612 3.612 0 01.673.06 3.83 3.83 0 01.628.179zm-3.767 5.782a.971.971 0 00-.3.3.658.658 0 00-.1.355.609.609 0 00.4.542 2.461 2.461 0 001.091.2 3.087 3.087 0 001.312-.219.687.687 0 00.449-.637.437.437 0 00-.233-.414 1.676 1.676 0 00-.767-.129zm.3-4.184a2.7 2.7 0 00.174 1.132.583.583 0 00.56.346.573.573 0 00.554-.341 3.953 3.953 0 000-2.271.573.573 0 00-.557-.333.584.584 0 00-.562.336 2.685 2.685 0 00-.172 1.131zm8.492 2.359a3.044 3.044 0 01-.977 1.063 2.316 2.316 0 01-1.257.35 2.036 2.036 0 01-1.659-.79 3.185 3.185 0 01-.638-2.065 2.926 2.926 0 01.666-1.985 2.136 2.136 0 011.686-.77 1.962 1.962 0 011.574.668 2.754 2.754 0 01.571 1.844v.09h-2.826a2.873 2.873 0 00.364 1.574 1.172 1.172 0 001.04.538 1.2 1.2 0 00.644-.188 1.962 1.962 0 00.56-.56zm-2.876-2.045h1.455c0-.044 0-.109.006-.195s.006-.149.006-.19a2.571 2.571 0 00-.162-1.077.555.555 0 00-.532-.319.619.619 0 00-.58.394 2.789 2.789 0 00-.193 1.181zm3.465 3.287l.006-.274a.644.644 0 00.454-.159.79.79 0 00.129-.518v-3.349a.954.954 0 00-.112-.569.6.6 0 00-.437-.147l.006-.286h2.137v1a2.549 2.549 0 01.688-.833 1.338 1.338 0 01.807-.305.994.994 0 01.705.241.856.856 0 01.258.656.747.747 0 01-.2.541.681.681 0 01-.515.2.879.879 0 01-.333-.056.5.5 0 01-.221-.174 1.779 1.779 0 01-.09-.141c-.108-.182-.231-.275-.37-.275a.568.568 0 00-.47.337 1.573 1.573 0 00-.2.824v2.335a.649.649 0 00.171.518 1.127 1.127 0 00.651.159v.274zm7.145-.948a.838.838 0 00.117.521.565.565 0 00.419.157v.274h-2.768l.006-.274a.635.635 0 00.453-.16.787.787 0 00.129-.518V50.16a.949.949 0 00-.111-.571.63.63 0 00-.438-.14l.006-.286h2.187zm-1.684-6.09a.849.849 0 01.248-.622.871.871 0 011.228 0 .845.845 0 01.253.619.824.824 0 01-.251.607.88.88 0 01-1.228 0 .824.824 0 01-.253-.608zm7.389 5.796a3.052 3.052 0 01-.977 1.063 2.317 2.317 0 01-1.258.35 2.034 2.034 0 01-1.658-.79 3.185 3.185 0 01-.638-2.065 2.922 2.922 0 01.666-1.985 2.133 2.133 0 011.686-.77 1.959 1.959 0 011.573.668 2.749 2.749 0 01.571 1.844v.09h-2.825a2.866 2.866 0 00.364 1.574 1.171 1.171 0 001.04.538 1.194 1.194 0 00.643-.188 1.949 1.949 0 00.56-.56zm-2.877-2.045h1.456c0-.044 0-.109.006-.195s0-.149 0-.19a2.556 2.556 0 00-.162-1.077.554.554 0 00-.532-.319.621.621 0 00-.58.394 2.806 2.806 0 00-.193 1.181z" fill="#f3e226"/></svg>