<svg xmlns="http://www.w3.org/2000/svg" width="70" height="47"><path d="M20.296 15.297a.612.612 0 01.1-.042 3.479 3.479 0 01-.014.4 2.846 2.846 0 00.1.6.523.523 0 01.056.264 3.584 3.584 0 01.042.779 1.589 1.589 0 00-.153.612.881.881 0 00.111.32c-.069.014-.1.042-.083.083a.132.132 0 00-.056.069c-.042.056-.07.084-.126.084s-.1.028-.111.056-.042.07-.084.056a.186.186 0 01-.055-.042.105.105 0 01-.139-.014c-.126-.069-.237-.14-.334-.2a1.107 1.107 0 01-.32-.4.5.5 0 01-.195-.361.4.4 0 01.056-.236.948.948 0 01.028-.181c.042-.027.056-.083.07-.152.111-.292.223-.626.32-.96a.762.762 0 01.195-.445.9.9 0 01.334-.459v-.042c.07.042.125.084.195.126a.143.143 0 00.063.085zm6.467-5.188a.663.663 0 01.111.1 1.165 1.165 0 01.32.64.888.888 0 01.083.389.682.682 0 00.084.376.978.978 0 00.027.195.473.473 0 01.07.25.356.356 0 00.125.181 2.128 2.128 0 01.918.834.894.894 0 01.07.32c-.014.014-.028.028-.028.041a.615.615 0 01.014.223.253.253 0 01-.222.1.635.635 0 00-.223.1.514.514 0 01-.209.111.338.338 0 01-.1.056.138.138 0 01-.07.056.288.288 0 01-.167.069.944.944 0 00-.292.126.792.792 0 01-.111.32c-.042.042-.083.07-.1.111a.193.193 0 00-.07.125.288.288 0 01-.181.181.635.635 0 01-.209.181.194.194 0 00-.125.014.334.334 0 00-.084.125.051.051 0 01-.069.028.769.769 0 00-.264.111c-.042.042-.1.083-.139.125a1.212 1.212 0 00-.167.125.629.629 0 00-.264.236c-.014.07-.028.126-.042.181a.832.832 0 01.013.264c0 .013.014.013.028.013a11.52 11.52 0 011.572-.473 3.661 3.661 0 01.138-.653 4.379 4.379 0 00.139-.7.03.03 0 00.028-.028c.013-.014.013-.042.027-.084-.014-.013 0-.027.028-.027s.028.027.042.014c-.014-.014-.014-.028-.028-.042s.014-.013.041-.013c0-.014.014-.028.042-.056.013.042.027.042.055.028-.014-.014-.014-.028 0-.056v-.014c.013.014.013.027.027.027a.049.049 0 01.014-.041l.027.027c0-.014.014-.014.028-.027a.049.049 0 00.042-.014l.014.014v-.084c.014.027.028.042.07.027v-.07c0 .042.014.042.042.027l.014-.013c.013.013.027.013.056.028 0-.015 0-.015.013-.028a2.039 2.039 0 01.362.514 1.071 1.071 0 01.1.278 6.921 6.921 0 01.084.765.192.192 0 00.195.014.754.754 0 00.431 0h.042v-.042c0 .014 0 .014.014 0s.028 0 .014-.014c.014-.014.027-.014.07 0l-.014-.014h.056a.214.214 0 01.139-.1.094.094 0 00.084-.014 1.11 1.11 0 01.431.139 2.361 2.361 0 01.89.849.166.166 0 01.055.124.506.506 0 01-.264.223.629.629 0 01-.236-.014c-.014-.014-.042-.027-.056-.042-.042.042-.056.07-.042.1a.82.82 0 01-.139-.042.381.381 0 00-.181-.014c-.111-.027-.223-.07-.348-.111a.828.828 0 01-.209-.084 6.081 6.081 0 00-1.07-.153.469.469 0 00-.167.265c-.041.013-.056.042-.07.083a.607.607 0 00-.153.167c.069.056.153.111.223.167a.492.492 0 01.153.222.5.5 0 00-.056.279.265.265 0 01-.125.181.071.071 0 01-.056.07.467.467 0 01-.209.1c-.027.014-.056.028-.07.014a1.823 1.823 0 00-.236.139 3.638 3.638 0 01-.612.375c-.1.1-.195.209-.278.306a.115.115 0 00-.083.028.138.138 0 01.069.056c.014-.027.028-.042.056-.027s.027.027.042.014a.194.194 0 00-.028.083c.084.028.167.084.264.126a.26.26 0 01.167.153.822.822 0 01.139.237.5.5 0 01.083.347.6.6 0 00-.027.084.854.854 0 00-.084.056 3.187 3.187 0 00-.181.584c-.014.152-.014.277-.014.417a2.038 2.038 0 00.751.278 1.763 1.763 0 00.89-.056.78.78 0 00.417-.334.71.71 0 00.209-.459.892.892 0 01.124-.223.462.462 0 000-.278 5.384 5.384 0 01-.32-.556c-.209-.209-.431-.417-.654-.654a2.951 2.951 0 01-.57-.528.651.651 0 01-.056-.1 5.737 5.737 0 01.849.514c.306.278.626.557.9.863.306.333.584.667.876 1a3.827 3.827 0 00.459.681.572.572 0 01.1.376.4.4 0 01-.125.139.317.317 0 01-.112.167c-.014.043-.028.056-.056.056a.207.207 0 00-.181.056.51.51 0 00-.223.264.92.92 0 00-.1.028v-.028c.014.014.014.014.028.014s0-.014.014-.014a.385.385 0 00-.126.014.126.126 0 01-.056.083h.014v.014h-.014v-.014l-.042.042v-.027c-.014.014-.027.014-.042.027a.189.189 0 01.042-.027l.07-.07-.028-.028c-.1.07-.195.125-.292.181a.169.169 0 00-.125.041h.014a.072.072 0 01-.056.028c.013 0 .013-.014.013-.028h.028a.153.153 0 00-.112 0 1.758 1.758 0 01-.25.083c0 .015 0 .015.013.015l-.013-.015a.208.208 0 00-.056.042l.014-.014a.226.226 0 00-.084.042v-.042a.108.108 0 00-.07.027c.014 0 .014 0 .028.014a.149.149 0 00-.07.014c.013-.014.027-.014.042-.028a.064.064 0 00-.07 0v.014a.062.062 0 00-.07 0 1.39 1.39 0 01-.639-.027 18.272 18.272 0 01-.821-.139 4.554 4.554 0 01-.737-.361 2.038 2.038 0 01-.181-.126.856.856 0 01-.431-.278.812.812 0 01-.4-.9c.028-.25.042-.5.056-.751a.092.092 0 000-.083.32.32 0 00-.265.1c-.013-.014-.013-.041-.013-.083 0-.014 0-.014.013-.027a1.447 1.447 0 00-.459.139c-.014.013-.014.013-.027.013h-.014c-.195.195-.389.4-.6.6-.042.042-.084.07-.111.1-.014 0-.014 0-.028-.014-.153.125-.306.25-.445.348a3 3 0 01-.445.292 2.3 2.3 0 01-.32.167 3.233 3.233 0 00-.486.25.2.2 0 01-.084.07 1.263 1.263 0 01-.362.18 1.116 1.116 0 01-.195.126.491.491 0 00-.125.083.409.409 0 01-.222.14h-.042a.05.05 0 01-.042-.014.05.05 0 00-.014.041h.014v-.014c-.014.014-.042.028-.056.014-.014.042-.042.042-.056.014-.013 0-.027 0-.027-.014l-.111.112h-.014c-.014.013-.028 0-.056-.028s-.028-.07-.014-.152c.042-.015.055-.028.042-.07h.014c0-.014-.014-.028-.028-.042h.014c-.014 0-.014 0-.014-.014s.014-.014.028-.028v-.027c.014.027.028.014.042-.028 0-.014 0-.014-.013-.027l.027-.014a.026.026 0 010-.042c.014 0 .014-.015.014-.028 0 .013.014.013.027.013a.1.1 0 01.07-.1v-.056a.052.052 0 00.042-.014.321.321 0 01.07-.1.026.026 0 00.042 0 .5.5 0 00.084-.027.948.948 0 00.181-.028c-.041-.027-.041-.056 0-.07a.146.146 0 00.111.014.223.223 0 01.209-.056 4.113 4.113 0 00.932-.709 21.68 21.68 0 001.308-1.627.913.913 0 00-.2-.014.955.955 0 00-.389-.042.27.27 0 01-.251-.014.231.231 0 01-.056-.1l.014-.028v-.014c.014 0 .014-.013.027-.028h-.013a.084.084 0 00.056-.014c-.014-.014-.028-.028-.028-.042a.053.053 0 00.042-.013c-.014 0-.028-.014-.028-.042h.042a.042.042 0 00-.014-.027.225.225 0 00.069-.028c-.013-.014-.013-.042-.027-.056a.03.03 0 00.027.027.026.026 0 000-.042c.014 0 .028-.013.014-.027.014 0 .014 0 .028-.014-.014-.014-.028-.014-.014-.027h.042c-.014-.014 0-.028.013-.042a.231.231 0 00.084-.083v.028a.855.855 0 00.042-.112c0 .015.014.015.028.015.167-.1.348-.182.514-.279a3.818 3.818 0 00.375-.167 1.131 1.131 0 01-.306-.6.122.122 0 00-.153.027c-.1.07-.209.154-.32.223-.153.1-.278.209-.417.306v-.014a6.677 6.677 0 01-.793.528q-.145.292-.25.542a2.6 2.6 0 00-.07.264c-.181.195-.348.4-.514.584a8.131 8.131 0 00-.723.862 2.8 2.8 0 01-.514.612.533.533 0 01-.125.181 1.8 1.8 0 00-.153.264.491.491 0 01-.375-.209.631.631 0 00-.181-.195c.014-.013.014-.055 0-.1a.075.075 0 01-.041-.07.154.154 0 00.041-.11c.014.013.014 0 .028-.014a.053.053 0 00-.014-.043.232.232 0 00.042-.082.085.085 0 010-.083c.013-.014.027-.014.042-.028-.014-.014-.014-.014-.014-.028.014.013.042 0 .07-.028-.014-.014-.014-.014-.014-.028.028 0 .042-.014.042-.055-.014 0-.014 0-.014-.014a.959.959 0 00.236-.334 2.579 2.579 0 00.709-1.043 2.861 2.861 0 00.2-.932.924.924 0 010-.278 1.939 1.939 0 01-.542-1.613 1.335 1.335 0 00.042-.347 24.611 24.611 0 01.167-2.475 5.763 5.763 0 01.431-1.5c.028-.014.041-.042.055-.084.056-.042.1-.1.167-.153.013 0 .013-.028.027-.056 0 .014 0 .014.014 0a.361.361 0 00.139-.083c.028.014.056 0 .084-.028v-.013c0 .013 0 .013.014.013a.308.308 0 00.042-.07 1.426 1.426 0 01.209.167 1.733 1.733 0 00.222.459.118.118 0 00.028.084 1.129 1.129 0 00.042.111 1.428 1.428 0 01.181.514.967.967 0 01.056.348 6.961 6.961 0 01-.181 1.183 2.674 2.674 0 00-.083.459h-.014a.118.118 0 000 .1 2.135 2.135 0 01.445-.488c.1-.069.181-.138.278-.222a.127.127 0 01.139-.028.261.261 0 01.111-.027c0 .013 0 .013.014.013s.014-.027.027-.013a3.092 3.092 0 00.4.319.985.985 0 01.041.279 2.1 2.1 0 00-.07.223.682.682 0 01-.181.167 6.917 6.917 0 01-.514.417 2.08 2.08 0 00-.167.153 5.225 5.225 0 00-.459.278.751.751 0 00-.278.139.534.534 0 00-.1.167 1.231 1.231 0 000 .223.472.472 0 01.014-.139c-.014.084-.014.181-.027.25a.555.555 0 01-.056.292c-.014.014-.014 0-.014-.014s-.014 0-.014-.014a.405.405 0 00-.027.126.3.3 0 00.139.152q.251.188.459.375a18.3 18.3 0 001.53-1.863.268.268 0 00.1-.014 1.256 1.256 0 01-.1.195 3.67 3.67 0 01-.376.7 4.774 4.774 0 00-.236.444 1.859 1.859 0 00.528-.264 3.717 3.717 0 00.4-.209 2.517 2.517 0 01.1-1.432c.014-.014.028-.042.056-.07v.014a.485.485 0 01.056-.124c.027.013.042 0 .042-.029 0 .015.014.015.041 0v-.027a.135.135 0 00.1-.111c0 .013 0 .027.014.027v-.042a.235.235 0 01.139 0h.013a.093.093 0 01.056-.042.962.962 0 00.167.167 2.413 2.413 0 01.278.487h.027a1.6 1.6 0 00.292-.862c-.042-.153-.07-.32-.111-.487a.059.059 0 00-.084-.042 3.731 3.731 0 01-.779.181.656.656 0 01-.4-.014.235.235 0 01-.2-.084.093.093 0 010-.084v-.139a.29.29 0 00.07-.069v-.028a4.529 4.529 0 01.529-.5l.208-.125a2.322 2.322 0 00.682-.473c.028-.417.042-.863.042-1.28a7.478 7.478 0 01.236-1.294.692.692 0 01.1-.111.077.077 0 01.042-.07c.028-.014.028-.056.028-.1a.107.107 0 01.055.028c.014-.042.042-.042.084-.028l.042-.042a.1.1 0 00.014-.07.09.09 0 00.083-.014.135.135 0 00.112-.1c.028.014.042.041.055.056.085-.016.141.026.208.121zm-.222 6.69c-.209.07-.4.125-.571.181s-.292.111-.417.167a.235.235 0 000 .139.283.283 0 010 .153l.014.222a.9.9 0 00.042.112 2.331 2.331 0 001.113-1.016.825.825 0 00-.182.041zm13.871-5.123a.761.761 0 01.1.46.082.082 0 010 .077.254.254 0 00.026.191 3.011 3.011 0 01.933.128 2.514 2.514 0 011.227.384 3.652 3.652 0 011.406 1.38.68.68 0 01.077.307.293.293 0 00-.026.179 2.451 2.451 0 00-.1.281l-.23 1.137c-.052.307-.09.639-.115.959a4.794 4.794 0 000 .856c.013.588.038 1.176.051 1.764.026.243.026.461.039.7a2.391 2.391 0 01-.243 1.368 5.146 5.146 0 01-.448.459c0-.012 0-.012-.012-.025a.129.129 0 01-.064.077.282.282 0 01-.166.115.354.354 0 01-.14.089.593.593 0 01-.294.179.55.55 0 01-.243.14 1.878 1.878 0 01-.166.115.468.468 0 01-.4-.089 3.451 3.451 0 01-.588-.639 3.479 3.479 0 00-.384-.358 8.764 8.764 0 01-1.394-1.266 3.781 3.781 0 01-.7-1.086c-.026-.013-.051-.038-.077-.051l.013-.013a.775.775 0 00-.384.089.1.1 0 01-.026-.064c-.013.013-.038.026-.051.038-.013-.038-.038-.051-.051-.089a1.011 1.011 0 01-.179-.026c-.166.013-.332.026-.486.051a1.074 1.074 0 00-.472.077c-.1.025-.192.05-.281.063a1.27 1.27 0 01.128-.038.18.18 0 00-.115.013c-.038.013-.064.013-.1.026a1.31 1.31 0 01-.32-.013c-.013.307-.026.6-.026.908l-.038.358a1.076 1.076 0 01-.217.639.273.273 0 00-.077.167c-.038.063-.064.128-.1.178a1.3 1.3 0 01-.1.141l-.153.039a.329.329 0 01-.243-.1 2.447 2.447 0 01-.6-.843.027.027 0 010-.052.634.634 0 00-.051-.166.283.283 0 00.077-.243v-.013c.026 0 .038 0 .052-.013s0-.038-.013-.05c.013 0 .026-.014.038-.052.013.013.013 0 .026-.013-.026-.013-.038-.026-.026-.064a.077.077 0 01.051.013.073.073 0 01.077-.013v.013c0-.013 0-.013.013-.025h.013a1.121 1.121 0 00.1-.371c.064-.576.1-1.163.141-1.777a9.456 9.456 0 01.051-1.8 2.356 2.356 0 01-.371-.881 1.135 1.135 0 010-.294.113.113 0 00.077-.038c-.013-.013-.013-.026-.026-.038.013.026.026.026.064.012.013-.012 0-.05-.025-.1.038.052.077.077.115.064.089.052.191.115.294.167a3.065 3.065 0 01.4.422.631.631 0 01.2.37c.064.154.128.294.191.448.013.242.038.486.064.741v.754c0 .013 0 .013.013.013a1.455 1.455 0 000 .333 1.922 1.922 0 00.051.306c-.013.013-.013.013-.026.013.013.012.013.012.026.012l-.038.844a2.146 2.146 0 01.524-.306 58.73 58.73 0 001.879-2.16.75.75 0 01.077-.1c-.013 0-.026 0-.026-.012a1.471 1.471 0 00-.613.179 1.369 1.369 0 01-.32-.013.157.157 0 01-.153-.026 2.909 2.909 0 00-.332.026.193.193 0 01-.218.013.208.208 0 01-.243-.038c-.038 0-.064-.026-.089-.064a.639.639 0 00-.064-.167c-.013-.013-.026-.026-.026-.038a.039.039 0 00.026-.013 1.123 1.123 0 01-.026-.217c0-.026.013-.038.051-.038.026-.026.051-.065.089-.1a.024.024 0 010-.038.252.252 0 00.14-.141c0 .013 0 .013.013.026a.059.059 0 000-.064 2.018 2.018 0 00.357-.435c.332-.562.652-1.137.959-1.712l.013-.09a.986.986 0 01-.154.09 3.27 3.27 0 00-.792.779c-.167.23-.332.447-.486.664a.129.129 0 01-.153.064.065.065 0 01-.038-.089v-.09a17.989 17.989 0 011.176-1.443 3.47 3.47 0 01.549-.512 5.484 5.484 0 00.052-.92c-.013-.128-.026-.269-.052-.41a.412.412 0 01-.077-.166h.013c-.013-.026-.013-.05.013-.064q-.039-.019 0-.038c-.013-.013-.013-.038-.026-.064a.07.07 0 00.1-.026c-.013 0-.013 0-.013-.013a.058.058 0 00.065.013.062.062 0 01.012-.077c0 .013.013.026.039.013-.013 0-.013 0-.026-.013l.026-.013v-.038a.1.1 0 01.089-.064 2.421 2.421 0 00.23-.153c.012-.013.012-.026.026-.038 0 .013 0 .013.013.013a1.137 1.137 0 01.511-.256.91.91 0 01.371.077.977.977 0 01.765.348zm-1.214 7.157a1.555 1.555 0 00-.345.089.3.3 0 01-.14.116h.025a1.3 1.3 0 00-.128.217 3.225 3.225 0 01.217.422 2.3 2.3 0 00.333.371q.25-.191.46-.384a.64.64 0 00.4-.575.352.352 0 00-.244-.1.308.308 0 01-.191-.064 1.132 1.132 0 00-.387-.092zm1.968-5.215c-.153.013-.306.039-.459.052a1.811 1.811 0 01-.537.281 4.519 4.519 0 00-.2.46 3.787 3.787 0 01-.805 1.368c.09.038.179.077.294.115a1.7 1.7 0 01.269-.1.215.215 0 01.026-.064.289.289 0 00.2-.1.161.161 0 01.115-.089.073.073 0 00.013-.077.028.028 0 01.026.026c.013-.013.013-.026.026-.039.012-.051.051-.077.115-.077a.091.091 0 00.051-.064c0 .013 0 .013.013.013-.013-.013 0-.013.013-.026h.013v-.052c.026-.012.051 0 .089.013a.078.078 0 01.013-.052c0-.012 0 0 .013.013a.193.193 0 00.051-.077c0 .013 0 .013.013.013s.052 0 .064-.039c.013.013.013.026.039.026a.064.064 0 00.064-.05.048.048 0 01.038.013 3.035 3.035 0 01.537.294.75.75 0 01.269.358.6.6 0 01.076.294.2.2 0 01-.038.052c0 .038-.013.051-.026.051h-.1a5.894 5.894 0 00-.5.5.193.193 0 00-.077.051 4.642 4.642 0 00-.461.537l-.255.256a2.794 2.794 0 00-.2.319c-.013 0-.013 0-.013-.013a.358.358 0 00-.089.115.208.208 0 00-.115.09c.064.012.14.038.2.051a1.948 1.948 0 01.7.256v.012a1.354 1.354 0 01.192.089c.064.039.115.077.179.115a3.144 3.144 0 01.524.486 2.222 2.222 0 01.281.345.171.171 0 01-.013.179c-.013.013-.038.026-.051.013 0 .013 0 .013.013.013a.123.123 0 01-.038.128.135.135 0 01-.077.089.872.872 0 00-.179.025c-.013.013-.038.026-.051.039s-.013.013-.026.013a.843.843 0 01-.179.013.3.3 0 01-.152.013.449.449 0 00-.179.077.178.178 0 00-.179.064c-.012 0-.025-.013-.012-.026a.1.1 0 00-.026-.064.632.632 0 00-.141-.013v-.013a.686.686 0 01-.281-.051.545.545 0 00-.32-.052 1.918 1.918 0 00-.4.192.721.721 0 00-.23.153 1.686 1.686 0 00.32.294 7.039 7.039 0 01.766.474.75.75 0 00.371.051 1.4 1.4 0 00.83-.218c.09-.128.179-.255.281-.408a1.106 1.106 0 00.167-.23 2.547 2.547 0 00.128-1.164c-.039-.792-.064-1.6-.051-2.415.026-.333.051-.691.064-1.036a4.07 4.07 0 00.064-1.035 1.323 1.323 0 00-.562-.8.935.935 0 00-.501-.05zM13.479 32.845a1.538 1.538 0 01.39.733 1.118 1.118 0 01.011.343.849.849 0 01-.083.343v.071a.3.3 0 00-.011.094.98.98 0 00-.094.354 1.171 1.171 0 00-.012.284c0 .012 0 .023.012.023.248-.142.508-.283.744-.436a.723.723 0 00.2-.177.249.249 0 01.059-.047.1.1 0 00.118-.047.07.07 0 01.024-.059h.107a.22.22 0 01.094-.024 2.436 2.436 0 01.756.59.583.583 0 01.035.4.461.461 0 01-.318.213c-.047.012-.1.036-.142.048-.011-.012-.011-.012-.024 0l-.425.106c-.012.024-.036.036-.047.024-.036.012-.047.012-.059.024a.262.262 0 01-.094.012.232.232 0 01-.13.036.379.379 0 01-.189.047c-.012.024 0 .035.011.024a.591.591 0 01-.071.023.147.147 0 00-.118-.012h-.036a.042.042 0 01-.035.012.276.276 0 01-.166.012 1.549 1.549 0 01-.2.024.093.093 0 01-.094-.012c-.012.048-.036.094-.047.142a1.212 1.212 0 01-.036.142.1.1 0 01-.011.083 4.452 4.452 0 00.082.7c.036.236.083.461.118.685a3.059 3.059 0 00.934.212c0 .012 0 .012.011.012l.012-.012a.079.079 0 00.094-.035v.012a.144.144 0 01.106-.036 2.424 2.424 0 011.016.768.369.369 0 01.036.213.442.442 0 01-.213.308.093.093 0 01-.118.011.074.074 0 00-.048-.011v-.012a.162.162 0 01-.106-.012 1.79 1.79 0 01-.449-.094.023.023 0 01-.036 0c-.011.011-.024 0-.035-.012a.309.309 0 01-.213-.07.167.167 0 01-.106 0 2.609 2.609 0 01-.508-.2 1.136 1.136 0 01-.19-.059.679.679 0 01-.271.567 1.275 1.275 0 01-.225.212.49.49 0 00-.106.059.234.234 0 01-.2.107.686.686 0 01-.272.177.251.251 0 01-.189.035 2.839 2.839 0 01-1.37-.3c-.012-.011-.024-.023-.036-.023a1.206 1.206 0 01-.579-.579 1.078 1.078 0 01-.2-.8l.024-.024v-.012a.265.265 0 00.071-.142 9.31 9.31 0 01.4-.544 1.025 1.025 0 01.756-.413 3.27 3.27 0 011.075.307l.011-.012a2.982 2.982 0 00-.059-.319.09.09 0 00-.011-.047 16.024 16.024 0 01-.272-1.867c-.012-.011-.024-.024-.012-.036l.012-.011a5.049 5.049 0 01.094-1.193 4.569 4.569 0 01.3-.945c-.012-.035 0-.059.024-.095a.124.124 0 00.035-.059.29.29 0 01.2-.047c.082.059.153.107.225.166a.5.5 0 00.069.077zm-1.666 5.106a.692.692 0 01-.228.135 1.109 1.109 0 00-.29.258.163.163 0 00.031.093 1.037 1.037 0 00.621.207l.4-.031a.98.98 0 00.435-.435 3.03 3.03 0 00-.569-.186h.042a1.324 1.324 0 00-.44-.041zm33.711-5.736a1.6 1.6 0 01.407.765 1.174 1.174 0 01.013.358.9.9 0 01-.087.357v.075a.309.309 0 00-.012.1 1.038 1.038 0 00-.1.37 1.206 1.206 0 00-.012.3c0 .012 0 .025.012.025.259-.149.53-.3.777-.457a.749.749 0 00.209-.185.311.311 0 01.062-.049.107.107 0 00.124-.049.074.074 0 01.024-.062h.111a.238.238 0 01.1-.025 2.541 2.541 0 01.79.617.605.605 0 01.037.419.478.478 0 01-.333.222c-.049.013-.1.037-.148.049-.012-.012-.012-.012-.025 0l-.444.112c-.013.024-.037.037-.05.024-.037.013-.049.013-.061.025a.278.278 0 01-.1.012.249.249 0 01-.136.037.391.391 0 01-.2.05c-.012.024 0 .036.012.024a.522.522 0 01-.074.025.145.145 0 00-.123-.013h-.037a.045.045 0 01-.037.013.278.278 0 01-.173.012 1.505 1.505 0 01-.209.025.1.1 0 01-.1-.012c-.012.049-.037.1-.05.148a1.2 1.2 0 01-.036.148.1.1 0 01-.012.086 4.719 4.719 0 00.086.728c.037.246.086.481.123.715a3.225 3.225 0 00.975.222c0 .012 0 .012.013.012l.012-.012a.083.083 0 00.1-.037v.012a.149.149 0 01.111-.037 2.539 2.539 0 011.061.8.38.38 0 01.037.222.459.459 0 01-.222.321.1.1 0 01-.123.011.079.079 0 00-.05-.011v-.013a.173.173 0 01-.111-.012 1.838 1.838 0 01-.468-.1.024.024 0 01-.037 0c-.012.012-.024 0-.037-.012a.323.323 0 01-.222-.074.175.175 0 01-.111 0 2.806 2.806 0 01-.531-.21 1.184 1.184 0 01-.2-.062.708.708 0 01-.283.592 1.314 1.314 0 01-.235.222.539.539 0 00-.111.062.242.242 0 01-.209.111.711.711 0 01-.284.185.261.261 0 01-.2.037 1.759 1.759 0 01-.876-.1 1.81 1.81 0 01-.555-.21c-.012-.013-.025-.025-.037-.025a1.256 1.256 0 01-.6-.6 1.129 1.129 0 01-.21-.839l.025-.024v-.013a.277.277 0 00.074-.148c.123-.185.271-.382.419-.567a1.071 1.071 0 01.789-.432 3.413 3.413 0 011.123.321l.012-.012a3.193 3.193 0 00-.061-.334.091.091 0 00-.013-.049 16.828 16.828 0 01-.284-1.949c-.012-.012-.024-.025-.012-.038l.012-.012a5.333 5.333 0 01.1-1.246 4.849 4.849 0 01.308-.987.1.1 0 01.025-.1.136.136 0 00.037-.062.3.3 0 01.21-.05c.086.062.16.112.234.173a.487.487 0 00.077.085zm-1.725 5.344a.787.787 0 01-.245.132 1.175 1.175 0 00-.311.253.155.155 0 00.033.092 1.188 1.188 0 00.667.2l.434-.031a1.015 1.015 0 00.467-.426 3.492 3.492 0 00-.612-.183h.045a1.564 1.564 0 00-.478-.037zm13.195-10.534a1.141 1.141 0 01.544 1.1.743.743 0 00-.093.3.3.3 0 01-.192.221.715.715 0 01-.341.126 1.373 1.373 0 00-.394.2 1.447 1.447 0 00-.654.583c-.052.029.029.125-.024.168v-.015a.7.7 0 00-.227.28l-.035.029a.209.209 0 00-.1.1.57.57 0 00-.037.1c-.052.043-.087.073-.088.118v-.031c-.068.059-.029.118-.048.193l.034-.015a6.127 6.127 0 00-.748 1.462 2.319 2.319 0 00-.176.251.136.136 0 00-.052.074.816.816 0 01-.091.208 1.076 1.076 0 00-.248.445c-.124.207-.265.414-.389.592.017.016.017.016.034.016a.607.607 0 00-.156.131 1.2 1.2 0 01-.142.237c0 .015 0 .015.017.015-.018.015-.034.014-.035.029h.036a39.885 39.885 0 001.715-.917c0-.015 0-.015.017-.029-.017 0-.016-.015-.016-.031a.112.112 0 00.121-.072 1.856 1.856 0 00.5-.362.059.059 0 00.068 0 .13.13 0 01.071-.149 5.843 5.843 0 01.729-.055c.4.177.835.354 1.253.5.216.14.431.282.631.438a.8.8 0 01.19.457c-.054.1-.107.223-.161.342a3.111 3.111 0 00-1.056 1.536c-.056.179-.128.328-.182.461a.324.324 0 00-.037.1c-.038.15-.076.3-.1.434a.978.978 0 00.811.609 6.18 6.18 0 001.061.119 12.854 12.854 0 003.571-2.039 3.54 3.54 0 00.592-.631.035.035 0 00.034.031c.087-.1.191-.221.279-.339a.855.855 0 00.138-.1.578.578 0 00-.072.149c-.017 0-.017 0-.016-.016-.179.357-.357.7-.519 1.04 0 .015 0 .015.017.015a.82.82 0 00-.209.206 5.32 5.32 0 00-.585.977 1.293 1.293 0 01-.176.237c0 .015 0 .015.016.03h-.034a.419.419 0 01-.122.131.318.318 0 01-.141.222.614.614 0 00-.174.206.782.782 0 00-.315.352 3.806 3.806 0 00-.506.6 7.844 7.844 0 01-1.238.764 1.45 1.45 0 00-.374.1.373.373 0 00-.153.026c-.119.012-.22.024-.322.036v-.015a.144.144 0 01-.085.013v-.015c-.018.015-.018.015-.034.014a6.056 6.056 0 01-1.049.017 3.169 3.169 0 01-2.256-1.537 3.4 3.4 0 01-.147-2.608c-.754.37-1.523.71-2.294 1.066-.191.176-.347.367-.5.528a.631.631 0 01-.177.326v.015c-.017.015-.034.03-.051.029-.02.075-.038.135-.057.209-.07.118-.142.237-.212.341-.019.075-.021.135-.039.179 0 .015 0 .031.016.031-.034.015-.052.029-.052.044.017.015.016.031.033.046l-.052.044c-.036.044-.036.074.013.105a.407.407 0 00-.022.2 1.135 1.135 0 00-.063.465 1.06 1.06 0 00.031.121c-.05-.017-.068-.017-.066-.047-.018.029-.035.044-.036.059.017.015.017.015.034.016-.034.014-.052.043-.036.059-.034 0-.05-.017-.05-.032-.017.015-.034.029-.035.044h.017a.321.321 0 01.044.243 1.348 1.348 0 01-.244.264l-.052.044a.7.7 0 00-.187.024.767.767 0 01-.419-.087.276.276 0 01-.268-.1 2.887 2.887 0 00-.377-.417 5.877 5.877 0 01-.874-1.394l.035-.029h-.034a.16.16 0 00.037-.1v.015c.017.031.033.031.067.017a.791.791 0 01.1-.419.053.053 0 00.067.017.051.051 0 00.018-.045c.05.017.085 0 .137-.042 0-.015-.015-.045-.033-.046.017-.014.018-.044.036-.074-.033-.016-.033-.046 0-.09a.494.494 0 00.243-.234c.5-1.026 1-2.065 1.538-3.09.214-.415.445-.831.659-1.231v-.031c.731-1.38 1.435-3.429 2.284-4.776a1.3 1.3 0 01.073-.193 3.529 3.529 0 01-.528-.437l.034-.029c-.017 0-.017 0-.017-.016-.017.015-.017 0 .018-.029-.017-.015-.033-.046-.015-.061.016.031.05.031.084 0-.017-.015-.017-.015-.016-.03a.11.11 0 00.119-.012.175.175 0 00.107-.193 1.981 1.981 0 011.287-.1 2.2 2.2 0 01.3.083 5.2 5.2 0 011.245.586zm-32.154.325a1.143 1.143 0 01.544 1.1.733.733 0 00-.093.3.3.3 0 01-.193.22.718.718 0 01-.341.126 1.342 1.342 0 00-.394.2 1.443 1.443 0 00-.655.583c-.051.029.029.124-.024.168v-.015a.709.709 0 00-.227.28l-.034.029a.206.206 0 00-.1.1.558.558 0 00-.037.1c-.052.043-.086.073-.088.118v-.031c-.069.059-.03.118-.049.192l.035-.013a6.117 6.117 0 00-.749 1.461 2.246 2.246 0 00-.175.251.128.128 0 00-.052.074.828.828 0 01-.091.208 1.069 1.069 0 00-.249.445c-.124.208-.265.414-.388.592.017.015.017.015.033.016a.616.616 0 00-.156.131 1.151 1.151 0 01-.142.237c0 .015 0 .015.017.015-.017.015-.034.014-.035.029h.034a40.987 40.987 0 001.715-.916c0-.015 0-.015.018-.03-.017 0-.017-.016-.017-.031a.111.111 0 00.121-.072 1.872 1.872 0 00.5-.362.057.057 0 00.068 0 .13.13 0 01.071-.149 5.952 5.952 0 01.728-.055c.4.177.835.354 1.254.5.215.142.431.283.63.439a.8.8 0 01.19.457c-.054.1-.108.223-.161.342a3.114 3.114 0 00-1.056 1.536c-.056.179-.127.327-.182.462a.341.341 0 00-.037.1c-.038.15-.076.3-.1.434a.977.977 0 00.812.609 6.174 6.174 0 001.061.119 12.855 12.855 0 003.571-2.039 3.584 3.584 0 00.592-.631.033.033 0 00.033.031c.088-.1.193-.22.28-.338a.791.791 0 00.138-.1.573.573 0 00-.071.148c-.017 0-.017 0-.017-.015-.179.355-.357.7-.519 1.039 0 .015 0 .015.017.015a.828.828 0 00-.209.206 5.333 5.333 0 00-.584.977 1.25 1.25 0 01-.176.236c0 .015 0 .015.016.031h-.033a.434.434 0 01-.122.132.326.326 0 01-.141.222.615.615 0 00-.175.206.776.776 0 00-.314.353 3.77 3.77 0 00-.506.6 7.876 7.876 0 01-1.238.764 1.477 1.477 0 00-.375.095.379.379 0 00-.153.026c-.119.012-.22.024-.322.037v-.015a.136.136 0 01-.085.013v-.015c-.017.015-.017.015-.034.015a6.112 6.112 0 01-1.048.016 3.17 3.17 0 01-2.256-1.537 3.4 3.4 0 01-.148-2.608c-.754.37-1.523.711-2.294 1.066-.19.176-.348.367-.5.529a.633.633 0 01-.178.325v.015a.088.088 0 01-.052.029c-.019.075-.038.135-.057.209-.071.119-.141.237-.212.341-.019.075-.021.135-.039.179 0 .015 0 .03.016.03-.034.015-.051.029-.052.044.017.016.016.031.032.046l-.052.044c-.035.044-.036.074.013.106a.406.406 0 00-.022.2 1.123 1.123 0 00-.064.465c.016.045.015.091.031.121-.05-.016-.067-.017-.066-.047-.018.029-.035.044-.036.059.017.015.017.015.034.016-.035.014-.052.044-.036.059-.034 0-.05-.017-.05-.032-.017.015-.034.029-.034.045h.017a.32.32 0 01.044.242 1.327 1.327 0 01-.244.264l-.052.043a.672.672 0 00-.187.026.778.778 0 01-.42-.087.276.276 0 01-.268-.1 2.8 2.8 0 00-.377-.417 5.9 5.9 0 01-.874-1.394l.034-.029h-.034a.16.16 0 00.036-.1v.015c.016.03.033.031.067.017a.782.782 0 01.1-.419.045.045 0 00.085-.028c.05.017.084 0 .136-.042 0-.015-.015-.045-.033-.046.018-.014.018-.045.036-.074-.033-.016-.033-.046 0-.091a.493.493 0 00.243-.234c.5-1.025 1-2.065 1.538-3.09.214-.416.446-.831.659-1.231v-.03c.731-1.38 1.435-3.43 2.284-4.776a1.2 1.2 0 01.073-.194 3.525 3.525 0 01-.529-.437l.034-.029c-.017 0-.017 0-.016-.016-.018.015-.017 0 .017-.029-.016-.015-.033-.046-.015-.061.016.031.049.031.084 0-.016-.015-.016-.015-.015-.03a.108.108 0 00.118-.012.173.173 0 00.107-.193 1.991 1.991 0 011.288-.1 2.315 2.315 0 01.3.084 5.173 5.173 0 011.255.586zm11.587.652a.339.339 0 00.018.23 3.433 3.433 0 01-.018.428 3.6 3.6 0 01-.071.461c-.018.148-.036.263-.054.378a.049.049 0 01.017.033c-.036.165-.071.346-.107.511v.017a1.55 1.55 0 01-.089.411v.23c-.054.313-.108.642-.161.955a31.033 31.033 0 01-.431 1.942c-.125.411-.232.823-.359 1.218a2.936 2.936 0 00-.322 1.185 1.287 1.287 0 00.144.609 5.056 5.056 0 001.363 1.02 2.761 2.761 0 002.815-.164 4.2 4.2 0 001.327-1.251 3.442 3.442 0 00.646-1.793l.054-1.153h.017a7.394 7.394 0 01-.071-1.086c-.054-.214-.108-.427-.144-.642a.211.211 0 00.018-.147 1.5 1.5 0 01-.269-.758.206.206 0 00-.018-.082c.018.05.054.082.108.066a1.237 1.237 0 01.376.461c.108.23.2.477.287.707a5.439 5.439 0 01.412 1.366c-.018.016-.018.016-.036.016.054.56.09 1.153.126 1.712a.8.8 0 01-.018.214 4.809 4.809 0 01-.5 2.4 5.057 5.057 0 01-.825 1.168c-.108.115-.234.23-.359.346a3.109 3.109 0 01-.825.526.447.447 0 01-.143.033 1.181 1.181 0 01-.305.2c-.018 0-.018 0-.018-.016a.742.742 0 01-.215.115.188.188 0 00-.161.016v-.016c-1.38.016-3.215.45-4.273-.274a4.7 4.7 0 01-2.371-3.044 7.835 7.835 0 01.673-2.9 30.55 30.55 0 00.627-2.189c.126-.526.215-1.07.287-1.6h-.019a2.468 2.468 0 00.072-.51v-.017c.018-.23.054-.444.071-.675-.036-.016-.036-.032-.018-.049h.036c-.018 0-.018 0-.036-.017l.036-.033h-.036c.018 0 .018-.017.036-.033a6.123 6.123 0 00-.143-1.5 1.918 1.918 0 00-.305-.329c-.018.016-.018.016-.018.033-.017-.082-.054-.148-.071-.214a.086.086 0 00.09 0c-.018 0-.018-.016-.018-.033a.058.058 0 00.036-.017.058.058 0 01-.018-.05.1.1 0 00.071.05.846.846 0 01.52-.313.55.55 0 00.43-.05 2.942 2.942 0 011.112.51 2.533 2.533 0 011.02 1.388zM4.189 26.583a.4.4 0 00.018.251 4.226 4.226 0 01-.018.466 4.4 4.4 0 01-.071.5c-.018.161-.036.286-.054.412a.055.055 0 01.018.036l-.106.556v.019a1.847 1.847 0 01-.089.448v.251l-.16 1.04c-.124.717-.116 1.334-.276 2.015-.124.448-.131.8-.255 1.226a3.463 3.463 0 00-.319 1.291 2.055 2.055 0 00.092.765 4.644 4.644 0 001.147 1.213 3.908 3.908 0 003.529-.179 4.355 4.355 0 001.311-1.364 3.985 3.985 0 00.638-1.954c.018-.394.036-.807.054-1.255h.018a8.778 8.778 0 01-.071-1.183c-.053-.234-.106-.467-.142-.7a.254.254 0 00.018-.161 1.733 1.733 0 01-.265-.825.244.244 0 00-.018-.09c.018.054.053.09.107.072a1.325 1.325 0 01.372.5c.106.251.195.52.283.771a6.426 6.426 0 01.407 1.488c-.018.018-.018.018-.036.018.053.61.089 1.255.124 1.865a.981.981 0 01-.017.233 5.7 5.7 0 01-.5 2.619 5.213 5.213 0 01-.589 1.313c-.107.125-.23.4-.355.528a3.6 3.6 0 01-.89.619.4.4 0 01-.142.036c-.089.089-.346.076-.452.13-.018 0-.018 0-.018-.018a.7.7 0 01-.213.126.171.171 0 00-.16.018v-.018c-1.364.018-2.963.406-4.8-.654a5.066 5.066 0 01-2.283-3.38 7.54 7.54 0 01.433-2.9c.23-.789.443-1.578.62-2.385.124-.574.213-1.165.283-1.74h-.018a2.957 2.957 0 00.071-.556v-.018c.018-.251.054-.484.072-.735-.036-.018-.036-.036-.018-.054h.035c-.017 0-.017 0-.035-.018l.035-.036h-.035c.018 0 .018-.019.035-.036a7.331 7.331 0 00-.142-1.632 2.021 2.021 0 00-.3-.359c-.018.018-.018.018-.018.036-.017-.089-.053-.162-.071-.233a.078.078 0 00.089 0c-.018 0-.018-.018-.018-.036a.054.054 0 00.036-.019.064.064 0 01-.018-.054.094.094 0 00.071.054.829.829 0 01.514-.34.5.5 0 00.425-.054 3.01 3.01 0 012.109 2.063z" fill="#231815"/><path d="M39.458 28.766a.277.277 0 01-.09.23l-.026.064.013.038a3.369 3.369 0 00-.128.32.727.727 0 01-.346.359q-.192-.089-.41-.2c-.009 0-.022.008-.038.026a1.112 1.112 0 01-.334-.231.7.7 0 01-.115-.384 1.613 1.613 0 01-.141-.23l.013-.038-.026-.013a.437.437 0 00-.064-.052 1.2 1.2 0 00-.193-.474h-.038l.038-.052a.32.32 0 010-.128l.039-.077-.026-.013v-.116a.572.572 0 01.026-.115.406.406 0 000-.142l.089-.013a.22.22 0 01.128-.23l.141-.128.038.013a.419.419 0 01.064-.013.681.681 0 01.385.077l.051.128.1-.026.077.179h.064a2.286 2.286 0 01.308.461h-.038l.026.026v.051l.064.064a.235.235 0 00-.013.077 2.044 2.044 0 01.18.4l.1.038.013.038a.354.354 0 01.069.086zm2-.4l-.09.038-.026.179a.359.359 0 00-.308.295h-.525a1.054 1.054 0 00-.538-.359.792.792 0 00-.1-.231 1.384 1.384 0 010-.295l-.064-.013a.887.887 0 000-.218l.038-.038a.272.272 0 01-.013-.1.16.16 0 01.038-.09l.013.013h.1l.013-.039-.013-.1-.051-.052-.026-.077.013-.051h.026l.077.013.026-.128c.206 0 .325.026.359.077l.192.039a1.137 1.137 0 01.243.192l.013.038a.209.209 0 01.052.077.3.3 0 00.045.083.807.807 0 00.121.122 1.526 1.526 0 00.129.294.743.743 0 00.256.193zm-31.177-1.01a1.544 1.544 0 01-.128-.294.8.8 0 01-.122-.122.332.332 0 01-.045-.084.2.2 0 00-.051-.077l-.013-.039a1.124 1.124 0 00-.244-.191l-.192-.039c-.034-.051-.154-.077-.359-.077l-.026.128-.077-.013h-.027l-.012.051.026.077.051.052c0 .006 0 .024.006.053-.036.03-.072.059-.11.086l-.011-.011a.231.231 0 00-.018.031.576.576 0 01-.075.041.953.953 0 00-.317.169 2 2 0 01-.425.218l-.011-.011h.038a2.3 2.3 0 00-.308-.461h-.064l-.077-.179-.1.026-.052-.128a.677.677 0 00-.384-.077.4.4 0 00-.064.013l-.038-.013-.141.128a.22.22 0 00-.128.23l-.09.013a.375.375 0 010 .141.565.565 0 00-.026.115v.116l.026.013-.038.077a.32.32 0 000 .128l-.038.051h.038a1.2 1.2 0 01.192.474.43.43 0 01.064.052l.026.012-.013.039a1.627 1.627 0 00.141.23.7.7 0 00.115.384 1.119 1.119 0 00.334.231c.016-.017.029-.026.038-.026.145.077.281.146.41.2a.727.727 0 00.346-.359c.077-.2.119-.311.128-.321l-.013-.038.026-.064a.278.278 0 00.09-.23.341.341 0 00-.064-.09l-.013-.038-.1-.039a11.564 11.564 0 00-.122-.288 2.351 2.351 0 01.551-.5l.011-.011.023.023v.057h.011a.413.413 0 01.058.03.352.352 0 01-.006.075l.064.013a1.387 1.387 0 000 .295.8.8 0 01.1.23 1.066 1.066 0 01.538.359h.525a.357.357 0 01.308-.294l.026-.179.09-.039v-.141a.745.745 0 01-.258-.188zm-1.217-.487l.007-.087.007.049zM6.35.836a.419.419 0 01.138.024 4.732 4.732 0 00.437.229 1.376 1.376 0 01.4.361.965.965 0 01.138.7c0 .008 0 .008.008.008a6.934 6.934 0 011.869-.651.079.079 0 00-.015-.038.028.028 0 01.008-.023.059.059 0 00.077.008.02.02 0 01-.023-.023.086.086 0 00.061.008c-.008 0-.008 0-.008-.008.008.008.023 0 .031-.008a.089.089 0 01-.023-.061.217.217 0 00.1 0c-.008-.008-.008-.008-.008-.015.015-.038.046-.054.1-.031a3.593 3.593 0 01.49.245.936.936 0 01.077.023.2.2 0 01.153.092.088.088 0 01.054.038.769.769 0 01.222.115v.015c-.015-.008-.023-.008-.031 0 .023.015.054.031.092.054h-.023a.406.406 0 01.077.084.1.1 0 01.069.069l.291.268a.769.769 0 01.192.49.212.212 0 01-.13.115.324.324 0 00-.207.168.434.434 0 01-.176.123.13.13 0 01-.046.046.162.162 0 00-.1.038 3.073 3.073 0 01-.391.253c-.207.13-.413.238-.628.352a8.978 8.978 0 01-.352.2.492.492 0 00-.054.015 6.422 6.422 0 00-.513.253c-.031.008-.062.015-.084.023a.154.154 0 00-.039.023.3.3 0 01-.168.023.034.034 0 01-.038 0 .272.272 0 00-.123.069h-.008a.077.077 0 01-.038.031c-.008 0-.008 0-.008-.008l-.015.015c-.008.008-.015 0-.015-.008a.471.471 0 00.077-.054.27.27 0 00-.107.046c-.008.008-.015.008-.015.015a.131.131 0 00-.046.046v-.015a.172.172 0 00-.038.038.028.028 0 01-.023.008.023.023 0 01.008.015.111.111 0 00-.054.015c-.046.031-.092.069-.146.107-.008.008-.015.008-.015.015a1.482 1.482 0 00.237-.207H8.04a.092.092 0 00.054-.053.064.064 0 00-.054 0 .668.668 0 00.2-.138c-.008 0-.008 0-.015-.008.008.008.008.008.015.008a.024.024 0 01.008-.015c.046-.046.092-.1.146-.153-.007 0-.007 0-.007-.008 0 .008 0 .008.007.008a.2.2 0 01.038-.046c-.007 0 0-.008.015-.023h-.031c-.008.015-.008.023-.015.031-.008-.015 0-.023.015-.031h.031l.039-.038c-.008 0-.008 0-.008-.008-.008.008-.015.015-.015.023s-.008-.008-.008-.015c0 .008 0 .015.008.015s.015-.023.024-.031c.007-.008.015-.008.023-.015-.008 0-.008 0-.016.008.008.008.008.008.016.008s.008-.008.015-.015-.007-.008-.007-.015a.17.17 0 01.038-.023h-.008a.028.028 0 00.008-.023c0 .008 0 .008.008.008s.023-.015.023-.031c.008 0 .008 0 .008.008a7.9 7.9 0 00.95-1.195.541.541 0 00-.161-.421h-.039a.131.131 0 01-.076.008.029.029 0 01.023-.008.094.094 0 00-.069.023.075.075 0 01-.07.046h-.031c-.007 0-.007 0-.015.008a.1.1 0 00-.046-.008.616.616 0 01-.107.038c0 .008 0 .015.008.008a.024.024 0 00-.008.015c.008 0 .008-.008 0-.015a.271.271 0 00-.107.023 1.058 1.058 0 01-.138.054.333.333 0 00-.123.038 1.531 1.531 0 00-.145.084.323.323 0 01-.107.046.123.123 0 01-.069.023.111.111 0 01-.077.046l-.008-.008a.184.184 0 00.061-.046c-.008-.008-.015-.008-.015-.015-.038.023-.061.046-.054.084a.758.758 0 00-.077.031c-.008 0-.008 0-.015-.008-.008.008-.008.015-.015.023s-.008 0-.015-.008a.122.122 0 01-.069.054.378.378 0 01-.084.031.2.2 0 00-.046.038.147.147 0 01-.092.031v.023c-.084.038-.161.069-.245.107a.277.277 0 00-.031.069h.008a.65.65 0 01-.046.184.19.19 0 01-.008.061h.008a.028.028 0 00-.008.023.2.2 0 01-.015.054 2.232 2.232 0 01-.023.1c.008.015 0 .023-.008.031-.023.168-.046.337-.084.5h.015c-.008.008-.015.015-.015.023a.029.029 0 00.023.008v-.015a4.748 4.748 0 01-.077.329 2.855 2.855 0 00-.031.505.028.028 0 00.023.008c0 .016 0 .023-.008.031-.008.038-.008.084-.015.123a1.938 1.938 0 001.455.521l.008-.008a3.076 3.076 0 00.391 0v.008a.868.868 0 00.513-.146 2.616 2.616 0 00.475-.306c.015-.061.031-.123.054-.192l-.008-.008.008-.007a.128.128 0 01-.054-.085c0 .008 0 .008.008.008l.008-.008c-.008-.008-.015-.008-.015-.015a.065.065 0 00.054 0h-.016a.336.336 0 01.145.015l.008.008a.106.106 0 00.069 0 4.764 4.764 0 00.567.36 1.153 1.153 0 01.406.529.093.093 0 01-.023.069c-.008 0-.008 0-.015-.008a.078.078 0 00-.015.069.432.432 0 01-.084.114h.054a.2.2 0 00-.084.093h-.008a.276.276 0 01-.061.092h.015a.133.133 0 01-.077.008.024.024 0 00-.015-.008c-.008-.008-.015-.015-.023-.015-.084.031-.161.069-.245.092a.239.239 0 00-.077.008.846.846 0 00-.283.115c0 .008 0 .008.008.008-.008.008-.015.008-.008.008l.008-.008c-.008-.008-.008-.015-.015-.008-.008-.008 0-.008.008-.015-.008 0-.008 0-.008-.008a.666.666 0 00-.176.046c-.008.008-.008.015 0 .015h.008l-.008.008c0-.008 0-.008-.008-.008a.153.153 0 00-.061.031.118.118 0 01.061-.046.283.283 0 00-.084-.008.359.359 0 01-.092.069.081.081 0 00.038-.069.209.209 0 00-.061.054c0-.008 0-.008-.008-.008.008-.008.008-.015.015-.023a.07.07 0 00-.061.031h-.054a.024.024 0 01-.031 0c-.008-.008-.015-.015-.015-.023a1.112 1.112 0 01-.314.023l-.115.023v-.008l-.008.008c-.008 0-.008 0-.015-.008a.094.094 0 01-.077-.015 3.492 3.492 0 01-.851-.084.192.192 0 01-.1-.023 1.82 1.82 0 01-.176-.046c-.123-.023-.291-.084-.528-.161a.237.237 0 01-.092-.038.3.3 0 01-.146-.077.205.205 0 01-.1-.046 3.171 3.171 0 01-.728-.505 1.122 1.122 0 01-.375-.789.721.721 0 010-.314v-.123a1.723 1.723 0 01.008-.444.153.153 0 00-.13.008.616.616 0 01-.207.031.765.765 0 00-.268.069.671.671 0 00-.115-.038 1.587 1.587 0 01-.414-.2.45.45 0 01-.222-.237.269.269 0 00.107.023.832.832 0 00-.046-.084.034.034 0 00.046.015.065.065 0 01-.015-.046c.008.015.023.015.038 0a.1.1 0 01-.023-.061c-.008 0-.008 0-.008-.008a.028.028 0 01.023.008l.008-.008c.008.008.015 0 .031-.008v-.023a4.269 4.269 0 00.429-.092 7.511 7.511 0 00.858-.436.1.1 0 00.023-.031c0-.214-.008-.421-.015-.643.008-.008.008-.008.015-.008a2.182 2.182 0 00-.23-1.08.033.033 0 00.038.008l-.023-.045A.089.089 0 006.15.978c0-.007 0-.007-.008-.015a.272.272 0 01.092-.031.4.4 0 01.054-.068H6.28c.023-.035.047-.044.07-.028zm8.239 1.322c.125.029.258.052.391.074a2.663 2.663 0 01.569.229 1.157 1.157 0 01.341.31.211.211 0 01.044.185l-.044.111a.086.086 0 00-.022.074v.044a2.172 2.172 0 00-.03.384 1.11 1.11 0 00-.029.148c.008.008.008.008.015.008a2.7 2.7 0 00-.066.318c0 .008 0 .008.008.008-.008.007-.008.022-.008.059-.029.207-.059.429-.1.643a.194.194 0 00-.007.089 2.136 2.136 0 01-.111.3c-.015.007-.022.007-.029.015-.022.059-.045.133-.074.2a1.037 1.037 0 01-.362.207.812.812 0 01-.37.251 1.572 1.572 0 01-.274.133c-.074.052-.133.111-.2.156a1.013 1.013 0 01-.184.126 1.037 1.037 0 01-.155.059c-.03.022-.045.03-.052.022a.544.544 0 01.111-.185 5.243 5.243 0 00.688-1.382 6.862 6.862 0 00.214-1.5l-.022-.229h.007a.289.289 0 00-.147-.326c-.037-.029-.082-.066-.133-.1a.331.331 0 01-.1-.081.475.475 0 01-.156-.185.08.08 0 00.059-.037c-.008-.022 0-.037.022-.059.007-.008.015-.015.007-.03h-.007c.007.008.015.008.029 0a.279.279 0 01.155-.015zM17.013.487a2.253 2.253 0 00-.421.251.061.061 0 000 .052.173.173 0 01-.081.045.209.209 0 00.066.148c.1.066.185.133.266.192-.022.222-.037.429-.045.636-.044.414-.089.821-.126 1.22a23.759 23.759 0 01-.133 1.523c0 .207.007.4.022.6a.333.333 0 00-.059.141c-.022.007-.029.029-.022.066a1.813 1.813 0 00.318.481 2.427 2.427 0 00.436.392.65.65 0 00.192.14.721.721 0 00.377.178.333.333 0 00.081-.059v-.037c0-.008.008-.008.015-.015a.148.148 0 01.066-.089v-.045a.872.872 0 01.081-.074 1.923 1.923 0 01.237-.347 2.463 2.463 0 01.281-.422 2.623 2.623 0 00.348-.465 6.46 6.46 0 01.3-.651c.1-.155.192-.318.288-.473a2.444 2.444 0 00.207-.356 1.988 1.988 0 00.1-.362.718.718 0 00.052-.111c.045-.066.1-.148.163-.229l-.015-.015h.015a.949.949 0 00-.148.155c-.007-.007-.007-.015.008-.022a3.242 3.242 0 00-.274.281c-.008 0-.008-.008-.008-.015l-.007.008c0 .008 0 .008.007 0 0 .008 0 .008.008.008s0 .015-.008.015a10.552 10.552 0 01-1.257 1.316 4.562 4.562 0 01-.687.421.108.108 0 00-.03-.044c.008-.052.008-.1.015-.148-.008 0-.008-.008-.008-.015.008-.111.022-.214.029-.333-.007 0-.007-.007-.007-.015s0-.015.007-.022a.292.292 0 01-.007-.073c0-.022 0-.03.007-.037s-.007 0-.007-.008.015-.007.007-.015a.65.65 0 01.052-.3c-.007.008-.007.015-.015.022-.015-.008-.015-.015-.007-.022l-.015.015v-.016a.593.593 0 00.022-.177c.008-.008.008-.015.015-.022a.263.263 0 01.015-.126c-.008 0-.015 0-.015-.007a.492.492 0 00.015-.1.15.15 0 00.007-.052.027.027 0 01.008-.022h-.008c-.007-.007 0-.022.008-.029-.008 0-.008 0-.008-.007a9.82 9.82 0 01.052-.8c.008-.008.008-.022.008-.045a.32.32 0 01.052-.222 4.3 4.3 0 01.2-.458.5.5 0 00.17-.274V1.61a.294.294 0 00-.022-.192.535.535 0 00-.177-.281.8.8 0 00-.355-.348 1.649 1.649 0 00-.65-.302zm8.713.686a3.936 3.936 0 011.42 1.035 1.923 1.923 0 01.31.525.14.14 0 00.008.059.519.519 0 01.015.1.324.324 0 00-.015.074 1.537 1.537 0 00-.177.251 7.149 7.149 0 01-.532.747.079.079 0 00-.045.037l-.029.029c.007.008.007.015.015.022-.008.008-.008 0-.015-.022-.008.015-.015.022-.03.022s-.015 0-.015.008h.008v.015h-.008a2.4 2.4 0 00-.288.392.159.159 0 00-.052.089l.008-.007-.008.007-.007-.007a.072.072 0 00-.037.044c0 .007.007.015.022.007a.08.08 0 01-.037.008c.007.008.007.008.007.015a.024.024 0 00-.007.015c-.008 0-.008-.007-.008-.015a1.343 1.343 0 00-.1.111h-.015c-.03.029-.067.059-.1.089-.008-.007-.008-.007-.015-.007v.014a.1.1 0 00.03.022.066.066 0 00-.045.022c0 .008 0 .015.008.015a.067.067 0 01-.045-.029c-.007.008-.015.022-.007.029a.033.033 0 00.037.008c-.015.015-.03.022-.037.029s0 .008.007.008a.5.5 0 00-.066.059h.007l-.044.022a.027.027 0 00-.007-.022 1.217 1.217 0 01-.288.184c.007.008.007.008.015.008s.007 0 .015-.008a.266.266 0 01-.037.045.021.021 0 00-.029 0v.007c-.008 0-.008 0-.008-.007a.107.107 0 01-.022.029c0 .015.007.015.022.008a.739.739 0 00-.17.1l-.015.015c-.007.008-.007.015-.015.022s0 .008.008.008a.014.014 0 00-.022 0v.007a.205.205 0 00-.089.067v.007a.306.306 0 00-.133.059c0 .008 0 .008.007.008l-.007.015a.027.027 0 00-.008-.022c-.022.008-.029.022-.029.029s0 .008.007.008l.008-.008-.008.008c0 .007 0 .007.008.007h-.021l.007-.007a.032.032 0 00-.037 0v.015l-.022-.022v.029c-.015-.007-.03-.015-.037-.007s-.008.015-.015.022.007.007.015 0c-.008.007-.008.015-.015.015s-.008-.008-.008-.015a.1.1 0 00-.029.022h.007a.177.177 0 00-.074.052c.008 0 .008 0 .008-.007a.3.3 0 00-.118.037c.007.007.015.007.029.007a.044.044 0 01-.029.008c.007 0 .007-.008 0-.015a.115.115 0 00-.045.029c.008.008.008.015 0 .03-.008 0-.008-.008-.015-.015-.008.008-.015.015-.022.015a.3.3 0 00-.074.022c.008.008.022 0 .03-.007a.056.056 0 00-.03-.008c0 .008-.007.008-.015.015.008.008.015.008.015.015 0-.008-.007-.008-.015-.015a.114.114 0 01-.045.059.412.412 0 00-.052.022c.03-.022.059-.052.089-.074a.1.1 0 00-.074.029c0 .008 0 .008.007.008a.027.027 0 00-.022.008.025.025 0 00-.007-.015 2.212 2.212 0 01-.3.155h-.045a.108.108 0 00-.045.015.235.235 0 01-.118.044c-.066.03-.126.052-.192.082a.05.05 0 01-.045 0c-.007 0-.007 0-.007-.008h-.03c0 .008 0 .008.008.008-.008-.008-.015-.008-.015 0s-.008.007-.022 0l-.007-.008c-.008.008-.022.015-.03.008a.3.3 0 00.1-.037 1.152 1.152 0 00-.118.029c-.022 0-.037 0-.045.008a1.086 1.086 0 01-.147.029.07.07 0 00-.066.015v.008h-.008c0 .007 0 .007.008 0-.022-.008-.038-.015-.052-.008a.164.164 0 00.118-.029.087.087 0 00-.074.007 1.246 1.246 0 00.221-.066h-.1c-.111.029-.207.059-.318.082l-.022.022a.026.026 0 00-.008-.022v.022h-.015c-.007 0-.007 0-.007-.007s-.015.007-.015.015c-.029.007-.052.007-.073.015 0 .008.007.008.015.008h-.03c-.007 0-.015 0-.015.007v-.007c-.007 0-.015.007-.007.022-.03-.022-.052-.029-.074-.022v.007c-.045.008-.089.022-.126.03a.558.558 0 00-.111.015 2.112 2.112 0 01-.6.089l-.008-.008a.4.4 0 01-.229.008.764.764 0 00.288-.082h.007a1.589 1.589 0 00.214-.089c-.007 0-.007-.007-.007-.015 0 .008 0 .015.007.015a.089.089 0 00.022-.03.046.046 0 00.045 0V6.16a.1.1 0 00.059-.022c0 .007.008.007.015 0s.015-.008.022-.022h-.007l.007-.015a.023.023 0 00-.007.015c0 .007.007.007.015 0a.5.5 0 00.089-.037.566.566 0 00.133-.074c.045-.022.089-.037.141-.059.14-.088.281-.17.421-.251-.008 0-.008 0-.015-.007s.007.007.015.007a8.265 8.265 0 001.072-.761c-.008 0-.008 0-.008-.007s0 .007.008.007c.281-.251.54-.525.8-.806a6.608 6.608 0 00.85-1.449 1.969 1.969 0 00.089-.3.859.859 0 00-.325-.377.118.118 0 00-.089.029.27.27 0 01-.081.029.077.077 0 01-.037.008.056.056 0 00-.037.015 3.7 3.7 0 00-.5.118c-.008 0-.008 0-.008-.007a.137.137 0 01-.133.052 1.68 1.68 0 01-.355.155.943.943 0 00-.4.311.248.248 0 00-.126.081 3.507 3.507 0 01-.754.517.5.5 0 01-.288.1.7.7 0 01-.348-.022 2.038 2.038 0 01-.288-.111 1.59 1.59 0 01-.621-.65c-.044-.067-.089-.133-.126-.2a.172.172 0 00.015-.126.056.056 0 00.059-.045.15.15 0 00-.029-.036c.022.015.044.007.066-.022.148.029.3.059.451.081a3.727 3.727 0 001.094-.325 7.706 7.706 0 011.057-.406 4.623 4.623 0 011.146-.259.365.365 0 01.236-.119zm4.322 1.681a.333.333 0 01.052-.022 1.8 1.8 0 01-.008.214 1.536 1.536 0 00.052.318.278.278 0 01.03.14 1.934 1.934 0 01.022.414.848.848 0 00-.081.325.461.461 0 00.059.17c-.037.008-.052.022-.045.045a.075.075 0 00-.029.037c-.022.029-.037.044-.066.044s-.052.015-.059.03-.022.036-.045.029a.106.106 0 01-.029-.022.057.057 0 01-.074-.007c-.066-.037-.126-.074-.177-.1a.585.585 0 01-.17-.214.262.262 0 01-.1-.192.211.211 0 01.03-.126.507.507 0 01.015-.1c.022-.015.029-.044.037-.081.059-.155.118-.333.17-.51a.41.41 0 01.1-.237.481.481 0 01.178-.244v-.022c.036.022.066.045.1.066a.076.076 0 00.038.045zM33.486.096a.378.378 0 01.059.052.62.62 0 01.17.339.477.477 0 01.045.207.361.361 0 00.044.2.521.521 0 00.015.1.253.253 0 01.037.133.188.188 0 00.067.1 1.13 1.13 0 01.488.444.466.466 0 01.037.17c-.008.007-.015.015-.015.022a.334.334 0 01.007.119.136.136 0 01-.118.052.33.33 0 00-.118.052.279.279 0 01-.111.059.206.206 0 01-.052.029.073.073 0 01-.037.029.154.154 0 01-.089.037.474.474 0 00-.155.067.432.432 0 01-.059.17c-.022.022-.045.037-.052.059a.1.1 0 00-.037.066.155.155 0 01-.1.1.334.334 0 01-.111.1.106.106 0 00-.066.008.16.16 0 00-.044.066.027.027 0 01-.037.015.42.42 0 00-.141.059c-.022.022-.051.044-.073.066a.7.7 0 00-.089.066.333.333 0 00-.14.126l-.022.1a.441.441 0 01.007.14c0 .007.008.007.015.007a6.049 6.049 0 01.835-.251 1.985 1.985 0 01.073-.348 2.267 2.267 0 00.075-.37.016.016 0 00.015-.015c.007-.008.007-.022.015-.045-.008-.007 0-.015.015-.015s.015.015.022.008c-.008-.008-.008-.015-.015-.022s.008-.008.022-.008.008-.015.022-.029c.008.022.015.022.03.015-.008-.007-.008-.015 0-.029v-.008c.007.008.007.015.015.015a.027.027 0 01.007-.022l.015.015c0-.008.008-.008.015-.015a.027.027 0 00.022-.008l.008.008v-.045c.007.015.015.022.037.015v-.037c0 .022.007.022.022.015l.008-.008c.008.008.015.008.029.015s0-.007.008-.015a1.067 1.067 0 01.192.274.564.564 0 01.052.147 3.825 3.825 0 01.045.407.1.1 0 00.1.008.4.4 0 00.229 0h.022v-.022c0 .008 0 .008.007 0s.015 0 .008-.007c.008-.008.015-.008.037 0l-.008-.008h.03a.116.116 0 01.074-.052c.015.008.029 0 .044-.008a.6.6 0 01.229.074 1.264 1.264 0 01.474.451.089.089 0 01.029.066.274.274 0 01-.14.119.339.339 0 01-.126-.008c-.007-.008-.022-.015-.03-.022-.022.022-.029.037-.022.052a.476.476 0 01-.074-.022.2.2 0 00-.1-.008c-.059-.015-.119-.037-.185-.059a.445.445 0 01-.111-.045 3.216 3.216 0 00-.569-.082.253.253 0 00-.089.141c-.022.007-.029.022-.037.044a.313.313 0 00-.081.089c.037.029.081.059.118.089a.266.266 0 01.082.119.267.267 0 00-.03.147.142.142 0 01-.066.1.038.038 0 01-.029.037.255.255 0 01-.111.052c-.015.007-.03.015-.037.007a.921.921 0 00-.126.074 1.9 1.9 0 01-.325.2c-.052.052-.1.111-.148.163a.063.063 0 00-.044.015.075.075 0 01.037.03c.007-.015.015-.022.029-.015s.015.015.022.008a.1.1 0 00-.015.044c.044.015.089.045.14.067a.14.14 0 01.089.081.44.44 0 01.074.126.266.266 0 01.044.185.325.325 0 00-.015.044.3.3 0 00-.044.03 1.642 1.642 0 00-.1.31 2.219 2.219 0 00-.008.222 1.092 1.092 0 00.4.147.931.931 0 00.474-.03.414.414 0 00.221-.177.377.377 0 00.111-.244.48.48 0 01.066-.119.25.25 0 000-.147 2.9 2.9 0 01-.171-.3c-.11-.111-.228-.222-.347-.347a1.562 1.562 0 01-.3-.281.267.267 0 01-.029-.052 3.1 3.1 0 01.451.274c.162.148.333.3.48.458.163.177.311.355.466.532a2.065 2.065 0 00.244.363.306.306 0 01.052.2.22.22 0 01-.066.074.171.171 0 01-.059.089c-.008.022-.015.029-.03.029a.108.108 0 00-.1.03.265.265 0 00-.118.14.332.332 0 00-.052.015v-.015c.008.007.008.007.015.007s0-.007.008-.007a.216.216 0 00-.066.007.068.068 0 01-.03.045h.008v.007h-.008v-.007l-.022.022v-.015c-.008.008-.015.008-.022.015a.117.117 0 01.022-.015l.037-.037-.015-.015c-.052.037-.1.066-.155.1a.088.088 0 00-.066.022h.008a.041.041 0 01-.03.015c.008 0 .008-.008.008-.015h.015a.079.079 0 00-.059 0 .976.976 0 01-.133.044c0 .008 0 .008.007.008l-.007-.008a.1.1 0 00-.03.022l.008-.008a.122.122 0 00-.045.022v-.022a.06.06 0 00-.037.015c.008 0 .008 0 .015.008a.084.084 0 00-.037.007c.007-.007.015-.007.022-.015a.035.035 0 00-.037 0v.008a.031.031 0 00-.036 0 .742.742 0 01-.34-.015 9.724 9.724 0 01-.437-.074 2.4 2.4 0 01-.392-.192c-.037-.022-.066-.045-.1-.066a.46.46 0 01-.23-.148.433.433 0 01-.214-.48c.015-.133.022-.266.03-.4a.048.048 0 000-.044.167.167 0 00-.14.052c-.008-.008-.008-.022-.008-.045 0-.007 0-.007.008-.015a.773.773 0 00-.244.074c-.007.008-.007.008-.015.008h.003c-.1.1-.207.214-.318.318-.022.022-.044.037-.059.052s-.008 0-.015-.008a4.36 4.36 0 01-.237.185 1.658 1.658 0 01-.237.155 1.3 1.3 0 01-.17.089 1.659 1.659 0 00-.259.133.1.1 0 01-.044.036.653.653 0 01-.193.1.622.622 0 01-.1.067.257.257 0 00-.066.044.219.219 0 01-.118.074h-.022a.027.027 0 01-.022-.008.027.027 0 00-.008.022h.008V6.69c-.008.008-.022.015-.029.008-.008.022-.022.022-.03.008s-.015 0-.015-.008l-.059.059h-.007c-.008.007-.015 0-.029-.015s-.015-.036-.008-.081c.022-.008.029-.015.022-.037h.007c0-.007-.007-.015-.015-.022h.008c-.008 0-.008 0-.008-.007s.008-.008.015-.015v-.015c.008.015.015.007.022-.015 0-.007 0-.007-.007-.015l.015-.007a.014.014 0 010-.022c.007 0 .007-.008.007-.015s.008.007.015.007a.056.056 0 01.037-.052v-.029a.027.027 0 00.022-.008.176.176 0 01.037-.052.014.014 0 00.022 0 .3.3 0 00.044-.015.532.532 0 00.1-.015c-.022-.015-.022-.03 0-.037a.079.079 0 00.059.007.117.117 0 01.11-.029 2.214 2.214 0 00.5-.377c.244-.274.473-.562.7-.865a.476.476 0 00-.1-.008.511.511 0 00-.207-.022.142.142 0 01-.133-.007.13.13 0 01-.029-.052l.008-.015v-.007c.007 0 .007-.008.015-.015h-.008a.044.044 0 00.03-.008c-.008-.007-.015-.015-.015-.022a.028.028 0 00.022-.007c-.007 0-.015-.008-.015-.022h.022a.023.023 0 00-.008-.015.132.132 0 00.037-.015c-.007-.008-.007-.022-.015-.03a.016.016 0 00.015.015.014.014 0 000-.022c.008 0 .015-.008.008-.015.008 0 .008 0 .015-.008s-.015-.008-.007-.015h.022c-.007-.008 0-.015.008-.022a.127.127 0 00.044-.044v.015a.427.427 0 00.022-.059c0 .008.008.008.015.008.089-.052.185-.1.274-.148.059-.022.126-.052.2-.089a.6.6 0 01-.163-.318.066.066 0 00-.082.015c-.052.037-.111.081-.17.118-.081.052-.148.111-.222.163v-.007a3.494 3.494 0 01-.421.281c-.052.1-.1.2-.133.288a1.426 1.426 0 00-.037.141c-.1.1-.184.214-.273.31a4.342 4.342 0 00-.385.459 1.472 1.472 0 01-.273.325.273.273 0 01-.067.1 1.034 1.034 0 00-.081.14.263.263 0 01-.2-.111.329.329 0 00-.1-.1.063.063 0 000-.052.04.04 0 01-.022-.037.084.084 0 00.022-.059c.007.008.007 0 .015-.007a.027.027 0 00-.008-.022.124.124 0 00.022-.044.047.047 0 010-.045c.008-.008.015-.008.022-.015-.008-.008-.008-.008-.008-.015s.022 0 .037-.015c-.008-.008-.008-.008-.008-.015s.022-.008.022-.03c-.008 0-.008 0-.008-.007a.517.517 0 00.126-.178 1.38 1.38 0 00.377-.554 1.538 1.538 0 00.1-.5.477.477 0 010-.148 1.03 1.03 0 01-.288-.857.713.713 0 00.022-.185 12.832 12.832 0 01.089-1.316 3.063 3.063 0 01.229-.8c.015-.008.022-.022.029-.045.029-.022.052-.052.089-.081.008 0 .008-.015.015-.029 0 .007 0 .007.008 0a.2.2 0 00.074-.045c.015.008.029 0 .044-.015v-.008c0 .008 0 .008.008.008a.2.2 0 00.022-.037.714.714 0 01.11.089.932.932 0 00.119.244.062.062 0 00.015.045.478.478 0 00.022.059.756.756 0 01.1.274.508.508 0 01.03.185 3.759 3.759 0 01-.1.628 1.353 1.353 0 00-.044.245h-.008a.06.06 0 000 .052 1.133 1.133 0 01.236-.259 1.5 1.5 0 00.148-.118.067.067 0 01.074-.015.135.135 0 01.059-.015c0 .007 0 .007.007.007s.008-.015.015-.007a1.644 1.644 0 00.214.17.517.517 0 01.022.148.986.986 0 00-.036.118.36.36 0 01-.1.089 3.558 3.558 0 01-.274.222 1.008 1.008 0 00-.089.081 2.747 2.747 0 00-.244.148.4.4 0 00-.148.074.262.262 0 00-.052.089.6.6 0 000 .118.268.268 0 01.007-.074c-.007.045-.007.1-.015.133a.287.287 0 01-.029.155c-.007.008-.007 0-.007-.008s-.008 0-.008-.007a.21.21 0 00-.015.066.163.163 0 00.073.082c.089.066.17.133.245.2a9.622 9.622 0 00.813-.991.138.138 0 00.052-.008.63.63 0 01-.052.1 1.9 1.9 0 01-.2.37 2.489 2.489 0 00-.126.237 1 1 0 00.281-.141 2.037 2.037 0 00.214-.11 1.337 1.337 0 01.052-.761.464.464 0 01.029-.037v.007a.274.274 0 01.029-.066c.015.007.022 0 .022-.015 0 .007.008.007.022 0v-.015a.07.07 0 00.052-.059c0 .007 0 .015.008.015V2.77a.118.118 0 01.073 0h.008a.052.052 0 01.03-.022.474.474 0 00.088.089 1.3 1.3 0 01.148.259h.015a.851.851 0 00.156-.458c-.022-.082-.037-.17-.059-.259a.032.032 0 00-.045-.022 1.993 1.993 0 01-.414.1.344.344 0 01-.214-.008.125.125 0 01-.1-.044.05.05 0 010-.045v-.073a.175.175 0 00.037-.037v-.015a2.4 2.4 0 01.281-.267l.111-.066a1.221 1.221 0 00.362-.251c.015-.221.022-.458.022-.68a4.012 4.012 0 01.126-.687.361.361 0 01.052-.059.04.04 0 01.022-.037c.015-.007.015-.03.015-.052a.055.055 0 01.029.015c.008-.022.022-.022.045-.015l.022-.022c.008-.007.008-.022.008-.036a.05.05 0 00.045-.008.07.07 0 00.059-.052c.015.008.022.022.03.03.032-.026.061-.003.098.048zm-.118 3.557c-.111.037-.214.066-.3.1s-.156.059-.222.088a.123.123 0 000 .074.159.159 0 010 .082l.007.118a.59.59 0 00.022.059 1.233 1.233 0 00.592-.54.469.469 0 00-.099.018zM41.627.325a.442.442 0 01.059.266.049.049 0 010 .044.149.149 0 00.014.111 1.712 1.712 0 01.54.074 1.451 1.451 0 01.71.222 2.111 2.111 0 01.813.8.394.394 0 01.044.177.172.172 0 00-.015.1 1.511 1.511 0 00-.059.163l-.133.658c-.029.177-.052.37-.066.555a2.784 2.784 0 000 .5c.007.34.022.68.029 1.021.015.14.015.266.022.406a1.381 1.381 0 01-.14.791 2.953 2.953 0 01-.259.267c0-.008 0-.008-.007-.015a.078.078 0 01-.037.045.163.163 0 01-.1.066.2.2 0 01-.081.052.342.342 0 01-.17.1.311.311 0 01-.14.082 1.046 1.046 0 01-.1.066.27.27 0 01-.229-.052 1.994 1.994 0 01-.34-.37 2.1 2.1 0 00-.222-.208 5.065 5.065 0 01-.806-.732 2.184 2.184 0 01-.406-.628c-.015-.008-.029-.022-.045-.03l.008-.007a.444.444 0 00-.221.052.056.056 0 01-.015-.037c-.007.008-.022.015-.029.022-.007-.022-.022-.03-.029-.052a.6.6 0 01-.1-.014c-.1.007-.192.014-.281.029a.621.621 0 00-.273.044 1.635 1.635 0 01-.163.037c.022-.007.044-.015.074-.022a.1.1 0 00-.066.008c-.023.008-.037.008-.059.015a.762.762 0 01-.185-.007c-.008.177-.015.347-.015.525l-.022.207a.618.618 0 01-.126.37.16.16 0 00-.044.1c-.022.037-.037.074-.059.1a.792.792 0 01-.059.081l-.089.022a.19.19 0 01-.14-.059 1.407 1.407 0 01-.347-.488.016.016 0 010-.03.374.374 0 00-.03-.1.165.165 0 00.045-.141v-.007c.015 0 .022 0 .029-.008s0-.022-.007-.029.015-.008.022-.029c.008.007.008 0 .015-.008-.015-.007-.022-.015-.015-.037a.045.045 0 01.03.008.041.041 0 01.044-.008v.008c0-.008 0-.008.008-.015h.007a.657.657 0 00.059-.214c.037-.333.059-.673.081-1.028a5.472 5.472 0 01.03-1.042 1.356 1.356 0 01-.214-.51.627.627 0 010-.17.064.064 0 00.044-.022c-.007-.008-.007-.015-.015-.022.008.015.015.015.037.008s0-.029-.015-.059c.022.03.044.045.066.037.052.029.111.066.17.1a1.756 1.756 0 01.228.244.362.362 0 01.119.214c.037.089.074.17.111.259.007.14.022.281.037.429v.436c0 .008 0 .008.007.008a.886.886 0 000 .192 1.15 1.15 0 00.03.177c-.008.007-.008.007-.015.007s.007.008.015.008l-.022.488a1.242 1.242 0 01.3-.177c.37-.407.732-.821 1.087-1.25a.4.4 0 01.045-.059c-.008 0-.015 0-.015-.008a.855.855 0 00-.355.1.8.8 0 01-.184-.008.091.091 0 01-.089-.015 1.625 1.625 0 00-.192.015.112.112 0 01-.126.008.121.121 0 01-.14-.022c-.022 0-.037-.015-.052-.037a.393.393 0 00-.036-.1c-.008-.007-.015-.015-.015-.022a.024.024 0 00.015-.008.625.625 0 01-.015-.126c0-.015.008-.022.029-.022s.03-.037.052-.059a.014.014 0 010-.022.147.147 0 00.081-.081c0 .007 0 .007.008.015a.035.035 0 000-.037 1.2 1.2 0 00.207-.251c.192-.325.377-.658.555-.991l.008-.052a.565.565 0 01-.089.052 1.878 1.878 0 00-.459.451c-.1.133-.192.259-.281.385a.075.075 0 01-.089.036.038.038 0 01-.022-.052v-.052a10.38 10.38 0 01.68-.835 2.024 2.024 0 01.318-.3 3.194 3.194 0 00.03-.532c-.008-.074-.015-.156-.03-.237a.226.226 0 01-.044-.1h.007c-.007-.015-.007-.029.008-.037-.015-.007-.015-.015 0-.022-.008-.007-.008-.022-.015-.036a.04.04 0 00.059-.015c-.007 0-.007 0-.007-.008a.033.033 0 00.037.008.035.035 0 01.007-.045c0 .008.008.015.022.008-.008 0-.008 0-.015-.008l.015-.008V.348a.055.055 0 01.052-.037 1.359 1.359 0 00.133-.089c.008-.008.008-.015.015-.022 0 .008 0 .008.007.008a.653.653 0 01.3-.148.534.534 0 01.214.044.564.564 0 01.442.221zm-.7 4.14a.944.944 0 00-.2.052.167.167 0 01-.081.067h.015a.645.645 0 00-.073.126 2 2 0 01.125.244 1.373 1.373 0 00.192.214q.145-.111.267-.222a.369.369 0 00.229-.332.2.2 0 00-.14-.059.18.18 0 01-.111-.038.667.667 0 00-.226-.052zm1.138-3.016c-.089.007-.177.022-.266.029a1.048 1.048 0 01-.31.163 2.55 2.55 0 00-.118.266 2.2 2.2 0 01-.466.791c.052.022.1.045.17.067a.949.949 0 01.155-.059.119.119 0 01.015-.037.169.169 0 00.118-.059.094.094 0 01.066-.052.041.041 0 00.007-.044.016.016 0 01.015.015c.007-.008.007-.015.015-.022a.059.059 0 01.066-.044.053.053 0 00.03-.037c0 .007 0 .007.007.007s0-.007.008-.015h.007v-.029c.015-.008.03 0 .052.007a.043.043 0 01.008-.029c0-.007 0 0 .008.008a.124.124 0 00.029-.045c0 .008 0 .008.008.008s.029 0 .036-.022c.008.008.008.015.022.015a.037.037 0 00.037-.029.027.027 0 01.022.008 1.747 1.747 0 01.31.17.432.432 0 01.156.207.347.347 0 01.044.171.1.1 0 01-.022.029c0 .022-.008.03-.015.03h-.059a3.49 3.49 0 00-.289.288.117.117 0 00-.045.03 2.658 2.658 0 00-.266.31l-.147.148a1.52 1.52 0 00-.119.185c-.007 0-.007 0-.007-.008a.209.209 0 00-.052.066.121.121 0 00-.066.052c.037.007.082.022.119.029a1.129 1.129 0 01.407.147v.008a.687.687 0 01.11.052c.038.022.067.045.1.066a1.813 1.813 0 01.3.281 1.315 1.315 0 01.163.2c.015.045.015.082-.008.1-.008.007-.022.015-.029.007 0 .008 0 .008.007.008a.069.069 0 01-.022.073.079.079 0 01-.044.052.486.486 0 00-.1.015l-.03.022c-.008.007-.007.007-.015.007a.469.469 0 01-.1.008.176.176 0 01-.089.007.26.26 0 00-.1.045.1.1 0 00-.1.037c-.008 0-.015-.008-.008-.015a.053.053 0 00-.015-.037.349.349 0 00-.081-.008v-.007a.4.4 0 01-.163-.03.317.317 0 00-.185-.029 1.076 1.076 0 00-.229.111.423.423 0 00-.133.089 1.02 1.02 0 00.185.17 4.106 4.106 0 01.444.274.432.432 0 00.214.029.806.806 0 00.481-.126l.163-.237a.631.631 0 00.1-.133 1.472 1.472 0 00.073-.673 22.277 22.277 0 01-.029-1.4c.015-.192.029-.4.037-.6a2.359 2.359 0 00.037-.6.772.772 0 00-.326-.466.54.54 0 00-.3-.015zm7.504-.954a.43.43 0 00.044.126.524.524 0 01.015.089.365.365 0 01-.059.119v.066a.128.128 0 01-.022.044l.007.082h.008a5.52 5.52 0 00.251-.119h.008a.132.132 0 00.029-.037h.007c-.007-.007 0-.015.022-.015a.08.08 0 01.008-.037c.008.008.008.015.015.015a.156.156 0 00.045-.074c.007.007.015.015.022.015s.008-.022.015-.037c0 .007.007.015.015.007a.062.062 0 00.015-.044l.022.022c0-.008.008-.015.022-.022-.007 0-.007 0-.007-.008a.023.023 0 00.03 0V.672c0 .008.007.015.014.008V.665c0 .007 0 .007.008.007a.034.034 0 000-.037.027.027 0 00.037.015c.008 0 .008 0 .015-.008.008.008.015.008.03.015s.007-.015 0-.029a.286.286 0 01.073.007 1.078 1.078 0 00.185.133.5.5 0 00.1.081.154.154 0 01.067.037.3.3 0 01.1.1l.007.066a.263.263 0 00-.059.089c-.007.008-.015.008-.015.015v-.007c-.008.015-.022.015-.036.015a.234.234 0 01-.1.066.121.121 0 01-.067.022 1.7 1.7 0 00-.17.1.335.335 0 00-.2.052.387.387 0 00-.1.037 1.114 1.114 0 01-.184.059.932.932 0 00-.207.052.187.187 0 00-.118.037.445.445 0 00-.029.192.079.079 0 01-.008.059.078.078 0 01-.007.059.82.82 0 00.133-.029c.126-.022.237-.044.363-.059a.067.067 0 00.052-.022.09.09 0 00.074-.008c-.008-.008.008-.015.029-.022.008.008.015 0 .022-.015a1.388 1.388 0 01.184-.008 1.848 1.848 0 011.028.658.2.2 0 01.044.1.169.169 0 01.015.2.754.754 0 01-.066.081.452.452 0 00-.059.059c-.008.008-.008.008-.015 0a.415.415 0 00-.052.066.61.61 0 01-.133.141c-.015.007-.022.007-.029.015a.178.178 0 01-.075.073c-.007.015-.015.022-.022.015a.175.175 0 01-.089.074l-.008-.008a.072.072 0 01-.066.029.056.056 0 01-.029.015.293.293 0 01-.082.045h-.008a.141.141 0 01.008.133.21.21 0 01-.059.059c-.007.008-.007.015-.015.022a.056.056 0 01.022.066.452.452 0 00-.052.171.112.112 0 000 .118.428.428 0 00.052.148c.119 0 .244 0 .369-.008v-.015h.03c.007-.007.015-.022.022-.029s.007-.022.022-.022.008-.008.022-.008c-.008 0-.008-.007-.015-.022a.059.059 0 00.052 0c-.008-.007-.015-.007-.022-.015.015-.007.029-.007.052-.015 0-.007 0-.007.008-.015.007.008.015.008.029.015s0-.015-.007-.022a.2.2 0 01.066.008.038.038 0 01-.015-.03c.008.008.015.015.022.008s0-.008-.007-.015a.084.084 0 01.037.007.026.026 0 00-.008-.022c-.007.007-.007 0-.007-.022a.117.117 0 00.074.037v-.022l.036.037c.008 0 .008 0 .015-.008l.466.3a.425.425 0 01.14.074 1.22 1.22 0 01.237.163.061.061 0 01.022.044.632.632 0 01.089.119.837.837 0 01.081.1 1.1 1.1 0 01-.088.1c-.015 0-.022 0-.022.007a.137.137 0 00-.045.022v.008a.664.664 0 01-.377-.037c-.147-.029-.3-.059-.429-.1l-.147-.022c-.022.008-.037 0-.037-.007a.334.334 0 01-.119 0v-.008a1.818 1.818 0 01-.2-.007.44.44 0 00-.1-.008.144.144 0 00-.059-.015h-.029l-.008-.007v.007h-.074c-.022-.007-.029-.007-.029-.029a.568.568 0 01-.155 0c-.022.007-.037.022-.045.022a3.678 3.678 0 00.037.643c0 .126 0 .251-.007.363-.015.015-.015.029-.008.037s-.007.022-.007.052-.015.081-.03.133c.008.044.015.089.022.141a1.331 1.331 0 00-.015.3.169.169 0 01-.045.089.392.392 0 01-.044.059 1.254 1.254 0 00-.082.17.748.748 0 01-.126.177.319.319 0 01-.118.1c-.029.007-.052.015-.074.022a.37.37 0 01-.1.045.725.725 0 00-.089.022.241.241 0 00-.074.037c-.022.008-.037.015-.037.03a.354.354 0 01-.311-.008.922.922 0 01-.207-.207 1.54 1.54 0 01-.4-.3.44.44 0 01-.059-.052.312.312 0 01-.118-.1c-.133-.155-.273-.311-.4-.48-.022-.029-.044-.052-.066-.081-.007.007-.015 0-.015-.008s-.015-.022-.037-.045a.161.161 0 01-.081.037v.022l-.03.03.008-.008c-.008-.008-.022-.015-.029-.022.015-.007.022-.022.015-.029a1.03 1.03 0 00.081-.089 1.081 1.081 0 01-.259-.444.4.4 0 00.17.215c.045.052.089.1.14.155a.526.526 0 00.089-.392.967.967 0 01-.147-.081.522.522 0 00-.126-.045.02.02 0 01-.022-.022.686.686 0 01-.081.037.014.014 0 000-.022.637.637 0 00-.074.045.027.027 0 01-.008-.022.245.245 0 01-.1.059.075.075 0 00-.037.022v-.008a.129.129 0 01-.089.045.105.105 0 01-.089.044 1.111 1.111 0 01-.326.214 1.03 1.03 0 01-.37.022 1.867 1.867 0 01-.569-.111.121.121 0 01-.045-.022.106.106 0 01-.089-.044.131.131 0 00.022-.082c.008.008.008.008.015 0s-.007 0-.007-.007.015-.008.007-.015c.008 0 .015 0 .015-.008a.024.024 0 00-.007-.015c.007.008.007 0 .015-.015a.159.159 0 00.059-.045c-.008 0-.008 0-.008-.007a6.773 6.773 0 01.976-.348 15.429 15.429 0 011.537-.473c.385-.089.784-.156 1.19-.207l.008-.007a1.588 1.588 0 01.022-.37.328.328 0 01-.11.022.057.057 0 00-.052.022h.007a.13.13 0 01-.074-.008.313.313 0 01-.11.037.332.332 0 00-.119.045.537.537 0 00-.207.1h-.037a.11.11 0 01-.022.03l-.252.066c-.037-.007-.059 0-.066.022a.206.206 0 01-.052.015c-.029.007-.059.022-.089.029a.027.027 0 01-.022.008c-.037.007-.052.022-.059.044a.163.163 0 00-.052.03.269.269 0 00-.207.066.187.187 0 01-.155 0c-.022 0-.045 0-.052-.008h-.008c-.007.015-.022.015-.037.008a.049.049 0 01-.037-.052.245.245 0 00-.118-.111c-.015-.015-.022-.029-.037-.044a.05.05 0 01-.052-.03 1.854 1.854 0 01-.584-.732.994.994 0 01-.274-.5.423.423 0 00.022-.052v-.052h.007a.521.521 0 00.015-.059.016.016 0 00.03 0 .048.048 0 01.007-.03c.008.008.015.008.038 0a.111.111 0 01.022-.044.031.031 0 01.022-.045l.008-.007h.007c0-.022.015-.037.044-.045.008-.008.008-.008.008-.022a.214.214 0 00.066.015v-.022c.008.022.015.022.03.007l.059.022a.294.294 0 00.207-.037c.318-.17.636-.333.953-.5.008 0 .008-.007.008-.015a1.807 1.807 0 01-.192-.007.767.767 0 01-.37-.185.856.856 0 01-.3-.311.08.08 0 01.008-.059.087.087 0 01.059-.082.318.318 0 01.082-.059l.184-.022a1.559 1.559 0 00.325.1 2.529 2.529 0 00.414.029v-.251c.015-.14.029-.289.037-.444a.378.378 0 00-.067-.17.118.118 0 01-.022-.066.1.1 0 01-.022-.089.229.229 0 01.029-.059.41.41 0 01.03-.052c.015-.022.037-.029.074-.037h-.015a.5.5 0 01.185-.059 1.185 1.185 0 01.326.126.958.958 0 01.331.329zm-.909 1.442a2.734 2.734 0 00-.259.133c-.118.066-.236.14-.355.207a.606.606 0 00-.089.052c-.081.03-.147.059-.214.089a1.426 1.426 0 00-.073.022l-.119.022a.817.817 0 00-.133.081.1.1 0 00.015.045.094.094 0 00.029.089.422.422 0 00.118.251 1.721 1.721 0 00.111.17 2.431 2.431 0 00.141.237 1.042 1.042 0 01.073.11 1.079 1.079 0 00.259.23c0 .007.015.015.037.022.059-.066.125-.14.192-.221v.008c.066-.082.118-.163.177-.244a.436.436 0 01-.14 0 1.773 1.773 0 01-.222-.029c-.037-.008-.052-.037-.066-.074a.059.059 0 00.029-.015c-.007 0-.007 0-.007-.008v-.022h.015c-.015-.029-.015-.044.022-.051-.008-.008-.008-.008-.008-.015a.028.028 0 01.022-.007c.022 0 .029-.008.022-.022a.038.038 0 01.052-.022.026.026 0 01-.008-.022.049.049 0 00.052-.008c-.008 0-.015-.008-.008-.015h.037a.024.024 0 010-.03c0 .008.008.008.015 0 .082-.037.163-.074.244-.118a1.746 1.746 0 00.022-.281.924.924 0 00-.3.207.035.035 0 01-.044.008.052.052 0 01-.029-.067.078.078 0 010-.059 1.663 1.663 0 01.392-.318 2.637 2.637 0 00-.002-.335zm1.021 2.662c-.037.007-.074.022-.1.029l-.015-.015c-.022.008-.052.008-.074.015a.138.138 0 01-.052.008c.008 0 .008-.008.015-.015a.132.132 0 01-.073.007c-.008.008-.015.015-.022.015v-.007a2.839 2.839 0 01-.214.037c-.008 0-.008-.008-.008-.015a.138.138 0 01-.089.037c-.022.007-.029 0-.029-.008-.022.008-.029.008-.037.015a.217.217 0 01-.133.029.425.425 0 01-.125.045c-.082.022-.17.037-.244.059a.294.294 0 00.067.022.509.509 0 01.125.045c.008.015.015.022.03.015a2.261 2.261 0 00.229.14.4.4 0 00.074.082.357.357 0 01.081.1.713.713 0 01.148.384c-.015.045-.03.082-.045.119a.694.694 0 00-.074.029.056.056 0 01-.059-.008.93.93 0 01-.3.1c-.015-.008-.022-.015-.015-.022-.015-.008-.022-.008-.029 0a.032.032 0 01-.037 0h-.008a.064.064 0 01-.059-.008 1.933 1.933 0 01-.133-.022.082.082 0 01-.022-.074l-.008.007c-.008.008-.015 0-.008-.007q-.022.033-.044 0c-.022.007-.03 0-.037-.015-.008 0-.015 0-.015-.007h.008a.559.559 0 00-.184-.03.153.153 0 01.037-.022l-.03-.03a.014.014 0 010-.022h-.007c-.015.007-.03.007-.052.015l.045.044c.1.111.2.222.3.326a2.029 2.029 0 00.326.185.309.309 0 00.118.022h-.011l.044-.022c.008.007.015.015.03.007a.347.347 0 00.288-.059 1.73 1.73 0 01.214-.067.914.914 0 00.245-.259 1.886 1.886 0 00.015-.54c.007-.222.015-.444.015-.673-.015.007-.022.007-.029.015s-.008 0 0-.008zM48.609 3.49a2.905 2.905 0 00-.074.119c-.022.022-.037.052-.059.073.052-.015.1-.036.156-.052a2.055 2.055 0 01-.024-.141zm1.161-1.375h-.251a.413.413 0 00-.059.03c-.008-.008-.008-.008-.015-.008a2.436 2.436 0 00-.008.326.212.212 0 00.059.029.529.529 0 01.288.155.1.1 0 01.015.089 1.114 1.114 0 01-.192.185.2.2 0 01-.067.074c-.044.022-.089.052-.133.074a1.56 1.56 0 00-.029.17.287.287 0 00-.059.14c.133-.052.281-.1.429-.155a2.506 2.506 0 00.481-.784.127.127 0 00.022-.17 1.585 1.585 0 01-.222-.126c-.082-.008-.172-.022-.26-.03zM56.532.828a.244.244 0 01.111.251.145.145 0 01-.029.1.229.229 0 01-.037.119 3.1 3.1 0 01.022.525c-.007.044-.015.081-.022.118a.8.8 0 01.007.184.414.414 0 01.008.089c-.008.133-.008.251-.015.377a.549.549 0 01.022.148c-.007.081-.007.163-.015.237a.085.085 0 01-.015.074.306.306 0 01-.015.184.108.108 0 00-.045.015c-.007.022-.007.038-.015.045a.075.075 0 01-.066.015.049.049 0 01-.037.052.291.291 0 01-.081-.007.186.186 0 01-.156-.052.057.057 0 01-.059-.037.155.155 0 00-.037-.022 1.17 1.17 0 00-.37.281.6.6 0 01-.177.1c-.007.008-.007.008-.007 0l-.274.17a1.057 1.057 0 00-.163.14.412.412 0 00-.1.029c-.015.052-.044.082-.081.082s-.045 0-.052.022c.008.215 0 .437-.007.651-.008.252-.015.5-.029.754a3.423 3.423 0 01.007.384c.008.015.015.022.008.029s0 .015.007.015a.586.586 0 01-.037.111.49.49 0 01-.1.3c-.008.007-.022.007-.029.015a.381.381 0 010 .126.953.953 0 00-.037.126.311.311 0 01-.385-.119.877.877 0 01-.258-.369 1.055 1.055 0 01-.052-.177.027.027 0 00.037-.015v-.015l.015-.008a.13.13 0 01.029-.1h.007l.008-.008c.008-.022.008-.037.015-.059v-.015a.014.014 0 00.022 0 .12.12 0 00.029-.044c.015-.059.03-.126.045-.193-.008-.3 0-.606.022-.909a23.68 23.68 0 00-.008-1.25l-.022-.71a1.958 1.958 0 01-.147-.31.353.353 0 01-.082-.222.056.056 0 00.008-.059.078.078 0 00.037-.045.271.271 0 01.081-.081.36.36 0 00.082-.008.515.515 0 01.251.148.832.832 0 00.214.207 2.619 2.619 0 01.274.466.758.758 0 00.045.177.434.434 0 01-.03.17.451.451 0 000 .244A1.5 1.5 0 0054.973 3c.022-.008.036-.029.052-.059a.027.027 0 01-.008-.022c-.008.007 0 .015.008.007s.007-.015.007-.029a.1.1 0 01-.007.045c.022-.052.044-.1.066-.163v.015c0 .007.008.015.015.007v-.022c-.007 0-.007-.008 0-.022l.022.022a.173.173 0 000 .089.1.1 0 01.029.022c-.015.082-.029.141-.044.208a.7.7 0 00.133-.089c.133-.1.288-.207.437-.311a.631.631 0 00.022-.17 1.14 1.14 0 01.037-.259.217.217 0 00-.119.008.527.527 0 00-.14.044.3.3 0 00-.266.229.45.45 0 01.022-.2.059.059 0 00-.044-.015.684.684 0 00-.3-.036.157.157 0 01-.126-.059.108.108 0 000-.067c.052-.066.1-.118.155-.184s.14-.14.222-.214a.126.126 0 00.1-.059.275.275 0 01.251.015 1.106 1.106 0 01.251.111 2.883 2.883 0 010-.347.589.589 0 00-.022-.274.773.773 0 01-.207.081.837.837 0 01-.14.052.16.16 0 01-.156-.037.231.231 0 01.045-.163 2.931 2.931 0 01.333-.34V.777a.056.056 0 00.059-.052.148.148 0 00.066-.037c.022 0 .029-.015.029-.037V.644c.008 0 .008-.008 0-.022a.08.08 0 00.059-.008c-.015-.008-.015-.015 0-.022a.067.067 0 00.059-.029c.037-.008.081-.015.126-.022.007-.007.029-.007.052-.007a.149.149 0 01.1.029.213.213 0 00.081.044.651.651 0 01.3.221zM59.46.813a.652.652 0 01.1.481.953.953 0 00-.081.37c-.022.318-.037.628-.059.939a7.8 7.8 0 00-.029.835 4.845 4.845 0 00.007.569.174.174 0 010 .089.06.06 0 010 .052l.022.3h.008c.008.237.029.474.052.718s.029.517.044.783a.865.865 0 01-.022.392.257.257 0 01-.059.082 1.353 1.353 0 00-.163.207.3.3 0 01-.126.1.166.166 0 01-.118.059.278.278 0 01-.141.119c-.029.015-.052.029-.066.037a.028.028 0 00-.022-.008c0-.007 0-.007-.008-.015-.007.015-.015.022-.029.015a.024.024 0 00-.03 0 .064.064 0 01-.044-.029 16.632 16.632 0 01-.525-.658.641.641 0 01-.118-.126c-.022 0-.029-.008-.029-.015a.089.089 0 00-.03-.059h.008a5.861 5.861 0 01-.429-.437.691.691 0 01-.14-.162.284.284 0 01-.03-.067c-.014 0-.022-.007-.029-.022s-.008 0-.015-.008-.022-.008-.037-.029a.015.015 0 00.022 0c-.008-.008-.008-.015-.015-.022s0 .007.007 0a.08.08 0 00.037.029c.008 0 .008 0 .015-.007a.324.324 0 00.17.133.753.753 0 00.237.163.9.9 0 01.155.1.835.835 0 00.406.029c.037-.008.081-.015.133-.022a1.2 1.2 0 00.177-.266.549.549 0 01.015-.111h-.015v-.126h.007a.066.066 0 000 .052c.008-.008.008-.008.008-.015a.166.166 0 00.007.088 7.91 7.91 0 01-.022-.606.007.007 0 00-.008.008.123.123 0 00.008-.074c-.008.008 0 .015 0 .022 0-.008-.008-.022 0-.029a.512.512 0 00-.008-.111c-.007.008-.015.022-.007.029a.077.077 0 00-.008-.044h-.008c.015.007.022 0 .03-.015a.977.977 0 01-.022-.1l-.015.015a.028.028 0 00.007-.022h.015a.028.028 0 00-.008-.022c-.008.008-.008-.044-.008-.14a.026.026 0 00.008.022l.008-.007h.007a4.522 4.522 0 01-.022-.126.258.258 0 01-.007.073.234.234 0 010-.1.061.061 0 00-.008-.052v-.14h.008v-.037c-.008.008-.008.008-.008 0a.17.17 0 00.015-.059.027.027 0 00-.007-.022.028.028 0 00.007-.022c-.007 0-.007 0-.007-.008v.008a.472.472 0 01-.008-.148v.03h.008a.032.032 0 00-.008-.037h.015a.193.193 0 01-.015-.111.043.043 0 00.008-.029l-.008.007-.008-.007a.1.1 0 01.015-.045v.007c.007 0 .007-.007.007-.015s-.015-.015-.007-.029c0 .008 0 .008.007 0a.016.016 0 00-.015-.015c.008-.081.015-.17.022-.266l-.022-.022a.2.2 0 01-.089-.066 1.692 1.692 0 01-.192.008 2.776 2.776 0 00-.355 0 .4.4 0 01-.148.051.768.768 0 01-.1.037.134.134 0 00-.1.067.1.1 0 00-.051.044.21.21 0 01-.059.089.035.035 0 00-.037 0c-.008.008-.008.008-.008.015a.209.209 0 01-.066-.044c-.022.008-.037-.007-.052-.03a.95.95 0 01-.214-.3 2.801 2.801 0 01-.111-.214.453.453 0 01-.133-.229.027.027 0 01-.008-.022v.008a.027.027 0 00.008-.022c.007 0 .007 0 .007.008a.076.076 0 00.015-.067l.007-.007a.035.035 0 01-.007-.045.083.083 0 00.036-.007.047.047 0 00-.007-.03c.007 0 .015-.007.022-.015s-.007 0-.007-.007.007 0 .015-.008c-.008 0-.008 0-.008-.007s.015-.008.022-.015-.007-.007-.007-.015l.015-.007a.027.027 0 01.015-.037c.022-.178.037-.362.045-.54a6.477 6.477 0 01.1-.85c.008-.022.022-.045.029-.067a.1.1 0 00.045-.037h-.015a.027.027 0 00.022.008.042.042 0 00.008-.045c.007.008.007.015.007.008a.1.1 0 00.022-.029L57.3.684V.669c.008.008.015 0 .022-.007a.026.026 0 01.008.022q.011-.011 0-.044a.214.214 0 00.066.007V.64a.374.374 0 00.14.1V.733a.471.471 0 00.1.14.819.819 0 01.074.118 2.334 2.334 0 01.5-.436c.1-.052.193-.111.289-.17a.35.35 0 01.244-.066.427.427 0 01.133.037 3.05 3.05 0 01.274.14 1.69 1.69 0 01.31.317zm-1.664 1.176a.375.375 0 00-.022.215.836.836 0 01-.022.185c0 .007 0 .007.007 0a.563.563 0 00-.022.155 1.848 1.848 0 00.362-.525.355.355 0 00-.081-.008.987.987 0 01-.223-.022zm.813.133a.128.128 0 01-.118.037.5.5 0 00-.118.037.751.751 0 01-.185.022.528.528 0 00-.1.073 1.147 1.147 0 01-.185.193.313.313 0 00-.147.111c.029-.007.066-.022.1-.029a3.238 3.238 0 00.451-.1 1.824 1.824 0 00.348-.081.447.447 0 01.008-.1v-.022a1.147 1.147 0 00.007-.156.179.179 0 00-.061.015zM58.491.761c-.074.059-.141.1-.207.155V.909a.26.26 0 01.066-.052 1.008 1.008 0 00-.177.1 3.535 3.535 0 00-.3.267c-.029.036-.059.074-.089.1l.022.229a.115.115 0 01.007.052 1.527 1.527 0 01.281-.192.31.31 0 01.2-.022.576.576 0 00.1.052.772.772 0 01.17.089.715.715 0 00.147.111 2.89 2.89 0 01.029-.444 3.054 3.054 0 00-.11-.369c-.043-.066-.087-.091-.135-.066zM1.326 45.419h11.252v.276H1.326zm53.999 0h11.252v.276H55.325z" fill="#231815"/><g fill="#d7000f"><path d="M67.347 38.959l-.011.008-.006.244-.005.02h.674l.023-.27h-.159z"/><path d="M69.996 38.445c0-.042-.01-.042-.01-.083v-.165c0-.042.022-.041.022-.083v-.082c0-.04-.016-.042-.016-.083s.01-.041.01-.082-.005-.042-.005-.083.01-.041.01-.083v-.084c0-.042-.013-.04-.013-.082s-.005-.041-.005-.083.02-.042.02-.083-.015-.04-.015-.083.014-.042.014-.082-.012-.042-.012-.083v-.083c0-.042-.006-.041-.006-.082v-.083c0-.042.01-.042.01-.084v-.082c0-.041-.006-.041-.006-.083s.008-.041.008-.082v-.249c0-.041-.008-.042-.008-.083v-.083c0-.041.01-.042.01-.083s-.008-.042-.008-.084-.005-.042-.005-.083.017-.042.017-.084S70 35.751 70 35.71s-.005-.042-.005-.083.01-.042.01-.083.006-.042.006-.084-.006-.042-.006-.083v-.085c0-.042-.007-.042-.007-.084a.406.406 0 000-.083.448.448 0 00-.022-.081.577.577 0 00-.047-.069c-.014-.024-.014-.059-.032-.08a.628.628 0 00-.068-.05.6.6 0 00-.07-.043.584.584 0 00-.07-.045.541.541 0 00-.08-.022.517.517 0 00-.083-.008h-.168c-.042 0-.042.005-.084.005h-.335c-.042 0-.042-.009-.084-.009h-.084c-.042 0-.042.011-.084.011s-.042.006-.085.006-.042-.014-.084-.014-.042.011-.083.011-.042-.01-.085-.01-.042.006-.084.006-.042-.012-.084-.012-.043.02-.084.02-.042-.016-.084-.016h-.168c-.042 0-.042.015-.084.015s-.042-.013-.084-.013-.042.014-.086.014-.042-.014-.083-.014h-.253c-.043 0-.041-.013-.084-.013s-.042.009-.084.009-.042-.006-.085-.006-.042.01-.084.01h-.169c-.042 0-.042-.005-.083-.005s-.042-.005-.085-.005-.042.015-.083.015-.043-.016-.084-.016-.042.011-.085.011-.042-.016-.084-.016-.042.018-.084.018-.042-.005-.085-.005h-.084c-.042 0-.041.01-.084.01s-.042-.01-.085-.01-.042.006-.084.006-.042-.006-.084-.006h-.085c-.043 0-.043.01-.084.01h-.256c-.042 0-.043-.011-.086-.011a.444.444 0 00-.083.01.434.434 0 00-.077.027.516.516 0 00-.079.027.688.688 0 00-.123.11.377.377 0 00-.043.07.4.4 0 00-.039.073.449.449 0 00-.026.078.52.52 0 00-.006.083v.083c0 .041.008.042.008.082v.247c0 .042-.011.041-.011.082s.015.041.015.082v.164c0 .041-.013.041-.013.082s.013.041.013.083-.009.041-.009.082.01.041.01.082-.015.042-.015.083.013.041.013.082.008.042.008.084v.082c0 .041-.017.042-.017.083v.661c0 .041.007.042.007.083v.083c0 .041.005.042.005.083v.082c0 .042-.008.042-.008.082s.006.041.006.083v.165c0 .041-.006.042-.006.083s.008.042.008.083v.083c0 .042-.014.041-.014.082s.018.041.018.082v.166c0 .041-.006.042-.006.083s.007.041.007.082v.083c0 .042.006.042.006.084s-.006.04-.006.082v.083c0 .041-.017.042-.017.084s.015.042.015.083v.083c0 .041-.015.042-.015.084v.084c0 .042.012.041.012.083v.168a.5.5 0 00.014.082.542.542 0 00.019.081.43.43 0 00.038.072.453.453 0 00.046.068.344.344 0 00.06.055.463.463 0 00.061.056.5.5 0 00.075.038.55.55 0 00.082.009.465.465 0 00.081.016h.168c.042 0 .042-.013.084-.013s.042.017.084.017h.083c.043 0 .043-.017.083-.017s.043.01.084.01.042-.01.084-.01.042.015.083.015h.253c.042 0 .043-.005.085-.005s.042.005.084.005h.168c.042 0 .042-.018.084-.018s.042.005.084.005.043.008.084.008h.084c.043 0 .043-.013.085-.013h.084c.042 0 .042.014.084.014s.042-.014.084-.014.042.012.084.012.042-.01.084-.01.042-.006.084-.006.043.006.085.006.042.009.084.009.042-.015.085-.015.042.02.083.02h.336c.042 0 .042-.016.084-.016h.085c.043 0 .043.014.085.014s.042-.011.084-.011.042-.006.084-.006.043.02.085.02.042-.014.084-.014h.085c.042 0 .042.008.084.008h.107l.094-.218c-.011-.01.025-.017.015-.074l.017.025.03-.044c-.005.016.02.082 0 .1l-.038-.029.022.077-.015.075c-.016.017-.032.017-.047-.013l-.015.033c.028-.049 0 .031.021 0 0 .031 0 .021-.011.022a.06.06 0 000 .041h.075c.038 0 .043.014.077.017l-.007-.018a.023.023 0 010-.027l.006.045h.007a.1.1 0 00.027 0c0-.015 0-.029.015-.019v.013a.116.116 0 01.036-.008.027.027 0 010-.018l.014.018h.071a.25.25 0 01.04 0c0-.027.019 0 .011-.046-.015.022-.006-.036-.008-.052-.008 0-.013.006-.015.022l-.021-.056h.008a.489.489 0 00-.031-.093l.043.024a.082.082 0 00-.006-.027.874.874 0 01.063.217c-.005 0-.01.009-.013.015h.015c.043 0 .043.006.085.006a.433.433 0 00.055-.006c0-.02 0-.033.017-.027a.089.089 0 00.008.022.589.589 0 00.077-.033.467.467 0 00.072-.04.371.371 0 00.071-.041.468.468 0 00.062-.056.479.479 0 00.047-.069.421.421 0 00.032-.076.364.364 0 00.022-.08.394.394 0 00.017-.082c0-.04-.009-.04-.009-.082s.008-.041.008-.082-.008-.041-.008-.082.008-.042.008-.083-.011-.041-.011-.082v-.082c0-.041-.007-.041-.007-.082s.009-.041.009-.082-.006-.041-.006-.082v-.082c0-.04.011-.042.011-.082v-.166c0-.04-.007-.042-.007-.083s.006-.041.006-.083-.01-.021-.01-.063zm-5.24-1.6c.561-.023 1.008-.17 1.059-.536l.034-.239v-.345l-.011-.239c0-.035-.017-.218-.017-.235 0-.032 0-.145.261-.145.142 0 .176.038.176.121 0 .02-.011.117-.011.138l-.006.333v.009l-.005.295v.13l-.029.257c-.068.6-.964.7-.98.7a.718.718 0 01-.471-.238zm1.8 1.512l-.017.621c0 .036.017.2.017.23 0 .062-.085.09-.187.09-.045 0-.255-.014-.283-.014h-.425c-.08 0-.21 0-.431.011-.046 0-.232.028-.272.028-.1 0-.147-.039-.147-.073a1.739 1.739 0 01.045-.177 1.7 1.7 0 00.017-.165l.017-.32-.006-.32c0-.022-.023-.118-.023-.135 0-.062.063-.09.147-.09.136 0 .187.073.187.109l.006.565v.422c.114 0 .159 0 .329-.009.006-.017.006-.174.006-.2v-.453l.006-.056-.023-.565c0-.059-.005-.123.153-.123.131 0 .187.064.187.1v.718l-.017.584.357.008.035-.741-.006-.278c0-.045.073-.084.164-.084.142 0 .17.082.17.09zm2.5 1.85c0-.006 0-.022.006-.022l.01.026zm.025-.066v-.026h.011zm.26.019c.008 0 .013.014.023.031a.1.1 0 00-.023-.031.014.014 0 00-.006.006v-.019a.056.056 0 00.001.016zm-.267-5.079c.187 0 .26.038.26.133 0 .121-.022.648-.022.757s.011.377.022.516c.011.089.074.475.074.552s0 .15-.114.15-.181-.126-.193-.165l-.073-.223v-.032l-.051-.251-.023-.262-.04-.946a1.215 1.215 0 01-.011-.13c-.002-.029.024-.096.166-.096zm-1.507.088c.209 0 .2.077.2.151l-.006.512-.011.457-.011.35c0 .08-.023.309-.2.309-.153 0-.153-.168-.153-.192v-.987l-.022-.336a1.463 1.463 0 01-.023-.151c-.007-.109.203-.109.22-.109zm.194 2.826h-.091l-.47.017c-.119.006-.346.014-.346-.065s.283-.1.357-.1c.057 0 .311.011.368.014h.312a1.522 1.522 0 00.13-.219.227.227 0 01.153-.051c.073 0 .142.031.142.07a1.293 1.293 0 01-.08.2l1.054.008c.028 0 .261 0 .261.078 0 .048-.029.051-.295.051h-.743a3.053 3.053 0 001.015.306.655.655 0 01-.374.157 3.7 3.7 0 01-.952-.464h-.079a1.7 1.7 0 01-.363.256 2.059 2.059 0 01-.646.2.816.816 0 01-.385-.14 2.351 2.351 0 001.026-.314zm-.062 1.365c-.283 0-.323 0-.352.006s-.227.031-.266.031-.114-.031-.114-.068c0-.014.029-.1.029-.112.005-.051.005-.11.005-.158 0-.025-.022-.163-.022-.191s.057-.05.108-.05c.034 0 .158.017.187.017h.806c.034 0 .164-.017.192-.017.051 0 .125.023.125.062a.7.7 0 01-.034.087.416.416 0 00-.028.132l.006.171c-.006.045-.006.1-.193.1-.075.003-.393-.006-.454-.006zm.892.874v-.008l.006.008zm.016 0h.006zm.66-.116h-.008l.01-.038zm.018-.085c-.01.027-.013 0-.019 0 .013-.027 0-.068.014-.074-.015-.094-.024.017-.045-.06l.006.015c.011-.011.005-.037.009-.069a.072.072 0 01.021.077h.015c.008.05-.01.063-.006.114zm.022 0l.006-.016h.01zm.134.1h.021a.143.143 0 010-.029.2.2 0 01-.007-.033c.007.006.007.019.007.033s.011-.015.017.039c-.02.018-.031-.013-.043-.012zm0-.094c0-.022.013-.017.017-.038v.042c-.009-.002-.018.025-.022-.007zm.092-.322c.007-.043.024-.007.027.008s-.011.022-.015.033l.005-.038zm.025.455v-.021l.008.01zm0-.057c.006-.006 0-.022 0-.032l.011.063c-.004-.013-.007-.034-.015-.034zm-.005-.341c.01-.017.015-.032.025-.007zm.033.26l-.005-.084c.015-.032.012.031.032 0l-.007.032c.016-.006.029.034.027.051-.023.012-.032-.04-.051-.002zm.035-.134v-.047c0 .015.011.033.019.034zm.075.236c-.029-.013-.005-.115-.035-.082 0-.02 0-.022-.01-.024s.015-.022.024-.018v.047c.008-.011 0-.042.019-.033.007.049-.03.068-.003.108zm.116-1.45a.342.342 0 01-.227.056l-.448-.042h-.022v.318l.011.27a1.59 1.59 0 01-.017.334c-.1.169-.606.2-.686.2a.208.208 0 01-.142-.037 3.142 3.142 0 01-.193-.2 1.77 1.77 0 00.193.006c.482 0 .493 0 .476-.385l-.022-.5c0-.006-.006-.025-.006-.034h-.057l-.629-.008h-.329l-.447.008c-.029 0-.4.028-.476.028s-.153-.028-.153-.065c0-.115.442-.115.5-.115.244 0 1.31.011 1.525.011.124 0 .675.014.788.014.073 0 .425-.014.5-.014a.484.484 0 01-.144.153z"/><path d="M65.965 35.285a.026.026 0 01.018.021.026.026 0 010-.013.049.049 0 01-.015-.014.037.037 0 01-.017-.008s.006.005.007.009z"/></g><path d="M15.331 43.889l.35 1.027h.008l.372-1.027h.58l-.689 1.611v1.045h-.536V45.5l-.688-1.611zm1.803 0h.662l.7 2.656h-.558l-.123-.562h-.706l-.123.562h-.558zm.07 1.656h.521l-.257-1.194h-.008zm2.015-1.656v1.064h.008l.677-1.064h.581l-.722 1.139.8 1.518h-.6l-.547-1.09-.2.3v.789h-.535v-2.656zm1.49 2.656v-2.656h.536v2.656zm1.55-2.656l.647 1.819h.008v-1.819h.491v2.656h-.61l-.655-1.86h-.007v1.86h-.491v-2.656zm1.544 2.656v-2.656h.536v2.656zm1.469-2.656v1.064h.008l.676-1.064h.581l-.722 1.139.8 1.518h-.6l-.547-1.09-.2.3v.789h-.536v-2.656zm1.965 0v1.853c0 .264.063.461.313.461s.312-.2.312-.461v-1.853h.536v1.853a.758.758 0 01-.848.855c-.435 0-.848-.145-.848-.855v-1.853zm2.393 0h.9c.439 0 .756.163.756.673a.554.554 0 01-.4.58v.008a.562.562 0 01.484.618.722.722 0 01-.83.777h-.9zm.535 1.09h.153c.294 0 .428-.1.428-.35s-.123-.346-.387-.346h-.193zm0 1.172h.208c.257 0 .431-.093.431-.4s-.174-.4-.409-.4h-.23zm1.533-2.262h.9c.438 0 .755.163.755.673a.554.554 0 01-.4.58v.008a.562.562 0 01.484.618.721.721 0 01-.83.777h-.9zm.536 1.09h.152c.294 0 .428-.1.428-.35s-.123-.346-.387-.346h-.193zm0 1.172h.209c.257 0 .432-.093.432-.4s-.175-.4-.409-.4h-.231zm3.05.722l-.316-.328a.716.716 0 01-.164.041 1.423 1.423 0 01-.19.011c-.8 0-.9-.573-.9-1.38s.1-1.38.9-1.38.9.573.9 1.38a1.944 1.944 0 01-.2 1.079l.286.29zm-.669-.67c.317 0 .368-.272.368-.986s-.052-.986-.368-.986-.368.276-.368.986.052.986.368.986zm3.935-2.709h.786v2.334c0 .622-.248 1.072-1.024 1.072-.706 0-1-.337-1-.922v-.206h.729v.146c0 .225.005.458.257.458.225 0 .248-.234.248-.548zm2.372 3.405c-1.034 0-1.174-.673-1.174-1.735s.14-1.736 1.174-1.736c1.113 0 1.174.809 1.174 1.736s-.061 1.735-1.174 1.735zm-.005-.524c.318 0 .365-.295.365-1.211s-.047-1.212-.365-1.212-.355.295-.355 1.212.047 1.211.353 1.211zm1.591-2.881h.9l.645 2.171h.01v-2.171h.73v3.34h-.889l-.688-2.3h-.009v2.3h-.7zm3.841 0h.786v2.334c0 .622-.248 1.072-1.024 1.072-.706 0-1-.337-1-.922v-.206h.729v.146c0 .225 0 .458.257.458.225 0 .248-.234.248-.548zm2.372 3.405c-1.034 0-1.174-.673-1.174-1.735s.14-1.736 1.174-1.736c1.113 0 1.174.809 1.174 1.736s-.061 1.735-1.174 1.735zm-.005-.524c.318 0 .365-.295.365-1.211s-.047-1.212-.365-1.212-.355.295-.355 1.212.047 1.211.355 1.211zm1.591-2.881h.9l.645 2.171h.01v-2.171h.729v3.34h-.888l-.688-2.3h-.009v2.3h-.7z" fill="#231815"/><path fill="none" d="M0 0h70v47H0z"/></svg>