<svg xmlns="http://www.w3.org/2000/svg" width="70" height="60.666"><path d="M27.987 15.271l-2.312 5.091 2.533 6.183h-4.166l-1.633-4.832v4.834h-4.032V15.271h4.032v4.38l1.8-4.38zm10.111 6.818h-5.009v2a1.658 1.658 0 00.125.808.542.542 0 00.478.181.638.638 0 00.589-.24 1.954 1.954 0 00.149-.93V22.69h3.668v.682a4.509 4.509 0 01-.148 1.316 2.531 2.531 0 01-.694.983 3.447 3.447 0 01-1.384.783 7.177 7.177 0 01-2.1.261 8.192 8.192 0 01-2.164-.258 3.735 3.735 0 01-1.461-.706 2.434 2.434 0 01-.723-.989 4.727 4.727 0 01-.2-1.57v-2.7a3.507 3.507 0 01.45-1.911 2.828 2.828 0 011.475-1.072 7.952 7.952 0 015.043.077 2.961 2.961 0 011.483 1.191 4.219 4.219 0 01.427 2.085zm-3.878-1.5v-.678a2.522 2.522 0 00-.105-.927.436.436 0 00-.431-.208c-.269 0-.436.059-.5.178a2.733 2.733 0 00-.1.957v.675zm9.56-5.318v2.669a3.265 3.265 0 011.068-.6 3.971 3.971 0 011.28-.2 4.679 4.679 0 011.378.181 2.015 2.015 0 01.89.509 1.349 1.349 0 01.369.64 8.877 8.877 0 01.062 1.338v4.163a4.581 4.581 0 01-.187 1.515 1.733 1.733 0 01-.876.863 3.452 3.452 0 01-1.637.365 3.64 3.64 0 01-1.27-.216 3.373 3.373 0 01-1.078-.648l-.249.7h-3.619V15.271zm1.179 4.659a2.229 2.229 0 00-.125-.936.51.51 0 00-.488-.219c-.237 0-.389.064-.46.191a2.622 2.622 0 00-.105.965v3.983a2.337 2.337 0 00.12.955.5.5 0 00.474.208.481.481 0 00.474-.216 2.906 2.906 0 00.111-1.037zm9.149.954h-3.63v-.62a3.32 3.32 0 01.34-1.655 2.826 2.826 0 011.365-1.026 8.544 8.544 0 015.622.059 2.1 2.1 0 011.2 1.239 14.232 14.232 0 01.2 3.026v4.637h-3.763v-.823a2.209 2.209 0 01-.914.743 3.3 3.3 0 01-1.337.247 4.2 4.2 0 01-1.863-.413 1.817 1.817 0 01-.847-1.815v-.759a1.78 1.78 0 01.45-1.413 7.238 7.238 0 012.232-.877 7.493 7.493 0 002.04-.731 1.469 1.469 0 00.134-.766 1.917 1.917 0 00-.149-.943.549.549 0 00-.492-.219q-.393 0-.489.184a2.773 2.773 0 00-.1.957zm1.226 1.267a2.5 2.5 0 00-1.078.829 2.448 2.448 0 00-.148.96 2.079 2.079 0 00.129.927.555.555 0 00.512.208q.363 0 .473-.163a1.956 1.956 0 00.111-.86zm9.622-6.88v2.669a3.268 3.268 0 011.069-.6 3.964 3.964 0 011.279-.2 4.675 4.675 0 011.378.181 2.013 2.013 0 01.89.509 1.35 1.35 0 01.37.64 8.946 8.946 0 01.062 1.338v4.163a4.581 4.581 0 01-.187 1.515 1.731 1.731 0 01-.876.863 3.453 3.453 0 01-1.637.365 3.643 3.643 0 01-1.27-.216 3.376 3.376 0 01-1.078-.648l-.249.7h-3.62V15.271zm1.178 4.659a2.225 2.225 0 00-.125-.936.509.509 0 00-.488-.219c-.237 0-.389.064-.46.191a2.591 2.591 0 00-.106.965v3.983a2.331 2.331 0 00.121.955.5.5 0 00.474.208.484.484 0 00.475-.216 2.943 2.943 0 00.109-1.037z" fill="#231815"/><path d="M18.746 29.994h3.191v3.857l3.343-3.857h4.243l-3.768 3.853 3.938 6.355h-3.93l-2.178-4.2-1.649 1.707V40.2h-3.191zm15.893 0h3.2v10.208h-3.2zm9.271 0h2.979l3.889 5.648v-5.648h3.008v10.208h-3.008l-3.867-5.605v5.605h-3zm20.951 6.511v-2.124h4.931v4.352a10.109 10.109 0 01-2.5 1.3 8.572 8.572 0 01-2.581.345 6.335 6.335 0 01-3-.62 4.25 4.25 0 01-1.8-1.844 6.01 6.01 0 01-.638-2.814 5.812 5.812 0 01.7-2.907 4.5 4.5 0 012.042-1.877 6.73 6.73 0 012.826-.495 7.994 7.994 0 012.56.307 3.325 3.325 0 011.409.951 4.227 4.227 0 01.842 1.633l-3.079.543a1.645 1.645 0 00-.645-.884 2.024 2.024 0 00-1.159-.307 2.1 2.1 0 00-1.672.72 3.441 3.441 0 00-.624 2.281 3.547 3.547 0 00.63 2.367 2.227 2.227 0 001.758.71 3.361 3.361 0 001.022-.153 5.541 5.541 0 001.113-.522v-.961z" fill="#717071"/><path d="M48.618 44.049a24.222 24.222 0 11-3.516-31.444h5.476a28.126 28.126 0 102.754 31.444z" fill="#e50012"/><path fill="none" d="M0 0h70v60.666H0z"/></svg>