<svg xmlns="http://www.w3.org/2000/svg" width="70" height="17"><path d="M2.183 12.302l-2.18-1.249v2.5l2.18-1.249zm.065-2.646L.089 10.905l2.159 1.249v-2.5zM0 10.779L2.18 9.53 0 8.281v2.5zm2.248-3.877L.089 8.151 2.248 9.4V6.9zM0 8.026l2.18-1.249L0 5.528v2.5zm0-2.773l2.18-1.249L0 2.755v2.5zm2.248-1.104L.089 5.398l2.159 1.249v-2.5zm0-2.773L.089 2.625l2.159 1.249v-2.5zm.145 2.5l2.159-1.249-2.159-1.249v2.5zm2.161 4.276L2.395 6.903v2.5l2.159-1.249zm2.393-1.377l-2.16-1.249v2.5l2.16-1.249zM4.64 5.526L2.481 6.775 4.64 8.024v-2.5zm6.37 4.107l2.159-1.249-2.157-1.251v2.5zm0 2.776l2.159-1.249-2.159-1.249v2.5zm2.161 1.504l-2.159-1.249v2.5l2.159-1.249zm.086-8.154l-2.16 1.249 2.16 1.249v-2.5zm0 2.753l-2.16 1.27 2.16 1.249v-2.52zm0 2.773l-2.16 1.249 2.16 1.249v-2.5zm0 2.753l-2.16 1.249 2.16 1.249v-2.5zm2.308 1.249l-2.16-1.249v2.5l2.16-1.249zm2.456-1.249l-2.16 1.249 2.16 1.249v-2.5zm2.308 1.249l-2.16-1.249v2.5l2.16-1.249zm.084-2.626l-2.181 1.249 2.181 1.249v-2.5zm-2.246 1.124l2.16-1.249-2.16-1.249v2.5zm2.246-3.876l-2.181 1.249 2.181 1.249v-2.5zm-2.246 1.125l2.16-1.249-2.16-1.27v2.52zm2.246-3.901l-2.181 1.249 2.181 1.249v-2.5zm-2.246 1.126l2.16-1.25-2.16-1.249v2.5zm2.246-3.876l-2.181 1.249 2.181 1.249v-2.5zm7.241 7.919l-2.16-1.249v2.5l2.16-1.249zm-2.162-1.523l2.16-1.249-2.16-1.249v2.5zm0-2.753l2.16-1.249-2.16-1.249v2.5zm0-2.773l2.16-1.249-2.16-1.249v2.5zm2.247 4.403l-2.159 1.249 2.159 1.249v-2.5zm0-2.754L25.58 8.151 27.739 9.4V6.9zm0-2.753L25.58 5.398l2.159 1.249v-2.5zm2.307 1.252l-2.158-1.249v2.5l2.158-1.249zm.085.125l-2.18 1.249 2.18 1.249v-2.5zm2.308 1.255L30.28 5.532v2.5l2.159-1.249zm2.393 1.373l-2.16-1.249v2.5l2.16-1.249zm.084.125l-2.18 1.249 2.18 1.249v-2.5zm-2.393-1.377l-2.18 1.249 2.18 1.249V6.9zm2.393-1.376l-2.18 1.249 2.18 1.249v-2.5zm0-2.774l-2.18 1.249 2.18 1.249v-2.5zm0-2.752l-2.18 1.249 2.18 1.249v-2.5zM32.67 6.649L34.83 5.4l-2.16-1.249v2.5zm0-2.773l2.16-1.249-2.16-1.249v2.5zm10.08 8.785l-2.18 1.249 2.18 1.249v-2.5zm-.085-.125l-2.16-1.249v2.5l2.16-1.249zm2.457 1.502l-2.159 1.249 2.159 1.249v-2.5zm2.329 1.249l-2.16-1.249v2.5l2.16-1.249zm2.392-1.377l-2.182-1.249v2.5l2.182-1.249zm-2.329-1.249l-2.159 1.249 2.159 1.249v-2.5zm2.393-1.376l-2.16 1.249 2.16 1.249v-2.5zm-2.247 1.124l2.182-1.249-2.182-1.249v2.5zm-.146-2.5l-2.159 1.249 2.159 1.249v-2.5zm-2.392-1.397l-2.159 1.27 2.159 1.249v-2.52zm-2.371-1.379l-2.18 1.249 2.18 1.249v-2.5zm2.31 1.254l-2.16-1.249v2.5l2.16-1.249zm.228 2.647l2.16-1.249-2.16-1.27v2.52zm-4.786-2.775l2.16-1.249-2.16-1.249v2.5zm2.247-3.876l-2.18 1.249 2.18 1.249v-2.5zm.147 2.5l2.16-1.249-2.16-1.249v2.5zm2.225-3.876l-2.159 1.249 2.159 1.249v-2.5zm.167 2.501l2.16-1.249-2.16-1.249v2.5zm2.225-1.125l-2.159 1.249 2.159 1.249v-2.5zm.146 2.5l2.182-1.25-2.182-1.249v2.5zm6.352-.234L56.171 5.4l-2.159-1.249v2.5zm0 2.754l2.159-1.249-2.159-1.249v2.5zm2.161 1.504l-2.159-1.249v2.5l2.159-1.249zm.064-8.155l-2.159 1.249 2.159 1.249v-2.5zm0 2.774l-2.159 1.249 2.159 1.249v-2.5zm0 2.753l-2.159 1.249 2.159 1.249v-2.5zm0 2.774l-2.159 1.249 2.159 1.249v-2.5zm2.329 1.249l-2.18-1.249v2.5l2.18-1.249zm2.457-1.249l-2.16 1.249 2.16 1.249v-2.5zm2.328 1.249l-2.181-1.249v2.5l2.181-1.249zm.065-2.646l-2.16 1.249 2.16 1.249v-2.5zm-2.248 1.123l2.181-1.249-2.181-1.249v2.5zm2.248-3.877l-2.16 1.249 2.16 1.249V6.9zm-2.248 1.124l2.181-1.249-2.181-1.249v2.5zm2.248-3.877l-2.16 1.249 2.16 1.249v-2.5zm-2.248 1.104l2.181-1.249-2.181-1.249v2.5zm2.248-3.877l-2.16 1.249 2.16 1.249v-2.5zm6.498 13.911l-2.158-1.249v2.5l2.158-1.249zM70 12.661l-2.159 1.249L70 15.159v-2.5zm-2.248 1.124l2.158-1.249-2.158-1.249v2.5zM70 9.909l-2.159 1.249L70 12.407v-2.5zm-2.248 1.125l2.158-1.249-2.158-1.27v2.52zM70 7.133l-2.159 1.249L70 9.631v-2.5zm-2.248 1.126L69.91 7.01l-2.158-1.249v2.5zM70 4.384l-2.159 1.249L70 6.882v-2.5zM4.64 0L2.481 1.249 4.64 2.498v-2.5zm.145 2.501l2.159-1.249L4.785.003v2.5zm2.247-1.125l-2.16 1.249 2.16 1.249v-2.5zM9.34 2.625L7.18 1.376v2.5l2.16-1.249z" fill="#988848"/><path fill="none" d="M0 0h70v17H0z"/></svg>