<svg xmlns="http://www.w3.org/2000/svg" width="39.046" height="42"><path d="M34.622 41.004H4.596a1.476 1.476 0 01-1.1-.433 1.864 1.864 0 01-.369-.561 2.917 2.917 0 01-.184-.6 3.448 3.448 0 01-.07-.665c-.013-.213-1.658-21.313-1.847-23.341a2.631 2.631 0 01.137-1.217 1.637 1.637 0 01.488-.675 1.672 1.672 0 01.769-.351h2.557a15.565 15.565 0 01.607-1.957 20.389 20.389 0 01.879-2.012 18.931 18.931 0 011.37-2.308 14.89 14.89 0 014.527-4.318 13.406 13.406 0 013.317-1.422 14.546 14.546 0 011.957-.4 16.411 16.411 0 012.168-.14h.3a16.177 16.177 0 014.187.6 13.515 13.515 0 013.321 1.454 14.234 14.234 0 014.408 4.307 17.6 17.6 0 011.283 2.282 18.855 18.855 0 01.8 1.985 14.25 14.25 0 01.523 1.932h2.062a2.381 2.381 0 01.87.147 1.488 1.488 0 01.586.405 2.079 2.079 0 01.368 1.688c-.137 1-1.13 14.125-1.608 20.435v.025c-.114 1.5-.2 2.589-.219 2.879a2.857 2.857 0 01-.555 1.669 1.86 1.86 0 01-1.506.592zM20.142 2.573a12.212 12.212 0 00-3.355.456 11.335 11.335 0 00-2.751 1.2 13.491 13.491 0 00-3.885 3.646 17.608 17.608 0 00-1.23 1.947c-.3.55-.575 1.121-.819 1.7a14.32 14.32 0 00-.6 1.657H32.33a13.916 13.916 0 00-.527-1.657 18.088 18.088 0 00-.747-1.7 16.646 16.646 0 00-1.146-1.947 12.676 12.676 0 00-3.731-3.645 10.821 10.821 0 00-2.7-1.2 12.007 12.007 0 00-3.337-.457z" fill="#fff" stroke="#fed438"/><path d="M9.651 26.322a.422.422 0 00.222-.061.147.147 0 00.042-.109v-3.53H8.292a.131.131 0 00-.113.052.5.5 0 00-.057.212h-.113v-1.68h.113a.5.5 0 00.057.212.131.131 0 00.113.052h4.662a.131.131 0 00.113-.052.5.5 0 00.057-.212h.113v1.68h-.113a.5.5 0 00-.057-.212.131.131 0 00-.113-.052h-1.623v3.53a.147.147 0 00.042.109.422.422 0 00.222.061v.113H9.651zm5.158-.094a.081.081 0 00.033.071.263.263 0 00.137.024v.113h-1.67v-.114a.308.308 0 00.151-.061.444.444 0 00.094-.156q.019-.047.094-.255t.2-.524l.274-.7q.151-.387.3-.788t.3-.783l.26-.684.184-.491q.071-.189.071-.2 0-.047-.061-.066a.833.833 0 00-.127-.028v-.113h2.463v.113a.506.506 0 00-.123.028q-.047.019-.047.094a2.144 2.144 0 00.09.245q.09.227.231.59t.326.821q.184.458.382.934t.382.93q.184.453.335.812a.927.927 0 00.127.227.177.177 0 00.137.057v.113h-1.861v-.115q.179-.009.179-.113a1.143 1.143 0 00-.047-.127q-.047-.118-.1-.264l-.109-.278a1.33 1.33 0 01-.061-.179h-2.237q-.094.255-.151.415l-.09.255-.047.137a.224.224 0 00-.017.054zm2.293-1.623l-.915-2.246-.84 2.246zm6.654 1.718a.481.481 0 00.132-.014q.047-.014.047-.109a.621.621 0 00-.085-.17q-.085-.142-.217-.349t-.293-.444q-.16-.236-.3-.453t-.255-.378q-.113-.16-.151-.217l-.925.831v1.133a.147.147 0 00.042.109.422.422 0 00.222.061v.113h-1.944v-.114a.422.422 0 00.222-.061.147.147 0 00.042-.109v-4.4a.147.147 0 00-.042-.109.422.422 0 00-.222-.061v-.113h1.944v.113a.422.422 0 00-.222.061.147.147 0 00-.042.109v1.7h.066q.283-.274.609-.566t.6-.543q.274-.25.458-.425t.184-.212q0-.085-.047-.1a.774.774 0 00-.123-.024v-.113h2.4v.113a.818.818 0 00-.156.028.383.383 0 00-.113.057q-.052.038-.113.09t-.146.127l-1.633 1.406 1.925 2.879a.3.3 0 00.142.132.591.591 0 00.16.019v.113h-2.161zm6.451-1.7a.3.3 0 00-.08-.156.28.28 0 00-.2-.061h-1.755v.878h3.03a.131.131 0 00.113-.052.553.553 0 00.057-.231h.113v1.614h-.113a.247.247 0 00-.057-.151.188.188 0 00-.113-.028h-4.709v-.114a.422.422 0 00.222-.061.147.147 0 00.042-.109v-4.4a.147.147 0 00-.042-.109.422.422 0 00-.222-.061v-.113h4.709a.131.131 0 00.113-.052.5.5 0 00.057-.212h.113v1.642h-.113a.5.5 0 00-.057-.212.131.131 0 00-.113-.052h-3.03v.783h1.755a.28.28 0 00.2-.061.3.3 0 00.08-.156h.113v1.473zm-16.524 4.099a3.823 3.823 0 011.137.165 2.809 2.809 0 01.934.486 2.343 2.343 0 01.637.793 2.418 2.418 0 01.236 1.095 2.418 2.418 0 01-.236 1.095 2.343 2.343 0 01-.637.793 2.619 2.619 0 01-.934.472 4.157 4.157 0 01-1.137.151 4.157 4.157 0 01-1.137-.151 2.619 2.619 0 01-.934-.472 2.343 2.343 0 01-.637-.793 2.418 2.418 0 01-.236-1.095 2.418 2.418 0 01.236-1.095 2.343 2.343 0 01.637-.793 2.809 2.809 0 01.934-.486 3.823 3.823 0 011.137-.165zm0 1.151a1.825 1.825 0 00-.59.094 1.546 1.546 0 00-.491.269 1.289 1.289 0 00-.34.434 1.321 1.321 0 00-.127.59 1.321 1.321 0 00.127.59 1.289 1.289 0 00.34.434 1.546 1.546 0 00.491.269 1.825 1.825 0 00.59.094 1.825 1.825 0 00.59-.094 1.546 1.546 0 00.491-.269 1.289 1.289 0 00.34-.434 1.321 1.321 0 00.127-.59 1.321 1.321 0 00-.127-.59 1.289 1.289 0 00-.34-.434 1.546 1.546 0 00-.491-.269 1.825 1.825 0 00-.59-.092zm7.8-.812a.147.147 0 00-.042-.109.422.422 0 00-.222-.061v-.113h1.944v.113a.422.422 0 00-.222.061.147.147 0 00-.042.109v2.529a2.42 2.42 0 01-.2 1.048 1.746 1.746 0 01-.557.68 2.152 2.152 0 01-.831.354 4.978 4.978 0 01-1.015.1 4.978 4.978 0 01-1.015-.1 2.152 2.152 0 01-.831-.354 1.747 1.747 0 01-.557-.68 2.42 2.42 0 01-.2-1.048v-2.529a.147.147 0 00-.042-.109.422.422 0 00-.222-.061v-.113h1.944v.113a.422.422 0 00-.222.061.147.147 0 00-.042.109v2.529a.921.921 0 00.311.783 1.428 1.428 0 00.878.236 1.428 1.428 0 00.878-.236.921.921 0 00.311-.783zm4.153 4.568a.422.422 0 00.222-.061.147.147 0 00.042-.109v-3.53h-1.623a.131.131 0 00-.113.052.5.5 0 00-.057.212h-.113v-1.68h.113a.5.5 0 00.057.212.131.131 0 00.113.052h4.662a.131.131 0 00.113-.052.5.5 0 00.057-.212h.113v1.68h-.113a.5.5 0 00-.057-.212.131.131 0 00-.113-.052h-1.628v3.53a.147.147 0 00.042.109.422.422 0 00.222.061v.113h-1.944z" fill="#0b0b0b"/><path fill="none" d="M0 0h39v42H0z"/></svg>