<svg xmlns="http://www.w3.org/2000/svg" width="70" height="33"><path d="M12.898 14.298a7.19 7.19 0 005.142-2.254 8.93 8.93 0 001.22-1.515 3 3 0 00.6-1.294.223.223 0 00-.233-.25c-.1 0-.168.076-.211.219a7.579 7.579 0 01-2.682 3.293 6.469 6.469 0 01-3.77 1.368 3.77 3.77 0 01-2.786-1.083 3.809 3.809 0 01-1.075-2.793c0-2.256 1.094-4.385 3.251-6.327a10.415 10.415 0 017.063-2.93 4.072 4.072 0 012.227.582 1.634 1.634 0 01.892 1.365 3.573 3.573 0 01-.51 1.571 7.768 7.768 0 00-1.116 3.074 2.653 2.653 0 00.634 1.841 2.127 2.127 0 001.648.707c1.039 0 2.151-.672 3.3-2 .568-.647.642-.845.642-.946a.2.2 0 00-.217-.217c-.1 0-.2.075-.319.236-1.176 1.629-2.323 2.455-3.41 2.455-.939 0-1.4-.378-1.4-1.158a5.621 5.621 0 01.711-1.89 6.2 6.2 0 00.814-2.738 3.11 3.11 0 00-1.026-2.46 4.147 4.147 0 00-2.812-.892 11.1 11.1 0 00-7.458 3.039c-2.283 2.019-3.44 4.246-3.44 6.618a4.344 4.344 0 001.182 3.177 4.216 4.216 0 003.139 1.202zm41.114-.822a1.573 1.573 0 001.141-.537 1.651 1.651 0 00.518-1.156.719.719 0 00-.8-.8 1.636 1.636 0 00-1.148.535 1.584 1.584 0 00-.545 1.124.749.749 0 00.834.834zm14.086 0a1.573 1.573 0 001.141-.537 1.648 1.648 0 00.518-1.156.718.718 0 00-.8-.8 1.636 1.636 0 00-1.148.535 1.583 1.583 0 00-.545 1.124.749.749 0 00.834.834z" fill="#c93935"/><path d="M69.817 18.535c-.134 0-.215.16-.235.2-2.48 3.509-4.225 5.289-5.189 5.289-.482 0-.706-.214-.706-.672a4.55 4.55 0 01.81-2.053l3.9-6.4-.173.025a9.7 9.7 0 01-1.263.116 3.879 3.879 0 01-.8-.115l-.059-.013-2.213 3.76a1.769 1.769 0 00-.152.167c-2.613 3.444-4.7 5.191-6.213 5.191-.938 0-1.395-.489-1.395-1.494a8.485 8.485 0 012.013-4.6c1.33-1.813 2.458-2.733 3.354-2.733.5 0 .739.213.739.672a1.687 1.687 0 01-1.144 1.469c-1.055.515-1.589 1.093-1.589 1.717a.749.749 0 00.837.837c.541 0 1.086-.4 1.62-1.193a4.219 4.219 0 00.794-2.361c0-1.034-.445-1.558-1.324-1.558a5.829 5.829 0 00-2.69.949 9.967 9.967 0 00-3.094 2.621 6.671 6.671 0 00-.729 1.192c-2.17 2.969-3.719 4.477-4.6 4.477-.482 0-.706-.214-.706-.672a4.552 4.552 0 01.81-2.053l3.9-6.4-.174.025a9.682 9.682 0 01-1.262.116 3.88 3.88 0 01-.8-.115l-.059-.013-2.158 3.665a.431.431 0 00-.121.158l-.305.374-.521.722c-1.99 2.786-3.424 4.2-4.265 4.2a.528.528 0 01-.606-.606 3.782 3.782 0 01.808-1.8 259.902 259.902 0 011.445-2.15 5.072 5.072 0 00.833-2.474 2.441 2.441 0 00-.513-1.561 1.587 1.587 0 00-1.281-.651c-.987 0-2.363 1.172-4.193 3.577a3.786 3.786 0 00.386-1.5 2.312 2.312 0 00-.471-1.477 1.5 1.5 0 00-1.222-.6c-.9 0-2.174 1.14-3.872 3.479a4.318 4.318 0 00.449-1.669 2.054 2.054 0 00-.4-1.266 1.217 1.217 0 00-.99-.544c-.58 0-1.365.629-2.4 1.922-.441.555-.755.957-.982 1.257a.917.917 0 00-.183.222c-.046.074-.1.148-.144.222a3.546 3.546 0 00-.215.33 20.981 20.981 0 01-3 3.5 7.215 7.215 0 01-5.129 1.959 14.5 14.5 0 01-1.872-.141c4.048-1.1 7.426-4.306 10.043-9.549a38.037 38.037 0 014.709-7.647 10.244 10.244 0 014.721-3.157 15.391 15.391 0 012.955.367 8.5 8.5 0 001.141.2c.378 0 .435-.241.435-.384 0-.563-.79-.837-2.413-.837a11.553 11.553 0 00-2.231.235 20.542 20.542 0 00-9.807 2.567 37.617 37.617 0 00-9.53 7.98 167.073 167.073 0 00-3.267-.033h-.044l-.312.467h3.213l-.366.379c-.95.939-2.235 2.26-3.823 3.926a21.045 21.045 0 01-2.187 2.072c-2.853 2.336-5.5 3.52-7.873 3.52a7.517 7.517 0 01-4.194-1.118 3.216 3.216 0 01-1.689-2.706 2.225 2.225 0 01.161-.825c.135-.341.23-.367.256-.367s.068 0 .068.085a.33.33 0 01-.025.147l-.042.372a.762.762 0 00.866.837 1.254 1.254 0 00.934-.42 1.409 1.409 0 00.4-1 1.034 1.034 0 00-1.173-1.139 1.826 1.826 0 00-1.43.683 2.427 2.427 0 00-.582 1.63 3.681 3.681 0 001.889 3.087 8.023 8.023 0 004.549 1.255c3.1 0 6.448-1.44 9.946-4.278a76.224 76.224 0 006.339-6.136h6.274a60.965 60.965 0 01-5.053 7.575 7.617 7.617 0 01-3.876 2.018 15.884 15.884 0 00-2.125-.166c-.949 0-1.391.154-1.391.485 0 .435.794.435 1.056.435a8.055 8.055 0 002.471-.349 15.759 15.759 0 002.982.349 7.373 7.373 0 003.648-.841 12.657 12.657 0 003.295-3.05c1.014-1.235 1.5-1.878 1.73-2.228 1.974-2.708 2.8-3.287 3.145-3.287.141 0 .3.048.3.42 0 .6-.83 2.2-2.469 4.769l-2.494 3.923.176-.025a8.456 8.456 0 011.13-.066 5.884 5.884 0 01.975.066l.059.01.028-.052a45.513 45.513 0 014.151-6.427c1.375-1.738 2.368-2.618 2.953-2.618.231 0 .538.07.538.672 0 .541-.78 2.06-2.318 4.517l-2.476 3.923.176-.025a8.757 8.757 0 011.163-.066 4.924 4.924 0 01.906.066l.057.011.03-.05c3.556-6 6.088-9.048 7.526-9.048a.527.527 0 01.6.6 6.988 6.988 0 01-1.394 2.586c-.748 1.076-1.149 1.665-1.228 1.8a4.161 4.161 0 00-.649 2.071 2.326 2.326 0 00.523 1.563 1.712 1.712 0 001.355.615c.936 0 2.277-1.162 4.084-3.538a4 4 0 00-.4 1.494 2.052 2.052 0 00.552 1.457 1.821 1.821 0 001.377.588c1.063 0 2.514-1.243 4.425-3.791a3.67 3.67 0 00-.066.674 3.116 3.116 0 00.862 2.195 2.751 2.751 0 002.074.923c1.227 0 2.727-.958 4.458-2.848.388-.427.713-.788.985-1.1a4.718 4.718 0 00-.582 1.9 2.053 2.053 0 00.552 1.457 1.822 1.822 0 001.378.588c1.147 0 2.745-1.445 4.885-4.417l.723-.992a1.555 1.555 0 00.178-.289v-.026a.17.17 0 00-.182-.19zM39.032 3.813a14.615 14.615 0 00-4.6 3.334 30.914 30.914 0 00-5.172 6.684h-6.121a42.018 42.018 0 018.477-7.561 16.85 16.85 0 017.416-2.457z" fill="#c93935"/><path d="M34.297 32.966c-24.829 0-31.323-9.2-31.323-9.2.069.064 7.134 7.46 31.323 7.46 24.346 0 31.253-7.393 31.32-7.457 0-.005-6.49 9.197-31.32 9.197z" fill="#c93935"/><path fill="none" d="M.006 0h69.897v32.968H.006z"/><path fill="none" d="M0 0h70v33H0z"/></svg>