<svg xmlns="http://www.w3.org/2000/svg" width="70" height="25.137"><path d="M11.207 12.569a1.6 1.6 0 01-.17-.571l-.056-.636a1.507 1.507 0 01-.007-.162.281.281 0 01.028-.113.817.817 0 01.431.508l.134.445a.87.87 0 00.473.5 6.39 6.39 0 01.275-.2 2.557 2.557 0 01.219-.156.052.052 0 00.021-.014q.3-.219.3-.368a.512.512 0 00-.071-.161.164.164 0 01.064-.021 1.128 1.128 0 01.614.268.24.24 0 01-.014.438 4.094 4.094 0 01-.649.289 3.552 3.552 0 00-1.088.7 1.1 1.1 0 00-.445.791.414.414 0 00.134.282.652.652 0 00.31.184l.106.022.078.021.614.021a.759.759 0 01.346.155c.127.1.191.172.191.219 0 .062-.059.115-.177.162a1.151 1.151 0 01-.416.07 2.257 2.257 0 01-1.222-.317.909.909 0 01-.508-.77.946.946 0 01.2-.536 4.8 4.8 0 01.678-.721.778.778 0 01-.393-.329zm4.546 1.783h.048a.02.02 0 00.016.008h.016l.216.057h.032a.325.325 0 00.144-.049c.053-.031.184-.112.393-.239a6.827 6.827 0 00.825-.6q.032-.431.04-.665t.016-.633a1.615 1.615 0 00-.873.585c-.139.165-.251.248-.336.248q-.153 0-.353-.376a3.869 3.869 0 00.425-.665 9.191 9.191 0 00.408-1.049 1.13 1.13 0 01.225.576 2.122 2.122 0 01-.1.513l.625-.281.032-1.835-.016-.144a.417.417 0 01.288.144 1.048 1.048 0 01.409.7 3.466 3.466 0 01-.128.833.77.77 0 01.12-.008.82.82 0 01.353.08c.112.054.168.107.168.16q0 .113-.4.216l-.16.049-.168.048q-.056.4-.08.609c-.011.145-.016.31-.016.5.1-.08.238-.2.408-.361l.041-.04a.171.171 0 01.008.048 1.321 1.321 0 01-.3.729l-.176.256c0 .225 0 .4.008.529 0 .091 0 .174.008.249l.064.809a.936.936 0 00.008.12c0 .053 0 .109.008.168l.016.457a1.168 1.168 0 01.008.152c0 .2-.059.305-.176.305-.065 0-.142-.056-.232-.168a1.412 1.412 0 01-.377-.7 3.228 3.228 0 01.1-.6 3.754 3.754 0 00.064-.834c-.085.1-.2.208-.328.336l-.048.048-.144.121a.867.867 0 01-.473.272q-.305 0-.657-.554l-.024-.047zm2.388.642h.008a4.02 4.02 0 00.457-.056q.169-.032.737-.176c.128-.032.307-.073.536-.12.043-.348.072-.611.089-.793s.018-.409.024-.7h-.032a4.016 4.016 0 01-.288.015 1.621 1.621 0 01-.769-.215l.008-.049 1.09-.353a11.818 11.818 0 00.032-.692 1.615 1.615 0 00-.088-.625.654.654 0 00-.353-.288.107.107 0 01-.04-.089l.16-.048h.16a1.682 1.682 0 01.729.1.475.475 0 01.176.433c0 .106-.007.247-.024.424l-.024.5a1.485 1.485 0 01.369-.064 1.119 1.119 0 01.433.088c.144.059.216.118.216.177q0 .2-.529.329a16.15 16.15 0 00-.545.167 7.1 7.1 0 01-.128.89 5.007 5.007 0 01-.232.7q.529-.047.8-.088a5.951 5.951 0 01.673-.048 1.377 1.377 0 01.593.144c.2.091.3.187.321.288q.048.248-.2.249l-1.073-.015a1.15 1.15 0 00-.209.047 2.375 2.375 0 01-.233.073 5.481 5.481 0 01-.328.1l-.008-.048a2.62 2.62 0 00.649-.329.075.075 0 01-.032-.008 3.2 3.2 0 00-.408-.041 2.685 2.685 0 00-.937.169l-.617.248a.974.974 0 01-1.186-.272zm5.727-3.077a3.467 3.467 0 01.238.259q.375-.18.591-.31c0-.048-.007-.1-.007-.158s-.01-.145-.014-.232c0-.047-.01-.122-.014-.223s-.01-.163-.014-.2v-.1a1.226 1.226 0 00-.037-.355 1.053 1.053 0 00-.166-.288l.036-.037a3.263 3.263 0 01.714.231.309.309 0 01.166.288 2.224 2.224 0 01-.043.354 4.873 4.873 0 00-.05.549 2.835 2.835 0 01.57-.08q.49 0 .49.275a.394.394 0 01-.072.222l-.158.195-.051.065a1.13 1.13 0 01-.166.166 2.664 2.664 0 00-.116.13.383.383 0 00-.065.065c.062.048.094.091.094.129 0 .092-.128.171-.383.239a.339.339 0 00-.093.021l-.238.058c-.043.236-.082.43-.115.584q-.022.108-.058.252c-.019.1-.041.2-.065.3 0 .019-.01.041-.015.065a3.409 3.409 0 00.577-.584 1.29 1.29 0 00-.144-.231c-.048-.048-.072-.086-.072-.114v-.044a.442.442 0 01.079-.008.691.691 0 01.512.26.815.815 0 01.246.555.528.528 0 01-.058.238c-.043.073-.087.108-.13.108-.087 0-.193-.148-.318-.447a4.638 4.638 0 01-.259.447c-.072.106-.183.25-.332.433-.279.332-.493.5-.642.5q-.252 0-.446-.433a.713.713 0 00.375-.238 1.937 1.937 0 00.23-.518q.08-.3.181-.931h-.007l-.008.008h-.014c0 .006 0 .007-.007.007h-.028v-.007h-.015l-.007-.008h-.008l-.029.094c-.048.086-.091.13-.13.13q-.187 0-.36-.368a3.035 3.035 0 01-.166-.447 1.88 1.88 0 01-.094-.433 2.224 2.224 0 00-.065-.39.051.051 0 01-.008-.022.36.36 0 01-.022-.086v-.008l.008-.007v-.006l.022-.022a.544.544 0 01.18.108zm.8.959v-.078l.014-.346V12.4a.805.805 0 00-.007-.1l-.152.029a.777.777 0 00-.1-.007 1.317 1.317 0 00-.159.022.146.146 0 01-.043.007v.008l.007.008v.014h.007v.014l.144.4c0 .015.019.071.043.166zm.844-.692a.578.578 0 00.152-.26c0-.043-.02-.064-.058-.064a.1.1 0 00-.043.014l-.332.123c-.019.163-.036.334-.05.511a2.86 2.86 0 00.33-.324zm1.24-.938l.058-.144a.7.7 0 01-.188-.058l-.137-.079-.029-.014a.266.266 0 01-.1-.123l.108-.015 1.053-.26c.139-.037.279-.071.418-.1q.166-.037.347-.065a4.914 4.914 0 00.576-.095l.188-.05a.915.915 0 01.231-.029 1.6 1.6 0 01.49.122.28.28 0 01.1.166c0 .106-.1.154-.3.145h-.094q-.18 0-.678.049l-.151.022-.635.123c-.053.009-.111.022-.173.035a.15.15 0 00-.05.008.021.021 0 00-.015.007h-.015l-.446.123c-.149.039-.224.163-.224.375 0 .044 0 .118.015.223v.044a.665.665 0 00.159.022.492.492 0 00.122-.029 1.478 1.478 0 01.209-.064 1.013 1.013 0 00-.079-.217.392.392 0 00-.029-.05.781.781 0 01-.072-.195.641.641 0 01.31.058 1.083 1.083 0 01.252.281l.289-.058c.072-.014.166-.031.281-.05a.835.835 0 00.064-.3c0-.062-.048-.134-.144-.216a1.522 1.522 0 01.375-.073.455.455 0 01.3.116c.086.072.13.132.13.18a.468.468 0 01-.115.216.734.734 0 00.108.007c.072 0 .108-.019.108-.058 0-.009-.01-.024-.029-.043a.063.063 0 01-.022-.044v-.007s0-.007.007-.007v-.015q.649.122.649.411c0 .063-.056.1-.166.116h-.036a3.3 3.3 0 01-.382-.015 3.71 3.71 0 01-.389-.064 7.757 7.757 0 01-.548.707 4.129 4.129 0 01.779-.095q.642 0 .641.512a1.488 1.488 0 01-.158.671l-.065.137-.087.173a.265.265 0 01-.224.122.706.706 0 01-.3-.115 1.477 1.477 0 00-.123-.065.26.26 0 00-.057.007c-.1.01-.18.022-.252.036a2.62 2.62 0 01-.043.231.625.625 0 00-.021.1 5.346 5.346 0 01.89-.073 2.4 2.4 0 01.6.073.844.844 0 01.382.187.49.49 0 01.115.339 3.741 3.741 0 01-.367 1.6q-.145.3-.382.3a1.323 1.323 0 01-.548-.288l-.3-.216-.274-.223c-.077-.039-.12-.084-.13-.137a2.9 2.9 0 00.441.158 2.706 2.706 0 00.44.073.245.245 0 00.187-.1 1.889 1.889 0 00.267-1.025q0-.52-.5-.519a3.33 3.33 0 00-.887.166 2.78 2.78 0 01-.129.41h.021a.97.97 0 00.188-.035l.325-.123a.286.286 0 01.1-.021.611.611 0 01.31.087c.1.058.152.118.152.18 0 .134-.106.238-.318.311a1.052 1.052 0 00-.1.029l-.029.014h-.007c-.058.024-.1.04-.137.05h-.008c-.024.01-.05.019-.079.029a1.979 1.979 0 00-.23.094l-.39.2a.149.149 0 00-.044.021l-.043.014v-.057a1.4 1.4 0 00.505-.425 1.414 1.414 0 00-.627.223.374.374 0 01-.087.037c-.043 0-.1-.042-.173-.124a.371.371 0 01-.1-.23.085.085 0 01.058-.087l.159-.064a.316.316 0 00.137-.138.781.781 0 00.1-.238 7.968 7.968 0 00-.757.346c.02.043.043.106.072.188a.19.19 0 00.022.043l.014.044a2.322 2.322 0 01.209.7.6.6 0 01-.123.274.367.367 0 01-.26-.137 1.342 1.342 0 01-.223-.4 6 6 0 01-.13-.736.8.8 0 01-.281-.137s.019-.014.058-.029a.025.025 0 01.021-.007l.029-.015h.007v-.007h.007l.008-.007h.014v-.008h.008l.165-.086a1.443 1.443 0 01.072-.375.574.574 0 01.173.282l.657-.231.3-.078a2.547 2.547 0 00.057-.289.464.464 0 01-.13.022q-.122 0-.245-.309l.036-.037a1.207 1.207 0 00.346-.18v-.037a1.218 1.218 0 01-.353-.071c-.106-.035-.159-.07-.159-.108s.123-.094.368-.18a.546.546 0 00.115-.044.239.239 0 00-.064-.116h-.044a.388.388 0 01-.267.109l-.252-.008-.094.036c0 .006 0 .008.007.008v.007a.022.022 0 01.008.015.113.113 0 00.036.043c.159.313.253.5.281.577a.581.581 0 01.043.216q0 .26-.159.26-.072 0-.26-.2a.843.843 0 01-.2-.309 1.382 1.382 0 01-.058-.455 2.384 2.384 0 01.065-.491l.05-.029.108.195.138-.058.324-.144c.125-.053.238-.1.338-.137a11.841 11.841 0 00.246-.505c.028-.063.058-.166.1-.31a1.716 1.716 0 00-.418.1 1.4 1.4 0 01.05.346.313.313 0 01-.007.079l-.044.158c-.028.092-.067.138-.115.138a.239.239 0 01-.152-.08.787.787 0 01-.064-.071.131.131 0 00-.022-.029.237.237 0 00-.029-.036.107.107 0 01-.022-.029s-.007 0-.007-.008h-.007v-.007l.028-.2v-.008a.006.006 0 01-.007-.007c0-.006 0-.008-.008-.008v-.008s-.007 0-.007-.008a.1.1 0 01-.036.023.094.094 0 00-.029.022.078.078 0 01-.022.013.023.023 0 00-.014.008.615.615 0 01-.267.152q-.058 0-.2-.13l-.029-.015-.209 1.075-.065.346-.332 1.247q-.057.259-.144.714c-.057.341-.158.512-.3.512-.164 0-.246-.172-.246-.519a1.487 1.487 0 01.137-.569c.062-.16.118-.318.166-.477s.113-.392.18-.671l.043-.2.043-.194.079-.39zm1.925 1.457h.094c.149 0 .224.054.224.159q0 .181-.3.3l-.015.1a1.23 1.23 0 01.217-.036 1.026 1.026 0 01.194.036 1.834 1.834 0 00.216-.634q0-.245-.224-.245a1.464 1.464 0 00-.6.166.842.842 0 01.194.153zM5.653 10.827a1.756 1.756 0 00.375-.2 2.829 2.829 0 011.284.861c0 .068-.225.354-.235.421-.009.1-.065.532-.075.616-.019.371-.019.456-.028 1.207 0 .009-.112 1.182-.159 1.57a6.3 6.3 0 01-.45 1.417c-.066.093-.412.4-.582.4-.253 0-.272-.127-.291-.328-.037-.3-.253-.464-.5-.65-.132-.092-.14-.109-.225-.16s-.178-.143-.178-.21c0-.042.066-.076.1-.076a3.634 3.634 0 01.357.085 1.437 1.437 0 00.44.067 1.233 1.233 0 00.263-.017 8.984 8.984 0 00.244-1c.019-.194.112-1.063.122-1.24 0-.1.047-.582.047-.676l.009-.86c0-.16-.038-.632-.16-.734a.649.649 0 00-.328-.1 11.161 11.161 0 00-1.716.185 2.679 2.679 0 01-.263.06 2.823 2.823 0 00-.262.413c.075.034.459.093.535.11.018.008.937.287.965.3s.2.109.234.118c.047.05.047.05.169.109a1.164 1.164 0 01.337.591.181.181 0 01-.178.168 1.884 1.884 0 01-.6-.186 7.543 7.543 0 01-.759-.531 1.975 1.975 0 00-.853-.447 1.3 1.3 0 01-.45.464c-.029.017-.141.152-.169.178a2.87 2.87 0 01-1.247.65c-.038 0-.094-.009-.094-.059 0-.084.084-.151.337-.338a3.983 3.983 0 001.135-1.459 4.55 4.55 0 01-.3.034 1.1 1.1 0 00-.393.068c-.047.017-.281.025-.319.034-.075.008-.412.068-.5.068-.009 0-.244-.025-.29-.035a.346.346 0 01.056.153c0 .016-.028.3-.028.354 0 .094.046 1.131.046 1.165 0 .051-.018.3-.018.338 0 .093.018.507.018.582 0 .143.066.743.066.869 0 .085-.028.456-.028.524 0 .489 0 .987-.225.987-.206 0-.394-.4-.431-.5a1.244 1.244 0 01-.16-.666 2.087 2.087 0 00.066-.489c0-.109.019-.608.019-.709 0-.962-.01-1.071-.028-1.679a3.99 3.99 0 00-.216-1.283 1.619 1.619 0 01-.15-.287c0-.042.056-.059.085-.059a4.58 4.58 0 01.666.288 1.338 1.338 0 00.422.05l1.256-.118a3.349 3.349 0 00.478-.042c.038-.008.056-.05.066-.076a.575.575 0 01.027-.127 3.039 3.039 0 00.085-.7.806.806 0 00-.263-.617c-.131-.118-.14-.126-.14-.168 0-.118.169-.143.253-.143a3.147 3.147 0 011.2.5.338.338 0 00.047.143c-.019.042-.169.236-.169.254-.028.126-.244.709-.244.835 0 .017.029.017.047.017.056 0 .272-.035.319-.035a1.094 1.094 0 00.366-.034 3.14 3.14 0 00.394-.067zM3 13.113c0-.043-.038-.245-.038-.261 0-.1.141-.1.207-.1.225 0 .272.043.45.2a1.475 1.475 0 01.347.371 1.176 1.176 0 01-.066.16c-.019.026-.141.144-.16.169.122.1.178.118.685.236a3.746 3.746 0 01.815.337.967.967 0 01.207.523.213.213 0 01-.234.2 4.244 4.244 0 01-1.191-.683 1.193 1.193 0 00-.572-.321 1.6 1.6 0 00-.516.355 3.338 3.338 0 01-1.228.624.4.4 0 01-.094.009c-.075 0-.169-.034-.169-.093s.028-.068.226-.194a2.235 2.235 0 00.544-.447c.018-.025.225-.211.271-.262.207-.215.516-.581.516-.822z" fill="#231815"/><g fill="#c7161d"><path d="M68.953 14.886c-.008 0-.012 0 0 0m-2.938-2.554v.053c0 .017.005.023.005.031a.271.271 0 01-.005.034v.043h.031l-.007-.01a.886.886 0 00.092 0 .067.067 0 01.041 0c.014 0 .019.01.035.01h.149c.02 0 .035-.01.055-.01a.653.653 0 01.139.01h.151c.021 0 .06-.01.075 0s.036.021.054.021a.1.1 0 01.05.027c.008 0 .014.014.017.032a.026.026 0 01.019.022c.009.034-.011.064-.007.094a1.188 1.188 0 01.007.125v.247a.3.3 0 00.012.055.545.545 0 01-.012.079c-.014.046-.011.1-.029.147a.2.2 0 00-.008.07c0 .032-.008.057-.008.085a.251.251 0 000 .076l.023.041.019.031c.007.01.024.035.044.039a.111.111 0 00.067.011c.039 0 .11 0 .149.005a.472.472 0 00.11.008c.049 0 .094-.011.137-.011a.28.28 0 00.095 0 .119.119 0 00.008-.035c0-.025 0-.041.006-.056 0-.037-.022-.086-.022-.126v-.029a.043.043 0 000-.016v-.031a.038.038 0 01.008-.023c0-.041-.008-.079-.008-.119a.928.928 0 010-.1.1.1 0 01.012-.041c0-.015 0-.031.008-.049a.037.037 0 00.013-.02v-.027a.213.213 0 010-.059c.008-.014.012 0 .012-.017a.242.242 0 00-.006-.03.458.458 0 01-.006-.126.573.573 0 000-.1c0-.02-.005-.024-.005-.039s-.01-.032-.012-.055a.106.106 0 01.012-.053c.005-.015.005-.028.011-.041s-.006-.022-.006-.039-.005-.014-.005-.024a.034.034 0 01.005-.022v-.031a.236.236 0 01.006-.029.243.243 0 000-.042v-.017a.081.081 0 01-.008-.032c0-.011.006-.031 0-.036a.783.783 0 00-.015-.117c0-.022.01-.045.01-.071s.005-.048.005-.075.006-.017.01-.035a.079.079 0 010-.024.026.026 0 00-.018 0h-.024a.119.119 0 01-.05-.014c-.016 0-.028.007-.04 0s-.009 0-.015 0a.2.2 0 00-.071 0h-.106c-.006 0-.006-.008-.02-.008a.179.179 0 00-.075 0 .1.1 0 01-.052.011h-.039c-.012 0-.031-.008-.051-.008s-.042.008-.064.008-.018-.008-.029-.008a.157.157 0 01-.036 0c-.02 0-.023-.007-.036 0a.041.041 0 01-.019 0 1.763 1.763 0 00-.234 0 1.258 1.258 0 00-.146 0h-.104c-.007 0 0 0-.014-.007s-.017 0-.025.007-.018 0-.018.011a.074.074 0 00-.035.008l-.055.023a.138.138 0 00-.1.05.03.03 0 01-.018 0c0 .008-.006.008-.006.017s-.006.019-.014.028-.008.015-.012.021a.054.054 0 010 .025.048.048 0 01-.006.028c0 .013-.015.029-.005.046s0 .016.005.025a.146.146 0 01-.005.024.177.177 0 010 .038c0 .014-.006.025 0 .036s0 .044 0 .067"/><path d="M67.487 14.43a.271.271 0 000-.043v-.008a.177.177 0 00-.011-.028.271.271 0 01-.008-.078.106.106 0 000-.024c0-.011.011-.031.011-.05s-.01-.036-.011-.052a.206.206 0 010-.04v-.02a.2.2 0 01.011-.076c0-.017-.008-.035-.008-.049v-.006c-.012 0-.024-.013-.032-.013s-.037.013-.049.024-.006 0-.013.007-.014.006-.016.006a.02.02 0 01-.017 0 .093.093 0 00-.025 0 .159.159 0 00-.064 0 .109.109 0 01-.039 0c-.01 0-.02-.009-.032-.009h-.019a.7.7 0 00-.149 0 .345.345 0 00-.105 0 .179.179 0 01-.06-.019h-.021c-.01 0-.014.019-.024.019s-.014-.011-.022-.011a.072.072 0 00-.035-.008h-.039c-.007 0 0 0 0-.006-.039.008-.083.011-.1-.022a.2.2 0 01-.022-.093.205.205 0 010-.072c0-.023.005-.04.005-.064v-.328a.1.1 0 01.014-.038c.008-.017 0-.027 0-.043a.151.151 0 00.006-.028.04.04 0 00-.016-.031c-.012-.018 0-.024.01-.054a.381.381 0 00.006-.088c0-.031.01-.161.008-.194a.008.008 0 00-.008-.008v-.085a.035.035 0 00-.03-.009.269.269 0 00-.064 0h-.063c-.012-.008.016-.013 0-.019a.391.391 0 00-.057 0 .258.258 0 00-.088.011h-.032c-.012 0-.015.008-.023.008h-.228v.09a.372.372 0 00-.01.063v.112a.264.264 0 01.011.055v.022c0 .003-.011.015-.014.024a.3.3 0 000 .049c0 .017.016.03.01.05s-.021.019-.027.031.006.034.016.047.011.045.011.062c.006.033 0 .063.01.1a.561.561 0 00.009.089l.012.017v.035a.293.293 0 00-.028.087v.029a.085.085 0 01-.006.037v.018a.024.024 0 01.006.014.212.212 0 01.006.049.193.193 0 01-.012.062c0 .025.006.048.006.075a.165.165 0 010 .045c0 .018 0 .034.006.059s.006.031.013.048-.013.038-.013.052v.04a.207.207 0 01-.006.05.092.092 0 000 .062v.036c0 .024.012.043.012.068v.051a.354.354 0 00-.012.063.747.747 0 00-.011.115.21.21 0 000 .031.132.132 0 00.014.024v.049a.589.589 0 01-.018.137v.019h.015c.004 0 .022.014.036.014a.053.053 0 00.043 0 .1.1 0 01.041-.006c.022 0 .029-.01.045-.012s.012 0 .028.008h.085c.029 0 .06-.008.084-.008s.027.008.039.008c.028 0 .047-.015.075-.015v.008h.076a.12.12 0 01.074.015.062.062 0 00.041 0l.01-.008c.009-.008.024 0 .031 0a.082.082 0 01.036-.008.014.014 0 00.012.008s.017-.006.027-.006.019.013.031.01.025-.01.036-.012.024-.015.043 0a.155.155 0 00.043.018h.027c.011 0 .008-.01.016-.01h.047a.4.4 0 01.059-.015s.009.008.016.008a.147.147 0 00.043 0h.113a.112.112 0 00.035 0 .014.014 0 01.01 0h.01a.023.023 0 00.01 0 .087.087 0 00.067-.019c.01-.013 0-.04.006-.058s.02-.013.02-.029v-.05c0-.012.013-.035 0-.058.008-.006.012-.008.023-.033v-.014a.055.055 0 010-.062.63.63 0 000-.133.079.079 0 01.014-.041.026.026 0 000-.018"/><path d="M68.152 15.853v-.067c0-.028.007-.074.007-.114a.678.678 0 000-.085.441.441 0 01-.022-.092v-.29a.215.215 0 01.018-.071.657.657 0 000-.145.057.057 0 01.054-.056.165.165 0 01.059-.008c.02 0 .024-.008.039-.008a.247.247 0 00.073-.014.12.12 0 01.03 0h.042c.055 0 .114-.006.173-.006.035 0 .011-.006.047-.006a.242.242 0 00.059.013c.019 0-.016 0 0 0a.426.426 0 01.068 0h.086c.016 0 .016.012.023.012a.214.214 0 00.055 0c.016 0 0 0-.014-.012a.166.166 0 00.075.012.1.1 0 00.037 0 .043.043 0 01.023-.006h.012a.155.155 0 00.047 0 .131.131 0 00.043 0c.025 0 .047-.014.075 0h.031a.25.25 0 01.022-.026.093.093 0 01-.008-.014c0-.017.012-.037.012-.057v-.05a.058.058 0 000-.03v-.045a.1.1 0 00-.008-.025v-.045a.456.456 0 000-.073.115.115 0 010-.086v-.019a.234.234 0 010-.033v-.039c0-.013.012-.024.014-.039a.283.283 0 00-.005-.037.373.373 0 000-.041.185.185 0 010-.047.077.077 0 00-.008-.036c0-.014.006-.017.008-.029v-.019a.041.041 0 000-.017.057.057 0 01-.006-.025c.006 0 0-.014 0-.022v-.039a.1.1 0 01-.044-.006.11.11 0 00-.051-.015h-.035a.048.048 0 01-.023.008c-.024.014-.047 0-.067 0h-.058a.057.057 0 01-.021-.017h-.058l-.012-.009a.238.238 0 00-.071.031.2.2 0 01-.09.008h-.051c-.024 0 .015.006 0 .006h-.141a.276.276 0 00-.043 0 .14.14 0 01-.1-.008c-.019-.011-.046-.015-.065-.025s-.029.009-.045 0-.023 0-.042.009a.026.026 0 01-.028 0 .059.059 0 01-.033-.046v-.033c0-.014-.009-.011-.009-.019a.037.037 0 010-.021.081.081 0 01.008-.022.061.061 0 010-.012v-.016a.028.028 0 010-.013v-.013a.227.227 0 01-.005-.04v-.086a.312.312 0 000-.045c0-.008-.01-.015-.008-.022a.027.027 0 00.008-.017s-.008-.01-.011-.01a.09.09 0 00-.008-.021c0-.031.02-.058.02-.085a.529.529 0 010-.053v-.045c0-.018 0-.066-.008-.1a.161.161 0 00-.008-.041.158.158 0 010-.044v-.01a.052.052 0 01-.008-.031.611.611 0 01.012-.115.068.068 0 000-.048v-.145a.365.365 0 01.011-.091v-.019a.076.076 0 000-.019c.006-.008 0-.022 0-.037s.01-.018.014-.032a.14.14 0 01.008-.019.007.007 0 010-.006v-.007c.006-.007.01-.02.014-.022s.01-.011.016-.014a.046.046 0 01.006-.028.049.049 0 01.014 0c.012-.007.015-.013.023-.017v-.01h.014a.064.064 0 00.041 0h.022a.03.03 0 000-.014c.01 0 .012-.008.022-.008s0 .008.01.008a.117.117 0 00.045-.006.484.484 0 01.11 0 1.543 1.543 0 00.2-.007h.082a.437.437 0 01.08.014c.037 0 .072.008.112.008s.075.01.112.014c.092 0 .178.018.265.018a.647.647 0 00.085 0c.037 0 .072-.014.106-.014l-.029.013h.105a.589.589 0 00.1 0c.027 0 .05-.008.071-.008H70v-.014a.3.3 0 000-.076.263.263 0 01-.014-.082v-.051a.128.128 0 00-.012-.062.677.677 0 000-.07.271.271 0 00-.011-.162.012.012 0 010-.008.028.028 0 010-.017h-.013a.229.229 0 00-.082-.049.11.11 0 01-.019-.027l-.031.014a.043.043 0 01-.024-.01.711.711 0 00-.2-.016h-.037a.067.067 0 00-.024 0 .054.054 0 01-.027-.007v-.008a.117.117 0 00-.049.014h-.01a1.09 1.09 0 00-.245.008c0-.008 0-.008-.008-.008a.053.053 0 00-.035.008h-.069a.069.069 0 00-.037.016l-.112.015a.562.562 0 01-.084-.014c-.046-.01-.086 0-.13 0a.139.139 0 00-.053-.011.428.428 0 01-.075 0 .379.379 0 00-.06 0 .209.209 0 01-.126.013.134.134 0 00-.055-.016h-.079c-.023 0-.031.011-.051.013h-.039c-.016 0-.027-.013-.047-.013h-.008c-.008 0-.017 0-.022.008a.156.156 0 01-.076.008c-.02 0-.031-.013-.056-.013s-.054.011-.086.013v.015a.156.156 0 01.012.076c0 .028-.012.048-.012.081a2.239 2.239 0 000 .231v.062a.142.142 0 00-.02.082c0 .043.02.077.02.114a.629.629 0 01-.016.194.532.532 0 010 .083 1.457 1.457 0 00-.008.182 1.7 1.7 0 01-.007.241 1.872 1.872 0 000 .206 1.435 1.435 0 000 .232.549.549 0 01.014.109v.085c0 .032-.014.052-.014.085s-.008.07-.008.106a.883.883 0 01-.008.1v.053c0 .019-.008.049-.008.07a1.3 1.3 0 00.008.265.312.312 0 010 .094.106.106 0 00-.008.05c0 .037-.007.063-.007.094v.153c0 .033.015.052.015.084a.079.079 0 01-.008.042.1.1 0 00-.007.027.052.052 0 01-.04.034c0 .008-.012.012-.02.023a.052.052 0 010 .02c0 .006 0 0-.012.006a.15.15 0 01-.043.021c-.012 0-.023-.006-.035 0s-.012.008-.028.008h-.033a.478.478 0 00-.09.006.054.054 0 01-.036.008c-.014 0-.021.011-.033.011h-.035a.012.012 0 00-.011.006c-.018 0-.021-.006-.035-.013s-.012 0-.02 0a.044.044 0 01-.026-.013.337.337 0 00-.06 0 .05.05 0 01-.037 0h-.022a.093.093 0 00-.031 0h-.26a.2.2 0 01-.047 0 .079.079 0 01-.036-.01.143.143 0 00-.041 0c-.005 0-.005.006-.015.006h-.031c-.026 0-.061-.01-.093-.008a.038.038 0 00-.018.008 1.418 1.418 0 01-.187.014h-.2a.372.372 0 01-.094 0c-.035-.006-.07-.009-.108-.014 0 .017-.011.034-.011.047s.01.034.01.043v.057c0 .014-.01.027 0 .043s.011.024.011.039c.02.042-.021.07-.021.111v.021s-.006.014-.012.016v.025a.1.1 0 00.006.046.057.057 0 00.016.02.023.023 0 00.011.018.068.068 0 00.012.01h.007a.045.045 0 00-.013.017.192.192 0 000 .037.049.049 0 00.033.046.128.128 0 01.035 0 .174.174 0 00.03.018.16.16 0 00.027 0c.01 0 .01.01.017.01h.024c.008 0 .011 0 .016-.008 0 .008.012.008.02.008a.879.879 0 00.2.02h.147a1.229 1.229 0 00.289-.014.073.073 0 00.027.008h.067c.01 0 .035.007.042 0s.012-.008.02-.014h.026a.136.136 0 00.057-.008l.009-.008c.006 0 .022.008.03.016h.019c.012.006.027 0 .039 0h.055a.181.181 0 00.066-.024h.015c.009 0 .009.014.022.016a.436.436 0 01.045 0 .02.02 0 00.019.008c.02.014.036 0 .059 0a.188.188 0 01.1 0 .554.554 0 00.1 0 .091.091 0 00.048-.008h.129a.468.468 0 00.106.008.678.678 0 01.13 0c.015 0 .031.006.05.006h.012"/><path d="M69.982 14.903c-.008-.016 0-.021 0-.039a.073.073 0 00-.008-.041.221.221 0 01-.012-.062l.008-.014c0-.008 0-.016-.008-.016a.037.037 0 010-.021v-.014a.085.085 0 010-.028h-.005a3.621 3.621 0 00-.005-.452v-.128a.138.138 0 01.009-.043.158.158 0 01.006-.044.24.24 0 00.007-.046c0-.033-.012-.066-.013-.1s-.009-.041-.014-.058v-.092c.005 0 .005-.008.005-.019v-.151a.611.611 0 00.005-.086.065.065 0 00.012-.03.052.052 0 00.008-.031c0-.008.01-.025.01-.031a.116.116 0 00-.019-.024.115.115 0 01-.007-.017c0-.084 0-.172-.005-.257.007-.044.011-.091.021-.138 0-.008.01-.019.01-.031a.156.156 0 01-.01-.041.2.2 0 000-.05.123.123 0 01-.035-.013H69.8c-.066 0-.129.013-.2.013h-.083a.27.27 0 00-.063-.013h-.1a.759.759 0 00-.091 0c-.027 0-.055-.019-.086-.019a.6.6 0 01-.1 0 .53.53 0 00-.088 0 .488.488 0 01-.152 0 1.208 1.208 0 00-.259.005.355.355 0 00-.075.019v.044a.039.039 0 010 .018.082.082 0 01-.016.031c0 .013.012.031.012.046a.2.2 0 01-.008.037s-.005 0-.007.018v.007c0 .014.016.027.016.046s-.008.023-.012.03.009.013.009.013-.009.019-.009.027a.132.132 0 000 .037v.026s-.006.014-.01.018v.006a.169.169 0 000 .039c0 .066.022.128.03.192a.549.549 0 01.01.07.34.34 0 01-.01.118v.068a.048.048 0 01.027.01c.015.008 0 .008.017.008s.01-.008.018-.008.019.008.027.008.014-.008.026-.008.014 0 .02.008h.033c.051-.008.051.017.1.008.014 0 .022-.005.046-.008h.015c.013-.008.013-.008.024 0a.28.28 0 01.045.006h.006c-.006-.006.054-.006.067 0s.01-.006.015-.006l.03.006a.007.007 0 00.006 0h.011c.012 0 .016-.008.029-.008s.007.006.01.006a.316.316 0 01.051 0 .093.093 0 01.028 0h.013c.014 0 .022-.008.034-.008a.189.189 0 01.043.006.166.166 0 01.042-.006c.021 0 .032-.011.052-.017a.134.134 0 01.047 0c.021.006.043.006.059.01a.211.211 0 00.022.013h.01a.134.134 0 00.031 0s.01.011.012.018 0 .01 0 .01h.019c.008 0 .016.012.02.014s0 .022 0 .022.012.01.012.015a.046.046 0 01-.007.023c0 .01 0 .01.007.023s0 .016 0 .024a.151.151 0 01.009.051c0 .013.009.013.01.015v.136a.328.328 0 000 .1c.01.027.014.048.021.066a.319.319 0 01.016.073.383.383 0 010 .1.415.415 0 00-.012.09.458.458 0 01-.008.081v.48c0 .013.006.034 0 .041s-.014.018-.014.024a.115.115 0 01-.01.047c0 .012-.024.018-.035.025a.137.137 0 01-.036 0c-.014 0-.026.011-.041.011h-.125c-.007 0-.019-.014-.027-.014h-.556c-.044 0-.023 0-.071.017s-.007.019-.046.019a1.006 1.006 0 01-.116 0 .743.743 0 00-.116-.005.011.011 0 01-.008.005c-.006.01 0 .014 0 .018s-.012.017-.017.028 0 0 0 .014a.058.058 0 010 .029c.005.008 0 .009 0 .021v.017c0 .012.005.012.005.018s-.005.012-.01.017a.017.017 0 000 .012.062.062 0 000 .014.089.089 0 000 .013v.012l.005.008a.036.036 0 010 .015v.016a.055.055 0 000 .012v.018c0 .014-.005.019-.005.032v.04c.005.006 0 .014 0 .023a.046.046 0 000 .027.051.051 0 000 .025v.134a.067.067 0 00.005.031c0 .01-.005.015-.005.023s-.005.012 0 .02h.067a.328.328 0 00.036.006c0 .006.014.006.017.008a.078.078 0 00.053-.008.5.5 0 00.062-.014.113.113 0 01.024 0 .337.337 0 00.059.016c.012.006.02 0 .031-.006h.027a.032.032 0 01.013-.016.034.034 0 01.021-.008h.014c.029.008.062.046.09.058a.031.031 0 00.015 0h.051a.039.039 0 01.031.011c.02 0 .036-.011.055-.011a.035.035 0 01.032.011h.035a.093.093 0 00.032 0 .232.232 0 01.078-.013.064.064 0 01.031-.012h.294c.009.008.012.012.022.013s.029-.006.048-.006a.03.03 0 01.024-.008.278.278 0 01.031 0 .153.153 0 01.028-.008.041.041 0 00.022-.008c.016 0 .028-.006.04-.006h.02s.011.006.015.006a.052.052 0 00.045-.014c.018-.012.021-.019.041-.025a.034.034 0 00.029-.023c.009 0 .009-.03.009-.046a.023.023 0 00.006-.011.15.15 0 00.026-.027c0-.013-.01-.039-.01-.052s-.008-.011-.008-.017v-.032a.153.153 0 000-.023v-.106a.921.921 0 00.012-.2v-.013a.127.127 0 00-.008-.054c0-.006 0-.01.008-.012a.1.1 0 01.006-.035.635.635 0 000-.11.075.075 0 010-.045c0-.014.009-.015.009-.027v-.021c.008-.01.008-.01 0-.024a.127.127 0 01-.012-.028m-.978-1.21"/></g><path d="M31.021 5.177c.374.029.653.042.84.042h.323q.861-.128 1.336-.236l1.27-.345 3.749-.8 2.024-.388 3.726-.6 1.292-.388a1.765 1.765 0 01.452-.044 4.87 4.87 0 012.368.625q.645.323.646.6 0 .409-2.24.452a8.916 8.916 0 00-2.583.56 15.613 15.613 0 00-2.735 1.723l.065.689a11.93 11.93 0 011.83-.151q2.346 0 2.347 3.617 0 3.961-1.981 3.961a3.533 3.533 0 01-.926-.129 14.232 14.232 0 01-1.465-.581 21.822 21.822 0 01-.56 3.832 9.012 9.012 0 01-1.357 2.584l-.021-.022v-.021H39.4v-.043h-.022v-.022l.087-.431.129-4.2v-2.735a6.234 6.234 0 01-1.378-1.161l.086-.086a10.469 10.469 0 001.292.688l.022-2.886-.086.043a12.056 12.056 0 00-1.356 1.077l-.733.646q-.3.237-1.119 1.012a.784.784 0 01-.366.216c-.159 0-.323-.144-.5-.43a1.771 1.771 0 01-.237-.862 1.373 1.373 0 01.366-1.077l1.444-.991 2.519-1.937a3.229 3.229 0 00-.517-2.025l.043-.086a3.607 3.607 0 01.431-.021 2.541 2.541 0 011.571.775 7.243 7.243 0 001.572-1.443q-.172 0-.409-.021h-.108a8.206 8.206 0 00-1.228.151c-.546.114-1.191.259-1.938.431q-.819.216-1.271.366c-.387.116-.689.215-.9.3l-2.37.926a3.191 3.191 0 01-1.292.238 2.9 2.9 0 01-2.261-1.422.634.634 0 01.15.03zm6.526-2.067l.711-.5q1.013-.732 1.013-1.141 0-.344-1.508-1.013l.021-.108A6.666 6.666 0 0138.99.177a4.178 4.178 0 011.852.408q.819.409.818.9a.593.593 0 01-.538.667l-2.046.346a2.14 2.14 0 00-.84.366 1.862 1.862 0 01-.86.409h-.021a2.243 2.243 0 00.193-.163zm4.867 9.818q1.378 0 1.378-2.863 0-2.131-1.206-2.132a4.257 4.257 0 00-1.033.194l-.065 2.584-.042 2.045a3.541 3.541 0 00.968.172zm10.054-4.77v-.594a3.371 3.371 0 00-.29-1.646l-.275-.4v-.016a.047.047 0 00-.015-.031V5.44a.128.128 0 01-.015-.06h.335a2.1 2.1 0 011.143.289.885.885 0 01.456.746 4.521 4.521 0 01-.045.579q-.045.442-.091 1.387a4.713 4.713 0 01.61-.046 1.044 1.044 0 01.472.106c.143.081.214.168.214.259 0 .153-.214.32-.64.5a7.868 7.868 0 00-.747.35l-.274 2.378q.7-.747 1.036-1.174a13.91 13.91 0 00.838-1.357.594.594 0 01.031.107.671.671 0 01-.045.151 4.77 4.77 0 00-.153.534 11.425 11.425 0 01-1.57 3.154q-1.159 1.738-1.707 1.738a1.1 1.1 0 01-.717-.456.971.971 0 01-.259-.443c.162-.122.294-.223.4-.305a2.817 2.817 0 00.976-1.143 7.4 7.4 0 00.319-2.5v-.259a8.757 8.757 0 01-1.174.122 2.436 2.436 0 01-.777-.137l-.32-.152.579-.29.548-.213a2.074 2.074 0 00.4-.152.129.129 0 01.046-.016 1.157 1.157 0 01.137-.046c.061-.03.116-.055.168-.076q.214-.076.4-.152.006-.308.006-.705zm3.627 2.3a24.806 24.806 0 002.088-1.57l-.457-.107c-.133.376-.239.563-.32.563s-.2-.147-.381-.441a1.677 1.677 0 01-.259-.884v-.093l.046-.214.381-2.362c.051-.234.117-.35.2-.35.041 0 .112.071.214.213a6.1 6.1 0 012.21-.533 1.033 1.033 0 011.052.579 6.82 6.82 0 01.259 2.347v.228c0 .142-.005.31-.015.5-.011.234-.026.482-.046.747l.26-.031h.213a1.131 1.131 0 01.32.046q.853.2.854.5 0 .2-1.159.411a6.076 6.076 0 00-3.734 1.813 17.948 17.948 0 013-.442 2.922 2.922 0 011.707.458 1.4 1.4 0 01.655 1.2 6.151 6.151 0 01-.487 2.271 5.856 5.856 0 01-1.189 1.937 1.269 1.269 0 01-.854.472q-.427 0-1.372-.9-.381-.336-.793-.686a3.2 3.2 0 01-1.707.655h-.229v-.06a6.237 6.237 0 001.4-1.28 10.8 10.8 0 001.112-1.952 2.7 2.7 0 00-1.433 1.1 5.331 5.331 0 01-.472.609q-.244.275-.412.275-.442 0-.442-.823v-.092a1.665 1.665 0 00.016-.182 16.62 16.62 0 001.417-1.479 3.842 3.842 0 00-1.036.488 2.559 2.559 0 01-.99.6q-.489 0-.488-.746c0-.041.005-.133.015-.275a.455.455 0 00.015-.106.512.512 0 00.016-.122c.05-.03.106-.066.167-.106a1.177 1.177 0 00.214-.137 3.479 3.479 0 001.356-1.218 2.857 2.857 0 00-.61.228 1.972 1.972 0 01-.671.214.959.959 0 01-.563-.35c-.183-.153-.275-.276-.275-.367l-.015-.061a3.483 3.483 0 001.223-.483zm1.966-.4c.375-.092.686-.172.929-.244a10.925 10.925 0 001.373-.5 5.914 5.914 0 01-.793-.564l-.015-.016A9.723 9.723 0 0058 9.495a8.722 8.722 0 00-1.341.915q.93-.225 1.403-.347zm-.168-3.339l.411-.182a2.1 2.1 0 01.839-.275.537.537 0 01.366.152q.182.153.183.259a3.814 3.814 0 01-.792.915 7.651 7.651 0 00-.565.624c.132-.03.26-.061.381-.091.081-.02.173-.045.274-.075a1.777 1.777 0 01.5-.137 1.039 1.039 0 01.32.061 2.538 2.538 0 01.015-.29c.01-.3.015-.508.015-.609l-.015-.777q0-1.036-.4-1.036a.355.355 0 00-.138.045l-.716.321a1.014 1.014 0 01-.351.076 2.144 2.144 0 01-.472-.076V5.7zm.473.565a.129.129 0 00-.061.015c-.1.01-.167.016-.2.016s-.081-.006-.182-.016a.13.13 0 00-.061-.015l-.046.777a2.169 2.169 0 00.551-.772zm.29 5.426v.06a1.271 1.271 0 01-.046.29 4.021 4.021 0 011.113-.245c.488 0 .732.164.732.488a3.982 3.982 0 01-.64 1.312 7.714 7.714 0 01-1.037 1.265 2.59 2.59 0 001.265.487.691.691 0 00.534-.213 2.419 2.419 0 00.442-.808c.02-.03.071-.137.152-.319.041-.1.081-.2.122-.29.061-.121.117-.244.168-.365a3.9 3.9 0 00.366-1.585q0-.837-.9-.837a6.176 6.176 0 00-2.286.623.921.921 0 00.015.142z" fill="#231815"/><g fill="#231815"><path d="M10.731 24.252a2.011 2.011 0 00-.2.569c0 .162.213.15.339.162v.087c-.155 0-.306-.012-.461-.016s-.29.011-.436.016v-.087a.4.4 0 00.4-.268c.118-.242.231-.479.348-.721l.641-1.482h.143l.847 1.916a2.652 2.652 0 00.218.414.49.49 0 00.36.14v.087c-.2 0-.4-.012-.595-.016s-.407.011-.608.016v-.087c.117 0 .323 0 .323-.143a.814.814 0 00-.084-.294l-.163-.388h-1.035zm1.018-.215l-.461-1.064-.466 1.064z"/><path d="M9.946 25.096v-.137h.024a.377.377 0 00.381-.253l.174-.361.174-.36.648-1.5h.176l.854 1.932.05.106a1.554 1.554 0 00.163.3.472.472 0 00.343.131h.024v.136h-.027l-.3-.008-.3-.008-.3.008-.3.008h-.027v-.138h.054c.141 0 .268-.015.268-.116a.781.781 0 00-.082-.284l-.156-.372h-1l-.031.077-.033.074a1.626 1.626 0 00-.166.486c0 .107.114.123.262.132h.077v.137h-.027l-.23-.008-.23-.008-.217.008-.218.008zm1.808-.087v.034l.277-.007c.1 0 .2-.006.3-.007s.2 0 .3.007l.27.007v-.037a.491.491 0 01-.355-.146 1.61 1.61 0 01-.171-.314 2.415 2.415 0 00-.05-.106l-.841-1.9h-.108l-.635 1.466-.174.361-.174.36a.419.419 0 01-.4.28v.037l.191-.007c.072 0 .145-.006.218-.007s.156 0 .233.007l.2.007v-.036h-.029c-.124-.008-.311-.019-.311-.184a1.614 1.614 0 01.171-.508l.033-.073.043-.109h1.07l.17.4a.834.834 0 01.086.305c0 .161-.2.166-.319.169zm.035-.947h-1.006l.506-1.155zm-.927-.052h.847l-.421-.972zm4.805-.668h-.088a.763.763 0 00-.821-.728c-.817 0-.993.679-.993 1.275 0 .565.243 1.12.955 1.12.419 0 .7-.177.7-.566 0-.252-.1-.3-.36-.321v-.086h1.1v.086c-.227 0-.26.1-.26.287v.4a.945.945 0 00-.591.158 1.515 1.515 0 01-.658.144 1.263 1.263 0 01-1.408-1.23 1.361 1.361 0 011.467-1.354 1.554 1.554 0 01.871.238l.088-.169h.047z"/><path d="M14.648 25.137a1.3 1.3 0 01-1.435-1.256 1.393 1.393 0 011.493-1.38 1.587 1.587 0 01.862.226l.082-.158h.09l-.05.8h-.137v-.025a.737.737 0 00-.795-.7c-.642 0-.967.419-.967 1.249a.953.953 0 00.93 1.094c.434 0 .674-.191.674-.54 0-.231-.084-.276-.336-.294h-.024v-.137h1.151v.139h-.038c-.191 0-.222.076-.222.261v.426H15.9a.825.825 0 00-.506.119l-.073.037a1.543 1.543 0 01-.673.139zm.059-2.584a1.506 1.506 0 00-1.044.381 1.284 1.284 0 00-.4.947 1.232 1.232 0 001.382 1.2 1.475 1.475 0 00.647-.141l.072-.036a.852.852 0 01.5-.124v-.374c0-.2.042-.309.26-.312v-.035h-1.046v.037c.249.021.36.08.36.344 0 .376-.265.593-.726.593-.615 0-.982-.429-.982-1.147 0-.852.352-1.3 1.019-1.3a.787.787 0 01.846.728h.039l.043-.694-.094.182-.025-.017a1.528 1.528 0 00-.851-.232zm2.186.735a1.972 1.972 0 00-.042-.5c-.054-.129-.226-.129-.361-.129v-.086c.2 0 .4.011.6.015s.423-.012.633-.015v.086c-.135 0-.306 0-.361.129a1.966 1.966 0 00-.042.5v1.064a1.975 1.975 0 00.042.5c.054.128.226.128.361.128v.087c-.2 0-.4-.012-.6-.016s-.424.011-.633.016v-.085c.134 0 .306 0 .361-.128a1.981 1.981 0 00.042-.5z"/><path d="M17.754 25.096h-.027l-.3-.008-.308-.008-.315.008-.317.008h-.027v-.139h.026c.129 0 .289 0 .336-.112a1.967 1.967 0 00.04-.492v-1.064a1.959 1.959 0 00-.04-.491c-.048-.112-.208-.112-.336-.112h-.026v-.14h.027l.293.008c.1 0 .207.006.31.007s.22 0 .329-.007l.3-.008h.027v.14h-.026c-.129 0-.289 0-.337.112a1.947 1.947 0 00-.04.491v1.064a1.932 1.932 0 00.041.492c.047.112.207.112.336.112h.026zm-1.237-.087v.033l.289-.007c.106 0 .212-.006.317-.007s.207 0 .31.007l.268.007v-.033c-.133 0-.3-.009-.359-.145a1.938 1.938 0 01-.044-.512v-1.064a1.938 1.938 0 01.044-.511c.058-.135.226-.143.359-.145v-.034l-.275.007-.331.008-.312-.008-.266-.006v.033c.134 0 .3.01.358.145a1.912 1.912 0 01.044.511v1.064a1.912 1.912 0 01-.044.512c-.057.136-.224.145-.358.145zm2.103-2.127a.5.5 0 00-.456-.227v-.086c.133 0 .264.011.4.015.109 0 .222-.012.331-.015l1.769 1.942h.008v-1.049a2.928 2.928 0 00-.038-.58c-.05-.212-.163-.2-.372-.227v-.086c.155 0 .305.011.461.015s.289-.012.444-.015v.086c-.155.015-.264 0-.319.166a3.326 3.326 0 00-.05.661v1.625h-.126c-.092-.1-.184-.207-.276-.313l-1.638-1.787h-.009v1.275a1.614 1.614 0 00.063.551c.071.146.209.139.364.155v.087c-.159 0-.323-.012-.482-.016s-.31.011-.465.016v-.093c.164-.016.319-.023.361-.185a2.691 2.691 0 00.033-.52z"/><path d="M20.821 25.137h-.164l-.007-.009c-.093-.1-.185-.208-.277-.313l-1.6-1.748v1.21a1.623 1.623 0 00.06.539c.057.116.159.124.289.135h.078v.137h-.027l-.242-.008-.24-.008-.231.008-.233.008H18.2v-.137h.043c.151-.014.283-.025.318-.162a2.675 2.675 0 00.033-.514v-1.384a.461.461 0 00-.43-.208h-.026v-.139h.027l.194.008c.067 0 .135.006.2.007s.111 0 .168-.007l.162-.008h.012l1.74 1.91v-.99a2.894 2.894 0 00-.038-.574c-.04-.167-.114-.177-.276-.2l-.074-.009h-.022v-.136h.027l.225.008c.078 0 .157.006.236.007s.142 0 .214-.007l.229-.008h.027v.137h-.075c-.126.01-.2.017-.245.144a3.287 3.287 0 00-.049.652zm-.141-.052h.088v-1.6a3.516 3.516 0 01.052-.669c.053-.16.163-.169.29-.18h.026v-.035l-.2.007-.216.008-.238-.008-.2-.006v.037l.051.008c.165.02.273.034.322.236a2.99 2.99 0 01.038.586v1.075h-.046l-.008-.009-1.76-1.934-.149.007-.17.008-.207-.008-.166-.006v.035a.515.515 0 01.451.235l.005.008v1.4a2.734 2.734 0 01-.034.527c-.045.172-.2.188-.36.2v.036l.206-.007c.077 0 .154-.006.233-.007s.162 0 .242.007l.214.007v-.036h-.03c-.135-.011-.263-.021-.332-.165a1.61 1.61 0 01-.065-.562v-1.294h.046l.008.009 1.639 1.787q.136.155.27.303zm3.407-1.743H24a.764.764 0 00-.822-.728c-.817 0-.993.679-.993 1.275 0 .565.243 1.12.955 1.12.418 0 .7-.177.7-.566 0-.252-.1-.3-.36-.321v-.086h1.1v.086c-.226 0-.26.1-.26.287v.4a.948.948 0 00-.591.158 1.514 1.514 0 01-.658.144 1.264 1.264 0 01-1.408-1.23 1.361 1.361 0 011.467-1.354 1.558 1.558 0 01.872.238l.087-.169h.047z"/><path d="M23.069 25.137a1.3 1.3 0 01-1.435-1.256 1.393 1.393 0 011.493-1.38 1.586 1.586 0 01.861.226l.083-.158h.09l-.049.8h-.137v-.025a.738.738 0 00-.8-.7c-.641 0-.967.419-.967 1.249a.953.953 0 00.929 1.094c.434 0 .674-.191.674-.54 0-.231-.084-.276-.336-.294h-.025v-.137h1.15v.139h-.037c-.192 0-.222.076-.222.261v.426h-.026a.824.824 0 00-.506.119l-.073.037a1.541 1.541 0 01-.667.139zm.058-2.584a1.507 1.507 0 00-1.044.381 1.286 1.286 0 00-.4.947 1.232 1.232 0 001.382 1.2 1.481 1.481 0 00.647-.141l.071-.036a.853.853 0 01.5-.124v-.374c0-.2.042-.309.26-.312v-.035h-1.046v.037c.249.021.36.08.36.344 0 .376-.264.593-.726.593-.615 0-.982-.429-.982-1.147 0-.852.352-1.3 1.019-1.3a.787.787 0 01.846.728h.039l.043-.694-.094.182-.024-.017a1.53 1.53 0 00-.85-.232zm3.457.735a2.157 2.157 0 00-.038-.5c-.046-.132-.222-.129-.356-.129v-.086c.2 0 .4.011.6.015.167 0 .331-.012.5-.015.44-.012 1.032.091 1.032.592 0 .343-.311.491-.629.577v.008a1.36 1.36 0 01.612.155.608.608 0 01.323.52.624.624 0 01-.406.546 1.89 1.89 0 01-.771.1c-.184 0-.365-.012-.549-.015-.235 0-.474.011-.708.015v-.088c.134 0 .31 0 .356-.128a2.168 2.168 0 00.038-.5zm.431.419h.134a.973.973 0 00.5-.079.457.457 0 00.213-.445c0-.336-.2-.5-.575-.5a.742.742 0 00-.247.018c-.029.023-.025.13-.025.159zm0 .627a1.476 1.476 0 00.05.474c.071.162.281.158.44.158a.522.522 0 00.595-.576.514.514 0 00-.3-.5 1.569 1.569 0 00-.654-.08h-.13z"/><path d="M26.164 25.096v-.139h.047c.143 0 .274-.008.31-.111a2.17 2.17 0 00.036-.493v-1.064a2.156 2.156 0 00-.036-.491c-.036-.1-.167-.111-.31-.111h-.047v-.14h.027l.292.008c.1 0 .2.006.307.007.085 0 .169 0 .254-.007l.243-.008h.063c.3 0 .994.06.994.619 0 .332-.281.486-.537.569a1.225 1.225 0 01.508.148.637.637 0 01.335.543.645.645 0 01-.422.57 1.664 1.664 0 01-.688.1h-.094l-.275-.008-.274-.008-.353.008-.354.008zm.734-.067c.093 0 .184 0 .276.007s.182.006.275.007h.093a1.629 1.629 0 00.666-.1.6.6 0 00.391-.523.583.583 0 00-.31-.5 1.344 1.344 0 00-.6-.151h-.024v-.046l.019-.005c.421-.115.609-.285.609-.552 0-.512-.659-.567-.942-.567h-.062l-.243.007-.256.008-.309-.008-.265-.006v.033c.123 0 .3 0 .355.146a2.152 2.152 0 01.039.509v1.064a2.126 2.126 0 01-.039.51c-.051.145-.232.146-.354.146v.033l.327-.007.354-.005zm.587-.035c-.146 0-.366 0-.443-.175a1.488 1.488 0 01-.053-.485v-.551h.289a1.285 1.285 0 01.532.082.541.541 0 01.316.526.548.548 0 01-.621.6zm-.443-1.158v.5a1.487 1.487 0 00.048.464c.058.132.22.142.395.142h.021a.5.5 0 00.569-.55.491.491 0 00-.287-.478 1.23 1.23 0 00-.509-.077zm.187-.1h-.24v-.884c0-.085.005-.145.035-.169a.322.322 0 01.173-.025h.09c.393 0 .6.182.6.528a.489.489 0 01-.227.467.842.842 0 01-.431.081zm-.187-.052h.187a.794.794 0 00.407-.077.434.434 0 00.2-.421c0-.316-.184-.476-.548-.476h-.09a.335.335 0 00-.141.014s-.016.026-.015.128v.833zm2.432-.38a1.965 1.965 0 00-.042-.5c-.054-.129-.226-.129-.36-.129v-.1h2.083v.57h-.1c-.079-.442-.3-.468-.742-.468h-.3c-.063 0-.092 0-.1.015a.55.55 0 000 .14v.893c.574.023.658-.193.683-.464h.1c0 .169-.009.343-.017.513.008.155.012.313.017.467h-.1c-.059-.4-.281-.415-.683-.415v.619a.656.656 0 00.076.381c.109.133.369.14.536.135.436-.007.721-.055.776-.5h.1l-.038.607h-2.28v-.087c.134 0 .306 0 .36-.128a1.967 1.967 0 00.042-.5z"/><path d="M31.376 25.088h-2.33v-.139h.026c.129 0 .289 0 .336-.113a1.94 1.94 0 00.04-.491v-1.041a1.945 1.945 0 00-.04-.491c-.047-.112-.207-.112-.336-.112h-.026v-.154h2.134v.621h-.144v-.021c-.077-.427-.287-.447-.716-.447h-.385v.994h.054c.5 0 .555-.2.577-.441v-.024h.147v.027c0 .159-.008.338-.016.513.008.156.013.32.016.466v.026h-.146v-.021c-.054-.367-.244-.393-.631-.394v.593a.646.646 0 00.07.364c.07.085.22.127.458.127h.057c.419-.007.7-.044.75-.482v-.023h.148zm-2.278-.052h2.229l.034-.554h-.046c-.065.455-.386.5-.8.5h-.059a.632.632 0 01-.5-.146.67.67 0 01-.081-.4v-.645h.026c.393 0 .638.021.705.415h.047c0-.138-.008-.292-.016-.44.008-.166.013-.336.016-.488h-.046c-.026.239-.105.465-.627.465h-.106v-.98a.2.2 0 01.008-.091.088.088 0 01.082-.029h.347c.427 0 .676.022.763.468h.049v-.516h-2.03v.049c.133 0 .3.01.358.145a1.91 1.91 0 01.044.512v1.041a1.923 1.923 0 01-.044.512c-.058.135-.225.144-.358.145zm3.184-1.732a1.954 1.954 0 00-.042-.5c-.054-.129-.226-.129-.36-.129v-.1h2.082v.57h-.1c-.079-.442-.3-.468-.742-.468h-.3c-.063 0-.093 0-.105.015a.559.559 0 000 .14v.893c.574.023.658-.193.683-.464h.1a9.8 9.8 0 01-.017.513c.009.155.013.313.017.467h-.1c-.059-.4-.281-.415-.683-.415v.619a.658.658 0 00.075.381c.11.133.369.14.537.135.436-.007.721-.055.775-.5h.1l-.037.607h-2.279v-.087c.134 0 .305 0 .36-.128a1.956 1.956 0 00.042-.5z"/><path d="M34.183 25.088h-2.33v-.139h.027c.128 0 .288 0 .336-.113a1.945 1.945 0 00.04-.491v-1.041a1.95 1.95 0 00-.04-.491c-.048-.112-.207-.112-.336-.112h-.027v-.154h2.135v.621h-.145v-.021c-.077-.427-.287-.447-.716-.447h-.385c-.002 0 0 .032 0 .062v.932h.054c.5 0 .555-.2.577-.441v-.024h.147v.027c0 .159-.009.338-.017.513.008.156.013.32.017.466v.026h-.146v-.021c-.055-.367-.244-.393-.631-.394v.593a.649.649 0 00.069.364.592.592 0 00.458.127h.058c.419-.007.7-.044.75-.482v-.023h.147zm-2.278-.052h2.229l.034-.554h-.046c-.065.455-.386.5-.8.5h-.059a.632.632 0 01-.5-.146.672.672 0 01-.081-.4v-.645h.026c.392 0 .638.021.706.415h.047c0-.138-.008-.292-.016-.44.009-.166.012-.336.016-.488h-.046c-.027.25-.11.486-.708.464h-.025v-.98a.191.191 0 01.008-.091c.019-.029.052-.029.082-.029h.347c.427 0 .675.022.763.468h.048v-.516H31.9v.049c.134 0 .3.01.359.145a1.935 1.935 0 01.044.512v1.041a1.954 1.954 0 01-.043.512c-.058.135-.225.144-.359.145zm4.915-1.871h-.1c-.051-.163-.093-.321-.281-.392a1.753 1.753 0 00-.62-.068.817.817 0 00-.3.019c-.025.015-.033.083-.033.193v.845c.574.022.658-.184.683-.456h.1c0 .17-.008.343-.017.512.008.155.012.313.017.468h-.1c-.059-.4-.281-.4-.683-.4v.475a1.971 1.971 0 00.041.5c.063.151.269.12.415.128v.087c-.214 0-.431-.012-.646-.016s-.423.011-.646.016v-.094c.135 0 .307 0 .361-.128a1.97 1.97 0 00.042-.5V23.29a1.96 1.96 0 00-.042-.5c-.054-.129-.226-.129-.361-.129v-.086c.256 0 .5.011.751.015.448 0 .9-.012 1.345-.015z"/><path d="M35.974 25.096h-.027l-.323-.008-.322-.008-.309.008-.336.008h-.027v-.139h.026c.129 0 .289 0 .336-.112a1.944 1.944 0 00.04-.492v-1.064a1.935 1.935 0 00-.04-.491c-.047-.112-.207-.112-.336-.112h-.026v-.14h.027l.378.008c.125 0 .249.006.372.007.229 0 .46 0 .69-.007l.654-.008h.024l.073.644h-.145l-.011-.037c-.049-.157-.091-.293-.26-.357a1.538 1.538 0 00-.551-.066h-.211a.3.3 0 00-.134.018s-.02.026-.02.169v.819c.546.017.607-.187.63-.433v-.024h.146v.059c0 .159-.008.322-.016.481.008.143.012.292.016.435v.058h-.146v-.022c-.053-.358-.233-.381-.63-.381v.449a1.981 1.981 0 00.04.488c.045.108.18.109.31.11h.107zm-1.291-.087v.033l.309-.007c.1 0 .206-.006.31-.007s.216 0 .324.007l.3.007v-.034h-.054c-.133 0-.3 0-.358-.143a1.93 1.93 0 01-.044-.508v-.5h.027c.382 0 .636 0 .705.4h.047c0-.143-.009-.293-.016-.436.008-.162.012-.325.016-.483v-.005h-.046c-.026.247-.113.481-.708.456h-.025v-.869c0-.136.013-.2.047-.215a.334.334 0 01.16-.023h.211a1.59 1.59 0 01.57.07.507.507 0 01.29.389h.048l-.061-.539-.63.007-.692.008-.373-.008-.351-.008v.034c.133 0 .3.01.358.145a1.912 1.912 0 01.044.511v1.064a1.912 1.912 0 01-.044.512c-.063.133-.231.142-.364.142zm5.512-.623l.218-.327c.125-.211.281-.494.586-.494a.282.282 0 01.3.251.218.218 0 01-.218.208.174.174 0 01-.189-.181c0-.035.017-.113-.042-.113-.117 0-.272.264-.314.34l-.222.342-.038.053c.159.143.448.434.683.434a.48.48 0 00.343-.184l.071.06a.8.8 0 01-.633.325 1.091 1.091 0 01-.729-.354 1.207 1.207 0 01-.868.365c-.293 0-.608-.173-.608-.461 0-.384.361-.6.691-.776a1.194 1.194 0 01-.293-.724.627.627 0 01.649-.622.509.509 0 01.57.494c0 .306-.3.562-.562.725zm-.91-.433c-.188.154-.369.267-.369.524a.457.457 0 00.47.46.839.839 0 00.549-.264l-.021-.019zm.6-.9c0-.191-.088-.425-.348-.425a.331.331 0 00-.352.354 1.2 1.2 0 00.339.682.714.714 0 00.365-.613z"/><path d="M39.148 25.137c-.3 0-.634-.186-.634-.487 0-.385.345-.609.678-.785a1.186 1.186 0 01-.279-.715.656.656 0 01.675-.649.532.532 0 01.6.52c0 .33-.331.593-.547.73l.555.594.213-.324c.127-.215.286-.481.595-.481a.306.306 0 01.328.278.246.246 0 01-.243.235.2.2 0 01-.215-.208.184.184 0 010-.021c0-.019 0-.052-.006-.062a.016.016 0 00-.011 0c-.081 0-.208.176-.292.326l-.248.379.038.033c.164.151.411.378.611.378a.456.456 0 00.325-.177l.017-.017.11.093-.017.021a.837.837 0 01-.653.333 1.081 1.081 0 01-.728-.346 1.225 1.225 0 01-.872.352zm.439-2.584a.6.6 0 00-.623.6 1.151 1.151 0 00.287.708l.019.025-.028.014c-.328.172-.677.386-.677.753 0 .268.3.435.581.435a1.177 1.177 0 00.848-.358l.017-.017.019.016a1.068 1.068 0 00.711.348.764.764 0 00.6-.3l-.032-.028a.481.481 0 01-.345.175c-.221 0-.477-.236-.646-.391l-.054-.048-.017-.017.051-.071.221-.342c.058-.1.209-.352.336-.352a.064.064 0 01.049.02.131.131 0 01.019.1v.019a.147.147 0 00.163.155.191.191 0 00.191-.182.256.256 0 00-.275-.226c-.279 0-.429.253-.549.456l-.015.025-.236.356-.645-.689.028-.016c.2-.126.549-.384.549-.7a.483.483 0 00-.547-.468zm-.2 2.41a.481.481 0 01-.5-.486.623.623 0 01.318-.5l.061-.048.019-.017.016.019.669.738-.02.02a.885.885 0 01-.563.275zm-.1-.974l-.042.034c-.16.128-.3.238-.3.455a.429.429 0 00.443.434.808.808 0 00.511-.238zm.24-.288l-.014-.018a1.2 1.2 0 01-.346-.7.357.357 0 01.378-.381c.276 0 .374.243.374.452a.743.743 0 01-.373.635zm.018-1.045a.307.307 0 00-.326.328 1.128 1.128 0 00.319.648.686.686 0 00.329-.577c-.004-.184-.088-.399-.325-.399zm3.609 1.173a1.438 1.438 0 011.538-1.3 1.31 1.31 0 11-1.538 1.3zm.524 0c0 .592.26 1.18 1.022 1.18.746 0 .972-.63.972-1.193s-.26-1.187-1-1.187-.994.641-.994 1.2z"/><path d="M44.675 25.137a1.428 1.428 0 01-1.548-1.308 1.463 1.463 0 011.564-1.328 1.334 1.334 0 11-.017 2.636zm.017-2.584a1.41 1.41 0 00-1.512 1.276 1.517 1.517 0 101.512-1.276zm.008 2.483c-.657 0-1.049-.451-1.049-1.207 0-.61.317-1.226 1.024-1.226.495 0 1.023.319 1.023 1.214 0 .286-.072 1.219-.998 1.219zm-.025-2.38c-.448 0-.971.307-.971 1.173 0 1.042.7 1.154 1 1.154.877 0 .946-.892.946-1.166-.006-.562-.26-1.161-.975-1.161zm3.217 1.92c0 .358.013.377.415.407v.087c-.209 0-.419-.012-.629-.016s-.427.011-.641.016v-.088c.407-.03.423-.052.423-.407v-.468l-.385-.6a5.4 5.4 0 00-.511-.781c-.071-.071-.142-.053-.243-.068v-.086c.188 0 .381.011.569.015s.394-.012.591-.015v.086c-.092 0-.314-.008-.314.122a.531.531 0 00.109.263l.544.909.269-.385a3.138 3.138 0 00.415-.752c0-.143-.188-.146-.3-.158v-.086c.151 0 .3.011.448.015s.272-.012.41-.015v.086c-.243.019-.331.166-.444.336l-.725 1.079z"/><path d="M48.333 25.096h-.027l-.314-.008-.314-.008-.319.008-.322.008h-.026v-.138h.024c.4-.03.4-.043.4-.381v-.461l-.381-.593-.042-.072a4.632 4.632 0 00-.464-.7.2.2 0 00-.154-.054l-.075-.007h-.022v-.136h.026l.277.008c.1 0 .2.006.293.007s.2 0 .3-.007l.288-.008h.027v.14h-.06c-.11 0-.255.009-.255.095a.439.439 0 00.088.222l.017.029.524.874.26-.374a2.47 2.47 0 00.4-.714c0-.1-.112-.117-.248-.129l-.054-.006v-.137h.027l.218.008c.076 0 .153.006.229.007s.14 0 .209-.007l.2-.008h.027v.138h-.024c-.22.016-.3.143-.411.3l-.014.021-.721 1.071v.495c0 .345 0 .352.391.381h.024zm-1.27-.088v.035l.294-.007c.107 0 .214-.006.321-.007s.211 0 .316.007l.287.007v-.035c-.387-.031-.415-.066-.415-.432v-.517l.739-1.1a.563.563 0 01.426-.324v-.036l-.173.006-.211.008-.231-.008-.191-.006v.035h.006c.118.012.3.027.3.182a2.58 2.58 0 01-.4.743l-.014.022-.292.419-.582-.971a.479.479 0 01-.1-.249c0-.148.223-.148.307-.148h.007v-.033l-.261.006-.3.008-.294-.008-.249-.006v.037h.049a.25.25 0 01.187.068 4.558 4.558 0 01.474.716l.041.07.389.605v.476c-.006.368-.038.405-.43.437zm2.115-.7h.1a.782.782 0 00.792.7c.327 0 .6-.166.6-.472 0-.343-.331-.479-.637-.588-.382-.133-.788-.313-.788-.743s.373-.679.83-.679a1.164 1.164 0 01.632.193l.1-.147h.047l.021.653h-.1a.723.723 0 00-.7-.6.437.437 0 00-.49.4c0 .3.3.4.557.5.436.163.922.358.922.852s-.511.732-1 .732a1.241 1.241 0 01-.733-.227l-.1.159h-.046z"/><path d="M50.058 25.137a1.266 1.266 0 01-.725-.217l-.094.149h-.086v-.788h.143v.02a.762.762 0 00.767.681c.286 0 .573-.138.573-.445s-.293-.447-.62-.563c-.418-.145-.805-.339-.805-.768s.352-.705.856-.705a1.182 1.182 0 01.625.183l.09-.137h.086l.022.7h-.143l-.006-.018a.691.691 0 00-.674-.577c-.269 0-.464.156-.464.373 0 .271.262.369.515.464l.026.01c.4.147.938.348.938.876s-.529.762-1.024.762zm-.741-.289l.022.015a1.23 1.23 0 00.719.222c.47 0 .975-.221.975-.706 0-.453-.41-.643-.905-.826l-.025-.011c-.258-.1-.549-.206-.549-.513a.462.462 0 01.517-.426.733.733 0 01.719.6h.05l-.02-.6h-.006l-.1.157-.022-.014a1.139 1.139 0 00-.618-.188c-.4 0-.8.2-.8.653 0 .417.4.589.77.719.261.093.655.234.655.613 0 .3-.252.5-.625.5a.8.8 0 01-.813-.7h-.049v.683h.005zm4.759-1.687h-.113c-.025-.37-.184-.468-.578-.468-.155 0-.407-.019-.407.1v1.789c0 .28.059.385.466.4v.087c-.231 0-.466-.012-.7-.016s-.44.011-.666.016v-.087c.406-.016.465-.12.465-.4v-1.788c0-.112-.184-.1-.352-.1-.415 0-.615.019-.633.468h-.1v-.588h2.573z"/><path d="M52.055 25.096v-.138h.025c.4-.015.44-.115.44-.374v-1.788c0-.063-.093-.076-.242-.076h-.084c-.409 0-.591.018-.606.443v.025h-.147v-.641h2.623l.041.641h-.165v-.025c-.023-.339-.152-.443-.552-.443h-.123c-.12 0-.257.009-.257.076v1.788c0 .259.038.359.44.374h.025v.138h-.027l-.348-.008-.347-.008-.325.008-.341.008zm.692-.067c.116 0 .232 0 .349.007l.321.007v-.034c-.394-.02-.465-.131-.465-.426v-1.788c0-.129.2-.129.31-.129h.123c.417 0 .572.118.6.468h.06l-.034-.536H51.49v.536h.045c.025-.447.244-.468.658-.468h.084c.117 0 .294 0 .294.128v1.788c0 .295-.071.406-.466.426v.034l.314-.007c.114-.002.214-.005.328-.006zm2.115-1.725a1.965 1.965 0 00-.042-.5c-.054-.129-.227-.129-.36-.129v-.1h2.082v.57h-.1c-.079-.442-.3-.468-.742-.468h-.3c-.063 0-.092 0-.1.015a.543.543 0 000 .14v.893c.574.023.658-.193.683-.464h.1c0 .169-.009.343-.017.513.008.155.013.313.017.467h-.1c-.059-.4-.281-.415-.683-.415v.619a.656.656 0 00.075.381c.109.133.369.14.536.135.436-.007.72-.055.776-.5h.1l-.038.607h-2.28v-.087c.134 0 .306 0 .36-.128a1.967 1.967 0 00.042-.5z"/><path d="M56.764 25.088h-2.33v-.139h.026c.128 0 .288 0 .336-.113a1.94 1.94 0 00.04-.491v-1.041a1.945 1.945 0 00-.04-.491c-.048-.112-.208-.112-.336-.112h-.026v-.154h2.134v.621h-.144v-.021c-.077-.427-.287-.447-.716-.447h-.385v.994h.054c.5 0 .555-.2.577-.441v-.024h.147v.027c0 .159-.008.338-.016.513.008.156.013.32.016.466v.026h-.146v-.021c-.054-.367-.244-.393-.631-.394v.593a.647.647 0 00.069.364c.07.085.22.127.458.127h.058c.419-.007.7-.044.75-.482v-.023h.147zm-2.277-.052h2.229l.035-.554h-.046c-.066.455-.386.5-.8.5h-.059a.632.632 0 01-.5-.146.67.67 0 01-.081-.4v-.645h.026c.392 0 .639.021.705.415h.048c0-.138-.008-.292-.016-.44.008-.166.013-.336.016-.488h-.046c-.027.251-.113.486-.708.464h-.025v-.98a.2.2 0 01.008-.091.089.089 0 01.083-.029h.347c.427 0 .676.022.763.468h.048v-.516h-2.027v.049c.133 0 .3.01.358.145a1.9 1.9 0 01.044.512v1.041a1.9 1.9 0 01-.044.512c-.057.135-.225.144-.358.145zm5.131-.277a.565.565 0 00.411.224v.087c-.126 0-.252-.012-.377-.016-.1 0-.21.011-.314.016l-.2-.219-.695-.777c-.139-.143-.122-.166-.344-.166v.445a2.174 2.174 0 00.038.5c.05.132.222.128.356.128v.087c-.193 0-.39-.012-.591-.016s-.419.011-.629.016v-.086c.134 0 .31 0 .356-.128a2.167 2.167 0 00.038-.5V23.29a2.157 2.157 0 00-.038-.5c-.046-.132-.222-.129-.356-.129v-.086c.238 0 .482.011.72.015.177 0 .357-.012.532-.015.478 0 .959.1.959.622 0 .408-.344.614-.758.649zm-1.517-.953c.524 0 .905-.012.905-.558a.536.536 0 00-.587-.566 1.614 1.614 0 00-.272 0c-.055.022-.047.095-.047.135z"/><path d="M60.055 25.096h-.027l-.189-.008-.188-.008-.155.008-.158.008h-.012l-.205-.228-.7-.777a1.211 1.211 0 01-.052-.055c-.08-.086-.093-.1-.246-.1v.419a2.21 2.21 0 00.035.492c.039.1.17.112.311.112h.048v.139h-.027l-.283-.008-.308-.008-.313.008-.314.008h-.026v-.139h.026c.13 0 .292 0 .332-.111a2.2 2.2 0 00.036-.493v-1.064a2.184 2.184 0 00-.036-.491c-.036-.1-.167-.111-.31-.111h-.048v-.14h.026l.35.008c.124 0 .248.006.37.007.089 0 .181 0 .273-.007l.259-.008c.424 0 .986.067.986.648 0 .363-.278.615-.728.669l.851.878a.539.539 0 00.4.215h.023zm-1.98-1.214h.026c.2 0 .219.019.311.12l.052.054.885.988.145-.007c.052 0 .105-.006.158-.007s.127 0 .19.007l.162.007v-.037a.593.593 0 01-.4-.226l-.927-.957.055-.005c.46-.037.734-.271.734-.622 0-.406-.3-.6-.933-.6l-.258.007-.274.008-.371-.008-.323-.007v.034c.123 0 .3 0 .354.146a2.126 2.126 0 01.039.509v1.064a2.126 2.126 0 01-.039.51c-.048.137-.219.145-.354.146v.033l.288-.007c.1 0 .21-.006.314-.007s.208 0 .31.007l.256.007v-.033c-.121 0-.3 0-.355-.145a2.155 2.155 0 01-.039-.511zm.026-.05h-.026v-1.025c0-.045 0-.119.062-.146a.308.308 0 01.108-.01h.175a.559.559 0 01.613.592c-.001.589-.432.589-.932.589zm.144-1.128a.317.317 0 00-.088.006c-.029.012-.031.051-.029.1v.974c.545 0 .853-.034.853-.532a.511.511 0 00-.561-.54h-.057z"/></g><path fill="none" d="M0 0h70v25H0z"/></svg>