<svg xmlns="http://www.w3.org/2000/svg" width="69.817" height="69.817"><g transform="translate(-526.997 -448.756)"><circle cx="34.908" cy="34.908" r="34.908" transform="translate(526.997 448.756)" fill="#fff"/><circle cx="33.618" cy="33.618" r="33.618" transform="translate(528.287 450.047)" fill="#5b3117"/><path d="M586.061 489.244v-.005l-.008-.008zm-30.012-20.53l-.042-.11a.489.489 0 00.042.11m2.573 38.889v-.005l-.008-.007z" fill="#fff"/><path d="M594.14 483.688a32.267 32.267 0 11-32.266-32.267 32.268 32.268 0 0132.266 32.267m-32.235-21.879a21.856 21.856 0 1021.851 21.851 21.856 21.856 0 00-21.852-21.851z" fill="#e2740e"/><path d="M578.424 480.434a.962.962 0 11-.961.963.964.964 0 01.961-.963m.616.835a.561.561 0 00-.639-.521.672.672 0 00.039 1.342.569.569 0 00.611-.528h-.4a.211.211 0 01-.215.216c-.213 0-.25-.168-.25-.347 0-.247.087-.372.234-.372a.213.213 0 01.228.21zm-18.593.049l-2.1-4.8-2.524-5.766-.825.647-1.669 1.309-2.489 1.96 5.013 3.8 4.177 3.171c.461.346.648.2.416-.328zm-3.126-.806l-2.576-1.843-3.429-2.452-4.9 7.132c-.307.4-.207.672.2.658a.883.883 0 00.093-.01c.033 0 .068-.01.1-.016l11.363-2.859-.853-.611zm6.198.806l2.1-4.8 2.523-5.766.827.647 1.663 1.315 2.492 1.96-5.016 3.8-4.175 3.171c-.457.346-.646.2-.412-.328zm3.123-.806l2.575-1.843 3.433-2.452 4.9 7.132c.305.4.207.672-.2.658-.028 0-.058 0-.09-.01s-.068-.01-.1-.016l-11.362-2.859.852-.611zm-4.738 2.226c.172.015.348-.135.477-.455l5.468-13.569.046-.11a.584.584 0 00.018-.136.521.521 0 00-.5-.522h-10.927a.524.524 0 00-.5.522.536.536 0 00.022.136l.042.11 5.468 13.569c.131.32.3.47.474.455m19.094-12.283l-1.641-2.418 6.281-4.264.6.885 1.039 1.534zm4.164 1.3a2.839 2.839 0 002.121-.448 2.868 2.868 0 00.765-3.987.437.437 0 00-.03-.039l-.454-.67-1.767 1.2a.717.717 0 01.126.582.8.8 0 01-.336.455.683.683 0 01-1-.213l-1.862 1.265-.908 1.844 1.935 2.847zm-49.869 5.417a.789.789 0 00-.517.387l-3.116-.685a3.954 3.954 0 012.618-2.7l1.015 3m.958.714l3.121.686a3.954 3.954 0 00-1.134-3.45l-2.167 2.31a.788.788 0 01.18.453m-1.564.161l-3.128-.688a3.954 3.954 0 001.058 3.322l2.158-2.364a.74.74 0 01-.088-.27m.673.4c-.032.035-1.332 1.457-2.357 2.587a3.931 3.931 0 003.415.745l-1.057-3.333zm1.553 3.172a3.955 3.955 0 002.349-2.568l-3.13-.686a.784.784 0 01-.19.2zm20.327-24.849a.8.8 0 00-.563-.32l-.609-3.131a3.954 3.954 0 013.52 1.325l-2.348 2.125m-.271 1.169l.611 3.133a3.961 3.961 0 002.715-2.413l-2.985-1.071a.808.808 0 01-.34.351m-.771-1.376l-.614-3.142a3.942 3.942 0 00-2.625 2.294l3.028 1.036a.791.791 0 01.211-.188m-3.41-.357a3.915 3.915 0 00.673 3.431c1.148-1 2.6-2.266 2.634-2.3l-3.309-1.135zm1.017 3.823a3.951 3.951 0 003.288 1.132l-.613-3.141a.844.844 0 01-.263-.095zm24.928 2.099a.793.793 0 00-.141-.631l1.908-2.555a3.946 3.946 0 011.386 3.494l-3.153-.308m-1.046.581l-1.908 2.56a3.945 3.945 0 003.607.386l-1.207-2.925a.786.786 0 01-.491-.021m.5-1.492l1.918-2.566a3.962 3.962 0 00-3.466-.406l1.267 2.941a.714.714 0 01.281.031m-.643.445c-.019-.036-.783-1.809-1.385-3.21a3.959 3.959 0 00-2.087 2.8c1.516.181 3.431.403 3.474.409zm-3.531.111a3.954 3.954 0 001.372 3.2l1.916-2.567a.862.862 0 01-.11-.256zm-39.356 7.085l1.051-1.534 6.285 4.3-1.655 2.422-6.284-4.3zm2.636-3.851l-.606.886 2.3 1.574-.666.972 1.678 1.15.669-.975 2.3 1.581 1.656-2.423-6.283-4.3zm27.763-6.043l1.379-.63-.532 2.7a3.95 3.95 0 011.523-7.737l-.428 2.179-.507.9-1.787-.342 1.23 1.34zm2.855-5.574l-.425 2.179.124 1.024 1.784.362-1.647.772.208 1.807-1.038-1.105-.529 2.7a3.949 3.949 0 001.522-7.734m-21.378 10.63l.52-1.424 1.542 2.275a3.951 3.951 0 01-4.43-6.525l1.247 1.837.283.995-1.5 1.03 1.82.064zm-1.96-5.953l1.249 1.838.82.629 1.511-1.014-.609 1.713 1.433 1.122-1.514-.037 1.546 2.273a3.951 3.951 0 00-4.434-6.524m41.306 19.191l1.113 1.025-2.693.549a3.951 3.951 0 017.729-1.571l-2.181.444-1.022-.121-.372-1.783-.765 1.653zm6.246.486l-2.176.444-.9.514.352 1.785-1.347-1.223-1.586.888.62-1.382-2.694.547a3.951 3.951 0 007.729-1.572m-14.493 23.09l-.546.466-1.925 1.641 1.1 1.288 1.929-1.647c1.092 1.273 2.609 3.038 2.643 3.076l-1.169 1 1.1 1.287 1.447-1.234a1.59 1.59 0 00.573-1.118 1.616 1.616 0 00-.389-1.2l-3.76-4.409-.4.34zm8.293-.745l-1.637-1.252.607-.8-1.281-.977-.3.395-.305.4-.439.574-1.285 1.682 1.279.979s.436-.57.568-.745l1.638 1.252-.737.963 1.279.98 1.453-1.9.441-.574.79-1.033-1.28-.978s-.244.316-.789 1.032m-4.534-3.642l-.672.88.257 1.436.6-.782zm-36.497 3.61l-.326-.411-.923-1.161s-.581.464-.749.6c-.277-.347-.3-.378-.337-.421l.751-.6-1.25-1.571s-.583.462-.749.6l-.463-.579-1.323 1.053.462.578-1 .794 1.249 1.571s.713-.567 1-.791c.035.044.061.074.336.422l-2.423 1.927-.9-1.13-1.323 1.053 1.123 1.414a1.637 1.637 0 002.309.266l2.461-1.958.461.577 1.322-1.054-.458-.576.75-.6m2.751 4.246l-2.251 3.117c-.07-.053-2.328-1.681-2.328-1.681l-1.175 1.626 2.369 1.711a1.637 1.637 0 002.3-.373l2.459-3.41-.423-.306zm.753-1.415l-.3-.218-1.851-1.336-.99 1.372 2.153 1.554zm7.851 5.34l-.575 5.822 2 .2.576-5.823-.522-.052zm4.294 4.616l-.211-.032h-.033c.008-.093.565-5.718.565-5.718l-.521-.053-1.475-.146-.57 5.768a1.637 1.637 0 001.475 1.8l.6.06 1.066.106.342.033.167-1.685-1.407-.138zm-6.733-7.144l-.5-.2-2.522-1.023-.636 1.569 2.522 1.022-.76 1.873-.024-.918-1.83-.741.139 4.984 1.829.74-.057-2.006a2.452 2.452 0 00.729.045 1.6 1.6 0 00.885-.9l1.58-3.892-.486-.2zm18.253-1.049l-1.807.841.288.93-1 .464.713 1.534.788-.367 1.421 4.612 1.805-.842-1.422-4.61c.26-.12.461-.214.549-.253a.048.048 0 01.022-.011l.011-.007 2.023 4.345 1.82-.846-2.737-5.88-2.191 1.02zm-5.557 1.965l-.641.1-1.722.273a.807.807 0 00-.744.834v.727c0 .6.01 1.429.014 1.974v.568l2.057-.327s-.011-1.721-.016-2.258l.554-.089c0 .253 0 .709.006 1.258-.007 1.2-.021 2.811-.017 2.845l-1.053.165.263 1.67.837-.132.33-.052.549-.087a1.6 1.6 0 001.073-.655 1.672 1.672 0 00.088-.57c.073-1.167.019-3.8-.021-5.328l-.005-1.163-.691.11zm-30.122-16.719c2.16-.222 1.778-1.555.771-1.553 0-1.009-1.332-1.389-1.556.769-.223-2.163-1.555-1.78-1.553-.771-.935 0-1.331 1.143.34 1.487a1.649 1.649 0 01-1-.147 1.856 1.856 0 01-.853-1.347l-.279.06a2.116 2.116 0 001 1.539 1.75 1.75 0 00.6.185c-1.044.449-.637 1.332.181 1.33 0 1.007 1.331 1.391 1.557-.768.222 2.163 1.554 1.779 1.553.771 1.014 0 1.4-1.328-.761-1.555zm-.686.1a.138.138 0 01-.2 0 .141.141 0 010-.2.141.141 0 01.2.2zm55.64-1.613l-.278-.059a1.865 1.865 0 01-.854 1.346 1.62 1.62 0 01-.968.151c1.639-.351 1.241-1.481.314-1.481 0-1.008-1.331-1.391-1.555.771-.227-2.158-1.556-1.779-1.555-.769-1.007 0-1.393 1.331.77 1.553-2.159.228-1.776 1.555-.768 1.555 0 1.007 1.332 1.391 1.554-.771.226 2.159 1.557 1.775 1.557.768.822 0 1.228-.891.158-1.338a1.761 1.761 0 00.625-.187 2.117 2.117 0 001-1.539zm-3.241 1.61a.141.141 0 01-.2-.2.141.141 0 01.2 0 .139.139 0 010 .2z" fill="#fff"/><path d="M561.904 463.099a20.566 20.566 0 1020.566 20.565 20.566 20.566 0 00-20.566-20.565zm0 39.993a19.413 19.413 0 01-16.6-9.332h33.194a19.414 19.414 0 01-16.594 9.332zm16.769-9.614h-33.536a19.316 19.316 0 01-1.253-2.549h36.042a19.323 19.323 0 01-1.253 2.549zm-34.9-2.83a19.428 19.428 0 1136.264 0z" fill="#fff"/><path d="M555.445 495.343a.249.249 0 000 .051c0 .017.014.035.042.056a.591.591 0 00.108.058.92.92 0 00.152.046.8.8 0 00.174.019.541.541 0 00.248-.044.136.136 0 00.079-.126c0-.03-.023-.051-.069-.064a1.208 1.208 0 00-.172-.03l-.223-.023a1.18 1.18 0 01-.223-.05.429.429 0 01-.171-.105.247.247 0 01-.07-.187.379.379 0 01.039-.171.385.385 0 01.111-.131.53.53 0 01.173-.086.753.753 0 01.224-.031 1.351 1.351 0 01.215.016 1.674 1.674 0 01.175.036c.052.013.095.024.129.035a.274.274 0 00.076.017.057.057 0 00.035-.011l.026-.027.024.01-.155.346-.028-.016v-.027c0-.015-.015-.03-.044-.046a.485.485 0 00-.111-.043 1.158 1.158 0 00-.151-.031 1.256 1.256 0 00-.164-.013.409.409 0 00-.205.037.1.1 0 00-.058.08.07.07 0 00.042.064.335.335 0 00.105.03c.044.007.094.013.148.017s.114.01.172.018a1.438 1.438 0 01.171.035.475.475 0 01.149.066.328.328 0 01.105.114.336.336 0 01.043.178.429.429 0 01-.032.162.355.355 0 01-.1.143.534.534 0 01-.2.1 1.041 1.041 0 01-.305.037 2.028 2.028 0 01-.246-.014 1.3 1.3 0 01-.174-.037 2.143 2.143 0 01-.114-.038.174.174 0 00-.062-.017.029.029 0 00-.022.01l-.023.022-.027-.007.167-.441zm1.455.477c.028 0 .046-.008.052-.017a.038.038 0 00.011-.028v-1.157a.042.042 0 00-.011-.028.109.109 0 00-.052-.017v-.03h.464v.029c-.028.005-.047.01-.052.017a.038.038 0 00-.011.028v1.157a.035.035 0 00.011.028c.005.009.024.014.052.017v.03h-.464zm.927-1.229c-.006-.008-.023-.012-.052-.017v-.031h.544v.029a.122.122 0 00-.051.012.027.027 0 00-.014.021.335.335 0 00.031.045c.019.027.045.06.077.1l.107.133.12.146c.04.049.08.1.118.139s.069.081.1.113v-.664c0-.028-.016-.043-.047-.045v-.029h.413v.029c-.028.005-.046.009-.053.017a.042.042 0 00-.01.028v1.157a.038.038 0 00.01.028.09.09 0 00.053.017v.03h-.429v-.03a.077.077 0 00.042-.007.029.029 0 00.011-.02.034.034 0 00-.008-.018.45.45 0 00-.03-.038l-.066-.079-.116-.136-.179-.214a24.115 24.115 0 01-.255-.312v.78a.043.043 0 00.01.028.09.09 0 00.053.017v.03h-.428v-.03c.029 0 .046-.008.052-.017a.038.038 0 00.011-.028v-1.157a.042.042 0 00-.011-.028m2.804.42v-.037c0-.013-.011-.027-.031-.039a.345.345 0 00-.081-.036.772.772 0 00-.117-.027.718.718 0 00-.137-.012.659.659 0 00-.141.017.437.437 0 00-.137.057.323.323 0 00-.1.105.346.346 0 000 .32.336.336 0 00.1.106.408.408 0 00.137.055.549.549 0 00.141.018.59.59 0 00.093-.011.9.9 0 00.125-.032.652.652 0 00.113-.045c.033-.016.048-.033.048-.052a.037.037 0 000-.019l-.009-.017.023-.018.233.39-.027.017a.025.025 0 00-.013-.016.036.036 0 00-.019 0 .206.206 0 00-.063.021 1.315 1.315 0 01-.123.045 1.564 1.564 0 01-.177.043 1.25 1.25 0 01-.228.018.938.938 0 01-.27-.038.691.691 0 01-.238-.121.609.609 0 01-.237-.5.632.632 0 01.065-.291.657.657 0 01.172-.208.762.762 0 01.238-.126.905.905 0 01.27-.042 1.476 1.476 0 01.233.016 1.324 1.324 0 01.166.036c.042.013.078.024.1.033a.171.171 0 00.054.014.038.038 0 00.034-.02l.026.007-.2.41zm1.46.364a.1.1 0 00-.02-.04.062.062 0 00-.048-.017h-.42v.231h.724a.032.032 0 00.028-.013.14.14 0 00.013-.062h.028v.424h-.028c0-.021-.006-.035-.013-.039a.041.041 0 00-.028-.007h-1.125v-.03a.087.087 0 00.053-.017.038.038 0 00.01-.028v-1.157a.042.042 0 00-.01-.028.115.115 0 00-.053-.017v-.029h1.125a.033.033 0 00.028-.014.123.123 0 00.013-.056h.028v.432h-.028a.126.126 0 00-.013-.055.03.03 0 00-.028-.014h-.724v.206h.42a.062.062 0 00.048-.016.1.1 0 00.02-.042h.028v.387zm1.512-.676h.026a.207.207 0 000 .037c0 .015.01.023.021.023a.1.1 0 00.024-.01.702.702 0 00.045-.018l.048-.02.029-.013v-.08c0-.018 0-.03-.015-.034l-.03-.011v-.029h.442v.029a.183.183 0 00-.041.011c-.012 0-.017.016-.017.034v1.157c0 .019.005.03.017.034a.1.1 0 00.037.011v.03h-.449v-.03a.112.112 0 00.039-.011c.011 0 .016-.015.016-.034v-.789l-.09.026a.165.165 0 00-.052.021.047.047 0 00-.022.026.1.1 0 00-.006.039h-.026zm1.195.779v.022a.072.072 0 00.025.055.19.19 0 00.065.039.452.452 0 00.094.021.732.732 0 00.108.007.464.464 0 00.139-.02.363.363 0 00.119-.065.371.371 0 00.088-.109.406.406 0 00.042-.154 1.3 1.3 0 01-.214.1.672.672 0 01-.211.033.484.484 0 01-.167-.031.418.418 0 01-.237-.224.456.456 0 01-.035-.183.389.389 0 01.05-.2.432.432 0 01.129-.135.541.541 0 01.173-.076.772.772 0 01.186-.023.792.792 0 01.259.039.5.5 0 01.2.12.545.545 0 01.129.2.822.822 0 01.045.285.732.732 0 01-.056.293.638.638 0 01-.151.216.625.625 0 01-.219.13.778.778 0 01-.264.044 1.489 1.489 0 01-.162-.01 1 1 0 01-.128-.026c-.036-.012-.065-.021-.085-.03a.2.2 0 00-.039-.012.07.07 0 00-.051.027l-.028-.012.179-.332zm.281-.684a.3.3 0 00-.08.029.174.174 0 00-.066.055.164.164 0 000 .182.2.2 0 00.066.055.3.3 0 00.08.029.35.35 0 00.075.008.326.326 0 00.073-.008.32.32 0 00.083-.029.228.228 0 00.065-.055.163.163 0 000-.182.2.2 0 00-.065-.055.32.32 0 00-.083-.029.327.327 0 00-.073-.009.35.35 0 00-.075.009m1.827-.25a.664.664 0 01.177.054.39.39 0 01.141.111.277.277 0 01.061.187.258.258 0 01-.053.164.389.389 0 01-.129.1.446.446 0 01.168.109.273.273 0 01.067.2.32.32 0 01-.059.2.433.433 0 01-.149.12.641.641 0 01-.193.057 1.527 1.527 0 01-.187.013 1.545 1.545 0 01-.189-.013.646.646 0 01-.192-.057.433.433 0 01-.149-.12.36.36 0 01-.043-.307.334.334 0 01.046-.086.452.452 0 01.067-.069.619.619 0 01.082-.051.361.361 0 01-.107-.1.252.252 0 01-.05-.163.288.288 0 01.059-.187.4.4 0 01.144-.111.63.63 0 01.177-.054.965.965 0 01.313 0m-.236.763a.42.42 0 00-.087.023.181.181 0 00-.069.05.118.118 0 00-.028.082.119.119 0 00.028.082.192.192 0 00.069.05.365.365 0 00.087.023.793.793 0 00.08.005c.022 0 .048 0 .079-.005a.333.333 0 00.086-.023.178.178 0 00.07-.05.12.12 0 00.029-.082.118.118 0 00-.029-.082.169.169 0 00-.07-.05.38.38 0 00-.086-.023.493.493 0 00-.158 0m.147-.266a.242.242 0 00.068-.021.132.132 0 00.052-.041.1.1 0 00.022-.067.1.1 0 00-.022-.068.142.142 0 00-.052-.042.279.279 0 00-.068-.021.527.527 0 00-.067-.006.566.566 0 00-.067.006.255.255 0 00-.068.021.16.16 0 00-.054.042.1.1 0 00-.021.068.1.1 0 00.021.067.147.147 0 00.054.041.224.224 0 00.068.021.408.408 0 00.067.006.387.387 0 00.067-.006m.803-.187c-.008.006-.013.022-.013.046h-.028v-.413h.028c0 .028 0 .044.013.051a.045.045 0 00.028.012h1.013a.045.045 0 00.028-.012c.01-.007.013-.022.013-.046h.028v.318l-.435.871-.03.057a.132.132 0 00-.016.041c0 .019.006.03.016.034a.119.119 0 00.039.011v.03h-.5v-.03a.057.057 0 00.041-.019.175.175 0 00.031-.043l.5-.921h-.727a.045.045 0 00-.028.012m-13.659-5.73a.319.319 0 00-.235.1.332.332 0 00-.1.238.308.308 0 00.1.234.337.337 0 00.466 0 .31.31 0 00.1-.234.329.329 0 00-.1-.238.316.316 0 00-.234-.1m-2.657-.616a.844.844 0 00-.252-.111 2.272 2.272 0 00-.281-.057c-.095-.014-.188-.023-.279-.03s-.167-.015-.236-.027a.51.51 0 01-.156-.045.06.06 0 01-.038-.055c0-.024.024-.054.07-.083a.6.6 0 01.306-.052 1.637 1.637 0 01.255.019 1.965 1.965 0 01.237.049.82.82 0 01.17.064.159.159 0 01.045.031v.072l.112.061.295-.652-.12-.048-.021.028a.2.2 0 01-.032.034.048.048 0 01-.03.007.425.425 0 01-.107-.023 3.634 3.634 0 00-.494-.118 2.273 2.273 0 00-.351-.027 1.3 1.3 0 00-.376.052.89.89 0 00-.291.146.686.686 0 00-.193.227.664.664 0 00-.069.3.456.456 0 00.127.338.748.748 0 00.295.179 1.707 1.707 0 00.368.082l.359.04a1.832 1.832 0 01.27.046c.028.007.074.026.074.052a.168.168 0 01-.1.155.826.826 0 01-.378.065 1.337 1.337 0 01-.269-.029 1.379 1.379 0 01-.238-.072.683.683 0 01-.164-.088c-.041-.031-.047-.047-.047-.047a.205.205 0 01.005-.067l.013-.043-.118-.065-.307.816.121.034.019-.02.032-.034h.008a.257.257 0 01.083.024c.046.019.11.04.187.064a2.177 2.177 0 00.287.059 2.718 2.718 0 00.4.024 1.748 1.748 0 00.5-.062.9.9 0 00.332-.17.634.634 0 00.181-.25.777.777 0 00.053-.28.609.609 0 00-.073-.312.59.59 0 00-.185-.2m1.812 1.099v-1.449h.583a.2.2 0 01.013.066v.045h.133v-.814h-.133v.046a.2.2 0 01-.013.066h-1.8a.168.168 0 01-.013-.066l-.006-.046h-.132v.814h.132l.006-.046a.234.234 0 01.012-.065h.582v1.447a.205.205 0 01-.06.014h-.043v.146h.841v-.143h-.043a.294.294 0 01-.057-.012m3.072-1.893h.046c.042 0 .042.014.042.018a.414.414 0 01-.028.081 15.373 15.373 0 01-.203.463 8.701 8.701 0 00-.085.194l-.064-.157-.08-.2a15.206 15.206 0 01-.131-.335c-.013-.04-.015-.04-.018-.05s.01-.014.042-.015h.045v-.149h-1.04v.146l.042.005a.2.2 0 01.058.012v1.874a.2.2 0 01-.058.014h-.043v.146h.732v-.146h-.042a.421.421 0 01-.057-.012v-1.277l.6 1.466.606-1.454v1.265a.19.19 0 01-.058.014h-.042v.146h.818v-.146h-.041a.421.421 0 01-.057-.012v-1.879a.166.166 0 01.059-.013l.041-.005v-.146H556.2zm3.583 1.894a.31.31 0 01-.04-.082c-.039-.1-.082-.215-.129-.341s-.1-.26-.147-.394-.1-.266-.147-.395l-.126-.347c-.038-.102-.065-.185-.088-.249l-.029-.082h.021l.042-.005v-.145h-1.04v.145l.04.005.026.005-.018.05-.07.207c-.028.085-.062.181-.1.288s-.077.218-.115.332-.078.223-.116.332-.073.208-.1.3-.057.163-.077.222l-.036.105a.119.119 0 01-.024.047.074.074 0 01-.034.014l-.039.007v.143h.735v-.151h-.061c0-.012.008-.031.018-.06l.033-.1.047-.14h.791l.015.043.042.118.04.112.01.029h-.064v.148h.808v-.151h-.047c-.012 0-.016 0-.018-.006m-.915-.719h-.541l.256-.756zm3.23.672l-.389-.6a.864.864 0 00.328-.214.661.661 0 00.161-.468.689.689 0 00-.2-.54.892.892 0 00-.613-.173h-1.373v.146l.041.005a.324.324 0 01.057.011v1.876a.178.178 0 01-.059.014h-.041v.146h.84v-.146h-.043a.359.359 0 01-.056-.012v-.628h.283l.035.054c.023.037.053.08.086.129l.1.149c.035.051.066.1.1.145s.052.083.071.114l.02.036c0 .005-.01.011-.034.013h-.045v.148h.848v-.151h-.047c-.016 0-.039-.005-.067-.05m-1.348-1.45h.563c.116 0 .166.027.186.05a.174.174 0 010 .235c-.02.022-.07.05-.186.05h-.563zm3.425.791l.019.043a.2.2 0 00.016.031s-.006.015-.051.038a1.1 1.1 0 01-.172.069 1.623 1.623 0 01-.2.049 1.067 1.067 0 01-.14.017 1 1 0 01-.219-.027.669.669 0 01-.206-.087.45.45 0 01-.147-.153.433.433 0 01-.056-.228.438.438 0 01.056-.23.47.47 0 01.147-.153.645.645 0 01.206-.085 1.046 1.046 0 01.432-.011 1.506 1.506 0 01.181.043.542.542 0 01.12.053.272.272 0 01.026.02v.043l-.012.036.109.083.38-.766-.129-.038-.018.029c-.007.011-.013.011-.017.011a.22.22 0 01-.072-.019c-.039-.015-.1-.033-.166-.054a2.255 2.255 0 00-.654-.086 1.464 1.464 0 00-.445.07 1.249 1.249 0 00-.4.21 1.077 1.077 0 000 1.69 1.161 1.161 0 00.4.2 1.587 1.587 0 00.444.064 2.1 2.1 0 00.374-.03 2.524 2.524 0 00.289-.069 2.127 2.127 0 00.2-.074.281.281 0 01.083-.03h.008l.019.054.133-.085-.425-.715zm3.026 0l.019.043a.132.132 0 00.017.031s-.006.015-.051.038a1.07 1.07 0 01-.173.069 1.555 1.555 0 01-.2.049 1.039 1.039 0 01-.141.017 1.013 1.013 0 01-.219-.027.662.662 0 01-.205-.087.44.44 0 01-.147-.153.432.432 0 01-.055-.228.437.437 0 01.055-.23.459.459 0 01.147-.153.659.659 0 01.205-.085 1.051 1.051 0 01.433-.011 1.458 1.458 0 01.181.043.6.6 0 01.12.053c.019.013.024.021.026.02v.043l-.011.036.107.083.38-.766-.129-.037-.018.028c-.007.011-.013.011-.017.011a.214.214 0 01-.072-.019q-.059-.022-.166-.054a2.271 2.271 0 00-.654-.086 1.464 1.464 0 00-.445.07 1.25 1.25 0 00-.4.21 1.077 1.077 0 000 1.69 1.167 1.167 0 00.4.2 1.573 1.573 0 00.442.064 2.078 2.078 0 00.373-.03 2.491 2.491 0 00.29-.069 1.846 1.846 0 00.2-.074.3.3 0 01.084-.03h.007l.02.054.133-.085-.425-.715zm2.951.698a.457.457 0 01-.039-.082c-.039-.1-.082-.215-.129-.341s-.1-.26-.147-.394-.1-.266-.147-.395l-.126-.347-.088-.249-.029-.082h.021l.042-.005v-.145h-1.04v.145l.04.005.024.005c0 .012-.009.028-.016.05l-.071.207-.1.288-.115.332-.116.332c-.039.109-.073.208-.1.3s-.057.163-.077.222l-.036.105a.117.117 0 01-.024.047.074.074 0 01-.034.014l-.039.007v.143h.735v-.151h-.061l.017-.055.035-.107.046-.14h.791l.015.043.042.117.039.113.011.029h-.064v.148h.807v-.151h-.046a.023.023 0 01-.019-.006m-.914-.719h-.537l.257-.756zm3.066-1.393a.253.253 0 01-.013.066h-1.91v.146l.042.005a.179.179 0 01.057.012v1.874a.177.177 0 01-.057.014h-.044v.146h.856v-.142h-.043a.316.316 0 01-.056-.012v-.625h.764a.22.22 0 01.013.063l.005.046h.132v-.772h-.131l-.005.044a.182.182 0 01-.011.046h-.767v-.251h1.156a.132.132 0 01.013.05l.005.045h.131v-.8h-.132zm2.171.64h.006a.2.2 0 01.013.065v.046h.133v-.8h-.133v.046a.2.2 0 01-.013.066h-1.862v.146l.041.005a.326.326 0 01.057.011v1.876a.179.179 0 01-.059.014h-.041v.146h1.868a.133.133 0 01.006.032l.006.044h.131v-.786h-.133v.047a.239.239 0 01-.013.072h-1.123v-.268h.628c.033 0 .043.008.045.011a.065.065 0 01.018.039l.007.042h.13v-.725h-.13l-.007.041a.078.078 0 01-.017.04.072.072 0 01-.046.01h-.628v-.228zm-.128-1.3h-.708l-.412.572h.484zm-28.167 5.004c.112 0 .179.05.186.139h.287c0-.249-.234-.331-.473-.331-.307 0-.473.182-.473.513s.166.515.473.515c.239 0 .477-.087.473-.336h-.287c-.005.095-.071.145-.186.145-.154 0-.186-.169-.186-.313s.029-.332.186-.332m1.333.219h-.334v-.389h-.275v.986h.273v-.4h.336v.4h.274v-.986h-.274zm1.036-.411a.514.514 0 10.512.514.466.466 0 00-.512-.514m0 .836c-.186 0-.224-.172-.224-.318s.038-.328.224-.328.224.172.224.328-.038.318-.224.318m1.203-.644c.112 0 .179.05.185.139h.287c0-.249-.234-.331-.472-.331-.307 0-.473.182-.473.513s.166.515.473.515c.238 0 .477-.087.472-.336h-.29c-.005.095-.071.145-.185.145-.155 0-.186-.169-.186-.313s.029-.332.186-.332m1.206-.192a.514.514 0 10.511.514.466.466 0 00-.511-.514m0 .836c-.186 0-.224-.172-.224-.318s.038-.328.224-.328.223.172.223.328-.038.318-.223.318m1.202-.644c.112 0 .179.05.186.139h.286c.005-.249-.233-.331-.472-.331-.307 0-.472.182-.472.513s.165.515.472.515c.239 0 .478-.087.472-.336h-.286c-.005.095-.071.145-.186.145-.154 0-.185-.169-.185-.313s.028-.332.185-.332m1.31.33c.137-.017.251-.095.251-.241 0-.211-.216-.255-.383-.255h-.456v.987h.273v-.377h.1c.138 0 .144.048.155.167a1.718 1.718 0 00.03.21h.3a1.157 1.157 0 01-.045-.239c-.018-.153-.051-.241-.226-.247m-.207-.083h-.109v-.228h.107c.087 0 .171.014.171.114s-.084.114-.171.114m1.192-.444a.514.514 0 10.511.514.466.466 0 00-.511-.514m0 .836c-.186 0-.224-.172-.224-.318s.038-.328.224-.328.224.172.224.328-.038.318-.224.318m.673.372h.263l.2-.445h-.35zm1.764-.71a.232.232 0 00.213-.216c0-.173-.155-.256-.34-.259h-.473v.987h.463c.011 0 .377.019.377-.268a.246.246 0 00-.238-.241m-.328-.287h.149a.1.1 0 01.113.1c0 .076-.049.1-.122.1h-.139zm.159.605h-.165v-.213h.179a.107.107 0 11-.019.213m1.242-.297c.138-.017.251-.095.251-.241 0-.211-.216-.255-.382-.255h-.456v.987h.273v-.377h.1c.139 0 .145.048.155.167a1.719 1.719 0 00.031.21h.3a1.153 1.153 0 01-.045-.239c-.018-.153-.051-.241-.226-.247m-.207-.083h-.106v-.228h.106c.087 0 .172.014.172.114s-.085.114-.172.114m.712.563h.752v-.192h-.478v-.209h.44v-.191h-.44v-.2h.478v-.193h-.752zm1.323-.985l-.39.987h.273l.064-.193h.4l.066.193h.308l-.389-.987zm.017.6l.134-.41.126.41zm1.329-.6h-.412v.987h.417c.338 0 .562-.129.562-.494s-.223-.494-.562-.494m-.015.8h-.129v-.605h.129a.302.302 0 010 .605m.745.387h.263l.2-.445h-.35zm1.569-.812c-.072-.019-.16-.043-.16-.114 0-.049.055-.09.117-.09a.15.15 0 01.105.032.1.1 0 01.036.087h.273c.016-.238-.194-.311-.4-.311s-.412.064-.422.3a.248.248 0 00.149.24c.215.095.417.066.417.2 0 .066-.08.1-.144.1-.1 0-.167-.05-.165-.143h-.273c0 .268.206.334.436.334s.432-.1.432-.306c0-.267-.239-.283-.405-.326m1.586.334l-.145-.713h-.335l-.16.718-.09-.718h-.27l.168.987h.327l.18-.731.169.731h.328l.17-.987h-.248zm.547.274h.751v-.192h-.478v-.209h.44v-.191h-.44v-.2h.478v-.193h-.751zm1.014 0h.752v-.192h-.478v-.209h.44v-.191h-.44v-.2h.478v-.193h-.752zm.932-.796h.3v.8h.274v-.8h.309v-.189h-.884zm1.524.185c-.073-.019-.161-.043-.161-.114 0-.049.055-.09.118-.09a.154.154 0 01.105.032.1.1 0 01.035.087h.273c.016-.238-.193-.311-.4-.311s-.411.064-.422.3a.25.25 0 00.149.24c.215.095.417.066.417.2 0 .066-.081.1-.144.1-.1 0-.167-.05-.165-.143h-.273c0 .268.206.334.436.334s.433-.1.433-.306c0-.267-.24-.283-.405-.326m2.341.065h-.236a.329.329 0 01-.071.179l-.14-.14c.087-.06.2-.145.2-.261 0-.195-.208-.241-.382-.241-.147 0-.365.05-.365.233a.327.327 0 00.136.238c-.119.046-.231.124-.231.265 0 .219.217.291.4.291a.648.648 0 00.348-.085l.057.065h.332l-.2-.213a.552.552 0 00.149-.331m-.627-.314c.056 0 .108.02.108.085 0 .047-.069.1-.108.122-.023-.023-.093-.084-.093-.122a.084.084 0 01.093-.085m-.02.7c-.06 0-.152-.034-.152-.1 0-.082.056-.1.121-.137l.183.181a.232.232 0 01-.152.052m1.953-.654c.113 0 .18.05.186.139h.287c0-.249-.234-.331-.473-.331-.307 0-.472.182-.472.513s.165.515.472.515c.239 0 .478-.087.473-.336h-.287c-.005.095-.071.145-.186.145-.154 0-.185-.169-.185-.313s.029-.332.185-.332m1.203-.192a.514.514 0 10.512.514.466.466 0 00-.512-.514m0 .836c-.185 0-.223-.172-.223-.318s.038-.328.223-.328.224.172.224.328-.038.318-.224.318m.767.171h.274v-.375h.395v-.192h-.395v-.23h.425v-.188h-.7zm.937 0h.274v-.375h.4v-.192h-.4v-.23h.425v-.188h-.7zm.935 0h.752v-.192h-.478v-.209h.439v-.191h-.439v-.2h.478v-.193h-.752zm1.765-.796v-.189h-.754v.987h.751v-.192h-.478v-.209h.44v-.191h-.44v-.2zm-18.578 5.465h4.288v2.922h-4.288z" fill="#fff"/><path fill="#0062b0" d="M559.937 497.546h1.28v2.533h-1.28z"/><path fill="#e50012" d="M562.498 497.546h1.278v2.533h-1.278z"/></g></svg>