<svg xmlns="http://www.w3.org/2000/svg" width="70" height="42"><g fill="#221714"><path d="M21.8 21.968v-.443h-.031v-.093h-.031v-.064h-.03v-.159h-.035l-.03-.127h-.031v-.093a5.152 5.152 0 01-.158-.127v-.094a6.802 6.802 0 01-.159-.127v-.063c-.064-.051-.127-.1-.189-.157v-.064l-.1-.062v-.064h-.063a.466.466 0 00-.094-.222h-.032l-.031-.126c-.021-.009-.041-.021-.064-.031-.012-.042-.02-.086-.033-.128-.05-.041-.1-.085-.156-.126v-.063a.493.493 0 00-.221-.19v-.062c-.086-.026-.072-.009-.1-.1-.186-.042-.208-.2-.412-.22-.05-.193-.227-.219-.378-.317-.012-.021-.021-.042-.032-.063l-.126-.032c-.023-.031-.042-.062-.064-.094-.051-.009-.106-.021-.158-.032a3.226 3.226 0 00-.1-.126h-.064c-.011-.018-.02-.042-.031-.065a1.164 1.164 0 01-.127-.03l-.032-.063-.188-.031c-.022-.031-.042-.063-.064-.093a1.158 1.158 0 00-.094-.032v-.031h-.063v-.033h-.065v-.031h-.094l-.032-.064h-.045c-.012-.02-.021-.043-.032-.063h-.068c-.021-.031-.042-.064-.064-.094a1.781 1.781 0 00-.126-.031l-.063-.1h-.063v-.031h-.063v-.033H17.5v-.031h-.057l-.032-.064h-.068v-.029h-.094v-.033h-.064v-.03a2.173 2.173 0 00-.157-.032v-.032h-.1v-.031h-.085v-.031h-.126v-.031h-.127v-.026h-.127v-.032h-.189v-.029h-.131v-.039h-.255v-.03h-.245v.03h-.476v.034a7.197 7.197 0 00-.252.029v.032h-.063v.032l-.189.031v.031H14.6v.031c-.232.032-.464.064-.7.094v.033h-.094v.029h-.126v.033h-.127v.031c-.1.012-.21.022-.315.031v.033h-.127v.031l-.252.031a.937.937 0 00-.031.064h-.19v.031h-.063v.031l-.221.032.032-.665h.031c-.009-.125-.02-.252-.031-.378h.031c.012-.126.022-.253.032-.379h-.032c-.055-.217.026-.532-.031-.727v-.254h-.032v-.064h-.031v-.316h-.032v-.063h-.031l.031-.222h.032l.031-.093.191-.033a1.79 1.79 0 00.031-.062c.063-.012.127-.022.19-.031v-.032h.189l.063-.094h.064v-.031h.158l.031-.064h.094l.032-.062h.189v-.034h.1v-.02h.094v-.031h.1v-.033h.064v-.036h.1a.788.788 0 00.031-.065h.1v-.029c.021.011.042.02.063.029l.031-.061h.189v-.032c.044-.008 0 .006.031.032l.1-.032v.032h.346v-.032H15v-.032a.81.81 0 00.284.032v-.032h.1v-.031h.126v-.031h.127c.042-.014-.013-.028.032-.032l.062.032v-.032l.316.032v-.032h.1v-.031h.032v.031h.063v.032h.221v.031h.094v.031h.064v.032l.127-.032v.032h.064v.032h.221v.032h.064v.029h.093v.032c.131.037.141-.056.158-.061.043.011.085.02.128.029v-.029c.116-.012.231-.021.347-.032v-.064l.315.032c.011-.021.022-.041.032-.063.092-.049.112-.008.222 0 .018-.063 0-.026.032-.063v-.031h.094c.022-.086.007-.074.094-.1.02-.064-.005-.027.031-.064s.023-.077.094-.063v.042h.032v-.031h.064c.021-.031.042-.062.063-.1h.064v-.031l.19.031v.034c.031-.012.063-.021.094-.034v.034c.106.022.21.04.316.062-.016-.079-.109-.342-.063-.442h.031a.25.25 0 00.064-.191c-.053-.008-.1-.02-.158-.031l-.031-.1h-.032v-.031h-.157v-.031h-.071c-.03-.057.021-.1.032-.128-.032-.009-.063-.021-.1-.03.021-.076.01-.06.064-.1v-.031h.032l.031.064.253-.032c.021-.074.009-.058.063-.093.012-.085.021-.17.031-.256-.02-.009-.043-.019-.064-.031v-.093q-.046-.035-.094-.064v-.159l-.064-.031v-.126l-.062-.031v-.064h-.022l-.032-.093c-.206-.05-.177-.226-.411-.255-.017-.131-.045-.1-.1-.188h-.094c-.05-.181-.175-.113-.22-.317a.253.253 0 01-.127-.062v-.033c-.032-.009-.063-.02-.1-.03l-.031-.064-.094-.031c-.032-.041-.064-.085-.1-.126h-.064a.6.6 0 00-.031-.061h-.063a15.495 15.495 0 00-.064-.1c-.042-.012-.084-.019-.127-.031l-.031-.064-.191-.063c-.021-.031-.042-.064-.064-.094h-.093v-.022h-.065a1.118 1.118 0 00-.03-.06h-.1a1.95 1.95 0 01-.032-.065c-.041-.011-.085-.02-.127-.032-.012-.02-.021-.04-.031-.062h-.078c-.011-.021-.022-.041-.032-.064h-.064V9.49c-.031.012-.063.021-.093.031v-.062h-.127v-.063c-.116-.044-.232-.085-.347-.129v-.029h-.1v-.034h-.061v-.031c-.064-.012-.128-.021-.191-.033v-.036h-.063v-.031l-.348-.031v-.033h-.159v-.03c-.093-.012-.188-.021-.284-.031v-.032h-.253v-.033H14.4v-.03l-.948-.032a7.739 7.739 0 00-2.085.188l-.474.033v.031h-.19v.031h-.157v.032h-.127v.033h-.126V9.2h-.1v.032h-.15v.029H9.98v.032l-.189.032v.031h-.094v.033h-.064v.029c-.137.034-.274.064-.412.1v.032h-.064v.031h-.094v.03h-.094v.032h-.094v.032h-.1l-.032.065h-.094l-.032.06h-.126v.034h-.063v.031c-.079.039-.168.025-.254.064v.031h-.062v.032l-.19.031v.032c-.063.02-.127.04-.19.062v.033h-.064v.033h-.063v.029l-.126.032v.031h-.1v.031c-.062.023-.126.043-.188.064v.031h-.048v.033h-.1l-.031.061h-.094v.033h-.064v.032H6.76v.03a1.927 1.927 0 01-.126.031v.033l-.189.031v.032h-.064v.031c-.053.009-.106.02-.157.031v.032H6.16v.032l-.19.063v.031h-.1v.032h-.063V11l-.159.031v.031h-.094v.031c-.053.012-.105.021-.157.034v.031h-.054v.031h-.1l-.033.062h-.062v.031c-.064.012-.127.021-.189.032v.032h-.064v.032c-.137.03-.274.061-.411.094v.031h-.1v.031h-.126v.031h-.16v.032h-.094v.032H3.72v.031h-.379v-.031l-.506-.032v-.032h-.094v-.031h-.126v-.031h-.064v-.031h-.1v-.033h-.093v-.031h-.065v-.03h-.05l-.031-.064h-.063v-.032l-.128-.031v-.03h-.126c-.009-.022-.021-.044-.03-.064h-.064l-.032-.065h-.063l-.063-.093h-.126l-.032-.064h-.063v-.031h-.063v-.031h-.1v-.031h-.063v-.032h-.094v-.032a8.912 8.912 0 00-.159-.031c-.011-.022-.022-.041-.031-.063-.062-.055-.143-.087-.189-.158H.691v.158H.66v.063H.627v.158H.596l.064.347H.627v.031H.66v.158h.031l.032.191h.031v.062h.032v.1h.031v.158h.031v.191h.031v.159h.032v.093h.032v.1h.032v.093h.031l.031.126h.032v.064h.032v.094h.031v.064h.031v.063l.065.032.064.188c.151.048.035.028.1.128l.062.031v.064l.1.063v.063l.189.159v.063l.1.063v.064h.063a1.03 1.03 0 00.38.6v.126h.063v.064c.15.047.033.028.1.126l.22.188v.064h.064c.039.193.123.16.252.252l.064.1a.559.559 0 00.284.094v.064c.032.009.064.021.1.031.031.043.063.083.1.126.041.01.083.022.126.031.031.044.064.085.1.126.41.108.821.212 1.233.318l.631.03v.031h.1l.031.063h.127l.063.1h.1v.032h.1v.021h.094v.032c.222.021.443.042.664.065.107.293.211.589.317.882l.031.318a3.645 3.645 0 010 1.7v.159h-.031v.126h-.076l-.064.315h-.036c-.036.129-.012.036-.093.1l-.031.063h-.1l-.031.064h-.064v.03h-.062v.032h-.064v.032h-.055l-.031.063h-.1l-.031.064-.19.063v.03h-.064v.032h-.062v.032l-.19.063v.031l-.158.032v.031h-.064v.031h-.094v.032h-.1v.032h-.094v.031h-.1v.032H5.14v.031h-.127v.031h-.221a2.3 2.3 0 01-.727.034v-.034h-.094c-.012-.031-.021-.061-.032-.093l-.126-.064a1.18 1.18 0 00-.031.1 1.08 1.08 0 01-.223-.1v-.032c-.03.012-.062.021-.094.032v-.032h-.094v-.031h-.126v-.031h-.063l-.033-.064h-.206v.094l.252.16v.188h.031c.06.125.089.1.094.284h-.063c-.026-.094-.059-.108-.158-.125-.021-.08-.016-.053-.063-.1v-.031h-.064v-.031h-.1a1.668 1.668 0 00-.062-.093h-.063l-.031-.064h-.064l-.157-.19-.347-.094v-.031h-.064l-.064-.1h-.062v-.03H1.8v-.033h-.064v-.03H1.61v-.032h-.067v-.032h-.1v-.031h-.126c-.01-.023-.021-.044-.031-.064l-.443-.094v-.032H.78v-.031H.654v-.031h-.1v-.032H.46v-.031H.269v-.028c-.037 0-.179.055-.251.063-.019.064 0 .027-.031.064.012.1.008.076.063.126v.032h.063c.012.021.021.041.032.064l.094.031v.127H.27v.062h.032v.126h.032v.032c-.007.044-.044-.011-.032.031h.032v.1h.032v.125h.031v.063h.032v.1H.46v.093a.577.577 0 00.063.034v.064h.031l.031.126c.021.008.043.02.064.031l.031.127.126.1c.011.03.021.06.031.094.031.009.064.021.1.031v.063c.053.074.106.146.159.223h.061l.1.125h.1c.021.032.043.063.063.1h.063c.074.1.148.209.222.315h.031l.031.062h.064l.188.317v.126h.033v.126h.031v.159h.031v.126h.033v.222h.031v.443h.032v.347a3.216 3.216 0 01.031.822H2.21c-.05.183.013.468-.032.632l-.031 1.357h-.033v.886h-.031v.914a1.567 1.567 0 00-.031.6s.041 0 .031.061h-.031v.032h.031v.033h-.031c-.007.064.031.062.031.062v1.075h.031l-.031.093h.031l-.031.126.031.222a5.756 5.756 0 00.033 1.074l.031.7h.032v.255h.031v.155h.032v.189c.094.312.137.692.252.98l.031.189.064.031v.1h.03v.064h.032v.061l.064.033v.063c.021.011.041.019.063.031v.065l.094.062c.069.1.061.153.19.189.05.2.288.28.443.38.009.021.021.041.03.062h.128c.028.012 0 .041.1.064v.063a.273.273 0 01.126.063v.012c.042.013.084.023.127.034v.029c.166.059.171-.118.284.034.094-.026.079-.053.19-.063a2.92 2.92 0 00.031-.1h.126v.066h.126v.063a.666.666 0 00.126-.029.049.049 0 00.063.029v-.029c.042-.011.085-.021.127-.034v-.031c.069-.023.094.044.127.031a.893.893 0 00.03-.062l.1.031v-.069a.189.189 0 01.126-.063c.024-.085.009-.073.1-.1.039-.137.1-.108.158-.188.011-.032.022-.064.032-.1l.094-.062v-.1c.021-.012.043-.021.063-.032s.029-.265.032-.283h.442v-.031c.042 0 .051.05.126.031v-.031h.317v-.032h.444v-.033h.5v-.031h.159v-.031h.126v-.014l.536-.031v-.032h.1v-.037h.211l.031-.063h.032v.031h.031v-.031h.125v-.031h.127v-.032h.159v-.031h.189v-.033l.093.033v-.033h.1v.033l.188-.033c.008 0 .01.042.063.033v-.033h.159l.158.033a12.342 12.342 0 011.738-.064c.016.12.04.089.063.188h.064c.034.13.124.16.156.287h.064v.031c.065.055.019.063.127.1a.813.813 0 00.347.441v.062h.063v.065c.086.023.073.006.094.094h.1c.024.086.007.071.1.1v.094h.063v.059h.032c0-.032.028-.051.063-.031v.031h.032v-.126h.094v.033h.032v.031h-.032c0 .09.051.108.126.125v.1h.19v.032h.032l.031-.064.1-.031a.316.316 0 01.032.126.779.779 0 00.284 0v.092c.078-.02.052-.016.094-.063h.031v-.061c.021-.012.042-.021.064-.032l.031-.1h.126a.248.248 0 01-.031.128h-.031v.157c-.021.012-.042.02-.063.031-.045.066.014.045-.064.094v.063a.618.618 0 01.222-.091v-.1c.11-.043.224-.06.284-.157a.278.278 0 01.159.061v.032c.092.036.2-.066.251-.093v.061a2.655 2.655 0 01.412-.061.787.787 0 00.064-.157h.061a.582.582 0 01-.031.125h.031v.032h.032v-.094c.064.017.027-.006.064.031.067-.057.054-.1.157-.127v.063a.264.264 0 00.221-.189h.064v.065l.1-.065v-.126c.053-.01.1-.022.159-.031v.093a.258.258 0 00.189-.062v-.031c.053.009.106.021.159.031l.03-.159h.127v.031h.031v-.061h.032a.215.215 0 00.064-.129c.042.012.083.022.126.032l.033-.126c.174-.044.157-.154.379-.159l.031-.093h.064l.062-.192h.032v-.031c.053-.011.1-.022.159-.031.036-.131.063-.064.125-.16h.064v-.061h.22c.035-.127.131-.125.19-.222h.1v-.064a.943.943 0 00.443-.507h.094c.012-.03.021-.062.031-.094h.031l.031-.093.063-.034c.012-.031.022-.062.033-.094.031-.012.063-.021.093-.032v-.061c.022-.012.043-.02.064-.031v-.1l.158-.1v-.06l.159-.128.031-.127h.031v-.127c.053-.03.106-.063.159-.1l.033-.221h.031v-.063h.031v-.048h.031l.063-.19h.032v-.16h.032l.029-.124h.033c.01-.074.022-.147.031-.222.021-.01.041-.021.063-.03v-.128h.032v-.062h.032a.052.052 0 00-.032-.064l.032-.158.156-.094.033-.379h.031v-.065h.032c.009-.117.02-.231.031-.346h.031v-.1h.031v-.125h.031c-.011-.106-.019-.211-.031-.316.021-.012.042-.021.064-.032v-.349h.032v-.251h.031v-.284h.031v-.121h-.031c-.008-.067.031-.064.031-.064v-.222h.031l-.031-.091h.031v-.128h-.031v-.032h.031c.015-.076-.033-.084-.031-.126h.031a2.4 2.4 0 00-.031-.7c.021-.009.042-.021.064-.032-.012-.21-.022-.421-.033-.632h.033v-.188h.03v-.19h.032v-.6h.032v-.062h.031c.036-.1-.037-.262-.031-.318h.031v-.062h.032c.035-.107-.027-.21-.032-.284a2.276 2.276 0 01.032-.6 2.066 2.066 0 00-.032-.094h.032v-.1h-.032c0-.1.048-.061.064-.1l.03-.284h-.03l.03-.285v-.306h-.03v-.033h.03v-.1h.035v-.284h.03a8.976 8.976 0 01-.03-.221h.03v-.127h.031v-.5a.874.874 0 00.031-.475m-12.8-5.846v-.061c.094-.022.189-.045.284-.065v-.031h.1v-.032h.064v-.025l.189-.03c.021-.033.042-.062.064-.1.03-.008.062-.021.094-.031l.032-.064.22-.031a1.776 1.776 0 01.285-.127c.018-.064 0-.026.031-.064v-.031h.158c.012-.021.021-.042.032-.064h.127v-.031h.062v-.027h.127l.031-.063c.043-.01.084-.02.127-.033.021-.029.043-.061.063-.093h.254c-.012.38-.021.76-.032 1.137h-.032v.413h-.061v.284h-.033v.44a61.94 61.94 0 01-.126.852c-.071.034-.146.058-.22.1v.032H10.8v.031h-.1v.031a1.76 1.76 0 01-.125.032v.032h-.1v.031l-.127.031v.032h-.093l-.032.063h-.127v.032l-.19.031c-.041-.316-.084-.631-.126-.947h-.032l-.032-.126h-.03v-.16h-.031v-.063a.531.531 0 01-.064-.033v-.124H9.56v-.1h-.017a1.499 1.499 0 01-.031-.1c-.063-.017-.026.006-.063-.029h-.032v-.1c-.063-.019-.027 0-.063-.033h-.031v-.158c-.032-.009-.063-.021-.1-.031l.033-.1a1.217 1.217 0 01-.317-.5h.064m1.137 4.33h.032v-.126l.063-.032v-.19h.032v-.032h.126l.031-.063h.064v-.031c.117-.046.136.029.22-.064h.032a3.522 3.522 0 01-.127.948v.19h-.031v.126h-.032v.1h-.032v.1h-.031l-.064.19h-.031v.126h-.032c-.021.063-.041.127-.063.188h-.031v.064h-.032l-.063.189h-.028c-.053.064-.1.127-.158.189h-.064l.031-.284h.032l.063-.758h.064a3.1 3.1 0 01.064-.725 1.692 1.692 0 01-.032-.1m-4.961 4.423h-.063a5.127 5.127 0 00-.157-.507c-.012-.115-.022-.231-.033-.347h-.031v-.062h-.032v-.064h-.031a10.37 10.37 0 00-.065-.188h-.027l.031-.1h-.031c-.012-.043-.021-.084-.032-.127H4.68v-.094c-.021-.01-.042-.022-.063-.031v-.1h-.033v-.064l-.062-.031v-.054l-.1-.063c-.056-.083-.038-.158-.126-.222.011-.031.022-.062.031-.093l.252-.1h.1c.009-.021.021-.04.031-.062h.032v.031h.127v-.031h.41v-.033h.1v-.027h.158v-.033h.126v-.029h.1v-.033h.126v-.031h.126l.064-.1h.031v.032h.064a2.263 2.263 0 01-.317.949v.1h-.031v.063h-.031l-.032.157h-.031l-.031.19a1.125 1.125 0 00-.1.222h-.063a.584.584 0 01-.064.283h-.031v.127l-.064.033v.094h-.036v.062h-.031v.065c-.036.066-.092.141-.127.22m.758 7.647l-.031.062c-.063.051-.126.106-.189.159h-.064l-.031-.411h-.032v-.1h-.031v-.126h-.031v-.063h-.032l-.031-.379h.031v-.032h-.031l-.031-.284h-.031v-.126h-.032a.08.08 0 01.032-.1v-.218h-.032c-.009-.051.031-.055.032-.064v-.158l-.032-.156h-.034c-.028-.088.028-.184.032-.222l-.064-.316h.031v-.251h.032v-.033h.032c.02.086.041.168.062.252.042.032.084.065.126.1v.094h.032v.1h.031v.062h.032v.126h.031c.029.093-.014.182.031.253.064.055.126.107.189.158v.064h.032c.031.043.064.085.1.127l.189.031v.033l.126.03v.033h.157v.031c.065.009.128.021.19.031v.031a.983.983 0 00.1-.031v.031h.411s0 .022.064.034c-.044.2-.207.255-.318.379l-.031.1-.064.031v.062l-.094.064v.031h-.064l-.126.158h-.069l-.031.063h-.069l-.032.064h-.063l-.033.064h-.062v.031a.22.22 0 01-.127.032c-.041.155-.083.084-.189.158m8.153-1.392h-.032c-.042.189-.173.265-.253.412h-.062c-.036.144-.193.255-.284.349a1.942 1.942 0 01-.822.6h-.252c-.236.067-.7.114-.853-.065h-.064c.036.054.02.045.1.065.021.1.049.235-.031.314s-.169.028-.284.063v.032h-.159v.031h-.126v.032h-.158v.031h-.126c-.643.22-1.433.292-2.086.506H8.44v.032h-.127v.03h-.157v.033h-.127v.033h-.126v.03c-.179.031-.358.063-.536.1v-.032c-.131-.031-.239.013-.318-.063h-.093l.063.1h.1v.064l-.189.031v.033c-.032-.011-.064-.024-.1-.033v.033c-.179.012-.358.019-.537.031h-.251V33.9h-.033v-.033c.1-.052.189-.1.284-.159v-.031h.127v-.03h.032v.03h.031c.02-.008.017-.076.063-.063v.033l.1.03v.031a.312.312 0 00.158-.031v.031h.127v-.031h.031v-.03h-.064a.707.707 0 01-.19-.159h.032v-.034h.126a.383.383 0 00.031-.062c.022.011.042.022.064.031.012-.031.021-.061.031-.093l.063.032a.291.291 0 00.032-.126h.064c.026-.012.008-.088.1-.065v.032c.031.012.064.021.1.033v.03c.041-.01.083-.021.126-.03v-.033c.074-.021.085.031.128.033.009-.021.021-.043.03-.065h.1a2.54 2.54 0 01.063-.093l.126-.031v-.032a.231.231 0 01.157-.064v-.063h.159l.031-.063c.107-.055.117.039.158-.127.056.031.049.045.126.064.054-.069.066-.017.1-.127.086-.024.072-.007.1-.093.031.009.063.019.093.031v-.031c.064-.01.127-.023.191-.031l.031-.127a.827.827 0 00.252-.064v-.1h.1l.031-.124h.126c.02.062-.006.024.031.062v.031h.031v-.158a.606.606 0 00.253 0v-.094h.094v.031c.089-.012.1 0 .126-.062v-.064h.032v-.031c.058-.019.045.02.064.031h.031v-.094l.1-.033v-.031h.063v-.032l.127.032v.064h.031c0-.034.028-.051.064-.033v.033h.031l-.031-.127.031-.093h.159v.031c.154.007.218.035.252-.1h.127v-.064a2.39 2.39 0 00.253-.06c.009-.023.021-.045.031-.067h.062v-.031h.1l.063-.158c.1-.058.237.018.317.033v-.064a.339.339 0 01.064-.03v-.065c.032-.031.03.028.031.032l.126-.032v-.049l.064.032.031-.065h.1c.011-.018.021-.04.031-.06l.128.029v-.029h.063v-.032l.284-.064v.064a1.107 1.107 0 00.22-.033v.065h.032v-.065c.032-.009.063-.021.1-.031l.094.189c.107-.01.211-.02.316-.033.022.033.043.065.063.1h.064v-.1h.065v.065h.157c-.012.041-.021.083-.033.126h.1v.033h.032v.03m1.516-4.9h-.032v.441h-.094v.317h-.031v.379h-.031v.253h-.032v.221h-.031v.191h-.033v.126h-.03v.158h-.032c-.037.12.016.171-.063.254-.023.014 0 .041-.062.031v-.031l-.127-.033v-.028l-.38-.125v-.034h-.064l-.062-.094h-.064v-.031h-.058l-.031-.063-.158-.032-.031-.062h-.063l-.032-.064h-.063v-.032h-.1l-.063-.093h-.094l-.032-.064h-.094v-.031h-.063l-.064-.094h-.125v-.032h-.1v-.031l-.094-.031v.063a.3.3 0 00-.158.032v.032l-.126-.032c-.021.043-.043.083-.063.125a2.146 2.146 0 01-.127.032 1.972 1.972 0 01-.1.126c-.1.063-.111-.049-.158.128-.031.008-.064.021-.1.031v.032h-.063v.032h-.093a1.75 1.75 0 01-.033.062h-.094v.032h-.063v.031c-.138.011-.274.022-.412.031v.034h-.159v.031h-.188v.032h-.056v.031h-.222v.028h-.127v.031H10.8v.033h-.126v.031h-.16l-1.769.568v.031l-.126.031v.031l-.188.032v.032h-.1v.032h-.088v.032h-.094v.03h-.064v.032l-.221.031v.032l-.412.094v.032h-.093v.031c-.19.031-.381.064-.57.093l-.475.035v-.035c-.212 0-.259-.037-.315-.188v-.158h-.031v-.03h-.025v.093h-.031v.032c-.052-.012-.106-.02-.158-.032v.032c-.126-.02-.253-.043-.379-.064v-.379h-.032v-.1h-.031v-.031h.031v-.125h-.031c-.01-.068.06-.121.031-.222h-.031v-.317h.031a.086.086 0 00-.031-.094c-.008-.06.031-.065.031-.065l-.031-.188c.1.01.093.028.158.062-.01.053-.021.1-.031.159l.126-.032v-.112a.288.288 0 00.126.033c.015-.162.083-.162.158-.254h.031c.061-.094-.057-.083.1-.126 0-.121-.005-.131.1-.158.036-.035 0-.014.062-.031v.031h.033l-.064.19h.064c.024-.1.05-.079.064-.19.093-.023.077-.052.189-.064a.436.436 0 01.126-.283l.065-.033v-.062h.031v-.1h.032l.03-.159h.032v-.031l.158-.032c.032-.1.064-.188.094-.284l.1-.064v-.063h.032l.031-.062h.064l.031-.1c.126-.034.124-.13.221-.189v-.094c.118-.028.114-.1.189-.159q.031.017.065.032v-.064h.031l.032-.094a.417.417 0 00.189-.093v-.032l.094.032c.012-.032.021-.064.032-.1l.126-.032.063-.094h.063l.032-.064h.031c-.012-.021-.021-.042-.031-.062.031-.014.064-.021.094-.032l.19-.285h.064c.017-.132.044-.1.093-.188h.064l.031-.127c.021-.011.041-.022.063-.031.026-.061-.045-.106-.031-.128.027-.044.08 0 .126-.03.032-.054.064-.106.094-.159a.973.973 0 01.1-.03c.031-.1.063-.191.094-.286v-.19c.031-.021.063-.043.1-.063.009-.063.021-.127.031-.189l.1-.032a1.029 1.029 0 01.1-.347c.036-.054.017-.045.093-.064.042.211.083.422.126.632h.031v.475h.031v.094h.032v.093c.02.012.042.022.063.033v.062c.057.082.123.055.158.19h.064v.031c.077.068.013.076.156.1v.063a.592.592 0 01.221.126l.033.063h.062c.042.052.084.107.127.156h.062l.064.1h.064v.031h.063v.031l.093.032a.851.851 0 00.38.379v.063l.094.032.065.094h.064l.188.221h.094c.032.053.064.1.1.16.19-.009.379-.022.57-.032v.032h.094v.032c.106.009.21.021.317.031v-.031h.063v-.032h.253l.031-.064c.054-.014.056.031.063.032l.57-.032v-.03l.126-.033v-.032h.063c.021-.032.042-.064.064-.094.031.011.063.021.094.03.012-.019.021-.04.031-.06.051-.017.059.031.064.031.031-.01.063-.022.094-.031v.031h.221c.014 0 .009-.06.065-.063.019 0 .141.06.221.032v-.032h.062v-.031h.125v-.032a.554.554 0 01.255-.062c-.012.146-.022.3-.032.442m.505-6.131h-.031v.507h-.031v.347h-.032v.22h-.032v.348h-.031v.222h-.031v.252h-.034c-.03.023.013.045-.03.031v-.031h-.1v-.031a.813.813 0 00-.411 0v-.061c-.385-.018-.737-.094-1.17-.094h-.411v.03a85.49 85.49 0 01-.505.031v.034h-.189v.031h-.253a2.756 2.756 0 01-.727.094c.012-.094.021-.189.032-.284 0-.006-.045-.012-.032-.063h.032v-.064h.032c.025-.076-.034-.209-.032-.221h.032v-.126h.031c.01-.053-.029-.055-.031-.063v-.537h-.032c0-.044.022.012.032-.032.009-.157.02-.314.031-.474h.031v-.442h.033v-.126h.031v-.126h.032c.122-.156.132-.029.284-.094l.031-.064h.127v-.031h.094v-.032h.1v-.032h.126v-.032h.063l.032-.061h.063v-.032l.379-.032v-.031h.189V19h.569v-.032a.054.054 0 01.063.032c.041-.012.084-.022.127-.032l.346.032.252-.032V19h.127v.031h.126V19a.081.081 0 01.1.031l.158-.031v.031h.158v.031l.062.032v.062c.022.01.043.022.064.031v.064c.021.012.042.019.063.032v.062h.032a1.825 1.825 0 01.063.758m19.461-9.119c.011.063.02.125.032.189h-.065v.062c.04.032.064.1.1.127h.063c.022.032.043.064.063.1h.064l.094.126h.064c.074.085.147.169.222.252s.185.121.221.253h.063l.031.094h.032v.064l.063.033v.254h.032v.156h.031v.127h.033v.156h.031v.1h.032v.284c.02.012.041.021.063.031.075.182-.1.408-.063.537h.031v.383h-.031v.155h.031c.017.075-.032.083-.031.126v.031h.031a1.848 1.848 0 01-.031.537c.159-.007.145-.052.252-.092h.1v-.034l.221-.031v-.031c.062-.012.126-.022.188-.033v-.032h.065v-.03c.094-.023.189-.042.284-.064v-.031l.411-.064v-.031h.1v-.037h.1v-.033h.1v-.031h.093v-.036h.064v-.031h.094v-.031l.222-.033v-.032c.043-.009.083-.019.126-.032v-.031h.065v-.031c.031-.009.062-.021.1-.029.01-.024.021-.043.031-.065.042-.011.085-.021.127-.033v-.031l.126-.032.031-.061a3.45 3.45 0 00.127-.1c.011-.032.022-.065.031-.1h.031c.06-.1.065-.155.19-.19v.033c.036.034.012 0 .033.061a.313.313 0 01.156.064v.062a.474.474 0 00.064.033c.007.036-.053.055-.032.127h.032a.7.7 0 01.031.378h.063c.008.161.044.109.064.252h.064c.011.117.019.232.031.351.052.029.1.06.158.092a.356.356 0 00-.032.127h.1v.255c.042-.012.084-.021.127-.033v.1c.107.026.136.079.157.189l.1.032.031.093h.031v.222h.033v.094h.031v.284h.031v.094h.032v.224h.031v.061h.031a.455.455 0 01.126.189h.064v.1h.063c.012.064.021.126.031.192h.127l.031.377c-.07.044-.111.128-.189.192v.031h-.093l-.033.062-.094.064v.1h-.032c-.079.1-.1.031-.126.189.1.064.015.043.063.125.031.023.063.042.1.065l-.032.313h-.031v.066h-.031v.157h-.032v.063l-.062.032-.033.158h-.031l.031.157h-.031v.193h-.079l-.032.124h-.064c-.008.171-.058.124-.093.254h-.1v.029c-.083.1.007.148-.157.192-.032.117-.081.094-.158.155-.012.022-.021.045-.031.065h-.127v.031h-.032c.012.021.021.042.032.064h-.032v.029c-.088.066-.082-.056-.126.1h-.1c-.031.043-.061.085-.094.126h-.064l-.093.126h-.1q-.015.032-.032.062h-.062v.033h-.064v.032a1.367 1.367 0 00-.126.032c-.011.019-.021.041-.031.062h-.063l-.063.094c-.109.071-.141-.038-.189.127h-.128l-.031.1a.226.226 0 00-.159.063v.031c-.041.012-.083.02-.125.032v.032a2.63 2.63 0 00-.159.031l-.032.061h-.126l-.031.064h-.159l-.032.062-.188.032-.032.062h-.064v.032h-.062v.033l-.158.029v.034c-.036.035-.012 0-.031.062h-.127v.064h-.157c-.02.036-.055.05-.064.063v.063h-.031v.19h-.031v.188a2.869 2.869 0 000 .789c-.012.19-.021.381-.031.57h.031v.507a.083.083 0 01.031.094h-.031c-.012.106-.021.212-.031.317h-.032v.346h-.031v.1h-.032v.1h-.031v.284h-.032v.031a.656.656 0 00.064.032c-.01.032-.021.063-.031.1h.031l-.031.41h-.032v.157h-.032v.031h.032v.16h-.032v.061h-.031v.1h-.021a.548.548 0 00.031.284c.031.116-.042.217-.064.286v.379h-.031v.126h-.036v.1h-.032v.063h-.031v.1h-.032c-.011.117-.022.232-.031.347a.05.05 0 01.031.064l-.065.032v.093l-.063.031c.012.043.021.085.032.126h-.032l-.126.57h-.031v.063c-.021.009-.042.021-.064.031l-.031.189h-.025v.062a.537.537 0 01-.062.031l-.063.192a.937.937 0 01-.064.031v.062h-.031c-.1.187-.107.425-.349.478-.038.143-.1.108-.189.188-.033.041-.063.085-.1.126h-.063a4.99 4.99 0 01-.1.126c-.1.084-.189.169-.284.255v.063h-.032l-.031.063h-.127a1.455 1.455 0 00-.063.1c-.042.011-.084.019-.126.032-.011.019-.021.041-.031.062l-.126-.031-.033.062a.449.449 0 01-.252.1v-.031h.032c.054-.066.119-.075.189-.127v-.031a.661.661 0 01.064-.032v-.064l.126-.093.031-.126.064-.033v-.093a.745.745 0 01.063-.032c.012-.063.021-.126.032-.19h.031v-.064h.032v-.092h.032l.031-.125h.032v-.129h.031v-.136h.032l.063-1.045a2.036 2.036 0 01-.032-.663h.032a5.548 5.548 0 01-.032-.159h.032v-.03H35.1c.012-.053.022-.107.032-.16H35.1v-.156h.032c.006-.045-.022.01-.032-.034v-.5h-.027v-.506a9.274 9.274 0 000-1.137l.031-.443h-.031l.031-.505a8.337 8.337 0 000-1.581h-.031v.031h-.221v-.031h-.032v.031h-.063l-.031.064a2.754 2.754 0 01-.6-.064v-.031h-.1v-.031h-.031v.031c-.031-.009-.061-.021-.094-.031v-.031h-.064v-.032h-.093v-.031h-.127v.031c-.222-.012-.442-.021-.664-.031v-.032c-.043-.009-.084-.021-.126-.032v-.03c-.085-.012-.169-.021-.253-.031l-.064-.1c-.069-.04-.183-.023-.252-.064l-.025-.067h-.1v-.026h-.06v-.034h-.1l-.031-.063-.094-.031v-.031h-.1c-.012-.021-.021-.044-.031-.064h-.064c-.105-.126-.21-.254-.317-.379l-.126-.031a1.24 1.24 0 01-.031-.063c-.042-.012-.084-.02-.127-.032a19.692 19.692 0 01-.188-.219h-.032v-.1c-.018-.039-.015.011-.031-.031h-.1v-.063h-.062c-.011-.031-.021-.064-.032-.1l-.1-.061c-.064-.108.054-.109-.126-.161v-.092c-.179-.109-.215-.382-.442-.445v-.061h-.064c-.012-.031-.021-.064-.032-.1h-.031c-.058-.065-.06-.1-.159-.126v-.064a1.8 1.8 0 01-.505-.57h-.063c-.039-.154-.18-.261-.253-.378L28.8 19.6h-.032l-.063-.189h-.031c-.011-.053-.022-.1-.031-.16h-.032v-.062h-.031v-.128h-.007v-.094h-.032v-.116h-.032c-.009-.125-.021-.251-.031-.377h.031v-.033h-.036v-.5h.031c.086-.35.169-.7.254-1.045l-.1-.031a.715.715 0 010-.284.542.542 0 01.38.031l.063.1h.063v.031h.1v.032c.041.012.083.02.126.031v.033l.158.03v.031h.126v.031c.043.013.084.023.126.033v.032l.189.031v.024h.064v.031a1.725 1.725 0 00.632.064h.288v-.032h.284v-.032h.188v-.031h.19l1.327-.443h.158v-.031l.221-.031v-.032h.1v-.031h.1v-.032h.1v-.033h.063v-.031h.1v-.036h.063v-.031h.1v-.031l.126-.032v-.031l.188-.031v-.032h.063v-.031h.1V16.1l.158-.031v-.032h.064v-.031h.1v-.033c.041-.01.083-.018.126-.029v-.033h.1a2.752 2.752 0 01.441-.19v-1.517c-.007-.043-.036.016-.031-.031h.031v-1.042h-.031l-.031-.568h-.031v-.16a2.333 2.333 0 01-.064-.694.434.434 0 01.158-.033c.036.036 0 .013.065.033a.65.65 0 00-.032-.127h.032v-.316h-.032a.476.476 0 010-.252.486.486 0 01.19-.031m31.593.128v.062h.1v.064a.9.9 0 01.284.126c.022.032.042.064.063.1a.713.713 0 01.1.032l.031.093h.064l.064.1h.063c.021.03.041.061.063.1h.063l.064.126.126.03.222.254h.031v.064c.086.022.071.007.094.094l.222.064v.032a.355.355 0 00.157.093.232.232 0 00.063.16h.031c.012.041.021.084.031.126h.031c.1.184.177.393.411.443l.033.126h.031c-.012.074-.021.147-.031.222h.031l.032.188h.032v.1h.031c.012.04.021.084.032.126l.126.094v.1h.031l-.031.188h.031l-.031.317h-.032c-.036.124.047.266.032.348h-.032v.126c-.04.031-.083.064-.126.094l-.031.41c-.022.01-.043.023-.064.031v.063a.58.58 0 01-.064.032v.064l-.157.127c0 .041.053.05.031.126a.917.917 0 00-.093.25h-.064c-.033.126-.074.093-.159.159-.031.053-.063.1-.094.16-.168.124-.233.126-.284.379a1.388 1.388 0 00-.127.032v.124l-.158.126c-.01.053-.021.1-.031.157h-.032v.065l-.1.064v.03c-.031.012-.062.021-.094.031-.02.1-.041.191-.063.285h-.031c-.087.108-.152.079-.158.284-.109.029-.107.079-.127.191-.108.026-.082.066-.19.094-.023.086-.01.069-.1.1l-.031.093c-.031-.01-.063-.02-.094-.032v.032h-.033l-.062.189c-.053.042-.106.083-.159.128v.064l-.094.062v.1h-.031c-.041.072.013.043-.063.093.013.042.045.052.031.126h-.031v.126h.031v.064h.032v.126l.064.032.031.126c.042.031.083.063.127.094.009.042.021.085.031.127l.093.062v.064l.1.064v.062l.063.031v.064l.1.064c.01.03.021.064.031.1h.065l.031.06.1.032v.031c.041.012.083.022.126.032v.031a.334.334 0 00.158.1v.063l.189.127v.062h.031l.065.1c.041.034.083.064.126.093v.064c.043.034.085.064.126.1v.062l.16.126v.064l.062.031v.1l.221.189c.074.107 0 .145.159.191.032.119.092.1.126.218h.046v.064h.065c.033.156.117.147.126.348h.063c.012.041.021.085.032.125h.032v.1l.061.032v.062h.032v.413h.031c.034.112-.018.237.032.315v.031h-.032v.062h-.031v.064l-.064.032v.188h-.03c-.012.042-.022.085-.032.126-.074.022-.148.045-.221.064.082.142.126.1.126.348a.152.152 0 00-.1.126h-.062l-.126.222h-.065v.031c-.137.061-.168-.045-.221.128h-.094l-.031.125-.127-.03c-.012.051-.022.1-.033.157h-.062a1.176 1.176 0 00-.032.1c-.032.01-.064.018-.1.03-.031.044-.063.083-.094.128h-.094v.061c-.179.021-.105.082-.19.126h-.127v.034c-.032.008-.063.019-.1.031v.064h-.031l-.031.061h-.063a1.567 1.567 0 00-.064.1h-.064l-.031.06h-.048v.032h-.093l-.032.064c-.021-.012-.042-.022-.063-.032v-.032h-.031v.032h-.158l-.031.093c-.144.007-.139.045-.222.1v.032c-.053-.012-.1-.023-.157-.032a.899.899 0 00-.032.062h-.1a.717.717 0 01-.03.062h-.1v.032c-.063.022-.127.041-.189.064v.031h-.126l-.032.063c-.031.007-.114-.117-.188-.093l-.032.062a.99.99 0 01-.1.031v.032c-.051.019-.057-.03-.063-.032-.075-.016-.081.025-.127.032v-.032a.26.26 0 00-.188-.031v.031h-.063c-.012.02-.021.042-.032.061h-.285v.064a.242.242 0 00-.126.032v.032a.316.316 0 01-.222-.032v.032c-.088.073-.018.086-.189.1v-.064l-.19.032-.031.062c-.032-.021-.063-.042-.1-.062v.032h-.063l-.031.062h-.16v.03c-.041.013-.083.022-.126.032v.032h-.064c-.01.032-.022.064-.031.1h-.032a.2.2 0 00-.253-.1v-.094h-.094v.062c-.063-.01-.126-.019-.189-.032v.032h-.031v-.092a.421.421 0 00-.158-.03c-.045.078-.065.09-.191.094v-.094h-.093c-.012-.032-.021-.062-.031-.094a.789.789 0 01-.443.062l-.031.379h-.032v.283h-.015v.412h-.032v.253h.032v.032h-.032v.346h.032v.032h-.032v.093h-.031v.032h.031v.19h-.031v.032h.031l-.031.283v.57h.031l-.031.347c0 .012-.04.008-.032.064h.032c.024.112-.045.211-.032.283h.032v.1h.031l-.031.349h.031l.032.347c.017.049.106.145.063.253-.021.009-.042.021-.063.031a.71.71 0 00.031.347c.023.084-.026.146-.031.191h.031l-.031.156h.031v.126h-.031l.031.854-.063.031v.031h.032v.094h.031l-.031.286h.031v.251l.064.032a.5.5 0 00-.031.19h.031v.188h-.031v.126a.585.585 0 01.031.287h-.031v.063h-.032c.012.075.021.149.032.22h.031v.222h.032a1.537 1.537 0 01-.064.317c-.027.1.047.169.031.222l-.064.03c-.031.09.133.39.159.474-.012.314-.023.633-.032.947h.032c.011.041.02.086.031.126h.031l-.031.317h.031l-.031.126h.031l-.031.191v.536h-.031v.128a.381.381 0 00-.064.031c.021.074.041.147.064.219h-.032v.6h.032v.063h.031a27.72 27.72 0 01-.1.633h-.064v.126c-.032.011-.063.022-.1.031-.036.036 0 .014-.063.033-.052.2-.071.05-.188.126-.045.027 0 .08-.033.128h-.031c-.052.064-.062.1-.159.125l-.062.189c-.1-.009-.189-.022-.285-.031-.029-.057-.044-.051-.061-.126h-.064a.236.236 0 00-.064-.125h-.031v-.064c-.021-.012-.042-.021-.063-.034v-.094l-.064-.031c-.021-.1-.043-.188-.064-.284h-.024v-.064h-.031c-.057-.155.029-.226 0-.409a4.5 4.5 0 000-.663 3.463 3.463 0 01-.032-.885h.032c.022-.086-.033-.162-.032-.189h.032v-.317h.031v-.188h.031l.031-.665a3.249 3.249 0 00.1-.916l.031-.348c-.041-.265 0-1.071 0-1.546v-.57h-.031v-1.713a3.551 3.551 0 01.031-.819c.063-.223-.045-.6 0-.761h.032v-.568h.031c-.011-.022-.022-.041-.031-.064.049-.121-.007-.293.031-.443h.032c-.012-.019-.022-.041-.032-.062h.032v-.443h.032v-.5h.031l.033-.6v-.316h.031a.055.055 0 00-.031-.063c.009-.054.02-.106.031-.16a.054.054 0 01-.031-.062h.031c.007-.06-.031-.062-.031-.062.009-.021.02-.042.031-.064h-.031v-.1h.031c-.011-.034-.021-.063-.031-.1.009-.031.02-.063.031-.093h-.031v-.918h-.033v-.031h.033v-.029h-.033v-.887h-.031v-.442a69.34 69.34 0 01-.032-.789h-.032v-.7h-.031l.031-.1c-.108-.289-.007-.8-.093-1.105v-.727h.031v-.03h-.031v-.632s-.033.007-.032-.063h.032v-.034h-.032c-.061-.278.042-.7 0-.882h-.031c-.012-.18-.021-.36-.032-.537h-.031v-.16h-.037v-.126h-.031v-.064h-.032v-.124h-.031v-.066h-.031v-.06l-.063-.034v-.062h-.033V18.3h-.03v-.1l-.064-.032-.032-.125h-.032l-.031-.128h-.033v-.071h-.031v-.064h-.026c-.012-.054-.021-.106-.031-.158h-.032v-.1h-.037v-.157a1.259 1.259 0 01-.065-.632h.032l-.032-.379h.032v.064l.222.189.189.033v.03h.1v.033l.127.031v.031h.1v.032h.064v.032h.063c.009.021.02.04.031.063l.128.031.125.191h.063l.032.092h.031a.267.267 0 01.063.128c.14.04.083.075.16.156l.188.16v.061l.063.033c.012.041.02.084.032.126.032.019.063.041.1.062l.031.16h.032c.05.146-.048.193 0 .346h.031v.094h.032v.1h.031v.189a.756.756 0 01.064.284h-.031v.034h.031v.062h.032c.006.037-.05.053-.032.125a.648.648 0 01.032.317l-.064.032v.442h-.032v.032h.032v.252h.031v.032h-.031v.631c-.022.012-.042.021-.064.031-.035.082.028.182.031.222h-.031v.064c-.015.03-.079 0-.063.092h.031v.066h.032v.188h.031v.03h-.031v.064h-.032l-.031.252h-.032v.5h-.031l.031.381h-.031c.01.052.021.1.031.156h-.031v.16h.031v.125l-.031.1a.073.073 0 01.031.064h-.031v.031h.031v.475h.032v.126h-.032l.032.1s-.052.007-.032.092h.032v.285a.359.359 0 00-.032.189.612.612 0 01.032.284h-.032l-.031.505h.031v.032h-.031v.571c.115-.045.23-.087.347-.129.031-.041.063-.084.1-.124h.063l.064-.1h.063c.031-.041.064-.082.093-.123.071-.07.16-.079.191-.192h.062c.045-.078.118-.1.16-.156.011-.032.021-.066.031-.1.032-.02.064-.042.1-.063V25.2l.1-.064v-.063a.716.716 0 01.062-.031l.031-.1h.031v-.063l.064-.032v-.061c.021-.012.042-.022.063-.032v-.064h.031a.332.332 0 00.1-.16h.064c.051-.233.293-.31.347-.5h.063v-.064c.054-.041.107-.084.158-.125v-.032h.064c.074-.084.146-.169.22-.252.155-.155.49-.363.506-.633-.107-.065-.089-.125-.159-.22-.073-.064-.147-.129-.221-.189v-.064q-.046-.03-.094-.064v-.062c-.032-.022-.063-.041-.094-.064v-.062l-.1-.064v-.063c-.02-.012-.041-.02-.062-.031v-.063l-.1-.062v-.064l-.064-.031v-.064l-.063-.03c-.01-.045-.021-.084-.031-.126a1.212 1.212 0 00-.1-.062v-.066a.639.639 0 01-.063-.032l-.032-.124c-.055-.1-.108-.1-.126-.254h-.064c-.014-.16-.081-.152-.126-.253v-.093h-.032v-.066h-.031v-.061h-.031c-.021-.063-.041-.128-.063-.19h-.032c-.021-.1-.042-.189-.063-.284h-.032v-.1h-.03v-.062h-.032v-.126h-.032v-.062h-.048v-.122h-.031v-.1h-.031l-.063-.347h-.032v-.126h-.031v-.19h-.031v-.127h-.031v-.222h-.033v-.347h-.03c.009-.062.021-.125.03-.188h-.03v-.57h.03l.064-.758h-.031v-.03c-.2.008-.4.02-.6.03v.033h-.157v.031h-.1v.031h-.316v.032h-.159v.032a.258.258 0 01-.188.031v-.031h-.062c-.012-.021-.021-.043-.033-.064h-.19c-.009-.021-.021-.041-.031-.062h-.094a.75.75 0 01-.032-.063h-.063v-.033h-.1v-.032c-.111-.088-.055-.143-.253-.157l-.033-.126H60.8a2.033 2.033 0 00-.03-.093c-.042-.033-.085-.063-.128-.1v-.064h-.031c-.021-.029-.041-.062-.064-.094h-.061c-.021-.032-.043-.062-.064-.1l-.127-.031c-.083-.1-.169-.188-.251-.284h-.033v-.063h-.063v-.063c-.1-.057-.093-.13-.159-.221l-.094-.064-.032-.125c-.041-.033-.083-.064-.125-.1v-.064c-.032-.02-.064-.042-.1-.063v-.1l-.063-.031v-.063h-.031l-.031-.6h-.031a.457.457 0 01-.064-.251c.117-.025.218-.14.379-.1v.032h.127v.031h.063v.033l.126-.033v.033h.189v-.033c.065-.02.127-.042.19-.063v-.03l.127-.032.031-.065c.042-.008.084-.02.125-.03.021-.032.043-.063.064-.1h.1c.022-.032.043-.063.063-.1.033-.01.063-.021.1-.03v-.034l.127-.031c.012-.022.02-.042.031-.064h.064c.009-.021.021-.043.031-.062h.063c.012-.021.021-.044.032-.064.041-.009.083-.022.126-.031.011-.021.021-.043.033-.063l.093-.033v-.004l.192-.06c.01-.025.021-.045.03-.064h.063v-.031h.064v-.031h.064v-.032h.063l.031-.062h.1l.031-.064h.1v-.032h.063v-.03a2.65 2.65 0 01.19-.064v-.03a.188.188 0 01.157 0c.021-.033.043-.064.064-.094l.189-.034.031-.064h.1v-.029l.127-.033v-.031l.189-.031v-.033c.053-.011.106-.022.158-.031v-.032h.063v-.03c.042-.013.083-.021.126-.032v-.032l.316-.062v-.032l.222-.031v-.03h.1v-.039h.126c.156-.049.379-.079.537-.126h.347c.253-.127.5-.253.758-.379h.157v-.032h.191v-.031l.1.031c.009-.021.02-.042.031-.064.127-.009.252-.021.38-.031a1.444 1.444 0 00.315.1m-11.275 4.266a.411.411 0 01-.1.125c.019.064 0 .027.032.064v.03h.063c.05-.085.078-.056.1-.189l-.1-.029"/><path d="M60.299 29.058c.012-.033.022-.064.032-.1h-.032v-.062h-.031a29.69 29.69 0 01-.032-.221l-.094-.064v-.062h-.031a.5.5 0 01-.126-.221.357.357 0 01-.158-.1v-.032h-.063c-.012-.019-.022-.044-.032-.064h-.031l-.031-.062h-.064c-.02-.031-.041-.062-.062-.1-.043-.011-.084-.022-.127-.031-.021-.033-.042-.063-.063-.1-.043-.011-.084-.018-.126-.03-.012-.021-.021-.041-.031-.063h-.063c-.012-.021-.021-.043-.032-.064h-.062v-.032h-.1c-.011-.019-.021-.041-.031-.062h-.1l-.063-.1h-.1v-.01h-.064v-.032c-.031-.021-.063-.04-.1-.062v-.062c-.146-.036-.163-.122-.347-.127v-.064a.261.261 0 01-.127-.063v-.031c-.031-.012-.062-.021-.093-.031l-.033-.063h-.125v-.032h-.046c-.01-.021-.021-.041-.031-.064h-.093c-.043-.052-.085-.1-.127-.156a5.234 5.234 0 01-.189-.064l-.1-.126h-.06a7.587 7.587 0 01-.156-.191l-.1-.029-.032-.064h-.064c-.01-.022-.021-.041-.031-.064a3.348 3.348 0 01-.1-.031v-.031h-.1v-.033l-.157-.031v-.029c-.042-.011-.084-.024-.126-.032v-.032h-.094l-.064-.1h-.061c-.012-.02-.022-.04-.033-.062h-.1v-.032h-.064v-.031h-.093v-.031h-.064l-.031-.063-.126.03v-.03h-.063v-.037h-.063v-.03l-.191-.065v-.029l-.127-.032v-.032h-.093v-.032h-.064l-.03-.063-.127-.032v-.03h-.1v-.032l-.126-.033v-.031h-.1v-.032a3.551 3.551 0 00-.664-.124v-.065c.041-.009.085-.018.127-.031v-.062c.093-.025.067-.05.093-.063h.127v-.033c.042-.01.083-.021.126-.03v-.033c.041-.01.084-.022.125-.031.011-.019.021-.042.032-.064h.064v-.031c.032-.019.064-.04.1-.06v-.1c.126-.016.109-.038.189-.092v-.032a.5.5 0 01.253 0v-.031c.053 0 .071.084.094.093h.19v.031h.158v.031h.221v.032a.251.251 0 00.126.032c.021.076.034.069.065.125.083.013.168.022.251.032v.032h.346c.053.018.174.114.285.064.021-.033.043-.064.064-.1.088-.026.064.074.128.064v-.031h.156v.031c.031-.01.064-.022.1-.031v.031h.189v-.031c.064-.012.126-.019.191-.032v.064c.156-.01.225-.031.441-.031a1.083 1.083 0 01.254-.189v-.1c.052-.009.105-.019.156-.031v-.029h.254v-.032c.042-.013.085-.022.126-.031.041-.053.083-.106.127-.159.041-.009.083-.021.126-.031.012-.021.021-.042.031-.065h.064l.127-.156a.568.568 0 00.063-.033v-.061c.1-.084.19-.171.285-.254v-.1a.68.68 0 00.062-.029c.01-.064.022-.128.031-.192l.063-.032v-.063h.032c.021-.157.042-.313.062-.474h.032v-.125h.031c.012-.041.022-.084.032-.126h.031c-.009-.064-.021-.126-.031-.19h.031v-.049h.033v-.284c.041-.032.083-.062.126-.093.031-.069-.034-.09-.031-.126h.031v-.158h.032v-.189h.031v-.253h.032v-.476h-.032l-.031-.693h.031v-.128h.032c.043-.143-.072-.232-.063-.317h.031a1.93 1.93 0 00-.031-.694v-.189h-.032v-.064h-.031v-.094l-.064-.032c-.011-.052-.022-.1-.03-.157-.033-.021-.065-.044-.1-.064l-.031-.157h-.032l-.029-.128h-.033v-.222h-.032v-.156h-.031v-.064l-.064-.032v-.1c-.031-.021-.062-.042-.1-.061-.075-.115-.018-.173-.189-.222-.021-.085-.043-.072-.063-.159a.566.566 0 01-.221-.158v-.03h-.064l-.031-.061-.1-.033v-.031h-.064a3.434 3.434 0 00-.1-.126h-.1c-.031-.041-.063-.084-.1-.125a2.579 2.579 0 00-.126-.032c-.011-.021-.021-.043-.033-.064h-.061l-.032-.064h-.063v-.031h-.1v-.033h-.1v-.032h-.064v-.031h-.062a.658.658 0 01-.031-.064c-.042-.009-.085-.021-.127-.031l-.031-.064a.6.6 0 00-.254-.188c-.031-.111-.09-.1-.158-.159-.021-.03-.042-.064-.064-.093-.031-.012-.062-.022-.093-.032-.012-.021-.022-.044-.032-.064h-.1c-.012-.021-.021-.043-.032-.064h-.063v-.031h-.063v-.03h-.159v-.031h-.061c-.012-.021-.021-.043-.032-.064h-.1v-.031h.005v-.033c-.067-.037-.069 0-.126-.064l-.1-.314c-.031-.022-.062-.041-.093-.064v-.064h-.031l-.032-.125a2.27 2.27 0 00-.126-.093.763.763 0 00-.031-.064h-.061v-.034c-.03-.018-.064-.041-.1-.062v-.094h-.031l-.159-.189h-.063c-.038-.155-.2-.234-.316-.317a1.455 1.455 0 01-.063-.1h-.158v-.031h-.064v-.034h-.062c.045-.053.008-.075-.032-.124h-.032v-.064H54.8v-.031l-.064.031v-.031c-.052-.044-.1-.086-.157-.126v-.064h-.031l-.064-.092h-.064l-.065-.1h-.061c-.01-.021-.022-.041-.031-.064h-.1v-.032h-.052c-.012-.02-.02-.041-.033-.064h-.092v-.031l-.128-.032v-.031c-.063-.01-.126-.023-.19-.032v-.022h-.062v-.032c-.1-.033-.19-.064-.285-.094v-.034h-.126v-.029h-.064v-.034l-.19-.03v-.033h-.094v-.031h-.1v-.031h-.094v-.032h-.127v-.032h-.062v-.032l-.285-.03c-.336-.117-1.088-.161-1.294.094h-.032v.126h-.031a.645.645 0 00.1.284h.031v.063l.1.063v.064l.094.064c.072.1 0 .147.158.188a.646.646 0 00.127.284c.031.013.063.022.094.034v.062c.052.042.1.085.158.126.065.091.05.128.159.191v.063h.063l.159.222.283.25c.021.1.043.188.065.284h.031v.062c.021.013.042.021.063.033v.064h.031v.093l.16.129v.061c.021.012.041.021.062.031.058.087.074.165.159.223a.493.493 0 01-.126.253l-.064.03v.064l-.064.031-.094.127-.1.064v.06h-.031v.064h-.031v.064h-.032v.031h.032l-.032.189c.124 0 .156-.008.222-.062l.031-.064h.159v-.03a.518.518 0 01.251-.064v-.064c.059.012.064.031.064.031h.315v.033l.159-.033v.033c.064.008.038-.083.126-.064v.031h.062l.032.064.283.034v.03h.255v-.03c.074-.011.249.114.284.155.062.021.027 0 .063.032-.036.02-.049.055-.063.064h-.063v.031h-.1v.032h-.064v.03c-.073.011-.146.024-.22.032v.031l-.127.031v.031l-.284.064v.031l-.188.064v.03h-.065v.031h-.063v.032h-.062v.033h-.1v.03l-.127.033v.031h-.093v.031H53v.031h-.089l-.033.064-.188.032v.031l-.126.032v.03l-.158.032v.032c-.043.009-.084.021-.127.032v.032h-.068v.031h-.064v.029h-.064v.032h-.064v.032h-.063v.032h-.062v.031h-.1v.032h-.063v.031h-.064v.033h-.056v.031h-.063v.031h-.064v.032h-.063v.031h-.063v.032h-.065v.033h-.063v.031h-.064v.031h-.093l-.032.062h-.064v.033h-.094v.031h-.064v.031h-.094l-.032.064c-.148.033-.293.062-.443.094v-.032h-.189V17.9h-.062v-.033h-.127v-.031a.32.32 0 00-.252.064c-.155.041-.215.188-.221.378v.191l-.064.031-.031.251h-.032c.01.064.02.128.032.19h.031v.285l.064.032c.01.083.022.168.031.25h.032l.031.16c.034.077.1.121.126.222h.063v.062c.053.041.107.083.158.126v.064c.031.021.064.04.094.063v.03c.065.033.1-.043.126-.03.033.041.064.084.1.126h.063l.064.1c.094.029.189.061.284.094v-.033c.043.011.137.065.22.033v-.033h.064v-.032c.053-.008.106-.019.159-.029v-.032l.189-.16v-.061l.064-.031v-.064c.073-.064.146-.126.221-.188v-.064c.022-.009.042-.021.064-.031.042-.055.083-.107.126-.159h.064l.063-.129h.063c.012-.017.021-.04.032-.06h.062c.021-.032.043-.064.063-.1h.064l.032-.061h.062c.033-.054.062-.107.1-.158.118-.088.238-.088.317-.223h.063v-.062l.094-.064v-.063l.064-.033v-.03c.043-.012.084-.023.126-.032l.033-.062c.041-.011.083-.021.126-.035.031-.039.062-.082.094-.124h.1l.126-.158h.094v-.031l.1-.033.032-.061c.063-.021.125-.044.188-.064l.16-.19h.125v-.031h.094l.032-.064c.081-.056.054.034.1-.1h.158l.032-.061c.053-.011.1-.022.157-.031v-.033h.1v-.032h.1v-.031h.158l.031-.063.474-.094a1.412 1.412 0 01-.063.885l-.031.313h-.031v.1h-.033l-.188.981-.1.031v.031c-.042.011-.155-.06-.252-.031v.031h-.152v.031l-.221.032v.031h-.064v.032h-.094v.031h-.158v.032h-.1v.032h-.092v.031h-.064l-.033.063-.5.222a.667.667 0 00-.032.063h-.094l-.033.064h-.063v.031h-.062v.031h-.064v.032h-.062v.029a1.176 1.176 0 01-.1.032l-.031.065h-.1v.032h-.062v.031h-.064l-.031.063h-.1c-.011.019-.021.041-.031.062h-.063v.031h-.065v.032h-.063v.031h-.054c-.012.021-.021.043-.033.063h-.062v.033h-.063v.032h-.064v.031h-.1l-.032.063h-.063l-.032.064h-.051v.031h-.1v.033a.958.958 0 01-.284.126v.063c-.164.012-.443.222-.6.16l-.032-.066h-.063a.865.865 0 00-.1.189h-.031l.031.348h.032v.1l.063.03.032.159h.031c.047.034.168-.033.284 0a.959.959 0 00.316.064.253.253 0 00.065.158h.03a1.438 1.438 0 01-.062.473h-.032l-.031.284c-.084.262-.139.591-.222.852v.16c-.045.143-.083.353-.126.506v.25h-.031v.159h-.032v.254h-.031v.22h-.032v.346h-.031v.348h-.031v.347h-.032v.474s-.042 0-.031.063h.031l-.031.253h.031v.538c0 .011.044.007.032.063s-.041-.013-.032.031h.032v.444h.031q.017.362.031.727h-.031v.346h.031v.126h.032v.159h.031v.094h.032c.011.041.021.084.031.128.053.039.106.085.159.124l.031.1h.063v.062l.159.126v.031h.1v.034h.063v.031h.189a.735.735 0 00.346.031v-.031h.192v.031h.029v-.031h.065v-.031h.064l.032-.064a.046.046 0 01.062.031c.1-.009.19-.021.284-.031v-.032l.1-.029.064-.1.251-.032v-.032h.063c.012-.02.022-.043.033-.064h.094v-.03c.053-.009.1-.022.157-.032.039-.129.021-.041.1-.094.011-.022.021-.045.032-.064h.063v-.031h.062l.032-.063c.1-.06.078.056.127-.094.064-.02.026 0 .064-.031.085-.024.071-.009.092-.1a.4.4 0 00.255-.25h.062c.035-.123.1-.1.128-.222.114-.031.141-.133.157-.254.237-.055.284-.188.379-.378a.5.5 0 01.253.1c.022.031.041.064.062.093h.065l.031.065h.032l.062.093h.063l.032.064h.064l.093.126h.065l.03.063.128.032.093.126.189.064c.012.02.021.041.032.064h.063l.031.062h.063c.012.021.021.045.031.064h.1l.032.064h.063v.031h.064v.032h.063v.032c.053.009.1.021.158.032l.063.094c.042.012.084.021.127.031.02.032.041.063.063.094h.062v.032h.064v.032h.1l.031.063h.065v.031h.063v.032h.062v.03h.064v.032l.189.064a.082.082 0 01.094-.032v.032h.064v.032h.063c.021.03.041.062.063.1l.252.029a1.019 1.019 0 00.6 0v-.029h.064v-.038h.094v-.032c.075-.009.148-.02.221-.03l.1-.158h.064v-.032c.051-.009.1-.023.156-.031l.094-.159h.064a.262.262 0 01.064-.126h.033v-.062a.708.708 0 01.061-.032v-.032l.064-.032v-.063c.021-.008.042-.021.063-.031v-.126h.032v-.127h.031v-.062h.032c.034-.1-.031-.234-.032-.284m-6.76-7.2h.063v-.064c.317-.074.593-.417.948-.25l-.159.5c-.02.012-.041.021-.062.031-.011.033-.022.063-.031.1l-.1.032-.062.094a.469.469 0 01-.221-.032v-.032h-.1l-.031-.062h-.094a17.635 17.635 0 01-.158-.221h-.033l.033-.094m-1.233 1.958c.031-.021.064-.043.1-.063v-.1h.031v-.064h.031v-.063a.485.485 0 01.062-.031l.064-.285h.031v-.064h.031v-.063c.022-.009.042-.021.064-.032.031-.082.064-.165.094-.252h.126v-.031h.1c.05.076.093.05.126.1v.062l.063.033v.064l.1.061v.063h.032v.127c.02.012.042.019.063.032v.061h.031v.032h-.059c0 .1.012.086.063.127v.094a1.671 1.671 0 01-.284.127v.03h-.064v.033h-.062v.032H53v.029c-.065.021-.127.041-.19.064v.03h-.094v.033h-.064v.032c-.1.047-.141.009-.221.093a.436.436 0 01-.159-.03l.031-.285m1.865 3.918h-.031v.063c-.052.044-.106.084-.157.126v.064c-.034.021-.064.044-.1.064v.063l-.063.031v.064c-.074.062-.147.128-.221.191v.061c-.022.01-.042.023-.063.033l-.1.126c-.052.044-.106.085-.157.127l-.031.093h-.064v.035c-.053.04-.1.081-.159.124v.064a.641.641 0 00-.251.188c-.012.022-.021.043-.033.064h-.062a.664.664 0 00-.032.064h-.063l-.064.093h-.062v.033h-.063c-.01.019-.022.04-.032.063h-.064v.03l-.157.032v.031h-.221v-.031h-.031l-.032-.222a.051.051 0 00.032-.062h-.032v-.159h-.031c-.012-.136-.021-.274-.032-.41h-.032c-.01-.044.009 0 .032-.031v-.032h-.032v-.126h-.031a.083.083 0 01.031-.1.628.628 0 00-.031-.285v-.252h-.018v-.063h-.033c.012-.1.021-.212.033-.317h-.033v-.064h-.031v-.028h.031c.012-.156.021-.314.033-.473-.012-.085-.021-.168-.033-.251a.961.961 0 01.064-.034v-.253l.063-.03v-.253h.032l.063-.188h.031v-.222a.828.828 0 01.158-.379 1.321 1.321 0 01.317-.064.085.085 0 00.094.032v-.032h.064V25.3c.069-.017.173.066.284.031.115-.052.232-.1.348-.158.042.055.084.106.126.158h.032c.01.043.02.088.032.129h.031v.124h.031l.031.127h.031l.033.286h.031v.093h.031v.061h.032v.1h.03c.012.04.021.083.033.124h.031v.094h.031v.064h.032v.1h.031v.064h.031c.012.064.022.126.031.188h.033c.011.042.02.087.03.127h.034v.126h.03v.064h.031c.011.043.022.085.031.127a.994.994 0 01.16.314c-.04.032-.032.057-.063.1M14.955 2.39v-.637a.408.408 0 00-.037-.189.252.252 0 00-.144-.107 1.343 1.343 0 01.147-.262.229.229 0 01.192-.083.676.676 0 01.32.066c.082.044.123.1.123.153a.91.91 0 01-.02.094 4.615 4.615 0 00-.107.707c.05-.026.093-.045.129-.06a.313.313 0 01.11-.021.343.343 0 01.225.083.224.224 0 01.1.163.336.336 0 01-.159.246 2.3 2.3 0 01-.455.259l-.074.959.581-.4a2.112 2.112 0 01-.359.641q-.262.337-.426.508a1.029 1.029 0 00-.1.1l-.084.108c-.06.073-.12.139-.178.2a.29.29 0 01-.2.093c-.1.013-.187-.041-.271-.164a2.306 2.306 0 01-.245-.549 1.207 1.207 0 00.405-.08 3.107 3.107 0 00.486-.233l.029-1.017-.32.078a.345.345 0 01-.21-.13 3 3 0 01-.3-.417l.178.013a1.788 1.788 0 00.339-.031 1.914 1.914 0 00.317-.088m2.128-.188l.468-.265.036-1.2a.313.313 0 00-.031-.15.181.181 0 00-.1-.083.558.558 0 01.128-.186.268.268 0 01.182-.06.4.4 0 01.227.06.17.17 0 01.089.141c0 .013 0 .055-.013.126q-.038.536-.051 1.069a.439.439 0 00.051-.029.449.449 0 01.055-.03c.118-.075.224-.137.316-.185a.606.606 0 01.284-.073.765.765 0 01.384.107c.115.066.171.128.171.184a.4.4 0 01-.05.164.6.6 0 00-.056.247l-.033.437a18.373 18.373 0 01-.079 1.117 1.594 1.594 0 01-.079.4.6.6 0 01-.16.229.3.3 0 01-.193.084.235.235 0 01-.036 0 .086.086 0 01-.029-.01.464.464 0 01-.213-.178 10.98 10.98 0 01-.291-.407l-.051-.079-.055-.085a1.4 1.4 0 01-.071.491c-.04.1-.093.158-.157.158-.08 0-.141-.056-.182-.171a1.934 1.934 0 01-.051-.51l.032-1.04-.494.327a7.979 7.979 0 00-.019.241l-.016.221-.023.464c-.006.133-.01.246-.01.337v.51a.284.284 0 00.172.3 2.185 2.185 0 00.6.051 8.97 8.97 0 001.066-.051 1.1 1.1 0 00.5-.152.3.3 0 00.071-.21c.007-.1.01-.243.01-.42v-.258a3.052 3.052 0 00.436.707.827.827 0 01.209.391.312.312 0 01-.1.215.728.728 0 01-.325.124 7.294 7.294 0 01-.8.11q-.556.062-1.047.074a1.764 1.764 0 01-.94-.159.807.807 0 01-.284-.736l.026-1.486-.139.019a.459.459 0 01-.249-.093 1.865 1.865 0 01-.307-.278 2.217 2.217 0 00.368-.092 2.151 2.151 0 00.346-.154l.049-.746a.313.313 0 00-.031-.15.242.242 0 00-.1-.1.776.776 0 01.131-.241.229.229 0 01.179-.083.477.477 0 01.251.069.2.2 0 01.114.169zm.92-.019l-.042 1.269a1.593 1.593 0 00.24.074 2.922 2.922 0 00.326.051l.071-1.75zm3.954.568l.022-.255a.275.275 0 00-.031-.147.1.1 0 00-.089-.046.645.645 0 01.122-.186.229.229 0 01.163-.06.487.487 0 01.141.021.791.791 0 01.143.06q.3-.516.417-.746a1.125 1.125 0 00.146-.358c0-.054-.016-.084-.05-.091a.2.2 0 01-.1-.061.617.617 0 01.144-.093.376.376 0 01.153-.032.537.537 0 01.377.155.427.427 0 01.166.294q0 .119-.31.352a7.666 7.666 0 01-.933.581.164.164 0 01.039.06.213.213 0 01.012.073l-.039.3.149-.039a.483.483 0 01.13-.019.294.294 0 01.185.056.153.153 0 01.073.115.342.342 0 01-.146.239 1.218 1.218 0 01-.429.229l-.062.484.22-.085c.067-.027.126-.049.178-.067.093-.032.163-.059.212-.08s.073-.05.073-.084l-.033-.074a.659.659 0 01.35.083.226.226 0 01.131.183c0 .083-.055.151-.165.2a4.863 4.863 0 01-.494.183l-.262.086c-.095.032-.2.065-.31.1a2.563 2.563 0 01-.551 1.132 2.276 2.276 0 01-1.028.647 3.984 3.984 0 00.688-.751 2.96 2.96 0 00.41-.864 4.891 4.891 0 00-.622.259.953.953 0 01-.291.107.154.154 0 01-.131-.079.428.428 0 01-.054-.237.5.5 0 01.057-.255c.037-.064.08-.134.127-.21a.276.276 0 00.066.141.15.15 0 00.108.047 1.916 1.916 0 00.248-.049c.173-.039.377-.093.611-.165l.051-.475a.73.73 0 01-.153.045.966.966 0 01-.157.012.529.529 0 01-.361-.119 1.579 1.579 0 01-.294-.4l.245.049a1.392 1.392 0 00.291-.042 3.179 3.179 0 00.449-.132m-.045-1.8l-.53.307a.439.439 0 00.1.274.251.251 0 00.222.062 1 1 0 01.048.157.657.657 0 01.017.147.642.642 0 01-.072.339.237.237 0 01-.212.112.3.3 0 01-.249-.129.534.534 0 01-.1-.329.845.845 0 01.053-.278 2.268 2.268 0 01.154-.336c-.093.051-.2.1-.308.157s-.233.1-.36.159c.067-.062.133-.123.2-.182s.131-.118.193-.176q.5-.449.827-.752a3.6 3.6 0 00.455-.491 4.005 4.005 0 01.574.119c.125.05.188.121.188.213a.322.322 0 01-.069.178.361.361 0 01-.25.132 2.1 2.1 0 00-.35.081 3.445 3.445 0 00-.461.2.419.419 0 00.144.189.391.391 0 00.217.056l.194-.007a1.25 1.25 0 01-.139.449.261.261 0 01-.213.132.313.313 0 01-.227-.116.415.415 0 01-.108-.294 1.013 1.013 0 01.016-.182c.012-.06.025-.122.042-.189m.491 3.288a2.315 2.315 0 01.57.239.451.451 0 01.2.41.368.368 0 01-.073.244.232.232 0 01-.186.085c-.122 0-.227-.08-.317-.242a2.215 2.215 0 01-.19-.736M24.173.399l-.026-.117a1.985 1.985 0 01.236-.131.513.513 0 01.21-.05.263.263 0 01.183.06.206.206 0 01.066.16.752.752 0 01-.064.278 2.436 2.436 0 01-.194.342 5.223 5.223 0 00.737-.284l.058-.032.05-.012a.241.241 0 01.056-.007.409.409 0 01.245.088.238.238 0 01.12.176.181.181 0 01-.023.059 6.517 6.517 0 00-.17.92c-.022.118-.041.221-.059.307a.9.9 0 01-.068.217.275.275 0 01-.1.124.294.294 0 01-.164.04.131.131 0 01-.107-.046.2.2 0 01-.031-.138.8.8 0 01-.209.081 1.025 1.025 0 01-.239.029.572.572 0 01-.2-.039.859.859 0 01-.208-.119v.61a4.745 4.745 0 001.583-.439.76.76 0 01.2-.078.342.342 0 01.222.073.22.22 0 01.088.173c0 .088-.165.2-.494.329a3.05 3.05 0 01-1.147.227.764.764 0 01-.263-.041.491.491 0 01-.193-.127v.635a3.716 3.716 0 001.224-.3 1.355 1.355 0 01.359-.113.6.6 0 01.326.159c.134.1.2.2.2.278a2.587 2.587 0 01-.11.451 7.229 7.229 0 01-.371 1.043 4.154 4.154 0 01-.322.63c-.088.136-.164.2-.227.2a.2.2 0 01-.131-.079 6.782 6.782 0 01-.192-.225 9.996 9.996 0 00-.411-.497c.15.028.276.047.384.059s.185.016.236.016a.28.28 0 00.233-.171 1.914 1.914 0 00.184-.523.356.356 0 01-.158-.01.593.593 0 00-.159-.022.715.715 0 00-.416.191.478.478 0 01-.233.119.328.328 0 01-.19-.093 1.428 1.428 0 01-.245-.284l.329-.032a.968.968 0 00.561-.152.841.841 0 01.485-.151l.132.007.071-.372c0-.118-.151-.131-.456-.038a2.986 2.986 0 01-.846.165.571.571 0 01-.14-.017.463.463 0 01-.131-.051.873.873 0 01-.075.346c-.042.079-.093.119-.151.119q-.058 0-.121-.1a.467.467 0 01-.063-.255c0-.079.007-.277.02-.594.021-.433.055-.928.1-1.489a3.391 3.391 0 01-.284.315 3.283 3.283 0 01-.351.3 5.047 5.047 0 00.662-1.337 2.85 2.85 0 00.183-.762m-.151 4.247l.226-.02a1.739 1.739 0 00-.063.164c-.016.05-.031.1-.043.134a.962.962 0 01-.069.188.151.151 0 01-.148.069.511.511 0 01-.332-.119.332.332 0 01-.132-.236.28.28 0 01.076-.172c.05-.062.12-.139.208-.231a.363.363 0 00.111.169.263.263 0 00.167.054m.265-3l-.02.61c.142-.045.317-.112.523-.2a1.135 1.135 0 01.317-.1l.069.012.045-.384a1.006 1.006 0 01-.284.176.69.69 0 01-.2.056.622.622 0 01-.223-.044.889.889 0 01-.222-.124m.207-.569l-.194.313-.012.223a1.239 1.239 0 00.307-.146.675.675 0 01.309-.114.594.594 0 01.212.031.2.2 0 01.111.088l.032-.384a2.123 2.123 0 01-.259.071 1.05 1.05 0 01-.2.022.718.718 0 01-.188-.022.267.267 0 01-.128-.071m4.418 1.339a.446.446 0 01.348.149.525.525 0 01.133.362.418.418 0 01-.139.322.491.491 0 01-.342.126.453.453 0 01-.34-.136.517.517 0 010-.688.45.45 0 01.342-.136m3.506.233l-.032-.64a.526.526 0 00-.1-.308.33.33 0 00-.267-.082.92.92 0 01.233-.12.724.724 0 01.229-.039.669.669 0 01.42.129.38.38 0 01.168.308 1.186 1.186 0 01-.036.251 2.688 2.688 0 00-.055.369l1.334-.31.08-.966a.246.246 0 00-.1-.184.458.458 0 00-.244-.05 1.313 1.313 0 01.278-.19.616.616 0 01.271-.064.553.553 0 01.346.1.3.3 0 01.139.237.524.524 0 01-.016.121.911.911 0 01-.052.144l-.164.74.079-.013.073-.013c.176-.034.31-.064.4-.088s.136-.059.136-.1a.121.121 0 00-.022-.056.563.563 0 00-.062-.083c.123.017.238.036.346.055a2.073 2.073 0 01.333.091.538.538 0 01.183.121.241.241 0 01.082.169.2.2 0 01-.1.159.668.668 0 01-.269.08c-.327.035-.573.064-.737.091q-.284.041-.536.093a5.415 5.415 0 01-.336 1.276q-.2.417-.448.417-.114 0-.233-.323a3.62 3.62 0 00-.239-.561.839.839 0 00.186.145.36.36 0 00.166.045c.1 0 .183-.072.246-.217a2.8 2.8 0 00.145-.681c-.278.06-.528.118-.751.174s-.416.11-.58.161l-.051.769a1.488 1.488 0 00.178.837.815.815 0 00.7.249 3.647 3.647 0 00.784-.081 3.019 3.019 0 01.651-.081.825.825 0 01.484.155c.131.085.2.166.2.242a.226.226 0 01-.092.156.928.928 0 01-.276.134l-.662.232a.41.41 0 00.1-.1.19.19 0 00.034-.1q0-.056-.092-.1a.647.647 0 00-.26-.042.872.872 0 01-.1.007c-.293.017-.579.026-.862.026q-.785 0-1-.36a2.7 2.7 0 01-.218-1.294v-.484a2.889 2.889 0 01-.355.1 1.618 1.618 0 01-.3.032.766.766 0 01-.51-.162.728.728 0 01-.239-.458 1.312 1.312 0 00.232.076 1.109 1.109 0 00.227.024 2.361 2.361 0 00.381-.042q.226-.038.555-.126m5.581-1.275l-.032-.291a1.552 1.552 0 01.365.454 1.113 1.113 0 01.122.518 2.744 2.744 0 01-.038.359 5.381 5.381 0 00-.045.613 1.921 1.921 0 00.177.869c.109.2.224.3.342.3.066 0 .148-.055.242-.165s.217-.267.368-.472l.083-.107c.029-.038.059-.078.088-.122a3.713 3.713 0 00-.172.591 2.57 2.57 0 00-.054.484l.029.339a.311.311 0 01-.1.241.374.374 0 01-.262.1 1.13 1.13 0 01-.871-.542 2.377 2.377 0 01-.459-1.472 6.664 6.664 0 01.145-1.263 2.477 2.477 0 00.074-.432m2.638.629a4.656 4.656 0 011.5.469q.517.294.517.649a.344.344 0 01-.056.212.19.19 0 01-.157.073.955.955 0 01-.572-.262q-.319-.262-.8-.729l-.205-.2-.218-.215m6.079-.489q-.574.491-1.057.93t-.9.836a5.128 5.128 0 011.013-.407 3.7 3.7 0 01.976-.136 1.433 1.433 0 01.987.318 1.042 1.042 0 01.356.815 1.143 1.143 0 01-.265.688 2.314 2.314 0 01-.959.727 4.349 4.349 0 01-1 .337 8.221 8.221 0 01-1.051.112q.5-.171.847-.317a4.037 4.037 0 00.742-.422 3.83 3.83 0 00.733-.694 1.055 1.055 0 00.239-.51.613.613 0 00-.232-.479.865.865 0 00-.588-.2 2.593 2.593 0 00-.843.146 2.7 2.7 0 00-.758.442l-.144.138c-.045.042-.088.08-.128.114a3.224 3.224 0 01-.263.242.349.349 0 01-.218.09.277.277 0 01-.219-.132.581.581 0 01-.1-.339.463.463 0 01.129-.323 3.006 3.006 0 01.329-.3c.031-.027.06-.053.093-.078a1.169 1.169 0 00.1-.083q.358-.3.791-.743t.988-.956q-.449.226-.662.31a1.435 1.435 0 01-.494.113.652.652 0 01-.475-.2 1.094 1.094 0 01-.28-.556 1.641 1.641 0 00.34.177.907.907 0 00.316.059 1.935 1.935 0 00.455-.071 4.217 4.217 0 00.662-.259.936.936 0 00.242-.148.285.285 0 01.182-.084.277.277 0 01.153.054c.052.036.114.08.185.134a2.087 2.087 0 01.173.153.185.185 0 01.063.125c0 .047-.04.1-.121.15s-.193.128-.335.225m4.094 3.845a.886.886 0 01-.118.459.4.4 0 01-.353.145.714.714 0 01-.449-.171 1.758 1.758 0 01-.41-.53 2.5 2.5 0 01.656.11 1.108 1.108 0 00.242.048 1.165 1.165 0 00.187-.016c.071-.011.153-.026.246-.045m-1.014-1.162a5.284 5.284 0 00.446-.52c.135-.179.262-.356.38-.533a1.416 1.416 0 00-.32.128.374.374 0 01-.168.066.3.3 0 01-.167-.091c-.069-.06-.172-.14-.3-.241a5.058 5.058 0 00.952-.317.791.791 0 01.213-.081.741.741 0 01.349.1c.133.067.2.128.2.184a.253.253 0 01-.054.121 2.391 2.391 0 01-.153.2 4.105 4.105 0 01-.552.527 3.327 3.327 0 01-.823.457m1.211-3.168V.875a1.7 1.7 0 01.022-.274 1.118 1.118 0 01.083-.274 2.627 2.627 0 00.1.333 2.948 2.948 0 00.141.322l.726-.119q.04-.159.062-.278a1.179 1.179 0 00.022-.193.094.094 0 00-.022-.071.281.281 0 00-.081-.042.665.665 0 01.213-.205.476.476 0 01.236-.066.323.323 0 01.234.11.307.307 0 01.108.2.272.272 0 01-.079.146 1.747 1.747 0 00-.176.276 2.512 2.512 0 00.286-.1.462.462 0 01.183-.048.6.6 0 01.337.111c.112.075.166.13.166.167s-.027.078-.083.117a.577.577 0 01-.242.086 4.05 4.05 0 01-.406.071q-.188.022-.479.061a3.94 3.94 0 01-.284.478c.065-.024.12-.043.166-.058a.428.428 0 01.131-.023.511.511 0 01.288.086c.085.057.129.115.129.173s-.05.131-.149.205-.244.179-.432.312l-.157.1-.169.115a.691.691 0 01.285.216.537.537 0 01.086.313 1.955 1.955 0 01-.076.513 3.824 3.824 0 01-.221.6l.5-.113a1.931 1.931 0 01.362-.045.543.543 0 01.359.132.311.311 0 01.139.226.186.186 0 01-.11.174.821.821 0 01-.313.069q-.656.048-1.463.181a3.867 3.867 0 01-.4.051.287.287 0 01-.135-.029.4.4 0 01-.111-.09 1.358 1.358 0 01-.108-.159 3.598 3.598 0 01-.121-.219 2.446 2.446 0 00.455-.011 6.73 6.73 0 00.549-.086l-.026-.028-.026-.027a7.233 7.233 0 01-.21-.229 2.685 2.685 0 01-.236-.32 1.435 1.435 0 00.185.045 1.037 1.037 0 00.193.016.331.331 0 00.275-.1.692.692 0 00.077-.393.419.419 0 00-.233-.4c-.047-.026-.07-.05-.07-.071a.726.726 0 01.083-.158 5.312 5.312 0 00.284-.465 2.526 2.526 0 00-.555.207.715.715 0 01-.223.083.326.326 0 01-.207-.1 9.597 9.597 0 01-.29-.273 2.243 2.243 0 00.488-.088 6.906 6.906 0 00.73-.232l.171-.507-.417.058.036.1a.321.321 0 01.016.1.553.553 0 01-.051.264c-.036.061-.073.092-.113.092a.273.273 0 01-.191-.116.921.921 0 01-.164-.352c-.093.026-.171.048-.236.068a.6.6 0 01-.161.029.541.541 0 01-.291-.1 1.215 1.215 0 01-.313-.327c.155 0 .308 0 .46-.007a4.248 4.248 0 00.461-.051m2.751 4.821a.888.888 0 00.148-.188.349.349 0 00.049-.164c0-.073-.066-.128-.2-.165a2.261 2.261 0 00-.594-.058.951.951 0 00-.329.048.422.422 0 00-.207.162 1.677 1.677 0 01-.23.255.442.442 0 01-.307.1.6.6 0 01-.415-.182.8.8 0 01-.234-.513 2.687 2.687 0 01.649.084 1.282 1.282 0 00.265.048 1.186 1.186 0 00.628-.192 1.358 1.358 0 01.728-.192 2.17 2.17 0 01.891.19c.264.122.4.225.4.313a.166.166 0 01-.086.137.867.867 0 01-.279.079.157.157 0 01-.039.009.2.2 0 01-.039 0c-.083.015-.194.037-.331.064a2.579 2.579 0 00-.469.155m-1.47-3.142l.459.1q.21-.232.323-.384a.459.459 0 00.112-.226.071.071 0 00-.024-.055.165.165 0 00-.063-.036 1.139 1.139 0 01.226-.094.873.873 0 01.239-.032.5.5 0 01.313.1c.091.07.136.136.136.2a.086.086 0 01-.044.083c-.029.017-.09.044-.182.083a.116.116 0 00-.026.016.173.173 0 01-.032.017l-.362.18a2.278 2.278 0 01-.484.178c.118.035.236.074.352.118s.237.093.361.147c.06.03.127.058.2.085s.142.055.213.086l.392.16q.176.073.176.092c0 .035-.079.077-.239.126a2.079 2.079 0 01-.594.08 1.188 1.188 0 01-.523-.246 6.144 6.144 0 01-.927-.781m7.837 1.772a2.025 2.025 0 01-.889.879 2.534 2.534 0 01-1.261.41 1.681 1.681 0 01-1.237-.541 2.207 2.207 0 01-.362-1.522c0-.119 0-.231.007-.336s.007-.2.007-.284a2.558 2.558 0 00-.02-.34 1.971 1.971 0 01-.019-.242.717.717 0 01.042-.248.768.768 0 01.143-.236 2.539 2.539 0 01.24-.265.315.315 0 00.114-.232.617.617 0 00-.164-.336 1.25 1.25 0 01-.291-.746 2.4 2.4 0 01.224.137 1.138 1.138 0 00.26.134 1.862 1.862 0 01.536.31.5.5 0 01.2.33.292.292 0 01-.126.261 1.845 1.845 0 01-.284.155l-.1.05c-.031.016-.069.033-.1.05a.59.59 0 00-.2.174.339.339 0 00-.066.19.919.919 0 00.078.284 1.223 1.223 0 01.132.468c0 .035 0 .1-.013.191a9.703 9.703 0 00-.026.63 1.373 1.373 0 00.294 1.1 1.785 1.785 0 001.021.293 2.476 2.476 0 00.92-.183 4.365 4.365 0 00.952-.537M26.75 37.946c0 .127-.079.228-.239.3a.908.908 0 01-.4.091 1.568 1.568 0 01-.632-.128 2.082 2.082 0 00-.372 1.125.893.893 0 00.361.739 1.35 1.35 0 00.813.275 1.276 1.276 0 01-.356.058 1.175 1.175 0 01-.823-.285 1.006 1.006 0 01-.319-.787 2.615 2.615 0 01.1-.684 3.046 3.046 0 01.255-.647 1.222 1.222 0 01-.456-1.041 1.339 1.339 0 01.079-.462 2.242 2.242 0 00.717 1.089.82.82 0 01.547-.255.784.784 0 01.483.186.551.551 0 01.244.424m-.345.017c-.007-.163-.1-.245-.282-.245a.538.538 0 00-.292.107 1.319 1.319 0 00.574.138m4.887.671a2.337 2.337 0 01-.886 2 3.607 3.607 0 00.536-2.012c0-.449-.086-.675-.26-.675a1.119 1.119 0 00-.509.2 1.076 1.076 0 01-.468.2.385.385 0 01-.249-.085.272.272 0 01-.107-.223.3.3 0 01.026-.128.165.165 0 00.138.091 1.5 1.5 0 00.6-.244 1.614 1.614 0 01.542-.239q.636 0 .637 1.12m-.159-1.6c0 .079-.122.117-.366.117a2.093 2.093 0 01-.308-.032h-.36a2.179 2.179 0 00.292-.165.816.816 0 01-.441-.33 1.509 1.509 0 01.462-.063 1.129 1.129 0 01.483.09.421.421 0 01.239.387m5.595 3.453a1.453 1.453 0 01-1.142-.5 1.981 1.981 0 01-.329-1.238c0-.155.023-.441.069-.861l.079-.668a1.426 1.426 0 00-.149-.579.65.65 0 01.531.7 5.16 5.16 0 01-.112.68 4.439 4.439 0 00-.106.808 1.691 1.691 0 001.157 1.666m.127-2.9a.306.306 0 01-.059.18.169.169 0 01-.147.074c-.058 0-.112-.053-.164-.16a.525.525 0 01-.064-.233.29.29 0 01.032-.127.249.249 0 00.174.084.29.29 0 00.165-.084.639.639 0 01.064.265m.615-.154c0 .134-.051.2-.154.2-.074 0-.14-.1-.2-.292a1.306 1.306 0 01-.079-.393 1 1 0 00.238.212c.128.1.191.185.191.271m4.188 1.664a.584.584 0 01-.271.425 1.151 1.151 0 00-.817.754 1.186 1.186 0 00.191-.541c-.114-.036-.169-.131-.169-.286a.989.989 0 01.058-.351v.228a.176.176 0 00.144.144q.074-.675.074-.886a3.054 3.054 0 00-.293.1.973.973 0 00-.414.249 1.264 1.264 0 00-.058.5.529.529 0 00.021.17 1.276 1.276 0 01-.031.181c-.018.07-.055.109-.112.116a.374.374 0 01-.222-.127 1.066 1.066 0 01-.234-.775 1.506 1.506 0 01.122-.668 1.739 1.739 0 01.079.572c.024.358.085.567.18.627a.286.286 0 00.011-.09 1.8 1.8 0 01.1-.568.8.8 0 01.415-.372 1.884 1.884 0 01.418-.149 6.375 6.375 0 01-.042-.292l-.037.032a.084.084 0 01-.074-.1c0-.092.037-.138.112-.138q.223 0 .281.473c.376.031.563.288.563.769m-.255-.26a.318.318 0 00-.08-.207.214.214 0 00-.18-.091.346.346 0 00-.048 0 7.092 7.092 0 01-.1.851c0 .017-.007.039-.012.063a.444.444 0 00.308-.234.721.721 0 00.112-.387m4.764-.209a2.338 2.338 0 01-.887 2 3.6 3.6 0 00.536-2.012c0-.449-.087-.675-.26-.675a1.122 1.122 0 00-.51.2 1.081 1.081 0 01-.467.2.383.383 0 01-.249-.085.272.272 0 01-.107-.223.3.3 0 01.026-.128.166.166 0 00.138.091 1.5 1.5 0 00.6-.244 1.621 1.621 0 01.542-.239q.637 0 .637 1.12m-.16-1.6c0 .079-.122.117-.365.117a2.093 2.093 0 01-.308-.032h-.36a2.172 2.172 0 00.291-.165.825.825 0 01-.441-.33 1.515 1.515 0 01.462-.063 1.124 1.124 0 01.483.09.42.42 0 01.239.387m6.132 2.275q0 .424-.669.838a4.182 4.182 0 01-1.061.463 6.1 6.1 0 00.791-.68 1.462 1.462 0 00.52-.856q0-.408-.5-.408a1.9 1.9 0 00-.982.3 2.794 2.794 0 00-.775.7.408.408 0 01-.266-.137.441.441 0 01-.1-.288.187.187 0 01.022-.111 1.345 1.345 0 00.142-.107 8.341 8.341 0 001.476-1.789.388.388 0 01-.217.074.42.42 0 01-.335-.154.539.539 0 01-.143-.373.091.091 0 01.053-.1 1.037 1.037 0 01.127 0c-.007.138.079.207.26.207a.86.86 0 00.313-.08A1.948 1.948 0 0151 36.73a.264.264 0 01.175.1.239.239 0 01.09.17c0 .032-.028.069-.085.111a6.851 6.851 0 00-1.066 1.439 2.025 2.025 0 01.754-.164 1.577 1.577 0 01.838.217.792.792 0 01.425.712m4.646-.683a2.338 2.338 0 01-.887 2 3.607 3.607 0 00.536-2.012c0-.449-.087-.675-.26-.675a1.123 1.123 0 00-.509.2 1.085 1.085 0 01-.467.2.388.388 0 01-.25-.085.272.272 0 01-.107-.223.3.3 0 01.027-.128.166.166 0 00.138.091 1.5 1.5 0 00.6-.244 1.623 1.623 0 01.542-.239q.637 0 .637 1.12m-.16-1.6c0 .079-.122.117-.366.117a2.1 2.1 0 01-.308-.032h-.36a2.178 2.178 0 00.292-.165.819.819 0 01-.441-.33 1.508 1.508 0 01.462-.063 1.131 1.131 0 01.483.09.421.421 0 01.239.387"/></g><path fill="none" d="M0 0h70v42H0z"/></svg>