<svg xmlns="http://www.w3.org/2000/svg" width="70" height="13"><g fill="#f08a00"><path d="M.576 8.587a.433.433 0 00.278-.218.452.452 0 00.051-.342.446.446 0 00-.216-.273.418.418 0 00-.348-.055.438.438 0 00-.277.215.457.457 0 00-.048.35.421.421 0 00.222.282.438.438 0 00.338.041zm.969 2.195a.177.177 0 01-.073-.112l-.066-.24-.271-1.194a.3.3 0 00-.144-.218.236.236 0 00-.222.032c-.016.011-.5.449-.5.449l-.073.144-.026.154.046.046s.2.179.226.2a.6.6 0 01.1.21l.125.477.073.339s.049.239.057.269a3.734 3.734 0 01-.017.077l.025.179c.084.193.2.193.268.179l.141-.082.247-.266c.009-.01.189-.275.189-.275a.285.285 0 00.032-.22zm2.001-.284l-.034-.238s.015.119.034.238z"/><path d="M3.794 10.612l-.1-.154-.149.039-.142.037-.125.007s-.12-.034-.142-.039-.083-.069-.083-.069l-.055-.174-.207-.919-.267-1.155c.041-.076.263-.47.263-.47a5.031 5.031 0 00.389-.988 2.358 2.358 0 00.1-.644 1.812 1.812 0 00-.052-.438.954.954 0 00-.292-.491.641.641 0 00-.6-.112.8.8 0 00-.469.335 1.952 1.952 0 00-.264.7 3.306 3.306 0 00-.068.694c0 .1.005.207.011.315a6.2 6.2 0 00.161 1.043s.074.293.1.381l-.445.6h.009l.03.278h.07l.107.021.149-.021.019-.041s.1-.128.2-.252c.051.241.118.571.118.571l.264 1.2-.023.14a.583.583 0 00-.021.261l.01.037.017.012.075.064.155.023.557-.245.379-.156.347-.1v-.032l.026-.254zm-.135.021l-.022-.027H3.63l.044-.108zm-1.208-5a.949.949 0 01.144.33 1.784 1.784 0 01.052.445 2.363 2.363 0 01-.036.4 2.959 2.959 0 01-.243.735 6.509 6.509 0 01-.135-.836 6.648 6.648 0 01-.025-.562c0-.108 0-.206.01-.291 0-.007.07-.208.07-.208l.052-.085c.016-.007.054-.018.115.069zm10.953-2.038a3.307 3.307 0 00-.949-1.717 1.99 1.99 0 00-1.9-.589 1.479 1.479 0 00-.9.577 4.845 4.845 0 00-.612 1.107 3.1 3.1 0 00-.25 1.277 8.02 8.02 0 00.144 1.246 6.176 6.176 0 00.346 1.211 4.826 4.826 0 00.589 1.022l.016.014.164.1h.047c.135-.03.216-.174.265-.288a.643.643 0 00.073-.378l-.071-.151-.2-.222a3.317 3.317 0 01-.427-.713 4.569 4.569 0 01-.382-1.162 3.469 3.469 0 01.114-1.719 1.21 1.21 0 01.894-.94 1.471 1.471 0 011.5.649 4.373 4.373 0 01.86 1.861 4.309 4.309 0 01.038 1.414 4.382 4.382 0 01-.3 1.128 1.843 1.843 0 01-.4.617.98.98 0 01-.48.239c-.031 0-.2.011-1.1-.009a8.141 8.141 0 00-1.457.05s-.059.014-.119.023c-.036-.215-.286-1.811-.286-1.811L8.394 4.9a9.927 9.927 0 00-.266-1.153c-.036-.1-.141-.415-.369-.371a.422.422 0 00-.244.165c0 .009-.724.882-.724.882a2.555 2.555 0 01-.383.357 1.08 1.08 0 01-.29.1.391.391 0 01-.323-.08.548.548 0 01-.195-.342.787.787 0 01-.013-.259l.073-.389-.015-.037-.086-.19-.214.078-.022.02a1.5 1.5 0 00-.384 1.339.925.925 0 00.361.589.793.793 0 00.661.151 1.187 1.187 0 00.687-.376 4.423 4.423 0 00.43-.557.724.724 0 01.209-.239c.015.025.047.112.047.112l.27 1.575.406 2.274a2.425 2.425 0 00-.792.539 2.851 2.851 0 00-.583.974l-.02.053.016.012.086.151.143.027.165-.034.026-.057a1.351 1.351 0 01.463-.564 2.47 2.47 0 01.639-.318l.1.731.121.857.092.488.148.679a1.118 1.118 0 00.236.522.874.874 0 00.31.2.668.668 0 00.354.03l.359-.117a1.416 1.416 0 00.347-.217l.213-.193.158-.255-.018-.032-.043-.222-.225.023c-.01 0-.172.064-.172.064l-.16.052c-.11.023-.219-.087-.32-.316a4.868 4.868 0 01-.3-1.027s-.2-1.082-.264-1.46a4.037 4.037 0 01.895.02 3.734 3.734 0 001.1 0 1.8 1.8 0 00.891-.415 5.877 5.877 0 001.458-2.666 4.372 4.372 0 00.152-1.377 21.36 21.36 0 00-.181-1.106zm3.123 4.201c-.017 0-.209.023-.209.023l-.061.009a.154.154 0 01-.029-.048c0-.025-.159-1.059-.159-1.059a.313.313 0 01.052-.119.461.461 0 00.085-.307c-.03-.195-.288-.225-.385-.243a2.274 2.274 0 00-.559 0 1.349 1.349 0 00-.7.335 3.28 3.28 0 00-.513.584 4.507 4.507 0 00-.337.561.987.987 0 00-.076.582.984.984 0 00.318.6.731.731 0 00.628.2.822.822 0 00.4-.163l.3-.286s.206-.243.233-.268l.057.387c.046.3.258.3.32.286a.31.31 0 00.226-.2l.115-.156.255-.247c.142-.14.2-.25.182-.351l-.01-.064zm-2 .168a.632.632 0 01-.186-.371.716.716 0 01.161-.541.745.745 0 01.5-.323.265.265 0 01.216.048.394.394 0 01.116.16l.053.229a.875.875 0 01-.11.619.6.6 0 01-.447.293.32.32 0 01-.302-.11zm4.48-.436h-.182l-.267.188a.643.643 0 01-.245.091.287.287 0 01-.2-.071l-.29-.263a1.791 1.791 0 01-.247-.346 1.032 1.032 0 01-.111-.3v-.066a.334.334 0 01.125-.261c.1 0 .38.014.38.014l.456-.021.247-.076.2-.178a.806.806 0 00.164-.266l.053-.268.015-.243-.05-.043-.132-.11-.072.051-.166.11.016.073a.281.281 0 01-.029.135.094.094 0 01-.088.053l-.147.023-.335.02-.345-.009-.355.279-.276.335-.2.291-.133.27.006.012v.323a1.253 1.253 0 00.315.679 1.581 1.581 0 00.569.413.965.965 0 00.618.062 2.725 2.725 0 00.45-.287 1.218 1.218 0 00.346-.353c.008-.009.065-.1-.057-.225zm1.664-.378c0-.027-.027-.247-.027-.247l-.108-1.228a.312.312 0 00-.1-.227.2.2 0 00-.223-.007c-.014.012-.562.369-.562.369a1.406 1.406 0 00-.1.135l-.05.151.039.048s.174.206.2.231a.573.573 0 01.072.227l.052.482.021.353s.013.234.014.275a.992.992 0 00-.028.069v.183c.054.207.174.229.239.218l.151-.062.286-.224c.008-.007.225-.246.225-.246a.271.271 0 00.065-.213l-.111-.166a.185.185 0 01-.055-.121zm-.906-2.276a.479.479 0 00.328.087.411.411 0 00.3-.174.441.441 0 00-.069-.63.435.435 0 00-.638.069.451.451 0 00-.1.335.434.434 0 00.179.313zm3.668.525a.639.639 0 00-.613-.33.924.924 0 00-.422.13l-.356.193-.319.209-.278.247a1.289 1.289 0 00-.278.413 1.149 1.149 0 00-.076.564 1.111 1.111 0 00.49.855 1.41 1.41 0 00.969.247 1.136 1.136 0 00.87-.616 1.863 1.863 0 00.274-1.167 1.574 1.574 0 00-.261-.745zm-1.534 1.279a1.245 1.245 0 01.144-.63c.1-.213.224-.33.362-.342.044-.005.18-.023.337.234a1.443 1.443 0 01.219.653 1.142 1.142 0 01-.112.6.411.411 0 01-.738.073 1.176 1.176 0 01-.212-.589zm4.326-2.035l-.072.037-.183.1.011.076a.259.259 0 01-.034.133c-.011.023-.031.044-.088.052l-.148.007-.334.007-.333-.032-.035.023a1.66 1.66 0 00-.344.243l-.292.319-.213.282-.146.264v.007L24 6.484a1.24 1.24 0 00.277.693 1.6 1.6 0 00.547.447.944.944 0 00.612.091 2.349 2.349 0 00.466-.266 1.1 1.1 0 00.364-.328s.079-.092-.042-.22l-.036-.041-.182-.007-.277.169a.563.563 0 01-.249.078.312.312 0 01-.2-.078l-.275-.279a1.748 1.748 0 01-.228-.362.946.946 0 01-.093-.312.25.25 0 010-.039.337.337 0 01.141-.282c.1 0 .378.034.378.034h.456l.251-.062.213-.165a.776.776 0 00.178-.257l.068-.261.029-.243-.051-.05zm2.736-.159l-.072.039-.186.1.011.073a.263.263 0 01-.038.135.088.088 0 01-.089.043l-.148.012h-.335l-.332-.027-.034.016a2.177 2.177 0 00-.347.239l-.3.314-.218.275-.152.259.006.009-.022.326a1.223 1.223 0 00.263.692 1.5 1.5 0 00.537.458.933.933 0 00.612.1 2.33 2.33 0 00.471-.248 1.18 1.18 0 00.37-.325c.023-.027.061-.108-.035-.231l-.034-.039-.188-.016-.283.179a.5.5 0 01-.247.069.26.26 0 01-.191-.08l-.269-.287a1.615 1.615 0 01-.221-.366.911.911 0 01-.088-.307v-.034a.356.356 0 01.147-.291c.1.012.377.039.377.039l.454.009.251-.057.218-.163a.823.823 0 00.183-.247l.071-.259.034-.249-.049-.044zm2.3.092a1.1 1.1 0 00-.428.1l-.368.172-.335.183-.29.234a1.317 1.317 0 00-.3.395 1.155 1.155 0 00-.113.557 1.143 1.143 0 00.434.891 1.458 1.458 0 00.956.3 1.142 1.142 0 00.909-.557 1.891 1.891 0 00.348-1.151 1.62 1.62 0 00-.215-.763.649.649 0 00-.598-.361zm-1.027 1.552a1.264 1.264 0 01.185-.621c.115-.211.246-.319.385-.323.046 0 .185-.007.326.252a1.494 1.494 0 01.177.669 1.11 1.11 0 01-.15.591.431.431 0 01-.356.248.418.418 0 01-.391-.222 1.149 1.149 0 01-.18-.594zm4.787.203l-.018-.279v-.525l.03-.339.033-.422c0-.05-.025-.211-.3-.211a.545.545 0 00-.273.071l-.475.33-.568.422s-.053.041-.112.1c0-.158.019-.623.019-.623 0-.264-.168-.286-.218-.286l-.252.066-.232.129-.2.14a.3.3 0 00-.125.236.443.443 0 00.141.264.289.289 0 01.083.183l.006.832-.049.222-.058.335c0 .286.161.314.23.314a.857.857 0 00.4-.158c.219-.126.3-.207.3-.3l-.032-.463V6c.076-.059.515-.39.515-.39a.793.793 0 01.329-.156.341.341 0 01.018.135l.006.837-.038.291c0 .019-.035.278-.035.278v.032-.007l.069.2.147.057c.054 0 .131-.013.441-.227.254-.169.356-.3.356-.412l-.075-.2zm2.718-1.187s-.137.011-.171.011c-.044-.059-.166-.238-.166-.238a.637.637 0 00-.5-.3.88.88 0 00-.415.094 3.442 3.442 0 00-.488.293 2.15 2.15 0 00-.523.53l-.011.016-.006.016a1.439 1.439 0 00-.069.438 1.529 1.529 0 00.273.928.924.924 0 00.8.427 1.273 1.273 0 00.682-.166l.361-.231.2-.234a.2.2 0 00.074-.119.234.234 0 00-.081-.19l-.046-.041-.063.01a.242.242 0 00-.16.087l-.384.231a.377.377 0 01-.224.039.324.324 0 01-.176-.064l-.218-.195s-.06-.085-.113-.167c.214-.108 1.722-.887 1.722-.887zm-.919.326a.193.193 0 01-.133.188l-.484.243-.017-.255a.606.606 0 01.085-.312.182.182 0 01.169-.1.525.525 0 01.272.092c.1.062.109.117.109.147zm4.385-2.384a1.142 1.142 0 01-.149-.314 1.226 1.226 0 01-.031-.357.622.622 0 01.261-.518l.014-.009.009-.016a.223.223 0 00.037-.207.209.209 0 00-.162-.128c-.024 0-.112-.009-.112-.009h-.046l-.037.027a1.2 1.2 0 00-.264.266 1.645 1.645 0 00-.413 1v.085a1.6 1.6 0 00.322.958s.523.7.776 1.047a1.832 1.832 0 00-.894.266 1.112 1.112 0 00-.562.917v.071a1.262 1.262 0 00.41.933 1.467 1.467 0 00.965.445 1.057 1.057 0 00.556-.135 1.812 1.812 0 00.492-.4 1.831 1.831 0 00.32-.467 1.347 1.347 0 00.121-.5 1.518 1.518 0 00-.3-.983 281.14 281.14 0 01-1.313-1.972zm-.427 2.833a.561.561 0 01.211-.44.688.688 0 01.481-.144.722.722 0 01.516.323.987.987 0 01.232.674.554.554 0 01-.132.364.455.455 0 01-.349.1 1.117 1.117 0 01-.694-.279.717.717 0 01-.265-.598zm3.291-.947l-.613.259a1.155 1.155 0 00-.119.117l-.041.078-.034.058.031.059.153.266a.6.6 0 01.031.188v.044l-.032.493-.044.346-.036.275a1.019 1.019 0 00-.039.064l-.037.179c.018.211.13.247.2.252l.159-.025.323-.179c.009 0 .265-.195.265-.195a.293.293 0 00.1-.207l-.083-.176a.2.2 0 01-.03-.135l.016-.231c0-.016.113-1.245.113-1.245a.32.32 0 00-.058-.243.214.214 0 00-.225-.042zm.033-1.416a.429.429 0 00-.331.119.452.452 0 00-.155.318.319.319 0 000 .032.428.428 0 00.116.307.494.494 0 00.308.149.46.46 0 00.33-.121.447.447 0 00.156-.31.454.454 0 00-.111-.332.41.41 0 00-.313-.162zm11.115 3.275l.024-.195a.507.507 0 00-.033-.309l-.195-.236-.012.037-.263.1.014.058a.576.576 0 01-.22.385 3.324 3.324 0 01-.694.411 3.181 3.181 0 01-1.016.275 6.59 6.59 0 01-1.371-.048 4.5 4.5 0 01-2.784-1.279 3.008 3.008 0 01-.822-2.551 2.962 2.962 0 011.265-2.2 3.555 3.555 0 012.47-.566 4.234 4.234 0 012.074.821 1.653 1.653 0 01.72 1.6 1.26 1.26 0 01-.658.987 2.025 2.025 0 01-1.333.259 2.375 2.375 0 01-1.3-.566 1.17 1.17 0 01-.449-1.082.988.988 0 01.112-.371.554.554 0 01.169-.206.732.732 0 01.22-.1c.147-.044.227-.115.239-.218a.231.231 0 00-.195-.257c-.024-.007-.248-.034-.248-.034a1.088 1.088 0 00-.92.268 1.342 1.342 0 00-.435.857 1.509 1.509 0 00.714 1.426 3.9 3.9 0 003.909.385 1.864 1.864 0 001.111-1.51 2.114 2.114 0 00-.751-2.015A4.417 4.417 0 0052.195.04a4.739 4.739 0 00-3.475.917 4.2 4.2 0 00-1.813 2.955 3.381 3.381 0 001.1 3.025 5.552 5.552 0 003.226 1.465 6.579 6.579 0 002.622-.151 1.664 1.664 0 001.362-1.42zm3.82-2.071a.884.884 0 00-.185-.506.835.835 0 00-.555-.372 1.071 1.071 0 00-.624.108 2.717 2.717 0 00-.71.493 2.6 2.6 0 00-.625.965 7.1 7.1 0 00-.391 1.465l-.042.243-.475.2.031-.01c-.125.021-.15.174-.162.243a.189.189 0 00.051.188.232.232 0 00.222.044h.034l.01-.012.1-.1a.3.3 0 01.033-.032s.056-.023.1-.034a6.066 6.066 0 01-.031.174l-.2.788a.75.75 0 00-.013.14c0 .227.12.286.2.3a.372.372 0 00.306-.069l.022-.018.018-.048.1-.085.17-.13.246-.151.347-.2a.468.468 0 01.3-.076c.059.014.059.034.062.062a1.66 1.66 0 01-.035.378 3.033 3.033 0 01-.361 1.031 2.034 2.034 0 01-.6.662 1.574 1.574 0 01-.51.257 1.286 1.286 0 01-.373 0l-.356-.131c-.333-.059-.4.131-.418.218a.286.286 0 00.235.371 2.491 2.491 0 00.891-.019 3.135 3.135 0 001.008-.364 2.493 2.493 0 00.872-.823 3.065 3.065 0 00.454-1.183 1.786 1.786 0 00-.036-.855c-.056-.178-.153-.415-.341-.449a.629.629 0 00-.411.131l-.495.314-.3.211c.02-.129.037-.259.037-.259s.076-.491.089-.591a8.048 8.048 0 00.824-.506 5.052 5.052 0 00.969-.859 2.079 2.079 0 00.507-.984.651.651 0 00.011-.12zm-1.039-.343a.31.31 0 01.207.183.543.543 0 01.072.261.506.506 0 01-.007.076 1.8 1.8 0 01-.395.857 4.585 4.585 0 01-.87.768s-.09.053-.182.112c.037-.225.085-.495.085-.495a3.845 3.845 0 01.2-.747 4.921 4.921 0 01.264-.571v-.007a.993.993 0 01.3-.341.445.445 0 01.326-.096zm1.628 2.593c-.02 0-.642.183-.642.183l-.13.1-.092.126.022.059s.1.247.115.279a.556.556 0 01.013.112.611.611 0 01-.012.119l-.09.477-.08.339-.065.271c-.017.02-.045.059-.045.059l-.053.174v.014c0 .2.1.245.163.261l.162-.012.34-.135.286-.163a.294.294 0 00.126-.188l-.061-.19a.191.191 0 01-.018-.135l.046-.247.267-1.187a.3.3 0 00-.037-.254.218.218 0 00-.215-.062zm.024-.509a.474.474 0 00.539-.362.458.458 0 00-.075-.346.41.41 0 00-.293-.192.417.417 0 00-.345.073.46.46 0 00-.2.3.5.5 0 00-.008.092.416.416 0 00.087.261.464.464 0 00.295.174zm3.052 1.178a1.846 1.846 0 00-.524-.19 1.378 1.378 0 00-.774.064 3.4 3.4 0 00-.685.373 4.494 4.494 0 00-.51.406 1.006 1.006 0 00-.273.518 1.1 1.1 0 00-.022.218.971.971 0 00.115.456.731.731 0 00.521.406.758.758 0 00.434-.01l.381-.163.314-.172c-.037.188-.081.383-.081.383a.716.716 0 00-.011.107.283.283 0 00.044.163l.168.108a.294.294 0 00.277-.1l.163-.108.323-.147c.181-.085.271-.174.291-.268l.014-.066-.108-.1c-.009-.009-.2-.053-.2-.053l-.05-.007a.168.168 0 01-.017-.059l.217-1.047a.354.354 0 01.09-.092.472.472 0 00.178-.259c.043-.193-.188-.319-.275-.361zm-1.628 1.544a.338.338 0 01-.254-.21.649.649 0 01-.045-.415.7.7 0 01.339-.445.781.781 0 01.591-.126.255.255 0 01.188.126.4.4 0 01.059.179l-.031.231a.854.854 0 01-.319.537.6.6 0 01-.528.124zm4.829-.973a.581.581 0 00-.283 0l-.542.218-.653.282-.132.069.179-.6a.456.456 0 00.015-.11.2.2 0 00-.159-.222h-.261l-.257.071-.233.087a.3.3 0 00-.177.195.466.466 0 00.071.291.278.278 0 01.032.2l-.186.807-.1.208-.127.31a.351.351 0 00.02.271l.129.089a.967.967 0 00.426-.059c.245-.073.337-.135.359-.225l.063-.459.085-.362.59-.257a.72.72 0 01.369-.069c-.008 0 0 .039-.024.131l-.189.814-.082.291c0 .01-.107.236-.107.236v.009l-.01.02c-.044.19.051.282.152.3.051.013.133.013.486-.115.291-.108.422-.2.447-.321l-.036-.214-.029-.11.045-.275.118-.506.111-.325.128-.395c.013-.048.029-.208-.238-.275zm2.323 1.031v-.117l-.063-.163-.054.007-.427-.11.237-.4a5 5 0 01.444-.548l.04-.044-.011-.009-.027-.195a.224.224 0 00-.289-.087h-.014l-.331.278-.3.291-.3.31s-.1.128-.172.213l-.367-.091-.029.007a.251.251 0 00-.191.2l-.013.044.042.087v-.028.1l.088.055.263.076c-.047.147-.141.461-.141.461l-.229.792a2.231 2.231 0 00-.085.53v.039a.322.322 0 00.245.328.438.438 0 00.257-.044l.548-.236.105-.135.007-.02a.4.4 0 00.01-.083.2.2 0 00-.161-.2c-.015-.007-.037-.014-.037-.082a.283.283 0 010-.032 4.344 4.344 0 01.116-.6l.135-.533c.154.037.505.128.505.128l.032-.007a.247.247 0 00.167-.182zm1.134-.057l-.656.14c-.015 0-.137.091-.137.091l-.1.119.017.064s.083.257.094.287a.377.377 0 01.007.076.608.608 0 01-.023.156l-.124.476-.108.328s-.07.217-.087.265c-.02.021-.051.06-.051.06l-.067.163v.059a.209.209 0 00.146.232h.163l.348-.108c.01-.007.3-.147.3-.147a.278.278 0 00.138-.176l-.048-.195a.182.182 0 01-.006-.135l.063-.243c0 .007.358-1.174.358-1.174a.291.291 0 00-.016-.252.222.222 0 00-.211-.086zm.577-1.169a.435.435 0 00-.276-.218.454.454 0 00-.348.051.461.461 0 00-.217.282.505.505 0 00-.016.124.432.432 0 00.067.232.463.463 0 00.275.2.421.421 0 00.348-.055.445.445 0 00.214-.266.46.46 0 00-.047-.35zm-43.125 4.112h-.115l-.087-.048-.1-.129a1.271 1.271 0 01-.128-.321l-.222-.777a2.448 2.448 0 00-.562-1.011 1.353 1.353 0 00-1.041-.435 1.3 1.3 0 00-.842.3.912.912 0 00-.371.72.534.534 0 00.214.431.746.746 0 00.488.169 1.016 1.016 0 00.6-.178.537.537 0 00.255-.445v-.009l-.012-.023a.045.045 0 00-.041-.025h-.01l-.016-.007-.031.025-.013.062a.443.443 0 01-.2.234.81.81 0 01-.354.069.661.661 0 01-.435-.124.417.417 0 01-.158-.346.566.566 0 01.253-.477.99.99 0 01.591-.188.63.63 0 01.581.275 1.263 1.263 0 01.179.7 1.862 1.862 0 01-.384 1.139 1.1 1.1 0 01-.874.509.416.416 0 01-.247-.1.3.3 0 01-.115-.234.394.394 0 01.064-.172.127.127 0 01.107-.069.684.684 0 00.056-.044.119.119 0 00-.067-.137l-.152-.037a.251.251 0 00-.216.119.467.467 0 00-.073.254.478.478 0 00.2.41.852.852 0 00.5.14 1.236 1.236 0 00.8-.314 1.993 1.993 0 00.556-.784h.554a4.027 4.027 0 00.124.619.732.732 0 00.19.339l.162.108.117.009.232-.025c.082-.023.123-.06.123-.115a.06.06 0 00-.08-.057zm-1.275-1.669a1.321 1.321 0 00-.039-.355 1.421 1.421 0 00-.1-.227.966.966 0 01.279.406 3.673 3.673 0 01.225.786h-.457a1.966 1.966 0 00.092-.61zm2.54 1.529l-.006-.108v-.195l.013-.135.013-.158c0-.014-.01-.062-.094-.062l-.1.027-.18.117-.215.156-.068.062v-.014l.013-.252c0-.088-.046-.1-.066-.1l-.088.027-.087.041-.075.052a.09.09 0 00-.042.071l.047.092.034.082v.314l-.019.085-.023.124c0 .088.046.1.071.1l.142-.053c.078-.051.106-.071.106-.1l-.013-.174v-.139c.02-.018.2-.151.2-.151a.269.269 0 01.138-.062c.008 0 .015.018.015.066v.314l-.013.112-.012.1c0 .087.048.091.064.091l.157-.08c.092-.059.129-.1.129-.147l-.024-.064zm.912-.566s-.151-.007-.207-.007c.014-.052.056-.188.056-.188l.112-.25a.314.314 0 00-.018-.069.073.073 0 00-.093-.007l-.1.133-.083.135-.081.142-.045.1h-.14a.074.074 0 00-.057.08v.007l.022.034.008.009.022.012s.08 0 .119.009c0 .044-.008.195-.008.195l-.011.3.02.209a.1.1 0 00.1.085l.078-.032.167-.124c.009-.016.027-.056.027-.056 0-.059-.031-.083-.062-.083-.01 0-.031 0-.04-.046l-.012-.232v-.222h.2a.071.071 0 00.05-.073v-.009l-.009-.023zm.688.584v-.1l.015-.458a.1.1 0 00-.025-.08.073.073 0 00-.069 0l-.22.112a.25.25 0 00-.033.039l-.022.044.007.013.064.1.015.087v.183l-.005.135-.006.115c0 .007-.013.02-.013.02l-.006.06c.009.064.042.076.065.076l.053-.012.113-.076.091-.075.029-.069-.032-.058zm-.111-.861l.111-.048.048-.1-.048-.112-.111-.046-.109.046-.049.112.049.105zm1.315.126l-.056.025v.023l-.018.059a.051.051 0 01-.047.021h-.055l-.129-.007-.111-.014c-.018.005-.15.085-.15.085l-.116.107-.086.1-.058.087-.015.115a.455.455 0 00.085.259.522.522 0 00.187.172.311.311 0 00.216.048c.006 0 .176-.08.176-.08l.14-.108c.007 0 .02-.032-.009-.071a.212.212 0 00-.056-.016.678.678 0 00-.114.055l-.1.019-.081-.034-.1-.115-.078-.14-.027-.126a.143.143 0 01.078-.133c0 .005.14.03.14.03l.169.012.09-.016.083-.053.069-.088.028-.1.017-.08-.051-.046zm1.294.799h-.028l-.023-.034v-.406l.03-.046.045-.1c0-.057-.068-.08-.118-.1l-.2-.03a.439.439 0 00-.271.087l-.221.183-.154.186a.374.374 0 00.023.433.253.253 0 00.209.1l.152-.032.125-.089.106-.094a.235.235 0 00.021-.02v.176c0 .1.063.108.088.108a.1.1 0 00.081-.048l.055-.053.108-.082c.057-.039.081-.071.081-.1v-.019l-.042-.025zm-.306-.4l.007.087a.357.357 0 01-.08.237.25.25 0 01-.2.087.143.143 0 01-.119-.064.243.243 0 01-.052-.156.329.329 0 01.312-.3.12.12 0 01.091.037zm4.992-2.11a1.024 1.024 0 00-.315-.172 1.162 1.162 0 00-.346-.069 1.874 1.874 0 00-.521.069 1.317 1.317 0 00-.412.236c-.032-.009-.378-.142-.378-.142a1.026 1.026 0 00-.323-.062 1.009 1.009 0 00-.367.069 1.77 1.77 0 00-.655.571.809.809 0 00-.11.422.617.617 0 00.156.415.5.5 0 00.389.179.529.529 0 00.37-.14l.074-.083.008-.071v-.03h-.073l-.112.041-.127.007a.353.353 0 01-.273-.154.485.485 0 01-.13-.321.557.557 0 01.165-.461 1.006 1.006 0 01.255-.163l.215-.034a1.021 1.021 0 01.32.061s.286.117.347.147a1.812 1.812 0 00-.333.484 1.6 1.6 0 00-.11.623 1.372 1.372 0 00.364.979 1.253 1.253 0 00.952.388 1.143 1.143 0 00.7-.232.86.86 0 00.373-.534v-.082c0-.057-.018-.088-.051-.088l-.049.012a.056.056 0 00-.03.053.929.929 0 01-.895.525.894.894 0 01-.742-.346 1.319 1.319 0 01-.277-.837 1.275 1.275 0 01.32-.843c.046.023.648.3.648.3a1.833 1.833 0 00.689.126.689.689 0 00.392-.092.329.329 0 00.146-.291.447.447 0 00-.07-.254zm-.061.33a.121.121 0 01-.079.11.508.508 0 01-.2.041 1.309 1.309 0 01-.5-.1s-.425-.176-.515-.216a1.041 1.041 0 01.664-.245l.255.039.228.119.11.119zm1.338 1.477a.281.281 0 00-.2.1l-.146.184v-.174c0-.1-.047-.112-.075-.112h-.048l-.191.124-.01.007-.009.016-.011.048a.162.162 0 00.02.039l.037.058.027.076.006.1v.243l-.017.1-.035.075c0 .032 0 .092.086.092.007 0 .175-.037.175-.037l.134-.016h.113a.078.078 0 00.08-.087c0-.023-.02-.034-.054-.057-.017 0-.134-.01-.134-.01l-.071-.02a.087.087 0 01-.023-.067v-.193l.141-.151a.178.178 0 01.109-.059.064.064 0 01.045.02l.02.064-.015.055-.1.071c-.035.055-.028.08-.017.1-.006.014.033.025.055.037a.455.455 0 00.1-.044l.116-.1a.334.334 0 00.088-.255.248.248 0 00-.058-.16.165.165 0 00-.138-.067zm1.397.703h-.029l-.024-.034v-.406l.031-.046.045-.1c0-.057-.068-.08-.119-.1l-.2-.03a.441.441 0 00-.27.087l-.221.183-.151.186a.345.345 0 00-.061.2.354.354 0 00.082.232.256.256 0 00.21.1l.15-.032.126-.089.108-.094a.178.178 0 00.019-.02v.176c0 .1.061.108.087.108a.1.1 0 00.081-.048l.057-.053.107-.082c.056-.039.081-.071.081-.1v-.019l-.041-.025zm-.307-.4l.008.087a.351.351 0 01-.08.237.246.246 0 01-.194.087.152.152 0 01-.123-.064.253.253 0 01-.051-.156.332.332 0 01.313-.3.109.109 0 01.089.037zm1.296-.248s-.149-.007-.206-.007l.056-.188.112-.25a.294.294 0 00-.019-.069.072.072 0 00-.092-.007l-.072.1-.026.034-.083.135-.079.142s-.034.071-.046.1h-.141a.077.077 0 00-.056.08v.007l.022.034.01.009.021.012s.08 0 .119.009c0 .044-.008.195-.008.195l-.009.3.018.209a.1.1 0 00.107.085l.078-.032.167-.124.025-.056c0-.059-.033-.083-.064-.083-.009 0-.03 0-.039-.046l-.012-.232v-.222h.2a.07.07 0 00.051-.073v-.009l-.009-.023zm.895 0s-.149-.007-.208-.007l.056-.188.112-.25a.3.3 0 00-.019-.069.07.07 0 00-.091-.007c-.008.007-.073.1-.073.1l-.027.034-.081.135-.08.142s-.034.071-.046.1h-.141a.076.076 0 00-.056.08v.007l.021.034.009.009.021.012s.079 0 .12.009c0 .044-.008.195-.008.195l-.01.3.019.209a.1.1 0 00.105.085l.079-.032.167-.124.025-.056c0-.059-.032-.083-.064-.083-.008 0-.028 0-.037-.046l-.013-.232v-.222h.2a.071.071 0 00.051-.073v-.009l-.01-.023zm.978-.099l-.155.034-.141.057-.125.064-.11.087-.113.135-.046.2a.412.412 0 00.146.328.538.538 0 00.345.122.4.4 0 00.332-.2.67.67 0 00.141-.415.574.574 0 00-.069-.275.232.232 0 00-.205-.137zm-.2.882a.183.183 0 01-.157-.091.446.446 0 01-.063-.234.456.456 0 01.078-.236c.049-.082.1-.126.163-.126s.1.032.133.11a.532.532 0 01.06.252.419.419 0 01-.066.227.173.173 0 01-.148.098zm1.488-.838a.27.27 0 00-.2.1l-.147.184v-.174c0-.1-.047-.112-.075-.112h-.048l-.19.124-.011.007-.009.016-.011.048a.433.433 0 00.041.069l.016.027.027.076.006.1v.243l-.017.1-.035.075a.077.077 0 00.086.092c.007 0 .176-.037.176-.037l.133-.016h.115c.048 0 .076-.034.076-.087 0-.023-.017-.039-.053-.057-.015 0-.134-.01-.134-.01l-.069-.02a.083.083 0 01-.024-.067v-.193c.013-.016.141-.151.141-.151a.176.176 0 01.11-.059.066.066 0 01.046.02l.021.064-.015.055-.1.071c-.036.055-.03.08-.018.1-.006.014.031.025.056.037a.493.493 0 00.1-.037l.116-.1a.331.331 0 00.088-.255.238.238 0 00-.059-.16.176.176 0 00-.139-.073zm.828.639v-.1l.015-.458a.1.1 0 00-.024-.08.076.076 0 00-.07 0l-.221.112a.477.477 0 00-.033.039l-.022.044.009.013.063.1.014.087v.318l-.006.115c0 .007-.013.02-.013.02l-.006.06c.008.064.041.076.063.076l.053-.012.114-.076.092-.075.028-.069-.032-.058zm-.109-.861l.109-.048.047-.1-.047-.112-.109-.046-.111.046-.048.112.048.105zm1.501.925h-.093l-.024-.034v-.406l.03-.046.045-.1c0-.057-.068-.08-.12-.1l-.2-.03a.437.437 0 00-.271.087l-.221.183-.153.186a.373.373 0 00.021.433.26.26 0 00.212.1l.15-.032.126-.089.107-.094a.131.131 0 00.021-.02v.176c0 .1.061.108.086.108a.1.1 0 00.081-.048l.056-.053.109-.082c.057-.039.081-.071.081-.1v-.019zm-.372-.4l.007.087a.351.351 0 01-.079.237.248.248 0 01-.2.087.15.15 0 01-.122-.064.253.253 0 01-.051-.156.328.328 0 01.313-.3.109.109 0 01.089.037z"/></g><path fill="none" d="M0 0h70v13H0z"/></svg>