<svg xmlns="http://www.w3.org/2000/svg" width="237" height="14"><path d="M1.404 3.731c-.6.269-.8.526-.5.835.42.424.8.32 1.888.384.788.046 1.782.013 2.585.022a20.774 20.774 0 01-2.3.289 3.884 3.884 0 00-1.587.729c-.024.013-.78.337-.778.328-.02.1.686.394.816.511.447.4.954.867.914 1.225-.014.128-.179.3-.241.429q.512.173.04.326a.7.7 0 00-.32.22c-.052.251-.155.743.809.906.688.116 2.937-.017 3.715-.01a5.013 5.013 0 01-.711.432c-.4-.3-.761.026-1.07.125q0-.178-.537-.258c-.687.455-2.622.707-1 1.237 1.271.414 3.695.253 5.385.261 3.2.014 6.409-.007 9.606-.015l9.316-.024a26.1 26.1 0 012.719-.015c1 .177.293.44 1.728.516.871.046 1.973 0 2.857.007a4.9 4.9 0 01-.7.426c-.4-.3-.76.027-1.068.126q0-.179-.538-.26c-.638.423-2.447.64-1.209 1.157 1.177.491 3.549.338 5.294.336 3.006 0 6.017.026 9.024 0 5.992-.047 12.058-.054 18.051-.017 12.113.072 24.274-.013 36.391-.024 24.139-.023 48.364.111 72.493-.079 6.765-.054 13.613-.06 20.38-.019 3.357.02 7.133.111 10.446-.037 1.408-.063 4.144-.279 4.388-.777.1-.208-.462-.7-.636-.9-.386-.457-.5-.421-2.22-.469.97-.491 2.426-.289 1.665-.926a2.583 2.583 0 00-.757-.473 3.891 3.891 0 00-.809-.321c6.269.155 12.674.224 18.963.277 3.05.026 6.56.26 9.531.033 1.619-.124 3.532-.281 3.571-.828a1.729 1.729 0 00-.516-.937c-.456-.315-1.007-.292-2.232-.326.454-.229 1.781-.261 2.056-.524.229-.219-.391-.52-.666-.718a8.523 8.523 0 00-3.3-1.132 3.616 3.616 0 00.916-.515.968.968 0 00.209-.338 5.172 5.172 0 00.918-.083c.724-.234 1.363-.075 1.023-.508-.244-.31-.258-.2-1.4-.36-.65-.089-1.239-.32-1.851-.383-.321-.033-1.676.044-2.026.041a316.657 316.657 0 01-3.489-.053c-4.8-.1-9.839-.293-14.687-.258-2.384.017-4.993-.011-7.41-.077-2.3-.063-4.811-.046-7.128-.144s-4.834-.094-7.128-.144c-1.2-.027-2.379.083-3.488-.053a4.924 4.924 0 01-1.089-.188c-.678-.178-.516-.438-1.662-.5.57-.2.613-.394.994-.609.9-.507-.216-.066.694-.275.276-.063 1.356-.128 1.478-.183a1.106 1.106 0 01-.1-.377c-.256-.331.448-.027-.713-.281a26.511 26.511 0 00-3-.43c-1.206-.068-3.014-.037-4.2-.032-1.742.008-3.427 0-5.114.032-6.288.124-12.735.032-19.09.032-12.442 0-25.073-.063-37.517-.064-12.786 0-25.394.006-38.178.064-3.01.013-6.225.035-9.316 0s-6.342.044-9.442-.032C54.366-.091 47.95.101 41.785.029c-3.5-.04-7.063 0-10.48 0-3.529 0-7.045-.015-10.481 0C17.15.045 13.5-.011 9.887.061c-1.74.034-3.5-.03-5.241 0-1.032.018-5.629.687-3.29 1.085-2.507-.4-.808.92-.6 1.1.285.245.755.519.774.74.026.277-.746.449-.126.745z" fill="#fed438" fill-rule="evenodd"/></svg>