<svg xmlns="http://www.w3.org/2000/svg" width="70" height="50"><path d="M48.049 3.751q-.7.227-8.149 2.982l-.249-.408q1.195-.445 3.049-1.156A5.148 5.148 0 0041.1 2.3 4.558 4.558 0 0037.915.548a2.029 2.029 0 00-.45.075v25.193a9.017 9.017 0 007.383-3.688 10.044 10.044 0 002.349-6.784 1.2 1.2 0 01.8-.072 11.085 11.085 0 01-2.648 7.747q-3.153 3.571-9.15 3.573-6.652 0-10.6-3.611a10.959 10.959 0 01-3.65-8.422 11.964 11.964 0 012.249-6.837 19.4 19.4 0 016.254-5.679l.446.3q-5.046 3.837-5.043 10.844a15.548 15.548 0 00.748 5.292 13.142 13.142 0 003.305 4.7l1.05-.858V7.003a6.939 6.939 0 011.7-4.806 7.151 7.151 0 015.647-2.2 9.983 9.983 0 014.548 1.08A8.652 8.652 0 0146.198 3.9a14.333 14.333 0 001.65-.673l.2.521M28.4 14.448l-2.35-1.752 2.35-1.752 1.148.9 1.2.855-1.2.858-1.148.894M36.5.699l-.6.146q-1.6 1.082-1.6 3.8v15.879a10.348 10.348 0 01-2 1.49q-2 1.341-2 1.639c0 .347.764.833 2.3 1.454a9.919 9.919 0 003.052.858 2.28 2.28 0 00.424-.075 2.451 2.451 0 01.427-.077V.697zM1.888 40.8l-.141.314a.711.711 0 00-.078.267c0 .116.088.172.266.172v.189H.001v-.189l.167-.015.133-.1a1.6 1.6 0 00.139-.229c.054-.1.12-.231.206-.4l2.847-6.357c.084-.175.148-.308.189-.4a.554.554 0 00.063-.213c0-.126-.094-.19-.285-.19v-.187h2.3v.187c-.165 0-.249.064-.249.19a.591.591 0 00.076.244c.054.1.123.239.206.416l3.017 6.259c.094.19.167.339.22.442a1.1 1.1 0 00.151.236l.149.1a1.223 1.223 0 00.22.015v.189H7.364v-.189a.41.41 0 00.252-.054l.063-.165-.04-.164a49.762 49.762 0 00-.166-.37l-.6-1.253H2.422l-.532 1.253m4.45-2.283L4.559 34.8l-1.634 3.714zm10.916 2.935a.362.362 0 00.3.1v.189h-2.065v-.189a.362.362 0 00.3-.1.456.456 0 00.078-.277v-7.14a.439.439 0 00-.078-.275.354.354 0 00-.3-.106v-.187h5.27a3.377 3.377 0 012.235.591 2.151 2.151 0 01.677 1.708 2.282 2.282 0 01-.521 1.577 2.672 2.672 0 01-1.7.738l1.982 3.064a1.579 1.579 0 00.278.33.568.568 0 00.337.077v.189h-2.261v-.189a.664.664 0 00.257-.031l.056-.113-.081-.172-1.938-3.08h-2.9v3.018a.451.451 0 00.079.277m3.373-4.364a2.006 2.006 0 001.354-.362 1.284 1.284 0 00.392-.991 1.629 1.629 0 00-.078-.537.77.77 0 00-.282-.37 1.457 1.457 0 00-.56-.221 4.7 4.7 0 00-.9-.072h-3.373v2.553zm9.984 4.466a.367.367 0 00.3-.1.463.463 0 00.076-.277v-7.14a.446.446 0 00-.076-.275.359.359 0 00-.3-.106v-.187h2.069v.187a.353.353 0 00-.3.106.432.432 0 00-.078.275v7.14a.448.448 0 00.078.277.361.361 0 00.3.1v.189h-2.069v-.189zm9.849-.751c-.039.1-.086.2-.138.314a.676.676 0 00-.081.267c0 .116.094.172.267.172v.189h-1.931v-.189l.164-.015.132-.1a1.133 1.133 0 00.145-.229c.052-.1.121-.231.2-.4l2.844-6.357c.083-.175.148-.308.189-.4a.565.565 0 00.063-.213c0-.126-.095-.19-.284-.19v-.187h2.3v.187c-.167 0-.252.064-.252.19a.553.553 0 00.079.244c.053.1.121.239.2.416l3.024 6.259c.091.19.164.339.219.442a1 1 0 00.146.236l.152.1a1.207 1.207 0 00.22.015v.189h-2.186v-.189a.41.41 0 00.252-.054l.062-.165-.036-.164c-.032-.059-.083-.182-.167-.37l-.6-1.253h-4.451l-.538 1.253m4.453-2.283L43.145 34.8l-1.636 3.714zm9.365 1.952a.758.758 0 01.56-.229.771.771 0 01.56.229.735.735 0 01.226.555.675.675 0 01-.226.534.817.817 0 01-.56.2.8.8 0 01-.56-.2.678.678 0 01-.229-.534.738.738 0 01.229-.555zm15.513.152a.3.3 0 00-.239-.111c-.051 0-.159.067-.32.205a4.484 4.484 0 01-.694.45 5.285 5.285 0 01-1.139.437 6.473 6.473 0 01-1.682.19 6.128 6.128 0 01-2.013-.313 4.58 4.58 0 01-1.565-.9 4.159 4.159 0 01-1.017-1.405 4.245 4.245 0 01-.365-1.77 3.577 3.577 0 01.34-1.528 3.93 3.93 0 01.979-1.282 4.845 4.845 0 011.542-.892 5.945 5.945 0 012.036-.331 6.542 6.542 0 011.4.136 9.143 9.143 0 011.071.29c.3.106.553.2.746.29a1.182 1.182 0 00.4.134c.079 0 .135-.01.155-.038l.076-.1.191.126-.975 1.682-.2-.1a.27.27 0 00.078-.2c0-.085-.078-.19-.237-.324a2.762 2.762 0 00-.642-.378 5.684 5.684 0 00-.96-.313 4.956 4.956 0 00-1.179-.134 4.6 4.6 0 00-1.265.181 3.3 3.3 0 00-1.133.559 2.921 2.921 0 00-.814.966 2.992 2.992 0 00-.312 1.409 2.679 2.679 0 00.323 1.3 3.309 3.309 0 00.857 1.012 4.028 4.028 0 001.22.663 4.29 4.29 0 001.405.233 3.556 3.556 0 001.079-.162 4.535 4.535 0 00.9-.4 3.07 3.07 0 00.627-.482.667.667 0 00.237-.4.3.3 0 00-.08-.22l.2-.125 1.166 1.509-.2.142zm-46.936 5.937h1.05v.2h-.847v2.735h.847v.2h-1.05v-3.126zm3.88 1.249c0 .115-.009.221-.016.344a1.81 1.81 0 001.017-1.133h-2.408l-.157.031v-.224l.157.033h2.826a1.872 1.872 0 01-1.456 1.428 1.22 1.22 0 01-.492.858 2.179 2.179 0 01-.939.4l-.034-.092a2.448 2.448 0 00.785-.47 1.116 1.116 0 00.339-.667 3.038 3.038 0 00.042-.494v-.2l-.029-.2.364.028.069.055-.069.091v.205zm3.018-1.128l.367.026.07.062-.071.092v1.728h-.335v-1.7l-.031-.208m.511 2.879a2.052 2.052 0 00.853-.48c.319-.308.406-.6.406-1.346v-.9l-.034-.21.373.023.065.064-.068.09v.908a2.374 2.374 0 01-.172 1.126 1.652 1.652 0 01-.9.705 2.4 2.4 0 01-.493.122l-.027-.105zm4.755-1.751a2.852 2.852 0 01-.018.344 1.8 1.8 0 001.02-1.133h-2.409l-.159.031v-.224l.159.033h2.824a1.866 1.866 0 01-1.454 1.428 1.221 1.221 0 01-.49.858 2.186 2.186 0 01-.943.4l-.031-.092a2.449 2.449 0 00.785-.47 1.09 1.09 0 00.336-.667 2.55 2.55 0 00.046-.494v-.2l-.031-.2.362.028.072.055-.072.091v.205zm3.248.706a2.248 2.248 0 00-.374-.834l.063-.047a1.313 1.313 0 01.6.776l-.285.105m.171 1.042a1.859 1.859 0 001.035-.81 3.6 3.6 0 00.357-.973l.007-.182.338.1.054.054-.077.066a2.6 2.6 0 01-.576 1.265 1.927 1.927 0 01-1.1.581l-.036-.1m.536-1.126a2.32 2.32 0 00-.344-.835l.063-.049a1.37 1.37 0 01.57.776l-.289.108zm4.223-.584a10.5 10.5 0 00.01-.45v-.28c-.482.035-.6.041-.873.041-.116 0-.158 0-.439-.007l-.006-.108a12.9 12.9 0 002.18-.325l.168-.072.189.172.051.1-.074.067a.49.49 0 01-.1-.016c-.385.064-.565.092-.758.11v.316c0 .121-.005.262-.011.45h1.12l.155-.031v.224l-.155-.033h-1.13a1.523 1.523 0 01-.392 1.076 2.265 2.265 0 01-1.161.543l-.029-.1a2.165 2.165 0 00.962-.611 1.487 1.487 0 00.285-.907h-1.354l-.159.033v-.224l.159.031zm2.889 1.838v-.2h.848v-2.735h-.848v-.2h1.051v3.126z" fill="#040000"/><path fill="none" d="M0 0h70v50H0z"/></svg>