<svg xmlns="http://www.w3.org/2000/svg" width="70" height="21"><path d="M18.578 11.284a3.223 3.223 0 00-.754-1.077 3.227 3.227 0 00-.435-2.982s.119-.724-.771-.724a35.819 35.819 0 01-4.2.185c-.23-.011-3.329-.2-3.329-.2s-2.08-1.856-2.14-1.915a.12.12 0 01-.018-.174c.044-.045.607-.383.607-.383s.234-.108.025-.23a1.533 1.533 0 01-.334-.247s-.181-.145.029-.192c0 0 1.64-.466 1.2-1.962a2.2 2.2 0 00-.69-.843s-.284-.13-.247 0 .42.423.457.675c.014.1.227.736-.771 1.26 0 0-.039.106-.59-.285a2.861 2.861 0 00-2.2-.068c-.592.2-.753.006-.753.006s-.236-.34-2.424-.145c0 0-.587.092-.61-.61a1.042 1.042 0 01.616-.885s.207-.189-.069-.145a1.551 1.551 0 00-1.088.8 1.453 1.453 0 001.063 1.936.162.162 0 010 .212c-.1.1-.212.124-.072.264s-.087.183-.087.183-.152.055-.017.192a3.7 3.7 0 001.423.638 8.827 8.827 0 00.387 3.3s-.078 1.973 0 2.8a20.493 20.493 0 00.8 3.207 12.1 12.1 0 00.322 2.056 2.426 2.426 0 01.093 1.243 1.458 1.458 0 00-.117.615l.614.009s-.05-.315 0-.366a.322.322 0 00.1-.238 8.936 8.936 0 010-1 7.762 7.762 0 00.33-2.6s0-.3.191-.109l.7.7s.226.107.359-.027.732-.6.732-.6.276-.239.358.047.174.879.438 1.724a5.167 5.167 0 01-.008 1.8 1.559 1.559 0 00-.155.577l.632-.017v-.313s.169-.036.169-.168-.078-1.224-.078-1.537a14.185 14.185 0 00.248-1.494 7.27 7.27 0 01.026-.816.107.107 0 01.11-.108c.11 0 2.028-.1 2.283-.049a.7.7 0 01.453.249c.132.132.252.357.306.3s.472-.473.472-.473.369-.3.369 0a1.885 1.885 0 00.092.852c.127.242.438 1.151.253 1.473a15 15 0 00-1.116 1.945h.76s-.092-.277 0-.277.344 0 .344-.125a12.806 12.806 0 01.818-1.762.625.625 0 00.092-.815 1.237 1.237 0 01.6-1.6s.334-.151.334.058a.93.93 0 00.333.781c.276.164.736-.055.736-.3s-.092-.587 0-.587.553.347.805 1.532a6.56 6.56 0 01-.414 3.037s.345-.034.438-.034.333-.139.333-.241c0 0 .247 0 .3-.049s-.035-.264-.035-.264a9.1 9.1 0 010-1.726c.1-.483.322-1.426.6-.983 0 0 .1 1.109.1 1.169s.093.287.161.034a9.736 9.736 0 01.323-1.76 4.1 4.1 0 00.188-2.354zm-.447 1.077a2.227 2.227 0 00-.344 1.1c0 .2-.186.045-.186.045-.705-1.164.142-3.052.142-3.052a1.931 1.931 0 01.388 1.907zm14.28-3.814c-.009-.192.121-.3.08-.483-.043-.2-.036-.3-.252-.369a1.28 1.28 0 00-.529-.08c-.111.011-.209.058-.312.07s-.213-.013-.311-.013a2.664 2.664 0 00-.5.1c-.378.06-.711-.159-1.087-.042a1.133 1.133 0 01-.547-.049c-.23-.032-.471-.057-.7-.081-.1-.009-.208 0-.311 0a1.982 1.982 0 00-.354-.011c-.135.028-.2.1-.342.079s-.268-.07-.408-.079c-.2-.01-.4.007-.6 0-.107 0-.148.072-.245.1-.06.019-.164.075-.226.062s-.172-.1-.238-.119a1.185 1.185 0 00-.449-.038c-.128.017-.209.145-.392.017-.047-.032-.058-.083-.118-.1a.417.417 0 00-.137-.011c-.092.013-.078.125-.151.153s-.22-.07-.3-.038a.488.488 0 00-.163.127c-.134.136-.072.279-.055.449.009.1.04.194.046.3a.334.334 0 00.071.239c.141.14.311.123.492.142s.375.032.564.032a1.508 1.508 0 00.264-.023c.083-.013.191.008.266-.036.147-.087.272-.326.472-.319s.254.242.463.253a2.625 2.625 0 01.32-.013c.1.019.122.06.216.1.186.085.35-.06.544-.076a2 2 0 01.576-.013.757.757 0 00.322.055 3.608 3.608 0 01.357-.123 5.076 5.076 0 01.533-.032c.116.009 0 .147.1.219a.476.476 0 00.19.085.772.772 0 00.266-.034c.094-.013.165-.085.255-.113a.884.884 0 01.358-.024 1.112 1.112 0 00.687.049c.085.126-.017.409-.032.562a4.619 4.619 0 01-.035.6c-.035.16-.125.3-.171.449a4.475 4.475 0 00-.137.519 4.862 4.862 0 01-.251.551c-.062.177.027.385-.115.521a1.1 1.1 0 01-.429.306c-.187.04-.318.047-.38.253a.805.805 0 01-.077.206c-.129.219-.395.264-.59.407-.083.062-.118.13-.205.179s-.14.076-.212.114c-.143.075-.375.235-.4 0a1.866 1.866 0 01.058-.575c.067-.325.092-.657.181-.989a4.371 4.371 0 00.036-.519c.042-.283.015-.572.058-.853.015-.1.1-.186.1-.287.144-.079.01-.324-.073-.4-.127-.117-.377-.094-.541-.092s-.364.006-.528.021c-.128.011-.359.151-.336.313.013.083.1.143.125.217a.36.36 0 01-.021.255.617.617 0 00-.055.33c.038.089.1.081.1.2 0 .188-.134.315-.138.507 0 .111.069.168.081.264a2.14 2.14 0 01-.047.345 2.281 2.281 0 01-.161.579.516.516 0 01-.169.221c-.1.1-.083.245-.132.366-.065.161-.164.313-.242.468-.038.074-.021.211-.061.283-.078.141-.215.226-.3.364a3.6 3.6 0 01-.653.876 2.291 2.291 0 01-.494.4c-.159.074-.342.019-.506.094s-.219.21-.376.309a2.294 2.294 0 01-.483.145 2.535 2.535 0 00-.219.134c-.072.04-.145.07-.216.109a2.212 2.212 0 01-.317.123c-.1.023-.205.06-.308.092a3.544 3.544 0 01-.737.181 1.968 1.968 0 00-.3.019c-.1.028-.2.1-.3.119a2.958 2.958 0 01-.6 0c-.277 0-.36 0-.3.249.034.14.11.453.13.587.016.1-.027.166.015.262.064.153.182.354.342.271.078-.042.095-.168.2-.172.073 0 .246.081.333.081a1.048 1.048 0 00.552-.192c.184-.125.219-.259.46-.234a3.081 3.081 0 00.645-.025 1.9 1.9 0 00.536-.145 1.829 1.829 0 00.477-.219 2.133 2.133 0 00.176-.183c.1-.117.119-.326.316-.232.088.042.1.081.21.064a.668.668 0 00.23-.089c.147-.087.261-.228.411-.313a1.171 1.171 0 00.249-.145 3.19 3.19 0 00.272-.255 1.406 1.406 0 00.513-.553.025.025 0 01-.017 0c.042-.047.033-.13.082-.168.067-.049.141.007.2.024.171.053.21-.036.313-.175a3.3 3.3 0 01.325-.342c.1-.106.189-.264.342-.3a.633.633 0 01.5.042c.062.055.1.132.2.125a.591.591 0 00.228-.111c.308-.187.634-.338.954-.5a3.47 3.47 0 00.553-.317 2 2 0 00.391-.453c.094-.121.22-.2.311-.332a2.846 2.846 0 01.333-.36 1.014 1.014 0 00.234-.33c.064-.142.173-.251.226-.4a1.552 1.552 0 01.208-.452.96.96 0 00.164-.517 1.536 1.536 0 01.161-.494c.045-.087.028-.179.072-.262s.084-.1.1-.21a2.316 2.316 0 01.044-.37c.034-.111.045-.221.071-.334s.092-.183.113-.285a1.871 1.871 0 00-.009-.275 5.417 5.417 0 00.027-.559z" fill="#231815"/><path d="M35.96 5.749c.011-.172-.025-.153-.025-.334a2.16 2.16 0 010-.264 1.516 1.516 0 01.058-.187c.206-.106.143-.323 0-.462-.189-.181-.267-.249-.517-.213-.328.049-.97.009-.76.43.016.007.029.164.044.17a1.786 1.786 0 010 .76c-.034.106-.112.174-.15.281-.059.155.025.2.1.3.132.2.01.462-.012.692a9.088 9.088 0 01-.1.728 1.61 1.61 0 00-.067.449 1.057 1.057 0 00.072.211.624.624 0 010 .206c0 .139.074.241.06.377-.007.075-.039.136-.052.213a2.131 2.131 0 00-.012.287v.172c-.04.162-.069.119-.068.273a1.425 1.425 0 01-.1.572 1.835 1.835 0 00-.033.5c0 .168-.112.257-.136.413a3.5 3.5 0 01-.642 1.579 2.417 2.417 0 01-.547.5 1.779 1.779 0 01-.635.349 4.445 4.445 0 00-.6.289 1.664 1.664 0 01-.709.17c-.3 0-.477.006-.662.215-.127.143.054.166.127.253a.741.741 0 01.154.345c.024.162-.076.57.087.657.11.062.257-.025.34-.085a.511.511 0 01.352-.092 1.338 1.338 0 00.629-.2c.09-.045.129-.06.166-.149s-.013-.162.07-.23c.1-.081.318-.023.447-.081s.376-.2.513-.245c.119-.04.311.055.362-.04a1.65 1.65 0 01.431-.515c.078-.062.157-.123.231-.185.139-.119.169-.13.116-.311a.537.537 0 01-.045-.3 2.08 2.08 0 01.164-.349c.105-.175.433-.343.462-.545.018-.115-.085-.235-.147-.322.046-.13.214-.047.312-.115s.182-.417.205-.543c.027-.147-.049-.232-.055-.364s.1-.219.134-.349a1.678 1.678 0 00.02-.341c0 .007.007.009.014.009 0-.125-.08-.217-.051-.347.024-.109.1-.185.119-.3a6.558 6.558 0 00.08-.813c.007-.128.031-.271.029-.4 0-.153-.05-.293-.049-.445s.054-.257.066-.4-.063-.249-.051-.366c.025-.232.3-.211.283-.479-.014-.185-.186-.291-.064-.468.05-.072.11-.038.137-.142a.393.393 0 00-.06-.233c-.015.016-.024-.188-.035-.186zm2.125 7.434c-.141.064-.143-.336-.17-.438-.02-.079-.087-.136-.095-.217s.059-.153.08-.23a1.188 1.188 0 00.011-.53 2.548 2.548 0 01.011-.519c.006-.172-.033-.358-.022-.551a1.439 1.439 0 01.031-.279.483.483 0 00.037-.251 2.369 2.369 0 01.034-.551.663.663 0 00-.045-.264.579.579 0 01-.043-.285 3.982 3.982 0 00.077-.521 1.6 1.6 0 01.026-.572c.039-.087.072-.1.067-.21a1.656 1.656 0 010-.266 3.6 3.6 0 00.022-.539.712.712 0 00-.118-.457c-.031-.041-.058-.024-.076-.073a.626.626 0 01.023-.183c.009-.062.1-.043.132-.075h-.006c.118-.059.1-.25.113-.357a.993.993 0 00.011-.364 1.042 1.042 0 01.011-.4c.04-.119.114-.206.1-.345l.011.024c.032-.2.017-.3-.159-.4-.084-.051-.081-.078-.187-.021a1.634 1.634 0 01-.195.115.535.535 0 01-.487-.134c-.172-.13-.342-.017-.368.19a5.1 5.1 0 00.025.553c0 .219.019.409.037.624a2.534 2.534 0 01-.06.541c-.02.2.094.33.092.53 0 .164-.056.4.035.541.041.064.112.085.136.162a.363.363 0 01-.034.262c-.089.128-.243.151-.26.326s.042.391.01.561c-.009.047-.054.087-.067.13a1.445 1.445 0 00-.034.479.744.744 0 01-.035.224c-.018.093.029.162.033.251a1.218 1.218 0 01-.035.274c-.036.179.078.33.035.519-.04.17-.134.268-.061.462.06.158.217.341.088.5.006 0 .009-.008.016-.008a1.309 1.309 0 01-.021.287.8.8 0 01-.031.277 1.33 1.33 0 00-.083.541c0 .115 0 .232.011.344a.589.589 0 01-.022.266c-.029.1.029.181.037.285s-.037.177-.037.277c0 .13-.044.24-.046.368s.011.251.011.379a3.206 3.206 0 00.044.338c.025.273.118.23.2.306a.607.607 0 00.179-.036c.085-.032.137-.092.221-.121a.656.656 0 00.243-.1c.059-.056.038-.134.123-.164.038-.013.09.007.127 0s.092-.036.139-.045a.418.418 0 00.348-.287c.029-.147.016-.285.215-.266s.5.23.62-.078a.034.034 0 00-.02.007c.058-.076.136-.049.21-.085a1.43 1.43 0 00.18-.145l.406-.3c.064-.051.116-.11.181-.153s.135-.042.188-.11.027-.166.08-.221.165-.036.228-.07c.115-.064.163-.206.229-.311.123-.192.277-.181.469-.239a.671.671 0 00.367-.373.021.021 0 01-.017 0c.2-.251.373-.519.541-.778.086-.13.232-.262.151-.432-.065-.136-.253-.153-.36-.247s-.182-.285-.322-.349c-.2-.089-.292.051-.437.171a.523.523 0 00-.242.451.61.61 0 01-.23.449c-.069.059-.143.111-.217.163s-.161.066-.23.115c-.119.089-.17.255-.269.353-.131.132-.329.141-.438.3a1.288 1.288 0 01-.354.351c-.179.111-.342.251-.53.362-.1.06-.189.126-.287.177s-.194.066-.302.115z" fill="#231815"/><path d="M47.57 9.697a.894.894 0 01.016-.336 3.434 3.434 0 00.016-.362.545.545 0 01.084-.338c.065-.1.1-.2.014-.3a.566.566 0 00-.267-.177c-.083-.017-.169-.02-.253-.03s-.087-.007-.187-.013c0-.011-.137 0-.139-.007a.241.241 0 00-.146.018.96.96 0 01-.2-.013.358.358 0 01-.107 0 .388.388 0 01-.063-.042c-.05-.045-.122-.1-.191-.089s-.093.081-.13.119c-.059.058-.11 0-.194 0a2.614 2.614 0 01-.466 0 1.141 1.141 0 00-.351.021.365.365 0 01-.265-.013l-.046-.038c.038-.07.033-.166.067-.243s.078-.14.1-.219a1.44 1.44 0 00.058-.515.489.489 0 01.027-.266c.036-.066.11-.109.135-.183.064-.2-.055-.291-.208-.368a.6.6 0 00-.253-.083c-.091.007-.159.081-.245.072s-.154-.072-.239-.083a.773.773 0 00-.322.07c-.139.034-.148.017-.221.128a.317.317 0 00-.079.251 1 1 0 00.084.227c.013.04 0 .087.009.13a1.33 1.33 0 00.066.141c.034.107-.024.139-.032.249s.016.183 0 .277a2.8 2.8 0 00-.018.519l-.041.041c-.053 0-.047-.009-.1-.007a.341.341 0 01-.156-.015c-.052-.023-.1-.1-.155-.106a.42.42 0 00-.138 0c-.076.017-.145.107-.231.085a.752.752 0 01-.219-.114c-.033-.022-.085-.083-.126-.081a.534.534 0 00-.114.053c-.032.028-.026.072-.064.094a.345.345 0 01-.139 0c-.066 0-.068-.023-.12-.058a.4.4 0 00-.156-.038c-.049-.011-.068-.045-.111-.062a.854.854 0 00-.154-.021.374.374 0 00-.168 0c-.04.015-.073.047-.113.06s-.1-.022-.145 0-.063.074-.11.079a.432.432 0 01-.23-.077.187.187 0 00-.158 0c-.066.02-.06.039-.1.085s-.1.021-.135.064-.1.094-.093.158.083.121.108.168a.293.293 0 010 .228c.007.038.017.073.024.117.011.066-.008.064-.051.1a.179.179 0 00-.03.247.439.439 0 00.207.172.126.126 0 00.114-.008.209.209 0 01.116-.032.715.715 0 00.15 0c.049-.013.062-.07.1-.085.063-.021.087.032.123.062s.119.026.165.023.065 0 .1-.023c.02-.015.049-.011.068-.025s.006-.036.03-.047.051 0 .069-.006a.326.326 0 01.109-.023c.057.013.023.062.076.087a.494.494 0 00.458-.064c.034-.036.144-.21.226-.236 0 0 .114 0 .109.007.1.045.135.153.178.2s.3.026.368.022a.782.782 0 00.185-.045c.079-.023.081 0 .092.077a2.927 2.927 0 01.016.374c0 .136-.078.172-.133.283a.409.409 0 00-.02.2.247.247 0 00.075.194.313.313 0 01.062.181l-.007-.008a1.845 1.845 0 01-.161.438l.022-.009c-.013.017-.03.032-.042.049s-.023.064-.038.085c-.036.047-.1.059-.132.113-.065.1-.032.236-.032.353 0 .134-.1.186-.122.3-.013.062.018.1-.022.155-.011.017-.038.032-.046.047-.014.032 0 .064-.009.1a1.632 1.632 0 01-.145.271.56.56 0 01-.061.13c-.029.04-.043.089-.069.132a1.11 1.11 0 00-.076.106c-.023.047-.011.143-.064.16s-.012.107-.036.155a.768.768 0 01-.1.111.967.967 0 01-.261.191c-.2.117-.294.343-.483.477-.045.032-.074.081-.123.115a.647.647 0 00-.068.032c-.028.025-.028.053-.052.079s-.087.051-.119.087a.411.411 0 01-.118.11c-.094.062-.2.123-.284.185a1.874 1.874 0 01-.3.147c-.108.049-.154.155-.25.21-.04.024-.024.026-.069.034s-.075 0-.116.009a1 1 0 00-.213.047 1.251 1.251 0 01-.329.111.731.731 0 00-.36.2c-.052.047-.075.092-.138.119a.781.781 0 01-.2.043c-.065.009-.128-.009-.192 0a1.718 1.718 0 00-.508.151c-.1.053-.2.019-.313.064s-.241.08-.167.213c.051.089.143.14.192.234a.819.819 0 01.067.358c.005.077.045.136.053.209s-.016.081.061.115c.038.017.127.062.168.051s.081-.066.124-.083.109-.015.163-.038a1.3 1.3 0 00.168-.081c.05-.03.1-.064.152-.092s.14-.038.208-.07a.731.731 0 01.168-.087 1.088 1.088 0 01.206 0 .872.872 0 00.392-.075.863.863 0 00.138-.068c.05-.036.068-.092.113-.134.072-.07.183-.109.255-.181.039-.038.094-.168.154-.162h-.015a1.616 1.616 0 01.367-.015c.068 0 .084-.032.136-.066a.427.427 0 01.163-.043.9.9 0 00.184-.009c.044-.013.082-.066.113-.094.086-.072.147-.166.263-.183a1.237 1.237 0 00.154-.03.24.24 0 00.113-.055c.095-.068.16-.134.255-.2a.847.847 0 00.221-.179c.023-.029.025-.1.046-.121.033-.043.111-.058.16-.073-.013-.066.051-.066.093-.083a.264.264 0 00.121-.085c.062-.068.146-.107.179-.2.023-.064-.019-.111.018-.174.023-.04.06-.078.085-.115a.761.761 0 01.111-.123c.051-.056.074-.147.134-.183.082-.051.1-.019.106-.123a.4.4 0 01.044-.186 1.45 1.45 0 01.188-.374.679.679 0 00.18-.249c.02-.053.019-.111.04-.168s.064-.094.086-.143a1.011 1.011 0 00.028-.362.3.3 0 01.054-.17.406.406 0 00.029-.192c.006-.057.047-.089.071-.145.011-.023.006-.053.017-.076s.034-.034.047-.062c.052-.1.015-.224.057-.33a1.527 1.527 0 00.125-.292c.016-.089.082-.217.045-.309.11-.094.02-.194.031-.313a1.759 1.759 0 01.04-.185c.021-.085.06-.072.116-.121.075-.064.059-.249.068-.353s-.067-.306 0-.379.326-.023.418-.028a1.59 1.59 0 01.461.007.46.46 0 01.123.07.235.235 0 00.168.03.876.876 0 01.167 0c.065.011.038.017.087.053a.318.318 0 00.186.062c.154.009.228.017.235.185.007.132.009.271.025.4a1.645 1.645 0 010 .461 1.067 1.067 0 01-.04.2c-.018.053-.06.1-.075.147a1 1 0 000 .207c0 .078-.011.153-.008.23a1.84 1.84 0 01.012.192c0 .078-.038.16-.036.238s.029.115 0 .192c-.019.055-.063.109-.076.164a.5.5 0 00.007.219c.018.054.086.071.107.109a.154.154 0 01-.079.192.361.361 0 00-.159.117c-.069.091-.03.112 0 .215a.345.345 0 01-.062.275c-.058.1-.049.234-.116.33s-.12.219-.192.33c-.031.047-.068.106-.1.151s-.1.083-.134.155a.524.524 0 01-.117.168c-.049.051-.08.164-.128.2a.2.2 0 00-.02.021h-.159a.208.208 0 00-.127.056c-.067.066-.077.172-.143.242s-.094.056-.127.132a.389.389 0 01-.039.093c-.025.034-.063.024-.064.075-.083.064-.193.011-.283.008a.432.432 0 00-.246.115c-.031.021-.064.045-.092.068s-.052.076-.089.114a.9.9 0 01-.173.156c-.047.025-.125.14-.179.134a.3.3 0 01-.293.062c-.057-.021-.122-.053-.178 0s-.061.045-.147.059a2.128 2.128 0 01-.421.017.993.993 0 01-.351-.087 1.378 1.378 0 00-.248-.062.253.253 0 00-.145-.08c-.067-.013-.087.019-.132.066-.073.074-.156.168-.114.29.034.1.148.166.162.264a.559.559 0 010 .192.756.756 0 01-.07.145.47.47 0 00.018.3c.069.013.1.057.154.085.02.011.055.009.076.017a.2.2 0 00.151.115c.079.119.2-.06.269-.079.116-.029.267 0 .392-.021a.553.553 0 00.179-.036c.06-.036.061-.092.144-.087.129.009.249.127.367.007.059-.06.038-.074.123-.074a.568.568 0 00.244-.034c.058-.026.111-.07.17-.028.043.028.055.079.11.1.259.124.362-.313.534-.393.1-.047.188-.019.284-.047a.276.276 0 00.145-.147.313.313 0 01.146-.136.474.474 0 01.154-.055.9.9 0 00.284-.145 2.443 2.443 0 01.283-.166.494.494 0 00.138-.106c.069-.075.025-.092.039-.175s.111-.119.145-.181l-.016-.01c.1-.06.143-.224.2-.32s.028-.226.084-.323a1.112 1.112 0 01.181-.264.345.345 0 00.148-.268c0-.111-.064-.281.025-.373h.011a.3.3 0 00.089-.123.312.312 0 01.068-.074c.066-.066.062-.159.116-.224.033-.038.061-.036.083-.085s0-.081 0-.13c0-.117.076-.24.067-.368v.006a.424.424 0 00-.008-.168c-.009-.087.027-.1.064-.166a.382.382 0 00.021-.179c0-.081.031-.089.071-.153.083-.136-.013-.213-.05-.345a.591.591 0 01-.021-.185c.007-.081.061-.072.092-.139.026-.051.015-.07.015-.183a.347.347 0 01-.005-.06.387.387 0 00-.041-.3.7.7 0 01-.082-.285.537.537 0 01.2-.268.263.263 0 00.121-.285c.005-.098-.08-.134-.102-.23z" fill="#231815"/><path d="M54.199 5.264c0-.1-.05-.237-.013-.328.045-.11.131-.078.081-.232-.043-.132-.245-.353-.407-.341-.1.009-.176.049-.289.056a.631.631 0 01-.3-.068.314.314 0 00-.337.085c-.057.09.018.219 0 .309-.028.117-.085.125-.051.255.024.094.107.188.119.292s-.037.191-.027.285a2.064 2.064 0 01.041.326c-.006.126.046.257-.066.275-.027 0-.169-.017-.206-.015-.056 0-.124.019-.18.029a.973.973 0 01-.324 0c-.107-.013-.137-.13-.231-.123a.125.125 0 00-.1.094c-.136-.053-.264.066-.391.083a.751.751 0 01-.228 0c-.113-.013-.119-.049-.211-.092a.816.816 0 00-.351-.123c-.125.017-.184.153-.275.226a.359.359 0 01-.394-.009.438.438 0 00-.036-.356.912.912 0 010-.368 1.9 1.9 0 01.013-.477c.03-.107.111-.247.06-.353.092-.064-.073-.168-.118-.181a1.612 1.612 0 00-.323 0 4.8 4.8 0 01-.681-.024c-.1-.015-.165-.068-.248.028a.469.469 0 00-.052.328c0 .1-.013.179-.013.285s.075.181.1.283c.021.085-.026.17-.016.262.006.055.032.132.04.19.012.091.022.4-.028.423h.014c-.118.01-.106-.032-.188-.072-.117-.058-.075-.026-.167.017a.415.415 0 01-.421.015.5.5 0 00-.26-.043c-.089.013-.118.072-.19.083-.163.028-.269-.2-.407-.175l.037.015s-.005-.015 0-.015c-.218-.217-.277.125-.284.3a2.85 2.85 0 00.027.315c.006.112-.042.2-.041.313 0 .192.1.432.313.434.12 0 .172-.083.273-.108a1.086 1.086 0 01.34.028c.1.015.192.076.3.055.094-.019.158-.1.24-.141a.336.336 0 01.467.194c.072.2-.136.328-.208.492a1.7 1.7 0 00-.011.64 4.658 4.658 0 01-.023.681 3.147 3.147 0 01-.055.315c-.027.1-.059.19.066.237v-.034c.062.094.029.161.041.27 0 .038.04.081.042.123 0 .07-.025.077-.042.141-.05.2.04.364.256.364h.654c.315 0 .286-.149.271-.393-.011-.187.078-.338.032-.509a1.644 1.644 0 01-.03-.527 1.786 1.786 0 01.064-.507 2.313 2.313 0 00-.008-.541c.23-.017.016-.356.015-.451s.066-.16.106-.232c.009-.017.032-.092.04-.111s.05-.087.046-.113l-.012-.007c.143-.09.378-.03.539-.055a.983.983 0 01.258-.04c.1.006.169.089.259.1.108.007.125-.049.207-.092a.3.3 0 01.27 0c.088.026.131.07.217.1.111.034.109-.019.205-.072.074.072.08.089.19.1.135.009.094-.03.18-.1a.609.609 0 01.512-.083 3.081 3.081 0 01.044.691 3.3 3.3 0 00.04.449.71.71 0 01-.04.315 3.361 3.361 0 00-.028.681.9.9 0 01-.009.313c-.036.115.014.219.012.328-.007.174-.1.2-.168.328a.566.566 0 00-.1.385c.012.136-.042.264-.036.419 0 .128-.087.237-.068.373.011.013-.012-.036-.011-.032-.068.094-.065.136-.156.215a1.557 1.557 0 01-.2.149.87.87 0 00-.327.4c-.03.085-.1.141-.126.228-.04.117-.054.121-.161.181a2.706 2.706 0 00-.48.257c-.074.064-.105.19-.17.237-.05.036-.1 0-.153.023s-.049.036-.092.07-.033.069-.085.094-.116 0-.163.013c-.1.034-.092.092-.18.149s-.27.043-.342.094c-.151.106.018.355-.2.374 0 .011-.108.022-.112.034-.145.056-.194-.045-.335-.068a1.655 1.655 0 00-.4.007c-.029.149-.226.072-.344.079s-.154.083-.268.125a.771.771 0 01-.3.066c-.119 0-.232.047-.338.047.042 0 .031-.053.071-.06-.013 0 .007.06-.012.066-.12 0-.287-.071-.367.047a.244.244 0 00.079.332c-.011.145-.018.264-.045.425a.528.528 0 00.03.417c.258.4.43-.259.758-.2a.512.512 0 00.233.087c.1 0 .137-.1.232-.119s.173.076.273.072.15-.087.241-.127.221.011.293-.047c.1-.081.009-.151.173-.168.237-.023.385.047.582-.1.176-.127.244-.249.451-.157a.46.46 0 00.518-.047c.132-.117.273-.2.409-.3a2.169 2.169 0 01.452-.283c.067-.024.163-.026.221-.077s.063-.1.123-.151a2.611 2.611 0 00.3-.328c.069-.078.112-.092.147-.194.024-.07 0-.164.044-.228a1.314 1.314 0 00.116-.17c.034-.07.083-.138.113-.208 0 .009-.005.015-.01.023.136-.053.188-.228.237-.345a1.785 1.785 0 00.164-.364.192.192 0 01-.033.013c.107-.089.094-.206.174-.309.038-.049.089-.066.117-.117s.021-.14.07-.2h-.013c.061-.083 0-.183-.017-.273a1.033 1.033 0 01.019-.324c.076-.013.2-.2.229-.275a.556.556 0 00.013-.234 1.216 1.216 0 01.06-.187 1.856 1.856 0 01.054-.394c.065-.164-.023-.19-.079-.342a.928.928 0 01.034-.247c.025-.062.113-.092.11-.177s-.119-.113-.134-.179a3.43 3.43 0 01.022-.524 2.519 2.519 0 01.084-.7c.056-.285.136-.339.423-.341a3.866 3.866 0 01.718 0c.095.015.179.079.266.069a.413.413 0 00.229-.151.6.6 0 00.011-.4c.008.017.021.034.026.049-.06-.077-.008-.338-.023-.449-.01-.06.018-.188 0-.23s-.131-.062-.174-.1c-.124.083-.234.047-.381.083a.976.976 0 01-.4.07c-.136-.021-.216-.1-.353-.083s-.237.113-.349.028c.033-.076 0-.164.022-.245s.083-.092.127-.16a.276.276 0 00.027-.226c-.029-.072-.128-.066-.085-.172" fill="#231815"/><path d="M59.694 8.967a1.54 1.54 0 01-.489-.026c0-.109-.355.04-.431.055-.186.036-.13-.027-.315-.027-.1 0-.183-.011-.279 0a1.039 1.039 0 01-.305.023.718.718 0 00-.36-.008 1.3 1.3 0 01-.5 0 1.693 1.693 0 00-.413-.113c-.107-.006-.067.015-.131.085-.045.049-.063.145-.132.145-.1 0-.2.121-.334.03-.066-.045-.069-.094-.149-.134a1.185 1.185 0 00-.389-.019l.011-.01c-.128.01-.271-.064-.4-.043-.059.008-.116.06-.182.064s-.137-.011-.2-.011c-.083 0-.112.079-.191.087a.414.414 0 00.022.286.414.414 0 01-.011.313c-.038.141.045.2.051.332 0 .058-.032.1-.01.159s.079.064.052.119c.072.042.108.108.194.138.121.042.114 0 .217-.049a1.938 1.938 0 01.608 0 .4.4 0 00.371-.206c.047-.083.036-.094.131-.094.133 0 .085.049.165.128a.239.239 0 00.139.062.545.545 0 00.272-.081.712.712 0 01.595-.076c.067.019.11.108.182.115s.167 0 .25 0c.257 0 .5.021.747.021a2.465 2.465 0 00.267.026c.109-.013.124-.17.225-.074 0 0 .115.023.1.062.1 0 .29 0 .373-.009.145-.009.234 0 .308-.111a.788.788 0 00.129-.247 2.641 2.641 0 00-.019-.4.709.709 0 00-.169-.512z" fill="#231815"/><g fill="#231815"><path d="M66.562 13.175l.005-.006s-.002.004-.005.006zm-5.034-6.231c-.177-.015-.263-.083-.43-.094h-.081c-.428.083-.158.734-.188.984a3.182 3.182 0 00-.057 1.156c.031.1.012.074 0 .228-.007.1-.027.3-.037.389-.015.127.04.225.031.336a.588.588 0 01-.113.251 5.394 5.394 0 010 1.339 3.426 3.426 0 01-.223.724c-.1.212 0 .534-.18.8-.189.285-.377.421-.377.785 0 .149.076.358.009.481-.057.1-.094.058-.156.158-.047.045-.092.121-.129.159-.15.1-.154.194-.245.324a1.465 1.465 0 01-.364.387c-.187.143-.293.287-.459.436a2.5 2.5 0 01-.578.306 3.671 3.671 0 01-1.086.368c-.255.026-.4-.172-.314.221a5.987 5.987 0 01.152.579c.039.29.08.56.418.458.22-.066.408-.257.627-.347a5.586 5.586 0 00.7-.243c.3-.168.29-.349.394-.636.165-.072.291.049.468-.038.131-.066.18-.2.268-.3s.251-.11.36-.21c.049-.045.049-.087.086-.136s.081-.06.113-.115a.63.63 0 00.071-.161c.02-.094.036-.081.09-.156.038-.053.02-.089.063-.14s.1-.077.146-.125a1.929 1.929 0 01.114-.156c.039-.036.1-.047.149-.081a.4.4 0 00.058-.451.15.15 0 010-.125c.022-.077.1-.1.129-.164s-.028-.113 0-.173a1 1 0 01.081-.11.57.57 0 00.048-.06l-.007-.009c.009-.04.011-.09.023-.13.018-.056.043-.051.074-.094s.022-.079.048-.113.058-.04.078-.092c.005 0 .005.006.013 0 .011-.042.063-.07.086-.112.008 0 .006.008.013.006a.445.445 0 01.015-.283c.016-.025.04-.042.048-.07s0-.06.007-.092a.123.123 0 01.114-.077c0-.064.065-.136.077-.206a1.22 1.22 0 00.006-.279.366.366 0 01.049-.241c.085-.136.007-.215 0-.349-.01-.119.045-.234.04-.351a.464.464 0 01.009-.238.459.459 0 00.07-.191l.015-.062a1.572 1.572 0 00.043-.407c0-.168.014-.332.022-.493a1.336 1.336 0 00-.008-.275.59.59 0 00-.086-.2 1.036 1.036 0 01-.087-.622.957.957 0 01.031-.245c.033-.066.14-.11.172-.174.047-.1-.022-.147-.054-.232s-.005-.134.044-.212c.029-.045.042-.026.057-.094a.785.785 0 000-.139.441.441 0 01.073-.228.434.434 0 00-.052-.449c-.091-.144-.322-.078-.491-.095z"/><path d="M69.921 11.473c-.054-.028-.1-.026-.136-.077a1.228 1.228 0 00-.081-.134 1.35 1.35 0 00-.131-.108 1.283 1.283 0 00-.113-.126c-.081-.059-.116.007-.175.04a.763.763 0 01-.162.047.643.643 0 00-.271.266.567.567 0 01-.1.125c-.038.03-.079.042-.1.092l-.029.049c-.033.1-.105.066-.188.1a.98.98 0 00-.242.181c-.1.1-.187.253-.3.322-.059.036-.124.051-.18.089a.374.374 0 01-.168.062.436.436 0 00-.324.234c-.036.06-.086.107-.125.164l-.121.042c-.034.087-.138.1-.214.138s-.121.123-.185.188c-.032.051 0 .145-.048.191s-.1.022-.151.032a.366.366 0 00-.2.171c-.057.083-.1.172-.157.259a.521.521 0 01-.1.13 1.047 1.047 0 00-.188.174.4.4 0 01-.209.143c-.118.027-.224-.06-.315-.109-.061-.034-.088-.057-.161-.034-.092.034-.081.1-.14.156-.04.038-.094.053-.136.092a1.065 1.065 0 01-.269.185.818.818 0 00-.139.06.755.755 0 01-.146.117c-.048.025-.111.074-.167.1-.111.047-.242.074-.268-.1a1.933 1.933 0 01.007-.392c.007-.156.022-.315.015-.468a1.511 1.511 0 01-.013-.454c.015-.042.067-.068.083-.112a1.074 1.074 0 00.021-.179c.013-.087.081-.266-.076-.283-.056-.019-.017-.174-.017-.224a1 1 0 00-.03-.16c-.018-.121.033-.174.036-.287s-.166-.17-.125-.3c.016-.051.08-.085.119-.119a.284.284 0 00.088-.132.976.976 0 00-.021-.438 2.316 2.316 0 01.005-.391c.009-.1-.029-.245.031-.34a.677.677 0 01.108-.139c.026-.023.1-.045.11-.087.019-.058-.047-.089-.095-.123a.308.308 0 01-.113-.117c-.07-.106-.142-.145-.1-.285.013-.045.067-.089.077-.13a1.123 1.123 0 00-.022-.2.967.967 0 01.011-.226c.018-.072.06-.111.06-.187 0-.051-.022-.06-.035-.1a.089.089 0 01.016-.083c.007-.009.028-.011.031-.015s.005-.026.011-.036c.037-.06.019-.1.03-.159s.053-.076.057-.139a2.5 2.5 0 00.006-.283 2.737 2.737 0 00.009-.281c-.016-.115-.009-.23-.016-.347a1 1 0 010-.145.333.333 0 00.008-.13.022.022 0 00.006.007c.007-.043.094-.081.121-.125.042-.073.011-.109-.047-.16-.029-.023-.052-.072-.08-.092s-.063-.019-.088-.032a.376.376 0 00-.063-.036c-.1-.032-.163.087-.249.119a.311.311 0 01-.118 0c-.051-.007-.1 0-.15-.007-.116-.011-.176-.087-.288-.03l-.006-.006c-.041.043-.118.017-.161.047s-.049.1-.052.153a1.056 1.056 0 00.027.368c.036.117-.043.236-.036.369a.818.818 0 00.03.2.576.576 0 01.016.177.623.623 0 01-.023.289.568.568 0 000 .292v.1c.04.094 0 .106 0 .213a.956.956 0 00.1.412.691.691 0 01.016.35c-.018.1.028.287-.069.317s-.279.228-.06.306c0 .136.02.458.037.653a1.361 1.361 0 01-.007.307 1.626 1.626 0 01-.1.262 3.6 3.6 0 00-.056.828c-.014.142 0 .285-.007.43-.005.119.091.32.015.419a.18.18 0 01.012-.019 1.052 1.052 0 00-.144.387c0 .132.067.255.078.387s-.06.211-.123.321.016.154.07.243a.481.481 0 01.083.309 3.067 3.067 0 01-.009.33c-.016.07-.078.066-.117.13a.962.962 0 00-.074.155c-.043.132.141.134.137.266 0 .081-.038.074-.083.132s-.02.083 0 .147a.553.553 0 01-.007.192.482.482 0 00.027.149 1.134 1.134 0 010 .132c0 .07.033.119-.005.172a.365.365 0 00-.04.245.869.869 0 00.066.168c.029.074.031.106.118.106a.483.483 0 00.322-.138.662.662 0 00.1-.139.527.527 0 01.234-.161 1.1 1.1 0 00.141-.09 1.209 1.209 0 00.129-.147c.05-.053.112-.072.161-.13s.075-.1.114-.149a1.017 1.017 0 01.124-.111c.039-.038.045-.089.092-.117v.006a2.814 2.814 0 00.3-.006.25.25 0 00.213-.138 1.817 1.817 0 01.215-.207c.064-.068.16-.106.208-.192.08-.006.1-.121.159-.164.081-.06.191-.076.268-.138a.9.9 0 01.114-.1 1.473 1.473 0 00.161-.109 3.561 3.561 0 01.338-.2c.129-.083.226-.183.349-.266.094-.062.167 0 .213-.1l.045-.126c.1-.034.1-.159.195-.206.04-.021.079-.038.123-.062a.7.7 0 00.107-.07.974.974 0 01.267-.138c.054-.017.118-.02.171-.036.077-.023.087-.062.121-.13s.06-.062.114-.1a.656.656 0 00.106-.1c.035-.047.042-.094.072-.142a.535.535 0 00.082-.124l.007.007a.3.3 0 01.092-.092c.039-.034.083-.076.118-.1a1.842 1.842 0 00.2-.185 1.253 1.253 0 01.221-.206c.054-.037.068-.073.115-.107s.108-.019.167-.028c.123-.017.252.011.328-.108.032-.049.022-.111.049-.158s.076-.062.1-.1a.255.255 0 01.133-.1.273.273 0 00.129-.081c.049-.049.06-.051.061-.119 0-.1.016-.089.094-.149a.179.179 0 00-.006-.296z"/></g><path d="M38.699.509a1.109 1.109 0 00-.3-.509 1.876 1.876 0 01.067.506c0 .139.016.222.045.249a.107.107 0 00.161-.032.259.259 0 00.027-.214zm.333-.017a1.109 1.109 0 00-.343-.479 1.844 1.844 0 01.114.5.431.431 0 00.067.242.107.107 0 00.159-.047.258.258 0 00.003-.216zm-5.351 17.203l-.024.06-1.06 2.567h.287s.3-.72.309-.749h.955l.309.751h.292l-.3-.726zm-.007.694l.371.932h-.744c.026-.064.332-.828.373-.935zm3.303-.596h.282v2.528h-.282zm14.446 1.219a.581.581 0 00-.175-.149.765.765 0 00-.354-.083.806.806 0 00-.336.068.83.83 0 00-.256.183.8.8 0 00-.168.251.749.749 0 00-.057.292.863.863 0 00.05.292.751.751 0 00.147.247.779.779 0 00.271.192.849.849 0 00.354.081.765.765 0 00.352-.083.642.642 0 00.175-.147v.2h.268v-1.544h-.268l-.003.2zm-.15.194a.527.527 0 01.154.383.494.494 0 01-.159.37.51.51 0 01-.369.155.539.539 0 01-.385-.153.494.494 0 01-.163-.374.514.514 0 01.16-.381.529.529 0 01.383-.157.507.507 0 01.374.163zm-7.053-.194a.58.58 0 00-.175-.149.763.763 0 00-.354-.083.809.809 0 00-.336.068.866.866 0 00-.257.183.851.851 0 00-.166.251.735.735 0 00-.058.292.834.834 0 00.051.292.757.757 0 00.147.247.789.789 0 00.273.192.846.846 0 00.354.081.749.749 0 00.35-.083.594.594 0 00.176-.147v.2h.269v-1.544h-.268l-.006.2zm-.149.194a.527.527 0 01.152.383.5.5 0 01-.157.37.51.51 0 01-.369.155.535.535 0 01-.386-.153.489.489 0 01-.163-.374.512.512 0 01.16-.381.531.531 0 01.384-.157.508.508 0 01.379.163zm3.817-.155v-.235h-1.2v.26h.809c-.091.112-.839 1.051-.839 1.051v.226h1.283v-.255h-.885zm6.58-.187a.473.473 0 00-.237.186v-.213h-.264v1.485h.279v-.74a.493.493 0 01.039-.217.471.471 0 01.192-.17.672.672 0 01.357-.092v-.3a1.018 1.018 0 00-.366.061zm-10.687-.515l.113.157.734-.517-.226-.226zm-3.392.433a.829.829 0 00-.581.23.794.794 0 000 1.147.836.836 0 00.59.228.8.8 0 00.363-.083l.022-.011v-.33l-.136.092a.586.586 0 01-.272.062.527.527 0 01-.539-.539.492.492 0 01.16-.376.563.563 0 01.395-.151.519.519 0 01.266.074l.123.081v-.326l-.021-.011a.84.84 0 00-.37-.087zM29.958.321H29.5a4.8 4.8 0 01-.189 1.187 6.3 6.3 0 01-1.013 1.762A3.793 3.793 0 0029.864.643a.244.244 0 01.081-.111c.046-.047.067-.074.067-.087a.221.221 0 00-.054-.124zm.729-.053a4.416 4.416 0 01.713 1.411 2.349 2.349 0 01.128 1.145c-.051.192-.139.277-.264.251-.1-.037-.151-.143-.144-.322a4.384 4.384 0 00-.031-.894 11.122 11.122 0 00-.402-1.591zm6.462.053h-.459a4.853 4.853 0 01-.188 1.187 6.334 6.334 0 01-1.014 1.762A3.791 3.791 0 0037.054.643a.244.244 0 01.082-.111c.045-.047.066-.074.066-.087a.225.225 0 00-.053-.124zm.729-.053a4.406 4.406 0 01.712 1.411 2.339 2.339 0 01.128 1.145c-.05.192-.137.277-.263.251-.1-.037-.152-.143-.144-.322a4.3 4.3 0 00-.032-.894 11.077 11.077 0 00-.401-1.591zm-4.363 1.118c-.027.139-.109.153-.233.121-.045-.011-.082-.056-.113-.139a3.353 3.353 0 00-.234-.456 3.287 3.287 0 00-.523-.642s1.228.459 1.103 1.116zm-.837 1.649A3.114 3.114 0 0035.334.258a3.272 3.272 0 01-3.056 2.466l.064.521a1.178 1.178 0 01.336-.21zM45.54 0a1.738 1.738 0 01.066.466H44.3a.376.376 0 01.077-.145c.15-.043.256-.19-.069-.19h-.363s0 .783-1.208 1.839a3.315 3.315 0 001.482-1.4h1.145a3.777 3.777 0 01-2.793 2.63A3.588 3.588 0 0045.726.774a.135.135 0 00.086-.055.259.259 0 00.023-.215A1.11 1.11 0 0045.54 0zm.631.492a1.1 1.1 0 00-.342-.479 1.891 1.891 0 01.114.5q.02.2.067.242a.107.107 0 00.159-.047.261.261 0 00.002-.216zm-6.75.995l-.17.438.241-.17h2.855l.169-.439-.243.171zm18 0l-.169.438.242-.17h2.854l.17-.439-.242.171zm-5.517.441a6.583 6.583 0 00.919-1.4l.223-.106a.4.4 0 00-.1-.07l.022-.013h-.049a2.09 2.09 0 00-.384-.114s-.018.042-.054.114h-1.91l-.088.358.16-.181h1.749a6.2 6.2 0 01-2.54 2.684 3.3 3.3 0 001.953-1.156 2.529 2.529 0 01.4.464c.033.049.127.21.281.487.067.124.136.188.209.192.113 0 .17-.074.17-.207a.738.738 0 00-.194-.447 2.609 2.609 0 00-.767-.605zm-4.068-.56c.69-.128.906-.436.9-.7a.524.524 0 00-.225-.388 1.135 1.135 0 00-.578-.1 1.036 1.036 0 00-.6.187.54.54 0 00-.2.436c0 .274.164.36.273.568-1.045.375-.9 1.089-.914 1.024a.721.721 0 00.287.6 1.09 1.09 0 00.882.181 1.441 1.441 0 00.794-.468 1.526 1.526 0 00.447.383c.274.1.492-.183.7-.311l-.107-.1s-.264.232-.425.1a2.122 2.122 0 01-.284-.281l-.042-.053a.869.869 0 00.387-.613c-.027-.274-.279-.221-.393-.127a.214.214 0 00-.019.264.361.361 0 00.078.038c.108.108-.174.315-.174.315zm-.235-.913a.452.452 0 01.307-.117.461.461 0 01.288.085.287.287 0 01.126.228c.009.243-.177.413-.61.566l-.021-.042c-.115-.211-.2-.249-.205-.449a.348.348 0 01.115-.27zm.726 2.117c-.687.513-1.15.236-1.15.236a.638.638 0 01-.262-.592c0-.287.25-.509.594-.7zM56.58.517a.122.122 0 00.117-.1 1.7 1.7 0 00-.279-.228c-.115-.064-.21.064-.21.064l-.166.087H54.22l-.093.3.166-.125zm.063.576c-.115-.064-.209.064-.209.064l-.167.087h-2.531l-.093.3.165-.127h1.317a1.734 1.734 0 01-1.515 1.809 1.793 1.793 0 001.972-1.809h1.222a.123.123 0 00.118-.1 1.769 1.769 0 00-.279-.224zm6.119-.975l-.539.021.025.564h-1.076l-.093.3.165-.128h1.011l.036.832h-1.336l-.092.3.165-.128h1.271l.063 1.428h.322l-.055-1.428h1.288c.159 0 .09-.127.09-.127a1.417 1.417 0 00-.251-.2c-.114-.064-.209.064-.209.064l-.167.087h-.758L62.59.871h1.2c.15-.006.1-.119.1-.119a1.453 1.453 0 00-.259-.206c-.116-.066-.21.062-.21.062l-.166.087h-.667l-.014-.368z" fill="#231815"/><path fill="none" d="M0 0h70v21H0z"/></svg>