<svg xmlns="http://www.w3.org/2000/svg" width="70" height="46.686"><g fill="#1e1210"><path d="M8.955 45.696h.237v.365h-.89v-.365h.24v-1.532h-.32v.332h-.329v-.72h1.711v.72h-.329v-.332h-.32zm1.366-1.087a.534.534 0 01.488-.295.553.553 0 01.46.25.853.853 0 01.134.544v.588h.21v.365h-.792v-.365h.21v-.483a.68.68 0 00-.055-.358.332.332 0 00-.3-.156.347.347 0 00-.28.137.5.5 0 00-.079.343v.518h.21v.365h-.792v-.365h.21v-1.555h-.21v-.362h.582zm3.006.949a.836.836 0 01-.767.547.9.9 0 01-.009-1.8.855.855 0 01.609.275.921.921 0 01.228.64l-.012.137H12.06a.509.509 0 00.488.41.444.444 0 00.393-.2zm-.283-.505a.524.524 0 00-.512-.4.51.51 0 00-.475.4zm1.665-.911h-.237v-.362h1.623v.688h-.414v-.3h-.557v.586h.63v.336h-.63v.608h.237v.365h-.889v-.365h.237zm2.132 1.554h.21v.365h-.8v-.365h.214v-.979h-.21v-.365h.582zm0-1.507h-.371v-.409h.371zm.906.456a.539.539 0 01.488-.311v.4a.481.481 0 00-.32.124.494.494 0 00-.14.407v.432h.21v.365h-.792v-.365h.21v-.979h-.21v-.365h.554zm1.038.92a.253.253 0 00.262.256.216.216 0 00.223-.211c0-.169-.153-.2-.278-.234-.283-.077-.594-.17-.594-.544a.517.517 0 01.551-.515.424.424 0 01.369.154v-.119h.273v.464h-.359a.2.2 0 00-.21-.2.191.191 0 00-.208.18c0 .16.15.195.268.224.292.07.606.166.606.55a.54.54 0 01-.582.537.516.516 0 01-.42-.185v.141h-.284v-.5zm1.637.131h.295v.365h-.666v-1.344h-.256v-.365h.256v-.572h.372v.576h.277v.365h-.277zm3.634.366h-.344v-.352a.882.882 0 01-.755.4 1.161 1.161 0 01-1.13-1.194 1.219 1.219 0 01.307-.825 1.133 1.133 0 01.817-.371.988.988 0 01.685.272v-.211h.341v.672h-.451a.681.681 0 00-.247-.22.661.661 0 00-.32-.077.727.727 0 00-.715.755.737.737 0 00.712.765.668.668 0 00.64-.448h-.8v-.368h1.264zm.15-.862a.854.854 0 11.85.905.88.88 0 01-.85-.905zm1.34.006a.488.488 0 10-.49.516.505.505 0 00.49-.515zm2.093.49h.21v.365h-.551v-.211a.586.586 0 01-.49.255.572.572 0 01-.45-.217.734.734 0 01-.143-.5v-.675h-.21v-.365h.582v.924a.573.573 0 00.064.32.313.313 0 00.274.147.351.351 0 00.274-.141.564.564 0 00.069-.336v-.55h-.209v-.365h.581zm.909-1.051a.539.539 0 01.488-.311v.4a.482.482 0 00-.32.124.494.494 0 00-.14.407v.432h.21v.365h-.792v-.365h.21v-.979h-.21v-.365h.554zm.854.072h-.21v-.365h.549v.256a.536.536 0 01.469-.3.555.555 0 01.506.358.583.583 0 01.533-.358.614.614 0 01.469.218.747.747 0 01.128.522v.646h.21v.365h-.792v-.365h.21v-.55a.668.668 0 00-.049-.311.314.314 0 00-.265-.141.352.352 0 00-.274.128.478.478 0 00-.077.323v.55h.21v.365h-.791v-.365h.209v-.524a.708.708 0 00-.049-.32.3.3 0 00-.268-.157.31.31 0 00-.259.124.517.517 0 00-.089.349v.528h.21v.365h-.792v-.365h.21zm4.402.841a.837.837 0 01-.768.547.9.9 0 01-.009-1.8.853.853 0 01.609.275.919.919 0 01.228.64l-.012.137h-1.316a.507.507 0 00.487.41.444.444 0 00.392-.2zm-.284-.505a.524.524 0 00-.512-.4.51.51 0 00-.475.4zm1.08.643h.3v.365h-.667v-1.344h-.256v-.365h.256v-.572h.372v.576h.277v.365h-.277zm2.279-1.916a.947.947 0 01.579.15.728.728 0 01.268.595.77.77 0 01-.21.538.686.686 0 01-.554.211h-.3v.425h.238v.365h-.887v-.365h.234v-1.555h-.234v-.364zm.03 1.1a.383.383 0 00.281-.077.37.37 0 00.119-.279.342.342 0 00-.137-.279.422.422 0 00-.28-.07h-.228v.7zm.927.32a.855.855 0 11.85.905.88.88 0 01-.85-.905zm1.34.006a.488.488 0 10-.49.516.505.505 0 00.49-.515z"/><path d="M39.854 44.718h-.207v-.365h.582v.269a.6.6 0 01.532-.288.879.879 0 01.018 1.753.668.668 0 01-.551-.265v.5h.21v.365h-.792v-.365h.207zm1.352.5a.491.491 0 10-.49.512.506.506 0 00.49-.516z"/><path d="M43.336 45.485a.864.864 0 01-.807.62.9.9 0 01-.04-1.8.612.612 0 01.466.215v-.163h.319v.569h-.347a.562.562 0 00-.174-.169.447.447 0 00-.232-.064.518.518 0 00.01 1.034.431.431 0 00.39-.237zm.129-.285a.855.855 0 11.85.905.88.88 0 01-.85-.905zm1.34.006a.488.488 0 10-.49.516.505.505 0 00.49-.515z"/><path d="M45.829 44.645a.54.54 0 01.488-.311v.4a.48.48 0 00-.32.124.494.494 0 00-.14.407v.432h.21v.365h-.792v-.365h.211v-.979h-.211v-.365h.554zm.843.072h-.211v-.365h.582v.243a.522.522 0 01.481-.282.629.629 0 01.469.212.672.672 0 01.138.5v.669h.209v.365h-.791v-.365h.21v-.553a.518.518 0 00-.064-.307.35.35 0 00-.287-.137.359.359 0 00-.3.144.629.629 0 00-.07.358v.5h.21v.365h-.792v-.365h.211zm3.302.979h.21v.365h-.8v-.365h.214v-.979h-.21v-.365h.582zm0-1.507h-.371v-.409h.371zm.562.528h-.21v-.365h.582v.243a.522.522 0 01.481-.282.629.629 0 01.469.212.674.674 0 01.137.5v.669h.21v.365h-.792v-.365h.21v-.553a.517.517 0 00-.064-.307.348.348 0 00-.286-.137.358.358 0 00-.3.144.628.628 0 00-.07.358v.5h.21v.365h-.792v-.365h.21zm3.128.701a.262.262 0 00.237.285.225.225 0 00.2-.125.658.658 0 00.042-.288v-1.149h-.238v-.361h.887v.365h-.235v1.2a.739.739 0 01-.149.531.673.673 0 01-.509.23.64.64 0 01-.673-.688zm2.599.413a.593.593 0 01-.524.275.865.865 0 01-.835-.889.883.883 0 01.853-.909.578.578 0 01.506.288v-.243h.582v.365h-.2v.979h.2v.365h-.582zm.006-.634a.5.5 0 00-.49-.509.508.508 0 00-.49.528.5.5 0 00.484.508.509.509 0 00.496-.527zm.897-.479h-.207v-.365h.582v.269a.6.6 0 01.533-.288.879.879 0 01.018 1.753.67.67 0 01-.551-.265v.5h.21v.365h-.792v-.365h.207zm1.352.5a.491.491 0 10-.49.512.506.506 0 00.491-.516zm1.823.613a.593.593 0 01-.524.275.865.865 0 01-.835-.889.883.883 0 01.853-.909.578.578 0 01.506.288v-.243h.582v.365h-.2v.979h.2v.365h-.582zm.006-.634a.5.5 0 00-.49-.509.508.508 0 00-.49.528.5.5 0 00.484.508.509.509 0 00.495-.527zm.899-.48h-.21v-.365h.582v.243a.522.522 0 01.481-.282.629.629 0 01.469.212.672.672 0 01.137.5v.669h.21v.365h-.792v-.365h.21v-.553a.516.516 0 00-.064-.307.349.349 0 00-.286-.137.36.36 0 00-.3.144.629.629 0 00-.07.358v.5h.21v.365h-.792v-.365h.21z"/></g><path d="M29.462 24.351L0 24.869 11.385 0l32.2 5.921 4.414 14.2 22 .368-3.06 13.748-31.824 5.651z" fill="#e6e2d2"/><path d="M47.414 20.983L42.963 6.621l-31-5.433L1.521 23.844l28.634-.385 5.566 15.416 30.556-5.335 2.731-12.27z" fill="#1e1210"/><path d="M45.188 20.954l-3.721-12.21-27.256-4.033L7.349 20.45z" fill="#ef91a7"/><path d="M33.025 23.421l4.437 12.64 27.909-4.13 2.036-8.968z" fill="#5fc0c6"/><path d="M24.76 8.667v9.611l-4.009-.143v-4.186l-1.253-.092v4.234l-4.422-.158V7.443l4.422.555v3.611l1.253.117V8.158zm5.151.64v9.155l-3.625-.128V8.852zm4.68.592v6.985l1.9.1v1.714l-5.187-.182V9.484zm5.559.698v6.586l1.684.092v1.618l-4.607-.165v-8.5zm5.031 14.608l-1.3 7.947-4.11.516-1.673-8.209 3-.11q.5 3.338.716 5.628.21-2.353.446-4.171l.188-1.5zm4.521-.163l1.274 7.217-2.3.289-.125-1.33-.838.092-.145 1.378-2.531.317 1.267-7.839zm-1.215 4.857a73.784 73.784 0 01-.351-3.121c-.242 1.45-.392 2.519-.454 3.195zm4.97-4.987v5.629l1.231-.133v1.388l-3.342.42v-7.229zm3.627-.133v5.369l1.121-.121v1.325l-3.04.381v-6.884zm1.557-.057l2.875-.1v1.265l-1.125.059v1.214l1.054-.073v1.2l-1.054.091v1.415l1.231-.134v1.262l-2.982.375zm6.657-.236L64.203 28.4v2.2l-1.451.181v-2.245l-1.137-3.915 1.483-.055q.335 1.791.38 2.4a34.99 34.99 0 01.432-2.433z" fill="#1e1210"/></svg>