<svg xmlns="http://www.w3.org/2000/svg" width="136" height="14"><path d="M.806 3.731C.459 4 .345 4.257.52 4.566c.241.424.459.32 1.083.384.452.046 1.023.013 1.484.022a7.176 7.176 0 01-1.321.289c-.522.178-.64.467-.91.729-.014.013-.448.337-.447.328-.012.1.393.394.469.511a2.487 2.487 0 01.525 1.225 2.763 2.763 0 01-.138.429q.294.173.023.326a.5.5 0 00-.184.22.715.715 0 00.464.906 13.948 13.948 0 002.132-.01 3.189 3.189 0 01-.408.432c-.228-.3-.437.026-.614.125q0-.178-.308-.258c-.394.455-1.5.707-.573 1.237.729.414 2.12.253 3.09.261 1.834.014 3.678-.007 5.513-.015l5.349-.025a8.608 8.608 0 011.56-.015c.574.177.168.44.991.516.5.046 1.132 0 1.64.007a3.114 3.114 0 01-.4.426c-.229-.3-.436.027-.613.126q0-.179-.308-.26c-.366.423-1.4.64-.694 1.157.675.491 2.036.338 3.038.336 1.725 0 3.453.026 5.178 0 3.439-.047 6.919-.054 10.358-.017 6.951.072 13.929-.013 20.883-.024 13.852-.023 27.753.111 41.6-.079 3.882-.054 7.812-.06 11.695-.019 1.927.02 4.093.111 5.994-.037.808-.063 2.378-.279 2.518-.777.058-.208-.265-.7-.365-.9-.221-.457-.288-.421-1.274-.469.556-.491 1.392-.289.956-.926a1.69 1.69 0 00-.434-.473 1.869 1.869 0 00-.464-.321c3.6.155 7.273.224 10.882.277a39.558 39.558 0 005.469.033c.929-.124 2.027-.281 2.049-.828a2.314 2.314 0 00-.3-.937c-.262-.315-.578-.292-1.281-.326.261-.229 1.022-.261 1.18-.524.131-.219-.224-.52-.382-.718a3.846 3.846 0 00-1.9-1.132 2.183 2.183 0 00.526-.515 1.237 1.237 0 00.12-.338 1.753 1.753 0 00.527-.083c.415-.234.782-.075.587-.508-.14-.31-.148-.2-.8-.36-.373-.089-.711-.32-1.062-.383-.184-.033-.962.044-1.162.041a103.76 103.76 0 01-2-.053c-2.752-.1-5.646-.293-8.428-.258a72.961 72.961 0 01-4.252-.077c-1.322-.063-2.761-.046-4.09-.144s-2.774-.094-4.09-.144a12.13 12.13 0 01-2-.053 1.78 1.78 0 01-.625-.188c-.389-.178-.3-.438-.954-.5.327-.2.352-.394.57-.609.517-.507-.124-.066.4-.275.158-.063.778-.128.848-.183a1.8 1.8 0 01-.057-.377c-.147-.331.257-.027-.409-.281a9.287 9.287 0 00-1.719-.43c-.692-.068-1.73-.037-2.411-.032-1 .008-1.967 0-2.935.032-3.608.124-7.308.032-10.955.032-7.14 0-14.388-.063-21.529-.064-7.337 0-14.572.006-21.908.064-1.727.013-3.572.035-5.346 0S36.532.136 34.753.06C31.208-.092 27.526.1 23.988.028c-2.006-.04-4.053 0-6.014 0-2.025 0-4.043-.015-6.015 0-2.108.016-4.2-.04-6.276.032-1 .034-2.009-.03-3.008 0C2.083.078-.555.747.787 1.145c-1.439-.4-.464.92-.342 1.1.163.245.433.519.444.74.004.278-.44.45-.083.746z" fill="#fed438" fill-rule="evenodd"/></svg>