<svg xmlns="http://www.w3.org/2000/svg" width="300" height="41" viewBox="0 0 300 41">
  <defs>
    <style>
      .cls-1 {
        fill: #fff;
        fill-rule: evenodd;
      }
    </style>
  </defs>
  <path id="STAMP_RALLY" data-name="STAMP RALLY" class="cls-1" d="M15.7,5.812a17.877,17.877,0,0,0-4.629-.6,11.943,11.943,0,0,0-5.2,1.038,7.711,7.711,0,0,0-3.3,2.828,7.358,7.358,0,0,0-1.129,4.008A7.251,7.251,0,0,0,2.5,17.042,9.335,9.335,0,0,0,5,19.728a30.647,30.647,0,0,0,3.53,2.106,23.938,23.938,0,0,1,3.347,1.851,5.173,5.173,0,0,1,1.434,1.353,2.632,2.632,0,0,1,.346,1.373,2.266,2.266,0,0,1-.936,1.841A4.309,4.309,0,0,1,9.993,29q-4.049,0-8.321-3.418v6.429a20.308,20.308,0,0,0,9.237,2.36,12.483,12.483,0,0,0,5.158-1.017,8.1,8.1,0,0,0,3.52-2.889,7.615,7.615,0,0,0,1.251-4.334,7.162,7.162,0,0,0-1.007-3.9,9.6,9.6,0,0,0-2.645-2.747A39.545,39.545,0,0,0,12.7,16.87a15.6,15.6,0,0,1-3.418-2.116,2.534,2.534,0,0,1-.875-1.872,2.211,2.211,0,0,1,.854-1.821,3.983,3.983,0,0,1,2.523-.682,12.863,12.863,0,0,1,7.874,3.153V7.45A15.085,15.085,0,0,0,15.7,5.812ZM50.927,11.5V5.578H23.42V11.5H33.552V34h7.161V11.5H50.927ZM83.988,34L71.5,5.537H64.029L51.659,34h7.324l2.726-6.551H73.917L76.663,34h7.324ZM72.025,22.871H63.582l4.211-10.335Zm30.456-6.327L93.57,5.578H87.039V34h7V15.832l8.036,9.969h0.672l8-9.969V34H117.9V5.578h-6.49Zm41.2-8.7q-2.767-2.268-7.69-2.268H124.006V34h7.162V22.831h5.167a12.313,12.313,0,0,0,5.6-1.149,7.907,7.907,0,0,0,3.388-3.082,8.529,8.529,0,0,0,1.119-4.354A7.811,7.811,0,0,0,143.68,7.846Zm-8.932,10.122h-3.58V10.461h3.3a5.652,5.652,0,0,1,3.55.9,3.5,3.5,0,0,1,1.109,2.889q0,3.723-4.375,3.723h0Zm47.4-10.03q-2.644-2.36-7.527-2.36H162.8V34h7.162V22.546h1.281a6.08,6.08,0,0,1,2.3.376,4.913,4.913,0,0,1,1.811,1.434,16.568,16.568,0,0,1,1.974,3.235l3.3,6.409h7.832l-3.7-7.161a25.9,25.9,0,0,0-2.32-3.672,7.957,7.957,0,0,0-2.319-1.963,7.786,7.786,0,0,0,3.509-2.848,7.551,7.551,0,0,0,1.17-4.191A7.942,7.942,0,0,0,182.152,7.938ZM176.334,17.1a5.914,5.914,0,0,1-3.378.8h-2.99V10.461h3.113q4.414,0,4.414,3.784A3.235,3.235,0,0,1,176.334,17.1Zm44.7,16.9L208.54,5.537h-7.467L188.7,34h7.324l2.726-6.551h12.207L213.708,34h7.324ZM209.069,22.871h-8.443l4.211-10.335Zm22.176,5.249V5.578h-7.161V34h20.039V28.12H231.245Zm24.211,0V5.578h-7.162V34h20.04V28.12H255.456Zm28.462-13.326-6.8-9.216h-7.67L280.5,20.491V34h7.162V20.369L298.546,5.578H290.8Z"/>
</svg>
