<svg xmlns="http://www.w3.org/2000/svg" width="472" height="66"><defs><clipPath id="a"><path transform="translate(402 2206)" fill="none" stroke="#707070" d="M0 0h472v66H0z"/></clipPath></defs><g transform="translate(-402 -2206)" clip-path="url(#a)"><path d="M404.797 2261.731c-1.2.269-1.6.526-.992.835.836.424 1.592.32 3.759.384 1.57.046 3.549.013 5.149.022-.371.122-4.233.254-4.585.289a12.228 12.228 0 00-3.16.729c-.048.013-1.554.337-1.55.328a13.112 13.112 0 001.626.511c.89.4 1.9.867 1.821 1.225-.028.128-.357.3-.479.429.68.116.708.225.08.326a1.773 1.773 0 00-.638.22c-.1.251-.309.743 1.612.906 1.369.116 5.849-.017 7.4-.01a14.143 14.143 0 01-1.416.432 3.761 3.761 0 00-2.131.125q-.006-.178-1.069-.258c-1.367.455-5.221.707-1.987 1.237 2.53.414 7.358.253 10.725.261 6.366.014 12.764-.007 19.132-.015l18.555-.025c1.253 0 4.367-.108 5.416-.015 1.993.177.583.44 3.441.516 1.734.046 3.93 0 5.69.007a13.833 13.833 0 01-1.4.426 3.764 3.764 0 00-2.127.126q0-.179-1.071-.26c-1.271.423-4.874.64-2.408 1.157 2.344.491 7.068.338 10.542.336 5.987 0 11.984.026 17.971 0 11.934-.047 24.014-.054 35.95-.017 24.124.072 48.343-.013 72.475-.024 48.074-.023 96.321.111 144.375-.079 13.474-.054 27.112-.06 40.587-.019 6.687.02 14.205.111 20.8-.037 2.805-.063 8.253-.279 8.74-.777.2-.208-.92-.7-1.267-.9-.768-.457-1-.421-4.421-.469 1.931-.491 4.832-.289 3.316-.926a7.1 7.1 0 00-1.509-.476 13.043 13.043 0 00-1.612-.321c12.485.155 25.241.224 37.766.277 6.075.026 13.065.26 18.981.033 3.224-.124 7.034-.281 7.112-.828.028-.183-.571-.778-1.029-.937-.908-.315-2-.292-4.445-.326.9-.229 3.547-.261 4.094-.524.455-.219-.778-.52-1.327-.718a29.42 29.42 0 00-6.578-1.132 10.554 10.554 0 001.825-.515 1.181 1.181 0 00.417-.338q1 0 1.829-.083c1.442-.234 2.715-.075 2.037-.508-.485-.31-.513-.2-2.789-.36-1.3-.089-2.468-.32-3.687-.383-.64-.033-3.338.044-4.034.041-2.178-.011-4.616-.028-6.949-.053-9.55-.1-19.595-.293-29.249-.258a878.26 878.26 0 01-14.757-.077c-4.587-.063-9.582-.046-14.2-.144-4.59-.1-9.628-.094-14.2-.144-2.4-.027-4.738.083-6.947-.053a18.837 18.837 0 01-2.169-.188 14.057 14.057 0 00-3.31-.5 11.03 11.03 0 001.979-.609c1.794-.507-.431-.066 1.381-.275.549-.063 2.7-.128 2.943-.183-.05.011-.255-.415-.2-.377-.509-.331.892-.027-1.42-.281-1.456-.159-4.541-.39-5.965-.43-2.4-.068-6-.037-8.369-.032-3.469.008-6.825 0-10.185.032-12.523.124-25.363.032-38.019.032-24.78 0-49.935-.063-74.717-.064-25.464 0-50.574.006-76.034.064-5.995.013-12.4.035-18.554 0-6.129-.036-12.63.044-18.8-.032-12.3-.152-25.083.04-37.359-.032-6.963-.04-14.067 0-20.872 0-7.028 0-14.031-.015-20.874 0-7.316.016-14.586-.04-21.782.032-3.465.034-6.971-.03-10.438 0-2.055.018-11.21.687-6.552 1.085-4.992-.4-1.61.92-1.187 1.1.567.245 1.5.519 1.542.74.054.281-1.484.453-.249.749zm112.031-36c-.632.269-.841.526-.521.835.439.424.836.32 1.975.384.825.046 1.865.013 2.705.022a22.7 22.7 0 01-2.409.289 4.149 4.149 0 00-1.66.729c-.025.013-.816.337-.814.328-.021.1.717.394.854.511.468.4 1 .867.957 1.225-.015.128-.188.3-.252.429q.536.173.042.326a.733.733 0 00-.335.22c-.055.251-.162.743.847.906.72.116 3.073-.017 3.887-.01a5.3 5.3 0 01-.744.432c-.415-.3-.8.026-1.12.125q0-.178-.562-.258c-.718.455-2.743.707-1.044 1.237 1.329.414 3.866.253 5.635.261 3.345.014 6.706-.007 10.052-.015l9.749-.024c.658 0 2.294-.108 2.845-.015 1.047.177.307.44 1.808.516.911.046 2.065 0 2.99.007a5.177 5.177 0 01-.735.426c-.417-.3-.8.027-1.118.126q0-.179-.563-.26c-.668.423-2.561.64-1.265 1.157 1.232.491 3.714.338 5.539.336 3.146 0 6.3.026 9.442 0 6.27-.047 12.618-.054 18.889-.017 12.675.072 25.4-.013 38.08-.024 25.259-.023 50.609.111 75.858-.079 7.079-.054 14.245-.06 21.326-.019 3.513.02 7.464.111 10.931-.037 1.474-.063 4.336-.279 4.592-.777.106-.208-.484-.7-.666-.9-.4-.457-.525-.421-2.323-.469 1.015-.491 2.539-.289 1.742-.926a2.722 2.722 0 00-.792-.473 4.182 4.182 0 00-.847-.321c6.56.155 13.262.224 19.843.277 3.192.026 6.864.26 9.973.033 1.694-.124 3.7-.281 3.737-.828a1.708 1.708 0 00-.54-.937c-.477-.315-1.053-.292-2.336-.326.475-.229 1.864-.261 2.151-.524.239-.219-.409-.52-.7-.718a9.191 9.191 0 00-3.456-1.132 3.833 3.833 0 00.959-.515.961.961 0 00.219-.338 5.656 5.656 0 00.961-.083c.757-.234 1.426-.075 1.07-.508-.255-.31-.27-.2-1.465-.36-.681-.089-1.3-.32-1.937-.383-.336-.033-1.754.044-2.12.041a346.882 346.882 0 01-3.651-.053c-5.018-.1-10.3-.293-15.368-.258-2.495.017-5.224-.011-7.754-.077-2.41-.063-5.035-.046-7.459-.144s-5.059-.094-7.459-.144c-1.259-.027-2.489.083-3.65-.053a5.369 5.369 0 01-1.14-.188c-.709-.178-.54-.438-1.739-.5.6-.2.642-.394 1.04-.609.943-.507-.227-.066.726-.275.289-.063 1.419-.128 1.547-.183a1.068 1.068 0 01-.1-.377c-.268-.331.469-.027-.746-.281a28.95 28.95 0 00-3.134-.43c-1.262-.068-3.154-.037-4.4-.032-1.823.008-3.586 0-5.352.032-6.58.124-13.327.032-19.976.032-13.02 0-26.237-.063-39.258-.064-13.379 0-26.573.006-39.95.064-3.15.013-6.514.035-9.749 0s-6.636.044-9.881-.032c-6.465-.152-13.179.04-19.629-.032-3.659-.04-7.391 0-10.967 0-3.692 0-7.372-.015-10.968 0-3.844.016-7.664-.04-11.445.032-1.82.034-3.663-.03-5.484 0-1.08.018-5.89.687-3.443 1.085-2.623-.4-.846.92-.624 1.1.3.245.79.519.81.74.028.277-.78.449-.131.745z" fill="#fed438" fill-rule="evenodd"/><path d="M539.478 2207.328h-4.564l-6.664 21.728h3.584l1.876-6.384h6.664l1.848 6.384h3.948zm.224 12.544h-5.32l1.176-4.424c.476-1.68.868-3.248 1.344-5.32h.252c.476 2.044.812 3.64 1.288 5.348zm14.14-6.188h-3.36v15.372h3.472v-10.08a4.226 4.226 0 013.332-2.6c1.232 0 1.9.812 1.9 2.576v10.104h3.472v-10.08c.728-1.54 2.016-2.6 3.22-2.6 1.372 0 2.128.84 2.128 2.576v10.104h3.528v-11.088c0-2.968-1.708-4.62-4.2-4.62a5.921 5.921 0 00-4.872 3 3.644 3.644 0 00-3.78-3 5.846 5.846 0 00-4.844 3.024zm27.048 0h-3.528v15.372h3.528zm.14-6.356h-3.808v3.612h3.808zm18.032 10.92a5.87 5.87 0 00-6.216-4.9c-4.284 0-6.972 3.08-6.972 8.092s2.6 8.008 6.972 8.008a5.965 5.965 0 006.3-4.9l-3.276-.9c-.336 2.128-1.288 3.22-2.94 3.22-2.268 0-3.444-1.932-3.444-5.488 0-3.528 1.176-5.46 3.444-5.46 1.428 0 2.38.98 2.716 3.108zm8.092-4.564h-3.528v15.372h3.528zm.14-6.356h-3.808v3.612h3.808zm16.352 11.032l-6.384 6.384 1.12 1.12 6.384-6.384 6.384 6.356 1.15-1.12-6.384-6.356 6.354-6.36-1.148-1.12-6.328 6.356-6.384-6.384-1.12 1.148zm27.3.84a23.687 23.687 0 01-9.746 7.784 6.817 6.817 0 011.346 1.932c.224.476.336.672.5.672a1.55 1.55 0 00.648-.308 26.532 26.532 0 008.876-8.18c-.028 4.12-.17 8.488-.17 9.776 0 .28.028.308.308.308h2.52c.28 0 .308-.028.308-.308 0-1.372-.084-5.684-.14-9.828a25.4 25.4 0 009.326 8.288 2.092 2.092 0 00.672.28c.168 0 .28-.168.476-.644a7.914 7.914 0 011.456-2.044 25.939 25.939 0 01-10.556-7.728h5.6c2.548 0 3.416.056 3.584.056.308 0 .336-.028.336-.308v-2.156c0-.28-.028-.308-.336-.308-.168 0-1.036.056-3.584.056h-6.888v-3.976h4.48c2.716 0 3.7.056 3.864.056.252 0 .28-.028.28-.308v-2.212c0-.28-.028-.308-.28-.308-.168 0-1.148.056-3.864.056h-4.48v-1.036a9.777 9.777 0 01.14-2.044 4.553 4.553 0 00.2-.728c0-.14-.168-.28-.448-.308-.952-.112-2.044-.168-3.08-.2a16.328 16.328 0 01.2 3.332v.98h-4c-2.716 0-3.7-.056-3.864-.056-.252 0-.28.028-.28.308v2.212c0 .28.028.308.28.308.168 0 1.148-.056 3.864-.056h4v3.976h-6.476c-2.518.004-3.418-.052-3.584-.052-.28 0-.308.028-.308.308v2.156c0 .28.028.308.308.308.166 0 1.066-.056 3.584-.056zm29.12 1.4a22.918 22.918 0 01-9.324 6.888 7.256 7.256 0 011.316 1.848c.252.476.336.672.532.672a2.092 2.092 0 00.672-.28 24.3 24.3 0 008.738-7.644c-.028 3.948-.14 7.756-.14 8.848 0 .28.028.308.308.308h2.432c.28 0 .308-.028.308-.308 0-1.036-.084-4.956-.14-9.016a24.72 24.72 0 009.3 7.9 2.031 2.031 0 00.644.28c.2 0 .28-.2.5-.7a7.913 7.913 0 011.458-2.048c-4.48-1.876-7.532-3.892-10.052-6.748h5.348c2.52 0 3.388.056 3.556.056.28 0 .308-.028.308-.336v-2.044c0-.28-.028-.308-.308-.308-.168 0-1.036.056-3.556.056h-2.408a52.442 52.442 0 001.68-2.772 3.066 3.066 0 01.7-1.008.386.386 0 00.252-.364c0-.2-.112-.336-.448-.448a26.1 26.1 0 00-2.828-.7 7.489 7.489 0 01-.448 1.484 23.477 23.477 0 01-1.848 3.808h-1.764v-5.992h5.572c2.688 0 3.584.056 3.752.056.308 0 .336-.028.336-.308v-2.072c0-.28-.028-.308-.336-.308-.168 0-1.064.056-3.752.056h-5.572v-.616a9.255 9.255 0 01.14-2.016 3.545 3.545 0 00.168-.784c0-.112-.112-.252-.392-.28a37.5 37.5 0 00-3.024-.2 18.292 18.292 0 01.2 3.3v.588h-5.156c-2.688 0-3.584-.056-3.752-.056-.28 0-.308.028-.308.308v2.072c0 .28.028.308.308.308.168 0 1.064-.056 3.752-.056h5.152v5.992h-6.72c-2.52 0-3.388-.056-3.556-.056-.28 0-.308.028-.308.308v2.052c0 .308.028.336.308.336.168 0 1.036-.056 3.556-.056zm-4.928-7.056c-.336.112-.392.2-.224.476a17.156 17.156 0 011.68 3.444c.112.28.168.308.532.168l2.016-.756c.308-.112.392-.168.28-.448a20.717 20.717 0 00-1.764-3.444c-.168-.252-.252-.252-.56-.14zm31.248 3.416c0 1.2-.084 2.828-.084 3.808-.028.336.14.476.532.476h2.24c.448 0 .616-.14.616-.56-.028-.98-.084-2.072-.084-3.528v-5.656a6.445 6.445 0 01.308-2.66 1.173 1.173 0 00.112-.42c0-.2-.14-.364-.476-.448a20.722 20.722 0 00-3.472-.588 19.171 19.171 0 01.308 4.088zm13.188-5.46a8.436 8.436 0 01.252-3.052.887.887 0 00.112-.448.47.47 0 00-.392-.476 17.522 17.522 0 00-3.64-.616 20.558 20.558 0 01.308 4.564v5.292c0 3.556-.588 5.88-1.876 7.476a13.681 13.681 0 01-6.832 4.088 9.1 9.1 0 012.38 1.708.909.909 0 00.672.336 1.77 1.77 0 00.588-.14 14.446 14.446 0 006.16-4.4c1.652-2.212 2.268-4.984 2.268-9.128zm25.06 2.3c.028-1.6.028-2.52.028-3.836a5.252 5.252 0 01.224-1.708 1.7 1.7 0 00.2-.616c0-.2-.112-.308-.42-.392a21.1 21.1 0 00-3.724-.392 12.068 12.068 0 01.336 2.828c.028 1.232.028 2.744.028 4.144h-5.52c-1.372 0-2.94 0-4.76-.14.056 1.036.112 2.212.2 2.772.056.42.14.56.5.532 1.064-.028 2.66-.14 4.032-.14h5.4c-.14 2.968-.616 4.788-1.708 6.468-1.34 2.068-3.188 3.552-6.35 5.064a7.788 7.788 0 012.35 1.54.836.836 0 00.616.28 1.151 1.151 0 00.644-.2 15.54 15.54 0 005.964-5.516c1.2-1.988 1.624-3.584 1.9-7.644h3.976c1.568 0 3.7.112 4.7.112.42 0 .532-.084.532-.532a14.217 14.217 0 000-2.184c-.028-.476-.14-.532-.532-.5-1.456.028-3.3.056-4.872.056zm-327.446 33.74c-1.82 0-3.22 0-4.732-.112a16.311 16.311 0 00.252 2.912c.056.308.14.5.364.476a59.52 59.52 0 014.424-.168l7.224-.028a34.345 34.345 0 01-5.264 7.028 34.011 34.011 0 01-9.856 7.14 7.671 7.671 0 012.352 1.82.626.626 0 00.476.252 1.773 1.773 0 00.644-.224 40.284 40.284 0 009.408-7.392 50.967 50.967 0 017.28 6.944.575.575 0 00.392.224.484.484 0 00.336-.168 15 15 0 001.876-1.9.693.693 0 00.2-.42.637.637 0 00-.224-.392 65.834 65.834 0 00-7.756-6.776 44.185 44.185 0 003.584-5.236 5.128 5.128 0 011.036-1.232.773.773 0 00.364-.56.746.746 0 00-.14-.364 10.207 10.207 0 00-1.82-1.96.925.925 0 00-.476-.224.466.466 0 00-.308.112 4.112 4.112 0 01-1.932.252zm21.42 10.7a32.2 32.2 0 002.6 2.464.577.577 0 00.392.2.636.636 0 00.5-.364 9.185 9.185 0 011.12-1.428c1.932-2.128 3.192-3.64 4.564-5.068a.585.585 0 01.448-.224.693.693 0 01.448.2 126.864 126.864 0 0012.4 9.772.466.466 0 00.308.112c.14 0 .28-.112.42-.308a16.407 16.407 0 001.456-2.436.488.488 0 00-.252-.756 88.922 88.922 0 01-12.544-9.1 3.24 3.24 0 00-2.436-1.148c-.868 0-1.4.308-2.52 1.484a283.55 283.55 0 01-4.06 4.228 12.891 12.891 0 01-2.844 2.368zm19.628-11.844a2.953 2.953 0 00-3.024 3 2.988 2.988 0 003.024 3 2.988 2.988 0 003.024-3 2.988 2.988 0 00-3.024-3.004zm0 1.344a1.6 1.6 0 011.652 1.652 1.6 1.6 0 01-1.652 1.652 1.6 1.6 0 01-1.652-1.652 1.6 1.6 0 011.652-1.656zm10.836 7.084a24.551 24.551 0 015.656 3.052.542.542 0 00.336.168c.112 0 .224-.112.364-.28a11.4 11.4 0 001.232-2.128.831.831 0 00.112-.308c0-.168-.112-.28-.308-.42a19.432 19.432 0 00-5.376-2.744c-.252-.056-.392.084-.532.28-.336.444-.784 1.256-1.484 2.376zm3.388-6.58a27.08 27.08 0 015.432 3.444.721.721 0 00.42.2.312.312 0 00.28-.168 11.985 11.985 0 001.428-2.1.678.678 0 00.112-.364.443.443 0 00-.224-.364 19.036 19.036 0 00-5.264-3.108c-.336-.168-.5-.112-.7.224-.476.72-1.008 1.504-1.484 2.232zm-1.176 15.96a17.684 17.684 0 002.072 2.856.72.72 0 00.56.336.62.62 0 00.448-.224 9.2 9.2 0 011.624-.952 65 65 0 008.372-5.264 52.165 52.165 0 007.112-6.468.871.871 0 00.308-.644 1.369 1.369 0 00-.14-.532 13.984 13.984 0 01-.812-3.136 50.953 50.953 0 01-8.064 7.812 46.9 46.9 0 01-7.672 4.844 12.947 12.947 0 01-3.808 1.368zm35.532-6.076l1.316 5.18c.392 1.568.784 3.108 1.12 4.676.112.476.336.5.7.42a9.47 9.47 0 001.848-.56.545.545 0 00.364-.756c-.42-1.568-.812-2.94-1.288-4.7l-1.288-5.068 5.4-1.428a20.213 20.213 0 01-2.968 4.284 7.484 7.484 0 012.24.84.8.8 0 00.42.14.53.53 0 00.42-.252 33.213 33.213 0 003.164-5.264 2.154 2.154 0 01.448-.588.816.816 0 00.308-.56.628.628 0 00-.224-.42 15.11 15.11 0 00-1.652-1.4.882.882 0 00-.476-.252.484.484 0 00-.336.168 3.084 3.084 0 01-1.4.616l-6.076 1.54-.532-2.1a4.567 4.567 0 01-.168-2.016c.056-.392-.14-.56-.588-.56-.728 0-2.128.168-3.276.308a10.661 10.661 0 011.148 2.828l.616 2.352-1.68.448a33.419 33.419 0 01-4.256.924 15.7 15.7 0 00.98 2.464c.14.28.28.392.476.392a1.537 1.537 0 00.5-.14 22.725 22.725 0 013.08-1.092zm35.14-6.384c0-2.016 0-2.576.252-3.108a1.792 1.792 0 00.224-.7c0-.224-.14-.392-.5-.476a26.72 26.72 0 00-3.5-.588 22.358 22.358 0 01.28 4.872v8.756c0 1.428.028 1.764-.168 2.128a.86.86 0 00-.112.42 1.117 1.117 0 00.252.588 8.085 8.085 0 001.68 1.708 1.194 1.194 0 00.588.224.889.889 0 00.56-.224 9.3 9.3 0 01.812-.588 46.5 46.5 0 004.976-3.356 35.394 35.394 0 004.144-3.668c.308-.308.42-.5.42-.7a1.394 1.394 0 00-.168-.476 8.072 8.072 0 01-.868-2.828 26.87 26.87 0 01-4.9 4.76 28.464 28.464 0 01-3.976 2.6zm-9.772-3.108a7.531 7.531 0 01.28 2.352c-.028 4.48-.392 6.02-1.176 7.924a13.9 13.9 0 01-4.648 5.572 9.922 9.922 0 012.38 1.176.952.952 0 00.532.224 1.27 1.27 0 00.728-.364 14.424 14.424 0 003.976-5.264 20.956 20.956 0 001.512-8.232 4.039 4.039 0 01.336-1.9c.168-.392.112-.728-.364-.868a22.637 22.637 0 00-3.556-.624zm41.776 12.288h-9.6c-2.212 0-3.836-.056-5.152-.14a26.546 26.546 0 00.14 2.912c.028.308.14.42.392.42 1.344-.028 2.828-.112 4.592-.112h9.632v1.12c0 .42.084.448.532.476a18.09 18.09 0 002.464 0c.392-.028.5-.112.5-.392-.028-.784-.112-3.024-.112-5.068v-6.692c0-1.484.056-2.94.056-4.424.028-.364-.112-.476-.56-.476-1.484.056-2.968.112-4.424.112h-8.32a40.056 40.056 0 01-4.676-.2c0 .924.056 2.24.14 3 0 .336.112.476.42.476a38.535 38.535 0 014.2-.168h9.772zm26.768-12.236c1.708 0 3.024.056 3.948.056.42.028.5-.084.5-.56a14.217 14.217 0 000-2.184c0-.308-.084-.448-.336-.448-1.092.056-2.576.14-4.4.14h-5.04a38.576 38.576 0 01-4.592-.2 24.4 24.4 0 00.14 2.688c.028.448.112.616.392.616a56.81 56.81 0 013.836-.112zm2.128 5.992c-2.016 5.4-6.58 9.268-11.76 11.676a8.208 8.208 0 012.6 1.456.914.914 0 00.616.336 1.345 1.345 0 00.56-.2c5.408-2.908 8.628-6.408 11.428-12.372a3.207 3.207 0 01.952-1.316.675.675 0 00.308-.532.825.825 0 00-.28-.588 16.526 16.526 0 00-1.88-1.74.721.721 0 00-.42-.2.6.6 0 00-.364.168 3.08 3.08 0 01-1.484.308h-9.6a49.552 49.552 0 01-5.152-.224 21.225 21.225 0 00.308 2.828c.056.364.168.532.42.532 1.4-.084 2.8-.112 4.2-.112zm22.876-3.892h-4.452c-1.428 0-3.136-.028-5.264-.2 0 .924.084 2.184.112 2.688 0 .336.112.56.364.56a63.37 63.37 0 014.844-.2h4.4v9.664c0 .728-.2 1.036-.644 1.232a13.943 13.943 0 01-3.808.336 6.547 6.547 0 011.876 2.52c.168.42.336.588.672.588a8.694 8.694 0 003.584-.924 2.916 2.916 0 001.652-2.884c0-2.184-.056-3.388-.056-4.872l-.028-5.656h3.3c1.9 0 4.032.084 5.768.14.28.028.364-.168.392-.532a18.949 18.949 0 00.028-2.184c0-.308-.112-.476-.364-.448-1.372.056-3.276.168-5.712.168h-3.444v-1.484a6.511 6.511 0 01.28-2.8 1.063 1.063 0 00.168-.5q0-.336-.5-.42c-.7-.14-2.156-.308-3.472-.42a21.586 21.586 0 01.308 4.312zm-6.636 5.1a6.2 6.2 0 01-.756 2.268 18.7 18.7 0 01-3.388 4.62 8.168 8.168 0 012.38 1.176.816.816 0 00.42.168.764.764 0 00.56-.336 21.569 21.569 0 003.108-4.684 2.629 2.629 0 01.7-.952c.224-.168.308-.308.308-.448 0-.2-.168-.364-.42-.532a13.044 13.044 0 00-2.908-1.284zm12.74 1.792a27.152 27.152 0 014.256 5.88c.112.2.2.28.308.28a.92.92 0 00.336-.168 15.564 15.564 0 001.876-1.4.542.542 0 00.28-.448.739.739 0 00-.14-.42 21.591 21.591 0 00-4-5.124.53.53 0 00-.42-.252.546.546 0 00-.364.14c-.648.472-1.376.948-2.132 1.508zm.98-11.508a13.893 13.893 0 012.828 3.248.292.292 0 00.476.084l1.176-.868a.282.282 0 00.084-.448 12.887 12.887 0 00-2.66-3c-.168-.14-.28-.168-.42-.056zm2.576-1.848a13.246 13.246 0 012.8 3.22.287.287 0 00.476.084l1.12-.868a.324.324 0 00.084-.5 11.693 11.693 0 00-2.66-2.884c-.168-.14-.252-.168-.42-.056zm22.232 9.492a41.721 41.721 0 00-4.872-2.94.8.8 0 00-.336-.112.389.389 0 00-.28.14c-.364.392-1.036 1.26-1.848 2.3a30.717 30.717 0 015.46 3.332 34.2 34.2 0 01-10.556 9.176 8.155 8.155 0 012.52 1.54.785.785 0 00.532.2 1.275 1.275 0 00.644-.224 36.751 36.751 0 009.576-8.736 28.627 28.627 0 013.668 3.7c.14.168.252.252.392.252a.433.433 0 00.336-.2c.588-.644 1.148-1.26 1.708-1.988a.746.746 0 00.14-.364.6.6 0 00-.168-.392 32.54 32.54 0 00-4.116-3.808 54.992 54.992 0 003.192-5.544 6.118 6.118 0 011.26-1.876.826.826 0 00.308-.616.584.584 0 00-.28-.476 13.682 13.682 0 00-3.528-1.764 13.026 13.026 0 01-1.064 3.444 33.158 33.158 0 01-2.688 4.952zm30.884-1.516c1.792 0 3.584.028 4.9.084.28 0 .336-.14.364-.532a18.5 18.5 0 000-2.492c0-.336-.084-.476-.308-.476-1.2.056-2.884.14-5.04.14h-5.544c-1.68 0-3-.028-4.76-.168a18.872 18.872 0 00.168 2.968c.028.42.112.588.392.588 1.288-.056 2.52-.112 4.284-.112zm2.352 11.9c1.9 0 4.788.028 6.132.084.364 0 .42-.168.42-.588a17.682 17.682 0 000-2.436c0-.364-.084-.5-.448-.5-1.288.056-3.192.14-6.3.14h-10.192c-1.764 0-3.78-.028-5.8-.168.084 1.484.14 2.436.252 3.08.056.364.14.532.42.532 1.372-.112 3.22-.14 5.04-.14zm28.812-.812l.868-5.74a2.222 2.222 0 01.56-1.4.63.63 0 000-1.008 9.656 9.656 0 00-1.708-1.54.887.887 0 00-.42-.168.521.521 0 00-.308.112 3.4 3.4 0 01-1.652.252h-3.864c-1.176 0-2.016-.056-3.892-.14.056.924.112 1.82.2 2.408.056.476.168.56.5.532.728-.028 1.988-.084 3.08-.084h4.508l-.952 6.8H710.1c-1.4 0-2.436 0-4.032-.112a14.323 14.323 0 00.14 2.352c.056.42.168.56.476.56 1.372-.056 2.464-.056 3.612-.056H720.6c1.288 0 2.632.028 3.892.028.42 0 .5-.028.532-.56s.028-1.232 0-1.764c-.028-.448-.14-.532-.616-.5-1.064 0-2.3.028-3.416.028zm29.428-5.04c2.072 0 4.144.028 6.244.056.392.028.5-.084.5-.42a20.638 20.638 0 000-2.632c0-.336-.084-.42-.5-.392-2.156.028-4.312.084-6.44.084h-9.016a35.972 35.972 0 01-6.048-.336 30.39 30.39 0 00.42 3.388c.084.42.308.588.644.588a22.39 22.39 0 014.116-.336zm31.388-11.536a13.894 13.894 0 012.828 3.248.292.292 0 00.476.084l1.176-.868a.282.282 0 00.084-.448 12.887 12.887 0 00-2.66-3c-.168-.14-.28-.168-.42-.056zm2.576-1.848a13.246 13.246 0 012.8 3.22.287.287 0 00.476.084l1.12-.868a.324.324 0 00.084-.5 11.694 11.694 0 00-2.66-2.884c-.168-.14-.252-.168-.42-.056zm-13.776 6.384a56.184 56.184 0 01-3.3.42c-1.232.112-2.464.2-3.7.2a25.582 25.582 0 00.868 2.884.614.614 0 00.9.364 8.228 8.228 0 011.54-.448c.756-.14 1.652-.308 2.744-.476a59.041 59.041 0 01-5.124 10.976.521.521 0 00-.112.308.576.576 0 00.224.42 12.733 12.733 0 001.932 1.232.459.459 0 00.728-.252 77.328 77.328 0 005.628-13.16 18.548 18.548 0 012.352-.2c1.232 0 1.6.616 1.6 2.576a21.625 21.625 0 01-1.092 6.972c-.448 1.148-.868 1.484-1.792 1.484a7.451 7.451 0 01-3.22-.728 8 8 0 01.532 2.6.748.748 0 00.5.784 7.42 7.42 0 002.912.42 4.008 4.008 0 003.78-2.632 23.856 23.856 0 001.512-8.764c0-3.584-1.4-5.4-4-5.4a21.4 21.4 0 00-2.24.112c.364-1.176.644-2.212 1.008-3.36a3.543 3.543 0 01.56-1.064.583.583 0 00.2-.42.59.59 0 00-.448-.56 20.493 20.493 0 00-3.36-.924 19.059 19.059 0 01-.28 3.108c-.208.952-.404 1.932-.852 3.528zm9.66-.224a18.954 18.954 0 014.592 7.252c.084.336.364.364.644.224a11.427 11.427 0 002.1-1.4.4.4 0 00.112-.56 18.739 18.739 0 00-4.648-6.8c-.2-.2-.336-.252-.532-.14a23.744 23.744 0 00-2.268 1.424zm20.86 4.424c-2.6 0-3.5-.056-3.7-.056-.28 0-.308.028-.308.336 0 .168.056.7.056 2.016V2260c0 1.316-.056 1.848-.056 2.016 0 .308.028.336.308.336.2 0 1.092-.056 3.7-.056h7.112a6.233 6.233 0 01-.532 1.54 20.97 20.97 0 01-1.176 2.1h-5.376l1.512-.672c.392-.168.42-.252.28-.532a20.241 20.241 0 00-1.26-2.128c-.168-.252-.28-.28-.616-.14l-1.848.784c-.336.112-.364.2-.2.448a19.039 19.039 0 011.176 2.24h-3.58c-2.52 0-3.388-.056-3.556-.056-.28 0-.308.028-.308.28v2.072c0 .28.028.308.308.308.168 0 1.036-.056 3.556-.056h16.856c2.52 0 3.388.056 3.556.056.28 0 .308-.028.308-.308v-2.072c0-.252-.028-.28-.308-.28-.168 0-1.036.056-3.556.056h-3.808l.84-1.456a1.421 1.421 0 01.532-.644.465.465 0 00.28-.392c0-.112-.112-.28-.364-.364a25.828 25.828 0 00-2.464-.784h.42c2.6 0 3.528.056 3.7.056.28 0 .308-.028.308-.336 0-.168-.056-.7-.056-2.016v-2.156c0-1.316.056-1.848.056-2.016 0-.308-.028-.336-.308-.336-.168 0-1.092.056-3.7.056zm-1.092 2.268h9.968v2.212h-9.968zm-.7-13.44c-2.1 0-2.772-.056-2.94-.056-.308 0-.336.028-.336.308v1.932c0 .252.028.28.336.28.168 0 .84-.056 2.94-.056h3.108a18.927 18.927 0 01-3.108 3.248 40.788 40.788 0 00-3.024-2.772c-.252-.2-.308-.14-.56.056l-1.4 1.12c-.14.112-.224.2-.224.252 0 .084.084.168.224.28a27.053 27.053 0 012.8 2.66 30.455 30.455 0 01-5.32 2.688 5.152 5.152 0 011.148 1.54c.252.5.364.728.588.728a1.926 1.926 0 00.644-.224 31.193 31.193 0 006.272-3.892v1.432c0 .28.028.308.308.308.14 0 .756-.056 2.744-.056h2.884c1.988 0 2.632.056 2.772.056.28 0 .308-.028.308-.308v-1.32a27.64 27.64 0 006.468 3.7 1.7 1.7 0 00.644.2c.224 0 .308-.2.532-.728a7.8 7.8 0 011.008-1.764 30.921 30.921 0 01-4.648-1.96 37.53 37.53 0 002.044-1.9 2.3 2.3 0 01.98-.756c.224-.084.364-.224.364-.392s-.084-.308-.336-.476c-.644-.42-1.344-.84-2.184-1.288a6.89 6.89 0 01-.784 1.2 25.38 25.38 0 01-2.3 2.24 17.148 17.148 0 01-1.568-1.26 24.827 24.827 0 001.932-1.848 2.628 2.628 0 01.952-.784c.252-.084.364-.224.364-.392 0-.14-.056-.28-.308-.448a20.794 20.794 0 00-2.156-1.288 7.124 7.124 0 01-.784 1.164 13.929 13.929 0 01-1.68 1.792 3.725 3.725 0 01-.392-.532 8.679 8.679 0 01-1.288-2.408c-.14-.308-.224-.336-.476-.336-.2 0-.98.056-2.548.056zm4.2 7.42c-1.148 0-1.848 0-2.24-.028a23.645 23.645 0 003.78-4.34 16.815 16.815 0 003.472 4.34c-.42.028-1.064.028-2.128.028zm40.012 8.764a22.69 22.69 0 01-.728 4.816c-.252.784-.476.868-1.092.868a15.137 15.137 0 01-2.548-.168 9.416 9.416 0 01.728 1.848c.224.868.224.868.868.924a11.941 11.941 0 001.428.056 2.959 2.959 0 003.164-2.156 18.882 18.882 0 00.868-5.376l.2-2.828c.028-.308-.056-.364-.364-.364-.168 0-.98.056-3.36.056h-7.312a1.362 1.362 0 01.448-.5.375.375 0 00.224-.364c0-.112-.14-.28-.392-.364l-.924-.224h8.4c2.716 0 3.668.056 3.808.056.28 0 .308-.028.308-.336v-1.824c0-.28-.028-.308-.308-.308-.14 0-1.092.056-3.808.056h-9.38c-2.716 0-3.64-.056-3.808-.056-.28 0-.308.028-.308.308v1.82c0 .308.028.336.308.336.14 0 1.008-.056 3.3-.056a5.771 5.771 0 01-.588 1.176 14.308 14.308 0 01-5.18 4.592 5.881 5.881 0 011.344 1.176c.28.336.42.5.588.5s.336-.14.7-.364a15.354 15.354 0 003.7-3.3h1.764a16 16 0 01-6.244 5.012 4.981 4.981 0 011.176.98c.336.364.476.532.7.532a1.677 1.677 0 00.7-.308 18.664 18.664 0 006.524-6.216h1.512a14.9 14.9 0 01-6.888 6.832 5.319 5.319 0 011.232 1.064c.336.364.5.532.7.532.168 0 .336-.112.672-.308a17.958 17.958 0 006.888-8.12zm-7.84-16.016c-2.436 0-3.22-.056-3.416-.056-.28 0-.308.028-.308.308 0 .168.056.84.056 2.38v3.388c0 1.6-.056 2.212-.056 2.408 0 .28.028.308.308.308.2 0 .98-.056 3.416-.056h5.264c2.408 0 3.192.056 3.388.056.28 0 .308-.028.308-.308 0-.168-.056-.812-.056-2.408v-3.388c0-1.54.056-2.212.056-2.38 0-.28-.028-.308-.308-.308-.2 0-.98.056-3.388.056zm6.244 6.664H833.3v-1.372h7.336zm0-4.564v1.344H833.3v-1.344zm-14.28 6.608c1.512 0 2.044.056 2.212.056.28 0 .308-.028.308-.308v-2.128c0-.28-.028-.308-.308-.308-.168 0-.7.056-2.212.056v-2.492a11.8 11.8 0 01.168-3.108 1.43 1.43 0 00.168-.56c0-.14-.168-.28-.448-.308a41.419 41.419 0 00-2.856-.168 25.915 25.915 0 01.224 4.228v2.408h-.224c-1.848 0-2.408-.056-2.576-.056-.252 0-.28.028-.28.308V2253c0 .28.028.308.28.308.168 0 .728-.056 2.576-.056h.224v6.948c-.224.084-.448.14-.644.224a19.151 19.151 0 01-2.772.7 18.054 18.054 0 00.756 2.492c.14.28.252.364.42.364a.863.863 0 00.5-.252 4.273 4.273 0 01.9-.392 39.385 39.385 0 005.152-2.408c.756-.42.756-.364.728-1.288 0-.616 0-1.26.028-1.736-.784.42-1.568.784-2.324 1.148zm38.3-8.428h-4.368l.784 16.66h2.832zm-4.2 19.376v3.78h3.976v-3.78z" fill="#292929"/></g></svg>