<svg xmlns="http://www.w3.org/2000/svg" width="236" height="92"><defs><clipPath id="a"><path transform="translate(70 2480)" fill="none" stroke="#707070" d="M0 0h236v92H0z"/></clipPath></defs><g transform="translate(-70 -2480)" clip-path="url(#a)"><path d="M71.441 2559.731c-.6.269-.8.526-.5.835.418.424.8.32 1.88.384.785.046 1.774.013 2.574.022a20.6 20.6 0 01-2.293.289 3.86 3.86 0 00-1.58.729c-.024.013-.777.337-.775.328-.02.1.683.394.813.511.445.4.95.867.91 1.225-.014.128-.178.3-.24.429q.51.173.04.326a.7.7 0 00-.319.22c-.052.251-.154.743.806.906.685.116 2.924-.017 3.7-.01a4.987 4.987 0 01-.708.432c-.395-.3-.758.026-1.066.125q0-.178-.534-.258c-.684.455-2.611.707-.993 1.237 1.265.414 3.679.253 5.362.261 3.183.014 6.382-.007 9.566-.015l9.277-.024a25.883 25.883 0 012.708-.015c1 .177.292.44 1.72.516.867.046 1.965 0 2.845.007a4.874 4.874 0 01-.7.426c-.4-.3-.757.027-1.064.126q0-.179-.535-.26c-.636.423-2.437.64-1.2 1.157 1.172.491 3.534.338 5.271.336 2.993 0 5.992.026 8.985 0 5.967-.047 12.007-.054 17.975-.017 12.062.072 24.171-.013 36.238-.024 24.037-.023 48.16.111 72.187-.079 6.737-.054 13.556-.06 20.294-.019 3.343.02 7.1.111 10.4-.037 1.4-.063 4.126-.279 4.37-.777.1-.208-.46-.7-.634-.9-.384-.457-.5-.421-2.211-.469.965-.491 2.416-.289 1.658-.926a2.571 2.571 0 00-.754-.473 3.865 3.865 0 00-.806-.321c6.243.155 12.62.224 18.883.277 3.038.026 6.532.26 9.491.033 1.612-.124 3.517-.281 3.556-.828a1.732 1.732 0 00-.514-.937c-.454-.315-1-.292-2.223-.326.452-.229 1.773-.261 2.047-.524.228-.219-.389-.52-.664-.718a8.464 8.464 0 00-3.289-1.132 3.6 3.6 0 00.912-.515.969.969 0 00.209-.338 5.129 5.129 0 00.914-.083c.721-.234 1.357-.075 1.019-.508-.243-.31-.257-.2-1.395-.36-.648-.089-1.234-.32-1.844-.383-.32-.033-1.669.044-2.017.041a314.238 314.238 0 01-3.475-.053c-4.775-.1-9.8-.293-14.625-.258-2.374.017-4.971-.011-7.378-.077-2.294-.063-4.791-.046-7.1-.144s-4.814-.094-7.1-.144c-1.2-.027-2.369.083-3.474-.053a4.885 4.885 0 01-1.085-.188c-.675-.178-.514-.438-1.655-.5.567-.2.611-.394.989-.609.9-.507-.216-.066.691-.275.275-.063 1.35-.128 1.472-.183a1.11 1.11 0 01-.1-.377c-.255-.331.446-.027-.71-.281a26.3 26.3 0 00-2.982-.43c-1.2-.068-3-.037-4.184-.032-1.734.008-3.413 0-5.093.032-6.262.124-12.682.032-19.009.032-12.39 0-24.967-.063-37.358-.064-12.732 0-25.287.006-38.017.064-3 .013-6.2.035-9.277 0s-6.315.044-9.4-.032c-6.152-.152-12.541.04-18.68-.032-3.482-.04-7.034 0-10.436 0-3.514 0-7.016-.015-10.437 0-3.658.016-7.293-.04-10.891.032-1.732.034-3.486-.03-5.219 0-1.028.018-5.605.687-3.276 1.085-2.5-.4-.805.92-.593 1.1.284.245.752.519.771.74.03.277-.738.449-.121.745zm59.313-34c-.306.269-.407.526-.252.835.213.424.4.32.956.384.4.046.9.013 1.309.022a5.7 5.7 0 01-1.166.289c-.46.178-.564.467-.8.729-.012.013-.4.337-.394.328-.01.1.347.394.413.511a2.671 2.671 0 01.463 1.225 3.034 3.034 0 01-.122.429q.259.173.02.326a.492.492 0 00-.162.22c-.027.251-.079.743.41.906a10.864 10.864 0 001.881-.01 3.063 3.063 0 01-.36.432c-.2-.3-.385.026-.542.125q0-.178-.272-.258c-.348.455-1.327.707-.505 1.237.643.414 1.871.253 2.727.261 1.618.014 3.245-.007 4.864-.015l4.717-.024a6.706 6.706 0 011.377-.015c.507.177.148.44.875.516.441.046 1 0 1.447.007a2.99 2.99 0 01-.356.426c-.2-.3-.385.027-.541.126q0-.179-.272-.26c-.323.423-1.239.64-.612 1.157.6.491 1.8.338 2.68.336 1.522 0 3.047.026 4.569 0 3.034-.047 6.105-.054 9.14-.017 6.133.072 12.291-.013 18.426-.024 12.222-.023 24.488.111 36.705-.079 3.425-.054 6.893-.06 10.319-.019 1.7.02 3.612.111 5.289-.037.713-.063 2.1-.279 2.222-.777.051-.208-.234-.7-.322-.9-.2-.457-.254-.421-1.124-.469.491-.491 1.228-.289.843-.926a1.634 1.634 0 00-.383-.473 1.665 1.665 0 00-.41-.321c3.174.155 6.417.224 9.6.277a30.808 30.808 0 004.826.033c.82-.124 1.788-.281 1.808-.828a2.539 2.539 0 00-.262-.937c-.231-.315-.51-.292-1.13-.326.23-.229.9-.261 1.041-.524.116-.219-.2-.52-.337-.718a3.354 3.354 0 00-1.672-1.132 2.069 2.069 0 00.464-.515 1.348 1.348 0 00.106-.338 1.381 1.381 0 00.465-.083c.367-.234.69-.075.518-.508-.123-.31-.13-.2-.709-.36-.329-.089-.627-.32-.937-.383-.163-.033-.849.044-1.026.041a81.396 81.396 0 01-1.767-.053c-2.428-.1-4.982-.293-7.436-.258a56.825 56.825 0 01-3.752-.077c-1.166-.063-2.436-.046-3.609-.144s-2.448-.094-3.609-.144a9.451 9.451 0 01-1.766-.053 1.439 1.439 0 01-.552-.188c-.343-.178-.262-.438-.842-.5.289-.2.31-.394.5-.609.456-.507-.11-.066.351-.275.14-.063.687-.128.748-.183a2.024 2.024 0 01-.05-.377c-.129-.331.227-.027-.361-.281a7.416 7.416 0 00-1.517-.43 20.716 20.716 0 00-2.128-.032c-.882.008-1.735 0-2.59.032-3.184.124-6.448.032-9.666.032-6.3 0-12.7-.063-19-.064-6.474 0-12.858.006-19.331.064-1.524.013-3.152.035-4.717 0s-3.211.044-4.781-.032c-3.128-.152-6.377.04-9.5-.032-1.77-.04-3.576 0-5.306 0-1.787 0-3.567-.015-5.307 0-1.86.016-3.708-.04-5.538.032-.881.034-1.772-.03-2.654 0-.522.018-2.85.687-1.666 1.085-1.269-.4-.409.92-.3 1.1.144.245.382.519.392.74.019.277-.372.449-.058.745zm-29.668-32c-.449.269-.6.526-.37.835.312.424.594.32 1.4.384.585.046 1.323.013 1.92.022a11.68 11.68 0 01-1.71.289 2.648 2.648 0 00-1.178.729c-.018.013-.579.337-.578.328-.015.1.509.394.606.511.332.4.709.867.679 1.225a2.342 2.342 0 01-.179.429q.38.173.03.326a.554.554 0 00-.238.22.688.688 0 00.6.906 23.345 23.345 0 002.759-.01 3.727 3.727 0 01-.528.432c-.295-.3-.565.026-.795.125q0-.178-.4-.258c-.51.455-1.947.707-.741 1.237.944.414 2.744.253 4 .261 2.374.014 4.759-.007 7.134-.015l6.919-.024a14.4 14.4 0 012.019-.015c.743.177.218.44 1.283.516.647.046 1.465 0 2.122.007a3.64 3.64 0 01-.522.426c-.3-.3-.564.027-.793.126q0-.179-.4-.26c-.474.423-1.817.64-.9 1.157.874.491 2.635.338 3.931.336 2.232 0 4.469.026 6.7 0 4.45-.047 8.954-.054 13.405-.017 9 .072 18.026-.013 27.025-.024 17.926-.023 35.916.111 53.835-.079 5.024-.054 10.109-.06 15.134-.019 2.493.02 5.3.111 7.757-.037 1.046-.063 3.077-.279 3.259-.777.076-.208-.343-.7-.473-.9-.286-.457-.372-.421-1.649-.469.72-.491 1.8-.289 1.237-.926a1.951 1.951 0 00-.562-.473 2.525 2.525 0 00-.6-.321c4.655.155 9.412.224 14.082.277a66.216 66.216 0 007.078.033c1.2-.124 2.623-.281 2.652-.828a1.964 1.964 0 00-.384-.937c-.339-.315-.748-.292-1.657-.326.337-.229 1.323-.261 1.527-.524.17-.219-.29-.52-.495-.718a5.381 5.381 0 00-2.453-1.132 2.62 2.62 0 00.68-.515 1.068 1.068 0 00.156-.338 2.886 2.886 0 00.682-.083c.538-.234 1.012-.075.76-.508-.181-.31-.191-.2-1.04-.36-.483-.089-.92-.32-1.375-.383-.238-.033-1.245.044-1.5.041-.812-.011-1.721-.028-2.591-.053-3.561-.1-7.307-.293-10.906-.258-1.77.017-3.708-.011-5.5-.077-1.711-.063-3.573-.046-5.293-.144s-3.59-.094-5.293-.144a20.291 20.291 0 01-2.591-.053 2.821 2.821 0 01-.809-.188c-.5-.178-.384-.438-1.234-.5.423-.2.455-.394.738-.609.669-.507-.161-.066.515-.275.2-.063 1.007-.128 1.1-.183a1.424 1.424 0 01-.073-.377c-.19-.331.333-.027-.529-.281a14.991 14.991 0 00-2.224-.43c-.9-.068-2.238-.037-3.121-.032-1.293.008-2.545 0-3.8.032-4.67.124-9.458.032-14.177.032-9.24 0-18.62-.063-27.86-.064-9.495 0-18.858.006-28.352.064-2.235.013-4.623.035-6.919 0s-4.709.044-7.012-.032c-4.588-.152-9.353.04-13.931-.032-2.6-.04-5.245 0-7.783 0-2.62 0-5.232-.015-7.784 0-2.728.016-5.439-.04-8.122.032-1.292.034-2.6-.03-3.892 0-.766.018-4.18.687-2.443 1.085-1.862-.4-.6.92-.443 1.1.212.245.561.519.575.74.016.277-.558.449-.097.745z" fill="#fed438" fill-rule="evenodd"/><path d="M115.77 2481.52h-3.26l-4.76 15.52h2.56l1.34-4.56h4.76l1.32 4.56h2.82zm.16 8.96h-3.8l.84-3.16c.34-1.2.62-2.32.96-3.8h.18c.34 1.46.58 2.6.92 3.82zm10.1-4.42h-2.4v10.98h2.48v-7.2a3.019 3.019 0 012.38-1.86c.88 0 1.36.58 1.36 1.84v7.22h2.48v-7.2a2.9 2.9 0 012.3-1.86c.98 0 1.52.6 1.52 1.84v7.22h2.52v-7.92c0-2.12-1.22-3.3-3-3.3a4.23 4.23 0 00-3.48 2.14 2.6 2.6 0 00-2.7-2.14 4.175 4.175 0 00-3.46 2.16zm19.32 0h-2.52v10.98h2.52zm.1-4.54h-2.72v2.58h2.72zm12.88 7.8a4.193 4.193 0 00-4.44-3.5c-3.06 0-4.98 2.2-4.98 5.78s1.86 5.72 4.98 5.72a4.261 4.261 0 004.5-3.5l-2.34-.64c-.24 1.52-.92 2.3-2.1 2.3-1.62 0-2.46-1.38-2.46-3.92 0-2.52.84-3.9 2.46-3.9 1.02 0 1.7.7 1.94 2.22zm5.78-3.26h-2.52v10.98h2.52zm.1-4.54h-2.72v2.58h2.72zm11.68 7.88l-4.56 4.56.8.8 4.56-4.56 4.56 4.54.82-.8-4.56-4.54 4.54-4.54-.82-.8-4.52 4.54-4.56-4.56-.8.82zm19.5.6a16.919 16.919 0 01-6.96 5.56 4.869 4.869 0 01.96 1.38c.16.34.24.48.36.48a1.107 1.107 0 00.46-.22 18.952 18.952 0 006.34-5.84c-.02 2.94-.12 6.06-.12 6.98 0 .2.02.22.22.22h1.8c.2 0 .22-.02.22-.22 0-.98-.06-4.06-.1-7.02a18.146 18.146 0 006.66 5.92 1.494 1.494 0 00.48.2c.12 0 .2-.12.34-.46a5.653 5.653 0 011.04-1.46 18.528 18.528 0 01-7.54-5.52h4c1.82 0 2.44.04 2.56.04.22 0 .24-.02.24-.22v-1.54c0-.2-.02-.22-.24-.22-.12 0-.74.04-2.56.04h-4.92v-2.84h3.2c1.94 0 2.64.04 2.76.04.18 0 .2-.02.2-.22v-1.58c0-.2-.02-.22-.2-.22-.12 0-.82.04-2.76.04h-3.2v-.74a6.983 6.983 0 01.1-1.46 3.252 3.252 0 00.14-.52c0-.1-.12-.2-.32-.22-.68-.08-1.46-.12-2.2-.14a11.663 11.663 0 01.14 2.38v.7h-2.86c-1.94 0-2.64-.04-2.76-.04-.18 0-.2.02-.2.22v1.58c0 .2.02.22.2.22.12 0 .82-.04 2.76-.04h2.86v2.84h-4.62c-1.8 0-2.44-.04-2.56-.04-.2 0-.22.02-.22.22v1.54c0 .2.02.22.22.22.12 0 .76-.04 2.56-.04zm20.8 1a16.37 16.37 0 01-6.66 4.92 5.183 5.183 0 01.94 1.32c.18.34.24.48.38.48a1.494 1.494 0 00.48-.2 17.357 17.357 0 006.24-5.46c-.02 2.82-.1 5.54-.1 6.32 0 .2.02.22.22.22h1.74c.2 0 .22-.02.22-.22 0-.74-.06-3.54-.1-6.44a17.657 17.657 0 006.64 5.64 1.451 1.451 0 00.46.2c.14 0 .2-.14.36-.5a5.653 5.653 0 011.04-1.46 18.485 18.485 0 01-7.18-4.82h3.82c1.8 0 2.42.04 2.54.04.2 0 .22-.02.22-.24v-1.46c0-.2-.02-.22-.22-.22-.12 0-.74.04-2.54.04h-1.72c.46-.7.82-1.32 1.2-1.98a2.19 2.19 0 01.5-.72.275.275 0 00.18-.26c0-.14-.08-.24-.32-.32a18.638 18.638 0 00-2.02-.5 5.349 5.349 0 01-.32 1.06 16.769 16.769 0 01-1.32 2.72h-1.26v-4.28h3.98c1.92 0 2.56.04 2.68.04.22 0 .24-.02.24-.22v-1.48c0-.2-.02-.22-.24-.22-.12 0-.76.04-2.68.04h-3.98v-.44a6.611 6.611 0 01.1-1.44 2.532 2.532 0 00.12-.56c0-.08-.08-.18-.28-.2-.7-.08-1.44-.12-2.16-.14a13.065 13.065 0 01.14 2.36v.42h-3.68c-1.92 0-2.56-.04-2.68-.04-.2 0-.22.02-.22.22v1.48c0 .2.02.22.22.22.12 0 .76-.04 2.68-.04h3.68v4.28h-4.8c-1.8 0-2.42-.04-2.54-.04-.2 0-.22.02-.22.22v1.46c0 .22.02.24.22.24.12 0 .74-.04 2.54-.04zm-3.52-5.04c-.24.08-.28.14-.16.34a12.254 12.254 0 011.2 2.46c.08.2.12.22.38.12l1.44-.54c.22-.08.28-.12.2-.32a14.8 14.8 0 00-1.26-2.46c-.12-.18-.18-.18-.4-.1zm22.32 2.44c0 .86-.06 2.02-.06 2.72-.02.24.1.34.38.34h1.6c.32 0 .44-.1.44-.4-.02-.7-.06-1.48-.06-2.52v-4.04a4.6 4.6 0 01.22-1.9.838.838 0 00.08-.3c0-.14-.1-.26-.34-.32a14.8 14.8 0 00-2.48-.42 13.694 13.694 0 01.22 2.92zm9.42-3.9a6.025 6.025 0 01.18-2.18.633.633 0 00.08-.32.336.336 0 00-.28-.34 12.516 12.516 0 00-2.6-.44 14.685 14.685 0 01.22 3.26v3.78c0 2.54-.42 4.2-1.34 5.34a9.772 9.772 0 01-4.88 2.92 6.5 6.5 0 011.7 1.22.649.649 0 00.48.24 1.264 1.264 0 00.42-.1 10.319 10.319 0 004.4-3.14c1.18-1.58 1.62-3.56 1.62-6.52zm17.9 1.64c.02-1.14.02-1.8.02-2.74a3.751 3.751 0 01.16-1.22 1.214 1.214 0 00.14-.44c0-.14-.08-.22-.3-.28a15.074 15.074 0 00-2.66-.28 8.62 8.62 0 01.24 2.02c.02.88.02 1.96.02 2.96h-3.94c-.98 0-2.1 0-3.4-.1.04.74.08 1.58.14 1.98.04.3.1.4.36.38.76-.02 1.9-.1 2.88-.1h3.86a8.593 8.593 0 01-1.22 4.62 10.122 10.122 0 01-4.54 3.62 5.563 5.563 0 011.68 1.1.6.6 0 00.44.2.822.822 0 00.46-.14 11.1 11.1 0 004.26-3.94c.86-1.42 1.16-2.56 1.36-5.46h2.84c1.12 0 2.64.08 3.36.08.3 0 .38-.06.38-.38a10.155 10.155 0 000-1.56c-.02-.34-.1-.38-.38-.36-1.04.02-2.36.04-3.48.04zm-118.39 28.96c-1.3 0-2.3 0-3.38-.08a11.652 11.652 0 00.18 2.08c.04.22.1.36.26.34 1.08-.08 2.12-.12 3.16-.12l5.16-.02a24.532 24.532 0 01-3.76 5.02 24.294 24.294 0 01-7.04 5.1 5.48 5.48 0 011.68 1.3.447.447 0 00.34.18 1.266 1.266 0 00.46-.16 28.774 28.774 0 006.72-5.28 36.406 36.406 0 015.2 4.96.411.411 0 00.28.16.346.346 0 00.24-.12 10.717 10.717 0 001.34-1.36.5.5 0 00.14-.3.455.455 0 00-.16-.28 47.024 47.024 0 00-5.54-4.84 31.561 31.561 0 002.56-3.74 3.663 3.663 0 01.74-.88.552.552 0 00.26-.4.533.533 0 00-.1-.26 7.291 7.291 0 00-1.3-1.4.661.661 0 00-.34-.16.333.333 0 00-.22.08 2.937 2.937 0 01-1.38.18zm15.3 7.64a23 23 0 001.86 1.76.412.412 0 00.28.14.454.454 0 00.36-.26 6.561 6.561 0 01.8-1.02c1.38-1.52 2.28-2.6 3.26-3.62a.418.418 0 01.32-.16.5.5 0 01.32.14 90.615 90.615 0 008.86 6.98.333.333 0 00.22.08c.1 0 .2-.08.3-.22a11.719 11.719 0 001.04-1.74.349.349 0 00-.18-.54 63.515 63.515 0 01-8.96-6.5 2.314 2.314 0 00-1.74-.82c-.62 0-1 .22-1.8 1.06-.94 1-1.92 2.02-2.9 3.02a9.208 9.208 0 01-2.04 1.7zm14.02-8.46a2.11 2.11 0 00-2.16 2.14 2.134 2.134 0 002.16 2.14 2.134 2.134 0 002.16-2.14 2.134 2.134 0 00-2.16-2.14zm0 .96a1.146 1.146 0 011.18 1.18 1.146 1.146 0 01-1.18 1.18 1.146 1.146 0 01-1.18-1.18 1.146 1.146 0 011.18-1.18zm7.74 5.06a17.537 17.537 0 014.04 2.18.387.387 0 00.24.12c.08 0 .16-.08.26-.2a8.144 8.144 0 00.88-1.52.593.593 0 00.08-.22c0-.12-.08-.2-.22-.3a13.88 13.88 0 00-3.84-1.96c-.18-.04-.28.06-.38.2-.24.32-.56.9-1.06 1.7zm2.42-4.7a19.343 19.343 0 013.88 2.46.515.515 0 00.3.14.223.223 0 00.2-.12 8.56 8.56 0 001.02-1.5.484.484 0 00.08-.26.317.317 0 00-.16-.26 13.6 13.6 0 00-3.76-2.22c-.24-.12-.36-.08-.5.16-.34.52-.72 1.08-1.06 1.6zm-.84 11.4a12.631 12.631 0 001.48 2.04.515.515 0 00.4.24.443.443 0 00.32-.16 6.572 6.572 0 011.16-.68 46.432 46.432 0 005.98-3.76 37.262 37.262 0 005.08-4.62.622.622 0 00.22-.46.978.978 0 00-.1-.38 9.988 9.988 0 01-.58-2.24 36.4 36.4 0 01-5.76 5.58 33.5 33.5 0 01-5.48 3.46 9.247 9.247 0 01-2.72.98zm25.38-4.34l.94 3.7c.28 1.12.56 2.22.8 3.34.08.34.24.36.5.3a6.764 6.764 0 001.32-.4.389.389 0 00.26-.54c-.3-1.12-.58-2.1-.92-3.36l-.92-3.62 3.86-1.02a14.438 14.438 0 01-2.12 3.06 5.346 5.346 0 011.6.6.575.575 0 00.3.1.379.379 0 00.3-.18 23.723 23.723 0 002.26-3.76 1.538 1.538 0 01.32-.42.583.583 0 00.22-.4.449.449 0 00-.16-.3 10.793 10.793 0 00-1.18-1 .63.63 0 00-.34-.18.346.346 0 00-.24.12 2.2 2.2 0 01-1 .44l-4.34 1.1-.38-1.5a3.262 3.262 0 01-.12-1.44c.04-.28-.1-.4-.42-.4-.52 0-1.52.12-2.34.22a7.615 7.615 0 01.82 2.02l.44 1.68-1.2.32a23.87 23.87 0 01-3.04.66 11.213 11.213 0 00.7 1.76c.1.2.2.28.34.28a1.1 1.1 0 00.36-.1 16.233 16.233 0 012.2-.78zm25.1-4.56a5.534 5.534 0 01.18-2.22 1.28 1.28 0 00.16-.5c0-.16-.1-.28-.36-.34a19.086 19.086 0 00-2.5-.42 15.97 15.97 0 01.2 3.48v6.26c0 1.02.02 1.26-.12 1.52a.614.614 0 00-.08.3.8.8 0 00.18.42 5.775 5.775 0 001.2 1.22.853.853 0 00.42.16.635.635 0 00.4-.16 6.642 6.642 0 01.58-.42 33.213 33.213 0 003.56-2.4 25.281 25.281 0 002.96-2.62c.22-.22.3-.36.3-.5a1 1 0 00-.12-.34 5.765 5.765 0 01-.62-2.02 19.193 19.193 0 01-3.5 3.4 20.332 20.332 0 01-2.84 1.86zm-6.98-2.22a5.38 5.38 0 01.2 1.68c-.02 3.2-.28 4.3-.84 5.66a9.929 9.929 0 01-3.32 3.98 7.087 7.087 0 011.7.84.68.68 0 00.38.16.907.907 0 00.52-.26 10.3 10.3 0 002.84-3.76 14.968 14.968 0 001.08-5.88 2.885 2.885 0 01.24-1.36c.12-.28.08-.52-.26-.62a16.169 16.169 0 00-2.54-.44zM87.9 2556.66h-6.86c-1.58 0-2.74-.04-3.68-.1a18.962 18.962 0 00.1 2.08c.02.22.1.3.28.3.96-.02 2.02-.08 3.28-.08h6.88v.8c0 .3.06.32.38.34a12.921 12.921 0 001.76 0c.28-.02.36-.08.36-.28-.02-.56-.08-2.16-.08-3.62v-4.78c0-1.06.04-2.1.04-3.16.02-.26-.08-.34-.4-.34-1.06.04-2.12.08-3.16.08h-5.94a28.612 28.612 0 01-3.34-.14c0 .66.04 1.6.1 2.14 0 .24.08.34.3.34a27.525 27.525 0 013-.12h6.98zm19.12-8.74c1.22 0 2.16.04 2.82.04.3.02.36-.06.36-.4a10.155 10.155 0 000-1.56c0-.22-.06-.32-.24-.32-.78.04-1.84.1-3.14.1h-3.6a27.555 27.555 0 01-3.28-.14 17.432 17.432 0 00.1 1.92c.02.32.08.44.28.44.84-.06 1.84-.08 2.74-.08zm1.52 4.28c-1.44 3.86-4.7 6.62-8.4 8.34a5.863 5.863 0 011.86 1.04.653.653 0 00.44.24.961.961 0 00.4-.14 17.481 17.481 0 008.16-8.84 2.291 2.291 0 01.68-.94.482.482 0 00.22-.38.589.589 0 00-.2-.42 11.8 11.8 0 00-1.34-1.24.515.515 0 00-.3-.14.43.43 0 00-.26.12 2.2 2.2 0 01-1.06.22h-6.86a35.394 35.394 0 01-3.68-.16 15.163 15.163 0 00.22 2.02c.04.26.12.38.3.38 1-.06 2-.08 3-.08zm16.34-2.78h-3.18c-1.02 0-2.24-.02-3.76-.14 0 .66.06 1.56.08 1.92 0 .24.08.4.26.4.94-.08 2.32-.14 3.46-.14h3.14v6.9c0 .52-.14.74-.46.88a9.959 9.959 0 01-2.72.24 4.676 4.676 0 011.34 1.8c.12.3.24.42.48.42a6.21 6.21 0 002.56-.66 2.083 2.083 0 001.18-2.06c0-1.56-.04-2.42-.04-3.48l-.02-4.04h2.36c1.36 0 2.88.06 4.12.1.2.02.26-.12.28-.38a13.534 13.534 0 00.02-1.56c0-.22-.08-.34-.26-.32-.98.04-2.34.12-4.08.12h-2.46v-1.06a4.651 4.651 0 01.2-2 .759.759 0 00.12-.36q0-.24-.36-.3c-.5-.1-1.54-.22-2.48-.3a15.419 15.419 0 01.22 3.08zm-4.74 3.64a4.432 4.432 0 01-.54 1.62 13.357 13.357 0 01-2.42 3.3 5.834 5.834 0 011.7.84.583.583 0 00.3.12.546.546 0 00.4-.24 15.406 15.406 0 002.22-3.34 1.877 1.877 0 01.5-.68c.16-.12.22-.22.22-.32 0-.14-.12-.26-.3-.38a9.317 9.317 0 00-2.08-.92zm9.1 1.28a19.394 19.394 0 013.04 4.2c.08.14.14.2.22.2a.657.657 0 00.24-.12 11.117 11.117 0 001.34-1 .387.387 0 00.2-.32.528.528 0 00-.1-.3 15.422 15.422 0 00-2.86-3.66.379.379 0 00-.3-.18.39.39 0 00-.26.1c-.46.34-.98.68-1.52 1.08zm.7-8.22a9.924 9.924 0 012.02 2.32.209.209 0 00.34.06l.84-.62a.2.2 0 00.06-.32 9.205 9.205 0 00-1.9-2.14c-.12-.1-.2-.12-.3-.04zm1.84-1.32a9.461 9.461 0 012 2.3.205.205 0 00.34.06l.8-.62a.231.231 0 00.06-.36 8.352 8.352 0 00-1.9-2.06c-.12-.1-.18-.12-.3-.04zm15.88 6.78a29.8 29.8 0 00-3.48-2.1.569.569 0 00-.24-.08.278.278 0 00-.2.1c-.26.28-.74.9-1.32 1.64a21.941 21.941 0 013.9 2.38 24.432 24.432 0 01-7.54 6.56 5.825 5.825 0 011.8 1.1.561.561 0 00.38.14.911.911 0 00.46-.16 26.251 26.251 0 006.84-6.24 20.448 20.448 0 012.62 2.64c.1.12.18.18.28.18a.309.309 0 00.24-.14c.42-.46.82-.9 1.22-1.42a.533.533 0 00.1-.26.432.432 0 00-.12-.28 23.243 23.243 0 00-2.94-2.72 39.279 39.279 0 002.28-3.96 4.37 4.37 0 01.9-1.34.59.59 0 00.22-.44.417.417 0 00-.2-.34 9.773 9.773 0 00-2.52-1.26 9.3 9.3 0 01-.76 2.46 23.684 23.684 0 01-1.92 3.54zm22.06-1.08c1.28 0 2.56.02 3.5.06.2 0 .24-.1.26-.38a13.216 13.216 0 000-1.78c0-.24-.06-.34-.22-.34-.86.04-2.06.1-3.6.1h-3.96c-1.2 0-2.14-.02-3.4-.12a13.48 13.48 0 00.12 2.12c.02.3.08.42.28.42.92-.04 1.8-.08 3.06-.08zm1.68 8.5c1.36 0 3.42.02 4.38.06.26 0 .3-.12.3-.42a12.63 12.63 0 000-1.74c0-.26-.06-.36-.32-.36-.92.04-2.28.1-4.5.1h-7.28c-1.26 0-2.7-.02-4.14-.12.06 1.06.1 1.74.18 2.2.04.26.1.38.3.38.98-.08 2.3-.1 3.6-.1zm20.58-.58l.62-4.1a1.587 1.587 0 01.4-1 .45.45 0 000-.72 6.9 6.9 0 00-1.22-1.1.634.634 0 00-.3-.12.372.372 0 00-.22.08 2.431 2.431 0 01-1.18.18h-2.76c-.84 0-1.44-.04-2.78-.1.04.66.08 1.3.14 1.72.04.34.12.4.36.38.52-.02 1.42-.06 2.2-.06h3.22l-.68 4.86h-4.64c-1 0-1.74 0-2.88-.08a10.231 10.231 0 00.1 1.68c.04.3.12.4.34.4.98-.04 1.76-.04 2.58-.04h7.36c.92 0 1.88.02 2.78.02.3 0 .36-.02.38-.4s.02-.88 0-1.26c-.02-.32-.1-.38-.44-.36-.76 0-1.64.02-2.44.02zm21.02-3.6c1.48 0 2.96.02 4.46.04.28.02.36-.06.36-.3a14.741 14.741 0 000-1.88c0-.24-.06-.3-.36-.28-1.54.02-3.08.06-4.6.06h-6.44a25.7 25.7 0 01-4.32-.24 21.707 21.707 0 00.3 2.42c.06.3.22.42.46.42a15.993 15.993 0 012.94-.24zm22.42-8.24a9.924 9.924 0 012.02 2.32.209.209 0 00.34.06l.84-.62a.2.2 0 00.06-.32 9.2 9.2 0 00-1.9-2.14c-.12-.1-.2-.12-.3-.04zm1.84-1.32a9.461 9.461 0 012 2.3.205.205 0 00.34.06l.8-.62a.231.231 0 00.06-.36 8.352 8.352 0 00-1.9-2.06c-.12-.1-.18-.12-.3-.04zm-9.84 4.56c-.78.12-1.52.22-2.36.3-.88.08-1.76.14-2.64.14a18.273 18.273 0 00.62 2.06.438.438 0 00.64.26 5.877 5.877 0 011.1-.32c.54-.1 1.18-.22 1.96-.34a42.172 42.172 0 01-3.66 7.84.372.372 0 00-.08.22.411.411 0 00.16.3 9.1 9.1 0 001.38.88.328.328 0 00.52-.18 55.234 55.234 0 004.02-9.4 13.248 13.248 0 011.68-.14c.88 0 1.14.44 1.14 1.84a15.446 15.446 0 01-.78 4.98c-.32.82-.62 1.06-1.28 1.06a5.322 5.322 0 01-2.3-.52 5.715 5.715 0 01.38 1.86.534.534 0 00.36.56 5.3 5.3 0 002.08.3 2.863 2.863 0 002.7-1.88 17.04 17.04 0 001.08-6.26c0-2.56-1-3.86-2.86-3.86a15.283 15.283 0 00-1.6.08c.26-.84.46-1.58.72-2.4a2.53 2.53 0 01.4-.76.417.417 0 00.14-.3.421.421 0 00-.32-.4 14.638 14.638 0 00-2.4-.66 13.613 13.613 0 01-.2 2.22c-.14.68-.28 1.38-.6 2.52zm6.9-.16a13.539 13.539 0 013.28 5.18c.06.24.26.26.46.16a8.162 8.162 0 001.5-1 .286.286 0 00.08-.4 13.385 13.385 0 00-3.32-4.86c-.14-.14-.24-.18-.38-.1a16.96 16.96 0 00-1.62 1.02zm14.9 3.16c-1.86 0-2.5-.04-2.64-.04-.2 0-.22.02-.22.24 0 .12.04.5.04 1.44v1.54c0 .94-.04 1.32-.04 1.44 0 .22.02.24.22.24.14 0 .78-.04 2.64-.04h5.08a4.452 4.452 0 01-.38 1.1 14.982 14.982 0 01-.84 1.5h-3.84l1.08-.48c.28-.12.3-.18.2-.38a14.458 14.458 0 00-.9-1.52c-.12-.18-.2-.2-.44-.1l-1.32.56c-.24.08-.26.14-.14.32a13.6 13.6 0 01.84 1.6H246c-1.8 0-2.42-.04-2.54-.04-.2 0-.22.02-.22.2v1.48c0 .2.02.22.22.22.12 0 .74-.04 2.54-.04h12.04c1.8 0 2.42.04 2.54.04.2 0 .22-.02.22-.22v-1.48c0-.18-.02-.2-.22-.2-.12 0-.74.04-2.54.04h-2.72l.6-1.04a1.015 1.015 0 01.38-.46.332.332 0 00.2-.28c0-.08-.08-.2-.26-.26a18.449 18.449 0 00-1.76-.56h.3c1.86 0 2.52.04 2.64.04.2 0 .22-.02.22-.24 0-.12-.04-.5-.04-1.44v-1.54c0-.94.04-1.32.04-1.44 0-.22-.02-.24-.22-.24-.12 0-.78.04-2.64.04zm-.78 1.62h7.12v1.58h-7.12zm-.5-9.6c-1.5 0-1.98-.04-2.1-.04-.22 0-.24.02-.24.22v1.38c0 .18.02.2.24.2.12 0 .6-.04 2.1-.04h2.22a13.519 13.519 0 01-2.22 2.32 29.136 29.136 0 00-2.16-1.98c-.18-.14-.22-.1-.4.04l-1 .8c-.1.08-.16.14-.16.18 0 .06.06.12.16.2a19.323 19.323 0 012 1.9 21.753 21.753 0 01-3.8 1.92 3.68 3.68 0 01.82 1.1c.18.36.26.52.42.52a1.375 1.375 0 00.46-.16 22.281 22.281 0 004.48-2.78v1.02c0 .2.02.22.22.22.1 0 .54-.04 1.96-.04H253c1.42 0 1.88.04 1.98.04.2 0 .22-.02.22-.22v-.94a19.742 19.742 0 004.62 2.64 1.218 1.218 0 00.46.14c.16 0 .22-.14.38-.52a5.572 5.572 0 01.72-1.26 22.087 22.087 0 01-3.32-1.4c.56-.48 1.04-.94 1.46-1.36a1.639 1.639 0 01.7-.54c.16-.06.26-.16.26-.28s-.06-.22-.24-.34c-.46-.3-.96-.6-1.56-.92a4.921 4.921 0 01-.56.86 18.127 18.127 0 01-1.64 1.6 12.247 12.247 0 01-1.12-.9 17.732 17.732 0 001.38-1.32 1.877 1.877 0 01.68-.56c.18-.06.26-.16.26-.28 0-.1-.04-.2-.22-.32a14.853 14.853 0 00-1.54-.92 5.089 5.089 0 01-.56.84 9.95 9.95 0 01-1.2 1.28 2.66 2.66 0 01-.28-.38 6.2 6.2 0 01-.92-1.72c-.1-.22-.16-.24-.34-.24-.14 0-.7.04-1.82.04zm3 5.3c-.82 0-1.32 0-1.6-.02a16.889 16.889 0 002.7-3.1 12.011 12.011 0 002.48 3.1c-.3.02-.76.02-1.52.02zm28.58 6.26a16.208 16.208 0 01-.52 3.44c-.18.56-.34.62-.78.62a10.812 10.812 0 01-1.82-.12 6.726 6.726 0 01.52 1.32c.16.62.16.62.62.66a8.529 8.529 0 001.02.04 2.114 2.114 0 002.26-1.54 13.487 13.487 0 00.62-3.84l.14-2.02c.02-.22-.04-.26-.26-.26-.12 0-.7.04-2.4.04h-5.22a.973.973 0 01.32-.36.268.268 0 00.16-.26c0-.08-.1-.2-.28-.26l-.66-.16h6c1.94 0 2.62.04 2.72.04.2 0 .22-.02.22-.24v-1.3c0-.2-.02-.22-.22-.22-.1 0-.78.04-2.72.04h-6.7c-1.94 0-2.6-.04-2.72-.04-.2 0-.22.02-.22.22v1.3c0 .22.02.24.22.24.1 0 .72-.04 2.36-.04a4.122 4.122 0 01-.42.84 10.22 10.22 0 01-3.7 3.28 4.2 4.2 0 01.96.84c.2.24.3.36.42.36s.24-.1.5-.26a10.968 10.968 0 002.64-2.36h1.26a11.425 11.425 0 01-4.46 3.58 3.558 3.558 0 01.84.7c.24.26.34.38.5.38a1.2 1.2 0 00.5-.22 13.332 13.332 0 004.66-4.44h1.08a10.643 10.643 0 01-4.92 4.88 3.8 3.8 0 01.88.76c.24.26.36.38.5.38.12 0 .24-.08.48-.22a12.827 12.827 0 004.92-5.8zm-5.6-11.44c-1.74 0-2.3-.04-2.44-.04-.2 0-.22.02-.22.22 0 .12.04.6.04 1.7v2.42c0 1.14-.04 1.58-.04 1.72 0 .2.02.22.22.22.14 0 .7-.04 2.44-.04h3.76c1.72 0 2.28.04 2.42.04.2 0 .22-.02.22-.22 0-.12-.04-.58-.04-1.72v-2.42c0-1.1.04-1.58.04-1.7 0-.2-.02-.22-.22-.22-.14 0-.7.04-2.42.04zm4.46 4.76h-5.24v-.98h5.24zm0-3.26v.96h-5.24v-.96zm-10.2 4.72c1.08 0 1.46.04 1.58.04.2 0 .22-.02.22-.22v-1.52c0-.2-.02-.22-.22-.22-.12 0-.5.04-1.58.04v-1.78a8.43 8.43 0 01.12-2.22 1.021 1.021 0 00.12-.4c0-.1-.12-.2-.32-.22-.66-.06-1.26-.1-2.04-.12a18.511 18.511 0 01.16 3.02v1.72h-.16c-1.32 0-1.72-.04-1.84-.04-.18 0-.2.02-.2.22v1.52c0 .2.02.22.2.22.12 0 .52-.04 1.84-.04h.16v4.96c-.16.06-.32.1-.46.16a13.679 13.679 0 01-1.98.5 12.9 12.9 0 00.54 1.78c.1.2.18.26.3.26a.617.617 0 00.36-.18 3.052 3.052 0 01.64-.28 28.132 28.132 0 003.68-1.72c.54-.3.54-.26.52-.92 0-.44 0-.9.02-1.24-.56.3-1.12.56-1.66.82zm27.36-6.02h-3.12l.56 11.9H295zm-3 13.84v2.7h2.84v-2.7z" fill="#292929"/></g></svg>