<svg xmlns="http://www.w3.org/2000/svg" width="471" height="35"><path d="M20.05 30.843q0 1.081 1.367 1.08v1.08h-9.56v-1.08a1.212 1.212 0 00.775-.269.966.966 0 00.342-.811V6.964H2.732a2.173 2.173 0 00-1.086.3 1.2 1.2 0 00-.529 1.141H-.004v-8.4h1.117a1.192 1.192 0 00.529 1.141 2.154 2.154 0 001.086.3h27.568a2.157 2.157 0 001.086-.3A1.2 1.2 0 0031.91.005h1.117v8.4H31.91a1.2 1.2 0 00-.528-1.141 2.175 2.175 0 00-1.086-.3H20.052zm13.659 1.077a1.82 1.82 0 001.271-.779 12.488 12.488 0 00.9-1.5l11.485-23.34c.289-.519.549-1 .775-1.44a2.556 2.556 0 00.342-1.14.879.879 0 00-.434-.84 3.8 3.8 0 00-.931-.36v-1.08h10.49v1.08a5.207 5.207 0 00-.867.33.868.868 0 00-.436.87 2.305 2.305 0 00.217.96q.218.48.652 1.26l12.912 24.42a2.072 2.072 0 00.838.96 12.628 12.628 0 001.211.6v1.08H61.209v-1.08a1.5 1.5 0 00.621-.179.574.574 0 00.371-.539 3.632 3.632 0 00-.5-1.561l-2.36-4.439H44.196l-2.235 4.259a4.92 4.92 0 00-.621 1.8c0 .442.393.66 1.18.66v1.08h-8.814zm23.4-11.16L51.896 9.601 46.062 20.76zm27.812 10.083a.936.936 0 00.373.811 1.442 1.442 0 00.87.269v1.08h-9.686v-1.08q1.365 0 1.367-1.08V3.604q0-1.08-1.367-1.08v-1.08h9.686v1.08a1.443 1.443 0 00-.87.27.936.936 0 00-.373.81v11.4l12.85-9.779q.87-.72 1.367-1.17c.33-.3.5-.55.5-.75a.657.657 0 00-.279-.6 1.173 1.173 0 00-.652-.181v-1.08h13.037v1.08a3.577 3.577 0 00-2.237.9L95.23 14.405l13.037 14.58a15.555 15.555 0 001.893 1.769 6.131 6.131 0 002.142 1.17v1.08h-11.484v-1.08c.537 0 .807-.138.807-.42q0-.3-.87-1.319L90.14 18.365l-5.215 3.9zM147.496 7.92a1.094 1.094 0 00-.528-.989 3.676 3.676 0 00-1.832-.33h-20.113v7.44h12.168a4.528 4.528 0 001.924-.33q.682-.328.683-1.711h1.118v9.361h-1.12q0-1.378-.683-1.771a3.932 3.932 0 00-1.924-.388h-12.168v8.279h20.734a2.568 2.568 0 001.522-.42 1.33 1.33 0 00.59-1.141h1.117v8.223h-1.117c0-.6-.2-.94-.59-1.019a7.712 7.712 0 00-1.522-.122h-28.927v-1.08a1.218 1.218 0 00.775-.269.971.971 0 00.342-.811V3.603a.972.972 0 00-.342-.81 1.219 1.219 0 00-.775-.27v-1.08h28.306a3.2 3.2 0 001.832-.39 1.243 1.243 0 00.528-1.051h1.117v7.92zm42.273-6.839a25.745 25.745 0 016.953.99 21.906 21.906 0 016.455 2.97 16.317 16.317 0 014.782 5.01 14.744 14.744 0 010 14.34 16.306 16.306 0 01-4.782 5.01 20.3 20.3 0 01-6.455 2.88 27.3 27.3 0 01-13.906 0 20.335 20.335 0 01-6.455-2.88 16.3 16.3 0 01-4.781-5.01 14.734 14.734 0 010-14.34 16.312 16.312 0 014.781-5.01 21.949 21.949 0 016.455-2.97 25.742 25.742 0 016.953-.99zm0 5.52a16.057 16.057 0 00-4.717.72 14.628 14.628 0 00-4.254 2.07 10.9 10.9 0 00-3.072 3.33 9.169 9.169 0 000 9 10.9 10.9 0 003.072 3.33 14.63 14.63 0 004.254 2.071 15.86 15.86 0 009.436 0 14.64 14.64 0 004.252-2.071 10.927 10.927 0 003.072-3.33 9.169 9.169 0 000-9 10.929 10.929 0 00-3.072-3.33 14.638 14.638 0 00-4.252-2.07 16.071 16.071 0 00-4.719-.72zm35.322-4.08q-1.365 0-1.365 1.08v18q0 3.781 2.514 5.19t7.355 1.411q4.844 0 7.358-1.411t2.513-5.19v-18q0-1.08-1.861-1.08v-1.08h9.932v1.08q-1.493 0-1.491 1.08v17.7a14.122 14.122 0 01-1.054 5.85 8.584 8.584 0 01-3.166 3.689 13.121 13.121 0 01-5.246 1.862 54.84 54.84 0 01-14.465 0 13.084 13.084 0 01-5.244-1.862 8.548 8.548 0 01-3.166-3.689 14.08 14.08 0 01-1.057-5.85v-17.7q0-1.08-1.738-1.08v-1.08h10.181zm52.393 28.322q0 1.081 1.367 1.08v1.08h-9.56v-1.08a1.214 1.214 0 00.775-.269.969.969 0 00.342-.811V6.964h-10.242a2.167 2.167 0 00-1.086.3 1.2 1.2 0 00-.53 1.141h-1.117v-8.4h1.117a1.192 1.192 0 00.53 1.141 2.149 2.149 0 001.086.3h27.562a2.16 2.16 0 001.086-.3 1.194 1.194 0 00.527-1.141h1.118v8.4h-1.118a1.2 1.2 0 00-.527-1.141 2.178 2.178 0 00-1.086-.3h-10.244zm52.332-29.762a25.718 25.718 0 016.951.99 21.937 21.937 0 016.457 2.97 16.284 16.284 0 014.779 5.01 14.72 14.72 0 010 14.34 16.273 16.273 0 01-4.779 5.01 20.326 20.326 0 01-6.457 2.88 27.3 27.3 0 01-13.9 0 20.316 20.316 0 01-6.457-2.88 16.3 16.3 0 01-4.78-5.01 14.73 14.73 0 010-14.34 16.315 16.315 0 014.78-5.01 21.926 21.926 0 016.457-2.97 25.734 25.734 0 016.949-.99zm0 5.52a16.052 16.052 0 00-4.719.72 14.6 14.6 0 00-4.252 2.07 10.876 10.876 0 00-3.072 3.33 9.169 9.169 0 000 9 10.874 10.874 0 003.072 3.33 14.607 14.607 0 004.252 2.071 15.86 15.86 0 009.436 0 14.619 14.619 0 004.252-2.071 10.909 10.909 0 003.074-3.33 9.169 9.169 0 000-9 10.911 10.911 0 00-3.074-3.33 14.617 14.617 0 00-4.252-2.07 16.057 16.057 0 00-4.717-.72zm27.935 25.319q1.179 0 1.178-1.08V3.601q0-1.08-1.178-1.08v-1.08h10.616v1.08q-.5 0-.5.6 0 .48 1.242 1.679l17.816 17.88V3.6q0-1.08-1.613-1.08V1.44h9.373v1.08q-1.181 0-1.18 1.08v27.243q0 1.081 1.18 1.08v1.08h-10.057v-1.08c.537 0 .807-.179.807-.539q0-.419-.992-1.381l-18.934-19.08v19.92q0 1.081 1.428 1.08v1.08h-9.188zm76.418 2.223q0-.9-.589-1.019a7.712 7.712 0 00-1.522-.122h-29.549v-1.08q1.863 0 1.862-1.08V3.603q0-1.08-1.862-1.08v-1.08h10.678v1.08c-1.16 0-1.738.36-1.738 1.08v23.88h20.609a2.568 2.568 0 001.522-.42 1.329 1.329 0 00.589-1.141h1.118v8.221zm12.788-32.7v1.08a3.686 3.686 0 00-1.055.149.7.7 0 00-.5.75 5.01 5.01 0 00.9 1.711q.9 1.35 2.112 3.06t2.513 3.511q1.3 1.8 2.112 3.058l7.261-9.659c.332-.479.6-.86.809-1.14a1.356 1.356 0 00.31-.78q0-.42-.589-.54a5.5 5.5 0 00-1.088-.12v-1.08h10.865v1.08a4.582 4.582 0 00-.932.09 2.406 2.406 0 00-.9.42 5.447 5.447 0 00-.994.96q-.528.63-1.272 1.711l-10.552 14.459v10.68c0 .721.474 1.08 1.427 1.08v1.08h-9.808v-1.08a1.55 1.55 0 00.931-.269.935.935 0 00.371-.811V20.164l-11.98-16.2a3.365 3.365 0 00-1.334-1.02 3.785 3.785 0 00-1.522-.42v-1.08z" fill="#292929"/><path fill="none" d="M0 0h471v35H0z"/></svg>