<svg xmlns="http://www.w3.org/2000/svg" width="448" height="35" viewBox="0 0 448 35">
  <defs>
    <style>
      .cls-1 {
        fill: #292929;
        fill-rule: evenodd;
      }
    </style>
  </defs>
  <path id="SPECIAL_MENU_GOODS" data-name="SPECIAL MENU＆GOODS" class="cls-1" d="M12.428,6.8a14.3,14.3,0,0,0-3.7-.48,9.554,9.554,0,0,0-4.159.83A6.169,6.169,0,0,0,1.93,9.415a5.887,5.887,0,0,0-.9,3.206,5.8,5.8,0,0,0,.838,3.166,7.469,7.469,0,0,0,2,2.149A24.524,24.524,0,0,0,6.691,19.62,19.147,19.147,0,0,1,9.368,21.1a4.141,4.141,0,0,1,1.147,1.082,2.107,2.107,0,0,1,.277,1.1,1.813,1.813,0,0,1-.749,1.473,3.447,3.447,0,0,1-2.181.594,10.759,10.759,0,0,1-6.657-2.734v5.143A16.246,16.246,0,0,0,8.6,29.646a9.987,9.987,0,0,0,4.126-.814,6.477,6.477,0,0,0,2.816-2.311,6.091,6.091,0,0,0,1-3.467,5.729,5.729,0,0,0-.806-3.117,7.682,7.682,0,0,0-2.116-2.2,31.651,31.651,0,0,0-3.589-2.092,12.483,12.483,0,0,1-2.734-1.693,2.027,2.027,0,0,1-.7-1.5A1.769,1.769,0,0,1,7.277,11,3.186,3.186,0,0,1,9.3,10.457a10.291,10.291,0,0,1,6.3,2.523V8.113A12.07,12.07,0,0,0,12.428,6.8ZM38.183,8.43a9.441,9.441,0,0,0-6.152-1.815H22.444V29.353h5.729V20.418h4.134a9.854,9.854,0,0,0,4.484-.92,6.329,6.329,0,0,0,2.71-2.466,6.825,6.825,0,0,0,.9-3.483A6.248,6.248,0,0,0,38.183,8.43Zm-7.145,8.1H28.173V10.522H30.81a4.52,4.52,0,0,1,2.84.716,2.8,2.8,0,0,1,.887,2.311q0,2.979-3.5,2.979h0Zm30.3-5.843V6.615H45.782V29.353H61.6V25.284H51.511V19.75H60.9V15.681H51.511v-5h9.831Zm18.13-4.362a14.668,14.668,0,0,0-6.527,1.416,10.743,10.743,0,0,0-4.533,4.069,11.544,11.544,0,0,0-1.636,6.185,11.772,11.772,0,0,0,1.514,5.941,10.729,10.729,0,0,0,4.37,4.183,14.015,14.015,0,0,0,6.714,1.53,18.19,18.19,0,0,0,8.708-1.986V22.55a13.872,13.872,0,0,1-7.764,2.507,8.526,8.526,0,0,1-4.11-.936,6.541,6.541,0,0,1-2.645-2.531,6.929,6.929,0,0,1-.912-3.5,7.32,7.32,0,0,1,.9-3.573,6.618,6.618,0,0,1,2.661-2.62,8.579,8.579,0,0,1,4.24-.985,11.692,11.692,0,0,1,3.735.6,17.77,17.77,0,0,1,3.768,1.839V8.08a22.2,22.2,0,0,0-8.48-1.758h0ZM99.912,29.353V6.615H94.183V29.353h5.729Zm30.288,0-9.993-22.77h-5.974l-9.9,22.77h5.86l2.181-5.241h9.765l2.2,5.241H130.2Zm-9.57-8.9h-6.755l3.369-8.268Zm19.741,4.2V6.615h-5.729V29.353h16.031v-4.7h-10.3Zm39.693-9.261-7.129-8.773h-5.224V29.353h5.6V14.819l6.43,7.975h0.537l6.4-7.975V29.353H192.4V6.615h-5.192Zm34.78-4.7V6.615h-15.56V29.353H215.1V25.284H205.013V19.75h9.392V15.681h-9.392v-5h9.831Zm24.233,10.107L226.317,6.615h-5.03V29.353h5.632V15.225l12.728,14.128h5.094V6.615h-5.664V20.792Zm19.456,2.49a6.047,6.047,0,0,1-1.424-4.329V6.615H251.38v12.63a9.96,9.96,0,0,0,2.938,7.658q2.937,2.743,8.357,2.742,5.338,0,8.293-2.726t2.954-7.772V6.615h-5.745v12.4a5.917,5.917,0,0,1-1.416,4.346,5.531,5.531,0,0,1-4.086,1.416A5.447,5.447,0,0,1,258.533,23.282Zm43.349-5.461a14.7,14.7,0,0,1-1.5,6.527,81.977,81.977,0,0,1-5.7-7.5,10.855,10.855,0,0,0,4.493-2.295,5.547,5.547,0,0,0,1.643-4.167,5.12,5.12,0,0,0-1.546-3.874,6.733,6.733,0,0,0-4.817-1.66A6.978,6.978,0,0,0,289.952,6.3a5.374,5.374,0,0,0-2.034,4.378,9.421,9.421,0,0,0,1.9,5.208,10.738,10.738,0,0,0-3.971,2.832,7.224,7.224,0,0,0-1.53,4.7,7.258,7.258,0,0,0,2.115,5.355,8.841,8.841,0,0,0,6.543,2.409,10.2,10.2,0,0,0,6.836-2.2,6.862,6.862,0,0,0,2.051,1.579,8.042,8.042,0,0,0,3.386.586h1.139l0.83-3.011a8.174,8.174,0,0,1-2.572-.261,4.738,4.738,0,0,1-2.1-1.5q2.376-2.571,2.864-7.8Zm-4.036,9.066a5.857,5.857,0,0,1-4.02,1.335,5.7,5.7,0,0,1-3.776-1.3,5.008,5.008,0,0,1-1.823-4.036,5.183,5.183,0,0,1,3-4.8,69.882,69.882,0,0,0,6.624,8.805h0Zm-6.169-16.341a2.881,2.881,0,0,1,.733-2,2.653,2.653,0,0,1,2.051-.9,2.562,2.562,0,0,1,1.79.651,2.629,2.629,0,0,1,.846,2.051,3.932,3.932,0,0,1-.716,2.441,6.3,6.3,0,0,1-3.092,1.888,7.738,7.738,0,0,1-1.612-4.134h0Zm41.209,0.675a15.281,15.281,0,0,1,3.695,1.563V8.048A26.659,26.659,0,0,0,332.105,6.7a23.024,23.024,0,0,0-4.346-.382,14.385,14.385,0,0,0-6.99,1.6,10.8,10.8,0,0,0-4.4,4.264,11.911,11.911,0,0,0-1.481,5.876,11.7,11.7,0,0,0,1.53,6,10.546,10.546,0,0,0,4.4,4.11,14.418,14.418,0,0,0,6.7,1.481,24.7,24.7,0,0,0,4.737-.448,26.412,26.412,0,0,0,4.768-1.44V17.227h-8.593V21.28h3.466v3.3a11.083,11.083,0,0,1-1.79.439,12.576,12.576,0,0,1-1.676.1,8.451,8.451,0,0,1-4.077-.936,6.624,6.624,0,0,1-2.662-2.547,7.051,7.051,0,0,1-.927-3.581,7.569,7.569,0,0,1,.862-3.491,6.826,6.826,0,0,1,2.694-2.767,8.916,8.916,0,0,1,4.6-1.082A15.2,15.2,0,0,1,332.886,11.222Zm33.706,0.83a10.712,10.712,0,0,0-4.362-4.2,13.935,13.935,0,0,0-6.689-1.53,13.7,13.7,0,0,0-7.08,1.685,10.723,10.723,0,0,0-4.216,4.346,12.244,12.244,0,0,0-1.367,5.672,11.816,11.816,0,0,0,1.465,5.811,10.751,10.751,0,0,0,4.3,4.232,13.767,13.767,0,0,0,6.8,1.579,14,14,0,0,0,6.8-1.562,10.819,10.819,0,0,0,4.362-4.216,11.748,11.748,0,0,0,1.5-5.876A11.833,11.833,0,0,0,366.592,12.052Zm-17.025,2.482a5.767,5.767,0,0,1,2.344-2.368,7.248,7.248,0,0,1,3.565-.846,7.053,7.053,0,0,1,3.637.9,6.022,6.022,0,0,1,2.336,2.417,7.021,7.021,0,0,1,.8,3.32,6.446,6.446,0,0,1-1.88,4.891,6.824,6.824,0,0,1-4.923,1.8,7.153,7.153,0,0,1-3.467-.83,5.865,5.865,0,0,1-2.376-2.352,6.963,6.963,0,0,1-.846-3.442A7.3,7.3,0,0,1,349.567,14.534Zm47.117-2.482a10.712,10.712,0,0,0-4.362-4.2,13.93,13.93,0,0,0-6.689-1.53,13.707,13.707,0,0,0-7.08,1.685,10.729,10.729,0,0,0-4.216,4.346,12.244,12.244,0,0,0-1.367,5.672,11.827,11.827,0,0,0,1.465,5.811,10.757,10.757,0,0,0,4.3,4.232,13.769,13.769,0,0,0,6.8,1.579,14.007,14.007,0,0,0,6.8-1.562,10.831,10.831,0,0,0,4.362-4.216,11.747,11.747,0,0,0,1.5-5.876A11.823,11.823,0,0,0,396.684,12.052ZM379.66,14.534A5.759,5.759,0,0,1,382,12.166a7.248,7.248,0,0,1,3.565-.846,7.057,7.057,0,0,1,3.638.9,6.026,6.026,0,0,1,2.335,2.417,7.009,7.009,0,0,1,.8,3.32,6.45,6.45,0,0,1-1.88,4.891,6.827,6.827,0,0,1-4.924,1.8,7.146,7.146,0,0,1-3.466-.83,5.868,5.868,0,0,1-2.377-2.352,6.963,6.963,0,0,1-.846-3.442A7.285,7.285,0,0,1,379.66,14.534Zm45.44-2.482a9.889,9.889,0,0,0-4.386-4,15.906,15.906,0,0,0-7.056-1.432h-9.586V29.353H414q6.1,0,9.335-3t3.23-8.423A11.656,11.656,0,0,0,425.1,12.052Zm-6.225,11.32a7.394,7.394,0,0,1-5.444,1.815H409.8v-14.5h3.434a7.5,7.5,0,0,1,5.526,1.921,7.311,7.311,0,0,1,1.929,5.42A7.249,7.249,0,0,1,418.875,23.372ZM442.994,6.8a14.3,14.3,0,0,0-3.7-.48,9.55,9.55,0,0,0-4.158.83A6.166,6.166,0,0,0,432.5,9.415a5.888,5.888,0,0,0-.9,3.206,5.8,5.8,0,0,0,.838,3.166,7.472,7.472,0,0,0,2,2.149,24.45,24.45,0,0,0,2.824,1.685,19.128,19.128,0,0,1,2.677,1.481,4.154,4.154,0,0,1,1.148,1.082,2.109,2.109,0,0,1,.276,1.1,1.812,1.812,0,0,1-.748,1.473,3.45,3.45,0,0,1-2.181.594,10.756,10.756,0,0,1-6.657-2.734v5.143a16.244,16.244,0,0,0,7.389,1.888,9.985,9.985,0,0,0,4.126-.814,6.48,6.48,0,0,0,2.816-2.311,6.094,6.094,0,0,0,1-3.467,5.731,5.731,0,0,0-.806-3.117,7.686,7.686,0,0,0-2.116-2.2,31.6,31.6,0,0,0-3.589-2.092,12.48,12.48,0,0,1-2.734-1.693,2.026,2.026,0,0,1-.7-1.5A1.768,1.768,0,0,1,437.843,11a3.184,3.184,0,0,1,2.018-.545,10.292,10.292,0,0,1,6.3,2.523V8.113A12.076,12.076,0,0,0,442.994,6.8Z"/>
</svg>
