<svg xmlns="http://www.w3.org/2000/svg" width="365" height="23" viewBox="0 0 365 23">
  <defs>
    <style>
      .cls-1 {
        fill: #292929;
        fill-rule: evenodd;
      }
    </style>
  </defs>
  <path id="MIMOSA_SCRATCH" data-name="MIMOSA SCRATCH" class="cls-1" d="M12.819,8.932L6.4,1.036H1.7V21.5H6.74V8.419L12.526,15.6H13.01l5.757-7.178V21.5h5.156V1.036H19.25ZM39.474,21.5V1.036H34.317V21.5h5.156Zm21.5-12.568-6.416-7.9h-4.7V21.5h5.039V8.419L60.679,15.6h0.483l5.757-7.178V21.5h5.156V1.036H67.4Zm41.932-3a9.643,9.643,0,0,0-3.925-3.779A12.542,12.542,0,0,0,92.958.772a12.336,12.336,0,0,0-6.372,1.516A9.652,9.652,0,0,0,82.792,6.2a11.015,11.015,0,0,0-1.231,5.1,10.639,10.639,0,0,0,1.318,5.229,9.679,9.679,0,0,0,3.867,3.809,12.392,12.392,0,0,0,6.123,1.421,12.6,12.6,0,0,0,6.123-1.406,9.743,9.743,0,0,0,3.926-3.794,10.576,10.576,0,0,0,1.348-5.288A10.651,10.651,0,0,0,102.9,5.929ZM87.582,8.163a5.187,5.187,0,0,1,2.109-2.131A6.522,6.522,0,0,1,92.9,5.27a6.349,6.349,0,0,1,3.274.813,5.421,5.421,0,0,1,2.1,2.175,6.313,6.313,0,0,1,.718,2.988,5.8,5.8,0,0,1-1.692,4.4,6.144,6.144,0,0,1-4.431,1.619,6.435,6.435,0,0,1-3.12-.747A5.279,5.279,0,0,1,87.611,14.4a6.264,6.264,0,0,1-.762-3.1A6.56,6.56,0,0,1,87.582,8.163ZM123.252,1.2A12.869,12.869,0,0,0,119.92.772a8.6,8.6,0,0,0-3.743.747A5.552,5.552,0,0,0,113.8,3.556a5.3,5.3,0,0,0-.813,2.886,5.222,5.222,0,0,0,.755,2.849,6.712,6.712,0,0,0,1.8,1.934,22.068,22.068,0,0,0,2.542,1.516,17.286,17.286,0,0,1,2.41,1.333,3.722,3.722,0,0,1,1.032.974,1.894,1.894,0,0,1,.249.989,1.629,1.629,0,0,1-.674,1.326,3.1,3.1,0,0,1-1.962.535,9.684,9.684,0,0,1-5.992-2.461v4.629a14.624,14.624,0,0,0,6.651,1.7,8.986,8.986,0,0,0,3.713-.733,5.823,5.823,0,0,0,2.534-2.08,5.479,5.479,0,0,0,.9-3.12,5.16,5.16,0,0,0-.725-2.805,6.91,6.91,0,0,0-1.9-1.978,28.468,28.468,0,0,0-3.23-1.882,11.236,11.236,0,0,1-2.461-1.523A1.825,1.825,0,0,1,118,6.295a1.592,1.592,0,0,1,.615-1.311,2.869,2.869,0,0,1,1.817-.491A9.264,9.264,0,0,1,126.1,6.764V2.384A10.877,10.877,0,0,0,123.252,1.2Zm34.294,20.3L148.552,1.007h-5.376L134.27,21.5h5.273l1.963-4.717h8.789l1.977,4.717h5.274Zm-8.613-8.013h-6.079l3.032-7.441ZM189.973,1.2a12.869,12.869,0,0,0-3.332-.432,8.6,8.6,0,0,0-3.743.747,5.552,5.552,0,0,0-2.373,2.036,5.3,5.3,0,0,0-.813,2.886,5.221,5.221,0,0,0,.754,2.849,6.728,6.728,0,0,0,1.8,1.934,21.982,21.982,0,0,0,2.542,1.516,17.2,17.2,0,0,1,2.409,1.333,3.714,3.714,0,0,1,1.033.974,1.894,1.894,0,0,1,.249.989,1.632,1.632,0,0,1-.674,1.326,3.1,3.1,0,0,1-1.963.535,9.684,9.684,0,0,1-5.991-2.461v4.629a14.62,14.62,0,0,0,6.65,1.7,8.987,8.987,0,0,0,3.714-.733,5.829,5.829,0,0,0,2.534-2.08,5.479,5.479,0,0,0,.9-3.12,5.16,5.16,0,0,0-.725-2.805,6.927,6.927,0,0,0-1.905-1.978,28.379,28.379,0,0,0-3.23-1.882,11.222,11.222,0,0,1-2.46-1.523,1.825,1.825,0,0,1-.63-1.348,1.592,1.592,0,0,1,.615-1.311,2.866,2.866,0,0,1,1.816-.491,9.26,9.26,0,0,1,5.669,2.271V2.384A10.856,10.856,0,0,0,189.973,1.2Zm23.732-.432a13.2,13.2,0,0,0-5.874,1.274,9.674,9.674,0,0,0-4.08,3.662,10.394,10.394,0,0,0-1.472,5.566,10.588,10.588,0,0,0,1.363,5.347,9.655,9.655,0,0,0,3.933,3.765,12.613,12.613,0,0,0,6.042,1.377,16.371,16.371,0,0,0,7.837-1.787v-4.6a12.486,12.486,0,0,1-6.987,2.256,7.675,7.675,0,0,1-3.7-.842,5.881,5.881,0,0,1-2.38-2.278,6.236,6.236,0,0,1-.821-3.149,6.59,6.59,0,0,1,.806-3.215,5.955,5.955,0,0,1,2.4-2.358,7.722,7.722,0,0,1,3.816-.886,10.523,10.523,0,0,1,3.362.542A16,16,0,0,1,221.337,7.1V2.354A19.978,19.978,0,0,0,213.705.772h0Zm31.371,1.963a7.873,7.873,0,0,0-5.42-1.7h-8.51V21.5H236.3V13.253h0.923a4.381,4.381,0,0,1,1.655.271,3.546,3.546,0,0,1,1.3,1.033,11.944,11.944,0,0,1,1.42,2.329l2.374,4.614h5.639l-2.666-5.156a18.523,18.523,0,0,0-1.67-2.644,5.726,5.726,0,0,0-1.67-1.414,5.6,5.6,0,0,0,2.527-2.051,5.433,5.433,0,0,0,.842-3.018A5.716,5.716,0,0,0,245.076,2.735Zm-4.189,6.6a4.26,4.26,0,0,1-2.432.579H236.3V4.552h2.241q3.178,0,3.179,2.725A2.331,2.331,0,0,1,240.887,9.334ZM279.069,21.5L270.075,1.007H264.7L255.793,21.5h5.273l1.963-4.717h8.789L273.8,21.5h5.273Zm-8.613-8.013h-6.079l3.032-7.441ZM305.416,5.3V1.036H285.611V5.3h7.3V21.5h5.156V5.3h7.354Zm19.242-4.526a13.2,13.2,0,0,0-5.874,1.274,9.666,9.666,0,0,0-4.079,3.662,10.386,10.386,0,0,0-1.473,5.566,10.6,10.6,0,0,0,1.363,5.347,9.655,9.655,0,0,0,3.933,3.765,12.613,12.613,0,0,0,6.042,1.377,16.371,16.371,0,0,0,7.837-1.787v-4.6a12.484,12.484,0,0,1-6.987,2.256,7.675,7.675,0,0,1-3.7-.842,5.887,5.887,0,0,1-2.38-2.278,6.235,6.235,0,0,1-.82-3.149,6.589,6.589,0,0,1,.805-3.215,5.955,5.955,0,0,1,2.395-2.358,7.725,7.725,0,0,1,3.816-.886,10.523,10.523,0,0,1,3.362.542A16,16,0,0,1,332.29,7.1V2.354A19.974,19.974,0,0,0,324.658.772h0Zm22.6,8.188V1.036H342.1V21.5h5.156V13.253h9.9V21.5h5.156V1.036h-5.156V8.961h-9.9Z"/>
</svg>
