<svg xmlns="http://www.w3.org/2000/svg" width="116" height="23" viewBox="0 0 116 23">
  <defs>
    <style>
      .cls-1 {
        fill: #292929;
        fill-rule: evenodd;
      }
    </style>
  </defs>
  <path id="PRESENT" class="cls-1" d="M13.984,4.305a7.364,7.364,0,0,0-4.8-1.416H1.708V20.625H6.177v-6.97H9.4a7.686,7.686,0,0,0,3.5-.717,4.936,4.936,0,0,0,2.114-1.923,5.323,5.323,0,0,0,.7-2.717A4.873,4.873,0,0,0,13.984,4.305ZM8.411,10.621H6.177V5.937H8.233a3.526,3.526,0,0,1,2.215.559,2.183,2.183,0,0,1,.692,1.8q0,2.323-2.729,2.323h0ZM29.385,4.362a6.824,6.824,0,0,0-4.7-1.473H17.312V20.625H21.78V13.478h0.8a3.8,3.8,0,0,1,1.435.235,3.067,3.067,0,0,1,1.13.895,10.353,10.353,0,0,1,1.231,2.019l2.057,4H33.32L31.01,16.156a16.118,16.118,0,0,0-1.447-2.291,4.966,4.966,0,0,0-1.447-1.225,4.86,4.86,0,0,0,2.19-1.777,4.712,4.712,0,0,0,.73-2.615A4.956,4.956,0,0,0,29.385,4.362Zm-3.631,5.719a3.69,3.69,0,0,1-2.108.5H21.78V5.937h1.942q2.755,0,2.755,2.361A2.019,2.019,0,0,1,25.754,10.082Zm20.72-4.018V2.89H34.337V20.625h12.34V17.451H38.806V13.135h7.325V9.961H38.806v-3.9h7.668ZM57.132,3.036a11.154,11.154,0,0,0-2.888-.375A7.453,7.453,0,0,0,51,3.309a4.811,4.811,0,0,0-2.057,1.765,4.591,4.591,0,0,0-.7,2.5,4.525,4.525,0,0,0,.654,2.469,5.824,5.824,0,0,0,1.562,1.676,19.125,19.125,0,0,0,2.2,1.314,14.932,14.932,0,0,1,2.088,1.155,3.227,3.227,0,0,1,.9.844,1.642,1.642,0,0,1,.216.857,1.414,1.414,0,0,1-.584,1.149,2.689,2.689,0,0,1-1.7.463,8.392,8.392,0,0,1-5.192-2.133v4.012a12.671,12.671,0,0,0,5.764,1.473,7.789,7.789,0,0,0,3.218-.635,5.053,5.053,0,0,0,2.2-1.8,4.751,4.751,0,0,0,.781-2.7,4.469,4.469,0,0,0-.628-2.431,5.993,5.993,0,0,0-1.65-1.714,24.673,24.673,0,0,0-2.8-1.631,9.734,9.734,0,0,1-2.133-1.32,1.581,1.581,0,0,1-.546-1.168,1.379,1.379,0,0,1,.533-1.136,2.485,2.485,0,0,1,1.574-.425A8.027,8.027,0,0,1,59.6,7.854v-3.8A9.415,9.415,0,0,0,57.132,3.036ZM74.482,6.063V2.89H62.345V20.625h12.34V17.451H66.814V13.135h7.325V9.961H66.814v-3.9h7.668Zm16.3,7.884L80.83,2.89H76.907V20.625H81.3V9.605l9.928,11.02H95.2V2.89H90.783V13.947ZM113.7,6.584V2.89H96.535V6.584h6.323V20.625h4.468V6.584H113.7Z"/>
</svg>
