<svg xmlns="http://www.w3.org/2000/svg" width="216" height="63.362"><path d="M14.896 22.91q0 .8 1.016.8v.8h-7.1v-.8a.9.9 0 00.575-.2.719.719 0 00.255-.6V5.171H2.034a1.614 1.614 0 00-.807.222.888.888 0 00-.393.848H.005V0h.829a.885.885 0 00.393.847 1.6 1.6 0 00.807.223h20.475a1.6 1.6 0 00.806-.223.886.886 0 00.393-.847h.83v6.241h-.83a.889.889 0 00-.393-.848 1.613 1.613 0 00-.806-.222h-7.613zm10.145.802a1.353 1.353 0 00.944-.579 9.316 9.316 0 00.668-1.115L35.185 4.68c.214-.385.408-.743.576-1.069a1.9 1.9 0 00.254-.847.653.653 0 00-.322-.624 2.809 2.809 0 00-.691-.268v-.8h7.792v.8a3.882 3.882 0 00-.644.245.645.645 0 00-.324.646 1.712 1.712 0 00.161.714c.107.237.27.549.484.936l9.592 18.14a1.534 1.534 0 00.623.713 9.314 9.314 0 00.9.445v.8H45.47v-.8a1.121 1.121 0 00.461-.133.427.427 0 00.276-.4 2.709 2.709 0 00-.369-1.16l-1.753-3.3H32.834l-1.661 3.164a3.655 3.655 0 00-.461 1.336c0 .328.292.49.876.49v.8h-6.547zm17.384-8.291l-3.874-8.29-4.334 8.29zm20.659 7.488a.694.694 0 00.277.6 1.068 1.068 0 00.646.2v.8h-7.2v-.8q1.014 0 1.016-.8V2.672q0-.8-1.016-.8v-.8h7.2v.8a1.072 1.072 0 00-.646.2.694.694 0 00-.277.6v8.468l9.546-7.264q.646-.535 1.016-.869c.245-.224.368-.408.368-.557a.488.488 0 00-.207-.445.873.873 0 00-.484-.135v-.8h9.685v.8a2.655 2.655 0 00-1.662.668L70.74 10.695l9.685 10.831a11.533 11.533 0 001.406 1.314 4.553 4.553 0 001.591.869v.8h-8.531v-.8c.4 0 .6-.1.6-.312q0-.222-.646-.98l-7.885-8.781-3.874 2.9zm46.485-17.026a.813.813 0 00-.393-.734 2.73 2.73 0 00-1.361-.245H92.874v5.527h9.039a3.363 3.363 0 001.429-.245q.507-.244.507-1.271h.831v6.954h-.826q0-1.024-.507-1.315a2.92 2.92 0 00-1.429-.288h-9.039v6.15h15.4a1.908 1.908 0 001.13-.312.987.987 0 00.438-.847h.83v6.107h-.83c0-.446-.147-.7-.438-.757a5.742 5.742 0 00-1.13-.091H86.79v-.8a.9.9 0 00.576-.2.721.721 0 00.254-.6V2.681a.721.721 0 00-.254-.6.9.9 0 00-.576-.2v-.8h21.027a2.377 2.377 0 001.361-.29.925.925 0 00.393-.781h.83v5.883zm31.402-5.08a19.132 19.132 0 015.166.735 16.281 16.281 0 014.795 2.207 12.118 12.118 0 013.552 3.722 10.953 10.953 0 010 10.653 12.11 12.11 0 01-3.552 3.722 15.08 15.08 0 01-4.795 2.139 20.282 20.282 0 01-10.33 0 15.1 15.1 0 01-4.8-2.139 12.108 12.108 0 01-3.552-3.722 10.946 10.946 0 010-10.653 12.117 12.117 0 013.552-3.722 16.306 16.306 0 014.8-2.207 19.128 19.128 0 015.164-.735zm0 4.1a11.928 11.928 0 00-3.5.535 10.869 10.869 0 00-3.16 1.538 8.1 8.1 0 00-2.282 2.474 6.81 6.81 0 000 6.686 8.1 8.1 0 002.282 2.473 10.859 10.859 0 003.16 1.539 11.781 11.781 0 007.01 0 10.863 10.863 0 003.159-1.539 8.114 8.114 0 002.282-2.473 6.81 6.81 0 000-6.686 8.12 8.12 0 00-2.282-2.474 10.873 10.873 0 00-3.159-1.538 11.945 11.945 0 00-3.51-.534zm26.239-3.031q-1.014 0-1.014.8v13.371q0 2.809 1.867 3.855a14.765 14.765 0 0010.93 0q1.866-1.046 1.866-3.855V2.672q0-.8-1.382-.8v-.8h7.378v.8q-1.109 0-1.107.8V15.82a10.5 10.5 0 01-.783 4.346 6.376 6.376 0 01-2.352 2.74 9.753 9.753 0 01-3.9 1.383 40.723 40.723 0 01-10.745 0 9.722 9.722 0 01-3.9-1.383 6.35 6.35 0 01-2.352-2.74 10.449 10.449 0 01-.785-4.346V2.672c0-.535-.432-.8-1.291-.8v-.8h7.563zm38.921 21.038q0 .8 1.016.8v.8h-7.1v-.8a.9.9 0 00.575-.2.719.719 0 00.255-.6V5.171h-7.608a1.608 1.608 0 00-.807.222.888.888 0 00-.394.848h-.83V0h.83a.886.886 0 00.394.847 1.6 1.6 0 00.807.223h20.475a1.6 1.6 0 00.807-.223.886.886 0 00.391-.847h.831v6.241h-.831a.889.889 0 00-.391-.848 1.616 1.616 0 00-.807-.222h-7.61zM62.897 38.803a19.116 19.116 0 015.164.735 16.309 16.309 0 014.8 2.207 12.093 12.093 0 013.55 3.722 10.936 10.936 0 010 10.653 12.085 12.085 0 01-3.55 3.722 15.1 15.1 0 01-4.8 2.139 20.278 20.278 0 01-10.329 0 15.087 15.087 0 01-4.8-2.139 12.111 12.111 0 01-3.551-3.722 10.943 10.943 0 010-10.653 12.119 12.119 0 013.551-3.722 16.289 16.289 0 014.8-2.207 19.127 19.127 0 015.165-.735zm0 4.1a11.928 11.928 0 00-3.505.535 10.864 10.864 0 00-3.159 1.538 8.084 8.084 0 00-2.282 2.474 6.81 6.81 0 000 6.686 8.078 8.078 0 002.282 2.473 10.854 10.854 0 003.159 1.539 11.781 11.781 0 007.01 0 10.848 10.848 0 003.158-1.539 8.1 8.1 0 002.284-2.473 6.814 6.814 0 000-6.686 8.108 8.108 0 00-2.284-2.474 10.858 10.858 0 00-3.158-1.538 11.933 11.933 0 00-3.505-.534zm20.751 18.809q.876 0 .875-.8v-20.24q0-.8-.875-.8v-.8h7.886v.8q-.369 0-.37.447 0 .357.922 1.247l13.234 13.282V40.672q0-.8-1.2-.8v-.8h6.963v.8q-.877 0-.877.8v20.235q0 .8.877.8v.8h-7.471v-.8c.4 0 .6-.133.6-.4q0-.311-.737-1.026L89.41 46.108v14.8c0 .535.352.8 1.061.8v.8h-6.826zm56.767 1.65q0-.669-.438-.757a5.735 5.735 0 00-1.13-.091h-21.951v-.8q1.384 0 1.384-.8V40.672q0-.8-1.384-.8v-.8h7.933v.8c-.862 0-1.292.268-1.292.8v17.739h15.31a1.908 1.908 0 001.13-.312.987.987 0 00.438-.848h.831v6.107zm9.501-24.29v.8a2.741 2.741 0 00-.784.111.516.516 0 00-.37.557 3.716 3.716 0 00.669 1.271q.668 1 1.569 2.273t1.867 2.608q.968 1.336 1.569 2.271l5.394-7.175c.247-.356.446-.639.6-.846a1.008 1.008 0 00.23-.58c0-.208-.146-.342-.437-.4a4.073 4.073 0 00-.808-.089v-.8h8.071v.8a3.4 3.4 0 00-.693.067 1.785 1.785 0 00-.668.312 4.071 4.071 0 00-.738.713q-.393.468-.945 1.271l-7.839 10.741v7.933q0 .8 1.061.8v.8h-7.289v-.8a1.149 1.149 0 00.691-.2.693.693 0 00.275-.6v-7.938l-8.9-12.034a2.5 2.5 0 00-.991-.758 2.809 2.809 0 00-1.131-.312v-.8z" fill="#292929"/><path fill="none" d="M0 0h216v61H0z"/></svg>