<svg xmlns="http://www.w3.org/2000/svg" width="116" height="23" viewBox="0 0 116 23">
  <defs>
    <style>
      .cls-1 {
        fill: #292929;
        fill-rule: evenodd;
      }
    </style>
  </defs>
  <path id="PRIZE" class="cls-1" d="M16.2,2.667A8.78,8.78,0,0,0,10.482.979H1.567V22.125H6.9v-8.31H10.74a9.164,9.164,0,0,0,4.17-.855,5.885,5.885,0,0,0,2.52-2.293,6.348,6.348,0,0,0,.832-3.239A5.81,5.81,0,0,0,16.2,2.667ZM9.559,10.2H6.9V4.612H9.347a4.2,4.2,0,0,1,2.641.666,2.6,2.6,0,0,1,.825,2.149q0,2.77-3.254,2.77h0ZM38.906,2.735a8.137,8.137,0,0,0-5.6-1.756H24.511V22.125h5.328V13.6h0.954a4.524,4.524,0,0,1,1.71.28,3.657,3.657,0,0,1,1.347,1.067,12.346,12.346,0,0,1,1.468,2.407l2.452,4.768H43.6L40.844,16.8a19.228,19.228,0,0,0-1.726-2.732A5.921,5.921,0,0,0,37.393,12.6,5.8,5.8,0,0,0,40,10.485a5.619,5.619,0,0,0,.87-3.118A5.909,5.909,0,0,0,38.906,2.735ZM34.577,9.554a4.4,4.4,0,0,1-2.513.6H29.839V4.612h2.316q3.284,0,3.285,2.815A2.407,2.407,0,0,1,34.577,9.554Zm19.9,12.571V0.979H49.151V22.125h5.328Zm14.816-4.375L80.92,0.979H61.166V5.354H71.959L60.3,22.125H80.92V17.751H69.295ZM101.442,4.763V0.979H86.971V22.125h14.713V18.341H92.3V13.194h8.734V9.41H92.3V4.763h9.143Z"/>
</svg>
