<svg xmlns="http://www.w3.org/2000/svg" width="355" height="34"><path fill="none" d="M0 0h355v34H0z"/><path d="M20.609 1.441a20.455 20.455 0 016.364.96 14.1 14.1 0 015.121 2.91 13.487 13.487 0 013.414 4.92 20.285 20.285 0 010 13.979 13.479 13.479 0 01-3.414 4.92 14.075 14.075 0 01-5.121 2.91 20.427 20.427 0 01-6.364.96H0v-1.08q1.426 0 1.428-1.08V3.601q0-1.082-1.428-1.08v-1.08zm-2.482 26.4a23.838 23.838 0 005.09-.479 8.083 8.083 0 003.6-1.71 7.447 7.447 0 002.142-3.271 19.027 19.027 0 000-10.319 7.466 7.466 0 00-2.142-3.271 8.1 8.1 0 00-3.6-1.71 23.894 23.894 0 00-5.09-.479H8.504v21.239zm25.389 4.079q1.614 0 1.613-1.08V3.601q0-1.082-1.613-1.08v-1.08h10.3v1.08q-1.614 0-1.613 1.08V30.84q0 1.081 1.613 1.08V33h-10.3zm20.547 0q1.178 0 1.179-1.08V3.601q0-1.082-1.179-1.08v-1.08h10.615v1.08c-.332 0-.5.2-.5.6 0 .321.412.881 1.242 1.68l17.818 17.88V3.601q0-1.082-1.613-1.08v-1.08h9.373v1.08q-1.178 0-1.178 1.08V30.84q0 1.081 1.178 1.08V33H90.942v-1.08c.539 0 .808-.179.808-.54q0-.418-.994-1.38L71.822 10.92v19.92q0 1.081 1.428 1.08V33h-9.187zm47.179 0q1.614 0 1.616-1.08V3.601q0-1.082-1.616-1.08v-1.08h10.305v1.08q-1.614 0-1.613 1.08V30.84q0 1.081 1.613 1.08V33h-10.305zm20.549 0q1.177 0 1.178-1.08V3.601q0-1.082-1.178-1.08v-1.08h10.615v1.08q-.5 0-.5.6 0 .482 1.242 1.68l17.819 17.88V3.601q0-1.082-1.613-1.08v-1.08h9.373v1.08q-1.181 0-1.18 1.08V30.84q0 1.081 1.18 1.08V33H158.67v-1.08c.537 0 .807-.179.807-.54q0-.418-.993-1.38l-18.933-19.08v19.92c0 .721.474 1.08 1.428 1.08V33h-9.188zm75.863-20.76l-1.242-.36a2.208 2.208 0 00.125-.72 2 2 0 00-1.148-1.62 11.585 11.585 0 00-2.918-1.229 23.7 23.7 0 00-3.85-.75 34.658 34.658 0 00-3.941-.24 17 17 0 00-4.563.629 12.1 12.1 0 00-4.035 1.951 9.791 9.791 0 00-2.855 3.42 12.42 12.42 0 000 10.169 9.724 9.724 0 002.855 3.451 12.093 12.093 0 004.035 1.95 16.962 16.962 0 004.563.63 32.252 32.252 0 006.363-.571 41.49 41.49 0 004.811-1.229v-5.16h-7.946a2.011 2.011 0 00-1.3.359 2.364 2.364 0 00-.559 1.561h-1.117v-7.68h1.117a1.7 1.7 0 00.559 1.289 2.5 2.5 0 001.3.271h15.52v1.08a4 4 0 00-1.553.42 1.263 1.263 0 00-.31 1.019v6.78a.779.779 0 00.373.781l.869.42v.96a22.807 22.807 0 01-4.315 2.28 29.743 29.743 0 01-4.593 1.41 28.621 28.621 0 01-4.657.63q-2.328.118-4.562.12a27.991 27.991 0 01-7.916-1.051 17.249 17.249 0 01-6.113-3.12 14.2 14.2 0 01-3.944-5.039 17.017 17.017 0 010-13.5 14.489 14.489 0 013.944-5.07 17.76 17.76 0 016.113-3.21 26.579 26.579 0 017.916-1.111 36.372 36.372 0 015.215.361q2.481.36 4.406.809t3.2.84a8 8 0 001.584.391 1.4 1.4 0 00.869-.24 5.379 5.379 0 01.62-.42l.746.42zM254.27 1.081a25.679 25.679 0 016.951.991 21.954 21.954 0 016.457 2.969 16.307 16.307 0 014.779 5.01 14.732 14.732 0 010 14.341 16.3 16.3 0 01-4.779 5.01 20.314 20.314 0 01-6.457 2.88 27.3 27.3 0 01-13.9 0 20.324 20.324 0 01-6.458-2.88 16.316 16.316 0 01-4.779-5.01 14.729 14.729 0 010-14.341 16.328 16.328 0 014.779-5.01 21.966 21.966 0 016.458-2.969 25.682 25.682 0 016.949-.991zm0 5.521a16.05 16.05 0 00-4.719.72 14.6 14.6 0 00-4.252 2.07 10.845 10.845 0 00-3.072 3.33 9.169 9.169 0 000 9 10.853 10.853 0 003.072 3.329 14.57 14.57 0 004.252 2.07 15.813 15.813 0 009.435 0 14.535 14.535 0 004.252-2.07 10.907 10.907 0 003.075-3.329 9.179 9.179 0 000-9 10.9 10.9 0 00-3.075-3.33 14.562 14.562 0 00-4.252-2.07 16.042 16.042 0 00-4.716-.721zm35.322-4.081q-1.365 0-1.365 1.08v18q0 3.778 2.513 5.189t7.356 1.411q4.842 0 7.357-1.411t2.514-5.189v-18q0-1.082-1.861-1.08v-1.08h9.931v1.08q-1.491 0-1.49 1.08v17.7a14.117 14.117 0 01-1.055 5.851 8.578 8.578 0 01-3.166 3.689 13.1 13.1 0 01-5.246 1.861 54.733 54.733 0 01-14.465 0 13.084 13.084 0 01-5.244-1.861 8.558 8.558 0 01-3.166-3.689 14.085 14.085 0 01-1.056-5.851v-17.7q0-1.082-1.739-1.08v-1.08h10.182zm52.392 28.319q0 1.081 1.366 1.08V33h-9.559v-1.08a1.226 1.226 0 00.776-.269.974.974 0 00.341-.811V6.96h-10.244a2.184 2.184 0 00-1.086.3 1.2 1.2 0 00-.527 1.141h-1.117v-8.4h1.117a1.2 1.2 0 00.527 1.141 2.172 2.172 0 001.086.3h27.563a2.181 2.181 0 001.088-.3 1.2 1.2 0 00.527-1.141h1.117v8.4h-1.117a1.2 1.2 0 00-.527-1.141 2.192 2.192 0 00-1.088-.3h-10.243z" fill="#fff"/></svg>