<svg xmlns="http://www.w3.org/2000/svg" width="238" height="82" viewBox="0 0 238 82">
  <defs>
    <style>
      .cls-1 {
        fill: #fff;
        fill-rule: evenodd;
      }
    </style>
  </defs>
  <path id="MIMOSA_FAIR" data-name="MIMOSA FAIR" class="cls-1" d="M39.252,14.229L29.414,2.122H22.2V33.5H29.93V13.442L38.8,24.448h0.741l8.827-11.006V33.5h7.906V2.122H49.112ZM70.921,33.5V2.122H63.015V33.5h7.906ZM94.685,14.229L84.847,2.122h-7.21V33.5h7.727V13.442l8.872,11.006h0.741L103.8,13.442V33.5h7.906V2.122h-7.165Zm55.1-4.6a14.791,14.791,0,0,0-6.02-5.795,19.229,19.229,0,0,0-9.231-2.111,18.914,18.914,0,0,0-9.771,2.325,14.8,14.8,0,0,0-5.817,6,16.887,16.887,0,0,0-1.887,7.828,16.309,16.309,0,0,0,2.022,8.018,14.839,14.839,0,0,0,5.929,5.84A19,19,0,0,0,134.4,33.9a19.328,19.328,0,0,0,9.389-2.156,14.938,14.938,0,0,0,6.019-5.817,16.2,16.2,0,0,0,2.067-8.108A16.333,16.333,0,0,0,149.782,9.624Zm-23.494,3.425a7.947,7.947,0,0,1,3.234-3.268,10,10,0,0,1,4.919-1.168,9.734,9.734,0,0,1,5.02,1.247,8.313,8.313,0,0,1,3.223,3.335,9.675,9.675,0,0,1,1.1,4.582,8.9,8.9,0,0,1-2.595,6.75,9.418,9.418,0,0,1-6.794,2.482,9.866,9.866,0,0,1-4.784-1.146,8.09,8.09,0,0,1-3.279-3.246,9.6,9.6,0,0,1-1.168-4.75A10.057,10.057,0,0,1,126.288,13.049ZM171.782,2.38a19.738,19.738,0,0,0-5.11-.663,13.18,13.18,0,0,0-5.738,1.146,8.512,8.512,0,0,0-3.639,3.122,8.124,8.124,0,0,0-1.247,4.425,8.009,8.009,0,0,0,1.157,4.369,10.3,10.3,0,0,0,2.763,2.965,33.744,33.744,0,0,0,3.9,2.325,26.49,26.49,0,0,1,3.695,2.044,5.723,5.723,0,0,1,1.583,1.494,2.9,2.9,0,0,1,.382,1.516,2.5,2.5,0,0,1-1.033,2.033,4.759,4.759,0,0,1-3.01.82q-4.47,0-9.187-3.773v7.1a22.423,22.423,0,0,0,10.2,2.605,13.781,13.781,0,0,0,5.694-1.123,8.938,8.938,0,0,0,3.885-3.189,8.406,8.406,0,0,0,1.382-4.784,7.909,7.909,0,0,0-1.112-4.3,10.6,10.6,0,0,0-2.92-3.032,43.733,43.733,0,0,0-4.953-2.886,17.2,17.2,0,0,1-3.773-2.336,2.8,2.8,0,0,1-.966-2.067,2.44,2.44,0,0,1,.943-2.01,4.4,4.4,0,0,1,2.785-.752q4.246,0,8.693,3.481V4.188A16.651,16.651,0,0,0,171.782,2.38ZM215.166,33.5L201.375,2.077h-8.244L179.475,33.5h8.086l3.01-7.232h13.476L207.08,33.5h8.086ZM201.958,21.214h-9.321l4.65-11.41ZM86.813,53.737V48.122h-20.6V79.5h7.906V66.248h12.69v-5.66H74.122V53.737h12.69ZM124.569,79.5L110.778,48.077h-8.243L88.879,79.5h8.086l3.01-7.232h13.476l3.032,7.232h8.086ZM111.362,67.214h-9.321L106.69,55.8ZM135.845,79.5V48.122h-7.907V79.5h7.907Zm28.076-28.772Q161,48.122,155.61,48.122H142.561V79.5h7.906V66.855h1.415a6.718,6.718,0,0,1,2.538.415,5.426,5.426,0,0,1,2,1.584,18.309,18.309,0,0,1,2.179,3.571l3.638,7.075h8.648L166.8,71.594a28.452,28.452,0,0,0-2.561-4.054,8.774,8.774,0,0,0-2.56-2.167,8.6,8.6,0,0,0,3.874-3.145,8.336,8.336,0,0,0,1.292-4.627A8.77,8.77,0,0,0,163.921,50.728ZM157.5,60.846a6.528,6.528,0,0,1-3.728.887h-3.3V53.513H153.9q4.874,0,4.874,4.178A3.57,3.57,0,0,1,157.5,60.846Z"/>
</svg>
