<svg xmlns="http://www.w3.org/2000/svg" width="136" height="18" viewBox="0 0 136 18">
  <defs>
    <style>
      .cls-1 {
        fill: #292929;
        fill-rule: evenodd;
      }
    </style>
  </defs>
  <path id="CHANCE3" class="cls-1" d="M10.264,0.918a10.561,10.561,0,0,0-4.7,1.02A7.735,7.735,0,0,0,2.3,4.867,8.312,8.312,0,0,0,1.123,9.32,8.477,8.477,0,0,0,2.213,13.6a7.726,7.726,0,0,0,3.146,3.012,10.092,10.092,0,0,0,4.834,1.1,13.1,13.1,0,0,0,6.27-1.43V12.6a9.988,9.988,0,0,1-5.59,1.8,6.139,6.139,0,0,1-2.959-.674,4.709,4.709,0,0,1-1.9-1.822,4.988,4.988,0,0,1-.656-2.52A5.27,5.27,0,0,1,6,6.818,4.765,4.765,0,0,1,7.914,4.932a6.178,6.178,0,0,1,3.053-.709,8.417,8.417,0,0,1,2.689.434A12.794,12.794,0,0,1,16.369,5.98v-3.8A15.982,15.982,0,0,0,10.264.918h0ZM25.941,7.469V1.129H21.816V17.5h4.125V10.9h7.922v6.6h4.125V1.129H33.863v6.34H25.941ZM60.755,17.5L53.56,1.105h-4.3L42.134,17.5h4.219l1.57-3.773h7.031L56.536,17.5h4.219Zm-6.891-6.41H49l2.426-5.953Zm23.857,0.246L68.534,1.129H64.913V17.5h4.055V7.328L78.132,17.5H81.8V1.129H77.722V11.336ZM96.129,0.918a10.561,10.561,0,0,0-4.7,1.02,7.735,7.735,0,0,0-3.264,2.93A8.313,8.313,0,0,0,86.989,9.32a8.477,8.477,0,0,0,1.09,4.277,7.726,7.726,0,0,0,3.146,3.012,10.092,10.092,0,0,0,4.834,1.1,13.1,13.1,0,0,0,6.27-1.43V12.6a9.991,9.991,0,0,1-5.59,1.8,6.139,6.139,0,0,1-2.959-.674,4.709,4.709,0,0,1-1.9-1.822,4.989,4.989,0,0,1-.656-2.52,5.27,5.27,0,0,1,.645-2.572A4.765,4.765,0,0,1,93.78,4.932a6.177,6.177,0,0,1,3.053-.709,8.418,8.418,0,0,1,2.689.434,12.814,12.814,0,0,1,2.713,1.324v-3.8A15.984,15.984,0,0,0,96.129.918h0Zm22.756,3.141V1.129h-11.2V17.5h11.39V14.57h-7.265V10.586h6.761V7.656h-6.761v-3.6h7.078Zm14.652,3.316a3.909,3.909,0,0,0,.592-2.086,3.9,3.9,0,0,0-1.442-3.211,5.91,5.91,0,0,0-3.82-1.16,9.037,9.037,0,0,0-4.055.938V4.7A6.336,6.336,0,0,1,127.988,3.7a2.353,2.353,0,0,1,1.652.568,1.876,1.876,0,0,1,.621,1.447,1.848,1.848,0,0,1-.744,1.553,3.836,3.836,0,0,1-2.326.568v2.5q3.292,0,3.293,2.32a1.912,1.912,0,0,1-.65,1.524,2.588,2.588,0,0,1-1.752.563,5.063,5.063,0,0,1-1.84-.369,6.993,6.993,0,0,1-1.84-1.084v3.328a9.145,9.145,0,0,0,4.371,1.1,7.154,7.154,0,0,0,2.748-.527,4.723,4.723,0,0,0,2.074-1.617,4.422,4.422,0,0,0,.791-2.672,4.6,4.6,0,0,0-.6-2.367,4.141,4.141,0,0,0-1.828-1.617A4.466,4.466,0,0,0,133.537,7.375Z"/>
</svg>
