<svg xmlns="http://www.w3.org/2000/svg" width="737" height="74"><path d="M43.841 66.82q0 2.339 2.959 2.34v2.34H26.087v-2.34a2.645 2.645 0 001.68-.585 2.106 2.106 0 00.741-1.755V15.08H6.311a4.694 4.694 0 00-2.353.65 2.591 2.591 0 00-1.144 2.47H.393V0h2.421a2.584 2.584 0 001.144 2.469 4.685 4.685 0 002.353.651H66.03a4.693 4.693 0 002.355-.651A2.589 2.589 0 0069.527 0h2.422v18.2h-2.422a2.6 2.6 0 00-1.142-2.47 4.7 4.7 0 00-2.355-.65H43.841zm40.618 2.34q3.5 0 3.5-2.34V7.799q0-2.339-3.5-2.34V3.12h22.328v2.339q-3.5 0-3.5 2.34V66.82q0 2.339 3.5 2.34v2.34H84.459zm38.735 0a3.136 3.136 0 001.884-.585 2.029 2.029 0 00.807-1.755V7.54a1.7 1.7 0 00-.807-1.625 3.776 3.776 0 00-1.884-.456V3.12h25.153v2.339a3.021 3.021 0 00-1.413.39 1.253 1.253 0 00-.74 1.17 3.928 3.928 0 00.538 1.69q.537 1.042 1.211 2.21l19.234 33.8 19.368-33.41q.94-1.687 1.412-2.665a4.111 4.111 0 00.471-1.755q0-1.428-1.748-1.43V3.12h24.882v2.339a3.765 3.765 0 00-1.882.456 1.7 1.7 0 00-.808 1.625v59.28a2.027 2.027 0 00.808 1.755 3.127 3.127 0 001.882.585v2.34h-21.117v-2.34q3.633 0 3.632-2.34V23.66h-.269L166.773 71.5h-.4l-26.5-47.97h-.269v43.29q0 2.339 3.766 2.34v2.34h-20.176zm166.11-52a2.37 2.37 0 00-1.144-2.146 7.987 7.987 0 00-3.968-.715h-43.581v16.12h26.362a9.8 9.8 0 004.17-.714q1.479-.714 1.48-3.705h2.421v20.28h-2.421q0-2.989-1.48-3.835a8.492 8.492 0 00-4.17-.846h-26.362V59.54h44.924a5.549 5.549 0 003.3-.911 2.876 2.876 0 001.277-2.469h2.421v17.809h-2.422q0-1.95-1.277-2.21a16.973 16.973 0 00-3.3-.259h-62.678v-2.34a2.652 2.652 0 001.682-.585 2.11 2.11 0 00.739-1.755V7.799a2.107 2.107 0 00-.739-1.755 2.65 2.65 0 00-1.682-.585V3.12h61.333a6.918 6.918 0 003.968-.845A2.687 2.687 0 00289.301 0h2.42v17.16zm87.961 49.66q0 2.339 2.96 2.34v2.34h-20.714v-2.34a2.649 2.649 0 001.681-.585 2.11 2.11 0 00.739-1.755V15.08h-22.192a4.685 4.685 0 00-2.353.65 2.589 2.589 0 00-1.144 2.47h-2.421V0h2.421a2.582 2.582 0 001.144 2.469 4.677 4.677 0 002.353.651h59.719a4.688 4.688 0 002.353-.651A2.588 2.588 0 00402.955 0h2.421v18.2h-2.421a2.594 2.594 0 00-1.144-2.47 4.7 4.7 0 00-2.353-.65h-22.194zm29.59 2.34a3.951 3.951 0 002.757-1.691 27.447 27.447 0 001.95-3.25l24.883-50.569q.939-1.689 1.682-3.12a5.6 5.6 0 00.739-2.471 1.9 1.9 0 00-.941-1.819 8.186 8.186 0 00-2.018-.781V3.12h22.732v2.339a11.357 11.357 0 00-1.884.715 1.883 1.883 0 00-.942 1.885 5 5 0 00.471 2.08q.471 1.042 1.412 2.731l27.977 52.91a4.475 4.475 0 001.816 2.08 28.157 28.157 0 002.622 1.3v2.34h-23.672v-2.34a3.251 3.251 0 001.345-.391 1.249 1.249 0 00.808-1.17 7.919 7.919 0 00-1.077-3.38l-5.111-9.62h-32.818l-4.842 9.231a10.662 10.662 0 00-1.346 3.9q0 1.431 2.556 1.43v2.34h-19.1zm50.707-24.18l-11.3-24.181-12.643 24.181zM540.28 3.12a72.052 72.052 0 0111.971.974 38.016 38.016 0 0110.223 3.12 19.789 19.789 0 017.127 5.59 13.421 13.421 0 012.691 8.516q0 6.111-3.9 9.425a28.009 28.009 0 01-9.281 5.134v.26a26.633 26.633 0 0110.694 5.785q4.369 3.968 4.371 11.375a15.247 15.247 0 01-1.748 7.215 16.8 16.8 0 01-5.179 5.785 26.025 26.025 0 01-8.406 3.835 42.777 42.777 0 01-11.3 1.366h-49.362v-2.34q3.762 0 3.765-2.34V7.799q0-2.339-3.765-2.34V3.12zm2.691 26.78a28.713 28.713 0 0010.02-1.5q3.966-1.492 3.968-6.306t-3.968-6.305a28.758 28.758 0 00-10.02-1.5H517.28v15.6zm0 29.64q8.473 0 12.171-2.536a7.906 7.906 0 000-13.389q-3.7-2.536-12.171-2.535H517.28v18.46zm111.633 14.429q0-1.95-1.277-2.21a16.956 16.956 0 00-3.3-.259h-64.016v-2.34q4.035 0 4.035-2.34V7.799q0-2.339-4.035-2.34V3.12h23.134v2.339q-3.766 0-3.766 2.34V59.54h44.654a5.544 5.544 0 003.3-.911 2.873 2.873 0 001.277-2.469h2.421v17.809zm78.952-56.809a2.369 2.369 0 00-1.143-2.146 7.989 7.989 0 00-3.968-.715h-43.579v16.12h26.362a9.8 9.8 0 004.17-.714q1.479-.714 1.48-3.705h2.421v20.28h-2.421q0-2.989-1.48-3.835a8.5 8.5 0 00-4.17-.846h-26.362V59.54h44.924a5.543 5.543 0 003.3-.911 2.875 2.875 0 001.278-2.469h2.421v17.809h-2.421q0-1.95-1.278-2.21a16.953 16.953 0 00-3.3-.259h-62.679v-2.34a2.648 2.648 0 001.681-.585 2.108 2.108 0 00.74-1.755V7.799a2.105 2.105 0 00-.74-1.755 2.646 2.646 0 00-1.681-.585V3.12h61.333a6.92 6.92 0 003.968-.845A2.686 2.686 0 00733.555 0h2.42v17.16z" opacity=".1" fill="#fed438"/><path fill="none" d="M0 0h737v74H0z"/></svg>