<svg xmlns="http://www.w3.org/2000/svg" width="229" height="75"><path d="M27.835 7.189a.99.99 0 00-.479-.9 3.338 3.338 0 00-1.662-.3H7.438v6.753h11.046a4.1 4.1 0 001.747-.3q.619-.3.62-1.552h1.014v8.5h-1.014q0-1.253-.62-1.607a3.559 3.559 0 00-1.747-.354H7.44v7.516h18.82a2.323 2.323 0 001.38-.381 1.2 1.2 0 00.536-1.035h1.015v7.462h-1.015q0-.818-.536-.926a7.113 7.113 0 00-1.38-.109H.002v-.98a1.106 1.106 0 00.7-.245.881.881 0 00.311-.735V3.271a.882.882 0 00-.311-.736 1.106 1.106 0 00-.7-.245v-.98h25.694a2.9 2.9 0 001.662-.354 1.127 1.127 0 00.479-.954h1.014v7.189zm23.61 20.804q0 .98 1.24.98v.98h-8.677v-.98a1.106 1.106 0 00.7-.245.881.881 0 00.31-.735V6.317h-9.3a1.969 1.969 0 00-.986.272 1.086 1.086 0 00-.479 1.035h-1.014V-.001h1.014a1.085 1.085 0 00.479 1.035 1.966 1.966 0 00.986.272h25.018a1.969 1.969 0 00.987-.272 1.087 1.087 0 00.478-1.035h1.015v7.625h-1.015a1.088 1.088 0 00-.478-1.035 1.972 1.972 0 00-.987-.272h-9.3zM93.652 3.268q0-.981-1.24-.98v-.98h8.677v.98a1.107 1.107 0 00-.7.245.882.882 0 00-.31.736v24.725a.88.88 0 00.31.735 1.106 1.106 0 00.7.245v.981h-8.677v-.981q1.239 0 1.24-.979V17.756H75.508v10.239a.878.878 0 00.31.735 1.1 1.1 0 00.7.245v.981H68.01v-.981q1.07 0 1.07-.979V3.271q0-.981-1.07-.98v-.98h8.508v.98a1.105 1.105 0 00-.7.245.88.88 0 00-.31.736v9.258h18.144zm14.702 25.705q1.465 0 1.465-.979V3.269q0-.981-1.465-.98v-.98h9.354v.98q-1.466 0-1.465.98v24.725q0 .98 1.465.979v.981h-9.354zm47.39-2.94a1.565 1.565 0 01-.31-.027 1.641 1.641 0 00-.31-.028 5.341 5.341 0 00-1.606.654q-1.267.654-3.212 1.47a29 29 0 01-4.423 1.417 21.966 21.966 0 01-5.184.6 26.367 26.367 0 01-6.818-.871 17.242 17.242 0 01-5.775-2.7 13.39 13.39 0 01-3.972-4.547 14.526 14.526 0 010-12.716 13.6 13.6 0 013.972-4.6 17.8 17.8 0 015.775-2.777 24.894 24.894 0 016.818-.926 28.584 28.584 0 015.213.436q2.338.436 4.085.926a23.258 23.258 0 012.761.926 5.077 5.077 0 001.24.436.579.579 0 00.478-.271q.2-.273.31-.436l.845.653-4.4 6.59-.564-.382a1.955 1.955 0 00-.028-.327 5.918 5.918 0 00-.085-.381q-.114-.6-1.127-1.225a11.821 11.821 0 00-2.507-1.117 26.662 26.662 0 00-3.155-.816 16.023 16.023 0 00-3.072-.327 15.655 15.655 0 00-4.536.654 11.44 11.44 0 00-3.775 1.906 9.4 9.4 0 00-2.564 3.077 9.54 9.54 0 000 8.333 9.383 9.383 0 002.564 3.077 11.406 11.406 0 003.775 1.906 15.63 15.63 0 004.536.654 18.627 18.627 0 003.775-.408 23.256 23.256 0 003.607-1.035 12.1 12.1 0 002.733-1.416q1.1-.79 1.1-1.5a1 1 0 00-.225-.653l.789-.436 3.719 5.772zm4.055 2.94a1.649 1.649 0 001.155-.708 11.544 11.544 0 00.817-1.361l10.424-21.185q.393-.707.7-1.307a2.343 2.343 0 00.309-1.035.8.8 0 00-.394-.763 3.433 3.433 0 00-.845-.326v-.98h9.523v.98a4.7 4.7 0 00-.789.3.788.788 0 00-.395.79 2.091 2.091 0 00.2.871q.2.437.592 1.144l11.72 22.165a1.879 1.879 0 00.761.872 11.728 11.728 0 001.1.543v.981h-9.917v-.981a1.357 1.357 0 00.564-.163.523.523 0 00.339-.49 3.316 3.316 0 00-.451-1.416l-2.141-4.031h-13.749l-2.029 3.867a4.463 4.463 0 00-.564 1.634c0 .4.357.6 1.071.6v.981h-8zm21.243-10.129l-4.734-10.13-5.3 10.13zm46.937 12.144q0-.817-.535-.926a7.14 7.14 0 00-1.381-.109h-26.821v-.981q1.69 0 1.69-.979V3.268q0-.981-1.69-.98v-.98h9.691v.98q-1.578 0-1.578.98v21.676h18.707a2.324 2.324 0 001.381-.381 1.205 1.205 0 00.535-1.035h1.014v7.462zM39.124 45.307a30.148 30.148 0 015.015.408 15.891 15.891 0 014.282 1.307 8.291 8.291 0 012.986 2.342 5.625 5.625 0 011.127 3.568A4.9 4.9 0 0150.9 56.88a11.763 11.763 0 01-3.888 2.151v.109a11.151 11.151 0 014.48 2.424 6.109 6.109 0 011.831 4.765 6.388 6.388 0 01-.733 3.022 7.043 7.043 0 01-2.169 2.424 10.929 10.929 0 01-3.522 1.606 17.934 17.934 0 01-4.733.572H21.487v-.981q1.577 0 1.578-.979V47.268q0-.981-1.578-.98v-.98zm1.127 11.219a12.025 12.025 0 004.2-.626 2.93 2.93 0 000-5.283 12.061 12.061 0 00-4.2-.626H29.489v6.535zm0 12.417q3.55 0 5.1-1.062a3.313 3.313 0 000-5.61q-1.55-1.061-5.1-1.062H29.489v7.734zM76.593 44.98a23.33 23.33 0 016.311.9 19.918 19.918 0 015.86 2.695 14.814 14.814 0 014.339 4.548 13.374 13.374 0 010 13.016 14.8 14.8 0 01-4.339 4.547 18.454 18.454 0 01-5.86 2.615 24.8 24.8 0 01-12.622 0 18.444 18.444 0 01-5.86-2.615 14.785 14.785 0 01-4.339-4.547 13.373 13.373 0 010-13.016 14.8 14.8 0 014.339-4.548 19.906 19.906 0 015.86-2.695 23.323 23.323 0 016.311-.9zm0 5.011a14.577 14.577 0 00-4.282.654 13.229 13.229 0 00-3.86 1.878 9.877 9.877 0 00-2.789 3.023 8.327 8.327 0 000 8.169 9.888 9.888 0 002.789 3.022 13.254 13.254 0 003.86 1.878 14.346 14.346 0 008.565 0 13.278 13.278 0 003.86-1.878 9.908 9.908 0 002.789-3.022 8.327 8.327 0 000-8.169 9.9 9.9 0 00-2.789-3.023 13.253 13.253 0 00-3.86-1.878 14.587 14.587 0 00-4.283-.654zm41.022-5.011a23.324 23.324 0 016.31.9 19.917 19.917 0 015.86 2.695 14.818 14.818 0 014.339 4.548 13.376 13.376 0 010 13.016 14.8 14.8 0 01-4.339 4.547 18.453 18.453 0 01-5.86 2.615 24.8 24.8 0 01-12.621 0 18.445 18.445 0 01-5.86-2.615 14.782 14.782 0 01-4.339-4.547 13.373 13.373 0 010-13.016 14.8 14.8 0 014.339-4.548 19.907 19.907 0 015.86-2.695 23.323 23.323 0 016.311-.9zm0 5.011a14.579 14.579 0 00-4.283.654 13.234 13.234 0 00-3.86 1.878 9.877 9.877 0 00-2.789 3.023 8.326 8.326 0 000 8.169 9.887 9.887 0 002.789 3.022 13.259 13.259 0 003.86 1.878 14.346 14.346 0 008.565 0 13.276 13.276 0 003.86-1.878 9.91 9.91 0 002.789-3.022 8.326 8.326 0 000-8.169 9.9 9.9 0 00-2.789-3.023 13.252 13.252 0 00-3.86-1.878 14.585 14.585 0 00-4.282-.654zm39.499 22.002q0 .98 1.24.98v.98h-8.678v-.98a1.108 1.108 0 00.7-.245.881.881 0 00.31-.735V50.317h-9.3a1.968 1.968 0 00-.986.272 1.085 1.085 0 00-.479 1.035h-1.014v-7.625h1.014a1.084 1.084 0 00.479 1.035 1.965 1.965 0 00.986.272h25.018a1.969 1.969 0 00.986-.272 1.087 1.087 0 00.479-1.035h1.014v7.625h-1.014a1.088 1.088 0 00-.479-1.035 1.971 1.971 0 00-.986-.272h-9.3zm42.203-24.725q0-.981-1.24-.98v-.98h8.678v.98a1.106 1.106 0 00-.7.245.881.881 0 00-.31.736v24.725a.879.879 0 00.31.735 1.1 1.1 0 00.7.245v.981h-8.674v-.981q1.24 0 1.24-.979V61.756h-18.144v10.239a.878.878 0 00.311.735 1.1 1.1 0 00.7.245v.981h-8.507v-.981q1.07 0 1.071-.979V47.271q0-.981-1.071-.98v-.98h8.508v.98a1.1 1.1 0 00-.7.245.88.88 0 00-.311.736v9.258h18.144z" opacity=".1" fill="#fed438"/><path fill="none" d="M0 0h229v75H0z"/></svg>