<svg xmlns="http://www.w3.org/2000/svg" width="451" height="70"><path d="M70.076 21.843l-2.69-.779a4.8 4.8 0 00.269-1.561q0-1.95-2.489-3.51a25.011 25.011 0 00-6.321-2.665 51.76 51.76 0 00-8.34-1.625 75.033 75.033 0 00-8.54-.52 36.745 36.745 0 00-9.886 1.365 26.218 26.218 0 00-8.743 4.226 21.275 21.275 0 00-6.187 7.409 26.96 26.96 0 000 22.035 21.1 21.1 0 006.187 7.476 26.19 26.19 0 008.743 4.224 36.737 36.737 0 009.886 1.366 69.9 69.9 0 0013.786-1.236 89.693 89.693 0 0010.424-2.665v-11.18H48.959a4.344 4.344 0 00-2.825.781q-.942.779-1.21 3.38h-2.421V31.723h2.421c.179 1.476.582 2.405 1.21 2.8a5.441 5.441 0 002.825.585h33.625v2.34a8.664 8.664 0 00-3.362.91 2.73 2.73 0 00-.673 2.21v14.689a1.688 1.688 0 00.808 1.691c.537.259 1.164.564 1.883.91v2.079a49.082 49.082 0 01-9.348 4.94 63.9 63.9 0 01-9.953 3.055 61.926 61.926 0 01-10.088 1.365q-5.043.26-9.886.26a60.616 60.616 0 01-17.149-2.274 37.474 37.474 0 01-13.248-6.76 30.769 30.769 0 01-8.541-10.921 36.844 36.844 0 010-29.25 31.381 31.381 0 018.541-10.984 38.506 38.506 0 0113.248-6.955A57.576 57.576 0 0141.965.007a78.6 78.6 0 0111.3.781q5.377.779 9.55 1.754t6.927 1.821a17.377 17.377 0 003.429.844 3.007 3.007 0 001.883-.52 12.389 12.389 0 011.345-.909l1.614.909zM136.787 0a55.721 55.721 0 0115.064 2.146 47.509 47.509 0 0113.988 6.434 35.339 35.339 0 0110.357 10.856 31.921 31.921 0 010 31.069 35.317 35.317 0 01-10.357 10.856 44.079 44.079 0 01-13.988 6.24 59.188 59.188 0 01-30.129 0 44.053 44.053 0 01-13.987-6.24 35.3 35.3 0 01-10.358-10.856 31.921 31.921 0 010-31.069A35.32 35.32 0 01107.735 8.58a47.478 47.478 0 0113.987-6.434A55.713 55.713 0 01136.787 0zm0 11.96a34.841 34.841 0 00-10.222 1.561 31.629 31.629 0 00-9.214 4.484 23.6 23.6 0 00-6.657 7.215 19.874 19.874 0 000 19.5 23.588 23.588 0 006.657 7.216 31.654 31.654 0 009.214 4.484 34.248 34.248 0 0020.444 0 31.709 31.709 0 009.213-4.484 23.642 23.642 0 006.658-7.216 19.875 19.875 0 000-19.5 23.652 23.652 0 00-6.658-7.215 31.684 31.684 0 00-9.213-4.484 34.865 34.865 0 00-10.222-1.561zM234.705 0a55.714 55.714 0 0115.063 2.146 47.509 47.509 0 0113.988 6.434 35.344 35.344 0 0110.358 10.856 31.928 31.928 0 010 31.069 35.322 35.322 0 01-10.358 10.856 44.079 44.079 0 01-13.988 6.24 59.183 59.183 0 01-30.128 0 44.058 44.058 0 01-13.988-6.24 35.284 35.284 0 01-10.357-10.856 31.922 31.922 0 010-31.069A35.305 35.305 0 01205.652 8.58a47.483 47.483 0 0113.988-6.434A55.711 55.711 0 01234.705 0zm0 11.96a34.847 34.847 0 00-10.223 1.561 31.635 31.635 0 00-9.213 4.484 23.6 23.6 0 00-6.658 7.215 19.874 19.874 0 000 19.5 23.591 23.591 0 006.658 7.216 31.661 31.661 0 009.213 4.484 34.248 34.248 0 0020.444 0 31.7 31.7 0 009.214-4.484 23.65 23.65 0 006.657-7.216 19.875 19.875 0 000-19.5 23.661 23.661 0 00-6.657-7.215 31.678 31.678 0 00-9.214-4.484 34.858 34.858 0 00-10.221-1.561zM334.909.781a44.318 44.318 0 0113.786 2.08 30.57 30.57 0 0111.1 6.3 29.235 29.235 0 017.4 10.66 44 44 0 010 30.29 29.216 29.216 0 01-7.4 10.661 30.509 30.509 0 01-11.1 6.3 44.254 44.254 0 01-13.786 2.08h-44.656v-2.339q3.093 0 3.094-2.34V5.452q0-2.338-3.094-2.34V.773zm-5.381 57.2a51.587 51.587 0 0011.029-1.04 17.529 17.529 0 007.8-3.705 16.166 16.166 0 004.639-7.085 41.176 41.176 0 000-22.361 16.187 16.187 0 00-4.639-7.085 17.565 17.565 0 00-7.8-3.705 51.713 51.713 0 00-11.029-1.04H308.68v46.021zm57.969-10.271l1.344.651a4.006 4.006 0 00.538 2.08 9.48 9.48 0 003.7 3.054 38.219 38.219 0 006.321 2.665 55.975 55.975 0 007.465 1.885 39.049 39.049 0 006.994.715q2.284 0 5.918-.324a36.223 36.223 0 007.129-1.365 20.323 20.323 0 006.052-2.861 5.637 5.637 0 002.556-4.809 4.811 4.811 0 00-2.354-4.42 17.626 17.626 0 00-6.187-2.08 69.42 69.42 0 00-8.743-.846q-4.913-.195-10.021-.585a93.822 93.822 0 01-10.019-1.3 28.294 28.294 0 01-8.743-3.055 17.117 17.117 0 01-6.188-5.849 17.828 17.828 0 01-2.353-9.686 17.542 17.542 0 011.95-7.929 19.439 19.439 0 015.985-6.891 33.505 33.505 0 0110.223-4.875A50.091 50.091 0 01413.59 0a64.491 64.491 0 0112.374 1.04q5.245 1.043 9.079 2.21t6.456 2.21a12.328 12.328 0 004.372 1.04 3.8 3.8 0 002.689-.78l1.614 1.04-9.28 16.25-1.346-.52a7.031 7.031 0 00-1.075-2.99 11.394 11.394 0 00-3.564-3.054 31.558 31.558 0 00-5.851-2.665 48.823 48.823 0 00-7.264-1.885 42.193 42.193 0 00-13.921-.261A29.842 29.842 0 00402.158 13a12.727 12.727 0 00-4.238 2.406 4.757 4.757 0 00-1.681 3.705 5.237 5.237 0 002.354 4.679 17.465 17.465 0 006.187 2.34 59.876 59.876 0 008.743 1.04q4.906.263 10.02.651a83.942 83.942 0 0110.02 1.365 29.573 29.573 0 018.743 3.119 16.065 16.065 0 018.541 15.275 16.314 16.314 0 01-3.7 11.05 26.008 26.008 0 01-9.213 6.761 42.636 42.636 0 01-11.9 3.314 91.239 91.239 0 01-11.9.845 81.743 81.743 0 01-12.845-.845 49.072 49.072 0 01-8.608-2.08 58.02 58.02 0 01-5.447-2.21 8.318 8.318 0 00-3.5-.974 2.246 2.246 0 00-1.749 1.04l-1.883-1.04z" opacity=".1" fill="#fed438"/><path fill="none" d="M0 0h451v70H0z"/></svg>