<svg xmlns="http://www.w3.org/2000/svg" width="1026" height="74"><path d="M66.443 17.16a2.365 2.365 0 00-1.143-2.144 7.973 7.973 0 00-3.968-.715H17.754V30.42h26.362a9.772 9.772 0 004.17-.715q1.478-.711 1.479-3.705h2.421v20.276h-2.421q0-2.991-1.479-3.835a8.494 8.494 0 00-4.17-.846H17.754v17.941h44.924a5.542 5.542 0 003.294-.91 2.875 2.875 0 001.278-2.471h2.422v17.811H67.25q0-1.952-1.278-2.211a16.993 16.993 0 00-3.294-.26H0v-2.34a2.643 2.643 0 001.68-.584 2.1 2.1 0 00.741-1.755V7.796A2.1 2.1 0 001.68 6.04 2.645 2.645 0 000 5.456v-2.34h61.332a6.916 6.916 0 003.968-.845 2.689 2.689 0 001.143-2.276h2.421v17.16zm56.356 49.661q0 2.34 2.959 2.339v2.34h-20.713v-2.34a2.641 2.641 0 001.68-.584 2.1 2.1 0 00.741-1.755V15.076H85.272a4.7 4.7 0 00-2.353.651 2.592 2.592 0 00-1.144 2.47h-2.421v-18.2h2.421a2.589 2.589 0 001.144 2.471 4.694 4.694 0 002.353.65h59.719a4.7 4.7 0 002.355-.65 2.594 2.594 0 001.142-2.471h2.422v18.2h-2.426a2.6 2.6 0 00-1.142-2.47 4.7 4.7 0 00-2.355-.651h-22.192zM223.54 7.801q0-2.342-2.959-2.34v-2.34h20.713v2.34a2.642 2.642 0 00-1.682.584 2.1 2.1 0 00-.739 1.756v59.02a2.1 2.1 0 00.739 1.755 2.64 2.64 0 001.682.584v2.34h-20.71v-2.34q2.956 0 2.959-2.339v-24.44h-43.31v24.44a2.1 2.1 0 00.74 1.755 2.636 2.636 0 001.681.584v2.34h-20.309v-2.34q2.553 0 2.554-2.339V7.801q0-2.342-2.554-2.34v-2.34h20.309v2.34a2.637 2.637 0 00-1.681.584 2.1 2.1 0 00-.74 1.756v22.1h43.31zm35.104 61.359q3.5 0 3.5-2.339V7.801q0-2.342-3.5-2.34v-2.34h22.328v2.34q-3.5 0-3.5 2.34v59.02q0 2.34 3.5 2.339v2.34h-22.328zm113.116-7.019a3.755 3.755 0 01-.74-.065 3.934 3.934 0 00-.74-.066 12.753 12.753 0 00-3.833 1.561q-3.025 1.562-7.667 3.509a69.26 69.26 0 01-10.558 3.381 52.432 52.432 0 01-12.375 1.43 62.928 62.928 0 01-16.274-2.08 41.149 41.149 0 01-13.786-6.436 31.966 31.966 0 01-9.482-10.855 34.673 34.673 0 010-30.354 32.458 32.458 0 019.482-10.986 42.482 42.482 0 0113.786-6.629 59.433 59.433 0 0116.274-2.211 68.205 68.205 0 0112.442 1.041q5.58 1.039 9.752 2.209a55.351 55.351 0 016.59 2.211 12.14 12.14 0 002.96 1.039 1.38 1.38 0 001.142-.648c.314-.434.56-.782.74-1.041l2.018 1.56L361 24.442l-1.346-.911a4.663 4.663 0 00-.066-.781 15.79 15.79 0 00-.2-.91q-.272-1.427-2.691-2.924a28.209 28.209 0 00-5.985-2.666 63.594 63.594 0 00-7.531-1.949 38.233 38.233 0 00-7.332-.781 37.366 37.366 0 00-10.827 1.56 27.307 27.307 0 00-9.011 4.551 22.43 22.43 0 00-6.121 7.344 22.775 22.775 0 000 19.89 22.4 22.4 0 006.121 7.346 27.23 27.23 0 009.011 4.549 37.3 37.3 0 0010.827 1.561 44.44 44.44 0 009.012-.975 55.438 55.438 0 008.609-2.471 28.846 28.846 0 006.523-3.379q2.622-1.884 2.622-3.576a2.378 2.378 0 00-.537-1.558l1.883-1.041 8.877 13.779zm9.682 7.019a3.94 3.94 0 002.757-1.689 27.582 27.582 0 001.95-3.25l24.883-50.57q.939-1.687 1.682-3.12a5.593 5.593 0 00.739-2.47 1.908 1.908 0 00-.941-1.821 8.182 8.182 0 00-2.018-.779v-2.34h22.731v2.34a11.21 11.21 0 00-1.883.715 1.882 1.882 0 00-.942 1.885 4.986 4.986 0 00.471 2.08q.469 1.042 1.412 2.73l27.977 52.91a4.482 4.482 0 001.816 2.081 27.919 27.919 0 002.622 1.3v2.34h-23.672v-2.34a3.243 3.243 0 001.345-.39 1.249 1.249 0 00.808-1.17 7.912 7.912 0 00-1.077-3.379l-5.111-9.621h-32.818l-4.842 9.23a10.651 10.651 0 00-1.346 3.9c0 .955.852 1.429 2.556 1.429v2.34h-19.1zm50.707-24.179l-11.3-24.18-12.642 24.18zm112.035 28.99q0-1.952-1.277-2.211a17.008 17.008 0 00-3.3-.26h-64.022v-2.34q4.035 0 4.035-2.339V7.801q0-2.342-4.035-2.34v-2.34h23.134v2.34q-3.766 0-3.766 2.34v51.74h44.654a5.546 5.546 0 003.3-.91 2.877 2.877 0 001.277-2.471h2.421v17.811zm81.51-70.85a71.951 71.951 0 0111.971.975 37.914 37.914 0 0110.222 3.119 19.786 19.786 0 017.128 5.59 13.426 13.426 0 012.691 8.516q0 6.111-3.9 9.425a28.07 28.07 0 01-9.281 5.135v.26a26.621 26.621 0 0110.694 5.785q4.368 3.968 4.371 11.375a15.252 15.252 0 01-1.749 7.215 16.817 16.817 0 01-5.178 5.785 26.094 26.094 0 01-8.406 3.834 42.8 42.8 0 01-11.3 1.365h-49.362v-2.34q3.763 0 3.766-2.339V7.801q0-2.342-3.766-2.34v-2.34zm2.69 26.78a28.708 28.708 0 0010.02-1.5q3.968-1.494 3.968-6.306t-3.968-6.305a28.785 28.785 0 00-10.02-1.494h-25.69v15.6zm0 29.64q8.474 0 12.172-2.535a7.908 7.908 0 000-13.391q-3.7-2.533-12.172-2.535h-25.69v18.461zM715.136 2.34A55.675 55.675 0 01730.2 4.487a47.537 47.537 0 0113.988 6.433 35.355 35.355 0 0110.357 10.856 31.922 31.922 0 010 31.07 35.324 35.324 0 01-10.357 10.855 44.061 44.061 0 01-13.988 6.241 59.195 59.195 0 01-30.129 0 44.033 44.033 0 01-13.987-6.241 35.3 35.3 0 01-10.358-10.855 31.922 31.922 0 010-31.07 35.334 35.334 0 0110.358-10.856 47.505 47.505 0 0113.987-6.433 55.665 55.665 0 0115.065-2.147zm0 11.961a34.808 34.808 0 00-10.222 1.561 31.584 31.584 0 00-9.214 4.484 23.575 23.575 0 00-6.657 7.215 19.874 19.874 0 000 19.5 23.6 23.6 0 006.657 7.215 31.633 31.633 0 009.214 4.484 34.248 34.248 0 0020.444 0 31.689 31.689 0 009.213-4.484 23.654 23.654 0 006.658-7.215 19.874 19.874 0 000-19.5 23.626 23.626 0 00-6.658-7.215 31.64 31.64 0 00-9.213-4.484 34.832 34.832 0 00-10.222-1.561zM813.054 2.34a55.669 55.669 0 0115.063 2.147 47.536 47.536 0 0113.988 6.433 35.358 35.358 0 0110.358 10.856 31.93 31.93 0 010 31.07 35.327 35.327 0 01-10.358 10.855 44.06 44.06 0 01-13.988 6.241 59.191 59.191 0 01-30.128 0 44.04 44.04 0 01-13.988-6.241 35.289 35.289 0 01-10.357-10.855 31.922 31.922 0 010-31.07 35.32 35.32 0 0110.357-10.856 47.512 47.512 0 0113.988-6.433 55.666 55.666 0 0115.065-2.147zm0 11.961a34.815 34.815 0 00-10.223 1.561 31.592 31.592 0 00-9.213 4.484 23.578 23.578 0 00-6.658 7.215 19.874 19.874 0 000 19.5 23.606 23.606 0 006.658 7.215 31.641 31.641 0 009.213 4.484 34.248 34.248 0 0020.444 0 31.685 31.685 0 009.214-4.484 23.666 23.666 0 006.657-7.215 19.875 19.875 0 000-19.5 23.638 23.638 0 00-6.657-7.215 31.636 31.636 0 00-9.214-4.484 34.826 34.826 0 00-10.221-1.561zm94.285 52.52q0 2.34 2.96 2.339v2.34h-20.715v-2.34a2.645 2.645 0 001.681-.584 2.105 2.105 0 00.74-1.755V15.076h-22.193a4.694 4.694 0 00-2.353.651 2.59 2.59 0 00-1.144 2.47h-2.421v-18.2h2.421a2.588 2.588 0 001.144 2.471 4.691 4.691 0 002.353.65h59.719a4.7 4.7 0 002.354-.65 2.594 2.594 0 001.143-2.471h2.421v18.2h-2.421a2.6 2.6 0 00-1.143-2.47 4.7 4.7 0 00-2.354-.651h-22.193zm100.745-59.02q0-2.342-2.959-2.34v-2.34h20.714v2.34a2.641 2.641 0 00-1.682.584 2.1 2.1 0 00-.74 1.756v59.02a2.1 2.1 0 00.74 1.755 2.64 2.64 0 001.682.584v2.34h-20.714v-2.34q2.958 0 2.959-2.339v-24.44h-43.31v24.44a2.1 2.1 0 00.741 1.755 2.633 2.633 0 001.68.584v2.34h-20.311v-2.34q2.553 0 2.555-2.339V7.801q0-2.342-2.555-2.34v-2.34h20.309v2.34a2.635 2.635 0 00-1.68.584 2.1 2.1 0 00-.741 1.756v22.1h43.31z" opacity=".1" fill="#fed438"/><path fill="none" d="M0 0h1026v74H0z"/></svg>