<svg xmlns="http://www.w3.org/2000/svg" width="434" height="74.001"><path fill="none" d="M0 .001h434v74H0z"/><path d="M43.444 2.342a55.756 55.756 0 0115.065 2.145 47.561 47.561 0 0113.988 6.435 35.349 35.349 0 0110.357 10.855 31.925 31.925 0 010 31.071 35.349 35.349 0 01-10.357 10.855 44.079 44.079 0 01-13.988 6.239 59.174 59.174 0 01-30.129 0 44.046 44.046 0 01-13.988-6.239A35.315 35.315 0 014.035 52.848a31.925 31.925 0 010-31.071 35.315 35.315 0 0110.357-10.855A47.523 47.523 0 0128.38 4.487a55.738 55.738 0 0115.064-2.145zm0 11.961a34.842 34.842 0 00-10.222 1.559 31.612 31.612 0 00-9.213 4.486 23.575 23.575 0 00-6.658 7.214 19.873 19.873 0 000 19.5 23.564 23.564 0 006.658 7.215 31.622 31.622 0 009.213 4.485 34.269 34.269 0 0020.444 0 31.664 31.664 0 009.214-4.485 23.64 23.64 0 006.658-7.215 19.881 19.881 0 000-19.5 23.651 23.651 0 00-6.658-7.214 31.654 31.654 0 00-9.214-4.486 34.857 34.857 0 00-10.222-1.561zM137.73 66.82q0 2.342 2.959 2.34v2.34h-20.713v-2.34a2.645 2.645 0 001.681-.584 2.111 2.111 0 00.74-1.756V15.08h-22.193a4.717 4.717 0 00-2.354.65 2.593 2.593 0 00-1.143 2.471h-2.422V.001h2.422a2.589 2.589 0 001.143 2.471 4.692 4.692 0 002.354.65h59.719a4.693 4.693 0 002.353-.65A2.594 2.594 0 00163.42.001h2.421v18.2h-2.421a2.6 2.6 0 00-1.144-2.471 4.718 4.718 0 00-2.353-.65H137.73zM241.161 7.801q0-2.342-2.959-2.34v-2.34h20.714v2.34a2.635 2.635 0 00-1.682.584 2.1 2.1 0 00-.739 1.756V66.82a2.1 2.1 0 00.739 1.756 2.641 2.641 0 001.682.584v2.34h-20.714v-2.34q2.958 0 2.959-2.34V42.381h-43.309V66.82a2.1 2.1 0 00.74 1.756 2.638 2.638 0 001.681.584v2.34h-20.31v-2.34q2.553 0 2.556-2.34V7.801q0-2.342-2.556-2.34v-2.34h20.31v2.34a2.632 2.632 0 00-1.681.584 2.1 2.1 0 00-.74 1.756v22.1h43.309zm101.952 9.359a2.369 2.369 0 00-1.142-2.145 7.981 7.981 0 00-3.968-.714h-43.579V30.42h26.362a9.8 9.8 0 004.17-.715q1.477-.713 1.48-3.705h2.42v20.28h-2.42q0-2.99-1.48-3.835a8.507 8.507 0 00-4.17-.845h-26.362v17.942h44.924a5.552 5.552 0 003.3-.91 2.879 2.879 0 001.278-2.471h2.421v17.811h-2.421q0-1.951-1.278-2.211a17.024 17.024 0 00-3.3-.26H276.67v-2.34a2.647 2.647 0 001.681-.584 2.108 2.108 0 00.74-1.756V7.802a2.1 2.1 0 00-.74-1.756 2.641 2.641 0 00-1.681-.584v-2.34h61.333a6.912 6.912 0 003.968-.846 2.686 2.686 0 001.142-2.275h2.421v17.16zm59.046-14.039a57.065 57.065 0 0111.7 1.1 26.971 26.971 0 019.011 3.51 16.358 16.358 0 015.784 6.24 20.068 20.068 0 012.018 9.425q0 8.581-5.246 13.13t-14.122 6.11l17.888 24.7a3.63 3.63 0 002.219 1.56 11.757 11.757 0 002.355.26v2.34h-25.153v-2.34a5.09 5.09 0 002.085-.39c.582-.26.874-.6.874-1.04a2.9 2.9 0 00-.538-1.495q-.538-.843-1.614-2.274l-14.795-20.281h-19.232v23.14a1.971 1.971 0 00.874 1.756 6.075 6.075 0 003.161.584v2.34h-23.27v-2.34q3.9 0 3.9-2.34V7.797q0-2.342-3.9-2.34v-2.34zm-3.5 30.42a38.128 38.128 0 008.07-.715 14.538 14.538 0 005.112-2.016 7.593 7.593 0 002.689-3.054 9.5 9.5 0 000-7.67 7.614 7.614 0 00-2.689-3.056 14.594 14.594 0 00-5.112-2.015 38.265 38.265 0 00-8.07-.714h-23.266v19.24z" opacity=".1" fill="#fed438"/></svg>