<svg xmlns="http://www.w3.org/2000/svg" width="751.457" height="70"><path fill="none" d="M0 0h751v70H0z"/><path d="M20.847 3.57q-2.017 0-2.017 2.471a7.327 7.327 0 00.2 1.561 24.106 24.106 0 001.008 2.989l14.392 36.14h.27l14.256-36.66a20.318 20.318 0 00.875-2.535 6.532 6.532 0 00.2-1.494q0-2.468-1.748-2.471v-2.34h23v2.34a1.462 1.462 0 00-1.346.65 2.672 2.672 0 00-.4 1.43 13.45 13.45 0 001.343 4.42l14.393 36.66h.27l14.525-37.439a8.226 8.226 0 00.941-3.51 2.177 2.177 0 00-.672-1.5 2.149 2.149 0 00-1.615-.715v-2.34h19.906v2.34a2.368 2.368 0 00-2.218 1.561q-.741 1.56-1.682 3.9l-19.367 49.66q-.808 2.08-1.412 3.64a7.478 7.478 0 00-.606 2.6 2.3 2.3 0 00.672 1.625 2.454 2.454 0 001.883.716v2.34h-21.25v-2.34a8.312 8.312 0 001.68-.781 1.6 1.6 0 00.875-1.43 7.011 7.011 0 00-.471-2.34q-.471-1.3-1.547-3.64L59.718 20.727h-.269l-14.66 37.57q-2.019 5.07-2.018 6.37a2.4 2.4 0 001.748 2.6v2.34H23.671v-2.34a3.682 3.682 0 001.614-.391 1.337 1.337 0 00.806-1.3 5.927 5.927 0 00-.47-2.21q-.473-1.17-1.008-2.471L3.091 7.206a13.828 13.828 0 00-1.142-2.405A2.8 2.8 0 000 3.566v-2.34h20.847zM168.392.45a55.767 55.767 0 0115.065 2.145 47.51 47.51 0 0113.988 6.436 35.342 35.342 0 0110.357 10.854 31.924 31.924 0 010 31.07 35.32 35.32 0 01-10.357 10.854 44.014 44.014 0 01-13.988 6.24 59.158 59.158 0 01-30.129 0 44.01 44.01 0 01-13.989-6.24 35.278 35.278 0 01-10.355-10.854 31.923 31.923 0 010-31.07 35.3 35.3 0 0110.355-10.854 47.5 47.5 0 0113.989-6.436A55.755 55.755 0 01168.392.45zm0 11.959a34.867 34.867 0 00-10.223 1.561 31.632 31.632 0 00-9.212 4.485 23.6 23.6 0 00-6.659 7.215 19.888 19.888 0 000 19.5 23.6 23.6 0 006.659 7.215 31.632 31.632 0 009.212 4.485 34.286 34.286 0 0020.446 0 31.7 31.7 0 009.213-4.485 23.648 23.648 0 006.658-7.215 19.88 19.88 0 000-19.5 23.648 23.648 0 00-6.658-7.215 31.7 31.7 0 00-9.213-4.485 34.872 34.872 0 00-10.223-1.561zM268.058 1.23a57.035 57.035 0 0111.7 1.105 26.933 26.933 0 019.01 3.51 16.381 16.381 0 015.785 6.24 20.068 20.068 0 012.018 9.425q0 8.58-5.246 13.13t-14.123 6.11l17.888 24.7a3.635 3.635 0 002.219 1.56 11.773 11.773 0 002.356.261v2.34h-25.153v-2.34a5.093 5.093 0 002.084-.391c.582-.26.875-.605.875-1.04a2.9 2.9 0 00-.539-1.5q-.539-.844-1.613-2.275l-14.8-20.279h-19.234v23.14a1.968 1.968 0 00.875 1.755 6.056 6.056 0 003.16.586v2.34h-23.27v-2.34q3.9 0 3.9-2.341V5.905q0-2.338-3.9-2.34v-2.34zm-3.5 30.42a38.1 38.1 0 008.07-.715 14.519 14.519 0 005.112-2.015 7.608 7.608 0 002.689-3.056 9.516 9.516 0 000-7.67 7.618 7.618 0 00-2.689-3.055 14.612 14.612 0 00-5.112-2.015 38.217 38.217 0 00-8.07-.716h-23.269v19.24zm65.236 33.28a2.023 2.023 0 00.807 1.755 3.114 3.114 0 001.883.586v2.34h-20.982v-2.34q2.955 0 2.958-2.341V5.909q0-2.338-2.958-2.34v-2.34h20.982v2.34a3.114 3.114 0 00-1.883.586 2.022 2.022 0 00-.807 1.754v24.7l27.842-21.19q1.881-1.56 2.959-2.535t1.076-1.625a1.433 1.433 0 00-.605-1.3 2.554 2.554 0 00-1.412-.391v-2.34h28.244v2.34a7.721 7.721 0 00-4.842 1.951l-30.935 23.789 28.246 31.59a33.906 33.906 0 004.1 3.836 13.373 13.373 0 004.641 2.535v2.34h-24.883v-2.34q1.746 0 1.748-.91 0-.65-1.883-2.86l-23-25.61-11.3 8.45zm77.069-16.771l1.346.65a3.993 3.993 0 00.537 2.08 9.464 9.464 0 003.7 3.055 38.166 38.166 0 006.32 2.666 56.5 56.5 0 007.465 1.885 39.212 39.212 0 006.994.715q2.289 0 5.918-.325a36.23 36.23 0 007.129-1.364 20.294 20.294 0 006.053-2.861 5.633 5.633 0 002.556-4.809 4.818 4.818 0 00-2.353-4.421 17.656 17.656 0 00-6.188-2.079 69.1 69.1 0 00-8.742-.846q-4.912-.195-10.021-.585a94.257 94.257 0 01-10.02-1.3 28.337 28.337 0 01-8.744-3.055 17.112 17.112 0 01-6.185-5.851 17.8 17.8 0 01-2.356-9.685 17.549 17.549 0 011.951-7.93 19.411 19.411 0 015.987-6.891 33.462 33.462 0 0110.22-4.875A50.073 50.073 0 01432.958.448a64.53 64.53 0 0112.373 1.039q5.247 1.043 9.08 2.211t6.455 2.209a12.348 12.348 0 004.371 1.041 3.8 3.8 0 002.691-.78l1.614 1.04-9.282 16.25-1.343-.52a7.047 7.047 0 00-1.077-2.99 11.36 11.36 0 00-3.564-3.055 31.526 31.526 0 00-5.852-2.666 49.2 49.2 0 00-7.263-1.885 42.225 42.225 0 00-13.92-.26 29.808 29.808 0 00-5.717 1.365 12.732 12.732 0 00-4.236 2.4 4.757 4.757 0 00-1.682 3.705 5.235 5.235 0 002.354 4.68 17.482 17.482 0 006.187 2.341 59.958 59.958 0 008.742 1.04q4.911.261 10.022.65a84.423 84.423 0 0110.019 1.364 29.571 29.571 0 018.742 3.12 16.066 16.066 0 018.541 15.275 16.313 16.313 0 01-3.7 11.05 25.993 25.993 0 01-9.213 6.76 42.578 42.578 0 01-11.9 3.315 91.308 91.308 0 01-11.9.845 81.768 81.768 0 01-12.844-.845 49.191 49.191 0 01-8.609-2.08 58.278 58.278 0 01-5.448-2.211 8.308 8.308 0 00-3.5-.975 2.255 2.255 0 00-1.75 1.04l-1.883-1.04zm140.148-42.25q0-2.338-2.959-2.34v-2.34h20.715v2.34a2.634 2.634 0 00-1.682.586 2.1 2.1 0 00-.74 1.754V64.93a2.1 2.1 0 00.74 1.755 2.634 2.634 0 001.682.586v2.34h-20.715v-2.34q2.96 0 2.959-2.341V40.49h-43.308v24.44a2.1 2.1 0 00.74 1.755 2.632 2.632 0 001.682.586v2.34h-20.311v-2.34q2.552 0 2.555-2.341V5.909q0-2.338-2.555-2.34v-2.34h20.311v2.34a2.632 2.632 0 00-1.682.586 2.1 2.1 0 00-.74 1.754v22.1h43.308zM620.585.45a55.774 55.774 0 0115.065 2.145 47.558 47.558 0 0113.988 6.436 35.327 35.327 0 0110.356 10.854 31.924 31.924 0 010 31.07 35.306 35.306 0 01-10.356 10.854 44.055 44.055 0 01-13.988 6.24 59.159 59.159 0 01-30.129 0 44 44 0 01-13.988-6.24 35.288 35.288 0 01-10.358-10.854 31.924 31.924 0 010-31.07 35.309 35.309 0 0110.358-10.854 47.487 47.487 0 0113.988-6.436A55.749 55.749 0 01620.585.45zm0 11.959a34.835 34.835 0 00-10.222 1.561 31.636 31.636 0 00-9.213 4.485 23.575 23.575 0 00-6.658 7.215 19.867 19.867 0 000 19.5 23.575 23.575 0 006.658 7.215 31.636 31.636 0 009.213 4.485 34.276 34.276 0 0020.443 0 31.674 31.674 0 009.215-4.485 23.648 23.648 0 006.658-7.215 19.88 19.88 0 000-19.5 23.648 23.648 0 00-6.658-7.215 31.674 31.674 0 00-9.215-4.485 34.853 34.853 0 00-10.221-1.561zm55.819 57.202v-2.34q4.974 0 4.976-2.341V5.909q0-2.338-4.976-2.34v-2.34h47.344q12.914 0 20.31 4.615t7.4 15.665q0 11.052-7.4 15.665t-20.31 4.615h-27.034v23.14q0 2.339 4.3 2.341v2.34zm48.959-39.78a15.917 15.917 0 007.6-1.69q3.159-1.687 3.161-6.63t-3.161-6.63a15.94 15.94 0 00-7.6-1.689h-28.649v16.64z" opacity=".1" fill="#fed748"/></svg>