<svg xmlns="http://www.w3.org/2000/svg" width="543" height="74"><path d="M67.519 17.16a2.368 2.368 0 00-1.142-2.145 7.982 7.982 0 00-3.968-.715H18.83v16.12h26.362a13.1 13.1 0 004.17-.52 2.208 2.208 0 001.48-2.34h2.42v18.72h-2.42q0-2.99-1.48-3.835a8.507 8.507 0 00-4.17-.845H18.83v25.22a1.875 1.875 0 001.143 1.755 6.318 6.318 0 002.892.585v2.34H0v-2.34q3.5 0 3.5-2.34V7.8q0-2.34-3.5-2.34V3.12h62.409a6.911 6.911 0 003.968-.845A2.686 2.686 0 0067.519 0h2.421v17.16zm81.642 56.81q0-1.95-1.277-2.21a16.939 16.939 0 00-3.3-.26H80.561v-2.34q4.036 0 4.035-2.34V7.8q0-2.34-4.035-2.34V3.12h23.135v2.34q-3.768 0-3.767 2.34v51.74h44.655a5.554 5.554 0 003.3-.91 2.879 2.879 0 001.277-2.47h2.421v17.81zm53.263-71.63a55.75 55.75 0 0115.063 2.145 47.546 47.546 0 0113.988 6.435 35.33 35.33 0 0110.358 10.855 31.93 31.93 0 010 31.07A35.305 35.305 0 01231.475 63.7a44.035 44.035 0 01-13.988 6.24 59.162 59.162 0 01-30.128 0 44.017 44.017 0 01-13.988-6.24 35.269 35.269 0 01-10.357-10.855 31.923 31.923 0 010-31.07 35.294 35.294 0 0110.357-10.855 47.525 47.525 0 0113.988-6.435 55.748 55.748 0 0115.065-2.145zm0 11.96a34.853 34.853 0 00-10.223 1.56 31.642 31.642 0 00-9.213 4.485 23.587 23.587 0 00-6.658 7.215 19.874 19.874 0 000 19.5 23.589 23.589 0 006.658 7.215 31.636 31.636 0 009.213 4.485 34.269 34.269 0 0020.444 0 31.679 31.679 0 009.214-4.485 23.636 23.636 0 006.657-7.215 19.874 19.874 0 000-19.5 23.634 23.634 0 00-6.657-7.215 31.685 31.685 0 00-9.214-4.485 34.865 34.865 0 00-10.221-1.56zm70.613-8.84q-2.017 0-2.018 2.47a7.4 7.4 0 00.2 1.56 23.681 23.681 0 001.009 2.99l14.392 36.14h.268l14.258-36.66a20.728 20.728 0 00.874-2.535 6.492 6.492 0 00.2-1.5q0-2.468-1.748-2.47v-2.34h23v2.34a1.46 1.46 0 00-1.345.65 2.664 2.664 0 00-.4 1.43 13.454 13.454 0 001.346 4.42l14.392 36.66h.268l14.527-37.44a8.25 8.25 0 00.941-3.51 2.173 2.173 0 00-.673-1.495 2.141 2.141 0 00-1.613-.715v-2.34h19.906v2.34a2.369 2.369 0 00-2.22 1.56q-.741 1.56-1.68 3.9l-19.369 49.66-1.413 3.64a7.517 7.517 0 00-.6 2.6 2.3 2.3 0 00.673 1.625 2.457 2.457 0 001.883.715v2.34h-21.251v-2.34a8.23 8.23 0 001.681-.78 1.6 1.6 0 00.874-1.43 7.016 7.016 0 00-.47-2.34q-.474-1.3-1.547-3.64l-15.468-38.35h-.269l-14.661 37.57q-2.016 5.07-2.017 6.37a2.4 2.4 0 001.748 2.6v2.34h-20.848v-2.34a3.68 3.68 0 001.614-.39 1.339 1.339 0 00.807-1.3 5.93 5.93 0 00-.471-2.21q-.471-1.17-1.009-2.47l-21.519-53.69a13.8 13.8 0 00-1.144-2.405 2.788 2.788 0 00-1.95-1.235v-2.34h20.848zm175.927 11.7a2.367 2.367 0 00-1.144-2.145 7.98 7.98 0 00-3.968-.715h-43.579v16.12h26.362a9.789 9.789 0 004.17-.715q1.479-.713 1.48-3.705h2.421v20.28h-2.421q0-2.99-1.48-3.835a8.5 8.5 0 00-4.17-.845h-26.362v17.94h44.924a5.554 5.554 0 003.3-.91 2.879 2.879 0 001.277-2.47h2.421v17.81h-2.421q0-1.95-1.277-2.21a16.939 16.939 0 00-3.3-.26h-62.678v-2.34a2.644 2.644 0 001.682-.585 2.107 2.107 0 00.739-1.755V7.8a2.107 2.107 0 00-.739-1.755 2.645 2.645 0 00-1.682-.585V3.12h61.333a6.909 6.909 0 003.968-.845A2.685 2.685 0 00448.964 0h2.42v17.16zm61.735-14.04a56.963 56.963 0 0111.7 1.105 26.949 26.949 0 019.012 3.51 16.374 16.374 0 015.784 6.24 20.06 20.06 0 012.018 9.425q0 8.58-5.246 13.13t-14.124 6.11l17.89 24.7a3.624 3.624 0 002.219 1.56 11.8 11.8 0 002.353.26v2.34h-25.151v-2.34a5.1 5.1 0 002.085-.39c.582-.26.874-.6.874-1.04a2.908 2.908 0 00-.538-1.5q-.539-.844-1.614-2.275l-14.8-20.28h-19.234v23.14a1.968 1.968 0 00.874 1.755 6.067 6.067 0 003.161.585v2.34h-23.269v-2.34q3.9 0 3.9-2.34V7.795q0-2.34-3.9-2.34v-2.34zm-3.5 30.42a38.074 38.074 0 008.07-.715 14.5 14.5 0 005.111-2.015 7.6 7.6 0 002.69-3.055 9.516 9.516 0 000-7.67 7.611 7.611 0 00-2.69-3.055 14.6 14.6 0 00-5.111-2.015 38.286 38.286 0 00-8.07-.715H483.93v19.24z" opacity=".1" fill="#fed438"/><path fill="none" d="M0 0h543v74H0z"/></svg>