<svg xmlns="http://www.w3.org/2000/svg" width="500" height="74"><path fill="none" d="M0 0h500v74H0z"/><path d="M0 71.37v-2.34q4.974 0 4.976-2.34V7.669Q4.976 5.33 0 5.33V2.99h47.346q12.911 0 20.31 4.614t7.4 15.666q0 11.051-7.4 15.664t-20.31 4.615H20.31V66.69q0 2.34 4.3 2.34v2.34zm48.959-39.78a15.9 15.9 0 007.6-1.691q3.159-1.687 3.163-6.629t-3.163-6.631a15.934 15.934 0 00-7.6-1.689H20.31v16.64zm37.66 37.44q3.495 0 3.5-2.34V7.669q0-2.339-3.5-2.339V2.99h22.328v2.34q-3.5 0-3.5 2.339V66.69q0 2.34 3.5 2.34v2.34H86.619zm115.805-7.02a3.854 3.854 0 01-.741-.065 3.92 3.92 0 00-.738-.066 12.716 12.716 0 00-3.834 1.561q-3.025 1.559-7.666 3.51a69.426 69.426 0 01-10.558 3.38 52.5 52.5 0 01-12.375 1.43 62.889 62.889 0 01-16.274-2.08 41.181 41.181 0 01-13.787-6.435 32 32 0 01-9.482-10.856 34.673 34.673 0 010-30.354 32.473 32.473 0 019.482-10.986 42.489 42.489 0 0113.787-6.63 59.454 59.454 0 0116.274-2.21 68.207 68.207 0 0112.441 1.041q5.581 1.041 9.752 2.209a55.643 55.643 0 016.59 2.21 12.189 12.189 0 002.959 1.04 1.377 1.377 0 001.144-.65q.47-.648.739-1.039l2.017 1.56-10.49 15.729-1.346-.91a4.537 4.537 0 00-.066-.779c-.047-.26-.113-.563-.2-.911q-.273-1.43-2.692-2.924a28.139 28.139 0 00-5.984-2.665 63.523 63.523 0 00-7.533-1.951 38.2 38.2 0 00-7.33-.78 37.318 37.318 0 00-10.827 1.561 27.241 27.241 0 00-9.011 4.55 22.415 22.415 0 00-6.121 7.344 22.777 22.777 0 000 19.891 22.389 22.389 0 006.121 7.345 27.2 27.2 0 009.011 4.549 37.318 37.318 0 0010.827 1.561 44.413 44.413 0 009.011-.975 55.49 55.49 0 008.61-2.47 28.876 28.876 0 006.523-3.38q2.622-1.883 2.621-3.575a2.38 2.38 0 00-.537-1.561l1.883-1.039 8.877 13.779zm34.968 4.68a2.029 2.029 0 00.807 1.755 3.128 3.128 0 001.883.585v2.34h-20.983v-2.34q2.96 0 2.959-2.34V7.669q0-2.339-2.959-2.339V2.99h20.983v2.34a3.115 3.115 0 00-1.883.585 2.027 2.027 0 00-.807 1.754v24.7l27.842-21.19q1.881-1.562 2.959-2.535t1.076-1.625a1.43 1.43 0 00-.6-1.3 2.541 2.541 0 00-1.412-.389V2.99h28.246v2.34a7.715 7.715 0 00-4.842 1.95l-30.935 23.79 28.244 31.59a34.13 34.13 0 004.1 3.835 13.33 13.33 0 004.639 2.535v2.34h-24.883v-2.34q1.749 0 1.75-.91 0-.65-1.883-2.86l-23-25.611-11.3 8.451zm117.42-61.36q-2.961 0-2.959 2.339v39q0 8.19 5.448 11.246t15.937 3.054q10.491 0 15.94-3.054t5.447-11.246v-39q0-2.339-4.035-2.339V2.99h21.519v2.34q-3.228 0-3.228 2.339V46.02a30.59 30.59 0 01-2.285 12.675 18.607 18.607 0 01-6.86 8 28.411 28.411 0 01-11.365 4.029 118.513 118.513 0 01-31.34 0 28.367 28.367 0 01-11.365-4.029 18.571 18.571 0 01-6.859-8 30.54 30.54 0 01-2.288-12.675V7.669q0-2.339-3.765-2.339V2.99h22.058zm69.668 66.04v-2.34q4.976 0 4.977-2.34V7.669q0-2.339-4.977-2.339V2.99h47.346q12.91 0 20.311 4.614t7.4 15.666q0 11.051-7.4 15.664t-20.311 4.615h-27.035V66.69q0 2.34 4.3 2.34v2.34zm48.959-39.78a15.905 15.905 0 007.6-1.691q3.157-1.687 3.162-6.629t-3.162-6.631a15.939 15.939 0 00-7.6-1.689h-28.648v16.64z" opacity=".1" fill="#fed438"/></svg>