<svg xmlns="http://www.w3.org/2000/svg" width="653" height="74"><path d="M0 69.16a3.953 3.953 0 002.758-1.691 27.737 27.737 0 001.95-3.25L29.591 13.65q.939-1.689 1.68-3.12a5.575 5.575 0 00.741-2.471 1.9 1.9 0 00-.942-1.819 8.209 8.209 0 00-2.017-.781V3.12h22.73v2.339a11.346 11.346 0 00-1.883.715 1.881 1.881 0 00-.941 1.885 4.966 4.966 0 00.471 2.08q.468 1.042 1.412 2.731l27.976 52.91a4.475 4.475 0 001.816 2.08 27.8 27.8 0 002.623 1.3v2.34H59.584v-2.34a3.262 3.262 0 001.346-.391 1.247 1.247 0 00.806-1.17 7.917 7.917 0 00-1.076-3.38l-5.11-9.62H22.73l-4.841 9.231a10.634 10.634 0 00-1.345 3.9q0 1.431 2.555 1.43v2.34h-19.1zm50.707-24.18l-11.3-24.181L26.763 44.98zm86.215-41.86a57.03 57.03 0 0111.7 1.1 26.932 26.932 0 019.012 3.511 16.368 16.368 0 015.783 6.239 20.063 20.063 0 012.017 9.426q0 8.58-5.245 13.13t-14.123 6.109l17.889 24.7a3.627 3.627 0 002.22 1.561 11.763 11.763 0 002.353.26v2.34h-25.152v-2.34a5.082 5.082 0 002.085-.391c.582-.26.874-.6.874-1.039a2.9 2.9 0 00-.538-1.5c-.36-.564-.9-1.32-1.614-2.276l-14.8-20.28h-19.234v23.141a1.971 1.971 0 00.874 1.755 6.084 6.084 0 003.161.585v2.34H90.916v-2.34q3.9 0 3.9-2.34V7.79q0-2.339-3.9-2.34V3.111zm-3.5 30.42a38.167 38.167 0 008.07-.715 14.53 14.53 0 005.111-2.016 7.586 7.586 0 002.69-3.055 9.516 9.516 0 000-7.67 7.6 7.6 0 00-2.69-3.054 14.623 14.623 0 00-5.111-2.016 38.326 38.326 0 00-8.07-.715h-23.269V33.54zm115.135-16.38a2.37 2.37 0 00-1.144-2.146 7.984 7.984 0 00-3.968-.715h-43.578v16.12h26.362a9.8 9.8 0 004.17-.714q1.479-.714 1.48-3.705h2.421v20.28h-2.421q0-2.989-1.48-3.835a8.5 8.5 0 00-4.17-.846h-26.362V59.54h44.924a5.546 5.546 0 003.3-.911 2.874 2.874 0 001.277-2.469h2.422v17.809h-2.422q0-1.95-1.277-2.21a16.961 16.961 0 00-3.3-.259h-62.68v-2.34a2.65 2.65 0 001.681-.585 2.108 2.108 0 00.74-1.755V7.799a2.105 2.105 0 00-.74-1.755 2.647 2.647 0 00-1.681-.585V3.12h61.332a6.916 6.916 0 003.968-.845A2.687 2.687 0 00248.555 0h2.42v17.16zm10.49 52a3.953 3.953 0 002.758-1.691 27.9 27.9 0 001.95-3.25l24.883-50.569q.939-1.689 1.68-3.12a5.585 5.585 0 00.74-2.471 1.9 1.9 0 00-.941-1.819 8.2 8.2 0 00-2.018-.781V3.12h22.731v2.339a11.346 11.346 0 00-1.883.715 1.881 1.881 0 00-.941 1.885 4.981 4.981 0 00.47 2.08q.47 1.042 1.413 2.731l27.976 52.91a4.475 4.475 0 001.816 2.08 27.8 27.8 0 002.623 1.3v2.34h-23.673v-2.34a3.254 3.254 0 001.345-.391 1.247 1.247 0 00.807-1.17 7.917 7.917 0 00-1.076-3.38l-5.11-9.62h-32.82l-4.842 9.231a10.644 10.644 0 00-1.344 3.9q0 1.431 2.555 1.43v2.34h-19.1zm50.707-24.18l-11.3-24.181L285.81 44.98zm75.588 24.18a3.135 3.135 0 001.883-.585 2.027 2.027 0 00.807-1.755V7.54a1.7 1.7 0 00-.807-1.625 3.775 3.775 0 00-1.883-.456V3.12h25.152v2.339a3.017 3.017 0 00-1.412.39 1.253 1.253 0 00-.74 1.17 3.914 3.914 0 00.538 1.69q.536 1.042 1.211 2.21l19.233 33.8 19.368-33.41q.94-1.687 1.412-2.665a4.1 4.1 0 00.471-1.755q0-1.428-1.748-1.43V3.12h24.884v2.339a3.766 3.766 0 00-1.883.456 1.7 1.7 0 00-.808 1.625v59.28a2.03 2.03 0 00.808 1.755 3.128 3.128 0 001.883.585v2.34h-21.117v-2.34q3.633 0 3.631-2.34V23.66h-.268L428.922 71.5h-.4l-26.5-47.97h-.268v43.29q0 2.339 3.765 2.34v2.34h-20.175zm98.993 0a3.951 3.951 0 002.757-1.691 27.463 27.463 0 001.95-3.25l24.883-50.569q.939-1.689 1.681-3.12a5.585 5.585 0 00.74-2.471 1.9 1.9 0 00-.942-1.819 8.194 8.194 0 00-2.017-.781V3.12h22.731v2.339a11.352 11.352 0 00-1.884.715 1.883 1.883 0 00-.941 1.885 4.981 4.981 0 00.471 2.08q.469 1.042 1.412 2.731l27.976 52.91a4.477 4.477 0 001.817 2.08 27.887 27.887 0 002.622 1.3v2.34h-23.672v-2.34a3.259 3.259 0 001.345-.391 1.248 1.248 0 00.807-1.17 7.916 7.916 0 00-1.076-3.38l-5.111-9.62h-32.819l-4.841 9.231a10.642 10.642 0 00-1.346 3.9q0 1.431 2.555 1.43v2.34h-19.1zm50.707-24.18l-11.3-24.181-12.643 24.181zm42.369 26.525v-2.34q4.974 0 4.977-2.34V7.804q0-2.339-4.977-2.34V3.125h47.345q12.912 0 20.309 4.615t7.4 15.665q0 11.051-7.4 15.665t-20.309 4.614h-27.035v23.141q0 2.339 4.3 2.34v2.34zm48.959-39.781a15.921 15.921 0 007.6-1.689q3.157-1.689 3.16-6.63t-3.16-6.631a15.944 15.944 0 00-7.6-1.689h-28.649v16.639z" opacity=".1" fill="#fed438"/><path fill="none" d="M0 0h653v74H0z"/></svg>