<svg xmlns="http://www.w3.org/2000/svg" width="347" height="33"><path fill="none" d="M0 0h347v33H0z"/><path d="M9.621 2.34q-.932 0-.932 1.14a3.327 3.327 0 00.094.719 10.976 10.976 0 00.465 1.381l6.642 16.68h.125l6.58-16.92a9.058 9.058 0 00.4-1.17 3.019 3.019 0 00.094-.69c0-.759-.27-1.14-.807-1.14V1.26h10.615v1.08a.671.671 0 00-.621.3 1.235 1.235 0 00-.185.66 6.206 6.206 0 00.621 2.04l6.64 16.92h.125l6.7-17.28a3.8 3.8 0 00.434-1.621 1 1 0 00-.311-.689.99.99 0 00-.744-.33V1.26h9.188v1.08a1.1 1.1 0 00-1.026.72 34.26 34.26 0 00-.775 1.8l-8.94 22.92-.65 1.681a3.442 3.442 0 00-.279 1.2 1.064 1.064 0 00.308.75 1.135 1.135 0 00.87.33v1.08h-9.807v-1.08a3.807 3.807 0 00.775-.36.737.737 0 00.4-.66 3.231 3.231 0 00-.217-1.08q-.218-.6-.713-1.68l-7.139-17.7h-.125l-6.765 17.34a11.9 11.9 0 00-.932 2.94 1.107 1.107 0 00.807 1.2v1.08h-9.621v-1.08a1.694 1.694 0 00.744-.18.62.62 0 00.373-.6 2.753 2.753 0 00-.219-1.021q-.218-.538-.465-1.139L1.417 4.02a6.36 6.36 0 00-.53-1.109 1.279 1.279 0 00-.9-.57v-1.08h9.621zM77.715.9a25.715 25.715 0 016.952.99 21.971 21.971 0 016.457 2.969 16.305 16.305 0 014.779 5.01 14.732 14.732 0 010 14.341 16.27 16.27 0 01-4.779 5.01 20.336 20.336 0 01-6.457 2.88 27.308 27.308 0 01-13.905 0 20.336 20.336 0 01-6.457-2.88 16.3 16.3 0 01-4.779-5.01 14.732 14.732 0 010-14.341 16.334 16.334 0 014.779-5.01 21.971 21.971 0 016.457-2.969A25.73 25.73 0 0177.715.9zm0 5.52a16.075 16.075 0 00-4.718.72 14.571 14.571 0 00-4.252 2.07 10.858 10.858 0 00-3.072 3.33 9.169 9.169 0 000 9 10.866 10.866 0 003.072 3.329 14.571 14.571 0 004.252 2.07 15.788 15.788 0 009.435 0 14.571 14.571 0 004.252-2.07 10.9 10.9 0 003.074-3.329 9.169 9.169 0 000-9 10.889 10.889 0 00-3.074-3.33 14.571 14.571 0 00-4.252-2.07 16.073 16.073 0 00-4.717-.72zm46-5.16a26.431 26.431 0 015.4.509 12.439 12.439 0 014.158 1.621 7.563 7.563 0 012.67 2.879 9.258 9.258 0 01.932 4.35 7.587 7.587 0 01-2.422 6.061 13.245 13.245 0 01-6.518 2.82l8.256 11.4a1.669 1.669 0 001.025.719 5.324 5.324 0 001.086.121v1.08h-11.609v-1.08a2.352 2.352 0 00.963-.18c.267-.121.4-.28.4-.48a1.33 1.33 0 00-.248-.69c-.166-.259-.414-.61-.744-1.05l-6.828-9.36h-8.877v10.68a.909.909 0 00.4.81 2.807 2.807 0 001.459.27v1.08h-10.74v-1.08q1.8 0 1.8-1.08V3.42q0-1.082-1.8-1.08V1.26zM122.1 15.3a17.669 17.669 0 003.725-.33 6.735 6.735 0 002.359-.93 3.512 3.512 0 001.242-1.41 4.4 4.4 0 000-3.54 3.518 3.518 0 00-1.242-1.41 6.735 6.735 0 00-2.359-.93 17.606 17.606 0 00-3.725-.33h-10.738v8.88zm30.115 15.36a.936.936 0 00.371.81 1.435 1.435 0 00.869.27v1.08h-9.684v-1.08q1.365 0 1.366-1.08V3.42q0-1.082-1.366-1.08V1.26h9.684v1.08a1.443 1.443 0 00-.869.269.938.938 0 00-.371.811v11.4l12.849-9.78q.867-.72 1.366-1.171t.5-.75a.658.658 0 00-.28-.6 1.175 1.175 0 00-.65-.179V1.26h13.035v1.08a3.562 3.562 0 00-2.234.9l-14.278 10.98 13.036 14.58a15.674 15.674 0 001.894 1.77 6.163 6.163 0 002.141 1.17v1.08h-11.485v-1.08c.537 0 .807-.14.807-.42q0-.3-.869-1.32l-10.615-11.82-5.213 3.9zm35.568-7.74l.621.3a1.846 1.846 0 00.248.96 4.367 4.367 0 001.707 1.41 17.572 17.572 0 002.918 1.23 25.71 25.71 0 003.445.869 17.981 17.981 0 003.227.33c.7 0 1.615-.048 2.732-.15a16.662 16.662 0 003.289-.629 9.393 9.393 0 002.795-1.32 2.6 2.6 0 001.18-2.221 2.22 2.22 0 00-1.088-2.039 8.173 8.173 0 00-2.855-.961 31.965 31.965 0 00-4.035-.389q-2.265-.09-4.625-.27a42.819 42.819 0 01-4.623-.6 13.039 13.039 0 01-4.036-1.41 7.9 7.9 0 01-2.855-2.7 8.222 8.222 0 01-1.088-4.471 8.125 8.125 0 01.9-3.66 8.986 8.986 0 012.764-3.18 15.453 15.453 0 014.717-2.25A23.148 23.148 0 01199.826.9a29.7 29.7 0 015.711.48q2.42.482 4.189 1.02t2.981 1.02a5.712 5.712 0 002.017.48 1.765 1.765 0 001.243-.36l.744.479-4.283 7.5-.622-.24a3.261 3.261 0 00-.5-1.379 5.282 5.282 0 00-1.644-1.41 14.558 14.558 0 00-2.7-1.23 22.7 22.7 0 00-3.352-.87 19.537 19.537 0 00-6.426-.121 13.819 13.819 0 00-2.638.631 5.862 5.862 0 00-1.955 1.11 2.2 2.2 0 00-.776 1.71 2.416 2.416 0 001.086 2.16 8.083 8.083 0 002.856 1.08 27.7 27.7 0 004.035.479q2.263.122 4.625.3a39.011 39.011 0 014.625.629 13.706 13.706 0 014.035 1.441 7.416 7.416 0 013.941 7.049 7.541 7.541 0 01-1.707 5.1 12.017 12.017 0 01-4.252 3.12 19.647 19.647 0 01-5.494 1.529 42.089 42.089 0 01-5.494.391 37.689 37.689 0 01-5.928-.391 22.734 22.734 0 01-3.974-.959q-1.583-.572-2.514-1.02a3.828 3.828 0 00-1.613-.45 1.036 1.036 0 00-.807.48l-.869-.48zm64.684-19.5c0-.721-.457-1.08-1.366-1.08V1.26h9.559v1.08a1.218 1.218 0 00-.775.269.969.969 0 00-.342.811v27.24a.967.967 0 00.342.81 1.212 1.212 0 00.775.27v1.08h-9.559v-1.08c.909 0 1.366-.36 1.366-1.08V19.38h-19.991v11.28a.976.976 0 00.342.81 1.215 1.215 0 00.777.27v1.08h-9.38v-1.08q1.179 0 1.18-1.08V3.42q0-1.082-1.18-1.08V1.26h9.375v1.08a1.221 1.221 0 00-.777.269.978.978 0 00-.342.811v10.2h19.991zM286.424.9a25.741 25.741 0 016.953.99 21.951 21.951 0 016.455 2.969 16.336 16.336 0 014.781 5.01 14.745 14.745 0 010 14.341 16.3 16.3 0 01-4.781 5.01 20.318 20.318 0 01-6.455 2.88 27.315 27.315 0 01-13.907 0 20.345 20.345 0 01-6.455-2.88 16.3 16.3 0 01-4.781-5.01 14.742 14.742 0 010-14.341 16.334 16.334 0 014.781-5.01 21.983 21.983 0 016.455-2.969 25.74 25.74 0 016.954-.99zm0 5.52a16.079 16.079 0 00-4.717.72 14.609 14.609 0 00-4.254 2.07 10.876 10.876 0 00-3.072 3.33 9.169 9.169 0 000 9 10.884 10.884 0 003.072 3.329 14.609 14.609 0 004.254 2.07 15.79 15.79 0 009.435 0 14.586 14.586 0 004.252-2.07 10.925 10.925 0 003.073-3.329 9.179 9.179 0 000-9 10.917 10.917 0 00-3.073-3.33 14.586 14.586 0 00-4.252-2.07 16.1 16.1 0 00-4.718-.72zm25.761 26.4v-1.08q2.3 0 2.3-1.08V3.42q0-1.082-2.3-1.08V1.26h21.852q5.96 0 9.375 2.13t3.414 7.229q0 5.1-3.414 7.231t-9.375 2.13H321.56v10.68c0 .72.66 1.08 1.987 1.08v1.08zm22.6-18.36a7.341 7.341 0 003.506-.78 3.939 3.939 0 000-6.12 7.353 7.353 0 00-3.506-.781h-13.223v7.681z" fill="#292929"/></svg>