<svg xmlns="http://www.w3.org/2000/svg" width="251" height="35"><path fill="none" d="M0 0h251v35H0z"/><path d="M31.162 7.92a1.091 1.091 0 00-.527-.99 3.673 3.673 0 00-1.83-.33H8.692v7.44h12.166a6.04 6.04 0 001.926-.24 1.016 1.016 0 00.681-1.079h1.117v8.639h-1.117q0-1.378-.681-1.77a3.927 3.927 0 00-1.926-.39H8.692v11.64a.868.868 0 00.527.811 2.933 2.933 0 001.334.269V33H-.002v-1.08q1.616 0 1.614-1.08V3.6q0-1.08-1.614-1.08V1.44h28.805a3.18 3.18 0 001.83-.39A1.235 1.235 0 0031.16 0h1.12v7.92zm37.682 26.221q0-.9-.59-1.021a7.787 7.787 0 00-1.521-.12H37.184v-1.08q1.863 0 1.861-1.08V3.6q0-1.08-1.861-1.08V1.44h10.678v1.08q-1.74 0-1.739 1.08v23.881h20.61a2.569 2.569 0 001.521-.42 1.329 1.329 0 00.59-1.141h1.117v8.221zM93.426 1.08a25.673 25.673 0 016.951.991 21.937 21.937 0 016.457 2.969 16.288 16.288 0 014.78 5.01 14.732 14.732 0 010 14.341 16.3 16.3 0 01-4.78 5.01 20.281 20.281 0 01-6.457 2.878 27.267 27.267 0 01-13.9 0 20.3 20.3 0 01-6.457-2.878 16.317 16.317 0 01-4.779-5.01 14.722 14.722 0 010-14.341 16.306 16.306 0 014.779-5.01 21.954 21.954 0 016.457-2.969 25.693 25.693 0 016.949-.991zm0 5.52a16.061 16.061 0 00-4.719.721 14.568 14.568 0 00-4.252 2.07 10.863 10.863 0 00-3.072 3.33 9.169 9.169 0 000 9 10.869 10.869 0 003.072 3.329 14.6 14.6 0 004.252 2.07 15.819 15.819 0 009.436 0 14.586 14.586 0 004.252-2.07 10.889 10.889 0 003.074-3.329 9.173 9.173 0 000-9 10.883 10.883 0 00-3.074-3.33 14.556 14.556 0 00-4.252-2.07 16.05 16.05 0 00-4.717-.721zm32.592-4.08q-.932 0-.932 1.14a3.512 3.512 0 00.092.72 11.248 11.248 0 00.467 1.38l6.642 16.68h.124l6.58-16.92a9.531 9.531 0 00.4-1.17 3.012 3.012 0 00.094-.69q0-1.139-.809-1.14V1.44h10.622v1.08a.668.668 0 00-.619.3 1.218 1.218 0 00-.187.66 6.2 6.2 0 00.621 2.039l6.642 16.92h.125l6.7-17.28a3.8 3.8 0 00.436-1.62 1 1 0 00-.311-.69.994.994 0 00-.746-.33v-1.08h9.188v1.08a1.093 1.093 0 00-1.024.72q-.342.721-.775 1.8l-8.939 22.92-.653 1.681a3.486 3.486 0 00-.279 1.2 1.063 1.063 0 00.31.75 1.133 1.133 0 00.87.33V33h-9.809v-1.08a3.827 3.827 0 00.775-.359.738.738 0 00.405-.66 3.227 3.227 0 00-.217-1.08c-.147-.4-.383-.961-.715-1.68l-7.139-17.7h-.123l-6.767 17.339a11.906 11.906 0 00-.932 2.942 1.107 1.107 0 00.807 1.2v1.08h-9.621v-1.08a1.691 1.691 0 00.744-.18.615.615 0 00.373-.6 2.741 2.741 0 00-.217-1.021q-.219-.54-.467-1.139l-9.931-24.781a6.457 6.457 0 00-.528-1.11 1.283 1.283 0 00-.9-.57v-1.08h9.623zm81.195 5.4a1.094 1.094 0 00-.527-.99 3.675 3.675 0 00-1.83-.33h-20.113v7.44h12.166a4.526 4.526 0 001.925-.33c.453-.22.682-.79.682-1.71h1.117v9.36h-1.117c0-.919-.229-1.509-.682-1.77a3.921 3.921 0 00-1.925-.39h-12.166v8.281h20.732a2.566 2.566 0 001.521-.42 1.328 1.328 0 00.59-1.141h1.117v8.221h-1.117q0-.9-.59-1.021a7.777 7.777 0 00-1.521-.12h-28.928v-1.08a1.223 1.223 0 00.776-.269.971.971 0 00.341-.811V3.6a.969.969 0 00-.341-.81 1.219 1.219 0 00-.776-.27V1.44h28.309a3.182 3.182 0 001.83-.39 1.238 1.238 0 00.527-1.05h1.117v7.92zm28.494-6.48a26.424 26.424 0 015.4.51 12.418 12.418 0 014.158 1.621 7.552 7.552 0 012.67 2.879 9.256 9.256 0 01.932 4.35 7.585 7.585 0 01-2.422 6.06 13.23 13.23 0 01-6.518 2.82l8.256 11.4a1.671 1.671 0 001.025.72 5.393 5.393 0 001.086.12V33h-11.609v-1.08a2.352 2.352 0 00.963-.18c.267-.12.4-.279.4-.48a1.324 1.324 0 00-.248-.689q-.249-.39-.744-1.051l-6.828-9.36h-8.877v10.68a.911.911 0 00.4.811 2.82 2.82 0 001.459.269V33h-10.74v-1.08q1.8 0 1.8-1.08V3.6q0-1.08-1.8-1.08V1.44zm-1.615 14.041a17.679 17.679 0 003.725-.33 6.732 6.732 0 002.359-.93 3.524 3.524 0 001.242-1.41 4.409 4.409 0 000-3.541 3.524 3.524 0 00-1.242-1.41 6.75 6.75 0 00-2.359-.93 17.661 17.661 0 00-3.725-.33h-10.738v8.881z" fill="#292929"/></svg>