<svg xmlns="http://www.w3.org/2000/svg" width="252" height="82"><path fill="none" d="M0 0h252v82H0z"/><path d="M4.888 30.84a1.442 1.442 0 00.869-.27.935.935 0 00.372-.81V2.4a.787.787 0 00-.372-.75 1.741 1.741 0 00-.869-.21V.36h11.608v1.08a1.393 1.393 0 00-.651.18.578.578 0 00-.342.54 1.814 1.814 0 00.248.78q.248.48.559 1.02l8.878 15.6 8.938-15.42c.289-.519.507-.93.653-1.23a1.9 1.9 0 00.216-.81q0-.66-.806-.66V.36h11.484v1.08a1.738 1.738 0 00-.869.21.788.788 0 00-.372.75v27.36a.936.936 0 00.372.81 1.44 1.44 0 00.869.27v1.08h-9.746v-1.08q1.675 0 1.676-1.08V9.84h-.124L25.001 31.92h-.186L12.585 9.78h-.124v19.98q0 1.08 1.739 1.08v1.08H4.888zm49.537 0q1.614 0 1.614-1.08V2.52q0-1.08-1.614-1.08V.36h10.3v1.08q-1.614 0-1.613 1.08v27.24q0 1.08 1.613 1.08v1.08h-10.3zm19.12 0a1.442 1.442 0 00.869-.27.936.936 0 00.372-.81V2.4a.788.788 0 00-.372-.75 1.741 1.741 0 00-.869-.21V.36h11.609v1.08a1.4 1.4 0 00-.652.18.577.577 0 00-.341.54 1.814 1.814 0 00.248.78q.248.48.558 1.02l8.878 15.6 8.939-15.42c.289-.519.506-.93.652-1.23a1.905 1.905 0 00.217-.81c0-.44-.27-.66-.807-.66V.36h11.484v1.08a1.738 1.738 0 00-.869.21.788.788 0 00-.372.75v27.36a.937.937 0 00.372.81 1.44 1.44 0 00.869.27v1.08h-9.746v-1.08q1.677 0 1.676-1.08V9.84h-.124L93.659 31.92h-.186L81.244 9.78h-.124v19.98q0 1.08 1.738 1.08v1.08h-9.312zM140.837 0a25.722 25.722 0 016.952.99 21.914 21.914 0 016.456 2.97 16.3 16.3 0 014.781 5.009 14.739 14.739 0 010 14.341 16.286 16.286 0 01-4.781 5.01 20.306 20.306 0 01-6.456 2.88 27.3 27.3 0 01-13.9 0 20.325 20.325 0 01-6.456-2.88 16.3 16.3 0 01-4.78-5.01 14.739 14.739 0 010-14.341 16.318 16.318 0 014.78-5.009 21.937 21.937 0 016.456-2.97 25.739 25.739 0 016.948-.99zm0 5.52a16.09 16.09 0 00-4.718.72 14.574 14.574 0 00-4.252 2.07 10.879 10.879 0 00-3.073 3.33 9.179 9.179 0 000 9 10.863 10.863 0 003.073 3.329 14.576 14.576 0 004.252 2.071 15.819 15.819 0 009.436 0 14.606 14.606 0 004.252-2.071 10.887 10.887 0 003.073-3.329 9.173 9.173 0 000-9 10.9 10.9 0 00-3.073-3.33 14.6 14.6 0 00-4.252-2.07 16.09 16.09 0 00-4.718-.72zm30.046 16.5l.621.3a1.846 1.846 0 00.248.96 4.386 4.386 0 001.707 1.41 17.706 17.706 0 002.918 1.23 26.051 26.051 0 003.446.87 18.072 18.072 0 003.227.33q1.054 0 2.732-.151a16.547 16.547 0 003.29-.629 9.392 9.392 0 002.794-1.32 2.6 2.6 0 001.179-2.22 2.222 2.222 0 00-1.087-2.04 8.135 8.135 0 00-2.855-.96 31.77 31.77 0 00-4.035-.39q-2.267-.09-4.625-.27a43.362 43.362 0 01-4.624-.6 13.06 13.06 0 01-4.035-1.41 7.9 7.9 0 01-2.856-2.7 8.209 8.209 0 01-1.087-4.469 8.091 8.091 0 01.9-3.66 8.963 8.963 0 012.762-3.18 15.423 15.423 0 014.718-2.25 23.123 23.123 0 016.7-.87 29.708 29.708 0 015.711.48q2.421.482 4.19 1.02t2.98 1.02a5.7 5.7 0 002.018.48 1.755 1.755 0 001.242-.36l.744.48-4.283 7.5-.62-.24a3.257 3.257 0 00-.5-1.38 5.285 5.285 0 00-1.645-1.41 14.553 14.553 0 00-2.7-1.23 22.7 22.7 0 00-3.352-.87 19.487 19.487 0 00-6.426-.12 13.644 13.644 0 00-2.637.63 5.853 5.853 0 00-1.956 1.11 2.194 2.194 0 00-.776 1.71 2.419 2.419 0 001.086 2.16 8.082 8.082 0 002.856 1.08 27.6 27.6 0 004.035.48q2.267.122 4.625.3a39.135 39.135 0 014.625.629 13.7 13.7 0 014.035 1.441 7.412 7.412 0 013.941 7.05 7.532 7.532 0 01-1.707 5.1 11.964 11.964 0 01-4.252 3.119 19.647 19.647 0 01-5.494 1.531 42.228 42.228 0 01-5.494.39 37.831 37.831 0 01-5.928-.39 22.687 22.687 0 01-3.973-.96 27 27 0 01-2.514-1.02 3.817 3.817 0 00-1.614-.45 1.036 1.036 0 00-.807.48l-.869-.48zm33.09 8.82a1.825 1.825 0 001.273-.78 12.83 12.83 0 00.9-1.5L217.63 5.219c.289-.518.548-1 .776-1.439a2.581 2.581 0 00.342-1.14.88.88 0 00-.435-.84 3.744 3.744 0 00-.931-.36V.36h10.491v1.08a5.182 5.182 0 00-.869.33.868.868 0 00-.434.87 2.291 2.291 0 00.217.96q.216.481.651 1.26l12.913 24.42a2.061 2.061 0 00.838.96 13.07 13.07 0 001.21.6v1.08h-10.926v-1.08a1.5 1.5 0 00.621-.18.576.576 0 00.372-.54 3.641 3.641 0 00-.5-1.56l-2.359-4.44H214.46l-2.235 4.26a4.907 4.907 0 00-.62 1.8c0 .442.392.661 1.18.661v1.08h-8.812zm23.4-11.161L222.159 8.52l-5.835 11.159zM0 78.841a1.442 1.442 0 00.869-.27.936.936 0 00.373-.811V50.401a.786.786 0 00-.373-.75A1.728 1.728 0 000 49.44v-1.079h11.609v1.079a1.4 1.4 0 00-.652.181.577.577 0 00-.341.54 1.807 1.807 0 00.248.779c.165.321.351.66.558 1.021l8.878 15.6 8.939-15.42q.434-.778.652-1.229a1.892 1.892 0 00.217-.811c0-.439-.27-.66-.807-.66v-1.079h11.485v1.079a1.727 1.727 0 00-.87.211.787.787 0 00-.372.75v27.359a.938.938 0 00.372.811 1.44 1.44 0 00.87.27v1.08h-9.747v-1.08q1.677 0 1.676-1.081V57.842h-.124l-12.477 22.08h-.187L7.698 57.782h-.124v19.979q0 1.08 1.738 1.081v1.08H0zm45.689 0a1.821 1.821 0 001.272-.781 12.618 12.618 0 00.9-1.5l11.484-23.34q.434-.779.775-1.439a2.567 2.567 0 00.342-1.141.877.877 0 00-.434-.839 3.8 3.8 0 00-.931-.361v-1.079h10.49v1.079a5.292 5.292 0 00-.868.33.869.869 0 00-.434.87 2.3 2.3 0 00.216.96q.218.483.652 1.261l12.913 24.42a2.058 2.058 0 00.838.96 12.888 12.888 0 001.21.6v1.08H73.188v-1.08a1.506 1.506 0 00.621-.18.577.577 0 00.372-.54 3.65 3.65 0 00-.5-1.561l-2.359-4.439H56.175l-2.235 4.26a4.907 4.907 0 00-.62 1.8q0 .662 1.179.661v1.08h-8.815zm23.4-11.161l-5.215-11.16-5.835 11.16zm41.036-19.319a26.278 26.278 0 015.4.51 12.415 12.415 0 014.159 1.62 7.533 7.533 0 012.669 2.88 9.253 9.253 0 01.932 4.349 7.589 7.589 0 01-2.421 6.061 13.235 13.235 0 01-6.519 2.819l8.257 11.4a1.669 1.669 0 001.024.719 5.33 5.33 0 001.086.121v1.08h-11.608v-1.08a2.357 2.357 0 00.962-.18c.268-.12.4-.279.4-.481a1.339 1.339 0 00-.248-.689c-.166-.26-.414-.609-.745-1.051l-6.828-9.359h-8.872v10.679a.911.911 0 00.4.811 2.8 2.8 0 001.459.27v1.08h-10.74v-1.08q1.8 0 1.8-1.081v-27.24q0-1.078-1.8-1.08V48.36zm-1.614 14.04a17.625 17.625 0 003.725-.33 6.7 6.7 0 002.358-.931 3.5 3.5 0 001.242-1.41 4.4 4.4 0 000-3.54 3.509 3.509 0 00-1.242-1.409 6.757 6.757 0 00-2.358-.931 17.755 17.755 0 00-3.725-.33H97.773v8.881zM166.673 75.6a1.741 1.741 0 01-.342-.029 1.785 1.785 0 00-.341-.03 5.884 5.884 0 00-1.769.719q-1.4.721-3.538 1.621a32.067 32.067 0 01-4.873 1.559 24.138 24.138 0 01-5.712.66 28.975 28.975 0 01-7.511-.96 18.979 18.979 0 01-6.363-2.969 14.782 14.782 0 01-4.377-5.01 16.019 16.019 0 010-14.01 14.991 14.991 0 014.377-5.07 19.593 19.593 0 016.363-3.061 27.455 27.455 0 017.511-1.019 31.578 31.578 0 015.742.479q2.575.483 4.5 1.021a25.714 25.714 0 013.042 1.019 5.582 5.582 0 001.365.481.641.641 0 00.529-.3c.144-.2.257-.36.34-.481l.932.72-4.843 7.261-.62-.42a2.19 2.19 0 00-.031-.36q-.033-.18-.093-.42-.126-.66-1.242-1.35a12.991 12.991 0 00-2.762-1.23 29.129 29.129 0 00-3.476-.9 17.724 17.724 0 00-3.384-.359 17.231 17.231 0 00-5 .72 12.594 12.594 0 00-4.159 2.1 10.362 10.362 0 00-2.825 3.391 10.511 10.511 0 000 9.18 10.332 10.332 0 002.825 3.389 12.575 12.575 0 004.159 2.1 17.264 17.264 0 005 .719 20.447 20.447 0 004.159-.45 25.684 25.684 0 003.974-1.139 13.323 13.323 0 003.01-1.56q1.211-.87 1.21-1.65a1.1 1.1 0 00-.248-.72l.87-.481 4.1 6.361zm36.071-25.08c0-.719-.457-1.08-1.366-1.08v-1.079h9.56v1.079a1.217 1.217 0 00-.776.271.967.967 0 00-.341.809v27.24a.97.97 0 00.341.811 1.216 1.216 0 00.776.27v1.08h-9.56v-1.08c.909 0 1.366-.361 1.366-1.081V66.48h-19.99v11.28a.974.974 0 00.342.811 1.216 1.216 0 00.776.27v1.08h-9.374v-1.08q1.179 0 1.18-1.081V50.52q0-1.078-1.18-1.08v-1.079h9.374v1.079a1.217 1.217 0 00-.776.271.97.97 0 00-.342.809v10.2h19.99zm47.054 4.321a1.1 1.1 0 00-.527-.991 3.7 3.7 0 00-1.831-.33h-20.113v7.441h12.167a4.525 4.525 0 001.924-.33q.681-.33.683-1.71h1.117v9.36h-1.117q0-1.38-.683-1.771a3.929 3.929 0 00-1.924-.389h-12.167v8.28h20.733a2.561 2.561 0 001.521-.421 1.325 1.325 0 00.59-1.139h1.117v8.219h-1.115c0-.6-.2-.94-.59-1.019a7.784 7.784 0 00-1.521-.12h-28.928v-1.08a1.22 1.22 0 00.776-.27.973.973 0 00.341-.811V50.52a.969.969 0 00-.341-.809 1.221 1.221 0 00-.776-.271v-1.079h28.308a3.187 3.187 0 001.831-.391 1.24 1.24 0 00.527-1.049h1.117v7.92z" fill="#fff"/></svg>