<svg xmlns="http://www.w3.org/2000/svg" width="188" height="63"><path fill="none" d="M0 0h188v63H0z"/><path d="M22.781 5.883a.813.813 0 00-.392-.736 2.731 2.731 0 00-1.359-.245H6.089v5.528h9.038a3.381 3.381 0 001.431-.245q.505-.245.506-1.27h.83v6.952h-.83q0-1.024-.506-1.315a2.925 2.925 0 00-1.431-.289H6.089v6.15h15.4a1.905 1.905 0 001.13-.312.987.987 0 00.438-.847h.83v6.106h-.83c0-.445-.147-.7-.438-.757a5.826 5.826 0 00-1.13-.089H-.001v-.8a.9.9 0 00.576-.2.719.719 0 00.254-.6V2.679a.718.718 0 00-.254-.6.9.9 0 00-.576-.2v-.8h21.03a2.362 2.362 0 001.359-.29.918.918 0 00.392-.779h.83v5.883zm19.321 17.026q0 .8 1.016.8v.8h-7.1v-.8a.9.9 0 00.576-.2.716.716 0 00.254-.6V5.17h-7.612a1.611 1.611 0 00-.807.222.885.885 0 00-.393.847h-.831V0h.831a.883.883 0 00.393.846 1.6 1.6 0 00.807.223h20.475a1.6 1.6 0 00.807-.223.886.886 0 00.393-.846h.83v6.239h-.83a.888.888 0 00-.393-.847 1.614 1.614 0 00-.807-.222h-7.61zM76.643 2.674q0-.8-1.015-.8v-.8h7.1v.8a.9.9 0 00-.576.2.716.716 0 00-.254.6v20.235a.718.718 0 00.254.6.9.9 0 00.576.2v.8h-7.1v-.8q1.014 0 1.015-.8V14.53H61.794v8.379a.718.718 0 00.254.6.9.9 0 00.576.2v.8h-6.963v-.8c.583 0 .876-.267.876-.8V2.674c0-.535-.293-.8-.876-.8v-.8h6.963v.8a.9.9 0 00-.576.2.716.716 0 00-.254.6v7.577h14.849zm12.035 21.037q1.2 0 1.2-.8V2.676q0-.8-1.2-.8v-.8h7.655v.8q-1.2 0-1.2.8v20.235q0 .8 1.2.8v.8h-7.655zm38.783-2.407a1.365 1.365 0 01-.254-.022 1.333 1.333 0 00-.252-.022 4.33 4.33 0 00-1.315.534q-1.037.535-2.629 1.2a23.748 23.748 0 01-3.619 1.158 17.974 17.974 0 01-4.243.49 21.531 21.531 0 01-5.579-.713 14.132 14.132 0 01-4.729-2.206 10.994 10.994 0 01-3.251-3.722 11.9 11.9 0 010-10.408 11.152 11.152 0 013.251-3.766 14.581 14.581 0 014.729-2.274 20.365 20.365 0 015.579-.757 23.455 23.455 0 014.266.356q1.913.358 3.343.759a18.951 18.951 0 012.261.757 4.22 4.22 0 001.015.357.471.471 0 00.392-.223c.107-.148.191-.268.254-.357l.691.535-3.6 5.393-.46-.312a1.646 1.646 0 00-.023-.267 4.571 4.571 0 00-.069-.312q-.094-.491-.923-1a9.671 9.671 0 00-2.051-.913 21.639 21.639 0 00-2.583-.669 13.1 13.1 0 00-2.514-.267 12.781 12.781 0 00-3.713.535 9.34 9.34 0 00-3.089 1.559 7.7 7.7 0 00-2.1 2.519 7.795 7.795 0 000 6.819 7.679 7.679 0 002.1 2.519 9.357 9.357 0 003.089 1.561 12.839 12.839 0 003.713.534 15.241 15.241 0 003.09-.334 19.074 19.074 0 002.952-.846 9.857 9.857 0 002.235-1.16q.9-.645.9-1.225a.82.82 0 00-.184-.536l.646-.357 3.043 4.725zm3.322 2.407a1.357 1.357 0 00.946-.579 9.807 9.807 0 00.669-1.114l8.53-17.338c.216-.386.406-.742.576-1.07a1.927 1.927 0 00.255-.847.655.655 0 00-.324-.624 2.811 2.811 0 00-.691-.268v-.8h7.794v.8a3.929 3.929 0 00-.646.245.645.645 0 00-.322.646 1.683 1.683 0 00.161.713c.106.239.268.55.482.936l9.594 18.141a1.514 1.514 0 00.622.713 9.4 9.4 0 00.9.446v.8h-8.117v-.8a1.123 1.123 0 00.462-.133.43.43 0 00.277-.4 2.725 2.725 0 00-.369-1.16l-1.752-3.3h-11.252l-1.661 3.165a3.639 3.639 0 00-.46 1.336c0 .328.292.49.877.49v.8h-6.55zm17.387-8.29l-3.874-8.291-4.336 8.291zm38.409 9.94c0-.445-.147-.7-.438-.757a5.841 5.841 0 00-1.129-.089H163.06v-.8q1.385 0 1.385-.8V2.68q0-.8-1.385-.8v-.8h7.932v.8q-1.291 0-1.291.8v17.74h15.309a1.9 1.9 0 001.129-.312.987.987 0 00.438-.847h.83v6.106zM32.434 39.069a24.621 24.621 0 014.1.334 12.94 12.94 0 013.5 1.07 6.771 6.771 0 012.445 1.917 4.593 4.593 0 01.923 2.918 4.008 4.008 0 01-1.338 3.232 9.594 9.594 0 01-3.182 1.76v.089a9.132 9.132 0 013.667 1.983 5 5 0 011.5 3.9 5.211 5.211 0 01-.6 2.474 5.745 5.745 0 01-1.775 1.983 8.923 8.923 0 01-2.883 1.315 14.646 14.646 0 01-3.875.468H18.002v-.8q1.291 0 1.291-.8V40.677q0-.8-1.291-.8v-.8zm.922 9.182a9.831 9.831 0 003.436-.513 2.4 2.4 0 000-4.322 9.852 9.852 0 00-3.436-.514h-8.808v5.349zm0 10.163a7.61 7.61 0 004.173-.87 2.712 2.712 0 000-4.591 7.616 7.616 0 00-4.173-.868h-8.808v6.329zM63.1 38.802a19.156 19.156 0 015.166.735 16.281 16.281 0 014.795 2.207 12.108 12.108 0 013.552 3.721 10.949 10.949 0 010 10.653 12.093 12.093 0 01-3.552 3.722 15.1 15.1 0 01-4.795 2.139 20.293 20.293 0 01-10.331 0 15.109 15.109 0 01-4.795-2.139 12.093 12.093 0 01-3.552-3.722 10.949 10.949 0 010-10.653 12.108 12.108 0 013.552-3.721 16.292 16.292 0 014.795-2.207 19.155 19.155 0 015.165-.735zm0 4.1a11.946 11.946 0 00-3.5.535 10.894 10.894 0 00-3.16 1.538 8.1 8.1 0 00-2.281 2.474 6.81 6.81 0 000 6.686 8.086 8.086 0 002.281 2.473 10.871 10.871 0 003.16 1.539 11.765 11.765 0 007.01 0 10.878 10.878 0 003.159-1.539 8.1 8.1 0 002.281-2.473 6.81 6.81 0 000-6.686 8.116 8.116 0 00-2.281-2.474 10.9 10.9 0 00-3.159-1.538 11.959 11.959 0 00-3.51-.535zm33.572-4.1a19.132 19.132 0 015.164.735 16.286 16.286 0 014.8 2.207 12.085 12.085 0 013.55 3.721 10.939 10.939 0 010 10.653 12.07 12.07 0 01-3.55 3.722 15.105 15.105 0 01-4.8 2.139 20.285 20.285 0 01-10.329 0 15.105 15.105 0 01-4.8-2.139 12.094 12.094 0 01-3.55-3.722 10.943 10.943 0 010-10.653 12.109 12.109 0 013.55-3.721 16.286 16.286 0 014.8-2.207 19.144 19.144 0 015.165-.735zm0 4.1a11.938 11.938 0 00-3.5.535 10.855 10.855 0 00-3.159 1.538 8.091 8.091 0 00-2.283 2.474 6.817 6.817 0 000 6.686 8.073 8.073 0 002.283 2.473 10.833 10.833 0 003.159 1.539 11.762 11.762 0 007.009 0 10.851 10.851 0 003.159-1.539 8.074 8.074 0 002.283-2.473 6.81 6.81 0 000-6.686 8.092 8.092 0 00-2.283-2.474 10.873 10.873 0 00-3.159-1.538 11.939 11.939 0 00-3.509-.535zm32.326 18.007q0 .8 1.016.8v.8h-7.1v-.8a.9.9 0 00.576-.2.716.716 0 00.254-.6V43.17h-7.608a1.608 1.608 0 00-.807.222.886.886 0 00-.394.847h-.83V38h.83a.884.884 0 00.394.846 1.6 1.6 0 00.807.223h20.475a1.606 1.606 0 00.807-.223.885.885 0 00.391-.846h.831v6.239h-.831a.887.887 0 00-.391-.847 1.618 1.618 0 00-.807-.222h-7.61zm34.54-20.235c0-.535-.34-.8-1.015-.8v-.8h7.1v.8a.9.9 0 00-.576.2.719.719 0 00-.254.6v20.235a.72.72 0 00.254.6.9.9 0 00.576.2v.8h-7.1v-.8c.675 0 1.015-.267 1.015-.8V52.53h-14.851v8.379a.721.721 0 00.255.6.9.9 0 00.577.2v.8h-6.965v-.8c.583 0 .877-.267.877-.8V40.674c0-.535-.294-.8-.877-.8v-.8h6.965v.8a.9.9 0 00-.577.2.719.719 0 00-.255.6v7.577h14.851z" fill="#292929"/></svg>