<svg xmlns="http://www.w3.org/2000/svg" width="302" height="35"><path fill="none" d="M0 0h302v35H0z"/><path d="M0 31.92a1.817 1.817 0 001.271-.781 12.489 12.489 0 00.9-1.5L13.658 6.297c.289-.52.549-1 .775-1.441a2.552 2.552 0 00.342-1.14.877.877 0 00-.433-.839 3.807 3.807 0 00-.932-.361v-1.08H23.9v1.08a5.294 5.294 0 00-.867.33.868.868 0 00-.435.87 2.314 2.314 0 00.216.96c.145.321.364.741.653 1.26l12.912 24.42a2.055 2.055 0 00.838.96 12.907 12.907 0 001.211.6v1.08H27.502v-1.08a1.522 1.522 0 00.621-.18.576.576 0 00.371-.54 3.642 3.642 0 00-.5-1.561l-2.359-4.439H10.488l-2.234 4.26a4.913 4.913 0 00-.621 1.8q0 .66 1.179.66v1.08H-.002zm23.4-11.16L18.185 9.599 12.351 20.76zM63.195 1.439a26.3 26.3 0 015.4.511 12.441 12.441 0 014.158 1.619 7.561 7.561 0 012.67 2.881 9.253 9.253 0 01.931 4.35 7.579 7.579 0 01-2.422 6.059 13.213 13.213 0 01-6.517 2.82l8.256 11.4a1.683 1.683 0 001.025.72 5.388 5.388 0 001.086.12v1.08H66.173v-1.08a2.368 2.368 0 00.963-.18c.267-.12.4-.28.4-.48a1.333 1.333 0 00-.248-.691q-.249-.389-.744-1.05l-6.828-9.359h-8.877v10.68a.9.9 0 00.4.809 2.791 2.791 0 001.459.271v1.08h-10.74v-1.08q1.8 0 1.8-1.08V3.597q0-1.078-1.8-1.08v-1.08zm-1.615 14.04a17.518 17.518 0 003.724-.33 6.67 6.67 0 002.36-.93 3.509 3.509 0 001.242-1.41 4.407 4.407 0 000-3.54 3.522 3.522 0 00-1.242-1.41 6.744 6.744 0 00-2.36-.93 17.666 17.666 0 00-3.724-.33H50.842v8.88zm53.137-7.559a1.093 1.093 0 00-.528-.991 3.674 3.674 0 00-1.83-.33H92.246v7.441h12.166a4.552 4.552 0 001.926-.33q.679-.33.681-1.71h1.118v9.359h-1.118q0-1.379-.681-1.769a3.927 3.927 0 00-1.926-.39H92.246v8.279h20.732a2.556 2.556 0 001.522-.42 1.329 1.329 0 00.59-1.139h1.117v8.219h-1.117c0-.6-.2-.94-.59-1.019a7.791 7.791 0 00-1.522-.12H84.051v-1.08a1.209 1.209 0 00.775-.271.967.967 0 00.342-.809V3.597a.967.967 0 00-.342-.809 1.211 1.211 0 00-.775-.271v-1.08h28.307a3.187 3.187 0 001.83-.389 1.239 1.239 0 00.528-1.05h1.117v7.92zm4.841 24a1.824 1.824 0 001.274-.781 12.883 12.883 0 00.9-1.5L133.217 6.3c.289-.52.546-1 .775-1.441a2.576 2.576 0 00.342-1.14.879.879 0 00-.436-.839 3.756 3.756 0 00-.929-.361v-1.08h10.49v1.08a5.242 5.242 0 00-.869.33.87.87 0 00-.434.87 2.27 2.27 0 00.217.96q.216.482.65 1.26l12.914 24.42a2.042 2.042 0 00.838.96 12.917 12.917 0 001.209.6v1.08h-10.926v-1.08a1.514 1.514 0 00.621-.18.578.578 0 00.374-.54 3.66 3.66 0 00-.5-1.561l-2.359-4.439h-15.146l-2.237 4.26a4.9 4.9 0 00-.619 1.8q0 .66 1.18.66v1.08h-8.814zm23.405-11.16l-5.215-11.161-5.836 11.161zm34.886 11.16a1.439 1.439 0 00.87-.271.933.933 0 00.371-.809V3.479a.788.788 0 00-.371-.75 1.757 1.757 0 00-.87-.21v-1.08h11.609v1.08a1.4 1.4 0 00-.651.181.576.576 0 00-.341.54 1.808 1.808 0 00.248.779c.164.322.351.66.558 1.021l8.877 15.6 8.94-15.42q.434-.779.652-1.229a1.9 1.9 0 00.217-.811c0-.439-.27-.66-.807-.66V1.44h11.485v1.08a1.752 1.752 0 00-.87.21.789.789 0 00-.373.75v27.361a.934.934 0 00.373.809 1.435 1.435 0 00.87.271v1.08h-9.747v-1.08q1.677 0 1.676-1.08v-19.92h-.125l-12.476 22.08h-.188L185.548 10.86h-.125v19.981q0 1.078 1.738 1.08v1.08h-9.311zm45.688 0a1.822 1.822 0 001.273-.781 12.749 12.749 0 00.9-1.5L237.194 6.3c.289-.52.547-1 .776-1.441a2.585 2.585 0 00.341-1.14.878.878 0 00-.435-.839 3.763 3.763 0 00-.93-.361v-1.08h10.49v1.08a5.242 5.242 0 00-.869.33.87.87 0 00-.433.87 2.284 2.284 0 00.216.96q.218.482.651 1.26l12.914 24.42a2.037 2.037 0 00.838.96 12.8 12.8 0 001.209.6v1.08h-10.926v-1.08a1.514 1.514 0 00.621-.18.578.578 0 00.373-.54 3.67 3.67 0 00-.5-1.561l-2.359-4.439h-15.147l-2.236 4.26a4.9 4.9 0 00-.619 1.8q0 .66 1.179.66v1.08h-8.816zm23.4-11.16l-5.215-11.161-5.836 11.161zm19.557 12.237v-1.08q2.3 0 2.3-1.08V3.597q0-1.078-2.3-1.08v-1.08h21.852q5.958 0 9.375 2.13t3.414 7.231q0 5.1-3.414 7.229t-9.375 2.131h-12.477v10.68c0 .719.66 1.08 1.986 1.08v1.08zm22.6-18.361a7.326 7.326 0 003.5-.78 3.938 3.938 0 000-6.119 7.337 7.337 0 00-3.5-.78h-13.223v7.679z" fill="#292929"/></svg>