<svg xmlns="http://www.w3.org/2000/svg" width="231" height="35"><path fill="none" d="M0 0h231v35H0z"/><path d="M0 32.94v-1.08c1.529 0 2.3-.361 2.3-1.08V3.539c0-.719-.768-1.08-2.3-1.08v-1.08h21.852q5.958 0 9.373 2.13t3.414 7.231q0 5.1-3.414 7.229T21.852 20.1H9.373v10.68q0 1.078 1.986 1.08v1.08zm22.6-18.361a7.334 7.334 0 003.507-.78 3.937 3.937 0 000-6.119A7.345 7.345 0 0022.6 6.9H9.377v7.679zM39.982 31.86q1.614 0 1.615-1.08V3.539q0-1.078-1.615-1.08v-1.08h10.3v1.08q-1.614 0-1.613 1.08V30.78q0 1.078 1.613 1.08v1.08h-10.3zm53.444-3.246a1.738 1.738 0 01-.342-.03 1.884 1.884 0 00-.34-.029 5.8 5.8 0 00-1.769.72q-1.4.719-3.539 1.62a32.053 32.053 0 01-4.874 1.559 24.188 24.188 0 01-5.71.66 29.041 29.041 0 01-7.512-.959 19 19 0 01-6.363-2.97 14.785 14.785 0 01-4.377-5.01 16.008 16.008 0 010-14.011 14.991 14.991 0 014.377-5.069 19.62 19.62 0 016.363-3.061 27.468 27.468 0 017.512-1.019 31.568 31.568 0 015.742.479q2.575.483 4.5 1.021a25.566 25.566 0 013.043 1.019 5.613 5.613 0 001.365.481.633.633 0 00.527-.3c.145-.2.258-.359.342-.479l.932.719-4.844 7.26-.619-.42a2.293 2.293 0 00-.031-.359q-.033-.18-.094-.42c-.084-.441-.5-.89-1.242-1.351a12.992 12.992 0 00-2.762-1.229 29.292 29.292 0 00-3.477-.9 17.61 17.61 0 00-3.382-.359 17.209 17.209 0 00-5 .72 12.574 12.574 0 00-4.158 2.1 10.361 10.361 0 00-2.824 3.391 10.493 10.493 0 000 9.18 10.347 10.347 0 002.824 3.389 12.6 12.6 0 004.158 2.1 17.276 17.276 0 005 .72 20.512 20.512 0 004.158-.451 25.524 25.524 0 003.974-1.139 13.286 13.286 0 003.01-1.561q1.211-.869 1.211-1.649a1.107 1.107 0 00-.248-.721l.869-.479 4.1 6.36zm16.14 2.166a.932.932 0 00.371.809 1.437 1.437 0 00.87.271v1.08h-9.684v-1.08q1.365 0 1.365-1.08V3.539q0-1.078-1.365-1.08v-1.08h9.684v1.08a1.437 1.437 0 00-.87.271.934.934 0 00-.371.809v11.4l12.85-9.78q.867-.72 1.365-1.17c.33-.3.5-.55.5-.75a.654.654 0 00-.279-.6 1.172 1.172 0 00-.65-.181v-1.08h13.03v1.08a3.565 3.565 0 00-2.235.9L119.87 14.337l13.035 14.58a15.577 15.577 0 001.9 1.771 6.145 6.145 0 002.14 1.17v1.08h-11.484v-1.08c.537 0 .807-.14.807-.42q0-.3-.869-1.321l-10.616-11.82-5.213 3.9zM163.76 2.459q-1.368 0-1.367 1.08v18q0 3.781 2.515 5.191t7.356 1.41q4.842 0 7.355-1.41t2.516-5.191v-18q0-1.078-1.864-1.08v-1.08h9.932v1.08q-1.488 0-1.488 1.08v17.7a14.117 14.117 0 01-1.057 5.849 8.584 8.584 0 01-3.166 3.691 13.1 13.1 0 01-5.244 1.86 54.84 54.84 0 01-14.465 0 13.093 13.093 0 01-5.246-1.86 8.581 8.581 0 01-3.166-3.691 14.111 14.111 0 01-1.055-5.849v-17.7q0-1.078-1.738-1.08v-1.08h10.182zm32.154 30.481v-1.08c1.529 0 2.3-.361 2.3-1.08V3.539c0-.719-.768-1.08-2.3-1.08v-1.08h21.852q5.958 0 9.373 2.13t3.414 7.231q0 5.1-3.414 7.229t-9.373 2.131h-12.479v10.68q0 1.078 1.986 1.08v1.08zm22.6-18.361a7.341 7.341 0 003.508-.78 3.937 3.937 0 000-6.119 7.352 7.352 0 00-3.508-.78h-13.223v7.679z" fill="#292929"/></svg>