<svg xmlns="http://www.w3.org/2000/svg" width="340" height="35"><path fill="none" d="M0 0h340v35H0z"/><path d="M20.051 30.84q0 1.078 1.365 1.08V33h-9.559v-1.08a1.217 1.217 0 00.776-.271.972.972 0 00.341-.809V6.96H2.73a2.176 2.176 0 00-1.086.3 1.2 1.2 0 00-.527 1.139H0v-8.4h1.117a1.193 1.193 0 00.527 1.139 2.154 2.154 0 001.086.3h27.563a2.161 2.161 0 001.088-.3 1.2 1.2 0 00.527-1.139h1.117v8.4h-1.117a1.2 1.2 0 00-.527-1.139 2.184 2.184 0 00-1.088-.3H20.051zm18.746 1.08q1.614 0 1.615-1.08V3.597q0-1.078-1.615-1.08v-1.08h10.3v1.08q-1.614 0-1.613 1.08v27.241q0 1.078 1.613 1.08v1.08h-10.3zm17.879 0a1.436 1.436 0 00.869-.271.934.934 0 00.371-.809V3.479a.789.789 0 00-.371-.75 1.754 1.754 0 00-.869-.21v-1.08h11.607v1.08a1.391 1.391 0 00-.65.181.576.576 0 00-.342.54 1.808 1.808 0 00.248.779c.164.322.351.66.558 1.021l8.877 15.6 8.94-15.42q.434-.779.652-1.229a1.9 1.9 0 00.217-.811c0-.439-.27-.66-.807-.66V1.44h11.485v1.08a1.748 1.748 0 00-.869.21.789.789 0 00-.373.75v27.361a.934.934 0 00.373.809 1.432 1.432 0 00.869.271v1.08h-9.746v-1.08q1.675 0 1.675-1.08v-19.92h-.125l-12.476 22.08h-.188L64.373 10.86h-.125v19.981q0 1.078 1.738 1.08v1.08h-9.31zm76.664-24a1.093 1.093 0 00-.528-.991 3.674 3.674 0 00-1.83-.33h-20.113v7.441h12.166a4.552 4.552 0 001.926-.33q.679-.33.681-1.71h1.118v9.359h-1.118q0-1.379-.681-1.769a3.927 3.927 0 00-1.926-.39h-12.166v8.279h20.732a2.557 2.557 0 001.522-.42 1.329 1.329 0 00.59-1.139h1.117v8.219h-1.117c0-.6-.2-.94-.59-1.019a7.8 7.8 0 00-1.522-.12h-28.927v-1.08a1.209 1.209 0 00.775-.271.964.964 0 00.342-.809V3.597a.964.964 0 00-.342-.809 1.211 1.211 0 00-.775-.271v-1.08h28.309a3.187 3.187 0 001.83-.389 1.239 1.239 0 00.528-1.05h1.117v7.92zm40.599 22.92q0 1.078 1.365 1.08V33h-9.558v-1.08a1.211 1.211 0 00.775-.271.97.97 0 00.342-.809V6.96h-10.244a2.175 2.175 0 00-1.086.3 1.194 1.194 0 00-.527 1.139h-1.123v-8.4h1.118a1.192 1.192 0 00.527 1.139 2.153 2.153 0 001.086.3h27.569a2.157 2.157 0 001.088-.3 1.2 1.2 0 00.528-1.139h1.117v8.4h-1.117a1.2 1.2 0 00-.528-1.139 2.179 2.179 0 00-1.088-.3h-10.242zm13.657 1.08a1.82 1.82 0 001.271-.781 12.488 12.488 0 00.9-1.5L201.252 6.3c.289-.52.549-1 .775-1.441a2.55 2.55 0 00.342-1.14.877.877 0 00-.434-.839 3.8 3.8 0 00-.931-.361v-1.08h10.49v1.08a5.272 5.272 0 00-.867.33.868.868 0 00-.436.87 2.3 2.3 0 00.217.96q.218.482.652 1.26l12.912 24.42a2.063 2.063 0 00.838.96 13.028 13.028 0 001.211.6v1.08h-10.925v-1.08a1.522 1.522 0 00.621-.18.576.576 0 00.371-.54 3.642 3.642 0 00-.5-1.561l-2.36-4.439h-15.145l-2.235 4.26a4.913 4.913 0 00-.621 1.8q0 .66 1.18.66v1.08h-8.814zm23.4-11.16l-5.213-11.163-5.834 11.161zm38.18-19.321a33.307 33.307 0 015.525.45 17.477 17.477 0 014.717 1.441 9.113 9.113 0 013.291 2.58 6.185 6.185 0 011.242 3.93 5.4 5.4 0 01-1.8 4.349 12.923 12.923 0 01-4.283 2.37v.12a12.309 12.309 0 014.936 2.67 6.735 6.735 0 012.017 5.25 7.011 7.011 0 01-.808 3.33 7.73 7.73 0 01-2.389 2.67 12.026 12.026 0 01-3.881 1.771 19.749 19.749 0 01-5.215.63h-22.781v-1.08q1.737 0 1.738-1.08V3.597q0-1.078-1.738-1.08v-1.08zm1.242 12.361a13.244 13.244 0 004.625-.691 3.228 3.228 0 000-5.819 13.267 13.267 0 00-4.625-.691H238.56v7.2zm0 13.679q3.911 0 5.617-1.17a3.649 3.649 0 000-6.179q-1.709-1.172-5.617-1.17H238.56v8.519zm51.523 6.66c0-.6-.2-.94-.59-1.019a7.79 7.79 0 00-1.521-.12h-29.547v-1.08q1.863 0 1.861-1.08V3.597q0-1.078-1.861-1.08v-1.08h10.678v1.08q-1.74 0-1.738 1.08v23.88h20.609a2.556 2.556 0 001.521-.42 1.327 1.327 0 00.59-1.139h1.117v8.219zM338.383 7.92a1.093 1.093 0 00-.528-.991 3.676 3.676 0 00-1.83-.33h-20.113v7.441h12.166a4.55 4.55 0 001.926-.33q.68-.33.681-1.71h1.118v9.359h-1.12q0-1.379-.681-1.769a3.925 3.925 0 00-1.926-.39H315.91v8.279h20.732a2.555 2.555 0 001.522-.42 1.329 1.329 0 00.59-1.139h1.117v8.219h-1.117c0-.6-.2-.94-.59-1.019a7.788 7.788 0 00-1.522-.12h-28.929v-1.08a1.207 1.207 0 00.775-.271.964.964 0 00.342-.809V3.597a.964.964 0 00-.342-.809 1.209 1.209 0 00-.775-.271v-1.08h28.308a3.189 3.189 0 001.83-.389 1.239 1.239 0 00.528-1.05h1.117v7.92z" fill="#292929"/></svg>