<svg xmlns="http://www.w3.org/2000/svg" width="201" height="35"><path fill="none" d="M0 0h201v35H0z"/><path d="M20.052 1.08a25.682 25.682 0 016.952.991A21.948 21.948 0 0133.46 5.04a16.309 16.309 0 014.78 5.01 14.729 14.729 0 010 14.341 16.312 16.312 0 01-4.78 5.01 20.3 20.3 0 01-6.456 2.879 27.277 27.277 0 01-13.9 0 20.293 20.293 0 01-6.456-2.879 16.328 16.328 0 01-4.781-5.01 14.739 14.739 0 010-14.341 16.325 16.325 0 014.781-5.01 21.943 21.943 0 016.456-2.969 25.682 25.682 0 016.948-.991zm0 5.521a16.05 16.05 0 00-4.718.72 14.561 14.561 0 00-4.253 2.07 10.865 10.865 0 00-3.072 3.33 9.173 9.173 0 000 9 10.871 10.871 0 003.072 3.329 14.592 14.592 0 004.253 2.07 15.819 15.819 0 009.436 0 14.61 14.61 0 004.252-2.07 10.908 10.908 0 003.073-3.329 9.176 9.176 0 000-9 10.9 10.9 0 00-3.073-3.33 14.58 14.58 0 00-4.252-2.07 16.068 16.068 0 00-4.718-.72zM63.568 30.84q0 1.081 1.367 1.08V33h-9.56v-1.08a1.22 1.22 0 00.775-.269.971.971 0 00.342-.811V6.96H46.249a2.18 2.18 0 00-1.086.3 1.2 1.2 0 00-.528 1.141h-1.117v-8.4h1.117a1.2 1.2 0 00.528 1.141 2.169 2.169 0 001.086.3h27.563a2.175 2.175 0 001.087-.3 1.2 1.2 0 00.527-1.141h1.117v8.4h-1.117a1.2 1.2 0 00-.527-1.141 2.186 2.186 0 00-1.087-.3H63.568zm47.735-27.239q0-1.081-1.365-1.08v-1.08h9.559v1.08a1.216 1.216 0 00-.775.269.968.968 0 00-.342.811V30.84a.969.969 0 00.342.811 1.216 1.216 0 00.775.269V33h-9.559v-1.08q1.364 0 1.365-1.08V19.561h-19.99V30.84a.976.976 0 00.342.811 1.224 1.224 0 00.777.269V33h-9.374v-1.08q1.177 0 1.179-1.08V3.601q0-1.081-1.179-1.08v-1.08h9.374v1.08a1.224 1.224 0 00-.777.269.975.975 0 00-.342.811v10.2h19.99zM158.36 7.92a1.091 1.091 0 00-.527-.989 3.672 3.672 0 00-1.831-.33h-20.113v7.439h12.167a4.519 4.519 0 001.925-.33q.681-.328.682-1.71h1.117v9.361h-1.117q0-1.38-.682-1.771a3.925 3.925 0 00-1.925-.39h-12.167v8.281h20.733a2.566 2.566 0 001.522-.42 1.33 1.33 0 00.589-1.141h1.118v8.221h-1.118q0-.9-.589-1.021a7.879 7.879 0 00-1.522-.12h-28.928v-1.08a1.224 1.224 0 00.776-.269.974.974 0 00.342-.811V3.601a.974.974 0 00-.342-.811 1.224 1.224 0 00-.776-.269v-1.08h28.309a3.185 3.185 0 001.831-.391 1.238 1.238 0 00.527-1.05h1.118v7.92zm27.252-6.479a26.42 26.42 0 015.4.509 12.423 12.423 0 014.159 1.621 7.542 7.542 0 012.669 2.879 9.258 9.258 0 01.932 4.35 7.589 7.589 0 01-2.421 6.061 13.249 13.249 0 01-6.519 2.82l8.257 11.4a1.669 1.669 0 001.024.72 5.392 5.392 0 001.086.12v1.08h-11.608v-1.08a2.334 2.334 0 00.962-.18c.268-.12.4-.279.4-.48a1.336 1.336 0 00-.248-.689q-.249-.39-.745-1.05l-6.828-9.361h-8.877v10.68a.912.912 0 00.4.811 2.816 2.816 0 001.459.269v1.08h-10.74v-1.08q1.8 0 1.8-1.08V3.601q0-1.081-1.8-1.08v-1.08zm-1.609 14.04a17.692 17.692 0 003.725-.33 6.738 6.738 0 002.358-.93 3.5 3.5 0 001.242-1.41 4.4 4.4 0 000-3.54 3.507 3.507 0 00-1.242-1.41 6.72 6.72 0 00-2.358-.93 17.627 17.627 0 00-3.725-.33h-10.739v8.88z" fill="#292929"/></svg>