<svg xmlns="http://www.w3.org/2000/svg" width="405" height="35"><path fill="none" d="M0 0h405v35H0z"/><path d="M0 33v-1.08q2.3 0 2.3-1.08V3.601q0-1.081-2.3-1.08v-1.08h21.852q5.96 0 9.374 2.128T34.64 10.8q0 5.1-3.414 7.23t-9.374 2.13H9.374v10.68q0 1.08 1.987 1.08V33zm22.6-18.36a7.347 7.347 0 003.507-.78 3.939 3.939 0 000-6.12 7.361 7.361 0 00-3.507-.78H9.377v7.68zm48.23-6.72a1.091 1.091 0 00-.527-.989 3.661 3.661 0 00-1.831-.33H48.359v7.439h12.167a4.519 4.519 0 001.925-.33q.681-.328.682-1.71h1.117v9.36h-1.117q0-1.378-.682-1.77a3.925 3.925 0 00-1.925-.39H48.359v8.28h20.733a2.559 2.559 0 001.522-.42 1.329 1.329 0 00.589-1.14h1.118v8.22h-1.118q0-.9-.589-1.02a7.879 7.879 0 00-1.522-.12H40.164v-1.08a1.22 1.22 0 00.776-.27.972.972 0 00.342-.81V3.601a.973.973 0 00-.342-.811 1.219 1.219 0 00-.776-.269v-1.08h28.308a3.185 3.185 0 001.831-.391A1.239 1.239 0 0070.83 0h1.118v7.92zm29.736-6.479a26.272 26.272 0 015.4.509 12.435 12.435 0 014.159 1.619 7.549 7.549 0 012.669 2.881 9.254 9.254 0 01.932 4.35 7.587 7.587 0 01-2.421 6.06 13.235 13.235 0 01-6.519 2.821l8.257 11.4a1.671 1.671 0 001.025.72 5.378 5.378 0 001.086.12v1.08H103.54v-1.08a2.349 2.349 0 00.962-.18q.4-.18.4-.48a1.341 1.341 0 00-.249-.691 18.243 18.243 0 00-.745-1.048l-6.828-9.361h-8.877v10.68a.908.908 0 00.4.81 2.8 2.8 0 001.459.27v1.08H79.321v-1.08q1.8 0 1.8-1.08V3.602q0-1.081-1.8-1.08v-1.08zM98.952 15.48a17.615 17.615 0 003.724-.33 6.714 6.714 0 002.359-.93 3.5 3.5 0 001.242-1.41 4.4 4.4 0 000-3.539 3.514 3.514 0 00-1.242-1.411 6.734 6.734 0 00-2.359-.929 17.55 17.55 0 00-3.724-.33h-10.74v8.879zm52.388-7.56a1.091 1.091 0 00-.527-.989 3.658 3.658 0 00-1.831-.33h-20.114v7.439h12.172a6.051 6.051 0 001.925-.24 1.019 1.019 0 00.683-1.08h1.117v8.64h-1.117q0-1.378-.683-1.77a3.921 3.921 0 00-1.925-.39h-12.167v11.64a.866.866 0 00.528.81 2.921 2.921 0 001.335.27V33h-10.554v-1.08q1.614 0 1.614-1.08V3.601q0-1.081-1.614-1.08v-1.08h28.805a3.183 3.183 0 001.831-.391 1.239 1.239 0 00.527-1.05h1.118v7.92zm24.959-6.84a25.758 25.758 0 016.952.989 21.948 21.948 0 016.456 2.971 16.292 16.292 0 014.781 5.01 14.737 14.737 0 010 14.34 16.292 16.292 0 01-4.781 5.01 20.274 20.274 0 01-6.456 2.88 27.27 27.27 0 01-13.9 0 20.3 20.3 0 01-6.456-2.88 16.3 16.3 0 01-4.78-5.01 14.727 14.727 0 010-14.34 16.3 16.3 0 014.78-5.01 21.977 21.977 0 016.456-2.971 25.771 25.771 0 016.948-.989zm0 5.521a16.12 16.12 0 00-4.718.718 14.649 14.649 0 00-4.253 2.071 10.878 10.878 0 00-3.072 3.33 9.176 9.176 0 000 9 10.88 10.88 0 003.072 3.33 14.622 14.622 0 004.253 2.07 15.819 15.819 0 009.436 0 14.617 14.617 0 004.252-2.07 10.9 10.9 0 003.073-3.33 9.173 9.173 0 000-9 10.9 10.9 0 00-3.073-3.33 14.644 14.644 0 00-4.252-2.071 16.122 16.122 0 00-4.718-.718zm47.241-5.16a26.266 26.266 0 015.4.509 12.437 12.437 0 014.159 1.619 7.56 7.56 0 012.669 2.881 9.254 9.254 0 01.932 4.35 7.587 7.587 0 01-2.421 6.06 13.239 13.239 0 01-6.519 2.821l8.257 11.4a1.671 1.671 0 001.024.72 5.389 5.389 0 001.086.12v1.08H226.52v-1.08a2.35 2.35 0 00.962-.18c.268-.12.4-.28.4-.48a1.347 1.347 0 00-.248-.691 18.243 18.243 0 00-.745-1.048l-6.828-9.361h-8.877v10.68a.909.909 0 00.4.81 2.8 2.8 0 001.459.27v1.08h-10.74v-1.08q1.8 0 1.8-1.08V3.602q0-1.081-1.8-1.08v-1.08zm-1.614 14.039a17.625 17.625 0 003.725-.33 6.7 6.7 0 002.358-.93 3.5 3.5 0 001.242-1.41 4.394 4.394 0 000-3.539 3.512 3.512 0 00-1.242-1.411 6.72 6.72 0 00-2.358-.929 17.56 17.56 0 00-3.725-.33h-10.739v8.879zm22.596 16.44a1.442 1.442 0 00.869-.27.936.936 0 00.372-.81V3.48a.786.786 0 00-.372-.75 1.748 1.748 0 00-.869-.209v-1.08h11.608v1.08a1.39 1.39 0 00-.651.179.575.575 0 00-.342.54 1.817 1.817 0 00.248.781q.248.48.559 1.019l8.878 15.6 8.938-15.42q.434-.78.652-1.23a1.886 1.886 0 00.217-.809c0-.441-.269-.66-.806-.66v-1.08h11.484v1.08a1.745 1.745 0 00-.869.209.786.786 0 00-.372.75v27.36a.936.936 0 00.372.81 1.44 1.44 0 00.869.27V33h-9.746v-1.08q1.676 0 1.676-1.08V10.92h-.124L264.635 33h-.186l-12.23-22.14h-.124v19.98q0 1.08 1.738 1.08V33h-9.311zm79.147-24a1.091 1.091 0 00-.527-.989 3.663 3.663 0 00-1.831-.33h-20.113v7.439h12.167a4.512 4.512 0 001.924-.33q.683-.328.683-1.71h1.117v9.36h-1.117q0-1.378-.683-1.77a3.918 3.918 0 00-1.924-.39h-12.167v8.28h20.733a2.559 2.559 0 001.522-.42 1.329 1.329 0 00.589-1.14h1.118v8.22h-1.12q0-.9-.589-1.02a7.879 7.879 0 00-1.522-.12h-28.928v-1.08a1.221 1.221 0 00.776-.27.971.971 0 00.341-.81V3.601a.972.972 0 00-.341-.811 1.22 1.22 0 00-.776-.269v-1.08h28.308a3.187 3.187 0 001.831-.391 1.239 1.239 0 00.527-1.05h1.117v7.92zm28.494-6.479a26.27 26.27 0 015.4.509 12.437 12.437 0 014.159 1.619 7.56 7.56 0 012.669 2.881 9.254 9.254 0 01.932 4.35 7.587 7.587 0 01-2.421 6.06 13.239 13.239 0 01-6.519 2.821l8.257 11.4a1.671 1.671 0 001.024.72 5.389 5.389 0 001.086.12v1.08h-11.61v-1.08a2.35 2.35 0 00.962-.18c.268-.12.4-.28.4-.48a1.347 1.347 0 00-.248-.691 18.243 18.243 0 00-.745-1.048l-6.828-9.361h-8.877v10.68a.909.909 0 00.4.81 2.8 2.8 0 001.459.27v1.08h-10.74v-1.08q1.8 0 1.8-1.08V3.602q0-1.081-1.8-1.08v-1.08zm-1.614 14.039a17.617 17.617 0 003.725-.33 6.7 6.7 0 002.358-.93 3.5 3.5 0 001.242-1.41 4.394 4.394 0 000-3.539 3.516 3.516 0 00-1.242-1.411 6.719 6.719 0 00-2.358-.929 17.552 17.552 0 00-3.725-.33H339.81v8.879zm24.891 7.621l.621.3a1.843 1.843 0 00.248.96 4.376 4.376 0 001.707 1.411 17.65 17.65 0 002.918 1.229 25.924 25.924 0 003.445.87 17.992 17.992 0 003.228.33q1.054 0 2.731-.15a16.676 16.676 0 003.29-.63 9.379 9.379 0 002.794-1.319 2.607 2.607 0 001.18-2.221 2.22 2.22 0 00-1.087-2.04 8.171 8.171 0 00-2.856-.96 32.1 32.1 0 00-4.035-.39q-2.265-.088-4.625-.27a43.024 43.024 0 01-4.624-.6 13.055 13.055 0 01-4.035-1.41 7.887 7.887 0 01-2.855-2.7 8.217 8.217 0 01-1.087-4.47 8.106 8.106 0 01.9-3.66 8.971 8.971 0 012.763-3.18 15.406 15.406 0 014.718-2.25 23.082 23.082 0 016.7-.87 29.715 29.715 0 015.711.48q2.421.482 4.19 1.02t2.98 1.021a5.711 5.711 0 002.017.479 1.755 1.755 0 001.242-.36l.744.48-4.283 7.5-.62-.24a3.266 3.266 0 00-.5-1.38 5.28 5.28 0 00-1.644-1.41 14.471 14.471 0 00-2.7-1.229 22.558 22.558 0 00-3.351-.872 19.515 19.515 0 00-6.426-.119 13.8 13.8 0 00-2.638.63 5.871 5.871 0 00-1.956 1.111 2.2 2.2 0 00-.775 1.709 2.417 2.417 0 001.086 2.16 8.077 8.077 0 002.855 1.08 27.786 27.786 0 004.035.48q2.267.12 4.625.3a38.892 38.892 0 014.625.63 13.7 13.7 0 014.036 1.44 7.417 7.417 0 013.941 7.05 7.533 7.533 0 01-1.707 5.1 12 12 0 01-4.252 3.12 19.656 19.656 0 01-5.494 1.53 42.068 42.068 0 01-5.494.391 37.683 37.683 0 01-5.928-.391 22.777 22.777 0 01-3.974-.96 27.075 27.075 0 01-2.513-1.02 3.832 3.832 0 00-1.615-.45 1.039 1.039 0 00-.806.48l-.869-.48z" fill="#fff"/></svg>