<svg xmlns="http://www.w3.org/2000/svg" width="209" height="33"><path fill="none" d="M0 0h209v33H0z"/><path d="M32.343 10.081l-1.242-.361a2.23 2.23 0 00.125-.72 2 2 0 00-1.148-1.62 11.571 11.571 0 00-2.918-1.23 23.81 23.81 0 00-3.85-.75 34.635 34.635 0 00-3.941-.239 17 17 0 00-4.563.629 12.112 12.112 0 00-4.035 1.95 9.784 9.784 0 00-2.855 3.421 12.423 12.423 0 000 10.17 9.706 9.706 0 002.855 3.449 12.07 12.07 0 004.035 1.95 16.957 16.957 0 004.563.63 32.317 32.317 0 006.363-.57 41.55 41.55 0 004.811-1.23V20.4h-7.946a2.006 2.006 0 00-1.3.36 2.361 2.361 0 00-.559 1.56h-1.117v-7.68h1.117a1.7 1.7 0 00.559 1.29 2.509 2.509 0 001.3.27h15.52v1.08a4.007 4.007 0 00-1.553.42 1.266 1.266 0 00-.31 1.02v6.78a.776.776 0 00.373.78l.869.42v.961a22.754 22.754 0 01-4.315 2.279 29.557 29.557 0 01-4.593 1.41 28.381 28.381 0 01-4.657.63q-2.328.12-4.562.12a28 28 0 01-7.916-1.05 17.266 17.266 0 01-6.113-3.12 14.2 14.2 0 01-3.944-5.04 17.017 17.017 0 010-13.5A14.505 14.505 0 015.34 4.32a17.778 17.778 0 016.113-3.21A26.612 26.612 0 0119.369 0a36.517 36.517 0 015.215.36q2.481.36 4.406.81t3.2.84a7.967 7.967 0 001.584.39 1.4 1.4 0 00.869-.239 5.342 5.342 0 01.619-.421l.747.421zM63.132 0a25.788 25.788 0 016.954.99 21.95 21.95 0 016.455 2.97 16.315 16.315 0 014.781 5.01 14.744 14.744 0 010 14.34 16.291 16.291 0 01-4.781 5.01 20.32 20.32 0 01-6.455 2.88 27.308 27.308 0 01-13.907 0 20.339 20.339 0 01-6.455-2.88 16.3 16.3 0 01-4.781-5.01 14.744 14.744 0 010-14.34 16.321 16.321 0 014.781-5.01A21.973 21.973 0 0156.179.99 25.789 25.789 0 0163.132 0zm0 5.52a16.074 16.074 0 00-4.716.72 14.631 14.631 0 00-4.254 2.07 10.89 10.89 0 00-3.072 3.33 9.169 9.169 0 000 9 10.892 10.892 0 003.072 3.33 14.576 14.576 0 004.254 2.07 15.816 15.816 0 009.435 0 14.592 14.592 0 004.252-2.07 10.917 10.917 0 003.072-3.33 9.169 9.169 0 000-9 10.915 10.915 0 00-3.072-3.33 14.648 14.648 0 00-4.252-2.07 16.1 16.1 0 00-4.719-.72zM108.326 0a25.754 25.754 0 016.951.99 21.944 21.944 0 016.457 2.97 16.286 16.286 0 014.779 5.01 14.72 14.72 0 010 14.34 16.262 16.262 0 01-4.779 5.01 20.315 20.315 0 01-6.457 2.88 27.3 27.3 0 01-13.9 0 20.3 20.3 0 01-6.457-2.88 16.289 16.289 0 01-4.78-5.01 14.73 14.73 0 010-14.34 16.314 16.314 0 014.78-5.01 21.927 21.927 0 016.457-2.97 25.767 25.767 0 016.949-.99zm0 5.52a16.084 16.084 0 00-4.719.72 14.635 14.635 0 00-4.252 2.07 10.862 10.862 0 00-3.072 3.33 9.173 9.173 0 000 9 10.864 10.864 0 003.072 3.33 14.58 14.58 0 004.252 2.07 15.819 15.819 0 009.436 0 14.592 14.592 0 004.252-2.07 10.9 10.9 0 003.074-3.33 9.169 9.169 0 000-9 10.9 10.9 0 00-3.074-3.33 14.648 14.648 0 00-4.252-2.07 16.089 16.089 0 00-4.717-.72zM154.574.36a20.486 20.486 0 016.363.96 14.118 14.118 0 015.121 2.91 13.488 13.488 0 013.414 4.92 20.273 20.273 0 010 13.98 13.479 13.479 0 01-3.414 4.92 14.087 14.087 0 01-5.121 2.91 20.45 20.45 0 01-6.363.96h-20.613v-1.08q1.427 0 1.427-1.08V2.52q0-1.08-1.427-1.08V.36zm-2.483 26.4a23.756 23.756 0 005.09-.48 8.07 8.07 0 003.6-1.71 7.455 7.455 0 002.143-3.27 19.056 19.056 0 000-10.32 7.473 7.473 0 00-2.143-3.27 8.094 8.094 0 00-3.6-1.71 23.835 23.835 0 00-5.09-.48h-9.623v21.24zm26.754-4.74l.621.3a1.846 1.846 0 00.249.96 4.362 4.362 0 001.707 1.41 17.555 17.555 0 002.918 1.23 25.935 25.935 0 003.445.87 18.088 18.088 0 003.226.331q1.056 0 2.733-.151a16.583 16.583 0 003.289-.63 9.375 9.375 0 002.795-1.32 2.6 2.6 0 001.179-2.22 2.222 2.222 0 00-1.087-2.04 8.155 8.155 0 00-2.856-.96 31.713 31.713 0 00-4.035-.389q-2.265-.092-4.625-.271a43.287 43.287 0 01-4.623-.6 13.044 13.044 0 01-4.035-1.41 7.9 7.9 0 01-2.856-2.7 8.232 8.232 0 01-1.088-4.47 8.113 8.113 0 01.9-3.66 8.944 8.944 0 012.763-3.179 15.425 15.425 0 014.717-2.25A23.073 23.073 0 01190.887 0a29.791 29.791 0 015.711.48q2.421.482 4.19 1.02t2.98 1.02a5.714 5.714 0 002.018.48 1.759 1.759 0 001.242-.36l.744.481-4.283 7.5-.621-.241a3.268 3.268 0 00-.5-1.38 5.278 5.278 0 00-1.645-1.41 14.582 14.582 0 00-2.7-1.23 22.589 22.589 0 00-3.352-.87 20.043 20.043 0 00-3.6-.329 19.792 19.792 0 00-2.824.21 13.721 13.721 0 00-2.639.629 5.9 5.9 0 00-1.955 1.11 2.195 2.195 0 00-.775 1.71 2.418 2.418 0 001.085 2.16 8.064 8.064 0 002.856 1.08 27.744 27.744 0 004.035.48q2.265.122 4.625.3a39.011 39.011 0 014.625.63 13.624 13.624 0 014.035 1.441 7.413 7.413 0 013.942 7.049 7.544 7.544 0 01-1.707 5.1 12.025 12.025 0 01-4.252 3.12 19.633 19.633 0 01-5.494 1.53 42.073 42.073 0 01-5.5.39 37.666 37.666 0 01-5.927-.39 22.7 22.7 0 01-3.975-.96 26.858 26.858 0 01-2.514-1.02 3.83 3.83 0 00-1.613-.45 1.041 1.041 0 00-.807.48l-.869-.48z" fill="#292929"/></svg>