<svg xmlns="http://www.w3.org/2000/svg" width="474" height="35"><path fill="none" d="M0 0h474v35H0z"/><path d="M30.667 7.923a1.093 1.093 0 00-.528-.99 3.676 3.676 0 00-1.83-.33H8.196v7.441h12.166a4.552 4.552 0 001.926-.33q.68-.33.681-1.71h1.117v9.359h-1.117q0-1.378-.681-1.77a3.94 3.94 0 00-1.926-.389H8.196v8.279h20.732a2.565 2.565 0 001.522-.42 1.33 1.33 0 00.59-1.14h1.117v8.22H31.04c0-.6-.2-.94-.59-1.019a7.82 7.82 0 00-1.522-.12H0v-1.081a1.21 1.21 0 00.776-.27.968.968 0 00.342-.81V3.603a.967.967 0 00-.342-.809A1.21 1.21 0 000 2.523v-1.08h28.309a3.178 3.178 0 001.83-.39 1.235 1.235 0 00.528-1.049h1.117v7.919zm26.009 22.916q0 1.08 1.367 1.08V33h-9.56v-1.077a1.207 1.207 0 00.775-.27.965.965 0 00.342-.81V6.964H39.354a2.173 2.173 0 00-1.086.3 1.192 1.192 0 00-.529 1.14h-1.118v-8.4h1.118a1.189 1.189 0 00.529 1.139 2.154 2.154 0 001.086.3h27.562a2.157 2.157 0 001.086-.3A1.192 1.192 0 0068.53.004h1.117v8.4H68.53a1.2 1.2 0 00-.528-1.14 2.176 2.176 0 00-1.086-.3H56.672zm46.496-27.24q0-1.08-1.365-1.08v-1.08h9.561v1.08a1.209 1.209 0 00-.776.271.967.967 0 00-.342.809v27.24a.968.968 0 00.342.81 1.21 1.21 0 00.776.27V33h-9.561v-1.077q1.365 0 1.365-1.08v-11.28H83.184v11.28a.965.965 0 00.342.81 1.209 1.209 0 00.775.27v1.081h-9.373v-1.081c.785 0 1.18-.36 1.18-1.08V3.603c0-.72-.4-1.08-1.18-1.08v-1.08h9.373v1.08a1.208 1.208 0 00-.775.271.964.964 0 00-.342.809v10.2h19.988zm16.203 28.324q1.616 0 1.614-1.08V3.603q0-1.08-1.614-1.08v-1.08h10.305v1.08q-1.614 0-1.613 1.08v27.24q0 1.08 1.613 1.08v1.081h-10.305zm52.208-3.244a1.8 1.8 0 01-.342-.03 1.8 1.8 0 00-.34-.029 5.837 5.837 0 00-1.77.719q-1.4.72-3.539 1.621a32.033 32.033 0 01-4.873 1.559 24.194 24.194 0 01-5.711.66 28.991 28.991 0 01-7.511-.96 19.025 19.025 0 01-6.364-2.969 14.806 14.806 0 01-4.377-5.01 16.021 16.021 0 010-14.011 15.012 15.012 0 014.377-5.069 19.623 19.623 0 016.364-3.061 27.423 27.423 0 017.511-1.019 31.566 31.566 0 015.742.479q2.575.482 4.5 1.021a25.513 25.513 0 013.043 1.019 5.677 5.677 0 001.366.481.633.633 0 00.527-.3c.145-.2.258-.36.342-.48l.931.72-4.843 7.26-.619-.42a2.184 2.184 0 00-.032-.359 5.531 5.531 0 00-.093-.42q-.126-.661-1.243-1.351a12.989 12.989 0 00-2.761-1.229 29.083 29.083 0 00-3.477-.9 17.628 17.628 0 00-3.383-.359 17.21 17.21 0 00-5 .72 12.576 12.576 0 00-4.158 2.1 10.348 10.348 0 00-2.824 3.391 10.5 10.5 0 000 9.179 10.324 10.324 0 002.824 3.39 12.6 12.6 0 004.158 2.1 17.276 17.276 0 005 .719 20.516 20.516 0 004.159-.45 25.665 25.665 0 003.974-1.139 13.3 13.3 0 003.01-1.561q1.211-.869 1.211-1.649a1.106 1.106 0 00-.248-.721l.869-.48 4.1 6.361zm4.471 3.244a1.828 1.828 0 001.274-.78 12.951 12.951 0 00.9-1.5l11.484-23.34c.29-.519.547-1 .776-1.44a2.592 2.592 0 00.342-1.14.882.882 0 00-.436-.84 3.784 3.784 0 00-.93-.36v-1.08h10.49v1.08a5.245 5.245 0 00-.869.33.869.869 0 00-.434.87 2.272 2.272 0 00.217.96q.215.482.65 1.26l12.914 24.42a2.042 2.042 0 00.838.96 12.687 12.687 0 001.209.6v1.081h-10.925v-1.081a1.514 1.514 0 00.621-.179.578.578 0 00.373-.54 3.666 3.666 0 00-.5-1.561l-2.359-4.439h-15.147l-2.236 4.26a4.893 4.893 0 00-.619 1.8q0 .661 1.18.66v1.081h-8.813zm23.405-11.16l-5.215-11.16-5.836 11.16zm51.706 13.376c0-.6-.2-.94-.59-1.019a7.812 7.812 0 00-1.52-.12h-29.551v-1.077q1.865 0 1.864-1.08V3.603q0-1.08-1.864-1.08v-1.08h10.678v1.08q-1.737 0-1.738 1.08v23.88h20.61a2.563 2.563 0 001.52-.42 1.33 1.33 0 00.59-1.14h1.117v8.22zm37.617-32.7a33.181 33.181 0 015.525.45 17.451 17.451 0 014.717 1.441 9.118 9.118 0 013.291 2.58 6.184 6.184 0 011.242 3.929 5.394 5.394 0 01-1.8 4.35 12.911 12.911 0 01-4.283 2.37v.12a12.3 12.3 0 014.936 2.67 6.735 6.735 0 012.017 5.25 7.014 7.014 0 01-.808 3.33 7.728 7.728 0 01-2.389 2.67 12.031 12.031 0 01-3.881 1.771 19.737 19.737 0 01-5.215.63h-22.78v-1.077q1.737 0 1.738-1.08V3.603q0-1.08-1.738-1.08v-1.08zm1.242 12.36a13.244 13.244 0 004.625-.69 3.228 3.228 0 000-5.819 13.265 13.265 0 00-4.625-.691h-11.857v7.2zm0 13.68q3.91 0 5.617-1.17a3.65 3.65 0 000-6.18q-1.709-1.17-5.617-1.169h-11.857v8.519zM330.063 1.08a25.779 25.779 0 016.953.989 21.91 21.91 0 016.455 2.971 16.292 16.292 0 014.781 5.009 14.737 14.737 0 010 14.34 16.274 16.274 0 01-4.781 5.01 20.316 20.316 0 01-6.455 2.88 27.312 27.312 0 01-13.906 0 20.325 20.325 0 01-6.455-2.88 16.274 16.274 0 01-4.781-5.01 14.737 14.737 0 010-14.34 16.292 16.292 0 014.781-5.009 21.921 21.921 0 016.455-2.971 25.782 25.782 0 016.953-.989zm0 5.519a16.081 16.081 0 00-4.717.72 14.656 14.656 0 00-4.254 2.07 10.916 10.916 0 00-3.072 3.33 9.169 9.169 0 000 9 10.891 10.891 0 003.072 3.33 14.627 14.627 0 004.254 2.071 15.839 15.839 0 009.436 0 14.643 14.643 0 004.252-2.071 10.915 10.915 0 003.072-3.33 9.169 9.169 0 000-9 10.941 10.941 0 00-3.072-3.33 14.672 14.672 0 00-4.252-2.07 16.109 16.109 0 00-4.719-.72zm45.191-5.519a25.759 25.759 0 016.952.989 21.927 21.927 0 016.457 2.971 16.269 16.269 0 014.779 5.009 14.727 14.727 0 010 14.34 16.251 16.251 0 01-4.779 5.01 20.331 20.331 0 01-6.457 2.88 27.306 27.306 0 01-13.9 0 20.326 20.326 0 01-6.457-2.88 16.275 16.275 0 01-4.779-5.01 14.73 14.73 0 010-14.34 16.293 16.293 0 014.779-5.009 21.921 21.921 0 016.457-2.971 25.77 25.77 0 016.948-.989zm0 5.519a16.077 16.077 0 00-4.718.72 14.611 14.611 0 00-4.252 2.07 10.891 10.891 0 00-3.073 3.33 9.179 9.179 0 000 9 10.865 10.865 0 003.073 3.33 14.583 14.583 0 004.252 2.071 15.836 15.836 0 009.435 0 14.619 14.619 0 004.252-2.071 10.879 10.879 0 003.074-3.33 9.169 9.169 0 000-9 10.9 10.9 0 00-3.074-3.33 14.648 14.648 0 00-4.252-2.07 16.079 16.079 0 00-4.717-.72zm43.518 24.24q0 1.08 1.367 1.08V33h-9.56v-1.077a1.21 1.21 0 00.775-.27.965.965 0 00.342-.81V6.964h-10.242a2.169 2.169 0 00-1.086.3 1.193 1.193 0 00-.53 1.14h-1.117v-8.4h1.117a1.19 1.19 0 00.53 1.139 2.15 2.15 0 001.086.3h27.562a2.16 2.16 0 001.086-.3 1.192 1.192 0 00.527-1.139h1.118v8.4h-1.118a1.2 1.2 0 00-.527-1.14 2.178 2.178 0 00-1.086-.3h-10.244zm46.496-27.24c0-.72-.457-1.08-1.365-1.08v-1.08h9.558v1.08a1.209 1.209 0 00-.775.271.967.967 0 00-.342.809v27.24a.968.968 0 00.342.81 1.21 1.21 0 00.775.27V33h-9.558v-1.077c.908 0 1.365-.36 1.365-1.08v-11.28h-19.99v11.28a.971.971 0 00.342.81 1.209 1.209 0 00.777.27v1.081h-9.375v-1.081c.785 0 1.18-.36 1.18-1.08V3.603c0-.72-.4-1.08-1.18-1.08v-1.08h9.375v1.08a1.209 1.209 0 00-.777.271.97.97 0 00-.342.809v10.2h19.99z" fill="#292929"/></svg>