<svg xmlns="http://www.w3.org/2000/svg" width="416" height="35"><path fill="none" d="M0 0h416v35H0z"/><path d="M31.168 8.879a1.09 1.09 0 00-.528-.99 3.677 3.677 0 00-1.83-.33H8.697v7.44h12.166a6 6 0 001.926-.241 1.015 1.015 0 00.681-1.079h1.117v8.64h-1.119q0-1.38-.681-1.77a3.928 3.928 0 00-1.926-.39H8.695v11.64a.867.867 0 00.527.81 2.92 2.92 0 001.334.27v1.08H.003v-1.08q1.616 0 1.614-1.08V4.559q0-1.08-1.614-1.08v-1.08h28.805a3.18 3.18 0 001.83-.391 1.234 1.234 0 00.528-1.049h1.119v7.92zm24.95-6.84a25.751 25.751 0 016.953.99 21.917 21.917 0 016.455 2.97 16.322 16.322 0 014.781 5.009 14.746 14.746 0 010 14.341 16.3 16.3 0 01-4.781 5.01 20.308 20.308 0 01-6.455 2.88 27.308 27.308 0 01-13.907 0 20.344 20.344 0 01-6.455-2.88 16.3 16.3 0 01-4.781-5.01 14.742 14.742 0 010-14.341 16.32 16.32 0 014.781-5.009 21.96 21.96 0 016.455-2.97 25.749 25.749 0 016.954-.99zm0 5.52a16.079 16.079 0 00-4.717.72 14.6 14.6 0 00-4.254 2.07 10.886 10.886 0 00-3.072 3.33 9.169 9.169 0 000 9 10.87 10.87 0 003.072 3.329 14.606 14.606 0 004.254 2.071 15.816 15.816 0 009.435 0 14.582 14.582 0 004.252-2.071 10.911 10.911 0 003.073-3.329 9.179 9.179 0 000-9 10.927 10.927 0 00-3.073-3.33 14.58 14.58 0 00-4.252-2.07 16.1 16.1 0 00-4.718-.72zm45.193-5.52a25.742 25.742 0 016.953.99 21.926 21.926 0 016.455 2.97 16.32 16.32 0 014.781 5.009 14.736 14.736 0 010 14.341 16.3 16.3 0 01-4.781 5.01 20.315 20.315 0 01-6.455 2.88 27.3 27.3 0 01-13.906 0 20.325 20.325 0 01-6.455-2.88 16.3 16.3 0 01-4.781-5.01 14.739 14.739 0 010-14.341 16.314 16.314 0 014.781-5.009 21.937 21.937 0 016.455-2.97 25.745 25.745 0 016.953-.99zm0 5.52a16.081 16.081 0 00-4.717.72 14.6 14.6 0 00-4.254 2.07 10.9 10.9 0 00-3.072 3.33 9.169 9.169 0 000 9 10.888 10.888 0 003.072 3.329 14.6 14.6 0 004.254 2.071 15.819 15.819 0 009.436 0 14.618 14.618 0 004.252-2.071 10.912 10.912 0 003.072-3.329 9.169 9.169 0 000-9 10.929 10.929 0 00-3.072-3.33 14.616 14.616 0 00-4.252-2.07 16.107 16.107 0 00-4.719-.72zm46.248-5.16a20.44 20.44 0 016.363.96 14.113 14.113 0 015.121 2.91 13.485 13.485 0 013.414 4.92 20.274 20.274 0 010 13.98 13.476 13.476 0 01-3.414 4.92 14.1 14.1 0 01-5.121 2.91 20.44 20.44 0 01-6.363.96H126.95v-1.08q1.426 0 1.427-1.08V4.559q0-1.08-1.427-1.08v-1.08zm-2.482 26.4a23.816 23.816 0 005.089-.48 8.065 8.065 0 003.6-1.71 7.456 7.456 0 002.143-3.27 19.031 19.031 0 000-10.32 7.467 7.467 0 00-2.143-3.27 8.073 8.073 0 00-3.6-1.71 23.816 23.816 0 00-5.089-.48h-9.623v21.24zm71.263 5.34a21.427 21.427 0 01-4-.33 12.54 12.54 0 01-2.978-.93 10.064 10.064 0 01-2.174-1.35 19.841 19.841 0 01-1.645-1.53 31.319 31.319 0 01-2.763 2.009 14.344 14.344 0 01-2.606 1.321 10.941 10.941 0 01-2.857.66q-1.521.15-3.506.15a22.616 22.616 0 01-4.562-.48 13.312 13.312 0 01-4.223-1.62 10.069 10.069 0 01-3.135-2.94 7.417 7.417 0 01-1.24-4.32 8.484 8.484 0 01.65-3.45 8.085 8.085 0 011.77-2.55 9.621 9.621 0 012.67-1.8 20.408 20.408 0 013.351-1.2v-.12a7.416 7.416 0 01-3.32-2.13 5.125 5.125 0 01-1.4-3.57 6.081 6.081 0 011.023-3.57 8.9 8.9 0 012.607-2.46 11.431 11.431 0 013.6-1.44 17.633 17.633 0 017.916 0 11.421 11.421 0 013.568 1.44 8.83 8.83 0 012.608 2.46 6.089 6.089 0 011.025 3.57 5.677 5.677 0 01-1.211 3.63 5.782 5.782 0 01-2.638 2.01 4.636 4.636 0 011.3 1.29 14.467 14.467 0 01.869 1.5q.372.75.682 1.44a3.512 3.512 0 00.746 1.11 17.414 17.414 0 012.172-3 25.831 25.831 0 012.482-2.431 19.307 19.307 0 012.266-1.679 6.225 6.225 0 011.522-.75 3.488 3.488 0 00.558-.27.443.443 0 00.248-.39h.621v9.24h-.621a4.925 4.925 0 00-.4-.84 1.026 1.026 0 00-.963-.48 2.148 2.148 0 00-1.428.6 6.982 6.982 0 00-1.242 1.47 16.883 16.883 0 00-.992 1.77 11.345 11.345 0 00-.621 1.5 10.565 10.565 0 002.08 1.95 4.379 4.379 0 002.265.93q.869 0 1.086-.54a3.184 3.184 0 00.217-1.2h.621zm-28.865-10.2a4.729 4.729 0 00.682 2.58 5.257 5.257 0 001.8 1.739 8.328 8.328 0 002.454.96 11.843 11.843 0 002.636.3 7.388 7.388 0 002.391-.39 9.408 9.408 0 002.08-.99 6.089 6.089 0 001.52-1.35 3.328 3.328 0 00.714-1.531 9.538 9.538 0 01-1.365-2.489 14.114 14.114 0 00-.994-2.22 4.464 4.464 0 00-1.49-1.59 5.363 5.363 0 00-2.856-.6 12.016 12.016 0 00-2.636.3 8.409 8.409 0 00-2.454.96 5.382 5.382 0 00-1.8 1.71 4.692 4.692 0 00-.682 2.611zm8.07-17.46a6.637 6.637 0 00-3.695.989 3.9 3.9 0 000 6.181 7.389 7.389 0 007.389 0 3.9 3.9 0 000-6.181 6.641 6.641 0 00-3.694-.989zm62.137-4.08a20.422 20.422 0 016.363.96 14.1 14.1 0 015.121 2.91 13.489 13.489 0 013.416 4.92 20.3 20.3 0 010 13.98 13.48 13.48 0 01-3.416 4.92 14.083 14.083 0 01-5.121 2.91 20.422 20.422 0 01-6.363.96h-20.609v-1.08q1.426 0 1.427-1.08V4.559q0-1.08-1.427-1.08v-1.08zm-2.482 26.4a23.806 23.806 0 005.089-.48 8.073 8.073 0 003.6-1.71 7.453 7.453 0 002.141-3.27 18.981 18.981 0 000-10.32 7.464 7.464 0 00-2.141-3.27 8.081 8.081 0 00-3.6-1.71 23.806 23.806 0 00-5.089-.48h-9.621v21.24zm45.193-26.4a26.338 26.338 0 015.4.51 12.438 12.438 0 014.159 1.62 7.558 7.558 0 012.67 2.88 9.256 9.256 0 01.931 4.349 7.58 7.58 0 01-2.422 6.061 13.229 13.229 0 01-6.517 2.82l8.256 11.4a1.671 1.671 0 001.025.719 5.325 5.325 0 001.086.121v1.08h-11.613v-1.08a2.344 2.344 0 00.962-.18c.268-.12.4-.279.4-.481a1.33 1.33 0 00-.248-.689c-.166-.26-.414-.609-.744-1.05l-6.829-9.36h-8.877v10.68a.907.907 0 00.4.81 2.807 2.807 0 001.459.27v1.08h-10.74v-1.08q1.8 0 1.8-1.08V4.559q0-1.08-1.8-1.08v-1.08zm-1.615 14.04a17.6 17.6 0 003.724-.33 6.71 6.71 0 002.36-.93 3.512 3.512 0 001.242-1.41 4.407 4.407 0 000-3.54 3.518 3.518 0 00-1.242-1.41 6.733 6.733 0 00-2.36-.93 17.661 17.661 0 00-3.724-.33h-10.739v8.88zm21.043 16.44q1.614 0 1.615-1.08V4.559q0-1.08-1.615-1.08v-1.08h10.3v1.08q-1.614 0-1.613 1.08v27.24q0 1.08 1.613 1.08v1.08h-10.3zm16.824 0q1.178 0 1.178-1.08V4.559q0-1.08-1.178-1.08v-1.08h10.615v1.08q-.5 0-.5.6 0 .48 1.242 1.679l17.817 17.881V4.559q0-1.08-1.614-1.08v-1.08h9.374v1.08c-.788 0-1.18.36-1.18 1.08v27.24c0 .72.392 1.08 1.18 1.08v1.08h-10.057v-1.08c.537 0 .807-.18.807-.54 0-.28-.333-.74-.993-1.38l-18.933-19.08v19.92c0 .72.474 1.08 1.427 1.08v1.08h-9.187zm51.277-1.08a.935.935 0 00.371.81 1.443 1.443 0 00.87.27v1.08h-9.684v-1.08q1.365 0 1.365-1.08V4.559q0-1.08-1.365-1.08v-1.08h9.684v1.08a1.443 1.443 0 00-.87.27.935.935 0 00-.371.81v11.4l12.85-9.78q.867-.72 1.365-1.171c.33-.3.5-.548.5-.75a.656.656 0 00-.279-.6 1.17 1.17 0 00-.65-.18v-1.08h13.035v1.08a3.566 3.566 0 00-2.235.9l-14.277 10.98 13.035 14.58a15.553 15.553 0 001.9 1.77 6.154 6.154 0 002.14 1.17v1.08h-11.484v-1.08c.537 0 .807-.14.807-.42q0-.3-.87-1.32l-10.615-11.82-5.213 3.9z" fill="#292929"/></svg>