<svg xmlns="http://www.w3.org/2000/svg" width="1026" height="74" viewBox="0 0 1026 74">
  <defs>
    <style>
      .cls-1 {
        fill: #fed438;
        fill-rule: evenodd;
        opacity: 0.1;
      }
    </style>
  </defs>
  <path id="ETHICAL_BOOTH" data-name="ETHICAL BOOTH" class="cls-1" d="M53.955,13.661V0.945H5.33V72H54.768V59.284H23.234V41.991H52.581V29.275H23.234V13.661H53.955Zm87.321,2.085V0.945H72.509v14.8h25.33V72h17.9V15.746h25.533Zm37.781,12.716V0.945h-17.9V72h17.9V43.364h34.383V72h17.9V0.945h-17.9V28.462H179.056ZM274.871,72V0.945h-17.9V72h17.9ZM337.015,0.029a45.836,45.836,0,0,0-20.4,4.425A33.57,33.57,0,0,0,302.454,17.17,36.075,36.075,0,0,0,297.342,36.5a36.784,36.784,0,0,0,4.731,18.565,33.527,33.527,0,0,0,13.656,13.072q8.927,4.782,20.981,4.781,15.614,0,27.212-6.205V50.739q-11.8,7.833-24.262,7.833a26.648,26.648,0,0,1-12.843-2.925,20.444,20.444,0,0,1-8.265-7.909A21.654,21.654,0,0,1,315.7,36.8a22.877,22.877,0,0,1,2.8-11.164,20.691,20.691,0,0,1,8.316-8.189,26.813,26.813,0,0,1,13.25-3.077,36.534,36.534,0,0,1,11.673,1.882A55.568,55.568,0,0,1,363.515,22V5.523a69.369,69.369,0,0,0-26.5-5.493h0ZM460.347,72L429.117,0.843H410.451L379.526,72h18.311l6.815-16.378H435.17L442.036,72h18.311ZM430.44,44.178H409.332L419.86,18.34ZM496.3,57.3V0.945h-17.9V72h50.1V57.3H496.3ZM637.979,5.6Q631.52,0.945,620.228.945H590.067V72H620.89q13.325,0,21.031-4.476t7.706-15.411a17.737,17.737,0,0,0-3.815-11.368q-3.815-4.806-11.6-7.2a15.889,15.889,0,0,0,7.451-6.027,16.5,16.5,0,0,0,2.772-9.384A14.677,14.677,0,0,0,637.979,5.6ZM624.374,28.207q-2.976,2.239-8.825,2.238h-7.578V11.982h8.341q5.7,0,8.367,2.187t2.67,6.917Q627.349,25.969,624.374,28.207Zm-7.045,32.755h-9.358V41.381h9.358q14.292,0,14.293,9.867,0,9.716-14.293,9.715h0Zm125.265-43.03A33.488,33.488,0,0,0,728.963,4.81q-8.9-4.78-20.9-4.781-13.226,0-22.125,5.264a33.522,33.522,0,0,0-13.174,13.58A38.25,38.25,0,0,0,668.487,36.6a36.938,36.938,0,0,0,4.578,18.158,33.6,33.6,0,0,0,13.427,13.224q8.85,4.934,21.261,4.934,12.307,0,21.26-4.883a33.822,33.822,0,0,0,13.632-13.173A36.709,36.709,0,0,0,747.324,36.5,36.978,36.978,0,0,0,742.594,17.933Zm-53.2,7.757a18.014,18.014,0,0,1,7.325-7.4,22.643,22.643,0,0,1,11.139-2.645,22.043,22.043,0,0,1,11.367,2.823,18.822,18.822,0,0,1,7.3,7.553A21.921,21.921,0,0,1,729.013,36.4q0,9.664-5.874,15.284T707.753,57.3a22.346,22.346,0,0,1-10.834-2.594,18.331,18.331,0,0,1-7.426-7.35A21.756,21.756,0,0,1,686.848,36.6,22.775,22.775,0,0,1,689.391,25.69ZM840.8,17.933A33.475,33.475,0,0,0,827.168,4.81q-8.9-4.78-20.9-4.781-13.226,0-22.126,5.264a33.513,33.513,0,0,0-13.173,13.58A38.251,38.251,0,0,0,766.692,36.6a36.938,36.938,0,0,0,4.578,18.158A33.612,33.612,0,0,0,784.7,67.982q8.85,4.934,21.26,4.934,12.309,0,21.261-4.883A33.819,33.819,0,0,0,840.85,54.859,36.71,36.71,0,0,0,845.53,36.5,36.968,36.968,0,0,0,840.8,17.933ZM787.6,25.69a18.012,18.012,0,0,1,7.324-7.4,22.645,22.645,0,0,1,11.139-2.645,22.046,22.046,0,0,1,11.368,2.823,18.828,18.828,0,0,1,7.3,7.553A21.921,21.921,0,0,1,827.219,36.4q0,9.664-5.875,15.284T805.958,57.3a22.345,22.345,0,0,1-10.833-2.594,18.325,18.325,0,0,1-7.426-7.35A21.745,21.745,0,0,1,785.054,36.6,22.775,22.775,0,0,1,787.6,25.69ZM931.07,15.746V0.945H862.3v14.8h25.33V72h17.9V15.746H931.07Zm37.781,12.716V0.945h-17.9V72h17.9V43.364h34.379V72h17.91V0.945h-17.91V28.462H968.851Z"/>
</svg>
