<svg xmlns="http://www.w3.org/2000/svg" width="229" height="75" viewBox="0 0 229 75">
  <defs>
    <style>
      .cls-1 {
        fill: #fed438;
        fill-rule: evenodd;
        opacity: 0.1;
      }
    </style>
  </defs>
  <path id="ETHICAL_BOOTH" data-name="ETHICAL BOOTH" class="cls-1" d="M28.367,7.664V2.578H8.917V31H28.693V25.914H16.079V19H27.818V13.91H16.079V7.664H28.367ZM63.3,8.5V2.578H35.789V8.5H45.921V31h7.161V8.5H63.3Zm15.112,5.086V2.578H71.246V31h7.161V19.546H92.161V31h7.161V2.578H92.161V13.585H78.408ZM116.734,31V2.578h-7.162V31h7.162ZM141.591,2.212a18.335,18.335,0,0,0-8.158,1.77,13.429,13.429,0,0,0-5.666,5.086,14.432,14.432,0,0,0-2.045,7.731,14.72,14.72,0,0,0,1.892,7.426,13.421,13.421,0,0,0,5.463,5.229,17.52,17.52,0,0,0,8.392,1.912,22.74,22.74,0,0,0,10.885-2.482V22.5a17.342,17.342,0,0,1-9.705,3.133,10.661,10.661,0,0,1-5.137-1.17,8.183,8.183,0,0,1-3.306-3.164,8.658,8.658,0,0,1-1.139-4.374,9.151,9.151,0,0,1,1.119-4.466,8.273,8.273,0,0,1,3.326-3.276,10.726,10.726,0,0,1,5.3-1.231,14.614,14.614,0,0,1,4.669.753,22.2,22.2,0,0,1,4.71,2.3V4.409a27.744,27.744,0,0,0-10.6-2.2h0ZM190.924,31L178.432,2.537h-7.466L158.6,31h7.324l2.726-6.551h12.207L183.6,31h7.324ZM178.961,19.871h-8.443l4.211-10.335ZM205.3,25.12V2.578h-7.161V31h20.039V25.12H205.3ZM45.544,46.106a11.945,11.945,0,0,0-7.1-1.862H26.379V72.667H38.709a16.764,16.764,0,0,0,8.413-1.79q3.082-1.79,3.082-6.165a7.1,7.1,0,0,0-1.526-4.547,9.147,9.147,0,0,0-4.639-2.879,6.355,6.355,0,0,0,2.981-2.411,6.6,6.6,0,0,0,1.109-3.754A5.871,5.871,0,0,0,45.544,46.106ZM40.1,55.15a5.824,5.824,0,0,1-3.53.9H33.541V48.66h3.337a5.245,5.245,0,0,1,3.347.875A3.372,3.372,0,0,1,41.292,52.3,3.332,3.332,0,0,1,40.1,55.15Zm-2.818,13.1H33.541V60.419h3.743Q43,60.419,43,64.366q0,3.886-5.717,3.886h0ZM87.39,51.04a13.393,13.393,0,0,0-5.452-5.249,17.419,17.419,0,0,0-8.362-1.913,17.133,17.133,0,0,0-8.85,2.106,13.406,13.406,0,0,0-5.269,5.432,15.3,15.3,0,0,0-1.709,7.09,14.776,14.776,0,0,0,1.831,7.263,13.444,13.444,0,0,0,5.371,5.29,17.211,17.211,0,0,0,8.5,1.974,17.507,17.507,0,0,0,8.5-1.953,13.53,13.53,0,0,0,5.453-5.269A15.432,15.432,0,0,0,87.39,51.04Zm-21.281,3.1a7.2,7.2,0,0,1,2.93-2.96,9.057,9.057,0,0,1,4.456-1.058,8.818,8.818,0,0,1,4.547,1.129,7.53,7.53,0,0,1,2.919,3.021,8.769,8.769,0,0,1,1,4.15,8.061,8.061,0,0,1-2.35,6.114,8.532,8.532,0,0,1-6.154,2.248,8.938,8.938,0,0,1-4.334-1.038,7.333,7.333,0,0,1-2.97-2.94,8.7,8.7,0,0,1-1.058-4.3A9.11,9.11,0,0,1,66.109,54.143Zm60.563-3.1a13.391,13.391,0,0,0-5.452-5.249,17.419,17.419,0,0,0-8.362-1.913,17.13,17.13,0,0,0-8.85,2.106,13.4,13.4,0,0,0-5.269,5.432,15.3,15.3,0,0,0-1.709,7.09,14.776,14.776,0,0,0,1.831,7.263,13.442,13.442,0,0,0,5.371,5.29,17.209,17.209,0,0,0,8.5,1.974,17.506,17.506,0,0,0,8.5-1.953,13.531,13.531,0,0,0,5.453-5.269A15.435,15.435,0,0,0,126.672,51.04Zm-21.281,3.1a7.21,7.21,0,0,1,2.93-2.96,9.059,9.059,0,0,1,4.456-1.058,8.82,8.82,0,0,1,4.547,1.129,7.523,7.523,0,0,1,2.919,3.021,8.762,8.762,0,0,1,1,4.15,8.059,8.059,0,0,1-2.35,6.114,8.531,8.531,0,0,1-6.154,2.248,8.935,8.935,0,0,1-4.333-1.038,7.328,7.328,0,0,1-2.971-2.94,8.7,8.7,0,0,1-1.058-4.3A9.115,9.115,0,0,1,105.391,54.143Zm57.39-3.977v-5.92H135.274v5.92h10.132v22.5h7.162v-22.5h10.213Zm15.112,5.086V44.245h-7.161V72.667h7.161V61.212h13.753V72.667h7.162V44.245h-7.162V55.251H177.893Z"/>
</svg>
