<svg xmlns="http://www.w3.org/2000/svg" width="990" height="72"><path d="M67.52 17.161a2.372 2.372 0 00-1.143-2.147 7.985 7.985 0 00-3.967-.715H18.831V30.42h26.362a13.136 13.136 0 004.17-.519 2.21 2.21 0 001.479-2.342h2.421V46.28h-2.421q0-2.988-1.479-3.834a8.5 8.5 0 00-4.17-.846H18.831v25.22a1.875 1.875 0 001.143 1.754 6.324 6.324 0 002.892.586v2.339H.003V69.16q3.5 0 3.5-2.34V7.798q0-2.336-3.5-2.34V3.12h62.41a6.918 6.918 0 003.967-.844A2.687 2.687 0 0067.523 0h2.421v17.161zm1.883 52a3.956 3.956 0 002.757-1.692 27.6 27.6 0 001.95-3.25l24.883-50.568q.939-1.69 1.681-3.121a5.586 5.586 0 00.74-2.471 1.9 1.9 0 00-.942-1.818 8.237 8.237 0 00-2.017-.782V3.12h22.731v2.339a11.488 11.488 0 00-1.884.715 1.884 1.884 0 00-.941 1.885 4.975 4.975 0 00.471 2.08q.469 1.042 1.412 2.731l27.976 52.91a4.465 4.465 0 001.817 2.08 27.878 27.878 0 002.622 1.3v2.339h-23.672V69.16a3.274 3.274 0 001.345-.391 1.249 1.249 0 00.807-1.17 7.919 7.919 0 00-1.076-3.381l-5.111-9.619H92.133l-4.842 9.231a10.648 10.648 0 00-1.345 3.9q0 1.43 2.555 1.43v2.339h-19.1zm50.707-24.18l-11.3-24.182-12.643 24.182zm48.957 5.068l1.346.651a3.991 3.991 0 00.538 2.08 9.451 9.451 0 003.7 3.054 38.184 38.184 0 006.322 2.666 56.117 56.117 0 007.465 1.885 39.193 39.193 0 006.994.715q2.286 0 5.918-.324a36.342 36.342 0 007.128-1.365 20.33 20.33 0 006.053-2.862 5.635 5.635 0 002.555-4.808 4.813 4.813 0 00-2.353-4.42 17.619 17.619 0 00-6.188-2.08 69.159 69.159 0 00-8.742-.846q-4.911-.2-10.02-.586a94.024 94.024 0 01-10.021-1.3 28.327 28.327 0 01-8.742-3.054 17.116 17.116 0 01-6.187-5.85 17.81 17.81 0 01-2.354-9.686 17.54 17.54 0 011.95-7.929 19.406 19.406 0 015.986-6.891 33.468 33.468 0 0110.221-4.875 50.069 50.069 0 0114.527-1.885 64.587 64.587 0 0112.374 1.039q5.245 1.044 9.079 2.211t6.456 2.209a12.331 12.331 0 004.371 1.041 3.788 3.788 0 002.69-.781l1.615 1.041-9.282 16.25-1.344-.519a7.027 7.027 0 00-1.077-2.991 11.356 11.356 0 00-3.564-3.054 31.546 31.546 0 00-5.851-2.666 48.881 48.881 0 00-7.262-1.885 43.4 43.4 0 00-7.8-.715 42.93 42.93 0 00-6.119.455 29.81 29.81 0 00-5.717 1.365 12.75 12.75 0 00-4.236 2.405 4.756 4.756 0 00-1.682 3.705 5.236 5.236 0 002.354 4.679 17.447 17.447 0 006.187 2.34 59.947 59.947 0 008.742 1.041q4.909.261 10.021.651a83.942 83.942 0 0110.02 1.365 29.5 29.5 0 018.742 3.119 16.065 16.065 0 018.541 15.275 16.317 16.317 0 01-3.7 11.049 26.011 26.011 0 01-9.214 6.762 42.617 42.617 0 01-11.9 3.314 91.2 91.2 0 01-11.9.844 81.74 81.74 0 01-12.845-.844 49.049 49.049 0 01-8.608-2.08 58.038 58.038 0 01-5.448-2.211 8.323 8.323 0 00-3.5-.974 2.247 2.247 0 00-1.748 1.041l-1.884-1.041zm137.461-42.25q0-2.336-2.959-2.34V3.12h20.713v2.339a2.637 2.637 0 00-1.682.586 2.1 2.1 0 00-.739 1.754V66.82a2.1 2.1 0 00.739 1.754 2.64 2.64 0 001.682.586v2.339h-20.713V69.16q2.957 0 2.959-2.34V42.378h-43.31V66.82a2.1 2.1 0 00.739 1.754 2.64 2.64 0 001.682.586v2.339H245.33V69.16q2.553 0 2.554-2.34V7.798q0-2.336-2.554-2.34V3.12h20.309v2.339a2.637 2.637 0 00-1.682.586 2.1 2.1 0 00-.739 1.754v22.1h43.31zm32.415 61.362q3.5 0 3.5-2.34V7.799q0-2.336-3.5-2.34V3.12h22.327v2.339q-3.5 0-3.5 2.34V66.82q0 2.337 3.5 2.34v2.339h-22.327zm76.53-66.821a55.775 55.775 0 0115.065 2.145 47.521 47.521 0 0113.988 6.435 35.3 35.3 0 0110.356 10.856 31.92 31.92 0 010 31.068A35.289 35.289 0 01444.526 63.7a44.078 44.078 0 01-13.988 6.24 59.188 59.188 0 01-30.129 0 44.048 44.048 0 01-13.988-6.24 35.279 35.279 0 01-10.357-10.856 31.919 31.919 0 010-31.068 35.3 35.3 0 0110.357-10.856 47.486 47.486 0 0113.988-6.435 55.756 55.756 0 0115.064-2.145zm0 11.959a34.884 34.884 0 00-10.222 1.561 31.671 31.671 0 00-9.213 4.484 23.6 23.6 0 00-6.658 7.215 19.881 19.881 0 000 19.5 23.582 23.582 0 006.658 7.217 31.671 31.671 0 009.213 4.484 34.262 34.262 0 0020.445 0 31.747 31.747 0 009.213-4.484 23.643 23.643 0 006.658-7.217 19.874 19.874 0 000-19.5 23.659 23.659 0 00-6.658-7.215 31.747 31.747 0 00-9.213-4.484 34.905 34.905 0 00-10.223-1.561zm55.146 54.862q2.553 0 2.555-2.34V7.799q0-2.336-2.555-2.34V3.12h23v2.339c-.719 0-1.077.436-1.077 1.3 0 .7.9 1.906 2.691 3.641l38.6 38.738V7.798q0-2.336-3.5-2.34V3.12h20.31v2.339q-2.556 0-2.555 2.34V66.82q0 2.337 2.555 2.34v2.339h-21.789V69.16c1.164 0 1.749-.391 1.749-1.17q0-.909-2.152-2.991L487.427 23.66v43.16q0 2.337 3.094 2.34v2.339h-19.906zm136.784-19.112l1.345.651a3.992 3.992 0 00.539 2.08 9.451 9.451 0 003.7 3.054 38.184 38.184 0 006.322 2.666 56.122 56.122 0 007.465 1.885 39.185 39.185 0 006.994.715q2.284 0 5.918-.324a36.342 36.342 0 007.128-1.365 20.33 20.33 0 006.053-2.862 5.635 5.635 0 002.555-4.808 4.812 4.812 0 00-2.353-4.42 17.626 17.626 0 00-6.188-2.08 69.163 69.163 0 00-8.742-.846q-4.911-.2-10.02-.586a93.991 93.991 0 01-10.021-1.3 28.327 28.327 0 01-8.742-3.054 17.127 17.127 0 01-6.188-5.85 17.819 17.819 0 01-2.353-9.686 17.542 17.542 0 011.95-7.929 19.414 19.414 0 015.985-6.891 33.488 33.488 0 0110.222-4.875 50.067 50.067 0 0114.526-1.885 64.607 64.607 0 0112.375 1.039q5.245 1.044 9.079 2.211t6.456 2.209a12.331 12.331 0 004.371 1.041 3.788 3.788 0 002.69-.781l1.614 1.041-9.281 16.25-1.345-.519a7.029 7.029 0 00-1.076-2.991 11.358 11.358 0 00-3.564-3.054 31.572 31.572 0 00-5.851-2.666 48.884 48.884 0 00-7.262-1.885 43.413 43.413 0 00-7.8-.715 42.93 42.93 0 00-6.119.455 29.81 29.81 0 00-5.717 1.365 12.75 12.75 0 00-4.236 2.405 4.753 4.753 0 00-1.682 3.705 5.237 5.237 0 002.353 4.679 17.459 17.459 0 006.188 2.34 59.949 59.949 0 008.742 1.041q4.91.261 10.021.651a83.942 83.942 0 0110.02 1.365 29.505 29.505 0 018.742 3.119 16.065 16.065 0 018.541 15.275 16.317 16.317 0 01-3.7 11.049 26.01 26.01 0 01-9.214 6.762 42.627 42.627 0 01-11.9 3.314 91.2 91.2 0 01-11.9.844 81.74 81.74 0 01-12.845-.844 49.084 49.084 0 01-8.609-2.08 58.094 58.094 0 01-5.447-2.211 8.332 8.332 0 00-3.5-.974 2.248 2.248 0 00-1.748 1.041l-1.884-1.041zm140.153-42.25q0-2.336-2.959-2.34V3.12h20.714v2.339a2.637 2.637 0 00-1.682.586 2.1 2.1 0 00-.74 1.754V66.82a2.1 2.1 0 00.74 1.754 2.64 2.64 0 001.682.586v2.339h-20.714V69.16q2.958 0 2.959-2.34V42.378h-43.309V66.82a2.1 2.1 0 00.74 1.754 2.634 2.634 0 001.68.586v2.339h-20.309V69.16q2.553 0 2.556-2.34V7.798q0-2.336-2.556-2.34V3.12h20.309v2.339a2.631 2.631 0 00-1.68.586 2.1 2.1 0 00-.74 1.754v22.1h43.309zm73.573-5.459a55.768 55.768 0 0115.064 2.145 47.521 47.521 0 0113.988 6.435 35.32 35.32 0 0110.358 10.856 31.927 31.927 0 010 31.068A35.3 35.3 0 01850.181 63.7a44.077 44.077 0 01-13.988 6.24 59.184 59.184 0 01-30.128 0 44.058 44.058 0 01-13.988-6.24 35.268 35.268 0 01-10.357-10.856 31.92 31.92 0 010-31.068 35.284 35.284 0 0110.357-10.856 47.5 47.5 0 0113.988-6.435 55.757 55.757 0 0115.064-2.145zm0 11.959a34.878 34.878 0 00-10.222 1.561 31.683 31.683 0 00-9.213 4.484 23.6 23.6 0 00-6.658 7.215 19.873 19.873 0 000 19.5 23.58 23.58 0 006.658 7.217 31.683 31.683 0 009.213 4.484 34.259 34.259 0 0020.444 0 31.725 31.725 0 009.214-4.484 23.649 23.649 0 006.657-7.217 19.873 19.873 0 000-19.5 23.665 23.665 0 00-6.657-7.215 31.725 31.725 0 00-9.214-4.484 34.893 34.893 0 00-10.222-1.561zm70.614-8.84c-1.345 0-2.018.827-2.018 2.471a7.346 7.346 0 00.2 1.561 23.833 23.833 0 001.009 2.99l14.392 36.139h.268l14.258-36.661a20.649 20.649 0 00.874-2.535 6.474 6.474 0 00.2-1.494c0-1.644-.584-2.471-1.748-2.471V3.12h23v2.339a1.464 1.464 0 00-1.346.651 2.673 2.673 0 00-.4 1.43 13.424 13.424 0 001.346 4.419l14.391 36.661h.269l14.526-37.44a8.247 8.247 0 00.942-3.51 2.182 2.182 0 00-.673-1.5 2.15 2.15 0 00-1.613-.715V3.12h19.906v2.339a2.371 2.371 0 00-2.22 1.561q-.741 1.559-1.681 3.9l-19.369 49.661-1.412 3.638a7.525 7.525 0 00-.6 2.6 2.3 2.3 0 00.673 1.625 2.459 2.459 0 001.882.715v2.339h-21.256v-2.339a8.3 8.3 0 001.682-.782 1.591 1.591 0 00.874-1.429 6.99 6.99 0 00-.471-2.34q-.472-1.3-1.546-3.641l-15.468-38.349h-.269l-14.661 37.57q-2.017 5.071-2.018 6.369a2.4 2.4 0 001.749 2.6v2.339h-20.848v-2.339a3.685 3.685 0 001.614-.391 1.339 1.339 0 00.807-1.3 5.931 5.931 0 00-.471-2.209q-.471-1.169-1.009-2.47l-21.519-53.69a13.812 13.812 0 00-1.144-2.4 2.791 2.791 0 00-1.95-1.237V3.12h20.848z" opacity=".1" fill="#fed438"/><path fill="none" d="M0 0h990v72H0z"/></svg>