<svg xmlns="http://www.w3.org/2000/svg" width="543" height="74" viewBox="0 0 543 74">
  <defs>
    <style>
      .cls-1 {
        fill: #fed438;
        fill-rule: evenodd;
        opacity: 0.1;
      }
    </style>
  </defs>
  <path id="FLOWER" class="cls-1" d="M66.36,13.661V0.945H19.719V72h17.9V41.991H66.36V29.174H37.623V13.661H66.36ZM106.989,57.3V0.945h-17.9V72h50.1V57.3h-32.2ZM230.982,17.933A33.482,33.482,0,0,0,217.351,4.81q-8.9-4.78-20.9-4.781-13.224,0-22.125,5.264a33.513,33.513,0,0,0-13.173,13.58A38.239,38.239,0,0,0,156.875,36.6a36.938,36.938,0,0,0,4.578,18.158,33.6,33.6,0,0,0,13.428,13.224q8.85,4.934,21.26,4.934,12.309,0,21.261-4.883a33.826,33.826,0,0,0,13.631-13.173A36.709,36.709,0,0,0,235.712,36.5,36.978,36.978,0,0,0,230.982,17.933Zm-53.2,7.757a18.006,18.006,0,0,1,7.324-7.4,22.645,22.645,0,0,1,11.139-2.645,22.049,22.049,0,0,1,11.368,2.823,18.819,18.819,0,0,1,7.3,7.553A21.922,21.922,0,0,1,217.4,36.4q0,9.664-5.875,15.284T196.141,57.3a22.346,22.346,0,0,1-10.834-2.594,18.337,18.337,0,0,1-7.426-7.35A21.755,21.755,0,0,1,175.237,36.6,22.775,22.775,0,0,1,177.78,25.69ZM285.191,43.263L269.017,0.945H250.605l29.5,71.767h9.359l20.091-46.641,19.887,46.641h9.206L368.606,0.945H350.4L333.816,43.263,316.421,0.945H302.892Zm150.086-29.6V0.945H386.652V72h49.439V59.284H404.556V41.991H433.9V29.275H404.556V13.661h30.721Zm72.672-6.816q-6.612-5.9-18.819-5.9H459.579V72h17.9V43.364h3.2a15.207,15.207,0,0,1,5.747.941,12.286,12.286,0,0,1,4.527,3.586,41.472,41.472,0,0,1,4.934,8.087L504.135,72h19.582L514.46,54.1a64.528,64.528,0,0,0-5.8-9.181,19.882,19.882,0,0,0-5.8-4.908,19.472,19.472,0,0,0,8.774-7.121,18.883,18.883,0,0,0,2.924-10.478Q514.561,12.746,507.949,6.845ZM493.4,29.759q-2.9,2.01-8.444,2.009h-7.476V13.152h7.782q11.036,0,11.037,9.461Q496.3,27.75,493.4,29.759Z"/>
</svg>
