<svg xmlns="http://www.w3.org/2000/svg" width="900" height="74"><path fill="none" d="M0 0h900v74H0z"/><path d="M67.52 18.16a2.366 2.366 0 00-1.143-2.144 7.956 7.956 0 00-3.968-.716H18.831v16.12h26.361a13.114 13.114 0 004.17-.519 2.208 2.208 0 001.48-2.34h2.42v18.724h-2.42q0-2.99-1.48-3.834a8.492 8.492 0 00-4.17-.846H18.831v25.221a1.874 1.874 0 001.142 1.754 6.326 6.326 0 002.893.585v2.34H0v-2.34q3.5 0 3.5-2.339V8.805q0-2.34-3.5-2.34v-2.34h62.409a6.922 6.922 0 003.968-.844 2.689 2.689 0 001.143-2.276h2.422v17.16zm54.066-14.82a55.75 55.75 0 0115.065 2.145 47.535 47.535 0 0113.988 6.435 35.367 35.367 0 0110.358 10.856 31.922 31.922 0 010 31.07A35.338 35.338 0 01150.639 64.7a43.993 43.993 0 01-13.988 6.24 59.145 59.145 0 01-30.129 0 43.984 43.984 0 01-13.988-6.24 35.285 35.285 0 01-10.356-10.854 31.922 31.922 0 010-31.07A35.313 35.313 0 0192.534 11.92a47.524 47.524 0 0113.988-6.435 55.742 55.742 0 0115.064-2.145zm0 11.96a34.886 34.886 0 00-10.222 1.56 31.626 31.626 0 00-9.213 4.486 23.57 23.57 0 00-6.658 7.215 19.881 19.881 0 000 19.5 23.611 23.611 0 006.658 7.215 31.634 31.634 0 009.213 4.484 34.252 34.252 0 0020.445 0 31.7 31.7 0 009.213-4.484 23.672 23.672 0 006.658-7.215 19.88 19.88 0 000-19.5 23.632 23.632 0 00-6.658-7.215 31.687 31.687 0 00-9.213-4.486 34.9 34.9 0 00-10.223-1.56zm97.92-11.96a55.75 55.75 0 0115.065 2.145 47.537 47.537 0 0113.988 6.435 35.352 35.352 0 0110.357 10.856 31.916 31.916 0 010 31.07A35.324 35.324 0 01248.559 64.7a44 44 0 01-13.988 6.24 59.145 59.145 0 01-30.129 0 43.986 43.986 0 01-13.988-6.24 35.286 35.286 0 01-10.356-10.854 31.922 31.922 0 010-31.07 35.315 35.315 0 0110.356-10.856 47.525 47.525 0 0113.988-6.435 55.742 55.742 0 0115.064-2.145zm0 11.96a34.886 34.886 0 00-10.222 1.56 31.626 31.626 0 00-9.213 4.486 23.57 23.57 0 00-6.658 7.215 19.88 19.88 0 000 19.5 23.61 23.61 0 006.658 7.215 31.634 31.634 0 009.213 4.484 34.252 34.252 0 0020.445 0 31.7 31.7 0 009.213-4.484 23.672 23.672 0 006.658-7.215 19.88 19.88 0 000-19.5 23.632 23.632 0 00-6.658-7.215 31.687 31.687 0 00-9.213-4.486 34.9 34.9 0 00-10.223-1.56zM319.709 4.12a44.354 44.354 0 0113.788 2.08 30.6 30.6 0 0111.095 6.305 29.228 29.228 0 017.4 10.66 44 44 0 010 30.29 29.2 29.2 0 01-7.4 10.66 30.53 30.53 0 01-11.095 6.305 44.3 44.3 0 01-13.788 2.08h-44.654v-2.34q3.094 0 3.094-2.339V8.8q0-2.34-3.094-2.34V4.12zm-5.378 57.2a51.537 51.537 0 0011.029-1.041 17.492 17.492 0 007.8-3.705 16.178 16.178 0 004.64-7.085 41.171 41.171 0 000-22.36 16.212 16.212 0 00-4.64-7.085 17.549 17.549 0 00-7.8-3.705 51.731 51.731 0 00-11.029-1.04h-20.845V61.32zm154.406 11.571a46.255 46.255 0 01-8.676-.716 27.181 27.181 0 01-6.457-2.015 21.713 21.713 0 01-4.707-2.925 42.618 42.618 0 01-3.565-3.315 67.24 67.24 0 01-5.984 4.356 31.275 31.275 0 01-5.65 2.859 23.722 23.722 0 01-6.188 1.43q-3.3.324-7.6.326a48.887 48.887 0 01-9.887-1.041 28.853 28.853 0 01-9.147-3.51 21.754 21.754 0 01-6.791-6.369 16.071 16.071 0 01-2.691-9.361 18.327 18.327 0 011.412-7.475 17.427 17.427 0 013.834-5.525 20.85 20.85 0 015.783-3.9 44.449 44.449 0 017.264-2.6v-.26a16.047 16.047 0 01-7.2-4.615 11.108 11.108 0 01-3.028-7.735 13.2 13.2 0 012.219-7.734 19.2 19.2 0 015.65-5.33 24.7 24.7 0 017.8-3.121 38.186 38.186 0 0117.149 0 24.781 24.781 0 017.734 3.121 19.165 19.165 0 015.648 5.33 13.182 13.182 0 012.221 7.734 12.293 12.293 0 01-2.623 7.865 12.546 12.546 0 01-5.717 4.356 10.036 10.036 0 012.825 2.795 30.357 30.357 0 011.882 3.25 96.12 96.12 0 011.481 3.119 7.6 7.6 0 001.613 2.4 38.055 38.055 0 014.707-6.5 55.336 55.336 0 015.381-5.264 41.464 41.464 0 014.908-3.641 13.43 13.43 0 013.3-1.625 7.556 7.556 0 001.209-.585.967.967 0 00.539-.845h1.346v20.02h-1.345a10.855 10.855 0 00-.875-1.82 2.212 2.212 0 00-2.084-1.04 4.656 4.656 0 00-3.094 1.3 14.968 14.968 0 00-2.689 3.185 36.3 36.3 0 00-2.152 3.836 24.508 24.508 0 00-1.346 3.25 22.87 22.87 0 004.506 4.224 9.49 9.49 0 004.91 2.015q1.881 0 2.353-1.17a6.919 6.919 0 00.471-2.6h1.346zm-62.545-22.1a10.227 10.227 0 001.48 5.59 11.415 11.415 0 003.9 3.771 18.207 18.207 0 005.312 2.08 26.054 26.054 0 005.717.649 15.955 15.955 0 005.178-.845 20.288 20.288 0 004.506-2.144 13.23 13.23 0 003.3-2.926 7.2 7.2 0 001.546-3.314 20.884 20.884 0 01-2.959-5.4 30.129 30.129 0 00-2.152-4.809 9.711 9.711 0 00-3.226-3.446q-2.019-1.3-6.188-1.3a26.115 26.115 0 00-5.717.65 18.289 18.289 0 00-5.312 2.08 11.662 11.662 0 00-3.9 3.705 10.155 10.155 0 00-1.485 5.653zm17.486-37.83a14.348 14.348 0 00-8 2.146q-3.3 2.143-3.3 6.694t3.3 6.695a16 16 0 0016.006 0q3.3-2.145 3.295-6.695t-3.295-6.694a14.346 14.346 0 00-8.006-2.147zM558.311 4.12a44.347 44.347 0 0113.787 2.08 30.6 30.6 0 0111.1 6.305 29.239 29.239 0 017.4 10.66 43.98 43.98 0 010 30.29 29.212 29.212 0 01-7.4 10.66 30.533 30.533 0 01-11.1 6.305 44.289 44.289 0 01-13.787 2.08h-44.654v-2.34q3.093 0 3.093-2.339V8.8q0-2.34-3.093-2.34V4.12zm-5.379 57.2a51.526 51.526 0 0011.029-1.041 17.489 17.489 0 007.8-3.705 16.173 16.173 0 004.641-7.085 41.171 41.171 0 000-22.36 16.207 16.207 0 00-4.641-7.085 17.546 17.546 0 00-7.8-3.705 51.72 51.72 0 00-11.029-1.04h-20.846V61.32zm97.914-57.2a57.071 57.071 0 0111.7 1.1 26.964 26.964 0 019.01 3.51 16.369 16.369 0 015.785 6.24 20.075 20.075 0 012.018 9.426q0 8.578-5.246 13.129t-14.123 6.111l17.888 24.7a3.645 3.645 0 002.219 1.561 11.908 11.908 0 002.356.259v2.34H657.3v-2.34a5.086 5.086 0 002.084-.39c.582-.26.875-.606.875-1.039a2.9 2.9 0 00-.539-1.5q-.539-.844-1.613-2.275l-14.795-20.28h-19.226v23.141a1.967 1.967 0 00.875 1.754 6.063 6.063 0 003.16.585v2.34h-23.27v-2.34q3.9 0 3.9-2.339V8.792q0-2.34-3.9-2.34v-2.34zm-3.5 30.42a38.064 38.064 0 008.07-.715 14.527 14.527 0 005.112-2.014 7.6 7.6 0 002.689-3.056 9.516 9.516 0 000-7.67 7.622 7.622 0 00-2.689-3.055 14.564 14.564 0 00-5.112-2.014 38.122 38.122 0 00-8.07-.716h-23.26v19.24zm45.598 35.62q3.495 0 3.5-2.339V8.8q0-2.34-3.5-2.34V4.12h22.328v2.34q-3.5 0-3.5 2.34v59.021q0 2.339 3.5 2.339v2.34h-22.328zm36.449 0q2.555 0 2.555-2.339V8.8q0-2.34-2.555-2.34V4.12h23v2.34c-.719 0-1.076.435-1.076 1.3q0 1.042 2.689 3.641l38.6 38.74V8.8q0-2.34-3.5-2.34V4.12h20.31v2.34q-2.557 0-2.556 2.34v59.021q0 2.339 2.556 2.339v2.34h-21.791v-2.34q1.749 0 1.75-1.17 0-.907-2.152-2.99L746.2 24.66v43.161q0 2.339 3.093 2.339v2.34h-19.906zm111.1-2.339a2.022 2.022 0 00.806 1.754 3.117 3.117 0 001.883.585v2.34H822.2v-2.34q2.955 0 2.959-2.339V8.8q0-2.34-2.959-2.34V4.12h20.986v2.34a3.117 3.117 0 00-1.883.585 2.023 2.023 0 00-.806 1.755v24.7l27.841-21.189q1.881-1.562 2.959-2.535t1.077-1.625a1.435 1.435 0 00-.606-1.3 2.553 2.553 0 00-1.412-.39v-2.34H898.6v2.34a7.726 7.726 0 00-4.842 1.95l-30.935 23.79 28.246 31.59a33.981 33.981 0 004.1 3.835 13.331 13.331 0 004.641 2.535v2.34h-24.883v-2.34q1.746 0 1.748-.91 0-.648-1.882-2.859l-23-25.611-11.3 8.451z" opacity=".1" fill="#fed438"/></svg>