<svg xmlns="http://www.w3.org/2000/svg" width="238" height="74"><path d="M29.072 7.389a1.021 1.021 0 00-.492-.925 3.439 3.439 0 00-1.708-.308H8.104v6.94h11.35a5.66 5.66 0 001.8-.223.951.951 0 00.637-1.008h1.042v8.061h-1.042q0-1.286-.637-1.651a3.655 3.655 0 00-1.8-.364H8.104V28.77a.807.807 0 00.492.755 2.72 2.72 0 001.245.252v1.007H.004v-1.007q1.506 0 1.506-1.008V3.357q0-1.006-1.506-1.008V1.342h26.871a2.98 2.98 0 001.708-.363 1.157 1.157 0 00.492-.98h1.042v7.389zm.81 22.388a1.7 1.7 0 001.187-.729 11.83 11.83 0 00.84-1.4L42.623 5.876q.4-.727.724-1.344a2.4 2.4 0 00.319-1.063.818.818 0 00-.406-.783 3.545 3.545 0 00-.868-.337V1.343h9.787V2.35a4.936 4.936 0 00-.811.308.81.81 0 00-.405.812 2.141 2.141 0 00.2.9q.2.449.608 1.176l12.045 22.78a1.922 1.922 0 00.782.9 11.98 11.98 0 001.129.56v1.007H55.535v-1.007a1.417 1.417 0 00.579-.168.539.539 0 00.347-.5 3.411 3.411 0 00-.463-1.456l-2.2-4.142h-14.13l-2.085 3.975a4.587 4.587 0 00-.579 1.679q0 .616 1.1.616v1.007h-8.222zm21.832-10.411L46.849 8.954l-5.443 10.412zm21.079 2.182l.58.28a1.719 1.719 0 00.232.9 4.07 4.07 0 001.592 1.315 16.455 16.455 0 002.722 1.148 24.2 24.2 0 003.214.812 16.885 16.885 0 003.011.308q.984 0 2.548-.14a15.639 15.639 0 003.069-.587 8.758 8.758 0 002.606-1.232 2.425 2.425 0 001.1-2.07 2.072 2.072 0 00-1.013-1.9 7.59 7.59 0 00-2.664-.9 29.9 29.9 0 00-3.764-.364q-2.114-.085-4.314-.252a40.553 40.553 0 01-4.315-.56 12.188 12.188 0 01-3.764-1.315 7.366 7.366 0 01-2.664-2.519 7.665 7.665 0 01-1.014-4.17 7.555 7.555 0 01.839-3.414 8.355 8.355 0 012.577-2.967 14.406 14.406 0 014.4-2.1 21.565 21.565 0 016.255-.812 27.819 27.819 0 015.328.447q2.258.45 3.909.952t2.78.951a5.31 5.31 0 001.882.448 1.632 1.632 0 001.158-.336l.7.448-4 7-.579-.223a3.024 3.024 0 00-.464-1.288 4.887 4.887 0 00-1.534-1.315 13.55 13.55 0 00-2.519-1.148 21.059 21.059 0 00-3.127-.812 18.177 18.177 0 00-5.994-.112 12.825 12.825 0 00-2.461.588 5.49 5.49 0 00-1.824 1.036 2.048 2.048 0 00-.724 1.6 2.254 2.254 0 001.014 2.015 7.506 7.506 0 002.664 1.007 25.714 25.714 0 003.764.448q2.114.112 4.315.28a36.115 36.115 0 014.314.587 12.713 12.713 0 013.764 1.343 6.917 6.917 0 013.677 6.577 7.026 7.026 0 01-1.592 4.757 11.2 11.2 0 01-3.967 2.911 18.363 18.363 0 01-5.125 1.427 39.3 39.3 0 01-5.125.363 35.224 35.224 0 01-5.531-.363 21.168 21.168 0 01-3.706-.9 25.141 25.141 0 01-2.346-.952 3.581 3.581 0 00-1.506-.42.969.969 0 00-.753.448l-.811-.448zm59.184-18.191q0-1.006-1.274-1.007V1.343h8.918V2.35a1.136 1.136 0 00-.724.252.9.9 0 00-.318.755v25.412a.906.906 0 00.318.756 1.135 1.135 0 00.724.252v1.007h-8.92v-1.007q1.273 0 1.274-1.008V18.243h-18.647v10.523a.9.9 0 00.318.756 1.135 1.135 0 00.724.252v1.007h-8.744v-1.007q1.1 0 1.1-1.008V3.354q0-1.006-1.1-1.007V1.343h8.744V2.35a1.136 1.136 0 00-.724.252.9.9 0 00-.318.755v9.517h18.647zm13.958 26.42q1.5 0 1.506-1.008V3.357q0-1.006-1.506-1.007V1.343h9.613V2.35q-1.507 0-1.506 1.007v25.412q0 1.006 1.506 1.008v1.007h-9.613zm32.95-28.77a24.027 24.027 0 016.486.923 20.479 20.479 0 016.023 2.771 15.205 15.205 0 014.459 4.674 13.743 13.743 0 010 13.376 15.189 15.189 0 01-4.459 4.674 18.977 18.977 0 01-6.023 2.687 25.48 25.48 0 01-12.972 0 18.964 18.964 0 01-6.023-2.687 15.186 15.186 0 01-4.459-4.674 13.743 13.743 0 010-13.376 15.2 15.2 0 014.459-4.674 20.464 20.464 0 016.023-2.771 24.017 24.017 0 016.486-.923zm0 5.149a15.022 15.022 0 00-4.4.672 13.648 13.648 0 00-3.967 1.931 10.169 10.169 0 00-2.867 3.106 8.561 8.561 0 000 8.4 10.151 10.151 0 002.867 3.107 13.636 13.636 0 003.967 1.931 14.752 14.752 0 008.8 0 13.667 13.667 0 003.967-1.931 10.178 10.178 0 002.867-3.107 8.557 8.557 0 000-8.4 10.2 10.2 0 00-2.867-3.106 13.679 13.679 0 00-3.967-1.931 15.032 15.032 0 00-4.4-.672zm23.743 23.621q1.1 0 1.1-1.008V3.357q0-1.006-1.1-1.007V1.343h9.9V2.35c-.31 0-.464.188-.464.56 0 .3.386.821 1.159 1.568l16.62 16.679v-17.8q0-1.006-1.506-1.007V1.343h8.745V2.35q-1.1 0-1.1 1.007v25.412q0 1.006 1.1 1.008v1.007h-9.381v-1.007c.5 0 .753-.168.753-.5q0-.391-.927-1.288l-17.663-17.8v18.582q0 1.006 1.332 1.008v1.007h-8.571zM38.185 64.548l.579.28a1.719 1.719 0 00.232.9 4.071 4.071 0 001.592 1.315 16.458 16.458 0 002.722 1.148 24.207 24.207 0 003.214.812 16.88 16.88 0 003.011.308q.984 0 2.548-.14a15.642 15.642 0 003.069-.587 8.758 8.758 0 002.606-1.232 2.426 2.426 0 001.1-2.07 2.072 2.072 0 00-1.013-1.9 7.6 7.6 0 00-2.664-.9 29.905 29.905 0 00-3.764-.364q-2.115-.085-4.314-.252a40.539 40.539 0 01-4.315-.56 12.187 12.187 0 01-3.764-1.315 7.373 7.373 0 01-2.664-2.519 7.67 7.67 0 01-1.013-4.17 7.553 7.553 0 01.84-3.414 8.359 8.359 0 012.577-2.967 14.414 14.414 0 014.4-2.1 21.563 21.563 0 016.254-.812 27.827 27.827 0 015.328.447q2.258.45 3.909.952t2.78.951a5.309 5.309 0 001.882.448 1.631 1.631 0 001.158-.336l.7.448-4 7-.579-.223a3.026 3.026 0 00-.463-1.288 4.888 4.888 0 00-1.535-1.315 13.556 13.556 0 00-2.519-1.148 21.062 21.062 0 00-3.127-.812 18.178 18.178 0 00-5.994-.112 12.828 12.828 0 00-2.462.588 5.489 5.489 0 00-1.824 1.036 2.046 2.046 0 00-.724 1.6 2.255 2.255 0 001.013 2.015 7.51 7.51 0 002.664 1.007 25.714 25.714 0 003.764.448q2.114.112 4.315.28a36.11 36.11 0 014.314.587 12.714 12.714 0 013.764 1.343 6.917 6.917 0 013.677 6.577 7.025 7.025 0 01-1.592 4.757A11.2 11.2 0 0159.9 72.17a18.368 18.368 0 01-5.125 1.427 39.3 39.3 0 01-5.125.363 35.221 35.221 0 01-5.531-.363 21.182 21.182 0 01-3.707-.9 25.2 25.2 0 01-2.345-.952 3.584 3.584 0 00-1.506-.42.969.969 0 00-.753.448l-.811-.448zm60.338-18.191q0-1.006-1.274-1.007v-1.007h8.919v1.007a1.136 1.136 0 00-.724.252.9.9 0 00-.319.755v25.412a.9.9 0 00.319.756 1.135 1.135 0 00.724.252v1.007h-8.919v-1.007q1.274 0 1.274-1.008V61.243H79.876v10.523a.9.9 0 00.319.756 1.132 1.132 0 00.723.252v1.007h-8.744v-1.007q1.1 0 1.1-1.008V46.354q0-1.006-1.1-1.007v-1.004h8.749v1.007a1.133 1.133 0 00-.723.252.9.9 0 00-.319.755v9.517h18.642zm31.681-2.35a24.023 24.023 0 016.486.923 20.478 20.478 0 016.023 2.771 15.215 15.215 0 014.46 4.674 13.746 13.746 0 010 13.376 15.2 15.2 0 01-4.46 4.674 18.976 18.976 0 01-6.023 2.687 25.478 25.478 0 01-12.972 0 18.967 18.967 0 01-6.023-2.687 15.179 15.179 0 01-4.459-4.674 13.743 13.743 0 010-13.376 15.2 15.2 0 014.459-4.674 20.468 20.468 0 016.023-2.771 24.017 24.017 0 016.486-.923zm0 5.149a15.019 15.019 0 00-4.4.672 13.65 13.65 0 00-3.967 1.931 10.165 10.165 0 00-2.867 3.106 8.557 8.557 0 000 8.4 10.147 10.147 0 002.867 3.107 13.638 13.638 0 003.967 1.931 14.751 14.751 0 008.8 0 13.653 13.653 0 003.967-1.931 10.178 10.178 0 002.866-3.107 8.557 8.557 0 000-8.4 10.2 10.2 0 00-2.866-3.106 13.665 13.665 0 00-3.967-1.931 15.026 15.026 0 00-4.4-.672zm30.404-3.806c-.579 0-.869.356-.869 1.064a3.16 3.16 0 00.087.672 10.234 10.234 0 00.435 1.288l6.2 15.56h.115l6.139-15.785a8.967 8.967 0 00.376-1.091 2.792 2.792 0 00.086-.644c0-.708-.251-1.064-.753-1.064v-1.007h9.9v1.007a.63.63 0 00-.58.28 1.152 1.152 0 00-.173.616 5.784 5.784 0 00.579 1.9l6.2 15.785h.116l6.254-16.12a3.551 3.551 0 00.405-1.511.938.938 0 00-.29-.644.926.926 0 00-.695-.308v-1.005h8.571v1.007a1.021 1.021 0 00-.956.672q-.319.671-.724 1.679l-8.339 21.382q-.348.9-.608 1.566a3.246 3.246 0 00-.26 1.12.99.99 0 00.29.7 1.059 1.059 0 00.81.308v1.007h-9.15v-1.007a3.557 3.557 0 00.724-.337.684.684 0 00.376-.615 3.01 3.01 0 00-.2-1.008q-.2-.559-.666-1.567l-6.66-16.511h-.116l-6.312 16.176a11.1 11.1 0 00-.869 2.742 1.033 1.033 0 00.753 1.12v1.007h-8.976v-1.007a1.592 1.592 0 00.695-.168.578.578 0 00.347-.561 2.554 2.554 0 00-.2-.951q-.2-.5-.435-1.063l-9.265-23.116a5.932 5.932 0 00-.492-1.035 1.2 1.2 0 00-.84-.533v-1.007h8.976z" opacity=".1" fill="#fed438"/><path fill="none" d="M0 0h238v74H0z"/></svg>