<svg xmlns="http://www.w3.org/2000/svg" width="197" height="72.372"><path fill="none" d="M0 0h197v72H0z"/><path d="M28.286 7.604a.991.991 0 00-.479-.9 3.335 3.335 0 00-1.662-.3H7.886v6.753h11.043a5.5 5.5 0 001.747-.217.925.925 0 00.62-.98h1.014v7.842h-1.014q0-1.252-.62-1.606a3.557 3.557 0 00-1.747-.354H7.886v10.565a.785.785 0 00.479.735 2.654 2.654 0 001.212.245v.98H-.002v-.98q1.465 0 1.465-.98V3.682q0-.981-1.465-.98v-.98h26.145a2.9 2.9 0 001.662-.354 1.127 1.127 0 00.479-.953h1.015v7.188zm22.65-6.205a23.373 23.373 0 016.311.9 19.908 19.908 0 015.86 2.7 14.815 14.815 0 014.339 4.547 13.374 13.374 0 010 13.016 14.808 14.808 0 01-4.339 4.547 18.436 18.436 0 01-5.86 2.614 24.771 24.771 0 01-12.622 0 18.433 18.433 0 01-5.86-2.614 14.782 14.782 0 01-4.338-4.547 13.373 13.373 0 010-13.016 14.789 14.789 0 014.338-4.547 19.9 19.9 0 015.86-2.7 23.37 23.37 0 016.311-.9zm0 5.01a14.606 14.606 0 00-4.282.654 13.235 13.235 0 00-3.859 1.879 9.874 9.874 0 00-2.789 3.022 8.329 8.329 0 000 8.169 9.885 9.885 0 002.789 3.022 13.259 13.259 0 003.859 1.879 14.352 14.352 0 008.565 0 13.285 13.285 0 003.859-1.879 9.913 9.913 0 002.789-3.022 8.329 8.329 0 000-8.169 9.9 9.9 0 00-2.789-3.02 13.26 13.26 0 00-3.859-1.879 14.612 14.612 0 00-4.283-.656zm41.02-5.01a23.374 23.374 0 016.311.9 19.908 19.908 0 015.86 2.7 14.808 14.808 0 014.339 4.547 13.371 13.371 0 010 13.016 14.8 14.8 0 01-4.339 4.547 18.436 18.436 0 01-5.86 2.614 24.771 24.771 0 01-12.622 0 18.435 18.435 0 01-5.86-2.614 14.784 14.784 0 01-4.338-4.547 13.373 13.373 0 010-13.016 14.791 14.791 0 014.338-4.547 19.907 19.907 0 015.86-2.7 23.371 23.371 0 016.311-.9zm0 5.01a14.606 14.606 0 00-4.282.654 13.235 13.235 0 00-3.859 1.879 9.874 9.874 0 00-2.789 3.022 8.329 8.329 0 000 8.169 9.885 9.885 0 002.789 3.022 13.259 13.259 0 003.859 1.879 14.352 14.352 0 008.565 0 13.283 13.283 0 003.859-1.879 9.911 9.911 0 002.789-3.022 8.329 8.329 0 000-8.169 9.9 9.9 0 00-2.789-3.022 13.258 13.258 0 00-3.859-1.879 14.612 14.612 0 00-4.283-.654zm41.976-4.683a18.583 18.583 0 015.776.872 12.81 12.81 0 014.648 2.641 12.245 12.245 0 013.1 4.465 18.429 18.429 0 010 12.689 12.23 12.23 0 01-3.1 4.466 12.79 12.79 0 01-4.648 2.642 18.554 18.554 0 01-5.776.871h-18.706v-.98q1.3 0 1.3-.979V3.691q0-.98-1.3-.98v-.98zm-2.253 23.963a21.6 21.6 0 004.62-.436 7.332 7.332 0 003.268-1.552 6.778 6.778 0 001.944-2.968 17.248 17.248 0 000-9.367 6.8 6.8 0 00-1.944-2.968 7.352 7.352 0 00-3.268-1.552 21.658 21.658 0 00-4.62-.436h-8.734v19.281zm64.686 4.847a19.351 19.351 0 01-3.635-.3 11.393 11.393 0 01-2.7-.844 9.111 9.111 0 01-1.972-1.225 17.91 17.91 0 01-1.493-1.389 28.168 28.168 0 01-2.507 1.825 13.1 13.1 0 01-2.367 1.2 9.943 9.943 0 01-2.592.6q-1.381.135-3.183.137a20.477 20.477 0 01-4.142-.437 12.079 12.079 0 01-3.832-1.47 9.109 9.109 0 01-2.845-2.668 6.731 6.731 0 01-1.127-3.921 7.679 7.679 0 01.592-3.132 7.294 7.294 0 011.606-2.314 8.738 8.738 0 012.423-1.634 18.635 18.635 0 013.043-1.089v-.109a6.723 6.723 0 01-3.014-1.933 4.653 4.653 0 01-1.268-3.241 5.526 5.526 0 01.93-3.24 8.044 8.044 0 012.367-2.233 10.349 10.349 0 013.268-1.308 16.008 16.008 0 017.184 0 10.38 10.38 0 013.24 1.308 8.032 8.032 0 012.366 2.233 5.521 5.521 0 01.93 3.24 5.15 5.15 0 01-1.1 3.295 5.259 5.259 0 01-2.395 1.825 4.2 4.2 0 011.183 1.171 12.707 12.707 0 01.788 1.361c.226.454.432.89.62 1.307a3.182 3.182 0 00.676 1.007 15.953 15.953 0 011.972-2.723 23.193 23.193 0 012.254-2.205 17.417 17.417 0 012.056-1.525 5.642 5.642 0 011.381-.681 3.18 3.18 0 00.506-.245.4.4 0 00.226-.354h.564v8.387h-.564a4.523 4.523 0 00-.367-.763.926.926 0 00-.873-.436 1.95 1.95 0 00-1.3.544 6.265 6.265 0 00-1.126 1.334 15.191 15.191 0 00-.9 1.606 10.325 10.325 0 00-.564 1.362 9.6 9.6 0 001.888 1.77 3.979 3.979 0 002.057.844q.788 0 .986-.49a2.9 2.9 0 00.2-1.089h.564zm-26.2-9.259a4.284 4.284 0 00.62 2.342 4.78 4.78 0 001.634 1.58 7.615 7.615 0 002.225.872 10.919 10.919 0 002.395.271 6.692 6.692 0 002.169-.354 8.516 8.516 0 001.888-.9 5.55 5.55 0 001.38-1.226 3.014 3.014 0 00.648-1.389 8.737 8.737 0 01-1.24-2.26 12.621 12.621 0 00-.9-2.015 4.071 4.071 0 00-1.352-1.444 4.885 4.885 0 00-2.592-.544 10.949 10.949 0 00-2.395.272 7.657 7.657 0 00-2.225.872 4.881 4.881 0 00-1.634 1.552 4.253 4.253 0 00-.623 2.371zm7.325-15.848a6.01 6.01 0 00-3.353.9 3.539 3.539 0 000 5.609 6.7 6.7 0 006.705 0 3.539 3.539 0 000-5.609 6.009 6.009 0 00-3.354-.9zM35.705 43.726a18.578 18.578 0 015.776.872 12.812 12.812 0 014.648 2.641 12.25 12.25 0 013.1 4.465 18.424 18.424 0 010 12.689 12.235 12.235 0 01-3.1 4.466 12.792 12.792 0 01-4.648 2.642 18.549 18.549 0 01-5.776.871H16.998v-.98q1.3 0 1.3-.979V45.691q0-.98-1.3-.98v-.98zm-2.253 23.963a21.59 21.59 0 004.62-.436 7.33 7.33 0 003.268-1.552 6.774 6.774 0 001.944-2.968 17.245 17.245 0 000-9.367 6.792 6.792 0 00-1.944-2.968 7.35 7.35 0 00-3.268-1.552 21.653 21.653 0 00-4.62-.436h-8.734v19.281zm41.019-23.963a23.889 23.889 0 014.9.463 11.3 11.3 0 013.775 1.47 6.861 6.861 0 012.423 2.614 8.411 8.411 0 01.845 3.949 6.888 6.888 0 01-2.2 5.5 12.01 12.01 0 01-5.917 2.56l7.494 10.347a1.527 1.527 0 00.93.654 5 5 0 00.987.108v.98H77.171v-.98a2.133 2.133 0 00.873-.163c.244-.109.367-.254.367-.436a1.216 1.216 0 00-.226-.626q-.226-.354-.676-.953l-6.2-8.5h-8.057v9.694a.824.824 0 00.366.734 2.539 2.539 0 001.324.245v.98h-9.748v-.98q1.634 0 1.635-.979V45.691q0-.98-1.635-.98v-.98zM73.006 56.47a15.947 15.947 0 003.381-.3 6.079 6.079 0 002.141-.844 3.187 3.187 0 001.126-1.28 3.986 3.986 0 000-3.213 3.189 3.189 0 00-1.126-1.279 6.1 6.1 0 00-2.141-.844 15.979 15.979 0 00-3.381-.3h-9.748v8.06zm19.101 14.921q1.464 0 1.465-.979V45.691q0-.98-1.465-.98v-.98h9.354v.98q-1.467 0-1.465.98v24.726q0 .979 1.465.979v.98h-9.354zm15.269 0q1.07 0 1.07-.979V45.691q0-.98-1.07-.98v-.98h9.635v.98c-.3 0-.451.182-.451.544q0 .437 1.126 1.525l16.171 16.229V45.691q0-.98-1.465-.98v-.98h8.508v.98q-1.071 0-1.071.98v24.726q0 .979 1.071.979v.98h-9.131v-.98q.733 0 .733-.49 0-.379-.9-1.252l-17.185-17.318v18.081q0 .979 1.3.979v.98h-8.339zm46.542-.979a.846.846 0 00.338.734 1.3 1.3 0 00.789.245v.98h-8.79v-.98q1.238 0 1.24-.979V45.691q0-.98-1.24-.98v-.98h8.79v.98a1.3 1.3 0 00-.789.245.847.847 0 00-.338.735v10.348l11.663-8.877q.788-.653 1.24-1.062t.451-.681a.6.6 0 00-.254-.545 1.069 1.069 0 00-.591-.163v-.98h11.832v.98a3.234 3.234 0 00-2.028.817l-12.96 9.963 11.833 13.234a14.257 14.257 0 001.718 1.607 5.576 5.576 0 001.944 1.062v.98h-10.425v-.98c.488 0 .732-.126.732-.381q0-.272-.788-1.2l-9.635-10.729-4.733 3.54z" opacity=".1" fill="#fed438"/></svg>