<svg xmlns="http://www.w3.org/2000/svg" width="451" height="75" viewBox="0 0 451 75">
  <defs>
    <style>
      .cls-1 {
        fill: #fed438;
        fill-rule: evenodd;
        opacity: 0.1;
      }
    </style>
  </defs>
  <path id="GOODS" class="cls-1" d="M66.487,16.339a47.784,47.784,0,0,1,11.546,4.883V6.421a83.352,83.352,0,0,0-13.987-4.2,71.962,71.962,0,0,0-13.58-1.2q-12.716,0-21.845,4.985A33.769,33.769,0,0,0,14.861,19.34,37.206,37.206,0,0,0,10.233,37.7a36.564,36.564,0,0,0,4.781,18.743A32.96,32.96,0,0,0,28.772,69.287,45.062,45.062,0,0,0,49.7,73.916a77.174,77.174,0,0,0,14.8-1.4,82.539,82.539,0,0,0,14.9-4.5V35.107H52.55V47.772H63.384V58.1a34.636,34.636,0,0,1-5.595,1.373,39.3,39.3,0,0,1-5.239.305,26.422,26.422,0,0,1-12.741-2.925,20.691,20.691,0,0,1-8.316-7.96,22.021,22.021,0,0,1-2.9-11.19,23.644,23.644,0,0,1,2.7-10.91,21.332,21.332,0,0,1,8.418-8.647q5.722-3.382,14.369-3.382A47.527,47.527,0,0,1,66.487,16.339Zm109.5,2.594A33.484,33.484,0,0,0,162.352,5.81q-8.9-4.78-20.9-4.781-13.226,0-22.125,5.264a33.515,33.515,0,0,0-13.174,13.58A38.25,38.25,0,0,0,101.877,37.6a36.948,36.948,0,0,0,4.577,18.158,33.612,33.612,0,0,0,13.428,13.224q8.85,4.934,21.261,4.934,12.308,0,21.26-4.883a33.828,33.828,0,0,0,13.632-13.173A36.709,36.709,0,0,0,180.714,37.5,36.978,36.978,0,0,0,175.984,18.933Zm-53.2,7.757a18.008,18.008,0,0,1,7.325-7.4,22.639,22.639,0,0,1,11.138-2.645,22.044,22.044,0,0,1,11.368,2.823,18.822,18.822,0,0,1,7.3,7.553A21.921,21.921,0,0,1,162.4,37.4q0,9.664-5.874,15.284T141.143,58.3a22.346,22.346,0,0,1-10.834-2.594,18.331,18.331,0,0,1-7.426-7.35A21.756,21.756,0,0,1,120.238,37.6,22.775,22.775,0,0,1,122.781,26.69Zm151.408-7.757A33.482,33.482,0,0,0,260.558,5.81q-8.9-4.78-20.9-4.781-13.224,0-22.125,5.264a33.513,33.513,0,0,0-13.173,13.58A38.239,38.239,0,0,0,200.082,37.6a36.938,36.938,0,0,0,4.578,18.158,33.612,33.612,0,0,0,13.428,13.224q8.85,4.934,21.26,4.934,12.309,0,21.261-4.883A33.826,33.826,0,0,0,274.24,55.859,36.709,36.709,0,0,0,278.919,37.5,36.968,36.968,0,0,0,274.189,18.933Zm-53.2,7.757a18.006,18.006,0,0,1,7.324-7.4,22.645,22.645,0,0,1,11.139-2.645,22.049,22.049,0,0,1,11.368,2.823,18.828,18.828,0,0,1,7.3,7.553A21.921,21.921,0,0,1,260.609,37.4q0,9.664-5.875,15.284T239.348,58.3a22.342,22.342,0,0,1-10.833-2.594,18.325,18.325,0,0,1-7.426-7.35A21.745,21.745,0,0,1,218.444,37.6,22.775,22.775,0,0,1,220.987,26.69Zm146.169-7.757A30.924,30.924,0,0,0,353.448,6.421Q344.319,1.946,331.4,1.945H301.441V73h31.027q19.072,0,29.169-9.384t10.1-26.321A36.437,36.437,0,0,0,367.156,18.933ZM347.7,54.308q-5.672,5.672-17.014,5.671H319.345V14.661h10.732q11.241,0,17.268,6T353.372,37.6Q353.372,48.637,347.7,54.308ZM427.24,2.53a44.691,44.691,0,0,0-11.571-1.5,29.861,29.861,0,0,0-13,2.594,19.272,19.272,0,0,0-8.239,7.07,18.4,18.4,0,0,0-2.823,10.02,18.126,18.126,0,0,0,2.619,9.893,23.335,23.335,0,0,0,6.256,6.714,76.611,76.611,0,0,0,8.825,5.264,59.9,59.9,0,0,1,8.367,4.628,12.944,12.944,0,0,1,3.586,3.382,6.582,6.582,0,0,1,.864,3.433,5.665,5.665,0,0,1-2.339,4.6q-2.341,1.857-6.816,1.856-10.122,0-20.8-8.545V68.016a50.768,50.768,0,0,0,23.092,5.9,31.2,31.2,0,0,0,12.893-2.543,20.241,20.241,0,0,0,8.8-7.222,19.038,19.038,0,0,0,3.128-10.834,17.909,17.909,0,0,0-2.518-9.74,24.005,24.005,0,0,0-6.612-6.867,98.87,98.87,0,0,0-11.215-6.536q-6.358-3.2-8.545-5.29a6.332,6.332,0,0,1-2.187-4.679,5.527,5.527,0,0,1,2.136-4.552q2.136-1.7,6.307-1.7,9.613,0,19.684,7.884V6.624A37.731,37.731,0,0,0,427.24,2.53Z"/>
</svg>
