<svg xmlns="http://www.w3.org/2000/svg" width="323" height="75"><path d="M0 28.973a1.655 1.655 0 001.155-.708 11.661 11.661 0 00.817-1.361L12.396 5.719q.393-.708.7-1.307a2.335 2.335 0 00.31-1.035.8.8 0 00-.395-.762 3.433 3.433 0 00-.845-.328v-.979h9.522v.979a4.755 4.755 0 00-.789.3.788.788 0 00-.394.79 2.081 2.081 0 00.2.872q.2.437.592 1.144l11.72 22.165a1.876 1.876 0 00.761.871 11.746 11.746 0 001.1.545v.98h-9.917v-.98a1.365 1.365 0 00.564-.164.522.522 0 00.338-.49 3.316 3.316 0 00-.451-1.416l-2.141-4.03H9.522l-2.028 3.867a4.451 4.451 0 00-.563 1.634q0 .6 1.07.6v.98h-8zm21.242-10.129l-4.733-10.13-5.3 10.13zM57.359 1.307a23.921 23.921 0 014.9.462 11.294 11.294 0 013.775 1.471 6.854 6.854 0 012.422 2.614 8.4 8.4 0 01.845 3.948 6.887 6.887 0 01-2.2 5.5 12.012 12.012 0 01-5.917 2.559l7.494 10.348a1.521 1.521 0 00.93.654 4.913 4.913 0 00.986.109v.98H60.057v-.98a2.126 2.126 0 00.873-.164c.244-.109.366-.253.366-.435a1.216 1.216 0 00-.225-.626 17.065 17.065 0 00-.676-.954l-6.2-8.5h-8.057v9.694a.827.827 0 00.366.736 2.552 2.552 0 001.324.245v.98h-9.747v-.98q1.633 0 1.634-.98V3.263q0-.98-1.634-.981v-.979zm-1.465 12.744a15.949 15.949 0 003.381-.3 6.077 6.077 0 002.141-.844 3.174 3.174 0 001.127-1.28 3.985 3.985 0 000-3.212 3.185 3.185 0 00-1.127-1.28 6.124 6.124 0 00-2.141-.844 16.046 16.046 0 00-3.381-.3h-9.748v8.061zm48.232-6.863a.992.992 0 00-.479-.9 3.342 3.342 0 00-1.662-.3H83.729v6.753h11.044a4.11 4.11 0 001.747-.3q.619-.3.62-1.552h1.014v8.5H97.14q0-1.252-.62-1.606a3.559 3.559 0 00-1.747-.354H83.729v7.516h18.82a2.325 2.325 0 001.38-.382 1.2 1.2 0 00.535-1.034h1.014v7.46h-1.014q0-.817-.535-.926a7.105 7.105 0 00-1.38-.108h-26.26v-.98a1.108 1.108 0 00.7-.245.882.882 0 00.31-.735V3.27a.882.882 0 00-.31-.735 1.108 1.108 0 00-.7-.245v-.98h25.7a2.9 2.9 0 001.662-.354 1.127 1.127 0 00.479-.953h1.014v7.188zm4.394 21.785a1.655 1.655 0 001.155-.708 11.711 11.711 0 00.817-1.361l10.424-21.185q.393-.708.7-1.307a2.339 2.339 0 00.31-1.035.8.8 0 00-.394-.762 3.433 3.433 0 00-.846-.328v-.979h9.522v.979a4.755 4.755 0 00-.789.3.788.788 0 00-.394.79 2.087 2.087 0 00.2.872q.2.437.592 1.144l11.72 22.165a1.876 1.876 0 00.761.871 11.767 11.767 0 001.1.545v.98h-9.914v-.98a1.362 1.362 0 00.563-.164.522.522 0 00.338-.49 3.315 3.315 0 00-.451-1.416l-2.141-4.03h-13.749l-2.028 3.867a4.453 4.453 0 00-.563 1.634q0 .6 1.07.6v.98h-8zm21.242-10.129l-4.733-10.13-5.3 10.13zm31.665 10.129a1.314 1.314 0 00.789-.245.85.85 0 00.338-.736V3.159a.712.712 0 00-.338-.681 1.582 1.582 0 00-.789-.191v-.979h10.537v.979a1.266 1.266 0 00-.591.164.524.524 0 00-.31.49 1.64 1.64 0 00.225.708q.224.437.507.926l8.057 14.16 8.114-14q.394-.707.591-1.117a1.716 1.716 0 00.2-.735c0-.4-.245-.6-.732-.6v-.979h10.424v.979a1.579 1.579 0 00-.789.191.714.714 0 00-.339.681v24.837a.852.852 0 00.339.736 1.312 1.312 0 00.789.245v.98h-8.853v-.98q1.522 0 1.521-.98V9.913h-.112L179.68 29.954h-.169l-11.1-20.1h-.112v18.138q0 .98 1.577.98v.98h-8.452zm41.47 0a1.654 1.654 0 001.155-.708 11.527 11.527 0 00.817-1.361l10.424-21.185q.393-.708.7-1.307a2.339 2.339 0 00.31-1.035.8.8 0 00-.395-.762 3.426 3.426 0 00-.845-.328v-.979h9.522v.979a4.754 4.754 0 00-.789.3.789.789 0 00-.394.79 2.086 2.086 0 00.2.872q.2.437.591 1.144l11.72 22.165a1.877 1.877 0 00.761.871 11.776 11.776 0 001.1.545v.98h-9.917v-.98a1.363 1.363 0 00.563-.164.523.523 0 00.338-.49 3.314 3.314 0 00-.451-1.416l-2.141-4.03h-13.749l-2.028 3.867a4.454 4.454 0 00-.564 1.634q0 .6 1.07.6v.98h-8zm21.242-10.129l-4.733-10.13-5.3 10.13zm17.751 11.109v-.98q2.083 0 2.085-.98V3.268q0-.98-2.085-.981v-.979h19.834q5.409 0 8.508 1.933t3.1 6.563q0 4.63-3.1 6.563t-8.508 1.933h-11.325v9.694q0 .98 1.8.98v.98zm20.51-16.665a6.67 6.67 0 003.184-.708 3.576 3.576 0 000-5.555 6.675 6.675 0 00-3.184-.708h-12v6.971zm59.666 16.828a19.4 19.4 0 01-3.635-.3 11.382 11.382 0 01-2.7-.843 9.157 9.157 0 01-1.972-1.226 17.843 17.843 0 01-1.494-1.39 28.058 28.058 0 01-2.507 1.825 13.107 13.107 0 01-2.367 1.2 9.932 9.932 0 01-2.591.6q-1.381.135-3.184.136a20.465 20.465 0 01-4.141-.435 12.1 12.1 0 01-3.832-1.471 9.118 9.118 0 01-2.845-2.669 6.725 6.725 0 01-1.127-3.92 7.677 7.677 0 01.592-3.132 7.293 7.293 0 011.606-2.314 8.728 8.728 0 012.423-1.634 18.629 18.629 0 013.043-1.089v-.109a6.728 6.728 0 01-3.014-1.933 4.656 4.656 0 01-1.268-3.24 5.529 5.529 0 01.93-3.241 8.052 8.052 0 012.366-2.232 10.346 10.346 0 013.268-1.307 15.97 15.97 0 017.184 0 10.365 10.365 0 013.24 1.307 8.052 8.052 0 012.366 2.232 5.528 5.528 0 01.93 3.241 5.146 5.146 0 01-1.1 3.294 5.247 5.247 0 01-2.395 1.824 4.207 4.207 0 011.183 1.171 12.834 12.834 0 01.789 1.362q.338.682.62 1.307a3.191 3.191 0 00.676 1.008 15.912 15.912 0 011.972-2.723 23.068 23.068 0 012.254-2.206 17.264 17.264 0 012.057-1.525 5.625 5.625 0 011.38-.681 3.192 3.192 0 00.507-.245.4.4 0 00.225-.353h.563v8.386h-.563a4.518 4.518 0 00-.367-.762.926.926 0 00-.873-.436 1.946 1.946 0 00-1.3.544 6.254 6.254 0 00-1.127 1.334 15.2 15.2 0 00-.9 1.606 10.334 10.334 0 00-.563 1.361 9.558 9.558 0 001.887 1.771 3.98 3.98 0 002.057.844q.789 0 .986-.49a2.9 2.9 0 00.2-1.089h.563zm-26.2-9.257a4.283 4.283 0 00.62 2.341 4.771 4.771 0 001.634 1.58 7.63 7.63 0 002.226.871 10.826 10.826 0 002.4.272 6.7 6.7 0 002.169-.353 8.537 8.537 0 001.887-.9 5.552 5.552 0 001.38-1.226 3.02 3.02 0 00.648-1.388 8.713 8.713 0 01-1.24-2.261 12.783 12.783 0 00-.9-2.015 4.068 4.068 0 00-1.353-1.443 4.874 4.874 0 00-2.591-.544 10.914 10.914 0 00-2.4.272 7.672 7.672 0 00-2.226.872 4.877 4.877 0 00-1.634 1.552 4.257 4.257 0 00-.621 2.369zm7.325-15.848a6.006 6.006 0 00-3.353.9 3.539 3.539 0 000 5.609 6.707 6.707 0 006.705 0 3.539 3.539 0 000-5.609 6.01 6.01 0 00-3.353-.901zM25.2 71.992q0 .98 1.24.98v.98h-8.677v-.98a1.107 1.107 0 00.7-.245.881.881 0 00.311-.735V50.317h-9.3a1.964 1.964 0 00-.986.272 1.086 1.086 0 00-.479 1.035H6.995v-7.619h1.014a1.082 1.082 0 00.479 1.034 1.965 1.965 0 00.986.273h25.017a1.967 1.967 0 00.987-.273 1.084 1.084 0 00.478-1.034h1.015v7.624h-1.015a1.088 1.088 0 00-.478-1.035 1.967 1.967 0 00-.987-.272h-9.3zm17.016.981q1.465 0 1.465-.98V47.268q0-.98-1.465-.981v-.979h9.354v.979q-1.466 0-1.465.981v24.724q0 .98 1.465.98v.98h-9.354zm16.226 0a1.315 1.315 0 00.789-.245.852.852 0 00.338-.736V47.159a.713.713 0 00-.338-.681 1.583 1.583 0 00-.789-.191v-.979h10.537v.979a1.269 1.269 0 00-.592.164.524.524 0 00-.31.49 1.645 1.645 0 00.225.708q.225.437.507.926l8.057 14.16 8.114-14q.394-.707.592-1.117a1.724 1.724 0 00.2-.735c0-.4-.245-.6-.732-.6v-.979h10.419v.979a1.578 1.578 0 00-.788.191.713.713 0 00-.338.681v24.837a.851.851 0 00.338.736 1.311 1.311 0 00.788.245v.98h-8.846v-.98q1.522 0 1.521-.98v-18.08h-.113L76.695 73.954h-.169l-11.1-20.1h-.113v18.138q0 .98 1.578.98v.98h-8.452zm69.587-21.785a.992.992 0 00-.479-.9 3.343 3.343 0 00-1.662-.3h-18.256v6.753h11.043a4.108 4.108 0 001.747-.3q.62-.3.62-1.552h1.014v8.5h-1.01q0-1.252-.62-1.606a3.557 3.557 0 00-1.747-.354h-11.043v7.516h18.819a2.326 2.326 0 001.381-.382 1.2 1.2 0 00.535-1.034h1.014v7.46h-1.014q0-.817-.535-.926a7.108 7.108 0 00-1.381-.108h-26.257v-.98a1.109 1.109 0 00.7-.245.883.883 0 00.31-.735V47.27a.882.882 0 00-.31-.735 1.109 1.109 0 00-.7-.245v-.98h25.694a2.9 2.9 0 001.662-.354 1.127 1.127 0 00.479-.953h1.014v7.188zm36.849 20.804q0 .98 1.24.98v.98h-8.677v-.98a1.108 1.108 0 00.7-.245.883.883 0 00.31-.735V50.317h-9.3a1.96 1.96 0 00-.986.272 1.084 1.084 0 00-.479 1.035h-1.014v-7.619h1.014a1.081 1.081 0 00.479 1.034 1.961 1.961 0 00.986.273h25.017a1.966 1.966 0 00.986-.273 1.083 1.083 0 00.479-1.034h1.014v7.624h-1.014a1.087 1.087 0 00-.479-1.035 1.965 1.965 0 00-.986-.272h-9.3zm12.395.981a1.655 1.655 0 001.155-.708 11.593 11.593 0 00.817-1.361l10.424-21.185q.393-.708.7-1.307a2.343 2.343 0 00.31-1.035.8.8 0 00-.394-.762 3.421 3.421 0 00-.845-.328v-.979h9.523v.979a4.751 4.751 0 00-.789.3.789.789 0 00-.395.79 2.1 2.1 0 00.2.872q.2.437.591 1.144l11.72 22.165a1.878 1.878 0 00.761.871 11.88 11.88 0 001.1.545v.98h-9.917v-.98a1.362 1.362 0 00.563-.164.523.523 0 00.338-.49 3.317 3.317 0 00-.451-1.416l-2.141-4.03h-13.748l-2.029 3.867a4.467 4.467 0 00-.564 1.634q0 .6 1.071.6v.98h-8zm21.242-10.129l-4.733-10.13-5.3 10.13zm34.653-17.537a30.169 30.169 0 015.015.408 15.893 15.893 0 014.283 1.307 8.286 8.286 0 012.985 2.342 5.62 5.62 0 011.127 3.567 4.894 4.894 0 01-1.634 3.948 11.718 11.718 0 01-3.888 2.151v.109a11.164 11.164 0 014.48 2.423 6.108 6.108 0 011.831 4.765 6.388 6.388 0 01-.732 3.023 7.037 7.037 0 01-2.17 2.423 10.9 10.9 0 01-3.521 1.606 17.919 17.919 0 01-4.733.573h-20.679v-.98q1.576 0 1.577-.98V47.267q0-.98-1.577-.981v-.979zm1.127 11.219a12.022 12.022 0 004.2-.626 2.93 2.93 0 000-5.283 12.057 12.057 0 00-4.2-.626h-10.762v6.536zm0 12.417q3.55 0 5.1-1.062a3.312 3.312 0 000-5.609q-1.549-1.063-5.1-1.062h-10.762v7.734zm46.766 6.044q0-.817-.535-.926a7.106 7.106 0 00-1.381-.108h-26.818v-.98q1.691 0 1.69-.98V47.268q0-.98-1.69-.981v-.979h9.691v.979q-1.578 0-1.578.981v21.675h18.707a2.324 2.324 0 001.381-.382 1.2 1.2 0 00.535-1.035h1.014v7.46zm33.074-23.799a.992.992 0 00-.479-.9 3.346 3.346 0 00-1.662-.3h-18.256v6.753h11.043a4.111 4.111 0 001.747-.3q.619-.3.62-1.552h1.014v8.5h-1.014q0-1.252-.62-1.606a3.56 3.56 0 00-1.747-.354h-11.043v7.516h18.819a2.326 2.326 0 001.381-.382 1.2 1.2 0 00.535-1.034h1.014v7.46h-1.014q0-.817-.535-.926a7.106 7.106 0 00-1.381-.108h-26.258v-.98a1.108 1.108 0 00.7-.245.883.883 0 00.31-.735V47.27a.882.882 0 00-.31-.735 1.107 1.107 0 00-.7-.245v-.98h25.694a2.9 2.9 0 001.662-.354 1.126 1.126 0 00.479-.953h1.014v7.188z" opacity=".1" fill="#fed438"/><path fill="none" d="M0 0h323v75H0z"/></svg>