<svg xmlns="http://www.w3.org/2000/svg" width="653" height="74" viewBox="0 0 653 74">
  <defs>
    <style>
      .cls-1 {
        fill: #fed438;
        fill-rule: evenodd;
        opacity: 0.1;
      }
    </style>
  </defs>
  <path id="AREA_MAP" data-name="AREA MAP" class="cls-1" d="M89.19,72L57.96,0.843H39.294L8.369,72H26.68L33.5,55.622H64.013L70.879,72H89.19ZM59.283,44.178H38.175L48.7,18.34ZM155.606,6.845q-6.612-5.9-18.819-5.9H107.236V72h17.9V43.364h3.2a15.211,15.211,0,0,1,5.747.941,12.286,12.286,0,0,1,4.527,3.586,41.472,41.472,0,0,1,4.934,8.087L151.792,72h19.582l-9.257-17.9a64.528,64.528,0,0,0-5.8-9.181,19.882,19.882,0,0,0-5.8-4.908,19.472,19.472,0,0,0,8.774-7.121,18.883,18.883,0,0,0,2.924-10.478Q162.218,12.746,155.606,6.845ZM141.06,29.759q-2.9,2.01-8.444,2.009H125.14V13.152h7.782q11.035,0,11.037,9.461Q143.959,27.75,141.06,29.759Zm97.6-16.1V0.945H190.03V72h49.439V59.284H207.934V41.991h29.347V29.275H207.934V13.661h30.721ZM336.148,72L304.919,0.843H286.252L255.328,72h18.31l6.816-16.378h30.517L317.838,72h18.31ZM306.241,44.178H285.133L295.662,18.34ZM433.53,28.36L411.252,0.945H394.925V72h17.5V26.58L432.513,51.5h1.678L454.18,26.58V72h17.9V0.945H455.859ZM570.95,72L539.721,0.843H521.054L490.13,72h18.31l6.816-16.378h30.517L552.64,72h18.31ZM541.043,44.178H519.935L530.464,18.34ZM638.181,6.616Q631.263,0.945,618.955.945H589V72h17.9V44.076h12.919A30.791,30.791,0,0,0,633.832,41.2,19.784,19.784,0,0,0,642.3,33.5a21.332,21.332,0,0,0,2.8-10.885Q645.1,12.288,638.181,6.616Zm-22.329,25.3H606.9V13.152h8.24q6.1,0,8.875,2.238t2.772,7.223q0,9.308-10.935,9.308h0Z"/>
</svg>
