<svg xmlns="http://www.w3.org/2000/svg" width="434" height="75" viewBox="0 0 434 75">
  <defs>
    <style>
      .cls-1 {
        fill: #fed438;
        fill-rule: evenodd;
        opacity: 0.1;
      }
    </style>
  </defs>
  <path id="OTHER" class="cls-1" d="M82.681,18.933A33.482,33.482,0,0,0,69.05,5.81q-8.9-4.78-20.9-4.781-13.225,0-22.125,5.264a33.514,33.514,0,0,0-13.173,13.58A38.247,38.247,0,0,0,8.574,37.6a36.94,36.94,0,0,0,4.578,18.158A33.609,33.609,0,0,0,26.579,68.982q8.85,4.934,21.261,4.934,12.308,0,21.261-4.883A33.823,33.823,0,0,0,82.732,55.859,36.706,36.706,0,0,0,87.411,37.5,36.973,36.973,0,0,0,82.681,18.933Zm-53.2,7.757a18.01,18.01,0,0,1,7.324-7.4,22.644,22.644,0,0,1,11.139-2.645A22.046,22.046,0,0,1,59.31,19.467a18.824,18.824,0,0,1,7.3,7.553A21.921,21.921,0,0,1,69.1,37.4q0,9.664-5.875,15.284T47.84,58.3a22.345,22.345,0,0,1-10.834-2.594,18.331,18.331,0,0,1-7.426-7.35A21.75,21.75,0,0,1,26.936,37.6,22.775,22.775,0,0,1,29.479,26.69Zm143.473-9.944V1.945H104.186v14.8h25.329V73h17.9V16.746h25.533Zm37.781,12.716V1.945h-17.9V73h17.9V44.364h34.383V73h17.9V1.945h-17.9V29.462H210.733Zm126.536-14.8V1.945H288.644V73h49.438V60.284H306.548V42.991H335.9V30.275H306.548V14.661h30.721Zm72.672-6.816q-6.612-5.9-18.819-5.9H361.571V73h17.9V44.364h3.2a15.211,15.211,0,0,1,5.747.941,12.286,12.286,0,0,1,4.527,3.586,41.472,41.472,0,0,1,4.934,8.087L406.126,73h19.583l-9.257-17.9a64.528,64.528,0,0,0-5.8-9.181,19.882,19.882,0,0,0-5.8-4.908,19.478,19.478,0,0,0,8.774-7.121,18.883,18.883,0,0,0,2.924-10.478Q416.553,13.746,409.941,7.845ZM395.394,30.759q-2.9,2.01-8.443,2.009h-7.477V14.152h7.782q11.037,0,11.038,9.461Q398.294,28.75,395.394,30.759Z"/>
</svg>
