<svg xmlns="http://www.w3.org/2000/svg" width="500" height="74" viewBox="0 0 500 74">
  <defs>
    <style>
      .cls-1 {
        fill: #fed438;
        fill-rule: evenodd;
        opacity: 0.1;
      }
    </style>
  </defs>
  <path id="PICK_UP" data-name="PICK UP" class="cls-1" d="M55.512,6.616Q48.595,0.945,36.286.945H6.328V72h17.9V44.076H37.151A30.791,30.791,0,0,0,51.164,41.2,19.776,19.776,0,0,0,59.632,33.5a21.328,21.328,0,0,0,2.8-10.885Q62.43,12.288,55.512,6.616ZM33.184,31.92H24.232V13.152h8.24q6.1,0,8.876,2.238t2.772,7.223q0,9.308-10.935,9.308h0ZM101.329,72V0.945h-17.9V72h17.9ZM163.473,0.029a45.839,45.839,0,0,0-20.4,4.425A33.57,33.57,0,0,0,128.912,17.17,36.075,36.075,0,0,0,123.8,36.5a36.784,36.784,0,0,0,4.731,18.565,33.527,33.527,0,0,0,13.656,13.072q8.926,4.782,20.981,4.781,15.613,0,27.212-6.205V50.739q-11.8,7.833-24.262,7.833a26.651,26.651,0,0,1-12.843-2.925,20.444,20.444,0,0,1-8.265-7.909A21.654,21.654,0,0,1,142.162,36.8a22.877,22.877,0,0,1,2.8-11.164,20.691,20.691,0,0,1,8.316-8.189,26.813,26.813,0,0,1,13.25-3.077A36.534,36.534,0,0,1,178.2,16.255,55.545,55.545,0,0,1,189.973,22V5.523a69.369,69.369,0,0,0-26.5-5.493h0Zm68.044,33.62V0.945h-17.9V72h17.9V37.515L261.272,72H283.6L250.693,34.311,278.362,0.945H258.373ZM363.663,53.028q-4.45-4.679-4.45-13.529V0.945h-17.9V40.414q0,15.361,9.181,23.931t26.118,8.57q16.681,0,25.915-8.519t9.231-24.287V0.945H393.8V39.7q0,9.155-4.425,13.58t-12.767,4.425Q368.114,57.708,363.663,53.028ZM485.851,6.616Q478.933,0.945,466.625.945H436.667V72h17.9V44.076h12.919A30.791,30.791,0,0,0,481.5,41.2a19.778,19.778,0,0,0,8.469-7.706,21.332,21.332,0,0,0,2.8-10.885Q492.768,12.288,485.851,6.616Zm-22.329,25.3H454.57V13.152h8.24q6.1,0,8.876,2.238t2.772,7.223q0,9.308-10.936,9.308h0Z"/>
</svg>
