<svg xmlns="http://www.w3.org/2000/svg" width="737" height="75" viewBox="0 0 737 75">
  <defs>
    <style>
      .cls-1 {
        fill: #fed438;
        fill-rule: evenodd;
        opacity: 0.1;
      }
    </style>
  </defs>
  <path id="TIME_TABLE" data-name="TIME TABLE" class="cls-1" d="M74.819,16.746V1.945H6.052v14.8h25.33V73h17.9V16.746H74.819ZM112.6,73V1.945H94.7V73h17.9Zm64.23-43.64L154.551,1.945H138.224V73h17.5V27.58L175.811,52.5h1.679L197.479,27.58V73h17.9V1.945H199.157Zm112.854-14.7V1.945H241.058V73H290.5V60.284H258.962V42.991h29.347V30.275H258.962V14.661h30.721Zm128.051,2.085V1.945H348.968v14.8H374.3V73h17.9V16.746h25.533ZM510.8,73L479.573,1.843H460.907L429.982,73h18.311l6.815-16.378h30.518L492.492,73H510.8ZM480.9,45.178H459.788L470.316,19.34ZM576.761,6.6Q570.3,1.945,559.01,1.945H528.849V73h30.823Q573,73,580.7,68.524t7.706-15.411a17.737,17.737,0,0,0-3.815-11.368q-3.814-4.806-11.6-7.2a15.889,15.889,0,0,0,7.451-6.027,16.5,16.5,0,0,0,2.772-9.384A14.677,14.677,0,0,0,576.761,6.6ZM563.156,29.207q-2.976,2.239-8.825,2.238h-7.578V12.982h8.341q5.7,0,8.367,2.187t2.67,6.917Q566.131,26.969,563.156,29.207Zm-7.045,32.755h-9.358V42.381h9.358q14.292,0,14.293,9.867,0,9.716-14.293,9.715h0ZM628.326,58.3V1.945h-17.9V73h50.1V58.3h-32.2ZM729.99,14.661V1.945H681.366V73H730.8V60.284H699.269V42.991h29.348V30.275H699.269V14.661H729.99Z"/>
</svg>
