<svg xmlns="http://www.w3.org/2000/svg" width="751" height="75" viewBox="0 0 751 75">
  <defs>
    <style>
      .cls-1 {
        fill: #fed438;
        fill-rule: evenodd;
        opacity: 0.1;
      }
    </style>
  </defs>
  <path id="WORKSHOP" class="cls-1" d="M47.646,44.263L31.472,1.945H13.06l29.5,71.767h9.359L72.009,27.071,91.9,73.712H101.1L131.061,1.945H112.852L96.271,44.263,78.876,1.945H65.346ZM220.06,18.933A33.475,33.475,0,0,0,206.429,5.81q-8.9-4.78-20.9-4.781-13.226,0-22.126,5.264a33.513,33.513,0,0,0-13.173,13.58A38.251,38.251,0,0,0,145.953,37.6a36.938,36.938,0,0,0,4.578,18.158,33.612,33.612,0,0,0,13.428,13.224q8.85,4.934,21.26,4.934,12.309,0,21.261-4.883a33.819,33.819,0,0,0,13.631-13.173,36.71,36.71,0,0,0,4.68-18.361A36.968,36.968,0,0,0,220.06,18.933Zm-53.2,7.757a18.012,18.012,0,0,1,7.324-7.4,22.645,22.645,0,0,1,11.139-2.645,22.046,22.046,0,0,1,11.368,2.823,18.828,18.828,0,0,1,7.3,7.553A21.921,21.921,0,0,1,206.48,37.4q0,9.664-5.875,15.284T185.219,58.3a22.342,22.342,0,0,1-10.833-2.594,18.325,18.325,0,0,1-7.426-7.35A21.745,21.745,0,0,1,164.315,37.6,22.775,22.775,0,0,1,166.858,26.69ZM295.683,7.845q-6.613-5.9-18.819-5.9H247.312V73h17.9V44.364h3.2a15.213,15.213,0,0,1,5.748.941,12.293,12.293,0,0,1,4.527,3.586,41.477,41.477,0,0,1,4.933,8.087L291.868,73H311.45l-9.257-17.9a64.539,64.539,0,0,0-5.8-9.181,19.9,19.9,0,0,0-5.8-4.908,19.469,19.469,0,0,0,8.773-7.121A18.875,18.875,0,0,0,302.3,23.409Q302.3,13.746,295.683,7.845ZM281.136,30.759q-2.9,2.01-8.443,2.009h-7.477V14.152H273q11.037,0,11.037,9.461Q284.035,28.75,281.136,30.759ZM348.01,34.65V1.945h-17.9V73h17.9V38.515L377.765,73h22.329L367.186,35.311,394.855,1.945H374.866ZM450.819,2.53a44.691,44.691,0,0,0-11.571-1.5,29.861,29.861,0,0,0-13,2.594,19.272,19.272,0,0,0-8.239,7.07,18.4,18.4,0,0,0-2.823,10.02,18.126,18.126,0,0,0,2.619,9.893,23.335,23.335,0,0,0,6.256,6.714,76.611,76.611,0,0,0,8.825,5.264,59.9,59.9,0,0,1,8.367,4.628,12.944,12.944,0,0,1,3.586,3.382,6.582,6.582,0,0,1,.864,3.433,5.665,5.665,0,0,1-2.339,4.6q-2.341,1.857-6.816,1.856-10.122,0-20.8-8.545V68.016a50.768,50.768,0,0,0,23.092,5.9,31.2,31.2,0,0,0,12.893-2.543,20.241,20.241,0,0,0,8.8-7.222,19.038,19.038,0,0,0,3.128-10.834,17.909,17.909,0,0,0-2.518-9.74,24.005,24.005,0,0,0-6.612-6.867,98.87,98.87,0,0,0-11.215-6.536q-6.359-3.2-8.545-5.29a6.332,6.332,0,0,1-2.187-4.679,5.527,5.527,0,0,1,2.136-4.552q2.136-1.7,6.307-1.7,9.613,0,19.684,7.884V6.624A37.731,37.731,0,0,0,450.819,2.53Zm53.37,26.932V1.945h-17.9V73h17.9V44.364h34.383V73h17.9V1.945h-17.9V29.462H504.189ZM653.054,18.933A33.488,33.488,0,0,0,639.423,5.81q-8.9-4.78-20.9-4.781-13.226,0-22.125,5.264a33.522,33.522,0,0,0-13.174,13.58A38.25,38.25,0,0,0,578.947,37.6a36.938,36.938,0,0,0,4.578,18.158,33.6,33.6,0,0,0,13.427,13.224q8.85,4.934,21.261,4.934,12.309,0,21.261-4.883a33.826,33.826,0,0,0,13.631-13.173A36.709,36.709,0,0,0,657.784,37.5,36.978,36.978,0,0,0,653.054,18.933Zm-53.2,7.757a18.006,18.006,0,0,1,7.324-7.4,22.645,22.645,0,0,1,11.139-2.645,22.043,22.043,0,0,1,11.367,2.823,18.822,18.822,0,0,1,7.3,7.553A21.922,21.922,0,0,1,639.474,37.4q0,9.664-5.875,15.284T618.213,58.3a22.346,22.346,0,0,1-10.834-2.594,18.337,18.337,0,0,1-7.426-7.35A21.756,21.756,0,0,1,597.308,37.6,22.775,22.775,0,0,1,599.852,26.69ZM729.49,7.616q-6.918-5.671-19.226-5.671H680.306V73h17.9V45.076h12.919A30.79,30.79,0,0,0,725.141,42.2,19.772,19.772,0,0,0,733.61,34.5a21.332,21.332,0,0,0,2.8-10.885Q736.407,13.288,729.49,7.616Zm-22.329,25.3H698.21V14.152h8.239q6.1,0,8.876,2.238t2.772,7.223q0,9.308-10.936,9.308h0Z"/>
</svg>
