<svg xmlns="http://www.w3.org/2000/svg" width="227" height="23"><path fill="none" d="M0 0h227v23H0z"/><path d="M13.368 20.56q0 .72.91.721V22H7.905v-.719a.817.817 0 00.517-.18.646.646 0 00.229-.541V4.64h-6.83a1.443 1.443 0 00-.723.2.8.8 0 00-.351.761H0v-5.6h.747a.792.792 0 00.351.76 1.433 1.433 0 00.723.2h18.375a1.432 1.432 0 00.724-.2.8.8 0 00.352-.76h.746v5.6h-.746a.8.8 0 00-.352-.761 1.442 1.442 0 00-.724-.2h-6.828zm12.498.721q1.077 0 1.076-.721V2.4q0-.72-1.076-.719V.96h6.871v.721c-.719 0-1.076.239-1.076.719v18.16c0 .48.357.721 1.076.721V22h-6.871zm11.92 0a.974.974 0 00.58-.18.63.63 0 00.248-.541V2.32a.526.526 0 00-.248-.5 1.18 1.18 0 00-.58-.139V.96h7.738v.721a.926.926 0 00-.434.119.385.385 0 00-.228.36 1.2 1.2 0 00.166.521c.109.213.234.439.373.68l5.918 10.4 5.959-10.28q.29-.519.435-.82a1.265 1.265 0 00.145-.54q0-.439-.539-.439V.961h7.658v.721a1.163 1.163 0 00-.578.139.524.524 0 00-.25.5v18.24a.627.627 0 00.25.541.96.96 0 00.578.18v.719h-6.5v-.719q1.116 0 1.117-.721V7.281h-.084L51.192 22h-.123L42.914 7.24h-.082v13.32q0 .72 1.159.721V22h-6.207zm51.109-16a.73.73 0 00-.352-.661 2.448 2.448 0 00-1.22-.22H73.915v4.961h8.111a3.011 3.011 0 001.283-.221c.3-.147.455-.525.455-1.14h.744v6.24h-.744q0-.92-.455-1.18a2.615 2.615 0 00-1.283-.26h-8.111v5.52h13.822a1.693 1.693 0 001.013-.28.884.884 0 00.4-.759h.744v5.479h-.744c0-.4-.133-.626-.4-.68a5.254 5.254 0 00-1.013-.08H68.452v-.719a.819.819 0 00.517-.18.652.652 0 00.227-.541V2.4a.645.645 0 00-.227-.539.807.807 0 00-.517-.18V.96h18.871a2.117 2.117 0 001.22-.26.824.824 0 00.352-.7h.746v5.281zm27.066 15.279q0 .72.911.721V22h-6.374v-.719a.823.823 0 00.518-.18.655.655 0 00.227-.541V4.64h-6.828a1.45 1.45 0 00-.725.2.8.8 0 00-.352.761h-.744v-5.6h.744a.8.8 0 00.352.76 1.44 1.44 0 00.725.2h18.375a1.439 1.439 0 00.724-.2.8.8 0 00.352-.76h.744v5.6h-.744a.8.8 0 00-.352-.761 1.449 1.449 0 00-.724-.2h-6.829zm9.104.721a1.219 1.219 0 00.85-.521 8.416 8.416 0 00.6-1l7.656-15.56q.292-.519.518-.96a1.73 1.73 0 00.227-.76.585.585 0 00-.29-.56 2.487 2.487 0 00-.621-.239V.96h6.994v.721a3.459 3.459 0 00-.58.219.579.579 0 00-.289.58 1.546 1.546 0 00.145.64c.1.214.242.5.435.84l8.608 16.28a1.385 1.385 0 00.558.64 8.636 8.636 0 00.807.4v.719H143.4v-.719a1.013 1.013 0 00.414-.121.383.383 0 00.248-.36 2.451 2.451 0 00-.33-1.04l-1.574-2.96h-10.1l-1.49 2.84a3.285 3.285 0 00-.414 1.2q0 .441.787.441v.719h-5.877zm15.6-7.441l-3.476-7.44-3.891 7.44zM166.12.96a22.153 22.153 0 013.683.3 11.694 11.694 0 013.145.96 6.1 6.1 0 012.193 1.721 4.134 4.134 0 01.828 2.619 3.593 3.593 0 01-1.2 2.9 8.627 8.627 0 01-2.855 1.58v.08a8.193 8.193 0 013.291 1.78 4.486 4.486 0 011.343 3.5 4.69 4.69 0 01-.537 2.22 5.167 5.167 0 01-1.594 1.78 8.012 8.012 0 01-2.585 1.18 13.132 13.132 0 01-3.477.42h-15.189v-.719q1.159 0 1.16-.721V2.4q0-.72-1.16-.719V.96zm.826 8.24a8.842 8.842 0 003.084-.46 2.152 2.152 0 000-3.879 8.834 8.834 0 00-3.084-.461h-7.905v4.8zm0 9.12a6.835 6.835 0 003.746-.78 2.432 2.432 0 000-4.12 6.835 6.835 0 00-3.746-.78h-7.905v5.68zm34.349 4.44c0-.4-.13-.626-.392-.68a5.267 5.267 0 00-1.014-.08h-19.7v-.719q1.242 0 1.242-.721V2.4q0-.72-1.242-.719V.96h7.117v.721c-.771 0-1.158.239-1.158.719v15.92h13.74a1.7 1.7 0 001.014-.28.881.881 0 00.392-.759h.746v5.479zm24.293-17.479a.73.73 0 00-.351-.661 2.454 2.454 0 00-1.221-.22h-13.408v4.961h8.111a3.005 3.005 0 001.283-.221c.3-.147.455-.525.455-1.14h.745v6.24h-.745q0-.92-.455-1.18a2.611 2.611 0 00-1.283-.26h-8.111v5.52h13.822a1.7 1.7 0 001.014-.28.883.883 0 00.394-.759h.744v5.479h-.744q0-.6-.394-.68a5.267 5.267 0 00-1.014-.08h-19.285v-.719a.823.823 0 00.518-.18.654.654 0 00.226-.541V2.4a.647.647 0 00-.226-.539.81.81 0 00-.518-.18V.96h18.871a2.122 2.122 0 001.221-.26.824.824 0 00.351-.7h.746v5.281z" fill="#292929"/></svg>