<svg xmlns="http://www.w3.org/2000/svg" width="300" height="89" viewBox="0 0 300 89">
  <defs>
    <style>
      .cls-1 {
        fill: #fff;
        fill-rule: evenodd;
      }
    </style>
  </defs>
  <path id="MIMOSA_MARCHE" data-name="MIMOSA MARCHE" class="cls-1" d="M59.491,18.053L48.8,4.894H40.96V39h8.4V17.2L59,29.161h0.806L69.4,17.2V39H78V4.894H70.209ZM95.915,39V4.894H87.321V39h8.594Zm27.83-20.947L113.051,4.894h-7.837V39h8.4V17.2l9.643,11.963h0.806l9.6-11.963V39h8.593V4.894h-7.788Zm61.887-5a16.068,16.068,0,0,0-6.543-6.3,20.9,20.9,0,0,0-10.034-2.295,20.558,20.558,0,0,0-10.62,2.527,16.088,16.088,0,0,0-6.323,6.519,18.361,18.361,0,0,0-2.051,8.508,17.729,17.729,0,0,0,2.2,8.716,16.135,16.135,0,0,0,6.446,6.348,20.652,20.652,0,0,0,10.2,2.368A21.009,21.009,0,0,0,179.114,37.1a16.24,16.24,0,0,0,6.543-6.323,17.622,17.622,0,0,0,2.246-8.814A17.744,17.744,0,0,0,185.632,13.048ZM160.1,16.771a8.647,8.647,0,0,1,3.516-3.552,10.871,10.871,0,0,1,5.347-1.27,10.582,10.582,0,0,1,5.456,1.355,9.03,9.03,0,0,1,3.5,3.626,10.514,10.514,0,0,1,1.2,4.98,9.673,9.673,0,0,1-2.82,7.336,10.239,10.239,0,0,1-7.385,2.7,10.73,10.73,0,0,1-5.2-1.245,8.8,8.8,0,0,1-3.564-3.528,10.445,10.445,0,0,1-1.269-5.164A10.933,10.933,0,0,1,160.1,16.771Zm51.451-11.6a21.454,21.454,0,0,0-5.554-.72A14.329,14.329,0,0,0,199.754,5.7,9.254,9.254,0,0,0,195.8,9.093a8.833,8.833,0,0,0-1.355,4.81,8.705,8.705,0,0,0,1.257,4.749,11.2,11.2,0,0,0,3,3.223A36.833,36.833,0,0,0,202.94,24.4a28.718,28.718,0,0,1,4.016,2.222,6.2,6.2,0,0,1,1.721,1.624,3.155,3.155,0,0,1,.415,1.648,2.717,2.717,0,0,1-1.123,2.209,5.169,5.169,0,0,1-3.271.891q-4.859,0-9.986-4.1v7.715A24.368,24.368,0,0,0,205.8,39.44a14.979,14.979,0,0,0,6.189-1.221,9.714,9.714,0,0,0,4.224-3.467,9.136,9.136,0,0,0,1.5-5.2,8.591,8.591,0,0,0-1.208-4.675,11.529,11.529,0,0,0-3.174-3.3,47.447,47.447,0,0,0-5.383-3.137,18.729,18.729,0,0,1-4.1-2.539,3.041,3.041,0,0,1-1.05-2.246,2.653,2.653,0,0,1,1.026-2.185,4.777,4.777,0,0,1,3.027-.818q4.614,0,9.448,3.784V7.14A18.1,18.1,0,0,0,211.546,5.174ZM260.7,39L245.711,4.845h-8.96L221.908,39H230.7l3.271-7.861h14.649l3.3,7.861H260.7ZM246.346,25.646H236.214l5.054-12.4ZM53.448,63.886L42.755,50.727H34.918V84.833h8.4v-21.8L52.96,74.995h0.806L63.36,63.032v21.8h8.594V50.727H64.166ZM116.41,84.833L101.42,50.678H92.46L77.616,84.833h8.789l3.272-7.861h14.648l3.3,7.861h8.789ZM102.055,71.479H91.923l5.054-12.4Zm43.235-17.92q-3.174-2.832-9.033-2.832H122.072V84.833h8.594V71.088H132.2a7.3,7.3,0,0,1,2.759.452,5.907,5.907,0,0,1,2.173,1.721,19.912,19.912,0,0,1,2.368,3.882l3.955,7.69h9.4l-4.443-8.594a31,31,0,0,0-2.783-4.407,9.547,9.547,0,0,0-2.783-2.356,9.348,9.348,0,0,0,4.211-3.418,9.06,9.06,0,0,0,1.4-5.029A9.53,9.53,0,0,0,145.29,53.559Zm-6.982,11a7.1,7.1,0,0,1-4.053.964h-3.589V56.586H134.4q5.3,0,5.3,4.541A3.883,3.883,0,0,1,138.308,64.557Zm38.035-14.27a22,22,0,0,0-9.79,2.124,16.112,16.112,0,0,0-6.8,6.1,17.323,17.323,0,0,0-2.453,9.277,17.665,17.665,0,0,0,2.27,8.911,16.1,16.1,0,0,0,6.555,6.275A21.028,21.028,0,0,0,176.2,85.273a27.287,27.287,0,0,0,13.062-2.978V74.628a20.808,20.808,0,0,1-11.646,3.76,12.789,12.789,0,0,1-6.164-1.4,9.814,9.814,0,0,1-3.968-3.8,10.4,10.4,0,0,1-1.367-5.249,10.984,10.984,0,0,1,1.343-5.359,9.931,9.931,0,0,1,3.992-3.931,12.869,12.869,0,0,1,6.36-1.477,17.544,17.544,0,0,1,5.6.9,26.653,26.653,0,0,1,5.651,2.759v-7.91a33.29,33.29,0,0,0-12.719-2.637h0ZM206,63.935V50.727H197.41V84.833H206V71.088h16.5V84.833H231.1V50.727h-8.594V63.935H206Zm57.737-7.1v-6.1H240.4V84.833h23.731v-6.1H249v-8.3h14.087v-6.1H249v-7.5h14.746Z"/>
</svg>
