<svg xmlns="http://www.w3.org/2000/svg" width="201" height="35" viewBox="0 0 201 35">
  <defs>
    <style>
      .cls-1 {
        fill: #292929;
        fill-rule: evenodd;
      }
    </style>
  </defs>
  <path id="OTHER" class="cls-1" d="M40.98,9.211a14.732,14.732,0,0,0-6-5.774,19.161,19.161,0,0,0-9.2-2.1,18.845,18.845,0,0,0-9.735,2.316,14.746,14.746,0,0,0-5.8,5.975,16.828,16.828,0,0,0-1.88,7.8,16.254,16.254,0,0,0,2.014,7.99,14.788,14.788,0,0,0,5.908,5.819A18.933,18.933,0,0,0,25.65,33.4,19.257,19.257,0,0,0,35,31.254a14.883,14.883,0,0,0,6-5.8,16.151,16.151,0,0,0,2.059-8.079A16.268,16.268,0,0,0,40.98,9.211ZM17.571,12.623a7.924,7.924,0,0,1,3.223-3.256,9.964,9.964,0,0,1,4.9-1.164,9.7,9.7,0,0,1,5,1.242,8.283,8.283,0,0,1,3.212,3.323A9.646,9.646,0,0,1,35,17.334a8.867,8.867,0,0,1-2.585,6.725,9.386,9.386,0,0,1-6.77,2.473,9.832,9.832,0,0,1-4.767-1.141,8.067,8.067,0,0,1-3.267-3.234,9.57,9.57,0,0,1-1.164-4.733A10.021,10.021,0,0,1,17.571,12.623ZM80.7,8.248V1.736H50.442V8.248H61.587V33h7.878V8.248H80.7Zm16.624,5.595V1.736H89.445V33h7.878V20.4h15.129V33h7.877V1.736h-7.877V13.843H97.322ZM153,7.331V1.736H131.6V33h21.753V27.405H139.481V19.8h12.913V14.2H139.481V7.331H153Zm31.976-3q-2.91-2.6-8.28-2.6h-13V33h7.878V20.4h1.41a6.688,6.688,0,0,1,2.528.414,5.4,5.4,0,0,1,1.992,1.578,18.215,18.215,0,0,1,2.171,3.558L183.3,33h8.616l-4.073-7.878a28.437,28.437,0,0,0-2.552-4.04,8.745,8.745,0,0,0-2.551-2.16A8.572,8.572,0,0,0,186.6,15.79a8.313,8.313,0,0,0,1.286-4.61A8.737,8.737,0,0,0,184.974,4.332Zm-6.4,10.082a6.5,6.5,0,0,1-3.715.884h-3.289V7.107h3.424q4.856,0,4.856,4.163A3.557,3.557,0,0,1,178.573,14.414Z"/>
</svg>
