<svg xmlns="http://www.w3.org/2000/svg" width="231" height="35" viewBox="0 0 231 35">
  <defs>
    <style>
      .cls-1 {
        fill: #292929;
        fill-rule: evenodd;
      }
    </style>
  </defs>
  <path id="PICK_UP" data-name="PICK UP" class="cls-1" d="M31.946,4.231q-3.044-2.5-8.459-2.5H10.3V33h7.878V20.714h5.685a13.548,13.548,0,0,0,6.166-1.264,8.7,8.7,0,0,0,3.726-3.39,9.384,9.384,0,0,0,1.231-4.789A8.591,8.591,0,0,0,31.946,4.231ZM22.121,15.365H18.182V7.107h3.626a6.216,6.216,0,0,1,3.905.985,3.849,3.849,0,0,1,1.22,3.178q0,4.1-4.812,4.1h0ZM52.105,33V1.736H44.227V33h7.878ZM79.448,1.333A20.168,20.168,0,0,0,70.474,3.28a14.771,14.771,0,0,0-6.233,5.595,15.874,15.874,0,0,0-2.249,8.5,16.187,16.187,0,0,0,2.081,8.168A14.755,14.755,0,0,0,70.083,31.3a19.273,19.273,0,0,0,9.231,2.1,25.011,25.011,0,0,0,11.973-2.73V23.645a19.073,19.073,0,0,1-10.675,3.447,11.725,11.725,0,0,1-5.651-1.287,8.995,8.995,0,0,1-3.637-3.48,9.527,9.527,0,0,1-1.253-4.812A10.065,10.065,0,0,1,71.3,12.6,9.1,9.1,0,0,1,74.961,9a11.8,11.8,0,0,1,5.83-1.354,16.076,16.076,0,0,1,5.136.828A24.438,24.438,0,0,1,91.108,11V3.75a30.521,30.521,0,0,0-11.66-2.417h0Zm29.94,14.793V1.736H101.51V33h7.878V17.827L122.48,33H132.3L117.825,16.417,130,1.736h-8.8Zm58.144,8.527a8.309,8.309,0,0,1-1.958-5.953V1.736H157.7V19.1q0,6.759,4.04,10.53T173.228,33.4q7.339,0,11.4-3.748t4.062-10.686V1.736h-7.9V18.789q0,4.028-1.947,5.975a7.605,7.605,0,0,1-5.617,1.947A7.491,7.491,0,0,1,167.532,24.652ZM221.294,4.231q-3.044-2.5-8.459-2.5H199.653V33h7.878V20.714h5.684a13.55,13.55,0,0,0,6.166-1.264,8.705,8.705,0,0,0,3.726-3.39,9.378,9.378,0,0,0,1.231-4.789A8.59,8.59,0,0,0,221.294,4.231ZM211.47,15.365h-3.939V7.107h3.625a6.218,6.218,0,0,1,3.906.985,3.849,3.849,0,0,1,1.219,3.178q0,4.1-4.811,4.1h0Z"/>
</svg>
