<svg xmlns="http://www.w3.org/2000/svg" width="322" height="84"><path fill="none" d="M0 0h322v84H0z"/><path d="M36.92 23.1l.621.3a1.848 1.848 0 00.248.96 4.393 4.393 0 001.707 1.41 17.644 17.644 0 002.918 1.229 25.825 25.825 0 003.446.87 17.991 17.991 0 003.227.331q1.054 0 2.732-.151a16.466 16.466 0 003.29-.63 9.379 9.379 0 002.794-1.319 2.605 2.605 0 001.179-2.221 2.224 2.224 0 00-1.087-2.04 8.158 8.158 0 00-2.855-.96 31.911 31.911 0 00-4.035-.389q-2.266-.09-4.625-.27a43.272 43.272 0 01-4.624-.6 13.037 13.037 0 01-4.035-1.41 7.889 7.889 0 01-2.856-2.7 8.224 8.224 0 01-1.087-4.47 8.094 8.094 0 01.9-3.66 8.956 8.956 0 012.762-3.179 15.439 15.439 0 014.718-2.25 23.085 23.085 0 016.7-.871 29.713 29.713 0 015.711.481q2.421.48 4.191 1.019t2.979 1.021a5.721 5.721 0 002.018.479 1.76 1.76 0 001.242-.359l.744.48-4.283 7.5-.62-.241a3.266 3.266 0 00-.5-1.38 5.287 5.287 0 00-1.645-1.41 14.553 14.553 0 00-2.7-1.229 22.423 22.423 0 00-3.352-.87 19.5 19.5 0 00-6.425-.12 13.71 13.71 0 00-2.638.629 5.883 5.883 0 00-1.956 1.111 2.2 2.2 0 00-.776 1.71 2.42 2.42 0 001.086 2.16 8.1 8.1 0 002.856 1.08 27.778 27.778 0 004.035.479q2.267.123 4.625.3a39 39 0 014.625.63 13.665 13.665 0 014.035 1.441 7.414 7.414 0 013.942 7.049 7.539 7.539 0 01-1.707 5.1 12.011 12.011 0 01-4.252 3.119 19.622 19.622 0 01-5.5 1.53 42.045 42.045 0 01-5.494.391 37.669 37.669 0 01-5.927-.391 22.58 22.58 0 01-3.974-.96 26.765 26.765 0 01-2.514-1.019 3.817 3.817 0 00-1.614-.45 1.04 1.04 0 00-.807.479l-.869-.479zm36.501 9.899v-1.08q2.3 0 2.3-1.08V3.6q0-1.081-2.3-1.08V1.44h21.852q5.958 0 9.374 2.13t3.414 7.229q0 5.1-3.414 7.231t-9.374 2.13H82.795v10.679q0 1.081 1.987 1.08v1.08zm22.6-18.359a7.349 7.349 0 003.507-.78 3.938 3.938 0 000-6.12 7.349 7.349 0 00-3.507-.781H82.798v7.681zm48.23-6.721a1.091 1.091 0 00-.527-.989 3.674 3.674 0 00-1.831-.33H121.78v7.439h12.167a4.512 4.512 0 001.924-.33q.683-.327.683-1.71h1.117v9.361h-1.117q0-1.38-.683-1.771a3.919 3.919 0 00-1.924-.389H121.78v8.28h20.733a2.566 2.566 0 001.522-.42 1.328 1.328 0 00.589-1.141h1.118v8.221h-1.118c0-.6-.2-.94-.589-1.021a7.881 7.881 0 00-1.522-.12h-28.928v-1.08a1.226 1.226 0 00.776-.269.972.972 0 00.341-.811V3.6a.975.975 0 00-.341-.811 1.225 1.225 0 00-.776-.269V1.44h28.308a3.187 3.187 0 001.831-.391 1.237 1.237 0 00.527-1.05h1.117v7.92zm43.33 20.761a1.792 1.792 0 01-.341-.03 1.8 1.8 0 00-.341-.031 5.9 5.9 0 00-1.77.72q-1.4.721-3.538 1.62a32.123 32.123 0 01-4.873 1.561 24.252 24.252 0 01-5.712.66 29.034 29.034 0 01-7.511-.96 19.008 19.008 0 01-6.363-2.971 14.753 14.753 0 01-4.377-5.009 16.015 16.015 0 010-14.01 14.974 14.974 0 014.377-5.07 19.594 19.594 0 016.363-3.06 27.425 27.425 0 017.511-1.021 31.461 31.461 0 015.742.481q2.576.48 4.5 1.019A25.587 25.587 0 01184.29 3.6a5.63 5.63 0 001.366.479.638.638 0 00.528-.3c.144-.2.258-.361.341-.481l.931.721-4.842 7.26-.621-.42a2.094 2.094 0 00-.031-.361 6.332 6.332 0 00-.093-.42q-.126-.658-1.242-1.349a13.036 13.036 0 00-2.761-1.231 29.3 29.3 0 00-3.477-.9 17.65 17.65 0 00-3.384-.36 17.259 17.259 0 00-5 .719 12.61 12.61 0 00-4.159 2.1 10.327 10.327 0 00-2.824 3.39 10.5 10.5 0 000 9.179 10.32 10.32 0 002.824 3.391 12.569 12.569 0 004.159 2.1 17.193 17.193 0 005 .72 20.508 20.508 0 004.159-.449 25.661 25.661 0 003.974-1.141 13.346 13.346 0 003.011-1.559q1.208-.869 1.21-1.651a1.1 1.1 0 00-.248-.719l.869-.481 4.1 6.361zm7.077 3.239q1.614 0 1.614-1.08V3.6q0-1.081-1.614-1.08V1.44h10.3v1.08q-1.614 0-1.613 1.08v27.239q0 1.081 1.613 1.08v1.08h-10.3zm16.206 0a1.821 1.821 0 001.272-.779 12.7 12.7 0 00.9-1.5L224.52 6.299c.289-.518.548-1 .775-1.439a2.57 2.57 0 00.342-1.14.881.881 0 00-.434-.841 3.78 3.78 0 00-.931-.359V1.44h10.49v1.08a5.1 5.1 0 00-.868.33.869.869 0 00-.435.87 2.309 2.309 0 00.217.96q.218.48.652 1.26l12.913 24.42a2.066 2.066 0 00.838.96 12.58 12.58 0 001.209.6V33h-10.924v-1.08a1.5 1.5 0 00.621-.179.578.578 0 00.372-.54 3.644 3.644 0 00-.5-1.56l-2.36-4.44h-15.146l-2.235 4.259a4.923 4.923 0 00-.621 1.8c0 .442.393.66 1.18.66V33h-8.811zm23.4-11.16L229.049 9.6l-5.835 11.159zm50.468 13.381c0-.6-.2-.94-.59-1.021a7.87 7.87 0 00-1.521-.12h-29.549v-1.08q1.863 0 1.862-1.08V3.6q0-1.081-1.862-1.08V1.44h10.677v1.08q-1.738 0-1.738 1.08v23.88h20.61a2.563 2.563 0 001.521-.42 1.327 1.327 0 00.59-1.141h1.117v8.221zM36.44 77.68a1.813 1.813 0 01-.342-.029 1.72 1.72 0 00-.341-.031 5.883 5.883 0 00-1.769.72q-1.4.721-3.538 1.62a32.126 32.126 0 01-4.873 1.56 24.21 24.21 0 01-5.712.66 28.983 28.983 0 01-7.511-.96 18.969 18.969 0 01-6.363-2.97 14.772 14.772 0 01-4.377-5.009 16.006 16.006 0 010-14.01 14.986 14.986 0 014.377-5.071 19.6 19.6 0 016.363-3.06 27.417 27.417 0 017.511-1.02 31.568 31.568 0 015.742.48q2.576.482 4.5 1.02a25.917 25.917 0 013.042 1.02 5.6 5.6 0 001.365.48.636.636 0 00.528-.3c.145-.2.258-.361.341-.481l.932.72-4.843 7.261-.62-.42a2.2 2.2 0 00-.031-.361 7.042 7.042 0 00-.093-.42q-.126-.658-1.242-1.349a13.039 13.039 0 00-2.762-1.231 29.294 29.294 0 00-3.477-.9 17.7 17.7 0 00-3.383-.359 17.25 17.25 0 00-5 .719 12.632 12.632 0 00-4.16 2.1A10.364 10.364 0 007.88 61.45a10.5 10.5 0 000 9.179 10.331 10.331 0 002.824 3.39 12.576 12.576 0 004.16 2.1 17.217 17.217 0 005 .72 20.442 20.442 0 004.159-.45 25.666 25.666 0 003.973-1.14 13.3 13.3 0 003.011-1.559q1.21-.87 1.21-1.651a1.1 1.1 0 00-.248-.719l.869-.481 4.1 6.361zm24.83-27.6a25.694 25.694 0 016.952.991 21.936 21.936 0 016.456 2.969 16.312 16.312 0 014.78 5.01 14.727 14.727 0 010 14.34 16.3 16.3 0 01-4.78 5.011 20.359 20.359 0 01-6.456 2.88 27.335 27.335 0 01-13.9 0 20.355 20.355 0 01-6.456-2.88 16.317 16.317 0 01-4.781-5.011 14.737 14.737 0 010-14.34 16.328 16.328 0 014.781-5.01 21.93 21.93 0 016.456-2.969 25.692 25.692 0 016.948-.991zm0 5.52a16.051 16.051 0 00-4.718.721 14.614 14.614 0 00-4.253 2.069 10.885 10.885 0 00-3.072 3.33 9.173 9.173 0 000 9 10.865 10.865 0 003.072 3.33 14.586 14.586 0 004.253 2.07 15.819 15.819 0 009.436 0 14.6 14.6 0 004.252-2.07 10.9 10.9 0 003.073-3.33 9.169 9.169 0 000-9 10.923 10.923 0 00-3.073-3.33 14.633 14.633 0 00-4.252-2.069 16.069 16.069 0 00-4.718-.721zm25.453 25.32q1.178 0 1.179-1.08V52.6q0-1.08-1.179-1.08v-1.079h10.615v1.079c-.332 0-.5.2-.5.6q0 .482 1.242 1.68l17.816 17.88V52.6q0-1.08-1.614-1.08v-1.079h9.374v1.079q-1.181 0-1.179 1.08v27.24q0 1.08 1.179 1.08V82h-10.057v-1.08c.538 0 .808-.179.808-.54 0-.279-.333-.739-.994-1.38L94.48 59.92v19.92c0 .72.474 1.08 1.427 1.08V82H86.72zm63.256-1.08q0 1.08 1.366 1.08V82h-9.56v-1.08a1.222 1.222 0 00.776-.269.974.974 0 00.342-.811V55.96h-10.239a2.172 2.172 0 00-1.086.3 1.2 1.2 0 00-.529 1.141h-1.117v-8.4h1.117a1.192 1.192 0 00.529 1.14 2.156 2.156 0 001.086.3h27.562a2.167 2.167 0 001.087-.3 1.194 1.194 0 00.527-1.14h1.117v8.4h-1.117a1.2 1.2 0 00-.527-1.141 2.183 2.183 0 00-1.087-.3h-10.243zm49.599-22.92a1.094 1.094 0 00-.527-.99 3.683 3.683 0 00-1.831-.33h-20.113v7.44h12.167a4.517 4.517 0 001.925-.33q.681-.328.682-1.71h1.117v9.361h-1.117q0-1.38-.682-1.771a3.924 3.924 0 00-1.925-.389h-12.167v8.28h20.733a2.567 2.567 0 001.522-.421 1.327 1.327 0 00.59-1.14h1.117v8.22h-1.117c0-.6-.2-.94-.59-1.02a7.807 7.807 0 00-1.522-.12h-28.928v-1.08a1.222 1.222 0 00.776-.269.974.974 0 00.342-.811V52.6a.974.974 0 00-.342-.81 1.223 1.223 0 00-.776-.27v-1.079h28.308a3.185 3.185 0 001.831-.391 1.239 1.239 0 00.527-1.05h1.118v7.92zm7.947 24q1.177 0 1.178-1.08V52.6q0-1.08-1.178-1.08v-1.079h10.615v1.079c-.332 0-.5.2-.5.6q0 .482 1.242 1.68l17.816 17.88V52.6q0-1.08-1.614-1.08v-1.079h9.373v1.079q-1.178 0-1.178 1.08v27.24q0 1.08 1.178 1.08V82h-10.053v-1.08c.538 0 .807-.179.807-.54q0-.419-.993-1.38l-18.933-19.08v19.92c0 .72.474 1.08 1.427 1.08V82h-9.187zm63.257-1.08q0 1.08 1.366 1.08V82h-9.56v-1.08a1.225 1.225 0 00.776-.269.973.973 0 00.341-.811V55.96h-10.241a2.179 2.179 0 00-1.086.3 1.2 1.2 0 00-.528 1.141h-1.117v-8.4h1.117a1.193 1.193 0 00.528 1.14 2.163 2.163 0 001.086.3h27.563a2.168 2.168 0 001.087-.3 1.2 1.2 0 00.527-1.14h1.117v8.4h-1.117a1.2 1.2 0 00-.527-1.141 2.185 2.185 0 00-1.087-.3h-10.243zm21.354-7.74l.621.3a1.848 1.848 0 00.248.96 4.38 4.38 0 001.707 1.409 17.608 17.608 0 002.918 1.23 25.762 25.762 0 003.446.87 18.085 18.085 0 003.227.331q1.055 0 2.732-.151a16.612 16.612 0 003.29-.63 9.369 9.369 0 002.793-1.32 2.6 2.6 0 001.18-2.22 2.222 2.222 0 00-1.087-2.04 8.162 8.162 0 00-2.855-.96 31.92 31.92 0 00-4.035-.389q-2.267-.092-4.625-.271a43.175 43.175 0 01-4.624-.6 13.055 13.055 0 01-4.036-1.41 7.9 7.9 0 01-2.855-2.7 8.219 8.219 0 01-1.087-4.47 8.106 8.106 0 01.9-3.66 8.962 8.962 0 012.763-3.179 15.425 15.425 0 014.718-2.25 23.087 23.087 0 016.7-.871 29.8 29.8 0 015.711.48q2.421.482 4.19 1.02t2.98 1.02a5.7 5.7 0 002.017.48 1.757 1.757 0 001.243-.36l.744.481-4.283 7.5-.621-.241a3.253 3.253 0 00-.5-1.38 5.256 5.256 0 00-1.644-1.41 14.562 14.562 0 00-2.7-1.229 22.367 22.367 0 00-3.352-.87 19.5 19.5 0 00-6.426-.12 13.73 13.73 0 00-2.637.629 5.878 5.878 0 00-1.956 1.111 2.194 2.194 0 00-.776 1.71 2.417 2.417 0 001.086 2.159 8.057 8.057 0 002.856 1.08 27.737 27.737 0 004.035.48q2.267.122 4.625.3a38.984 38.984 0 014.625.63 13.637 13.637 0 014.035 1.441 7.413 7.413 0 013.941 7.049 7.53 7.53 0 01-1.707 5.1 11.979 11.979 0 01-4.252 3.12 19.606 19.606 0 01-5.494 1.53 42.07 42.07 0 01-5.494.39 37.716 37.716 0 01-5.928-.39 22.56 22.56 0 01-3.973-.96 26.483 26.483 0 01-2.514-1.02 3.832 3.832 0 00-1.614-.449 1.04 1.04 0 00-.807.479l-.869-.479z" fill="#fff"/></svg>