<svg xmlns="http://www.w3.org/2000/svg" width="188" height="63" viewBox="0 0 188 63">
  <defs>
    <style>
      .cls-1 {
        fill: #292929;
        fill-rule: evenodd;
      }
    </style>
  </defs>
  <path id="ETHICAL_BOOTH" data-name="ETHICAL BOOTH" class="cls-1" d="M18.955,7V2.42H1.45V28h17.8V23.422H7.9V17.2H18.461V12.619H7.9V7h11.06ZM49.641,7.749V2.42H24.885V7.749H34V28h6.445V7.749h9.192Zm12.851,4.578V2.42H56.047V28h6.445V17.691H74.87V28h6.445V2.42H74.87v9.906H62.492ZM96.235,28V2.42H89.79V28h6.445ZM117.857,2.091a16.5,16.5,0,0,0-7.342,1.593,12.087,12.087,0,0,0-5.1,4.578,12.986,12.986,0,0,0-1.84,6.958,13.247,13.247,0,0,0,1.7,6.683,12.072,12.072,0,0,0,4.916,4.706,15.769,15.769,0,0,0,7.553,1.721,20.461,20.461,0,0,0,9.8-2.234v-5.75a15.6,15.6,0,0,1-8.734,2.82,9.592,9.592,0,0,1-4.623-1.053,7.364,7.364,0,0,1-2.976-2.847,7.8,7.8,0,0,1-1.025-3.937,8.24,8.24,0,0,1,1.007-4.019,7.443,7.443,0,0,1,2.994-2.948,9.651,9.651,0,0,1,4.77-1.108,13.154,13.154,0,0,1,4.2.677A19.987,19.987,0,0,1,127.4,10V4.068a24.972,24.972,0,0,0-9.54-1.978h0ZM161.507,28L150.264,2.384h-6.72L132.411,28H139l2.454-5.9h10.986l2.472,5.9h6.592ZM150.74,17.984h-7.6l3.79-9.3ZM173.7,22.708V2.42h-6.445V28h18.036V22.708H173.7ZM33.665,37.429a10.751,10.751,0,0,0-6.39-1.675H16.417v25.58h11.1a15.088,15.088,0,0,0,7.571-1.611q2.774-1.611,2.774-5.548a6.385,6.385,0,0,0-1.373-4.092,8.232,8.232,0,0,0-4.175-2.591,5.72,5.72,0,0,0,2.683-2.17,5.94,5.94,0,0,0,1-3.378A5.284,5.284,0,0,0,33.665,37.429Zm-4.9,8.139a5.242,5.242,0,0,1-3.177.806H22.862V39.727h3a4.72,4.72,0,0,1,3.012.787A3.035,3.035,0,0,1,29.838,43,3,3,0,0,1,28.767,45.568ZM26.231,57.36H22.862V50.31h3.369q5.145,0,5.145,3.552,0,3.5-5.145,3.5h0ZM70.576,41.869a12.054,12.054,0,0,0-4.907-4.724,15.676,15.676,0,0,0-7.526-1.721,15.42,15.42,0,0,0-7.965,1.9,12.066,12.066,0,0,0-4.742,4.889A13.769,13.769,0,0,0,43.9,48.589a13.3,13.3,0,0,0,1.648,6.537,12.1,12.1,0,0,0,4.834,4.761,15.49,15.49,0,0,0,7.654,1.776,15.755,15.755,0,0,0,7.654-1.758,12.177,12.177,0,0,0,4.907-4.742A13.889,13.889,0,0,0,70.576,41.869ZM51.423,44.662A6.484,6.484,0,0,1,54.06,42a8.151,8.151,0,0,1,4.01-.952,7.937,7.937,0,0,1,4.092,1.016,6.776,6.776,0,0,1,2.628,2.719,7.891,7.891,0,0,1,.9,3.735,7.255,7.255,0,0,1-2.115,5.5,7.679,7.679,0,0,1-5.539,2.023,8.044,8.044,0,0,1-3.9-.934,6.6,6.6,0,0,1-2.673-2.646,7.83,7.83,0,0,1-.952-3.873A8.2,8.2,0,0,1,51.423,44.662Zm53.757-2.792a12.052,12.052,0,0,0-4.907-4.724,15.677,15.677,0,0,0-7.526-1.721,15.42,15.42,0,0,0-7.965,1.9,12.066,12.066,0,0,0-4.742,4.889A13.769,13.769,0,0,0,78.5,48.589a13.3,13.3,0,0,0,1.648,6.537,12.1,12.1,0,0,0,4.834,4.761,15.49,15.49,0,0,0,7.654,1.776,15.753,15.753,0,0,0,7.653-1.758,12.17,12.17,0,0,0,4.907-4.742A13.887,13.887,0,0,0,105.18,41.869ZM86.027,44.662A6.484,6.484,0,0,1,88.664,42a8.151,8.151,0,0,1,4.01-.952,7.937,7.937,0,0,1,4.092,1.016,6.776,6.776,0,0,1,2.628,2.719,7.891,7.891,0,0,1,.9,3.735,7.255,7.255,0,0,1-2.115,5.5,7.679,7.679,0,0,1-5.539,2.023,8.044,8.044,0,0,1-3.9-.934,6.6,6.6,0,0,1-2.673-2.646,7.83,7.83,0,0,1-.952-3.873A8.2,8.2,0,0,1,86.027,44.662Zm50.9-3.58V35.754H112.172v5.328h9.119V61.333h6.445V41.082h9.192Zm12.851,4.578V35.754h-6.446v25.58h6.446V51.025h12.378V61.333H168.6V35.754h-6.445V45.66H149.779Z"/>
</svg>
