<svg xmlns="http://www.w3.org/2000/svg" width="270" height="32"><path fill="none" d="M0 0h270v32H0z"/><path d="M10.662 2.881a.38.38 0 00-.184-.344 1.282 1.282 0 00-.637-.115h-7V5.01h4.232a1.573 1.573 0 00.669-.115q.237-.114.238-.595h.388v3.256H7.98q0-.48-.238-.616a1.364 1.364 0 00-.669-.136H2.841v2.88h7.212a.889.889 0 00.529-.146.462.462 0 00.206-.4h.389v2.859h-.389c0-.209-.069-.327-.206-.355a2.777 2.777 0 00-.529-.042H-.009v-.375a.424.424 0 00.27-.094.339.339 0 00.118-.282V1.374a.339.339 0 00-.118-.282.426.426 0 00-.27-.094V.622h9.846a1.117 1.117 0 00.637-.135.432.432 0 00.184-.366h.389v2.755zm9.484 7.976c0 .25.158.376.475.376v.375h-3.325v-.375a.426.426 0 00.27-.094.337.337 0 00.119-.282V2.551h-3.563a.758.758 0 00-.378.1.415.415 0 00-.183.4h-.39V.129h.39a.416.416 0 00.183.4.752.752 0 00.378.1h9.587a.75.75 0 00.377-.1.416.416 0 00.184-.4h.389v2.922h-.389a.415.415 0 00-.184-.4.756.756 0 00-.377-.1h-3.562zm16.173-9.479c0-.25-.159-.375-.475-.375V.627h3.325v.376a.426.426 0 00-.27.094.339.339 0 00-.119.282v9.475a.339.339 0 00.119.282.424.424 0 00.27.094v.375h-3.325v-.375c.316 0 .475-.125.475-.376V6.93h-6.953v3.924a.34.34 0 00.118.282.424.424 0 00.271.094v.375h-3.26v-.375c.273 0 .41-.125.41-.376V1.379c0-.25-.137-.375-.41-.375V.628h3.26v.376a.427.427 0 00-.271.094.34.34 0 00-.118.282v3.548h6.953zm5.202 9.851q.562 0 .562-.376V1.378q0-.376-.562-.375V.627h3.584v.376q-.561 0-.562.375v9.475q0 .375.562.376v.375h-3.584zm18.16-1.129a.6.6 0 01-.119-.01.635.635 0 00-.119-.01 2.051 2.051 0 00-.615.25q-.486.25-1.231.563a11.122 11.122 0 01-1.695.542 8.4 8.4 0 01-1.986.23 10.089 10.089 0 01-2.613-.334 6.605 6.605 0 01-2.213-1.033 5.141 5.141 0 01-1.522-1.743 5.567 5.567 0 010-4.873 5.217 5.217 0 011.522-1.763A6.83 6.83 0 0151.303.855 9.55 9.55 0 0153.916.5a10.971 10.971 0 012 .167q.9.167 1.565.355a8.982 8.982 0 011.059.355 1.933 1.933 0 00.475.167.22.22 0 00.183-.1l.119-.167.324.25-1.685 2.525-.216-.146a.721.721 0 00-.011-.126 1.929 1.929 0 00-.032-.146q-.043-.229-.432-.469a4.548 4.548 0 00-.961-.428 10.13 10.13 0 00-1.208-.313 6.185 6.185 0 00-1.176-.125 5.988 5.988 0 00-1.738.25 4.371 4.371 0 00-1.446.73 3.613 3.613 0 00-.983 1.179 3.655 3.655 0 000 3.193 3.6 3.6 0 00.983 1.179 4.362 4.362 0 001.446.73 5.988 5.988 0 001.738.25 7.144 7.144 0 001.446-.156 8.926 8.926 0 001.382-.4 4.625 4.625 0 001.047-.543q.422-.3.422-.574a.382.382 0 00-.087-.25l.3-.167 1.425 2.212zm1.122 1.129a.632.632 0 00.443-.271 4.47 4.47 0 00.313-.522l3.994-8.118q.151-.271.27-.5a.9.9 0 00.119-.4.306.306 0 00-.151-.292 1.331 1.331 0 00-.323-.125V.625h3.648v.376a1.837 1.837 0 00-.3.115.3.3 0 00-.151.3.811.811 0 00.075.334c.051.112.126.258.227.438l4.491 8.494a.722.722 0 00.292.333 4.513 4.513 0 00.421.209v.375h-3.8v-.375a.512.512 0 00.215-.063.2.2 0 00.13-.188 1.275 1.275 0 00-.172-.543l-.821-1.544h-5.269l-.777 1.482a1.721 1.721 0 00-.216.626q0 .23.41.23v.375h-3.066zm8.141-3.882L67.13 3.465l-2.029 3.882zm17.554 4.651c0-.209-.068-.327-.2-.355a2.764 2.764 0 00-.529-.042H75.491v-.375q.647 0 .648-.376V1.375q0-.376-.648-.375V.624h3.714V1q-.6 0-.6.375v8.306h7.168a.891.891 0 00.529-.146.461.461 0 00.2-.4h.389v2.859zm17.489-9.117a.38.38 0 00-.184-.344 1.277 1.277 0 00-.636-.115h-7V5.01h4.232a2.115 2.115 0 00.669-.083.355.355 0 00.238-.376h.389v3.005h-.389q0-.48-.238-.616a1.361 1.361 0 00-.669-.136h-4.232v4.049a.3.3 0 00.184.282 1.016 1.016 0 00.464.094v.375h-3.671v-.375c.374 0 .562-.125.562-.376V1.378c0-.25-.188-.375-.562-.375V.627h10.02a1.113 1.113 0 00.636-.135.432.432 0 00.184-.366h.389v2.755zm-.127 8.348a.633.633 0 00.442-.271 4.4 4.4 0 00.313-.522l3.994-8.118c.1-.181.191-.348.27-.5a.905.905 0 00.119-.4.306.306 0 00-.151-.292 1.331 1.331 0 00-.323-.125V.625h3.648v.376a1.837 1.837 0 00-.3.115.3.3 0 00-.151.3.8.8 0 00.076.334c.051.112.125.258.227.438l4.492 8.494a.718.718 0 00.291.333 4.574 4.574 0 00.421.209v.375h-3.8v-.375a.517.517 0 00.216-.063.2.2 0 00.13-.188 1.277 1.277 0 00-.173-.543l-.82-1.544h-5.269l-.777 1.482a1.711 1.711 0 00-.216.626c0 .153.136.23.411.23v.375h-3.07zM112 7.347l-1.814-3.882-2.029 3.882zm7.425.812l.216.1a.637.637 0 00.087.334 1.527 1.527 0 00.594.49 6.13 6.13 0 001.015.428 8.919 8.919 0 001.2.3 6.274 6.274 0 001.123.115q.368 0 .95-.052a5.827 5.827 0 001.145-.219 3.258 3.258 0 00.971-.459.9.9 0 00.41-.772.773.773 0 00-.377-.71 2.843 2.843 0 00-.994-.334 11.247 11.247 0 00-1.4-.136q-.789-.031-1.609-.094a15.163 15.163 0 01-1.609-.209 4.551 4.551 0 01-1.4-.49 2.752 2.752 0 01-.994-.939 2.869 2.869 0 01-.377-1.555 2.822 2.822 0 01.313-1.273 3.118 3.118 0 01.961-1.106 5.383 5.383 0 011.641-.783 8.032 8.032 0 012.333-.3 10.356 10.356 0 011.987.167q.841.167 1.457.355t1.036.355a1.981 1.981 0 00.7.167.608.608 0 00.431-.125l.26.167-1.49 2.609-.216-.083a1.133 1.133 0 00-.173-.48 1.835 1.835 0 00-.572-.49 5.127 5.127 0 00-.94-.428 7.917 7.917 0 00-1.166-.3 6.78 6.78 0 00-2.234-.042 4.812 4.812 0 00-.918.219 2.042 2.042 0 00-.68.386.762.762 0 00-.271.595.84.84 0 00.378.751 2.8 2.8 0 00.993.376 9.62 9.62 0 001.4.167c.524.028 1.062.063 1.608.1a13.438 13.438 0 011.608.22 4.738 4.738 0 011.4.5 2.58 2.58 0 011.371 2.452 2.621 2.621 0 01-.594 1.774 4.173 4.173 0 01-1.479 1.085 6.819 6.819 0 01-1.91.532 14.569 14.569 0 01-1.911.136 13.073 13.073 0 01-2.062-.136 7.856 7.856 0 01-1.382-.334 9.2 9.2 0 01-.874-.355 1.334 1.334 0 00-.562-.156.362.362 0 00-.281.167l-.3-.167zm22.068-6.781c0-.25-.159-.375-.476-.375V.627h3.325v.376a.426.426 0 00-.27.094.339.339 0 00-.119.282v9.475a.339.339 0 00.119.282.424.424 0 00.27.094v.375h-3.325v-.375c.316 0 .476-.125.476-.376V6.93h-6.954v3.924a.34.34 0 00.119.282.425.425 0 00.271.094v.375h-3.26v-.375c.273 0 .41-.125.41-.376V1.379c0-.25-.137-.375-.41-.375V.628h3.26v.376a.428.428 0 00-.271.094.34.34 0 00-.119.282v3.548h6.954zm5.199 9.851q.562 0 .561-.376V1.378q0-.376-.561-.375V.627h3.584v.376q-.561 0-.562.375v9.475q0 .375.562.376v.375h-3.584zM158.983.5a8.947 8.947 0 012.418.344 7.632 7.632 0 012.246 1.033 5.678 5.678 0 011.662 1.743 5.126 5.126 0 010 4.987 5.67 5.67 0 01-1.662 1.742 7.073 7.073 0 01-2.246 1 9.5 9.5 0 01-4.837 0 7.068 7.068 0 01-2.245-1 5.662 5.662 0 01-1.663-1.742 5.126 5.126 0 010-4.987 5.67 5.67 0 011.663-1.743 7.627 7.627 0 012.245-1.033A8.959 8.959 0 01158.983.5zm0 1.92a5.594 5.594 0 00-1.642.25 5.089 5.089 0 00-1.479.72 3.78 3.78 0 00-1.069 1.158 3.195 3.195 0 000 3.13 3.789 3.789 0 001.069 1.159 5.088 5.088 0 001.479.719 5.5 5.5 0 003.283 0 5.109 5.109 0 001.479-.719 3.805 3.805 0 001.068-1.159 3.185 3.185 0 000-3.13 3.8 3.8 0 00-1.068-1.158 5.11 5.11 0 00-1.479-.72 5.6 5.6 0 00-1.641-.25zm8.851 8.809q.41 0 .411-.376V1.378q0-.376-.411-.375V.627h3.692v.376c-.115 0-.173.07-.173.208 0 .112.144.306.433.585l6.2 6.219V1.379c0-.25-.187-.375-.562-.375V.628h3.261v.376q-.41 0-.41.375v9.475q0 .375.41.376v.375h-3.5v-.375q.281 0 .281-.188 0-.145-.345-.48l-6.585-6.636v6.929c0 .25.165.376.5.376v.375h-3.2zm21.96-3.07l.216.1a.646.646 0 00.087.334 1.531 1.531 0 00.594.49 6.13 6.13 0 001.015.428 8.908 8.908 0 001.2.3 6.269 6.269 0 001.122.115c.245 0 .561-.017.95-.052a5.813 5.813 0 001.145-.219 3.256 3.256 0 00.972-.459.905.905 0 00.41-.772.774.774 0 00-.377-.71 2.84 2.84 0 00-.994-.334 11.228 11.228 0 00-1.4-.136q-.789-.031-1.608-.094a15.13 15.13 0 01-1.609-.209 4.554 4.554 0 01-1.4-.49 2.75 2.75 0 01-.993-.939 2.864 2.864 0 01-.378-1.555 2.822 2.822 0 01.313-1.273 3.118 3.118 0 01.961-1.106 5.392 5.392 0 011.641-.783 8.032 8.032 0 012.333-.3 10.355 10.355 0 011.986.167q.842.167 1.458.355t1.036.355a1.976 1.976 0 00.7.167.608.608 0 00.431-.125l.26.167-1.49 2.609-.216-.083a1.133 1.133 0 00-.173-.48 1.835 1.835 0 00-.572-.49 5.112 5.112 0 00-.94-.428 7.92 7.92 0 00-1.165-.3 6.786 6.786 0 00-2.235-.042 4.784 4.784 0 00-.917.219 2.038 2.038 0 00-.681.386.762.762 0 00-.27.595.839.839 0 00.378.751 2.805 2.805 0 00.993.376 9.6 9.6 0 001.4.167q.787.042 1.608.1a13.438 13.438 0 011.608.22 4.741 4.741 0 011.4.5 2.582 2.582 0 011.371 2.452 2.619 2.619 0 01-.594 1.774 4.165 4.165 0 01-1.479 1.085 6.823 6.823 0 01-1.91.532 14.569 14.569 0 01-1.911.136 13.071 13.071 0 01-2.062-.136 7.828 7.828 0 01-1.381-.334 9.123 9.123 0 01-.875-.355 1.333 1.333 0 00-.561-.156.36.36 0 00-.281.167l-.3-.167zm22.068-6.781q0-.376-.475-.375V.627h3.325v.376a.428.428 0 00-.271.094.34.34 0 00-.119.282v9.475a.34.34 0 00.119.282.425.425 0 00.271.094v.375h-3.325v-.375q.475 0 .475-.376V6.93h-6.953v3.924a.338.338 0 00.118.282.424.424 0 00.271.094v.375h-3.261v-.375q.41 0 .41-.376V1.379q0-.376-.41-.375V.628h3.261v.376a.427.427 0 00-.271.094.339.339 0 00-.118.282v3.548h6.953zM223.671.5a8.954 8.954 0 012.419.344 7.629 7.629 0 012.246 1.033 5.668 5.668 0 011.663 1.743 5.126 5.126 0 010 4.987 5.66 5.66 0 01-1.663 1.742 7.07 7.07 0 01-2.246 1 9.5 9.5 0 01-4.836 0 7.058 7.058 0 01-2.246-1 5.671 5.671 0 01-1.663-1.742 5.126 5.126 0 010-4.987 5.679 5.679 0 011.663-1.743 7.615 7.615 0 012.246-1.033A8.946 8.946 0 01223.671.5zm0 1.92a5.6 5.6 0 00-1.641.25 5.083 5.083 0 00-1.479.72 3.781 3.781 0 00-1.069 1.158 3.192 3.192 0 000 3.13 3.79 3.79 0 001.069 1.159 5.082 5.082 0 001.479.719 5.5 5.5 0 003.282 0 5.1 5.1 0 001.479-.719 3.809 3.809 0 001.069-1.159 3.195 3.195 0 000-3.13 3.8 3.8 0 00-1.069-1.158 5.1 5.1 0 00-1.479-.72 5.594 5.594 0 00-1.641-.25zM235.007.998q-.324 0-.324.4a1.179 1.179 0 00.032.25 3.981 3.981 0 00.162.48l2.312 5.8h.042l2.289-5.885a3.213 3.213 0 00.141-.407 1.051 1.051 0 00.032-.24q0-.4-.281-.4V.62h3.692v.376a.233.233 0 00-.216.1.425.425 0 00-.065.229 2.16 2.16 0 00.216.71l2.311 5.885h.043l2.332-6.01a1.322 1.322 0 00.151-.563.349.349 0 00-.108-.24.344.344 0 00-.259-.115V.616h3.2v.376a.381.381 0 00-.357.25c-.079.167-.169.376-.269.626l-3.11 7.972-.227.584a1.212 1.212 0 00-.1.417.371.371 0 00.107.261.394.394 0 00.3.115v.375h-3.411v-.375a1.3 1.3 0 00.269-.125.255.255 0 00.141-.229 1.132 1.132 0 00-.076-.375q-.076-.208-.248-.584l-2.483-6.156h-.043l-2.354 6.031a4.146 4.146 0 00-.324 1.022.385.385 0 00.281.417v.375h-3.347v-.375a.587.587 0 00.26-.063.215.215 0 00.129-.209.964.964 0 00-.075-.355c-.05-.125-.1-.257-.162-.4l-3.455-8.619a2.224 2.224 0 00-.183-.386.451.451 0 00-.313-.2V.61h3.347zm34.332 10.667a7.456 7.456 0 01-1.393-.115 4.342 4.342 0 01-1.036-.323 3.5 3.5 0 01-.756-.47 6.872 6.872 0 01-.572-.532 11.033 11.033 0 01-.96.7 5.077 5.077 0 01-.908.458 3.81 3.81 0 01-.994.23q-.529.052-1.22.052a7.868 7.868 0 01-1.587-.167 4.638 4.638 0 01-1.468-.563 3.5 3.5 0 01-1.09-1.023 2.579 2.579 0 01-.432-1.5 2.938 2.938 0 01.227-1.2 2.792 2.792 0 01.615-.887 3.352 3.352 0 01.929-.626 7.141 7.141 0 011.166-.417V5.24a2.577 2.577 0 01-1.155-.741 1.782 1.782 0 01-.486-1.242 2.118 2.118 0 01.357-1.242 3.08 3.08 0 01.907-.855 3.966 3.966 0 011.252-.5 6.134 6.134 0 012.753 0 3.971 3.971 0 011.241.5 3.074 3.074 0 01.907.855 2.115 2.115 0 01.357 1.242 1.972 1.972 0 01-.422 1.262 2.009 2.009 0 01-.918.7 1.591 1.591 0 01.453.449 4.766 4.766 0 01.3.522c.087.174.166.341.238.5a1.2 1.2 0 00.259.386 6.139 6.139 0 01.755-1.043 8.874 8.874 0 01.864-.844 6.6 6.6 0 01.788-.585 2.15 2.15 0 01.529-.261 1.26 1.26 0 00.194-.094.154.154 0 00.086-.136h.216v3.214h-.216a1.63 1.63 0 00-.14-.292.354.354 0 00-.334-.167.747.747 0 00-.5.208 2.391 2.391 0 00-.432.511 5.844 5.844 0 00-.346.616 4.009 4.009 0 00-.216.522 3.663 3.663 0 00.724.678 1.528 1.528 0 00.789.323q.3 0 .377-.188a1.108 1.108 0 00.075-.417h.216zm-10.041-3.548a1.645 1.645 0 00.237.9 1.839 1.839 0 00.626.606 2.936 2.936 0 00.854.333 4.151 4.151 0 00.917.1 2.577 2.577 0 00.832-.135 3.275 3.275 0 00.723-.344 2.109 2.109 0 00.529-.469 1.16 1.16 0 00.248-.531 3.347 3.347 0 01-.475-.867 4.845 4.845 0 00-.346-.772 1.551 1.551 0 00-.518-.553 1.874 1.874 0 00-.994-.209 4.18 4.18 0 00-.917.1 2.958 2.958 0 00-.854.334 1.876 1.876 0 00-.626.595 1.634 1.634 0 00-.235.912zm2.807-6.073a2.3 2.3 0 00-1.284.344 1.356 1.356 0 000 2.15 2.568 2.568 0 002.569 0 1.356 1.356 0 000-2.15 2.3 2.3 0 00-1.285-.344zM0 31.105a.634.634 0 00.443-.271 4.539 4.539 0 00.313-.522l3.994-8.118q.151-.271.27-.5a.907.907 0 00.119-.4.306.306 0 00-.152-.292 1.331 1.331 0 00-.323-.125v-.376h3.649v.376a1.814 1.814 0 00-.3.115.3.3 0 00-.151.3.8.8 0 00.076.334q.075.167.226.438l4.492 8.494a.718.718 0 00.291.333 4.574 4.574 0 00.421.209v.375h-3.8V31.1a.519.519 0 00.216-.063.2.2 0 00.13-.188 1.277 1.277 0 00-.173-.543l-.82-1.544H3.646l-.777 1.482a1.711 1.711 0 00-.216.626c0 .153.136.23.411.23v.375H-.002zm8.14-3.882l-1.814-3.882-2.03 3.882zm18.57 2.753a.585.585 0 01-.118-.01.655.655 0 00-.12-.01 2.055 2.055 0 00-.614.25q-.487.25-1.231.563a11.129 11.129 0 01-1.7.542 8.4 8.4 0 01-1.986.23 10.085 10.085 0 01-2.612-.334 6.615 6.615 0 01-2.214-1.033 5.15 5.15 0 01-1.522-1.743 5.567 5.567 0 010-4.873 5.226 5.226 0 011.522-1.763 6.84 6.84 0 012.214-1.064 9.545 9.545 0 012.612-.355 10.974 10.974 0 012 .167q.9.167 1.565.355a8.944 8.944 0 011.058.355 1.947 1.947 0 00.475.167.222.222 0 00.184-.1l.119-.167.324.25-1.684 2.525-.216-.146a.721.721 0 00-.011-.126 1.929 1.929 0 00-.032-.146q-.044-.229-.432-.469a4.566 4.566 0 00-.961-.428 10.2 10.2 0 00-1.209-.313 6.194 6.194 0 00-1.177-.125 5.993 5.993 0 00-1.738.25 4.385 4.385 0 00-1.446.73 3.611 3.611 0 00-.982 1.179 3.655 3.655 0 000 3.193 3.6 3.6 0 00.982 1.179 4.376 4.376 0 001.446.73 5.993 5.993 0 001.738.25 7.15 7.15 0 001.447-.156 8.9 8.9 0 001.381-.4 4.619 4.619 0 001.047-.543q.42-.3.421-.574a.384.384 0 00-.086-.25l.3-.167 1.425 2.212zm9.068-9.6a8.95 8.95 0 012.418.344 7.632 7.632 0 012.246 1.033 5.678 5.678 0 011.662 1.743 5.126 5.126 0 010 4.987 5.67 5.67 0 01-1.662 1.742 7.073 7.073 0 01-2.246 1 9.5 9.5 0 01-4.837 0 7.063 7.063 0 01-2.245-1 5.656 5.656 0 01-1.663-1.742 5.126 5.126 0 010-4.987 5.664 5.664 0 011.663-1.743 7.621 7.621 0 012.245-1.033 8.956 8.956 0 012.419-.344zm0 1.92a5.593 5.593 0 00-1.641.25 5.083 5.083 0 00-1.479.72 3.781 3.781 0 00-1.069 1.158 3.195 3.195 0 000 3.13 3.79 3.79 0 001.069 1.159 5.082 5.082 0 001.479.719 5.5 5.5 0 003.282 0 5.111 5.111 0 001.479-.719 3.811 3.811 0 001.068-1.159 3.188 3.188 0 000-3.13 3.8 3.8 0 00-1.068-1.158 5.113 5.113 0 00-1.479-.72 5.6 5.6 0 00-1.641-.25zm12.286-1.422q-.475 0-.475.375v6.261a1.885 1.885 0 00.875 1.805 6.922 6.922 0 005.117 0 1.887 1.887 0 00.875-1.805v-6.261q0-.376-.647-.375v-.376h3.454v.376q-.518 0-.518.375v6.157a4.915 4.915 0 01-.367 2.034 2.983 2.983 0 01-1.1 1.283 4.552 4.552 0 01-1.825.647 19.028 19.028 0 01-5.031 0 4.541 4.541 0 01-1.824-.647 2.98 2.98 0 01-1.1-1.283 4.9 4.9 0 01-.367-2.034v-6.157q0-.376-.6-.375v-.376h3.541zm12.243 7.161l.216.1a.646.646 0 00.087.334 1.527 1.527 0 00.594.49 6.13 6.13 0 001.015.428 8.919 8.919 0 001.2.3 6.279 6.279 0 001.123.115c.245 0 .561-.017.95-.052a5.813 5.813 0 001.145-.219 3.247 3.247 0 00.971-.459.9.9 0 00.41-.772.773.773 0 00-.377-.71 2.843 2.843 0 00-.994-.334 11.237 11.237 0 00-1.4-.136q-.789-.031-1.609-.094a15.137 15.137 0 01-1.608-.209 4.554 4.554 0 01-1.4-.49 2.747 2.747 0 01-.993-.939 2.864 2.864 0 01-.378-1.555 2.822 2.822 0 01.313-1.273 3.127 3.127 0 01.961-1.106 5.386 5.386 0 011.641-.783 8.03 8.03 0 012.333-.3 10.355 10.355 0 011.986.167q.842.167 1.458.355t1.036.355a1.981 1.981 0 00.7.167.608.608 0 00.431-.125l.26.167-1.49 2.609-.216-.083a1.139 1.139 0 00-.173-.48 1.835 1.835 0 00-.572-.49 5.127 5.127 0 00-.94-.428 7.92 7.92 0 00-1.165-.3 6.786 6.786 0 00-2.235-.042 4.784 4.784 0 00-.917.219 2.038 2.038 0 00-.681.386.762.762 0 00-.271.595.84.84 0 00.378.751 2.8 2.8 0 00.993.376 9.611 9.611 0 001.4.167q.787.042 1.608.1a13.438 13.438 0 011.608.22 4.741 4.741 0 011.4.5 2.582 2.582 0 011.371 2.452 2.619 2.619 0 01-.594 1.774 4.165 4.165 0 01-1.479 1.085 6.819 6.819 0 01-1.91.532 14.569 14.569 0 01-1.911.136 13.071 13.071 0 01-2.062-.136 7.828 7.828 0 01-1.381-.334 9.123 9.123 0 01-.875-.355 1.333 1.333 0 00-.561-.156.359.359 0 00-.281.167l-.3-.167zm18.44 2.698c0 .25.158.376.475.376v.375h-3.325v-.375a.425.425 0 00.27-.094.337.337 0 00.119-.282v-8.306h-3.563a.756.756 0 00-.378.1.415.415 0 00-.183.4h-.389v-2.922h.389a.416.416 0 00.183.4.751.751 0 00.378.1h9.587a.749.749 0 00.377-.1.416.416 0 00.184-.4h.389v2.922h-.389a.415.415 0 00-.184-.4.755.755 0 00-.377-.1h-3.562zm6.088.372q.561 0 .562-.376v-9.475q0-.376-.562-.375v-.376h3.584v.376q-.562 0-.562.375v9.475q0 .375.562.376v.375h-3.584zm18.159-1.129a.589.589 0 01-.118-.01.648.648 0 00-.119-.01 2.056 2.056 0 00-.615.25q-.486.25-1.231.563a11.147 11.147 0 01-1.7.542 8.4 8.4 0 01-1.986.23 10.082 10.082 0 01-2.612-.334 6.6 6.6 0 01-2.213-1.033 5.141 5.141 0 01-1.522-1.743 5.567 5.567 0 010-4.873 5.217 5.217 0 011.522-1.763 6.828 6.828 0 012.213-1.064 9.543 9.543 0 012.612-.355 10.969 10.969 0 012 .167q.9.167 1.565.355a8.957 8.957 0 011.058.355 1.94 1.94 0 00.475.167.222.222 0 00.184-.1l.118-.167.324.25-1.685 2.525-.215-.146a.772.772 0 00-.012-.126 2.586 2.586 0 00-.032-.146c-.029-.153-.172-.309-.433-.469a4.545 4.545 0 00-.96-.428 10.155 10.155 0 00-1.21-.313 6.181 6.181 0 00-1.176-.125 5.993 5.993 0 00-1.738.25 4.381 4.381 0 00-1.446.73 3.618 3.618 0 00-.983 1.179 3.655 3.655 0 000 3.193 3.606 3.606 0 00.983 1.179 4.371 4.371 0 001.446.73 5.993 5.993 0 001.738.25 7.145 7.145 0 001.447-.156 8.926 8.926 0 001.382-.4 4.625 4.625 0 001.047-.543q.422-.3.422-.574a.382.382 0 00-.087-.25l.3-.167 1.425 2.212zm18.57 1.898c0-.209-.068-.327-.205-.355a2.751 2.751 0 00-.529-.042h-10.278v-.375q.648 0 .648-.376v-9.475q0-.376-.648-.375V20.5h3.714v.376c-.4 0-.6.125-.6.375v8.306h7.168a.888.888 0 00.529-.146.46.46 0 00.205-.4h.389v2.859zm2.373-.769c.375 0 .562-.125.562-.376v-9.475c0-.25-.187-.375-.562-.375v-.376h3.584v.376q-.561 0-.561.375v9.475q0 .375.561.376v.375h-3.584zm18.659-10.231a.688.688 0 00-.627.3 4.205 4.205 0 00-.281.491l-3.822 8.118q-.193.418-.324.668a.954.954 0 00-.129.355.245.245 0 00.054.167.81.81 0 00.14.125v.375h-3.3v-.375a.3.3 0 00.194-.292 1.307 1.307 0 00-.162-.428l-.4-.8-3.886-8.16a.711.711 0 00-.3-.334 2.988 2.988 0 00-.562-.208V20.5h3.865v.376a.627.627 0 00-.292.073.287.287 0 00-.141.282 1.356 1.356 0 00.184.584q.183.355.443.876l2.764 5.739 2.7-5.656q.259-.542.486-.97a1.6 1.6 0 00.227-.595q0-.333-.6-.334v-.376h3.78zm12.37 1.883a.38.38 0 00-.184-.344 1.281 1.281 0 00-.637-.115h-7v2.588h4.232a1.572 1.572 0 00.669-.115c.158-.076.238-.274.238-.595h.388v3.256h-.388c0-.32-.08-.525-.238-.616a1.364 1.364 0 00-.669-.136h-4.232v2.88h7.212a.892.892 0 00.529-.146.461.461 0 00.205-.4h.389v2.859h-.389q0-.313-.205-.355a2.79 2.79 0 00-.529-.042h-10.062v-.375a.424.424 0 00.27-.094.337.337 0 00.118-.282V21.25a.337.337 0 00-.118-.282.426.426 0 00-.27-.094v-.376h9.846a1.116 1.116 0 00.637-.135.432.432 0 00.184-.366h.389v2.755z" fill="#292929"/></svg>