<svg xmlns="http://www.w3.org/2000/svg" width="347" height="35" viewBox="0 0 347 35">
  <defs>
    <style>
      .cls-1 {
        fill: #292929;
        fill-rule: evenodd;
      }
    </style>
  </defs>
  <path id="WORKSHOP" class="cls-1" d="M28.724,20.356L21.608,1.736h-8.1l12.98,31.578H30.6l8.84-20.522,8.75,20.522h4.051L65.427,1.736H57.415l-7.3,18.62L42.466,1.736H36.513ZM104.587,9.211a14.734,14.734,0,0,0-6-5.774,19.16,19.16,0,0,0-9.2-2.1,18.846,18.846,0,0,0-9.735,2.316,14.747,14.747,0,0,0-5.8,5.975,16.829,16.829,0,0,0-1.88,7.8,16.253,16.253,0,0,0,2.014,7.99A14.788,14.788,0,0,0,79.9,31.232,18.933,18.933,0,0,0,89.257,33.4a19.256,19.256,0,0,0,9.355-2.148,14.884,14.884,0,0,0,6-5.8,16.146,16.146,0,0,0,2.059-8.079A16.273,16.273,0,0,0,104.587,9.211ZM81.178,12.623A7.923,7.923,0,0,1,84.4,9.367,9.963,9.963,0,0,1,89.3,8.2a9.7,9.7,0,0,1,5,1.242,8.282,8.282,0,0,1,3.211,3.323,9.644,9.644,0,0,1,1.1,4.565,8.867,8.867,0,0,1-2.585,6.725,9.386,9.386,0,0,1-6.77,2.473,9.832,9.832,0,0,1-4.767-1.141,8.067,8.067,0,0,1-3.267-3.234,9.57,9.57,0,0,1-1.164-4.733A10.02,10.02,0,0,1,81.178,12.623Zm56.683-8.292q-2.91-2.6-8.281-2.6h-13V33h7.877V20.4h1.41a6.69,6.69,0,0,1,2.529.414,5.414,5.414,0,0,1,1.992,1.578,18.264,18.264,0,0,1,2.171,3.558L136.182,33H144.8l-4.073-7.878a28.448,28.448,0,0,0-2.551-4.04,8.758,8.758,0,0,0-2.551-2.16,8.569,8.569,0,0,0,3.86-3.133,8.305,8.305,0,0,0,1.287-4.61A8.737,8.737,0,0,0,137.861,4.332Zm-6.4,10.082a6.5,6.5,0,0,1-3.715.884h-3.29V7.107h3.424q4.857,0,4.857,4.163A3.56,3.56,0,0,1,131.46,14.414Zm29.425,1.712V1.736h-7.878V33h7.878V17.827L173.977,33H183.8L169.322,16.417,181.5,1.736h-8.8ZM206.12,1.993a19.655,19.655,0,0,0-5.091-.66,13.138,13.138,0,0,0-5.718,1.141,8.48,8.48,0,0,0-3.625,3.111,8.094,8.094,0,0,0-1.242,4.409,7.981,7.981,0,0,0,1.152,4.353,10.265,10.265,0,0,0,2.753,2.954,33.644,33.644,0,0,0,3.883,2.316,26.314,26.314,0,0,1,3.681,2.037,5.693,5.693,0,0,1,1.578,1.488,2.9,2.9,0,0,1,.38,1.511,2.492,2.492,0,0,1-1.029,2.025,4.741,4.741,0,0,1-3,.817q-4.453,0-9.153-3.76v7.072a22.335,22.335,0,0,0,10.16,2.6,13.729,13.729,0,0,0,5.673-1.119,8.9,8.9,0,0,0,3.872-3.178,8.372,8.372,0,0,0,1.376-4.767,7.883,7.883,0,0,0-1.107-4.286,10.571,10.571,0,0,0-2.91-3.021,43.468,43.468,0,0,0-4.935-2.876,17.143,17.143,0,0,1-3.759-2.327A2.787,2.787,0,0,1,198.1,9.77a2.434,2.434,0,0,1,.94-2,4.383,4.383,0,0,1,2.775-.75q4.23,0,8.661,3.469V3.795A16.583,16.583,0,0,0,206.12,1.993ZM229.6,13.843V1.736h-7.877V33H229.6V20.4h15.129V33h7.878V1.736h-7.878V13.843H229.6Zm65.5-4.633a14.734,14.734,0,0,0-6-5.774,19.16,19.16,0,0,0-9.2-2.1,18.847,18.847,0,0,0-9.735,2.316,14.744,14.744,0,0,0-5.8,5.975,16.82,16.82,0,0,0-1.88,7.8,16.251,16.251,0,0,0,2.014,7.99,14.789,14.789,0,0,0,5.908,5.819,18.933,18.933,0,0,0,9.355,2.171,19.255,19.255,0,0,0,9.354-2.148,14.882,14.882,0,0,0,6-5.8,16.146,16.146,0,0,0,2.059-8.079A16.273,16.273,0,0,0,295.1,9.211ZM271.7,12.623a7.926,7.926,0,0,1,3.222-3.256,9.967,9.967,0,0,1,4.9-1.164,9.7,9.7,0,0,1,5,1.242,8.282,8.282,0,0,1,3.212,3.323,9.643,9.643,0,0,1,1.1,4.565,8.868,8.868,0,0,1-2.584,6.725,9.387,9.387,0,0,1-6.77,2.473,9.831,9.831,0,0,1-4.767-1.141,8.059,8.059,0,0,1-3.267-3.234,9.57,9.57,0,0,1-1.164-4.733A10.024,10.024,0,0,1,271.7,12.623Zm57.041-8.392q-3.043-2.5-8.46-2.5H307.1V33h7.877V20.714h5.685a13.542,13.542,0,0,0,6.165-1.264,8.7,8.7,0,0,0,3.727-3.39,9.387,9.387,0,0,0,1.23-4.789A8.59,8.59,0,0,0,328.736,4.231Zm-9.825,11.134h-3.939V7.107H318.6a6.215,6.215,0,0,1,3.9.985,3.849,3.849,0,0,1,1.22,3.178q0,4.1-4.812,4.1h0Z"/>
</svg>
