<svg xmlns="http://www.w3.org/2000/svg" width="828" height="23"><path fill="none" d="M0 0h828v23H0z"/><path d="M20.444 5.52a.729.729 0 00-.352-.66 2.456 2.456 0 00-1.221-.22H5.462V9.6h8.113a3.012 3.012 0 001.282-.22c.3-.146.456-.526.456-1.14h.744v6.241h-.744c0-.614-.153-1.007-.456-1.181a2.618 2.618 0 00-1.282-.26H5.462v5.52h13.823a1.706 1.706 0 001.014-.28.886.886 0 00.394-.76h.745V23h-.745c0-.4-.132-.627-.394-.68a5.279 5.279 0 00-1.014-.08H0v-.72a.808.808 0 00.517-.18.649.649 0 00.227-.54V2.64a.649.649 0 00-.227-.54A.815.815 0 000 1.92V1.2h18.871a2.143 2.143 0 001.221-.259.83.83 0 00.352-.7h.745v5.28zM38.612 20.8q0 .72.91.72v.72h-6.373v-.72a.812.812 0 00.517-.18.645.645 0 00.228-.54V4.88h-6.832a1.449 1.449 0 00-.724.2.8.8 0 00-.351.76h-.746V.24h.746a.8.8 0 00.351.76 1.441 1.441 0 00.724.2h18.375a1.438 1.438 0 00.724-.2.8.8 0 00.352-.76h.749v5.6h-.745a.8.8 0 00-.352-.76 1.446 1.446 0 00-.724-.2h-6.828zM69.609 2.64q0-.72-.91-.72V1.2h6.373v.72a.817.817 0 00-.518.18.649.649 0 00-.228.54V20.8a.649.649 0 00.228.54.81.81 0 00.518.18v.72h-6.373v-.72q.909 0 .91-.72v-7.52H56.283v7.52a.649.649 0 00.227.54.809.809 0 00.518.18v.72h-6.249v-.72c.523 0 .786-.24.786-.72V2.64c0-.48-.263-.72-.786-.72V1.2h6.249v.72a.816.816 0 00-.518.18.649.649 0 00-.227.54v6.8h13.326zm9.973 18.88q1.077 0 1.076-.72V2.64q0-.72-1.076-.72V1.2h6.87v.72q-1.075 0-1.076.72V20.8q0 .72 1.076.72v.72h-6.87zm34.806-2.16a1.139 1.139 0 01-.228-.02 1.237 1.237 0 00-.228-.02 3.944 3.944 0 00-1.179.48q-.932.48-2.359 1.08a21.308 21.308 0 01-3.249 1.04 16.122 16.122 0 01-3.807.44 19.345 19.345 0 01-5.008-.64 12.669 12.669 0 01-4.242-1.98 9.86 9.86 0 01-2.918-3.34 10.671 10.671 0 010-9.34 10.011 10.011 0 012.918-3.38 13.09 13.09 0 014.242-2.04 18.305 18.305 0 015.008-.68 21.025 21.025 0 013.828.32q1.718.321 3 .68a17.106 17.106 0 012.029.68 3.723 3.723 0 00.91.32.422.422 0 00.351-.2c.1-.133.172-.24.228-.319l.621.479-3.229 4.84-.413-.279a1.375 1.375 0 00-.021-.241 3.481 3.481 0 00-.062-.28q-.082-.439-.828-.9a8.718 8.718 0 00-1.842-.82 19.429 19.429 0 00-2.317-.6 11.838 11.838 0 00-2.255-.24 11.485 11.485 0 00-3.332.48 8.4 8.4 0 00-2.772 1.4 6.931 6.931 0 00-1.884 2.26 7.01 7.01 0 000 6.12 6.909 6.909 0 001.884 2.26 8.369 8.369 0 002.772 1.4 11.485 11.485 0 003.332.48 13.693 13.693 0 002.773-.3 17.137 17.137 0 002.648-.76 8.84 8.84 0 002.007-1.04q.807-.579.808-1.1a.734.734 0 00-.166-.48l.58-.32 2.731 4.24zm2.151 2.16a1.214 1.214 0 00.849-.52 8.589 8.589 0 00.6-1l7.656-15.559q.29-.52.517-.96a1.719 1.719 0 00.228-.761.586.586 0 00-.29-.56 2.536 2.536 0 00-.62-.24V1.2h6.994v.72a3.535 3.535 0 00-.58.22.58.58 0 00-.289.58 1.549 1.549 0 00.144.64q.146.321.435.84l8.608 16.281a1.379 1.379 0 00.559.639 8.409 8.409 0 00.807.4v.72h-7.284v-.72a.981.981 0 00.413-.12.384.384 0 00.249-.36 2.441 2.441 0 00-.331-1.04l-1.573-2.96h-10.1l-1.49 2.84a3.3 3.3 0 00-.414 1.2q0 .441.787.44v.72h-5.877zm15.6-7.44l-3.477-7.44-3.89 7.44zM165.787 23c0-.4-.13-.627-.392-.68a5.288 5.288 0 00-1.015-.08h-19.7v-.72q1.242 0 1.242-.72V2.64q0-.72-1.242-.72V1.2h7.118v.72q-1.158 0-1.158.72v15.92h13.739a1.708 1.708 0 001.015-.28.883.883 0 00.392-.76h.746V23zm33.522-17.48a.728.728 0 00-.352-.66 2.452 2.452 0 00-1.22-.22h-13.41V9.6h8.112a4.06 4.06 0 001.283-.159.681.681 0 00.455-.721h.745v5.761h-.745q0-.921-.455-1.181a2.618 2.618 0 00-1.283-.26h-8.112v7.76a.578.578 0 00.352.54 1.943 1.943 0 00.89.18v.72h-7.036v-.72c.717 0 1.077-.24 1.077-.72V2.64c0-.48-.36-.72-1.077-.72V1.2h19.2a2.14 2.14 0 001.22-.259.828.828 0 00.352-.7h.745v5.28zm-.247 16a1.215 1.215 0 00.848-.52 8.326 8.326 0 00.6-1l7.656-15.559q.292-.52.518-.96a1.729 1.729 0 00.227-.761.585.585 0 00-.29-.56 2.536 2.536 0 00-.62-.24V1.2h6.994v.72a3.569 3.569 0 00-.58.22.58.58 0 00-.289.58 1.535 1.535 0 00.145.64q.146.321.434.84l8.609 16.281a1.378 1.378 0 00.558.639 8.525 8.525 0 00.807.4v.72h-7.283v-.72a.985.985 0 00.413-.12.384.384 0 00.249-.36 2.441 2.441 0 00-.331-1.04l-1.573-2.96h-10.1l-1.49 2.84a3.284 3.284 0 00-.414 1.2q0 .441.787.44v.72h-5.875zm15.6-7.44l-3.476-7.44-3.891 7.44zm14.236 1.56l.414.2a1.225 1.225 0 00.166.641 2.929 2.929 0 001.138.939 11.736 11.736 0 001.945.82 17.1 17.1 0 002.3.58 12.014 12.014 0 002.151.22q.7 0 1.821-.1a11.184 11.184 0 002.194-.421 6.237 6.237 0 001.862-.88 1.734 1.734 0 00.786-1.48 1.482 1.482 0 00-.723-1.36 5.452 5.452 0 00-1.9-.64 21.5 21.5 0 00-2.689-.26q-1.512-.06-3.083-.18a28.961 28.961 0 01-3.084-.4 8.71 8.71 0 01-2.69-.94 5.261 5.261 0 01-1.9-1.8 5.491 5.491 0 01-.724-2.98 5.406 5.406 0 01.6-2.44 5.976 5.976 0 011.842-2.12 10.318 10.318 0 013.145-1.5 15.392 15.392 0 014.47-.58 19.866 19.866 0 013.808.32q1.612.321 2.793.68t1.986.68a3.794 3.794 0 001.346.32 1.167 1.167 0 00.827-.24l.5.32-2.856 5-.414-.16a2.158 2.158 0 00-.331-.92 3.512 3.512 0 00-1.1-.94 9.819 9.819 0 00-1.8-.82 15.117 15.117 0 00-2.235-.58 13 13 0 00-4.283-.08 9.2 9.2 0 00-1.759.42 3.912 3.912 0 00-1.3.74 1.462 1.462 0 00-.518 1.14 1.609 1.609 0 00.725 1.44 5.382 5.382 0 001.9.72 18.459 18.459 0 002.691.32q1.509.081 3.083.2a25.787 25.787 0 013.083.421 9.1 9.1 0 012.69.959 4.948 4.948 0 012.628 4.7 5.021 5.021 0 01-1.139 3.4 8 8 0 01-2.835 2.08 13.089 13.089 0 01-3.662 1.02 27.918 27.918 0 01-3.663.26 25.044 25.044 0 01-3.952-.26 15.087 15.087 0 01-2.649-.64 17.465 17.465 0 01-1.675-.68 2.558 2.558 0 00-1.076-.3.692.692 0 00-.539.319l-.58-.319zm42.296-13q0-.72-.911-.72V1.2h6.374v.72a.817.817 0 00-.518.18.649.649 0 00-.228.54V20.8a.649.649 0 00.228.54.81.81 0 00.518.18v.72h-6.374v-.72q.91 0 .911-.72v-7.52h-13.332v7.52a.649.649 0 00.228.54.81.81 0 00.518.18v.72h-6.246v-.72c.523 0 .786-.24.786-.72V2.64c0-.48-.263-.72-.786-.72V1.2h6.249v.72a.817.817 0 00-.518.18.649.649 0 00-.228.54v6.8h13.327zm9.968 18.88q1.077 0 1.076-.72V2.64q0-.72-1.076-.72V1.2h6.87v.72q-1.075 0-1.076.72V20.8q0 .72 1.076.72v.72h-6.87zM304.715.96a17.157 17.157 0 014.636.66 14.63 14.63 0 014.3 1.98 10.877 10.877 0 013.186 3.341 9.826 9.826 0 010 9.559 10.859 10.859 0 01-3.186 3.34 13.552 13.552 0 01-4.3 1.92 18.211 18.211 0 01-9.271 0 13.544 13.544 0 01-4.3-1.92 10.851 10.851 0 01-3.187-3.34 9.823 9.823 0 010-9.559A10.869 10.869 0 01295.78 3.6a14.621 14.621 0 014.3-1.98 17.161 17.161 0 014.635-.66zm0 3.68a10.714 10.714 0 00-3.145.48 9.729 9.729 0 00-2.834 1.38 7.237 7.237 0 00-2.049 2.22 6.121 6.121 0 000 6 7.257 7.257 0 002.049 2.221 9.727 9.727 0 002.834 1.379 10.547 10.547 0 006.291 0 9.793 9.793 0 002.835-1.379 7.3 7.3 0 002.048-2.221 6.111 6.111 0 000-6 7.28 7.28 0 00-2.048-2.22 9.8 9.8 0 00-2.835-1.38 10.73 10.73 0 00-3.146-.48zm16.967 16.88q.786 0 .787-.72V2.64q0-.72-.787-.72V1.2h7.077v.72c-.221 0-.331.134-.331.4 0 .214.275.587.828 1.121l11.877 11.919V2.64q0-.72-1.076-.72V1.2h6.25v.72q-.786 0-.787.72V20.8q0 .72.787.72v.72h-6.705v-.72q.538 0 .538-.36 0-.279-.662-.92L326.856 7.52V20.8c0 .48.316.72.951.72v.72h-6.125zm42.089-5.88l.414.2a1.234 1.234 0 00.166.641 2.926 2.926 0 001.138.939 11.736 11.736 0 001.945.82 17.1 17.1 0 002.3.58 12.014 12.014 0 002.151.22q.7 0 1.821-.1a11.159 11.159 0 002.194-.421 6.223 6.223 0 001.862-.88 1.734 1.734 0 00.786-1.48 1.482 1.482 0 00-.723-1.36 5.451 5.451 0 00-1.905-.64 21.485 21.485 0 00-2.689-.26q-1.512-.06-3.083-.18a28.961 28.961 0 01-3.084-.4 8.719 8.719 0 01-2.69-.94 5.268 5.268 0 01-1.9-1.8 5.491 5.491 0 01-.724-2.98 5.406 5.406 0 01.6-2.44 5.976 5.976 0 011.842-2.12 10.318 10.318 0 013.145-1.5 15.392 15.392 0 014.47-.58 19.859 19.859 0 013.808.32q1.612.321 2.793.68t1.986.68a3.794 3.794 0 001.346.32 1.167 1.167 0 00.827-.24l.5.32-2.856 5-.414-.16a2.158 2.158 0 00-.331-.92 3.512 3.512 0 00-1.1-.94 9.819 9.819 0 00-1.8-.82 15.136 15.136 0 00-2.234-.58 13 13 0 00-4.284-.08 9.171 9.171 0 00-1.758.42 3.925 3.925 0 00-1.3.74 1.463 1.463 0 00-.518 1.14 1.609 1.609 0 00.725 1.44 5.378 5.378 0 001.9.72 18.442 18.442 0 002.691.32q1.509.081 3.083.2a25.8 25.8 0 013.083.421 9.1 9.1 0 012.69.959 4.948 4.948 0 012.628 4.7 5.019 5.019 0 01-1.139 3.4 7.991 7.991 0 01-2.835 2.08 13.094 13.094 0 01-3.662 1.02 27.918 27.918 0 01-3.663.26 25.053 25.053 0 01-3.952-.26 15.052 15.052 0 01-2.648-.64 17.464 17.464 0 01-1.676-.68 2.554 2.554 0 00-1.076-.3.69.69 0 00-.538.319l-.581-.319zm42.291-13q0-.72-.91-.72V1.2h6.373v.72a.817.817 0 00-.518.18.649.649 0 00-.228.54V20.8a.649.649 0 00.228.54.81.81 0 00.518.18v.72h-6.373v-.72q.909 0 .91-.72v-7.52h-13.326v7.52a.649.649 0 00.227.54.809.809 0 00.518.18v.72h-6.249v-.72q.784 0 .786-.72V2.64q0-.72-.786-.72V1.2h6.249v.72a.816.816 0 00-.518.18.649.649 0 00-.227.54v6.8h13.326zM428.703.96a17.163 17.163 0 014.636.66 14.633 14.633 0 014.3 1.98 10.854 10.854 0 013.186 3.341 9.816 9.816 0 010 9.559 10.836 10.836 0 01-3.186 3.34 13.554 13.554 0 01-4.3 1.92 18.207 18.207 0 01-9.27 0 13.537 13.537 0 01-4.305-1.92 10.874 10.874 0 01-3.187-3.34 9.826 9.826 0 010-9.559 10.891 10.891 0 013.187-3.341 14.613 14.613 0 014.305-1.98 17.143 17.143 0 014.634-.66zm0 3.68a10.728 10.728 0 00-3.145.48 9.754 9.754 0 00-2.834 1.38 7.247 7.247 0 00-2.049 2.22 6.117 6.117 0 000 6 7.267 7.267 0 002.049 2.221 9.751 9.751 0 002.834 1.379 10.547 10.547 0 006.291 0 9.775 9.775 0 002.835-1.379 7.305 7.305 0 002.049-2.221 6.121 6.121 0 000-6 7.285 7.285 0 00-2.049-2.22 9.777 9.777 0 00-2.835-1.38 10.725 10.725 0 00-3.146-.48zm21.727-2.72q-.62 0-.62.76a2.275 2.275 0 00.061.48 7.59 7.59 0 00.311.92l4.429 11.12h.082l4.386-11.28a6.032 6.032 0 00.27-.78 2.023 2.023 0 00.062-.46q0-.759-.538-.76V1.2h7.077v.72a.448.448 0 00-.414.2.818.818 0 00-.125.44 4.141 4.141 0 00.414 1.36l4.429 11.28h.082l4.47-11.52a2.532 2.532 0 00.29-1.08.67.67 0 00-.207-.46.662.662 0 00-.5-.22V1.2h6.125v.72a.73.73 0 00-.684.48c-.151.32-.324.72-.516 1.2l-5.96 15.28-.435 1.12a2.312 2.312 0 00-.186.8.709.709 0 00.207.5.754.754 0 00.58.22v.72h-6.539v-.72a2.5 2.5 0 00.516-.24.489.489 0 00.27-.44 2.155 2.155 0 00-.145-.72q-.145-.4-.476-1.12l-4.759-11.8h-.083l-4.511 11.56a7.922 7.922 0 00-.621 1.96.738.738 0 00.538.8v.72h-6.415v-.72a1.12 1.12 0 00.5-.12.412.412 0 00.248-.4 1.862 1.862 0 00-.144-.68c-.1-.24-.2-.493-.311-.76l-6.622-16.52a4.243 4.243 0 00-.351-.74.862.862 0 00-.6-.38V1.2h6.414zm65.802 20.44a14.282 14.282 0 01-2.669-.22 8.336 8.336 0 01-1.987-.62 6.712 6.712 0 01-1.449-.9 13.173 13.173 0 01-1.1-1.02 21.2 21.2 0 01-1.841 1.341 9.728 9.728 0 01-1.739.879 7.324 7.324 0 01-1.9.44q-1.014.1-2.338.1a15.064 15.064 0 01-3.042-.32 8.89 8.89 0 01-2.814-1.08 6.714 6.714 0 01-2.09-1.96 4.947 4.947 0 01-.827-2.88 5.632 5.632 0 01.434-2.3 5.361 5.361 0 011.179-1.7 6.43 6.43 0 011.78-1.2 13.718 13.718 0 012.235-.8v-.08a4.94 4.94 0 01-2.214-1.42 3.416 3.416 0 01-.932-2.38 4.056 4.056 0 01.684-2.38 5.9 5.9 0 011.738-1.64 7.594 7.594 0 012.4-.96 11.75 11.75 0 015.277 0 7.6 7.6 0 012.379.96 5.9 5.9 0 011.738 1.64 4.056 4.056 0 01.684 2.38 3.78 3.78 0 01-.808 2.42 3.853 3.853 0 01-1.759 1.34 3.061 3.061 0 01.869.86 9.34 9.34 0 01.58 1c.166.333.317.654.456.96a2.309 2.309 0 00.5.74 11.733 11.733 0 011.448-2 17.007 17.007 0 011.655-1.619 12.69 12.69 0 011.511-1.121 4.114 4.114 0 011.015-.5 2.417 2.417 0 00.372-.18.3.3 0 00.165-.26h.414v6.16h-.414a3.228 3.228 0 00-.269-.559.679.679 0 00-.641-.321 1.435 1.435 0 00-.953.4 4.6 4.6 0 00-.827.98 11.047 11.047 0 00-.662 1.18 7.667 7.667 0 00-.414 1 7.022 7.022 0 001.387 1.3 2.929 2.929 0 001.511.62q.578 0 .723-.36a2.118 2.118 0 00.145-.8h.414zm-19.244-6.8a3.144 3.144 0 00.455 1.72 3.513 3.513 0 001.2 1.161 5.619 5.619 0 001.635.639 7.95 7.95 0 001.758.2 4.941 4.941 0 001.594-.26 6.26 6.26 0 001.387-.66 4.078 4.078 0 001.014-.9 2.238 2.238 0 00.475-1.019 6.406 6.406 0 01-.91-1.661 9.375 9.375 0 00-.662-1.48 2.984 2.984 0 00-.993-1.06 3.589 3.589 0 00-1.905-.4 8.023 8.023 0 00-1.758.2 5.649 5.649 0 00-1.635.64 3.589 3.589 0 00-1.2 1.14 3.124 3.124 0 00-.455 1.74zm5.38-11.64a4.412 4.412 0 00-2.462.66 2.6 2.6 0 000 4.12 4.922 4.922 0 004.924 0 2.6 2.6 0 000-4.12 4.417 4.417 0 00-2.462-.66zm27.148 17.6a1.217 1.217 0 00.849-.52 8.522 8.522 0 00.6-1l7.656-15.559q.291-.52.518-.96a1.732 1.732 0 00.228-.761.585.585 0 00-.291-.56 2.536 2.536 0 00-.62-.24V1.2h7v.72a3.528 3.528 0 00-.581.22.58.58 0 00-.289.58 1.535 1.535 0 00.145.64q.146.321.434.84l8.609 16.281a1.378 1.378 0 00.558.639 8.525 8.525 0 00.807.4v.72h-7.283v-.72a.987.987 0 00.413-.12.384.384 0 00.249-.36 2.441 2.441 0 00-.331-1.04l-1.573-2.96h-10.1l-1.49 2.84a3.284 3.284 0 00-.414 1.2q0 .441.787.44v.72h-5.877zm15.6-7.44l-3.476-7.44-3.891 7.44zm35.593 5.28a1.118 1.118 0 01-.227-.02 1.259 1.259 0 00-.229-.02 3.948 3.948 0 00-1.178.48q-.933.48-2.36 1.08a21.344 21.344 0 01-3.249 1.04 16.117 16.117 0 01-3.807.44 19.329 19.329 0 01-5.007-.64 12.668 12.668 0 01-4.243-1.98 9.86 9.86 0 01-2.918-3.34 10.671 10.671 0 010-9.34 10.011 10.011 0 012.918-3.38 13.088 13.088 0 014.243-2.04 18.289 18.289 0 015.007-.68 21.038 21.038 0 013.829.32q1.716.321 3 .68a17.131 17.131 0 012.028.68 3.737 3.737 0 00.91.32.425.425 0 00.352-.2c.1-.133.172-.24.227-.319l.621.479-3.228 4.84-.413-.279a1.424 1.424 0 00-.022-.241 3.432 3.432 0 00-.061-.28c-.056-.293-.331-.593-.828-.9a8.759 8.759 0 00-1.842-.82 19.527 19.527 0 00-2.318-.6 11.838 11.838 0 00-2.255-.24 11.485 11.485 0 00-3.332.48 8.4 8.4 0 00-2.772 1.4 6.924 6.924 0 00-1.884 2.26 7.01 7.01 0 000 6.12 6.9 6.9 0 001.884 2.26 8.373 8.373 0 002.772 1.4 11.485 11.485 0 003.332.48 13.689 13.689 0 002.773-.3 17.044 17.044 0 002.648-.76 8.834 8.834 0 002.007-1.04q.806-.579.808-1.1a.731.731 0 00-.166-.48l.58-.32 2.731 4.24zM598.09.96a17.157 17.157 0 014.636.66 14.63 14.63 0 014.3 1.98 10.877 10.877 0 013.186 3.341 9.826 9.826 0 010 9.559 10.859 10.859 0 01-3.186 3.34 13.552 13.552 0 01-4.3 1.92 18.211 18.211 0 01-9.271 0 13.544 13.544 0 01-4.3-1.92 10.851 10.851 0 01-3.187-3.34 9.823 9.823 0 010-9.559 10.869 10.869 0 013.187-3.341 14.621 14.621 0 014.3-1.98 17.161 17.161 0 014.635-.66zm0 3.68a10.714 10.714 0 00-3.145.48 9.729 9.729 0 00-2.834 1.38 7.237 7.237 0 00-2.049 2.22 6.121 6.121 0 000 6 7.257 7.257 0 002.049 2.221 9.727 9.727 0 002.834 1.379 10.547 10.547 0 006.291 0 9.793 9.793 0 002.835-1.379 7.3 7.3 0 002.048-2.221 6.111 6.111 0 000-6 7.28 7.28 0 00-2.048-2.22 9.8 9.8 0 00-2.835-1.38 10.73 10.73 0 00-3.146-.48zm23.548-2.72q-.91 0-.91.72v12a3.613 3.613 0 001.676 3.46 13.263 13.263 0 009.808 0 3.616 3.616 0 001.676-3.46v-12q0-.72-1.241-.72V1.2h6.621v.72q-.992 0-.993.72v11.8a9.422 9.422 0 01-.7 3.9 5.718 5.718 0 01-2.112 2.46 8.715 8.715 0 01-3.5 1.24 36.469 36.469 0 01-9.642 0 8.715 8.715 0 01-3.5-1.24 5.713 5.713 0 01-2.111-2.46 9.383 9.383 0 01-.7-3.9V2.64q0-.72-1.159-.72V1.2h6.787zm23.465 13.72l.414.2a1.234 1.234 0 00.166.641 2.926 2.926 0 001.138.939 11.736 11.736 0 001.945.82 17.114 17.114 0 002.3.58 12.023 12.023 0 002.151.22q.7 0 1.821-.1a11.159 11.159 0 002.194-.421 6.223 6.223 0 001.862-.88 1.731 1.731 0 00.786-1.48 1.482 1.482 0 00-.723-1.36 5.451 5.451 0 00-1.905-.64 21.485 21.485 0 00-2.689-.26q-1.512-.06-3.083-.18a28.961 28.961 0 01-3.084-.4 8.719 8.719 0 01-2.69-.94 5.264 5.264 0 01-1.9-1.8 5.491 5.491 0 01-.724-2.98 5.406 5.406 0 01.6-2.44 5.986 5.986 0 011.842-2.12 10.318 10.318 0 013.145-1.5 15.392 15.392 0 014.47-.58 19.859 19.859 0 013.808.32q1.612.321 2.793.68t1.986.68a3.794 3.794 0 001.346.32 1.167 1.167 0 00.827-.24l.5.32-2.856 5-.414-.16a2.165 2.165 0 00-.331-.92 3.512 3.512 0 00-1.1-.94 9.819 9.819 0 00-1.8-.82 15.136 15.136 0 00-2.234-.58 13 13 0 00-4.284-.08 9.171 9.171 0 00-1.758.42 3.925 3.925 0 00-1.3.74 1.463 1.463 0 00-.518 1.14 1.609 1.609 0 00.725 1.44 5.378 5.378 0 001.9.72 18.442 18.442 0 002.691.32q1.509.081 3.083.2a25.8 25.8 0 013.083.421 9.1 9.1 0 012.69.959 4.948 4.948 0 012.628 4.7 5.019 5.019 0 01-1.139 3.4 7.982 7.982 0 01-2.835 2.08 13.085 13.085 0 01-3.662 1.02 27.918 27.918 0 01-3.663.26 25.053 25.053 0 01-3.952-.26 15.074 15.074 0 01-2.648-.64 17.464 17.464 0 01-1.676-.68 2.554 2.554 0 00-1.076-.3.69.69 0 00-.538.319l-.581-.319zm35.343 5.16q0 .72.91.72v.72h-6.373v-.72a.812.812 0 00.517-.18.645.645 0 00.228-.54V4.88h-6.829a1.446 1.446 0 00-.724.2.8.8 0 00-.351.76h-.746V.24h.746a.8.8 0 00.351.76 1.439 1.439 0 00.724.2h18.375a1.437 1.437 0 00.724-.2.8.8 0 00.352-.76h.745v5.6h-.745a.8.8 0 00-.352-.76 1.444 1.444 0 00-.724-.2h-6.828zm11.67.72q1.075 0 1.076-.72V2.64q0-.72-1.076-.72V1.2h6.87v.72q-1.077 0-1.077.72V20.8q0 .72 1.077.72v.72h-6.87zm34.805-2.16a1.123 1.123 0 01-.227-.02 1.259 1.259 0 00-.229-.02 3.96 3.96 0 00-1.179.48q-.932.48-2.359 1.08a21.344 21.344 0 01-3.249 1.04 16.117 16.117 0 01-3.807.44 19.331 19.331 0 01-5.007-.64 12.668 12.668 0 01-4.243-1.98 9.865 9.865 0 01-2.918-3.34 10.675 10.675 0 010-9.34 10.016 10.016 0 012.918-3.38 13.088 13.088 0 014.243-2.04 18.292 18.292 0 015.007-.68 21.038 21.038 0 013.829.32q1.716.321 3 .68a17.1 17.1 0 012.028.68 3.737 3.737 0 00.91.32.425.425 0 00.352-.2c.1-.133.171-.24.227-.319l.621.479-3.228 4.84-.413-.279a1.424 1.424 0 00-.022-.241 3.914 3.914 0 00-.061-.28c-.056-.293-.331-.593-.829-.9a8.726 8.726 0 00-1.841-.82 19.478 19.478 0 00-2.318-.6 11.838 11.838 0 00-2.255-.24 11.488 11.488 0 00-3.332.48 8.4 8.4 0 00-2.772 1.4 6.93 6.93 0 00-1.884 2.26 7.01 7.01 0 000 6.12 6.907 6.907 0 001.884 2.26 8.373 8.373 0 002.772 1.4 11.488 11.488 0 003.332.48 13.686 13.686 0 002.773-.3 17.075 17.075 0 002.648-.76 8.834 8.834 0 002.007-1.04q.807-.579.808-1.1a.734.734 0 00-.166-.48l.58-.32 2.731 4.24zM762.512 23q0-.6-.393-.68a5.275 5.275 0 00-1.014-.08h-19.7v-.72q1.242 0 1.242-.72V2.64q0-.72-1.242-.72V1.2h7.118v.72c-.773 0-1.158.24-1.158.72v15.92h13.739a1.7 1.7 0 001.014-.28.884.884 0 00.393-.76h.751V23zm4.55-1.48q1.077 0 1.076-.72V2.64q0-.72-1.076-.72V1.2h6.87v.72q-1.077 0-1.076.72V20.8q0 .72 1.076.72v.72h-6.87zm35.76-19.6a1.319 1.319 0 00-1.2.58 8.035 8.035 0 00-.538.941L793.759 19q-.372.8-.621 1.28a1.828 1.828 0 00-.248.68.472.472 0 00.1.32 1.546 1.546 0 00.269.24v.72h-6.332v-.72a.565.565 0 00.373-.56 2.5 2.5 0 00-.311-.82q-.311-.62-.765-1.54l-7.449-15.64a1.359 1.359 0 00-.579-.64 5.737 5.737 0 00-1.077-.4V1.2h7.408v.72a1.2 1.2 0 00-.559.14.55.55 0 00-.269.54 2.6 2.6 0 00.352 1.12q.351.681.849 1.68l5.3 11 5.173-10.84q.5-1.039.931-1.86a3.081 3.081 0 00.435-1.14q0-.639-1.16-.64V1.2h7.244zm23.711 3.6a.729.729 0 00-.351-.66 2.455 2.455 0 00-1.221-.22h-13.409V9.6h8.112a3.013 3.013 0 001.283-.22c.3-.146.456-.526.456-1.14h.744v6.241h-.744c0-.614-.153-1.007-.456-1.181a2.618 2.618 0 00-1.283-.26h-8.112v5.52h13.823a1.708 1.708 0 001.014-.28.884.884 0 00.394-.76h.745V23h-.745q0-.6-.394-.68a5.286 5.286 0 00-1.014-.08H806.09v-.72a.812.812 0 00.517-.18.648.648 0 00.227-.54V2.64a.649.649 0 00-.227-.54.819.819 0 00-.517-.18V1.2h18.872a2.142 2.142 0 001.221-.259.829.829 0 00.351-.7h.746v5.28z" fill="#292929"/></svg>