<svg xmlns="http://www.w3.org/2000/svg" width="302" height="35" viewBox="0 0 302 35">
  <defs>
    <style>
      .cls-1 {
        fill: #292929;
        fill-rule: evenodd;
      }
    </style>
  </defs>
  <path id="AREA_MAP" data-name="AREA MAP" class="cls-1" d="M45.124,33L31.383,1.691H23.169L9.563,33h8.057l3-7.206H34.046L37.067,33h8.057ZM31.964,20.758H22.677L27.31,9.39ZM74.347,4.332q-2.909-2.6-8.28-2.6h-13V33h7.878V20.4h1.41a6.693,6.693,0,0,1,2.529.414,5.408,5.408,0,0,1,1.992,1.578,18.25,18.25,0,0,1,2.171,3.558L72.668,33h8.616l-4.073-7.878a28.41,28.41,0,0,0-2.551-4.04,8.752,8.752,0,0,0-2.551-2.16,8.569,8.569,0,0,0,3.86-3.133,8.308,8.308,0,0,0,1.287-4.61A8.736,8.736,0,0,0,74.347,4.332Zm-6.4,10.082a6.505,6.505,0,0,1-3.715.884h-3.29V7.107h3.424q4.856,0,4.856,4.163A3.559,3.559,0,0,1,67.946,14.414Zm42.942-7.083V1.736H89.493V33h21.753V27.405H97.371V19.8h12.913V14.2H97.371V7.331h13.517ZM153.785,33L140.044,1.691h-8.213L118.224,33h8.057l3-7.206h13.427L145.729,33h8.056ZM140.626,20.758h-9.287L135.971,9.39Zm56.007-6.96-9.8-12.063h-7.184V33h7.7V13.015l8.84,10.966h0.738l8.795-10.966V33H213.6V1.736h-7.139ZM257.1,33L243.357,1.691h-8.213L221.537,33h8.057l3-7.206H246.02L249.042,33H257.1ZM243.939,20.758h-9.287L239.284,9.39ZM286.68,4.231q-3.045-2.5-8.46-2.5H265.039V33h7.877V20.714H278.6a13.548,13.548,0,0,0,6.165-1.264,8.694,8.694,0,0,0,3.726-3.39,9.378,9.378,0,0,0,1.231-4.789A8.593,8.593,0,0,0,286.68,4.231Zm-9.825,11.134h-3.939V7.107h3.626a6.215,6.215,0,0,1,3.905.985,3.849,3.849,0,0,1,1.22,3.178q0,4.1-4.812,4.1h0Z"/>
</svg>
