<svg xmlns="http://www.w3.org/2000/svg" width="284" height="24" viewBox="0 0 284 24">
  <defs>
    <style>
      .cls-1 {
        fill: #282929;
        fill-rule: evenodd;
      }
    </style>
  </defs>
  <path id="MIMOSA_YOGA" data-name="MIMOSA YOGA" class="cls-1" d="M13.289,9.233L6.517,0.9H1.553V22.5H6.872V8.692l6.108,7.576h0.51l6.077-7.576V22.5h5.443V0.9H20.077ZM36.991,22.5V0.9H31.548V22.5h5.443ZM55.25,9.233L48.477,0.9H43.514V22.5h5.319V8.692l6.108,7.576h0.51l6.077-7.576V22.5H66.97V0.9H62.038Zm39.829-3.17a10.178,10.178,0,0,0-4.144-3.989A13.239,13.239,0,0,0,84.58.621a13.021,13.021,0,0,0-6.726,1.6,10.188,10.188,0,0,0-4,4.128,11.627,11.627,0,0,0-1.3,5.389,11.229,11.229,0,0,0,1.392,5.52,10.217,10.217,0,0,0,4.082,4.02,13.08,13.08,0,0,0,6.463,1.5,13.3,13.3,0,0,0,6.463-1.484,10.281,10.281,0,0,0,4.144-4,11.158,11.158,0,0,0,1.422-5.582A11.239,11.239,0,0,0,95.079,6.064ZM78.905,8.422a5.475,5.475,0,0,1,2.227-2.25,6.884,6.884,0,0,1,3.386-.8,6.7,6.7,0,0,1,3.456.858,5.722,5.722,0,0,1,2.219,2.3,6.664,6.664,0,0,1,.758,3.154,6.126,6.126,0,0,1-1.786,4.646,6.484,6.484,0,0,1-4.677,1.709,6.792,6.792,0,0,1-3.293-.789,5.572,5.572,0,0,1-2.257-2.234,6.612,6.612,0,0,1-.8-3.27A6.925,6.925,0,0,1,78.905,8.422Zm33.219-7.345a13.588,13.588,0,0,0-3.518-.456,9.074,9.074,0,0,0-3.95.789,5.859,5.859,0,0,0-2.505,2.149,5.593,5.593,0,0,0-.858,3.046,5.511,5.511,0,0,0,.8,3.007,7.1,7.1,0,0,0,1.9,2.041,23.259,23.259,0,0,0,2.683,1.6,18.172,18.172,0,0,1,2.543,1.407,3.93,3.93,0,0,1,1.09,1.028,2,2,0,0,1,.263,1.044,1.722,1.722,0,0,1-.711,1.4,3.275,3.275,0,0,1-2.072.564,10.22,10.22,0,0,1-6.324-2.6v4.886a15.43,15.43,0,0,0,7.02,1.794,9.484,9.484,0,0,0,3.919-.773,6.148,6.148,0,0,0,2.675-2.2,5.786,5.786,0,0,0,.951-3.293,5.445,5.445,0,0,0-.765-2.961,7.3,7.3,0,0,0-2.01-2.087,30.085,30.085,0,0,0-3.41-1.987,11.862,11.862,0,0,1-2.6-1.608,1.923,1.923,0,0,1-.665-1.423,1.68,1.68,0,0,1,.649-1.384,3.028,3.028,0,0,1,1.918-.518,9.774,9.774,0,0,1,5.983,2.4V2.322A11.448,11.448,0,0,0,112.124,1.077ZM143.889,22.5L134.4,0.868h-5.675L119.32,22.5h5.566l2.072-4.979h9.278l2.087,4.979h5.566ZM134.8,14.042h-6.417l3.2-7.855ZM167.9,7.9l-5.164-7h-5.829l8.4,11.334V22.5h5.443V12.14L179.016,0.9h-5.891Zm36.907-1.84a10.18,10.18,0,0,0-4.144-3.989A13.238,13.238,0,0,0,194.306.621a13.022,13.022,0,0,0-6.726,1.6,10.19,10.19,0,0,0-4.005,4.128,11.626,11.626,0,0,0-1.3,5.389,11.227,11.227,0,0,0,1.392,5.52,10.222,10.222,0,0,0,4.082,4.02,13.081,13.081,0,0,0,6.463,1.5,13.308,13.308,0,0,0,6.464-1.484,10.277,10.277,0,0,0,4.143-4,11.151,11.151,0,0,0,1.423-5.582A11.236,11.236,0,0,0,204.805,6.064ZM188.631,8.422a5.48,5.48,0,0,1,2.227-2.25,6.885,6.885,0,0,1,3.386-.8,6.7,6.7,0,0,1,3.456.858,5.723,5.723,0,0,1,2.219,2.3,6.663,6.663,0,0,1,.758,3.154,6.129,6.129,0,0,1-1.786,4.646,6.486,6.486,0,0,1-4.678,1.709,6.793,6.793,0,0,1-3.293-.789,5.575,5.575,0,0,1-2.258-2.234,6.613,6.613,0,0,1-.8-3.27A6.93,6.93,0,0,1,188.631,8.422Zm39.335-3.147a14.513,14.513,0,0,1,3.509,1.484V2.26A25.321,25.321,0,0,0,227.223.984,21.87,21.87,0,0,0,223.1.621a13.667,13.667,0,0,0-6.641,1.515,10.27,10.27,0,0,0-4.183,4.051,11.312,11.312,0,0,0-1.407,5.582,11.116,11.116,0,0,0,1.454,5.7,10.023,10.023,0,0,0,4.182,3.9,13.7,13.7,0,0,0,6.363,1.407,23.471,23.471,0,0,0,4.5-.425,25.1,25.1,0,0,0,4.53-1.368v-10h-8.164v3.85h3.293V17.97a10.527,10.527,0,0,1-1.7.417,11.95,11.95,0,0,1-1.593.093,8.03,8.03,0,0,1-3.873-.889,6.285,6.285,0,0,1-2.528-2.42,6.69,6.69,0,0,1-.882-3.4,7.182,7.182,0,0,1,.82-3.317,6.481,6.481,0,0,1,2.559-2.629A8.467,8.467,0,0,1,224.193,4.8,14.45,14.45,0,0,1,227.966,5.275Zm32.7,17.225L251.173,0.868H245.5L236.1,22.5h5.566l2.072-4.979h9.278L255.1,22.5h5.566Zm-9.091-8.458h-6.417l3.2-7.855Z"/>
</svg>
