<svg xmlns="http://www.w3.org/2000/svg" width="418" height="35" viewBox="0 0 418 35">
  <defs>
    <style>
      .cls-1 {
        fill: #292929;
        fill-rule: evenodd;
      }
    </style>
  </defs>
  <path id="FOOD_DRINK" data-name="FOOD&amp;DRINK" class="cls-1" d="M47.609,7.441V1.846H27.086V33.11h7.878v-13.2H47.609v-5.64H34.964V7.441H47.609Zm41.219,1.88a14.732,14.732,0,0,0-6-5.774,19.16,19.16,0,0,0-9.2-2.1A18.846,18.846,0,0,0,63.9,3.76a14.747,14.747,0,0,0-5.8,5.975,16.829,16.829,0,0,0-1.88,7.8,16.253,16.253,0,0,0,2.014,7.99,14.788,14.788,0,0,0,5.908,5.819A18.931,18.931,0,0,0,73.5,33.513a19.257,19.257,0,0,0,9.355-2.148,14.882,14.882,0,0,0,6-5.8,16.151,16.151,0,0,0,2.059-8.079A16.267,16.267,0,0,0,88.827,9.321ZM65.418,12.734a7.924,7.924,0,0,1,3.223-3.256,9.963,9.963,0,0,1,4.9-1.164,9.7,9.7,0,0,1,5,1.242,8.283,8.283,0,0,1,3.212,3.323,9.646,9.646,0,0,1,1.1,4.565,8.867,8.867,0,0,1-2.585,6.725,9.386,9.386,0,0,1-6.77,2.473A9.832,9.832,0,0,1,68.73,25.5a8.066,8.066,0,0,1-3.267-3.234A9.57,9.57,0,0,1,64.3,17.534,10.022,10.022,0,0,1,65.418,12.734Zm66.62-3.413a14.734,14.734,0,0,0-6-5.774,19.16,19.16,0,0,0-9.2-2.1,18.844,18.844,0,0,0-9.735,2.316,14.753,14.753,0,0,0-5.8,5.975,16.831,16.831,0,0,0-1.879,7.8,16.251,16.251,0,0,0,2.014,7.99,14.789,14.789,0,0,0,5.908,5.819,18.932,18.932,0,0,0,9.355,2.171,19.255,19.255,0,0,0,9.354-2.148,14.882,14.882,0,0,0,6-5.8,16.156,16.156,0,0,0,2.059-8.079A16.273,16.273,0,0,0,132.038,9.321Zm-23.409,3.413a7.921,7.921,0,0,1,3.222-3.256,9.963,9.963,0,0,1,4.9-1.164,9.7,9.7,0,0,1,5,1.242,8.289,8.289,0,0,1,3.212,3.323,9.655,9.655,0,0,1,1.1,4.565,8.864,8.864,0,0,1-2.585,6.725,9.385,9.385,0,0,1-6.769,2.473,9.831,9.831,0,0,1-4.767-1.141,8.067,8.067,0,0,1-3.268-3.234,9.569,9.569,0,0,1-1.163-4.733A10.013,10.013,0,0,1,108.629,12.734Zm64.314-3.413a13.605,13.605,0,0,0-6.031-5.505,21.871,21.871,0,0,0-9.7-1.969H144.029V33.11H157.68q8.392,0,12.835-4.129T174.957,17.4A16.031,16.031,0,0,0,172.943,9.321Zm-8.56,15.565q-2.5,2.5-7.486,2.5h-4.991V7.441h4.722q4.946,0,7.6,2.641t2.652,7.452Q166.878,22.391,164.383,24.886Zm43.557-7.654q-0.314,6.042-2.059,9a112.823,112.823,0,0,1-7.833-10.317,14.924,14.924,0,0,0,6.177-3.155A7.651,7.651,0,0,0,206.485,7a7.011,7.011,0,0,0-2.126-5.3,9.257,9.257,0,0,0-6.624-2.283,9.594,9.594,0,0,0-6.2,1.992,7.349,7.349,0,0,0-2.8,6.02,12.934,12.934,0,0,0,2.619,7.139,14.987,14.987,0,0,0-5.461,3.916,9.887,9.887,0,0,0-2.1,6.468,9.976,9.976,0,0,0,2.909,7.363q3.312,3.312,9,3.312a14.029,14.029,0,0,0,9.4-3.021,9.416,9.416,0,0,0,2.82,2.171,11.05,11.05,0,0,0,4.655.806h1.566l1.142-4.14a11.236,11.236,0,0,1-3.536-.358,6.521,6.521,0,0,1-2.887-2.059q3.267-3.536,3.938-10.742ZM202.39,29.7a8.044,8.044,0,0,1-5.528,1.857,7.842,7.842,0,0,1-5.192-1.79,6.889,6.889,0,0,1-2.506-5.55,7.127,7.127,0,0,1,4.117-6.6A97.079,97.079,0,0,0,202.39,29.7h0ZM193.908,7.228a3.967,3.967,0,0,1,1.007-2.753,3.649,3.649,0,0,1,2.82-1.231,3.524,3.524,0,0,1,2.462.9,3.618,3.618,0,0,1,1.164,2.82,5.405,5.405,0,0,1-.985,3.357,8.567,8.567,0,0,1-4.252,2.618,10.665,10.665,0,0,1-2.216-5.707h0Zm59.234,2.092a13.6,13.6,0,0,0-6.031-5.505,21.868,21.868,0,0,0-9.7-1.969H224.228V33.11h13.651q8.393,0,12.835-4.129T255.156,17.4A16.031,16.031,0,0,0,253.142,9.321Zm-8.56,15.565q-2.5,2.5-7.486,2.5h-4.99V7.441h4.722q4.946,0,7.6,2.641t2.652,7.452Q247.077,22.391,244.582,24.886ZM286.349,4.442q-2.91-2.6-8.28-2.6h-13V33.11h7.878v-12.6h1.41a6.7,6.7,0,0,1,2.529.414,5.4,5.4,0,0,1,1.991,1.578,18.216,18.216,0,0,1,2.171,3.558l3.626,7.049h8.616l-4.073-7.878a28.353,28.353,0,0,0-2.552-4.04,8.745,8.745,0,0,0-2.551-2.16,8.567,8.567,0,0,0,3.861-3.133,8.313,8.313,0,0,0,1.286-4.61A8.737,8.737,0,0,0,286.349,4.442Zm-6.4,10.082a6.506,6.506,0,0,1-3.715.884h-3.29V7.217h3.424q4.856,0,4.856,4.163A3.559,3.559,0,0,1,279.949,14.524ZM309.373,33.11V1.846H301.5V33.11h7.877Zm35.736-11.772L327.563,1.846h-6.915V33.11h7.743V13.685l17.5,19.425h7V1.846h-7.788V21.339Zm26.963-5.1V1.846h-7.878V33.11h7.878V17.937L385.164,33.11h9.824L380.509,16.527,392.683,1.846h-8.8Z"/>
</svg>
