<svg xmlns="http://www.w3.org/2000/svg" width="209" height="35" viewBox="0 0 209 35">
  <defs>
    <style>
      .cls-1 {
        fill: #292929;
        fill-rule: evenodd;
      }
    </style>
  </defs>
  <path id="GOODS" class="cls-1" d="M34.454,8.069a21.025,21.025,0,0,1,5.08,2.148V3.705A36.676,36.676,0,0,0,33.38,1.859,31.664,31.664,0,0,0,27.4,1.333a19.782,19.782,0,0,0-9.612,2.193A14.858,14.858,0,0,0,11.739,9.39,16.37,16.37,0,0,0,9.7,17.469a16.088,16.088,0,0,0,2.1,8.247,14.5,14.5,0,0,0,6.054,5.651A19.827,19.827,0,0,0,27.069,33.4a33.954,33.954,0,0,0,6.512-.615,36.317,36.317,0,0,0,6.557-1.981V16.327H28.322V21.9h4.767v4.543a15.24,15.24,0,0,1-2.462.6,17.281,17.281,0,0,1-2.305.134,11.626,11.626,0,0,1-5.606-1.287,9.1,9.1,0,0,1-3.659-3.5,9.689,9.689,0,0,1-1.276-4.924,10.4,10.4,0,0,1,1.186-4.8,9.387,9.387,0,0,1,3.7-3.8,12.259,12.259,0,0,1,6.322-1.488A20.912,20.912,0,0,1,34.454,8.069ZM82.633,9.211a14.732,14.732,0,0,0-6-5.774,19.161,19.161,0,0,0-9.2-2.1A18.845,18.845,0,0,0,57.7,3.649a14.746,14.746,0,0,0-5.8,5.975,16.828,16.828,0,0,0-1.88,7.8,16.253,16.253,0,0,0,2.014,7.99,14.787,14.787,0,0,0,5.908,5.819A18.932,18.932,0,0,0,67.3,33.4a19.257,19.257,0,0,0,9.355-2.148,14.883,14.883,0,0,0,6-5.8,16.151,16.151,0,0,0,2.059-8.079A16.268,16.268,0,0,0,82.633,9.211ZM59.224,12.623a7.924,7.924,0,0,1,3.223-3.256,9.964,9.964,0,0,1,4.9-1.164,9.7,9.7,0,0,1,5,1.242,8.283,8.283,0,0,1,3.212,3.323,9.646,9.646,0,0,1,1.1,4.565,8.867,8.867,0,0,1-2.585,6.725,9.386,9.386,0,0,1-6.77,2.473,9.832,9.832,0,0,1-4.767-1.141,8.066,8.066,0,0,1-3.267-3.234A9.569,9.569,0,0,1,58.1,17.424,10.021,10.021,0,0,1,59.224,12.623Zm66.619-3.413a14.731,14.731,0,0,0-6-5.774,19.166,19.166,0,0,0-9.2-2.1,18.848,18.848,0,0,0-9.736,2.316,14.748,14.748,0,0,0-5.8,5.975,16.829,16.829,0,0,0-1.88,7.8,16.253,16.253,0,0,0,2.014,7.99,14.786,14.786,0,0,0,5.909,5.819,18.931,18.931,0,0,0,9.354,2.171,19.256,19.256,0,0,0,9.355-2.148,14.882,14.882,0,0,0,6-5.8,16.156,16.156,0,0,0,2.059-8.079A16.264,16.264,0,0,0,125.843,9.211Zm-23.409,3.413a7.923,7.923,0,0,1,3.223-3.256,9.963,9.963,0,0,1,4.9-1.164,9.7,9.7,0,0,1,5,1.242,8.279,8.279,0,0,1,3.211,3.323,9.643,9.643,0,0,1,1.1,4.565,8.868,8.868,0,0,1-2.585,6.725,9.385,9.385,0,0,1-6.77,2.473,9.837,9.837,0,0,1-4.767-1.141,8.072,8.072,0,0,1-3.267-3.234,9.57,9.57,0,0,1-1.164-4.733A10.024,10.024,0,0,1,102.434,12.623Zm64.315-3.413a13.608,13.608,0,0,0-6.032-5.505,21.867,21.867,0,0,0-9.7-1.969H137.834V33h13.652q8.392,0,12.834-4.129t4.443-11.581A16.041,16.041,0,0,0,166.749,9.211Zm-8.561,15.565q-2.494,2.5-7.486,2.5h-4.99V7.331h4.722q4.946,0,7.6,2.641t2.652,7.452Q160.684,22.28,158.188,24.776Zm35-22.782a19.669,19.669,0,0,0-5.092-.66,13.138,13.138,0,0,0-5.718,1.141,8.48,8.48,0,0,0-3.625,3.111,8.094,8.094,0,0,0-1.242,4.409,7.981,7.981,0,0,0,1.152,4.353,10.265,10.265,0,0,0,2.753,2.954,33.644,33.644,0,0,0,3.883,2.316,26.314,26.314,0,0,1,3.681,2.037,5.693,5.693,0,0,1,1.578,1.488,2.891,2.891,0,0,1,.38,1.511,2.492,2.492,0,0,1-1.029,2.025,4.739,4.739,0,0,1-3,.817q-4.453,0-9.153-3.76v7.072a22.335,22.335,0,0,0,10.16,2.6,13.726,13.726,0,0,0,5.673-1.119,8.9,8.9,0,0,0,3.872-3.178,8.372,8.372,0,0,0,1.376-4.767,7.883,7.883,0,0,0-1.107-4.286,10.571,10.571,0,0,0-2.91-3.021,43.531,43.531,0,0,0-4.934-2.876,17.131,17.131,0,0,1-3.76-2.327,2.786,2.786,0,0,1-.962-2.059,2.433,2.433,0,0,1,.939-2,4.384,4.384,0,0,1,2.776-.75q4.229,0,8.66,3.469V3.795A16.59,16.59,0,0,0,193.186,1.993Z"/>
</svg>
