<svg xmlns="http://www.w3.org/2000/svg" width="284" height="24" viewBox="0 0 284 24">
  <defs>
    <style>
      .cls-1 {
        fill: #292929;
        fill-rule: evenodd;
      }
    </style>
  </defs>
  <path id="MUSIC_LIVE" data-name="MUSIC LIVE" class="cls-1" d="M13.772,9.233L7,0.9H2.036V22.5H7.355V8.692l6.108,7.576h0.51L20.05,8.692V22.5h5.443V0.9H20.56Zm24.823,7.5a5.742,5.742,0,0,1-1.353-4.113V0.9H31.8v12a9.463,9.463,0,0,0,2.791,7.275q2.791,2.606,7.94,2.605,5.071,0,7.878-2.59t2.806-7.383V0.9H47.756V12.682a5.621,5.621,0,0,1-1.345,4.128,5.254,5.254,0,0,1-3.881,1.345A5.175,5.175,0,0,1,38.595,16.733ZM69.548,1.077A13.586,13.586,0,0,0,66.031.621a9.077,9.077,0,0,0-3.951.789,5.86,5.86,0,0,0-2.5,2.149A5.592,5.592,0,0,0,58.717,6.6a5.511,5.511,0,0,0,.8,3.007,7.1,7.1,0,0,0,1.9,2.041,23.293,23.293,0,0,0,2.683,1.6,18.2,18.2,0,0,1,2.543,1.407,3.931,3.931,0,0,1,1.09,1.028,2,2,0,0,1,.263,1.044,1.722,1.722,0,0,1-.711,1.4,3.275,3.275,0,0,1-2.072.564,10.221,10.221,0,0,1-6.324-2.6v4.886a15.433,15.433,0,0,0,7.02,1.794,9.487,9.487,0,0,0,3.92-.773,6.152,6.152,0,0,0,2.675-2.2,5.787,5.787,0,0,0,.951-3.293,5.443,5.443,0,0,0-.765-2.961,7.3,7.3,0,0,0-2.01-2.087,30.063,30.063,0,0,0-3.409-1.987,11.855,11.855,0,0,1-2.6-1.608,1.925,1.925,0,0,1-.665-1.423,1.68,1.68,0,0,1,.649-1.384,3.027,3.027,0,0,1,1.917-.518,9.776,9.776,0,0,1,5.984,2.4V2.322A11.465,11.465,0,0,0,69.548,1.077ZM84.506,22.5V0.9H79.063V22.5h5.443ZM102.131,0.621a13.934,13.934,0,0,0-6.2,1.345,10.205,10.205,0,0,0-4.306,3.866,10.968,10.968,0,0,0-1.554,5.876,11.184,11.184,0,0,0,1.438,5.644,10.193,10.193,0,0,0,4.152,3.974,13.315,13.315,0,0,0,6.378,1.453,17.284,17.284,0,0,0,8.273-1.886V16.037a13.18,13.18,0,0,1-7.376,2.381,8.1,8.1,0,0,1-3.9-.889,6.214,6.214,0,0,1-2.513-2.4,6.582,6.582,0,0,1-.866-3.324,6.953,6.953,0,0,1,.85-3.394,6.287,6.287,0,0,1,2.528-2.489,8.151,8.151,0,0,1,4.028-.935,11.105,11.105,0,0,1,3.548.572,16.877,16.877,0,0,1,3.58,1.747V2.291a21.086,21.086,0,0,0-8.056-1.67h0Zm30.534,17.41V0.9h-5.442V22.5h15.23V18.031h-9.788Zm20.3,4.469V0.9h-5.442V22.5h5.442Zm15.229-8.3L162.813,0.9h-5.644l9.4,21.817h3.2L179.28,0.9h-5.644Zm30.087-9.432V0.9H183.5V22.5h15.03V18.634h-9.587V13.377h8.922V9.512h-8.922V4.765h9.339Z"/>
</svg>
