<svg xmlns="http://www.w3.org/2000/svg" width="340" height="35" viewBox="0 0 340 35">
  <defs>
    <style>
      .cls-1 {
        fill: #292929;
        fill-rule: evenodd;
      }
    </style>
  </defs>
  <path id="TIME_TABLE" data-name="TIME TABLE" class="cls-1" d="M40.32,8.248V1.736H10.063V8.248H21.208V33h7.878V8.248H40.32ZM56.944,33V1.736H49.066V33h7.878ZM85.2,13.8L75.4,1.736H68.219V33h7.7V13.015l8.84,10.966H85.5l8.8-10.966V33h7.877V1.736H95.029Zm49.656-6.468V1.736H113.466V33h21.753V27.405H121.343V19.8h12.913V14.2H121.343V7.331h13.518ZM191.2,8.248V1.736H160.946V8.248h11.145V33h7.878V8.248H191.2ZM232.153,33L218.412,1.691H210.2L196.592,33h8.057l3-7.206h13.428L224.1,33h8.056ZM218.994,20.758h-9.287L214.339,9.39ZM261.175,3.783q-2.843-2.048-7.81-2.048H240.094V33h13.562q5.862,0,9.254-1.969t3.39-6.781a7.8,7.8,0,0,0-1.678-5,10.061,10.061,0,0,0-5.1-3.167,6.992,6.992,0,0,0,3.279-2.652A7.259,7.259,0,0,0,264.017,9.3,6.457,6.457,0,0,0,261.175,3.783Zm-5.986,9.948a6.409,6.409,0,0,1-3.883.985h-3.335V6.592h3.671a5.769,5.769,0,0,1,3.681.962A3.71,3.71,0,0,1,256.5,10.6,3.667,3.667,0,0,1,255.189,13.731Zm-3.1,14.412h-4.118V19.528h4.118q6.288,0,6.289,4.342,0,4.275-6.289,4.275h0Zm31.775-1.611V1.736h-7.878V33H298.03V26.532H283.864ZM328.6,7.331V1.736H307.2V33h21.753V27.405H315.079V19.8h12.913V14.2H315.079V7.331H328.6Z"/>
</svg>
