<svg xmlns="http://www.w3.org/2000/svg" width="264" height="64"><path fill="none" d="M0 0h264v64H0z"/><path d="M0 23.712a1.351 1.351 0 00.944-.58 9.3 9.3 0 00.669-1.115L10.144 4.68c.215-.386.408-.742.576-1.07a1.9 1.9 0 00.254-.847.651.651 0 00-.322-.623 2.827 2.827 0 00-.692-.268v-.8h7.792v.8a3.943 3.943 0 00-.644.245.644.644 0 00-.323.646 1.719 1.719 0 00.16.713c.108.239.271.55.485.936l9.592 18.141a1.528 1.528 0 00.622.713 9.55 9.55 0 00.9.446v.8h-8.117v-.8a1.132 1.132 0 00.461-.134.428.428 0 00.275-.4 2.7 2.7 0 00-.369-1.16l-1.752-3.3H7.79l-1.659 3.165a3.648 3.648 0 00-.461 1.337c0 .327.291.49.875.49v.8H-.002zm17.385-8.29L13.51 7.131l-4.334 8.291zM46.944 1.069a19.548 19.548 0 014.013.38 9.239 9.239 0 013.089 1.2 5.617 5.617 0 011.983 2.14 6.88 6.88 0 01.691 3.232 5.631 5.631 0 01-1.8 4.5 9.819 9.819 0 01-4.842 2.095l6.134 8.469a1.246 1.246 0 00.761.535 4 4 0 00.807.089v.8h-8.623v-.8a1.756 1.756 0 00.715-.134c.2-.089.3-.208.3-.356a.993.993 0 00-.185-.513q-.185-.289-.553-.78l-5.072-6.953h-6.595v7.934a.672.672 0 00.3.6 2.072 2.072 0 001.084.2v.8h-7.978v-.8q1.337 0 1.337-.8V2.671q0-.8-1.337-.8v-.8zm-1.2 10.43a13.021 13.021 0 002.767-.245 4.953 4.953 0 001.753-.691 2.608 2.608 0 00.923-1.047 3.277 3.277 0 000-2.63 2.618 2.618 0 00-.923-1.047 5.009 5.009 0 00-1.753-.691 13.135 13.135 0 00-2.767-.245h-7.977v6.6zm39.475-5.616a.813.813 0 00-.393-.736 2.731 2.731 0 00-1.359-.245H68.525v5.528h9.038a3.383 3.383 0 001.431-.245q.5-.245.506-1.27h.831v6.952H79.5q0-1.024-.506-1.314a2.917 2.917 0 00-1.431-.29h-9.038v6.15h15.4a1.9 1.9 0 001.131-.312.988.988 0 00.438-.846h.83v6.105h-.83c0-.445-.147-.7-.438-.757a5.781 5.781 0 00-1.131-.089H62.437v-.8a.9.9 0 00.576-.2.718.718 0 00.254-.6V2.678a.718.718 0 00-.254-.6.9.9 0 00-.576-.2v-.8h21.029a2.369 2.369 0 001.359-.289.921.921 0 00.393-.78h.827v5.883zm3.596 17.829a1.355 1.355 0 00.946-.58 9.56 9.56 0 00.669-1.115L98.962 4.68c.215-.386.405-.742.576-1.07a1.915 1.915 0 00.254-.847.653.653 0 00-.324-.623 2.787 2.787 0 00-.69-.268v-.8h7.792v.8a3.9 3.9 0 00-.645.245.646.646 0 00-.323.646 1.691 1.691 0 00.161.713q.16.358.483.936l9.593 18.141a1.517 1.517 0 00.623.713 9.5 9.5 0 00.9.446v.8h-8.117v-.8a1.126 1.126 0 00.461-.134.429.429 0 00.278-.4 2.723 2.723 0 00-.369-1.16l-1.752-3.3H96.612l-1.662 3.165a3.643 3.643 0 00-.459 1.337q0 .49.876.49v.8h-6.55zm17.387-8.29l-3.874-8.291-4.335 8.291zm25.915 8.29a1.067 1.067 0 00.646-.2.692.692 0 00.276-.6V2.587a.585.585 0 00-.276-.557 1.3 1.3 0 00-.646-.156v-.8h8.623v.8a1.038 1.038 0 00-.483.134.428.428 0 00-.253.4 1.34 1.34 0 00.184.579c.122.239.26.49.414.758l6.595 11.588 6.641-11.455q.322-.578.484-.913a1.405 1.405 0 00.161-.6c0-.326-.2-.49-.6-.49v-.8h8.531v.8a1.3 1.3 0 00-.646.156.586.586 0 00-.277.557v20.325a.693.693 0 00.277.6 1.064 1.064 0 00.646.2v.8h-7.241v-.8q1.247 0 1.245-.8v-14.8h-.093l-9.268 16.4h-.14l-9.084-16.448h-.093v14.843q0 .8 1.291.8v.8h-6.917zm33.939 0a1.355 1.355 0 00.946-.58 9.493 9.493 0 00.669-1.115l8.531-17.337c.215-.386.406-.742.576-1.07a1.92 1.92 0 00.253-.847.653.653 0 00-.323-.623 2.794 2.794 0 00-.691-.268v-.8h7.792v.8a3.891 3.891 0 00-.646.245.646.646 0 00-.322.646 1.7 1.7 0 00.16.713q.162.358.484.936l9.593 18.141a1.516 1.516 0 00.623.713 9.512 9.512 0 00.9.446v.8h-8.117v-.8a1.126 1.126 0 00.461-.134.429.429 0 00.277-.4 2.728 2.728 0 00-.369-1.16l-1.752-3.3h-11.252l-1.661 3.165a3.643 3.643 0 00-.459 1.337c0 .327.291.49.875.49v.8h-6.549zm17.386-8.29l-3.875-8.291-4.335 8.291zm14.525 9.092v-.8q1.707 0 1.707-.8V2.678q0-.8-1.707-.8v-.8H214.2a13.114 13.114 0 016.964 1.583q2.535 1.583 2.536 5.372t-2.536 5.37a13.1 13.1 0 01-6.964 1.583h-9.269v7.934q0 .8 1.476.8v.8zm16.788-13.64a5.443 5.443 0 002.6-.579 2.925 2.925 0 000-4.546 5.448 5.448 0 00-2.6-.58h-9.824v5.7zm48.839 13.774a15.828 15.828 0 01-2.974-.245 9.266 9.266 0 01-2.214-.69 7.442 7.442 0 01-1.613-1 14.539 14.539 0 01-1.224-1.136 22.769 22.769 0 01-2.052 1.493 10.792 10.792 0 01-1.937.981 8.152 8.152 0 01-2.122.49q-1.129.111-2.6.111a16.8 16.8 0 01-3.39-.356 9.894 9.894 0 01-3.136-1.2 7.451 7.451 0 01-2.328-2.185 5.507 5.507 0 01-.923-3.209 6.254 6.254 0 01.484-2.562 5.939 5.939 0 011.314-1.9 7.169 7.169 0 011.982-1.337 15.388 15.388 0 012.492-.891v-.092a5.5 5.5 0 01-2.468-1.583 3.8 3.8 0 01-1.038-2.651 4.529 4.529 0 01.761-2.653 6.6 6.6 0 011.937-1.827 8.513 8.513 0 012.676-1.07 13.121 13.121 0 015.879 0 8.517 8.517 0 012.652 1.07 6.6 6.6 0 011.937 1.827 4.529 4.529 0 01.761 2.653 4.214 4.214 0 01-.9 2.7 4.292 4.292 0 01-1.959 1.492 3.457 3.457 0 01.968.958 10.613 10.613 0 01.646 1.114q.276.558.508 1.071a2.612 2.612 0 00.553.824 12.92 12.92 0 011.615-2.229 18.843 18.843 0 011.844-1.8 13.939 13.939 0 011.683-1.248 4.574 4.574 0 011.13-.557 2.694 2.694 0 00.416-.2.332.332 0 00.184-.289h.456v6.864h-.461a3.669 3.669 0 00-.3-.625.755.755 0 00-.713-.356 1.593 1.593 0 00-1.061.445 5.151 5.151 0 00-.922 1.093 12.546 12.546 0 00-.739 1.314 8.383 8.383 0 00-.46 1.114 7.806 7.806 0 001.544 1.449 3.26 3.26 0 001.683.69c.431 0 .7-.133.808-.4a2.365 2.365 0 00.162-.891h.459zm-21.444-7.577a3.5 3.5 0 00.508 1.917 3.9 3.9 0 001.337 1.293 6.241 6.241 0 001.821.713 8.923 8.923 0 001.96.222 5.493 5.493 0 001.775-.289 6.965 6.965 0 001.544-.736 4.536 4.536 0 001.13-1 2.483 2.483 0 00.531-1.136 7.1 7.1 0 01-1.016-1.851 10.463 10.463 0 00-.737-1.648 3.325 3.325 0 00-1.108-1.181 3.988 3.988 0 00-2.121-.447 8.926 8.926 0 00-1.96.224 6.227 6.227 0 00-1.821.713 3.974 3.974 0 00-1.337 1.271 3.47 3.47 0 00-.511 1.935zm5.995-12.97a4.912 4.912 0 00-2.743.736 2.9 2.9 0 000 4.59 5.485 5.485 0 005.487 0 2.9 2.9 0 000-4.59 4.912 4.912 0 00-2.749-.736zM20.894 60.91q0 .8 1.014.8v.8h-7.1v-.8a.9.9 0 00.576-.2.722.722 0 00.253-.6V43.17h-7.61a1.616 1.616 0 00-.807.223.888.888 0 00-.392.846h-.83v-6.242h.83a.886.886 0 00.392.846 1.6 1.6 0 00.807.223h20.475a1.6 1.6 0 00.809-.223.89.89 0 00.392-.846h.83v6.239h-.83a.892.892 0 00-.392-.846 1.622 1.622 0 00-.809-.223h-7.608zm13.927.802q1.2 0 1.2-.8V40.676q0-.8-1.2-.8v-.8h7.653v.8q-1.2 0-1.2.8v20.236q0 .8 1.2.8v.8h-7.653zm13.281 0a1.065 1.065 0 00.646-.2.693.693 0 00.275-.6V40.587a.585.585 0 00-.275-.557 1.3 1.3 0 00-.646-.156v-.8h8.623v.8a1.033 1.033 0 00-.483.134.428.428 0 00-.254.4 1.346 1.346 0 00.184.579c.122.239.261.49.415.758l6.595 11.588 6.641-11.455q.322-.578.484-.913a1.405 1.405 0 00.161-.6c0-.326-.2-.49-.6-.49v-.8H78.4v.8a1.3 1.3 0 00-.646.156.586.586 0 00-.277.557v20.325a.694.694 0 00.277.6 1.063 1.063 0 00.646.2v.8h-7.24v-.8q1.244 0 1.244-.8v-14.8h-.093l-9.268 16.4h-.14L53.82 46.065h-.093v14.843q0 .8 1.291.8v.8h-6.916zm56.951-17.829a.813.813 0 00-.393-.736 2.731 2.731 0 00-1.359-.245H88.36v5.528h9.038a3.383 3.383 0 001.431-.245q.5-.245.506-1.27h.831v6.952h-.831q0-1.024-.506-1.314a2.917 2.917 0 00-1.431-.29H88.36v6.15h15.4a1.9 1.9 0 001.13-.312.987.987 0 00.438-.846h.83v6.105h-.83c0-.445-.147-.7-.438-.757a5.782 5.782 0 00-1.13-.089H82.271v-.8a.9.9 0 00.576-.2.716.716 0 00.254-.6V40.678a.717.717 0 00-.254-.6.9.9 0 00-.576-.2v-.8H103.3a2.369 2.369 0 001.359-.289.921.921 0 00.393-.78h.829v5.883zm30.159 17.027q0 .8 1.014.8v.8h-7.1v-.8a.9.9 0 00.576-.2.72.72 0 00.254-.6V43.17h-7.61a1.618 1.618 0 00-.807.223.887.887 0 00-.391.846h-.831v-6.242h.831a.885.885 0 00.391.846 1.6 1.6 0 00.807.223h20.475a1.6 1.6 0 00.808-.223.888.888 0 00.393-.846h.83v6.239h-.83a.89.89 0 00-.393-.846 1.619 1.619 0 00-.808-.223h-7.609zm10.145.802a1.354 1.354 0 00.944-.58 9.3 9.3 0 00.668-1.115l8.532-17.337c.214-.386.408-.742.576-1.07a1.9 1.9 0 00.254-.847.652.652 0 00-.322-.623 2.828 2.828 0 00-.691-.268v-.8h7.792v.8a3.909 3.909 0 00-.644.245.645.645 0 00-.324.646 1.713 1.713 0 00.161.713q.162.358.484.936l9.592 18.141a1.534 1.534 0 00.623.713 9.718 9.718 0 00.9.446v.8h-8.115v-.8a1.132 1.132 0 00.461-.134.428.428 0 00.275-.4 2.707 2.707 0 00-.369-1.16l-1.753-3.3H153.15l-1.66 3.165a3.648 3.648 0 00-.461 1.337q0 .49.876.49v.8h-6.547zm17.384-8.29l-3.874-8.291-4.334 8.291zm28.364-14.353a24.747 24.747 0 014.1.334 12.983 12.983 0 013.5 1.071 6.769 6.769 0 012.445 1.917 4.6 4.6 0 01.923 2.92 4.009 4.009 0 01-1.337 3.23 9.6 9.6 0 01-3.182 1.761v.089a9.144 9.144 0 013.667 1.983 5 5 0 011.5 3.9 5.207 5.207 0 01-.6 2.473 5.739 5.739 0 01-1.775 1.984 8.929 8.929 0 01-2.883 1.316 14.669 14.669 0 01-3.874.468h-16.923v-.8q1.291 0 1.291-.8V40.679q0-.8-1.291-.8v-.8zm.922 9.183a9.84 9.84 0 003.436-.513 2.4 2.4 0 000-4.323 9.851 9.851 0 00-3.436-.513h-8.809v5.349zm0 10.161a7.606 7.606 0 004.173-.869 2.711 2.711 0 000-4.59 7.6 7.6 0 00-4.173-.869h-8.809v6.328zm38.271 4.947c0-.445-.146-.7-.438-.757a5.777 5.777 0 00-1.13-.089h-21.949v-.8q1.384 0 1.382-.8V40.678q0-.8-1.382-.8v-.8h7.932v.8q-1.292 0-1.291.8v17.739h15.309a1.9 1.9 0 001.13-.312.986.986 0 00.438-.846h.83v6.105zm27.069-19.477a.812.812 0 00-.393-.736 2.731 2.731 0 00-1.359-.245h-14.941v5.528h9.038a3.383 3.383 0 001.431-.245c.336-.164.506-.587.506-1.27h.83v6.952h-.83c0-.683-.17-1.121-.506-1.314a2.917 2.917 0 00-1.431-.29h-9.038v6.15h15.4a1.9 1.9 0 001.131-.312.988.988 0 00.438-.846h.829v6.105h-.829c0-.445-.147-.7-.438-.757a5.781 5.781 0 00-1.131-.089h-21.488v-.8a.894.894 0 00.575-.2.716.716 0 00.254-.6V40.678a.717.717 0 00-.254-.6.9.9 0 00-.575-.2v-.8h21.028a2.369 2.369 0 001.359-.289.92.92 0 00.393-.78h.829v5.883z" fill="#292929"/></svg>