<svg xmlns="http://www.w3.org/2000/svg" width="405" height="35" viewBox="0 0 405 35">
  <defs>
    <style>
      .cls-1 {
        fill: #fff;
        fill-rule: evenodd;
      }
    </style>
  </defs>
  <path id="PERFORMERS" class="cls-1" d="M51.34,4.231q-3.044-2.5-8.459-2.5H29.7V33h7.878V20.714h5.684a13.548,13.548,0,0,0,6.166-1.264,8.7,8.7,0,0,0,3.726-3.39,9.385,9.385,0,0,0,1.231-4.789A8.59,8.59,0,0,0,51.34,4.231ZM41.515,15.365H37.576V7.107H41.2a6.215,6.215,0,0,1,3.905.985,3.849,3.849,0,0,1,1.22,3.178q0,4.1-4.812,4.1h0Zm43.5-8.034V1.736H63.621V33H85.374V27.405H71.5V19.8H84.412V14.2H71.5V7.331H85.016Zm31.976-3q-2.909-2.6-8.28-2.6h-13V33h7.878V20.4H105a6.7,6.7,0,0,1,2.529.414,5.4,5.4,0,0,1,1.991,1.578,18.215,18.215,0,0,1,2.171,3.558L115.314,33h8.616l-4.073-7.878a28.347,28.347,0,0,0-2.552-4.04,8.745,8.745,0,0,0-2.551-2.16,8.567,8.567,0,0,0,3.861-3.133,8.313,8.313,0,0,0,1.287-4.61A8.735,8.735,0,0,0,116.992,4.332Zm-6.4,10.082a6.507,6.507,0,0,1-3.715.884h-3.29V7.107h3.424q4.856,0,4.856,4.163A3.559,3.559,0,0,1,110.592,14.414Zm42.069-7.083V1.736H132.139V33h7.877V19.8h12.645v-5.64H140.016V7.331h12.645Zm41.218,1.88a14.731,14.731,0,0,0-6-5.774,19.16,19.16,0,0,0-9.2-2.1,18.842,18.842,0,0,0-9.735,2.316,14.753,14.753,0,0,0-5.8,5.975,16.832,16.832,0,0,0-1.88,7.8,16.252,16.252,0,0,0,2.015,7.99,14.782,14.782,0,0,0,5.908,5.819,18.931,18.931,0,0,0,9.354,2.171,19.256,19.256,0,0,0,9.355-2.148,14.882,14.882,0,0,0,6-5.8,16.156,16.156,0,0,0,2.059-8.079A16.264,16.264,0,0,0,193.879,9.211ZM170.47,12.623a7.923,7.923,0,0,1,3.223-3.256,9.963,9.963,0,0,1,4.9-1.164,9.7,9.7,0,0,1,5,1.242,8.279,8.279,0,0,1,3.211,3.323,9.643,9.643,0,0,1,1.1,4.565,8.868,8.868,0,0,1-2.585,6.725,9.385,9.385,0,0,1-6.77,2.473,9.83,9.83,0,0,1-4.766-1.141,8.068,8.068,0,0,1-3.268-3.234,9.57,9.57,0,0,1-1.164-4.733A10.024,10.024,0,0,1,170.47,12.623Zm56.683-8.292q-2.908-2.6-8.28-2.6h-13V33h7.878V20.4h1.41a6.7,6.7,0,0,1,2.529.414,5.414,5.414,0,0,1,1.992,1.578,18.268,18.268,0,0,1,2.17,3.558L225.475,33h8.616l-4.073-7.878a28.448,28.448,0,0,0-2.551-4.04,8.762,8.762,0,0,0-2.552-2.16,8.567,8.567,0,0,0,3.861-3.133,8.305,8.305,0,0,0,1.287-4.61A8.735,8.735,0,0,0,227.153,4.332Zm-6.4,10.082a6.507,6.507,0,0,1-3.715.884h-3.29V7.107h3.424q4.855,0,4.856,4.163A3.559,3.559,0,0,1,220.753,14.414Zm38.533-.616-9.8-12.063H242.3V33H250V13.015l8.84,10.966h0.739l8.8-10.966V33h7.878V1.736h-7.139Zm49.656-6.468V1.736H287.547V33H309.3V27.405H295.424V19.8h12.913V14.2H295.424V7.331h13.518Zm31.976-3q-2.91-2.6-8.281-2.6h-13V33h7.877V20.4h1.41a6.69,6.69,0,0,1,2.529.414,5.414,5.414,0,0,1,1.992,1.578,18.264,18.264,0,0,1,2.171,3.558L339.239,33h8.616l-4.073-7.878a28.448,28.448,0,0,0-2.551-4.04,8.758,8.758,0,0,0-2.551-2.16,8.569,8.569,0,0,0,3.86-3.133,8.305,8.305,0,0,0,1.287-4.61A8.737,8.737,0,0,0,340.918,4.332Zm-6.4,10.082a6.5,6.5,0,0,1-3.715.884h-3.29V7.107h3.424q4.857,0,4.857,4.163A3.56,3.56,0,0,1,334.517,14.414Zm36.06-12.421a19.667,19.667,0,0,0-5.091-.66,13.138,13.138,0,0,0-5.718,1.141,8.483,8.483,0,0,0-3.626,3.111A8.094,8.094,0,0,0,354.9,9.994a7.972,7.972,0,0,0,1.153,4.353,10.265,10.265,0,0,0,2.753,2.954,33.709,33.709,0,0,0,3.882,2.316,26.4,26.4,0,0,1,3.682,2.037,5.693,5.693,0,0,1,1.578,1.488,2.9,2.9,0,0,1,.38,1.511,2.492,2.492,0,0,1-1.029,2.025,4.743,4.743,0,0,1-3,.817q-4.454,0-9.154-3.76v7.072a22.342,22.342,0,0,0,10.161,2.6,13.732,13.732,0,0,0,5.673-1.119,8.911,8.911,0,0,0,3.872-3.178,8.38,8.38,0,0,0,1.376-4.767,7.874,7.874,0,0,0-1.108-4.286,10.554,10.554,0,0,0-2.909-3.021,43.468,43.468,0,0,0-4.935-2.876,17.182,17.182,0,0,1-3.76-2.327,2.789,2.789,0,0,1-.962-2.059,2.431,2.431,0,0,1,.94-2,4.383,4.383,0,0,1,2.775-.75q4.23,0,8.661,3.469V3.795A16.583,16.583,0,0,0,370.577,1.993Z"/>
</svg>
