<svg xmlns="http://www.w3.org/2000/svg" width="474" height="35" viewBox="0 0 474 35">
  <defs>
    <style>
      .cls-1 {
        fill: #292929;
        fill-rule: evenodd;
      }
    </style>
  </defs>
  <path id="ETHICAL_BOOTH" data-name="ETHICAL BOOTH" class="cls-1" d="M34.22,7.331V1.736H12.825V33H34.578V27.405H20.7V19.8H33.616V14.2H20.7V7.331H34.22ZM72.641,8.248V1.736H42.384V8.248H53.529V33h7.878V8.248H72.641Zm16.623,5.595V1.736H81.387V33h7.878V20.4h15.128V33h7.878V1.736h-7.878V13.843H89.265ZM131.423,33V1.736h-7.877V33h7.877ZM158.767,1.333a20.166,20.166,0,0,0-8.974,1.947,14.768,14.768,0,0,0-6.233,5.595,15.869,15.869,0,0,0-2.249,8.5,16.182,16.182,0,0,0,2.081,8.168A14.761,14.761,0,0,0,149.4,31.3a19.272,19.272,0,0,0,9.231,2.1,25.014,25.014,0,0,0,11.974-2.73V23.645a19.076,19.076,0,0,1-10.676,3.447,11.723,11.723,0,0,1-5.65-1.287,8.993,8.993,0,0,1-3.637-3.48,9.524,9.524,0,0,1-1.253-4.812,10.062,10.062,0,0,1,1.231-4.912A9.1,9.1,0,0,1,154.28,9a11.8,11.8,0,0,1,5.83-1.354,16.078,16.078,0,0,1,5.136.828A24.462,24.462,0,0,1,170.427,11V3.75a30.527,30.527,0,0,0-11.66-2.417h0ZM213.033,33L199.292,1.691h-8.214L177.472,33h8.056l3-7.206h13.428L204.976,33h8.057ZM199.874,20.758h-9.288L195.219,9.39Zm28.977,5.774V1.736h-7.878V33h22.044V26.532H228.851Zm62.34-22.749q-2.842-2.048-7.81-2.048H270.11V33h13.562q5.862,0,9.253-1.969t3.391-6.781a7.8,7.8,0,0,0-1.678-5,10.061,10.061,0,0,0-5.1-3.167,7,7,0,0,0,3.279-2.652A7.259,7.259,0,0,0,294.033,9.3,6.457,6.457,0,0,0,291.191,3.783Zm-5.986,9.948a6.409,6.409,0,0,1-3.883.985h-3.335V6.592h3.67a5.77,5.77,0,0,1,3.682.962,3.71,3.71,0,0,1,1.175,3.044A3.667,3.667,0,0,1,285.205,13.731Zm-3.1,14.412h-4.118V19.528h4.118q6.288,0,6.289,4.342,0,4.275-6.289,4.275h0ZM337.221,9.211a14.731,14.731,0,0,0-6-5.774,19.16,19.16,0,0,0-9.2-2.1,18.842,18.842,0,0,0-9.735,2.316,14.74,14.74,0,0,0-5.8,5.975,16.832,16.832,0,0,0-1.88,7.8,16.262,16.262,0,0,0,2.014,7.99,14.791,14.791,0,0,0,5.909,5.819,18.931,18.931,0,0,0,9.354,2.171,19.256,19.256,0,0,0,9.355-2.148,14.882,14.882,0,0,0,6-5.8,16.156,16.156,0,0,0,2.059-8.079A16.264,16.264,0,0,0,337.221,9.211Zm-23.409,3.413a7.923,7.923,0,0,1,3.223-3.256,9.963,9.963,0,0,1,4.9-1.164,9.7,9.7,0,0,1,5,1.242,8.279,8.279,0,0,1,3.211,3.323,9.643,9.643,0,0,1,1.1,4.565,8.868,8.868,0,0,1-2.585,6.725,9.385,9.385,0,0,1-6.77,2.473,9.83,9.83,0,0,1-4.766-1.141,8.068,8.068,0,0,1-3.268-3.234,9.57,9.57,0,0,1-1.164-4.733A10.024,10.024,0,0,1,313.812,12.623Zm66.62-3.413a14.734,14.734,0,0,0-6-5.774,19.16,19.16,0,0,0-9.2-2.1A18.847,18.847,0,0,0,355.5,3.649a14.744,14.744,0,0,0-5.8,5.975,16.82,16.82,0,0,0-1.88,7.8,16.251,16.251,0,0,0,2.014,7.99,14.789,14.789,0,0,0,5.908,5.819A18.933,18.933,0,0,0,365.1,33.4a19.255,19.255,0,0,0,9.354-2.148,14.882,14.882,0,0,0,6-5.8,16.146,16.146,0,0,0,2.059-8.079A16.273,16.273,0,0,0,380.432,9.211Zm-23.409,3.413a7.926,7.926,0,0,1,3.222-3.256,9.967,9.967,0,0,1,4.9-1.164,9.7,9.7,0,0,1,5,1.242,8.282,8.282,0,0,1,3.212,3.323,9.643,9.643,0,0,1,1.1,4.565,8.868,8.868,0,0,1-2.584,6.725,9.387,9.387,0,0,1-6.77,2.473,9.831,9.831,0,0,1-4.767-1.141,8.059,8.059,0,0,1-3.267-3.234,9.57,9.57,0,0,1-1.164-4.733A10.024,10.024,0,0,1,357.023,12.623Zm63.128-4.375V1.736H389.894V8.248h11.145V33h7.877V8.248h11.235Zm16.624,5.595V1.736H428.9V33h7.878V20.4H451.9V33h7.878V1.736H451.9V13.843H436.775Z"/>
</svg>
