<svg xmlns="http://www.w3.org/2000/svg" width="251" height="35" viewBox="0 0 251 35">
  <defs>
    <style>
      .cls-1 {
        fill: #292929;
        fill-rule: evenodd;
      }
    </style>
  </defs>
  <path id="FLOWER" class="cls-1" d="M34.479,7.331V1.736H13.957V33h7.878V19.8H34.479v-5.64H21.834V7.331H34.479Zm17.877,19.2V1.736H44.478V33H66.522V26.532H52.355ZM106.912,9.211a14.731,14.731,0,0,0-6-5.774,19.164,19.164,0,0,0-9.2-2.1,18.846,18.846,0,0,0-9.735,2.316,14.747,14.747,0,0,0-5.8,5.975,16.829,16.829,0,0,0-1.88,7.8,16.254,16.254,0,0,0,2.014,7.99,14.788,14.788,0,0,0,5.908,5.819A18.933,18.933,0,0,0,91.582,33.4a19.257,19.257,0,0,0,9.355-2.148,14.882,14.882,0,0,0,6-5.8,16.156,16.156,0,0,0,2.059-8.079A16.264,16.264,0,0,0,106.912,9.211ZM83.5,12.623a7.923,7.923,0,0,1,3.223-3.256,9.963,9.963,0,0,1,4.9-1.164,9.7,9.7,0,0,1,5,1.242,8.282,8.282,0,0,1,3.211,3.323,9.647,9.647,0,0,1,1.1,4.565,8.868,8.868,0,0,1-2.585,6.725,9.386,9.386,0,0,1-6.77,2.473,9.832,9.832,0,0,1-4.767-1.141,8.067,8.067,0,0,1-3.267-3.234,9.57,9.57,0,0,1-1.164-4.733A10.02,10.02,0,0,1,83.5,12.623Zm47.261,7.732-7.116-18.62h-8.1l12.98,31.578h4.118l8.84-20.522,8.751,20.522h4.05L167.467,1.736h-8.012l-7.3,18.62-7.654-18.62h-5.953ZM196.8,7.331V1.736H175.407V33H197.16V27.405H183.285V19.8H196.2V14.2H183.285V7.331H196.8Zm31.976-3q-2.91-2.6-8.281-2.6h-13V33h7.878V20.4h1.409a6.69,6.69,0,0,1,2.529.414,5.406,5.406,0,0,1,1.992,1.578,18.264,18.264,0,0,1,2.171,3.558L227.1,33h8.617l-4.074-7.878a28.358,28.358,0,0,0-2.551-4.04,8.745,8.745,0,0,0-2.551-2.16,8.569,8.569,0,0,0,3.86-3.133,8.305,8.305,0,0,0,1.287-4.61A8.737,8.737,0,0,0,228.778,4.332Zm-6.4,10.082a6.5,6.5,0,0,1-3.715.884h-3.289V7.107H218.8q4.855,0,4.856,4.163A3.557,3.557,0,0,1,222.377,14.414Z"/>
</svg>
