<svg xmlns="http://www.w3.org/2000/svg" width="928" height="165"><path d="M0 68.255a2.9 2.9 0 001.79-.579 2.029 2.029 0 00.768-1.732v-58.5a1.7 1.7 0 00-.768-1.6A3.488 3.488 0 000 5.395V3.086h23.934v2.309a2.8 2.8 0 00-1.344.385 1.24 1.24 0 00-.7 1.155 3.966 3.966 0 00.514 1.668q.508 1.028 1.152 2.181l18.3 33.357 18.429-32.98q.9-1.666 1.346-2.63a4.194 4.194 0 00.446-1.732c0-.938-.556-1.411-1.662-1.411V3.079h23.678v2.309a3.493 3.493 0 00-1.792.449 1.7 1.7 0 00-.768 1.6v58.5a2.029 2.029 0 00.768 1.732 2.9 2.9 0 001.792.579v2.307H63.999v-2.307q3.453 0 3.454-2.311V23.351h-.254l-25.73 47.21h-.384L15.87 23.22h-.254v42.722q0 2.309 3.584 2.311v2.307H0zM121.798 5.388q-2.814 0-2.816 2.309v38.489q0 8.083 5.184 11.1t15.169 3.015q9.981 0 15.167-3.015t5.184-11.1V7.697q0-2.309-3.842-2.309V3.079h20.479v2.309q-3.072 0-3.07 2.309v37.847a31.161 31.161 0 01-2.178 12.509 18.173 18.173 0 01-6.526 7.89 26.429 26.429 0 01-10.816 3.977 96.135 96.135 0 01-14.911 1.026 96.126 96.126 0 01-14.914-1.026 26.4 26.4 0 01-10.816-3.977 18.152 18.152 0 01-6.528-7.89 31.162 31.162 0 01-2.176-12.509V7.697q0-2.309-3.584-2.309V3.079h20.991zm76.489 44.005l1.28.642a4.044 4.044 0 00.514 2.053 9.075 9.075 0 003.518 3.015 35.709 35.709 0 006.016 2.63 52.1 52.1 0 007.1 1.86 35.958 35.958 0 006.656.706q2.175 0 5.632-.321a33.3 33.3 0 006.784-1.345 19.075 19.075 0 005.76-2.824 5.622 5.622 0 002.432-4.747 4.8 4.8 0 00-2.24-4.362 16.4 16.4 0 00-5.888-2.053 63.65 63.65 0 00-8.32-.834q-4.674-.192-9.536-.577a86.525 86.525 0 01-9.536-1.283 26.312 26.312 0 01-8.32-3.015 16.556 16.556 0 01-5.888-5.773 18.1 18.1 0 01-2.24-9.558 17.841 17.841 0 011.856-7.826 19 19 0 015.7-6.8 31.369 31.369 0 019.728-4.811 46.062 46.062 0 0113.823-1.86 59.33 59.33 0 0111.776 1.026 87.544 87.544 0 018.64 2.181q3.648 1.155 6.146 2.181a11.362 11.362 0 004.158 1.026 3.528 3.528 0 002.56-.77l1.536 1.026-8.832 16.037-1.28-.513a7.111 7.111 0 00-1.024-2.951 10.948 10.948 0 00-3.392-3.013 29.421 29.421 0 00-5.568-2.632 45.343 45.343 0 00-6.912-1.86 39.79 39.79 0 00-7.424-.706 39.464 39.464 0 00-5.822.449 27.5 27.5 0 00-5.442 1.347 12.01 12.01 0 00-4.032 2.374 4.77 4.77 0 00-1.6 3.656 5.23 5.23 0 002.24 4.619 16.288 16.288 0 005.888 2.309 55.157 55.157 0 008.32 1.026q4.671.258 9.536.643a77.261 77.261 0 019.536 1.345 27.518 27.518 0 018.32 3.079 16.747 16.747 0 015.888 5.709 17.5 17.5 0 012.24 9.366 16.489 16.489 0 01-3.52 10.905 24.819 24.819 0 01-8.768 6.671 39.433 39.433 0 01-11.328 3.272 83.786 83.786 0 01-11.328.834 75.085 75.085 0 01-12.224-.834 45.42 45.42 0 01-8.192-2.053 54.643 54.643 0 01-5.184-2.181 7.683 7.683 0 00-3.328-.962 2.127 2.127 0 00-1.664 1.026l-1.792-1.026zm140.949-32.456a2.356 2.356 0 00-1.088-2.119 7.346 7.346 0 00-3.774-.706h-41.473v15.909h25.089a9.034 9.034 0 003.968-.706q1.407-.7 1.406-3.656h2.3v20.014h-2.3q0-2.95-1.406-3.785a7.848 7.848 0 00-3.968-.834h-25.089v17.708h42.751a5.149 5.149 0 003.138-.9 2.873 2.873 0 001.214-2.436h2.306v17.575h-2.306q0-1.924-1.214-2.181a15.607 15.607 0 00-3.138-.257h-59.646v-2.307a2.46 2.46 0 001.6-.579 2.108 2.108 0 00.706-1.732V7.699a2.108 2.108 0 00-.706-1.732 2.457 2.457 0 00-1.6-.577V3.081h58.368a6.368 6.368 0 003.774-.834 2.678 2.678 0 001.088-2.245h2.306v16.937zm66.171 32.456l1.282.642a4.039 4.039 0 00.512 2.053 9.085 9.085 0 003.52 3.015 35.7 35.7 0 006.016 2.63 51.932 51.932 0 007.1 1.86 35.92 35.92 0 006.654.706q2.175 0 5.632-.321a33.3 33.3 0 006.784-1.345 19.088 19.088 0 005.762-2.824 5.627 5.627 0 002.432-4.747 4.794 4.794 0 00-2.242-4.362 16.39 16.39 0 00-5.888-2.053 63.62 63.62 0 00-8.318-.834q-4.674-.192-9.536-.577a86.4 86.4 0 01-9.536-1.283 26.322 26.322 0 01-8.321-3.015 16.57 16.57 0 01-5.888-5.773 18.1 18.1 0 01-2.238-9.558 17.863 17.863 0 011.854-7.826 18.986 18.986 0 015.7-6.8 31.357 31.357 0 019.726-4.811 46.077 46.077 0 0113.826-1.86 59.309 59.309 0 0111.774 1.026 87.606 87.606 0 018.642 2.181q3.648 1.155 6.144 2.181a11.37 11.37 0 004.158 1.026 3.534 3.534 0 002.562-.77l1.536 1.026-8.832 16.037-1.282-.513a7.107 7.107 0 00-1.022-2.951 10.943 10.943 0 00-3.394-3.013 29.421 29.421 0 00-5.568-2.632 45.283 45.283 0 00-6.912-1.86 39.769 39.769 0 00-7.422-.706 39.488 39.488 0 00-5.824.449 27.5 27.5 0 00-5.442 1.347 12.032 12.032 0 00-4.032 2.374 4.771 4.771 0 00-1.6 3.656 5.231 5.231 0 002.242 4.619 16.274 16.274 0 005.888 2.309 55.136 55.136 0 008.318 1.026q4.673.258 9.536.643a77.2 77.2 0 019.536 1.345 27.525 27.525 0 018.322 3.079 16.778 16.778 0 015.888 5.709 17.511 17.511 0 012.238 9.366 16.479 16.479 0 01-3.52 10.905 24.8 24.8 0 01-8.768 6.671 39.429 39.429 0 01-11.328 3.272 83.76 83.76 0 01-11.326.834 75.108 75.108 0 01-12.225-.834 45.35 45.35 0 01-8.19-2.053 54.232 54.232 0 01-5.184-2.181 7.689 7.689 0 00-3.328-.962 2.131 2.131 0 00-1.666 1.026l-1.79-1.026zm75.853 21.168v-2.307q4.733 0 4.736-2.311V7.697q0-2.309-4.736-2.309V3.079h45.055q12.287 0 19.328 4.555t7.038 15.46q0 10.906-7.038 15.46t-19.328 4.554h-25.729v22.837q0 2.309 4.1 2.311v2.307zm46.589-39.258a14.692 14.692 0 007.232-1.668q3.006-1.666 3.01-6.543t-3.01-6.543a14.712 14.712 0 00-7.232-1.668h-27.263v16.422zm100.489-14.366a2.359 2.359 0 00-1.086-2.119 7.355 7.355 0 00-3.776-.706h-41.471v15.909h25.088a9.031 9.031 0 003.968-.706q1.407-.7 1.408-3.656h2.3v20.014h-2.3q0-2.95-1.408-3.785a7.845 7.845 0 00-3.968-.834h-25.088v17.708h42.751a5.142 5.142 0 003.136-.9 2.869 2.869 0 001.214-2.436h2.306v17.575h-2.306q0-1.924-1.214-2.181a15.585 15.585 0 00-3.136-.257h-59.648v-2.307a2.453 2.453 0 001.6-.579 2.109 2.109 0 00.706-1.732V7.699a2.109 2.109 0 00-.706-1.732 2.451 2.451 0 00-1.6-.577V3.081h58.368a6.376 6.376 0 003.776-.834 2.681 2.681 0 001.086-2.245h2.306v16.937zm90.585 44.388a3.351 3.351 0 01-.7-.064 3.646 3.646 0 00-.705-.064 11.877 11.877 0 00-3.646 1.54q-2.883 1.54-7.3 3.464a64.461 64.461 0 01-10.048 3.336 48.244 48.244 0 01-11.778 1.411 57.83 57.83 0 01-15.487-2.053 38.56 38.56 0 01-13.118-6.351 31.234 31.234 0 01-9.026-10.713 32.139 32.139 0 01-3.326-15.011 32.248 32.248 0 013.326-14.946 31.724 31.724 0 019.026-10.841 39.814 39.814 0 0113.118-6.543 54.756 54.756 0 0115.487-2.181 62.871 62.871 0 0111.842 1.026q5.307 1.028 9.28 2.181a51.455 51.455 0 016.272 2.181 11.185 11.185 0 002.816 1.026 1.3 1.3 0 001.086-.641c.3-.427.532-.768.7-1.026l1.922 1.54-9.985 15.524-1.279-.9a4.976 4.976 0 00-.064-.77c-.046-.257-.11-.554-.194-.9q-.258-1.41-2.558-2.887a26.375 26.375 0 00-5.7-2.63 58.51 58.51 0 00-7.166-1.924 35.123 35.123 0 00-6.978-.77 34.345 34.345 0 00-10.3 1.54 25.6 25.6 0 00-8.574 4.49 21.977 21.977 0 00-5.826 7.249 21.422 21.422 0 00-2.174 9.815 21.41 21.41 0 002.174 9.814 21.94 21.94 0 005.826 7.249 25.564 25.564 0 008.574 4.49 34.343 34.343 0 0010.3 1.54 40.883 40.883 0 008.578-.962 51.408 51.408 0 008.19-2.438 27.117 27.117 0 006.209-3.336q2.5-1.858 2.5-3.528a2.4 2.4 0 00-.514-1.54l1.792-1.026 8.448 13.6zm16.047 6.93q3.33 0 3.328-2.311V7.698q0-2.309-3.328-2.309V3.08h21.248v2.309q-3.33 0-3.326 2.309v58.246q0 2.309 3.326 2.311v2.307H734.97zm34.096 0a3.753 3.753 0 002.626-1.67 27.858 27.858 0 001.856-3.207l23.683-49.907q.894-1.666 1.6-3.079a5.659 5.659 0 00.7-2.438 1.9 1.9 0 00-.9-1.8 7.6 7.6 0 00-1.92-.77V3.075h21.633v2.309a10.359 10.359 0 00-1.792.706 1.877 1.877 0 00-.9 1.86 5.067 5.067 0 00.448 2.053q.447 1.028 1.342 2.694l26.625 52.216a4.37 4.37 0 001.726 2.053 27.123 27.123 0 002.5 1.285v2.307h-22.522v-2.307a3.012 3.012 0 001.278-.387 1.23 1.23 0 00.767-1.155 8.013 8.013 0 00-1.021-3.336l-4.864-9.494h-31.233l-4.606 9.109a10.74 10.74 0 00-1.28 3.849q0 1.413 2.432 1.413v2.307h-18.177zm48.256-23.865L806.57 20.527 794.539 44.39zM925.619 73q0-1.924-1.216-2.181a15.582 15.582 0 00-3.136-.257H860.34v-2.307q3.84 0 3.84-2.311V7.698q0-2.309-3.84-2.309V3.08h22.013v2.309q-3.582 0-3.584 2.309v51.063h42.5a5.143 5.143 0 003.136-.9 2.87 2.87 0 001.216-2.436h2.3V73zm-736.332 85.353q0 2.324 2.812 2.326v2.322h-19.684v-2.322a2.446 2.446 0 001.6-.583 2.141 2.141 0 00.7-1.743v-51.378h-21.09a4.322 4.322 0 00-2.237.645 2.613 2.613 0 00-1.087 2.453h-2.3V92h2.3a2.607 2.607 0 001.087 2.453 4.305 4.305 0 002.237.645h56.755a4.315 4.315 0 002.237-.645A2.611 2.611 0 00213.704 92h2.3v18.073h-2.3a2.617 2.617 0 00-1.087-2.453 4.332 4.332 0 00-2.237-.645h-21.09zm24.714 1.356a3.739 3.739 0 002.616-1.658 27.365 27.365 0 001.851-3.184l23.61-49.549q.892-1.654 1.6-3.057a5.6 5.6 0 00.7-2.42 1.883 1.883 0 00-.894-1.783 7.626 7.626 0 00-1.914-.764v-2.293h21.569v2.293a10.461 10.461 0 00-1.787.7 1.861 1.861 0 00-.893 1.847 5.024 5.024 0 00.446 2.038q.446 1.021 1.34 2.675l26.547 51.842a4.345 4.345 0 001.723 2.038 26.528 26.528 0 002.489 1.276v2.291h-22.462v-2.291a3.024 3.024 0 001.276-.384 1.223 1.223 0 00.766-1.146 7.94 7.94 0 00-1.021-3.312l-4.85-9.426h-31.14l-4.595 9.044a10.669 10.669 0 00-1.276 3.821q0 1.4 2.425 1.4v2.291h-18.123zm48.115-23.694l-10.72-23.692-12 23.692zM370.681 165q0-1.927-1.224-2.183a15.741 15.741 0 00-3.155-.257h-61.3v-2.31q3.861 0 3.862-2.314V99.624q0-2.312-3.862-2.312V95h22.15v2.312q-3.607 0-3.606 2.312v51.119h42.759a5.189 5.189 0 003.155-.9 2.868 2.868 0 001.224-2.439h2.32v17.594zm30.76-7.586a2.006 2.006 0 00.77 1.72 2.927 2.927 0 001.8.575V162h-20.007v-2.291c1.878 0 2.821-.766 2.821-2.295V99.582c0-1.529-.943-2.293-2.821-2.293v-2.293h20.007v2.293a2.925 2.925 0 00-1.8.573 2.006 2.006 0 00-.77 1.72v24.2l26.55-20.762q1.794-1.528 2.822-2.484t1.024-1.592a1.414 1.414 0 00-.575-1.274 2.386 2.386 0 00-1.349-.382v-2.293h26.935v2.293a7.258 7.258 0 00-4.619 1.912l-29.5 23.308 26.935 30.952a32.468 32.468 0 003.91 3.758 12.667 12.667 0 004.425 2.486v2.291h-23.726v-2.291q1.668 0 1.667-.893 0-.636-1.794-2.8l-21.933-25.093-10.773 8.279zM573.68 165q0-1.927-1.223-2.183a15.742 15.742 0 00-3.155-.257h-61.3v-2.31q3.861 0 3.864-2.314V99.624q0-2.312-3.864-2.312V95h22.15v2.312q-3.607 0-3.606 2.312v51.119h42.758a5.19 5.19 0 003.155-.9 2.869 2.869 0 001.223-2.439h2.32v17.594zm14.324-5.291q3.291 0 3.291-2.295V99.582q0-2.293-3.291-2.293v-2.293h21v2.293q-3.291 0-3.289 2.293v57.829q0 2.293 3.289 2.295v2.291h-21zm113.995-62.416a4.083 4.083 0 00-3.736 1.847 26.091 26.091 0 00-1.675 2.993l-22.797 49.549q-1.16 2.549-1.932 4.076a5.878 5.878 0 00-.773 2.165 1.524 1.524 0 00.322 1.019 4.96 4.96 0 00.837.766v2.291h-19.71v-2.291a1.805 1.805 0 001.159-1.785 8.131 8.131 0 00-.966-2.611q-.966-1.973-2.383-4.9l-23.189-49.8a4.272 4.272 0 00-1.8-2.038 17.52 17.52 0 00-3.349-1.274v-2.293h23.06V97.3a3.659 3.659 0 00-1.739.446 1.765 1.765 0 00-.837 1.72 8.386 8.386 0 001.095 3.567q1.093 2.167 2.641 5.35l16.491 35.029 16.1-34.519q1.543-3.311 2.9-5.923a9.96 9.96 0 001.353-3.63q0-2.036-3.608-2.038v-2.293h22.544zm74.946 11.644a2.364 2.364 0 00-1.083-2.119 7.292 7.292 0 00-3.759-.706h-41.281v15.909h24.972a8.953 8.953 0 003.95-.706q1.4-.7 1.4-3.656h2.293v20.014h-2.293q0-2.95-1.4-3.785a7.779 7.779 0 00-3.95-.834h-24.972v17.708h42.555a5.1 5.1 0 003.121-.9 2.872 2.872 0 001.208-2.436h2.3v17.575h-2.3q0-1.924-1.208-2.181a15.444 15.444 0 00-3.121-.257h-59.375v-2.307a2.433 2.433 0 001.593-.579 2.113 2.113 0 00.7-1.732V99.699a2.113 2.113 0 00-.7-1.732 2.43 2.43 0 00-1.593-.577v-2.309h58.1a6.323 6.323 0 003.759-.834 2.688 2.688 0 001.083-2.245h2.293v16.937z" opacity=".1" fill="#fed438"/><path fill="none" d="M0 0h928v165H0z"/></svg>