<svg xmlns="http://www.w3.org/2000/svg" width="260.112" height="72.824"><path d="M32.42 25.406a1.466 1.466 0 01-.3-.028 1.564 1.564 0 00-.3-.027 5.124 5.124 0 00-1.574.662q-1.241.663-3.147 1.491a27.756 27.756 0 01-4.336 1.436 20.863 20.863 0 01-5.081.608 25 25 0 01-6.684-.884 16.646 16.646 0 01-5.661-2.734 13.46 13.46 0 01-3.894-4.611 13.816 13.816 0 01-1.436-6.462 13.864 13.864 0 011.436-6.435 13.673 13.673 0 013.894-4.667A17.2 17.2 0 0110.998.939a23.637 23.637 0 016.684-.94 27.181 27.181 0 015.108.442q2.291.443 4 .939a22.318 22.318 0 012.706.94 4.883 4.883 0 001.215.441.562.562 0 00.469-.275c.129-.184.23-.331.3-.442l.828.663L28 9.391l-.552-.387a2 2 0 00-.028-.331 6.67 6.67 0 00-.082-.387q-.112-.607-1.105-1.242a11.4 11.4 0 00-2.458-1.132 25.174 25.174 0 00-3.092-.828 15.136 15.136 0 00-3.01-.332 14.856 14.856 0 00-4.447.663 11.079 11.079 0 00-3.7 1.933 9.456 9.456 0 00-2.513 3.12 9.2 9.2 0 00-.939 4.225 9.2 9.2 0 00.939 4.225 9.432 9.432 0 002.513 3.121 11.055 11.055 0 003.7 1.934 14.858 14.858 0 004.447.662 17.608 17.608 0 003.7-.414 22.2 22.2 0 003.535-1.049 11.7 11.7 0 002.678-1.435q1.078-.8 1.077-1.519a1.033 1.033 0 00-.221-.663l.774-.442 3.646 5.855zM55.837 0a22.185 22.185 0 016.186.911 19.221 19.221 0 015.744 2.734 14.813 14.813 0 014.252 4.611 12.687 12.687 0 011.657 6.6 12.683 12.683 0 01-1.657 6.6 14.794 14.794 0 01-4.252 4.612 17.819 17.819 0 01-5.744 2.652 24.29 24.29 0 01-6.186.828 24.289 24.289 0 01-6.186-.828 17.806 17.806 0 01-5.744-2.652 14.785 14.785 0 01-4.252-4.612 12.683 12.683 0 01-1.657-6.6 12.687 12.687 0 011.657-6.6 14.8 14.8 0 014.252-4.611A19.2 19.2 0 0149.651.911 22.184 22.184 0 0155.837 0zm0 5.082a13.87 13.87 0 00-4.2.662 12.822 12.822 0 00-3.783 1.906 9.9 9.9 0 00-2.734 3.065 8.151 8.151 0 00-1.049 4.142 8.151 8.151 0 001.049 4.142 9.9 9.9 0 002.734 3.065 12.831 12.831 0 003.783 1.906 13.865 13.865 0 004.2.662 13.876 13.876 0 004.2-.662 12.865 12.865 0 003.783-1.906 9.915 9.915 0 002.734-3.065 8.162 8.162 0 001.049-4.142 8.162 8.162 0 00-1.049-4.142A9.916 9.916 0 0063.82 7.65a12.856 12.856 0 00-3.783-1.906 13.882 13.882 0 00-4.2-.667zm52.142 25.35q0-.828-.524-.938a6.685 6.685 0 00-1.354-.111H79.812v-.993q1.656 0 1.657-.995V2.321q0-1-1.657-.995V.333h9.5v.993q-1.547 0-1.547.995v21.981h18.337a2.23 2.23 0 001.354-.387 1.235 1.235 0 00.524-1.049h.994v7.566zm34.128 0q0-.828-.526-.938a6.649 6.649 0 00-1.352-.111h-26.294v-.993q1.658 0 1.658-.995V2.321q0-1-1.658-.995V.333h9.5v.993q-1.546 0-1.547.995v21.981h18.337a2.22 2.22 0 001.352-.387 1.234 1.234 0 00.526-1.049h.992v7.566zm4.888-2.044a1.611 1.611 0 001.132-.719 11.834 11.834 0 00.8-1.381l10.218-21.484c.255-.477.486-.92.689-1.326a2.426 2.426 0 00.3-1.049.819.819 0 00-.386-.773 3.338 3.338 0 00-.828-.331V.332h9.333v.993a4.6 4.6 0 00-.773.3.8.8 0 00-.386.8 2.177 2.177 0 00.193.884q.193.442.58 1.161l11.488 22.477a1.873 1.873 0 00.746.884 11.382 11.382 0 001.075.553v.993h-9.718v-.993a1.3 1.3 0 00.552-.166.529.529 0 00.332-.5 3.436 3.436 0 00-.442-1.436l-2.1-4.087h-13.476l-1.989 3.921a4.649 4.649 0 00-.551 1.658q0 .607 1.049.607v.993h-7.838zm20.822-10.273l-4.639-10.273-5.191 10.273zM204.137.332a28.564 28.564 0 014.916.414 15.242 15.242 0 014.2 1.325 8.179 8.179 0 012.927 2.375 5.838 5.838 0 011.1 3.617 5.052 5.052 0 01-1.6 4 11.429 11.429 0 01-3.811 2.181v.111a10.836 10.836 0 014.391 2.459 6.306 6.306 0 011.794 4.832 6.655 6.655 0 01-.718 3.064 7.08 7.08 0 01-2.127 2.459 10.6 10.6 0 01-3.452 1.629 17.046 17.046 0 01-4.639.579h-20.269v-.993q1.546 0 1.546-.995V2.315q0-1-1.546-.995V.327zm1.1 11.377a11.424 11.424 0 004.114-.635 2.573 2.573 0 001.63-2.679 2.574 2.574 0 00-1.63-2.678 11.459 11.459 0 00-4.114-.634h-10.549v6.627zm0 12.593q3.479 0 5-1.077a3.33 3.33 0 001.518-2.844 3.333 3.333 0 00-1.518-2.845q-1.519-1.075-5-1.077h-10.549v7.843zM242.274 0a22.175 22.175 0 016.185.911 19.2 19.2 0 015.744 2.734 14.813 14.813 0 014.253 4.611 12.689 12.689 0 011.656 6.6 12.685 12.685 0 01-1.656 6.6 14.794 14.794 0 01-4.253 4.612 17.8 17.8 0 01-5.744 2.652 24.279 24.279 0 01-6.185.828 24.3 24.3 0 01-6.187-.828 17.8 17.8 0 01-5.743-2.652 14.771 14.771 0 01-4.253-4.612 12.676 12.676 0 01-1.657-6.6 12.68 12.68 0 011.657-6.6 14.79 14.79 0 014.253-4.611 19.2 19.2 0 015.743-2.734A22.19 22.19 0 01242.274 0zm0 5.082a13.869 13.869 0 00-4.2.662 12.833 12.833 0 00-3.784 1.906 9.916 9.916 0 00-2.733 3.065 8.152 8.152 0 00-1.049 4.142 8.152 8.152 0 001.049 4.142 9.915 9.915 0 002.733 3.065 12.842 12.842 0 003.784 1.906 13.863 13.863 0 004.2.662 13.874 13.874 0 004.2-.662 12.836 12.836 0 003.783-1.906 9.924 9.924 0 002.734-3.065 8.159 8.159 0 001.049-4.142 8.159 8.159 0 00-1.049-4.142 9.925 9.925 0 00-2.734-3.065 12.828 12.828 0 00-3.783-1.906 13.879 13.879 0 00-4.2-.667zm-191.7 38.527a22.663 22.663 0 014.8.469 10.867 10.867 0 013.7 1.491 6.871 6.871 0 012.376 2.651 8.783 8.783 0 01.828 4 7.106 7.106 0 01-2.155 5.578 11.565 11.565 0 01-5.8 2.6l7.344 10.494a1.493 1.493 0 00.912.663 4.71 4.71 0 00.968.111v.993H53.218v-.993a2.031 2.031 0 00.856-.167c.24-.11.359-.257.359-.441a1.263 1.263 0 00-.22-.636q-.222-.359-.663-.966l-6.074-8.616h-7.9v9.831a.844.844 0 00.36.745 2.422 2.422 0 001.3.25v.993H31.68v-.993q1.6 0 1.6-.995V45.597q0-1-1.6-.995v-.993zm-1.437 12.923a15.11 15.11 0 003.315-.3 5.84 5.84 0 002.1-.856 3.189 3.189 0 001.1-1.3 3.961 3.961 0 00.332-1.629 3.968 3.968 0 00-.332-1.629 3.206 3.206 0 00-1.1-1.3 5.882 5.882 0 00-2.1-.856 15.2 15.2 0 00-3.315-.3h-9.555v8.173zm19.452 15.133a1.613 1.613 0 001.131-.719 11.871 11.871 0 00.8-1.38l10.217-21.485q.387-.716.691-1.326a2.435 2.435 0 00.3-1.049.818.818 0 00-.386-.773 3.337 3.337 0 00-.829-.331v-.993h9.334v.993a4.563 4.563 0 00-.773.3.806.806 0 00-.386.8 2.179 2.179 0 00.193.884q.193.443.581 1.161l11.487 22.478a1.882 1.882 0 00.746.884 11.391 11.391 0 001.077.553v.993h-9.72v-.993a1.314 1.314 0 00.552-.167.531.531 0 00.332-.5 3.453 3.453 0 00-.443-1.436l-2.1-4.087H77.922l-1.989 3.921a4.653 4.653 0 00-.552 1.658q0 .607 1.049.608v.993h-7.842zM89.41 61.392l-4.639-10.273-5.192 10.273zm29.995 9.278q0 .994 1.215.995v.993h-8.506v-.993a1.064 1.064 0 00.691-.249.91.91 0 00.3-.746V48.689h-9.113a1.878 1.878 0 00-.966.277 1.111 1.111 0 00-.469 1.049h-.994v-7.732h.994a1.11 1.11 0 00.469 1.049 1.878 1.878 0 00.966.277h24.522a1.879 1.879 0 00.966-.277 1.112 1.112 0 00.47-1.049h.994v7.732h-.994a1.113 1.113 0 00-.47-1.049 1.879 1.879 0 00-.966-.277h-9.113zm17.536.995q1.436 0 1.434-.995V45.596q0-1-1.434-.995v-.993h9.168v.993q-1.437 0-1.437.995V70.67q0 .994 1.437.995v.993h-9.168zm33.671-28.388a22.172 22.172 0 016.185.911 19.2 19.2 0 015.744 2.734 14.81 14.81 0 014.254 4.611 12.7 12.7 0 011.656 6.6 12.7 12.7 0 01-1.656 6.6 14.793 14.793 0 01-4.254 4.611 17.793 17.793 0 01-5.744 2.652 24.27 24.27 0 01-6.185.828 24.277 24.277 0 01-6.185-.828 17.813 17.813 0 01-5.744-2.652 14.8 14.8 0 01-4.252-4.611 12.675 12.675 0 01-1.657-6.6 12.678 12.678 0 011.657-6.6 14.812 14.812 0 014.252-4.611 19.229 19.229 0 015.744-2.734 22.178 22.178 0 016.185-.911zm0 5.082a13.856 13.856 0 00-4.2.662 12.824 12.824 0 00-3.784 1.906 9.907 9.907 0 00-2.734 3.065 8.15 8.15 0 00-1.05 4.142 8.149 8.149 0 001.05 4.142 9.906 9.906 0 002.734 3.065 12.837 12.837 0 003.784 1.906 13.855 13.855 0 004.2.662 13.879 13.879 0 004.2-.662 12.865 12.865 0 003.783-1.906 9.916 9.916 0 002.732-3.065 8.144 8.144 0 001.05-4.142 8.145 8.145 0 00-1.05-4.142 9.917 9.917 0 00-2.732-3.065 12.851 12.851 0 00-3.783-1.906 13.881 13.881 0 00-4.2-.667zm24.954 23.306q1.048 0 1.049-.995V45.596q0-1-1.049-.995v-.993h9.445v.993c-.3 0-.442.185-.442.553q0 .443 1.105 1.546l15.851 16.458V45.596q0-1-1.436-.995v-.993h8.34v.993q-1.05 0-1.049.995V70.67q0 .994 1.049.995v.993h-8.947v-.993c.478 0 .718-.167.718-.5q0-.385-.884-1.27l-16.845-17.562v18.336q0 .994 1.271.995v.993h-8.175z" opacity=".1" fill="#fed438"/></svg>