<svg xmlns="http://www.w3.org/2000/svg" width="1091.17" height="74"><path d="M76.342 62.163a3.416 3.416 0 01-.715-.065 3.734 3.734 0 00-.716-.063 12.007 12.007 0 00-3.707 1.559q-2.925 1.564-7.413 3.514a65.465 65.465 0 01-10.208 3.38 49.032 49.032 0 01-11.965 1.431 58.874 58.874 0 01-15.736-2.081 39.221 39.221 0 01-13.331-6.436 31.691 31.691 0 01-9.169-10.861A32.511 32.511 0 01-.001 37.325a32.615 32.615 0 013.383-15.149 32.167 32.167 0 019.169-10.989 40.5 40.5 0 0113.331-6.633 55.679 55.679 0 0115.736-2.213 63.98 63.98 0 0112.028 1.04q5.4 1.043 9.431 2.211a52.7 52.7 0 016.372 2.213 11.469 11.469 0 002.862 1.039 1.324 1.324 0 001.105-.648q.454-.649.716-1.04l1.95 1.559-10.144 15.738-1.3-.912a4.781 4.781 0 00-.063-.778c-.045-.262-.11-.563-.2-.912q-.263-1.427-2.6-2.924a26.637 26.637 0 00-5.786-2.666 59.349 59.349 0 00-7.282-1.951 35.614 35.614 0 00-7.088-.782 34.961 34.961 0 00-10.469 1.563 26.091 26.091 0 00-8.715 4.55 22.316 22.316 0 00-5.917 7.348 21.682 21.682 0 00-2.211 9.949 21.662 21.662 0 002.211 9.949 22.24 22.24 0 005.917 7.348 26.008 26.008 0 008.715 4.554 34.963 34.963 0 0010.469 1.559 41.6 41.6 0 008.714-.974 52.479 52.479 0 008.323-2.471 27.7 27.7 0 006.308-3.381q2.533-1.887 2.536-3.578a2.427 2.427 0 00-.52-1.559l1.821-1.042 8.583 13.786zm55.141-59.824a52.244 52.244 0 0114.566 2.148 45.252 45.252 0 0113.526 6.436 34.9 34.9 0 0110.014 10.861 29.872 29.872 0 013.9 15.539 29.872 29.872 0 01-3.9 15.543 34.869 34.869 0 01-10.014 10.857 41.937 41.937 0 01-13.526 6.245 57.194 57.194 0 01-14.566 1.949 57.161 57.161 0 01-14.566-1.949 41.9 41.9 0 01-13.525-6.245 34.808 34.808 0 01-10.014-10.857 29.873 29.873 0 01-3.9-15.543 29.873 29.873 0 013.9-15.539 34.837 34.837 0 0110.014-10.861 45.2 45.2 0 0113.525-6.436 52.214 52.214 0 0114.566-2.148zm0 11.967a32.6 32.6 0 00-9.884 1.561 30.11 30.11 0 00-8.908 4.487 23.289 23.289 0 00-6.438 7.216 19.184 19.184 0 00-2.471 9.754 19.183 19.183 0 002.471 9.754 23.343 23.343 0 006.438 7.22 30.2 30.2 0 008.908 4.487 32.653 32.653 0 009.884 1.559 32.657 32.657 0 009.882-1.559 30.279 30.279 0 008.91-4.487 23.416 23.416 0 006.438-7.22 19.2 19.2 0 002.47-9.754 19.2 19.2 0 00-2.47-9.754 23.362 23.362 0 00-6.438-7.216 30.194 30.194 0 00-8.91-4.487 32.6 32.6 0 00-9.882-1.561zM254.266 74q0-1.954-1.235-2.211a15.738 15.738 0 00-3.186-.26H187.94v-2.341q3.9 0 3.9-2.343V7.803q0-2.343-3.9-2.343V3.121h22.369V5.46q-3.642 0-3.641 2.343v51.761h43.177a5.233 5.233 0 003.186-.912 2.905 2.905 0 001.235-2.469h2.341V74zm80.36 0c0-1.3-.415-2.04-1.236-2.211a15.771 15.771 0 00-3.188-.26h-61.9v-2.341q3.9 0 3.9-2.343V7.803q0-2.343-3.9-2.343V3.121h22.369V5.46q-3.644 0-3.641 2.343v51.761h43.176a5.243 5.243 0 003.188-.912 2.91 2.91 0 001.236-2.469h2.34V74zm11.507-4.813a3.8 3.8 0 002.667-1.691 28.381 28.381 0 001.884-3.251l24.062-50.59q.909-1.689 1.626-3.123a5.759 5.759 0 00.713-2.471 1.928 1.928 0 00-.909-1.821 7.846 7.846 0 00-1.952-.781V3.12h21.979v2.339a10.81 10.81 0 00-1.819.717 1.9 1.9 0 00-.911 1.884 5.133 5.133 0 00.455 2.081q.454 1.042 1.366 2.733l27.05 52.93a4.435 4.435 0 001.755 2.083 27.762 27.762 0 002.534 1.3v2.341h-22.884v-2.341a3.092 3.092 0 001.3-.392 1.249 1.249 0 00.78-1.17 8.1 8.1 0 00-1.042-3.38l-4.942-9.626h-31.732l-4.681 9.235a10.906 10.906 0 00-1.3 3.9q0 1.43 2.471 1.431v2.341h-18.468zm49.03-24.19l-10.925-24.19-12.224 24.19zm85.519-41.876a67.116 67.116 0 0111.576.975 35.831 35.831 0 019.882 3.119 19.26 19.26 0 016.893 5.594 13.734 13.734 0 012.6 8.517q0 6.114-3.772 9.431a26.817 26.817 0 01-8.974 5.135v.26a25.5 25.5 0 0110.34 5.789q4.224 3.969 4.227 11.38a15.69 15.69 0 01-1.688 7.216 16.679 16.679 0 01-5.009 5.789 24.874 24.874 0 01-8.128 3.837 40.131 40.131 0 01-10.924 1.366h-47.723v-2.341q3.641 0 3.642-2.343V7.803q0-2.343-3.642-2.343V3.121zm2.6 26.791a26.867 26.867 0 009.689-1.5q3.833-1.491 3.836-6.307t-3.836-6.307a26.994 26.994 0 00-9.689-1.494h-24.84v15.607zm0 29.652q8.193 0 11.769-2.538a7.837 7.837 0 003.577-6.7 7.846 7.846 0 00-3.577-6.7q-3.578-2.534-11.769-2.534h-24.84v18.467zm87.215-57.225a52.218 52.218 0 0114.565 2.148 45.252 45.252 0 0113.526 6.436 34.891 34.891 0 0110.016 10.861 29.891 29.891 0 013.9 15.539 29.891 29.891 0 01-3.9 15.543 34.862 34.862 0 01-10.016 10.857 41.937 41.937 0 01-13.526 6.245 57.165 57.165 0 01-14.565 1.949 57.167 57.167 0 01-14.566-1.949 41.918 41.918 0 01-13.526-6.245 34.821 34.821 0 01-10.014-10.857 29.872 29.872 0 01-3.9-15.543 29.872 29.872 0 013.9-15.539 34.85 34.85 0 0110.014-10.861 45.23 45.23 0 0113.526-6.436 52.219 52.219 0 0114.566-2.148zm0 11.967a32.577 32.577 0 00-9.883 1.561 30.082 30.082 0 00-8.909 4.487 23.312 23.312 0 00-6.439 7.216 19.188 19.188 0 00-2.471 9.754 19.188 19.188 0 002.471 9.754 23.366 23.366 0 006.439 7.22 30.167 30.167 0 008.909 4.487 32.631 32.631 0 009.883 1.559 32.668 32.668 0 009.884-1.559 30.29 30.29 0 008.909-4.487 23.405 23.405 0 006.437-7.22 19.208 19.208 0 002.471-9.754 19.208 19.208 0 00-2.471-9.754 23.351 23.351 0 00-6.437-7.216 30.2 30.2 0 00-8.909-4.487 32.614 32.614 0 00-9.884-1.561zM672.368 3.121a53.373 53.373 0 0111.315 1.1 25.52 25.52 0 018.712 3.513 16.134 16.134 0 015.592 6.241 20.633 20.633 0 011.953 9.43q0 8.584-5.074 13.133t-13.654 6.113l17.3 24.71a3.5 3.5 0 002.146 1.563 11.129 11.129 0 002.274.26v2.341h-24.32v-2.341a4.794 4.794 0 002.018-.392q.844-.387.845-1.039a2.967 2.967 0 00-.522-1.5c-.347-.565-.868-1.321-1.561-2.278l-14.305-20.286h-18.6v23.147a1.99 1.99 0 00.846 1.756 5.692 5.692 0 003.056.587v2.341h-22.5v-2.341q3.771 0 3.771-2.343V7.794q0-2.343-3.771-2.343V3.112zm-3.381 30.432a35.515 35.515 0 007.8-.717 13.734 13.734 0 004.942-2.016 7.473 7.473 0 002.6-3.056 9.347 9.347 0 00.78-3.836 9.362 9.362 0 00-.78-3.837 7.532 7.532 0 00-2.6-3.056 13.869 13.869 0 00-4.942-2.016 35.888 35.888 0 00-7.8-.714h-22.5v19.248zm45.801 35.634a3.806 3.806 0 002.666-1.691 28.1 28.1 0 001.886-3.251l24.06-50.59q.911-1.689 1.626-3.123a5.732 5.732 0 00.715-2.471 1.925 1.925 0 00-.911-1.821 7.821 7.821 0 00-1.95-.781V3.12h21.979v2.339a10.714 10.714 0 00-1.819.717 1.9 1.9 0 00-.912 1.884 5.1 5.1 0 00.457 2.081q.454 1.042 1.363 2.733L791 65.804a4.431 4.431 0 001.756 2.083 27.6 27.6 0 002.536 1.3v2.341h-22.887v-2.341a3.076 3.076 0 001.3-.392 1.246 1.246 0 00.78-1.17 8.119 8.119 0 00-1.04-3.38l-4.942-9.626h-31.736l-4.682 9.235a10.889 10.889 0 00-1.3 3.9q0 1.43 2.47 1.431v2.341h-18.468zm49.032-24.19l-10.925-24.19-12.224 24.19zm70.628 21.849q0 2.341 2.861 2.343v2.341h-20.028v-2.341a2.5 2.5 0 001.625-.587 2.139 2.139 0 00.717-1.756V15.087h-21.46a4.418 4.418 0 00-2.276.65 2.62 2.62 0 00-1.1 2.469h-2.341V0h2.341a2.619 2.619 0 001.1 2.471 4.436 4.436 0 002.276.651h57.743a4.452 4.452 0 002.278-.651 2.625 2.625 0 001.1-2.471h2.341v18.206h-2.341a2.626 2.626 0 00-1.1-2.469 4.434 4.434 0 00-2.278-.65h-21.458zm41.292 2.341q3.383 0 3.382-2.343V7.802q0-2.343-3.382-2.343V3.12h21.589v2.339q-3.383 0-3.379 2.343v59.042q0 2.341 3.379 2.343v2.341H875.74zm79.293-66.848a52.235 52.235 0 0114.566 2.148 45.25 45.25 0 0113.525 6.436 34.853 34.853 0 0110.014 10.861 29.873 29.873 0 013.9 15.539 29.873 29.873 0 01-3.9 15.543 34.825 34.825 0 01-10.014 10.857 41.934 41.934 0 01-13.525 6.245 57.184 57.184 0 01-14.566 1.949 57.169 57.169 0 01-14.566-1.949 41.921 41.921 0 01-13.526-6.245 34.808 34.808 0 01-10.013-10.857 29.873 29.873 0 01-3.9-15.543 29.873 29.873 0 013.9-15.539 34.837 34.837 0 0110.013-10.861 45.234 45.234 0 0113.526-6.436 52.221 52.221 0 0114.566-2.148zm0 11.967a32.6 32.6 0 00-9.884 1.561 30.141 30.141 0 00-8.908 4.487 23.291 23.291 0 00-6.438 7.216 19.186 19.186 0 00-2.471 9.754 19.186 19.186 0 002.471 9.754 23.345 23.345 0 006.438 7.22 30.226 30.226 0 008.908 4.487 32.653 32.653 0 009.884 1.559 32.673 32.673 0 009.884-1.559 30.261 30.261 0 008.908-4.487 23.392 23.392 0 006.438-7.22 19.2 19.2 0 002.471-9.754 19.2 19.2 0 00-2.471-9.754 23.338 23.338 0 00-6.438-7.216 30.175 30.175 0 00-8.908-4.487 32.619 32.619 0 00-9.884-1.561zm58.755 54.881q2.469 0 2.473-2.343V7.802q0-2.343-2.473-2.343V3.12h22.239v2.339c-.7 0-1.039.435-1.039 1.3q0 1.042 2.6 3.641l37.325 38.754V7.799q0-2.343-3.379-2.343V3.117h19.636v2.339q-2.472 0-2.469 2.343v59.042q0 2.341 2.469 2.343v2.341h-21.069v-2.341q1.692 0 1.691-1.172 0-.906-2.081-2.989l-39.666-41.357v43.176q0 2.341 2.993 2.343v2.341h-19.25z" fill="#fed438" opacity=".1"/></svg>