<svg xmlns="http://www.w3.org/2000/svg" width="326" height="83"><path fill="none" d="M0 0h326v83H0z"/><path d="M78.729 31.92a1.431 1.431 0 00.869-.27.935.935 0 00.373-.81V3.48a.789.789 0 00-.373-.75 1.735 1.735 0 00-.869-.21V1.44h11.609v1.08a1.4 1.4 0 00-.652.181.575.575 0 00-.342.54 1.807 1.807 0 00.248.779c.166.321.352.66.559 1.021l8.878 15.6 8.938-15.42c.289-.519.508-.929.652-1.229a1.9 1.9 0 00.217-.811c0-.439-.269-.66-.807-.66v-1.08h11.485V2.52a1.734 1.734 0 00-.869.21.788.788 0 00-.371.75v27.36a.934.934 0 00.371.81 1.43 1.43 0 00.869.27V33h-9.746v-1.08q1.676 0 1.676-1.08V10.92h-.123L98.842 33h-.186l-12.23-22.14h-.123v19.98q0 1.08 1.738 1.08V33h-9.312zm57.422-29.4q-1.367 0-1.366 1.08v18q0 3.781 2.514 5.191t7.355 1.41q4.844 0 7.358-1.41t2.514-5.191v-18q0-1.08-1.862-1.08V1.44h9.932v1.08q-1.49 0-1.49 1.08v17.7a14.113 14.113 0 01-1.055 5.85 8.589 8.589 0 01-3.166 3.69 13.117 13.117 0 01-5.246 1.861 54.84 54.84 0 01-14.465 0 13.1 13.1 0 01-5.244-1.861 8.566 8.566 0 01-3.166-3.69 14.08 14.08 0 01-1.057-5.85V3.6q0-1.08-1.738-1.08V1.44h10.182zm35.197 20.58l.621.3a1.843 1.843 0 00.248.96 4.36 4.36 0 001.707 1.41 17.569 17.569 0 002.918 1.23 26.107 26.107 0 003.445.871 18.189 18.189 0 003.227.33q1.055 0 2.732-.151a16.6 16.6 0 003.289-.63 9.363 9.363 0 002.795-1.32 2.6 2.6 0 001.18-2.22 2.22 2.22 0 00-1.088-2.04 8.179 8.179 0 00-2.855-.96 31.773 31.773 0 00-4.036-.389q-2.263-.091-4.625-.271a43.506 43.506 0 01-4.623-.6 13.04 13.04 0 01-4.035-1.411 7.89 7.89 0 01-2.855-2.7 8.219 8.219 0 01-1.088-4.469 8.129 8.129 0 01.9-3.661 8.97 8.97 0 012.764-3.179 15.4 15.4 0 014.717-2.25 23.093 23.093 0 016.7-.87 29.8 29.8 0 015.711.479q2.419.481 4.189 1.021t2.981 1.019a5.71 5.71 0 002.017.481 1.759 1.759 0 001.242-.361l.745.481-4.284 7.5-.621-.241a3.251 3.251 0 00-.5-1.379 5.272 5.272 0 00-1.644-1.411 14.593 14.593 0 00-2.7-1.23 22.866 22.866 0 00-3.351-.87 20.041 20.041 0 00-3.6-.329 19.821 19.821 0 00-2.824.21 13.674 13.674 0 00-2.639.63 5.878 5.878 0 00-1.955 1.109 2.2 2.2 0 00-.775 1.71 2.415 2.415 0 001.086 2.16 8.051 8.051 0 002.855 1.08 27.733 27.733 0 004.036.481q2.263.12 4.625.3a39.189 39.189 0 014.625.63 13.683 13.683 0 014.035 1.441 7.416 7.416 0 013.941 7.05 7.536 7.536 0 01-1.707 5.1 12.027 12.027 0 01-4.252 3.12 19.657 19.657 0 01-5.494 1.531 42.23 42.23 0 01-5.494.389 37.814 37.814 0 01-5.928-.389 22.888 22.888 0 01-3.974-.96q-1.583-.57-2.514-1.021a3.825 3.825 0 00-1.613-.45 1.039 1.039 0 00-.807.48l-.869-.48zm66.547-15.18a1.1 1.1 0 00-.528-.99 3.677 3.677 0 00-1.832-.33h-20.113v7.441h12.168a4.521 4.521 0 001.924-.331q.683-.328.683-1.71h1.118v9.36h-1.118q0-1.378-.683-1.77a3.93 3.93 0 00-1.924-.389h-12.168v8.279h20.734a2.567 2.567 0 001.522-.42 1.327 1.327 0 00.59-1.14h1.117v8.22h-1.117c0-.6-.2-.94-.59-1.019a7.8 7.8 0 00-1.522-.121h-28.927v-1.08a1.212 1.212 0 00.775-.27.97.97 0 00.342-.81V3.6a.969.969 0 00-.342-.809 1.213 1.213 0 00-.775-.271V1.44h28.306a3.192 3.192 0 001.832-.39 1.241 1.241 0 00.528-1.05h1.113v7.92zM36.44 76.68a1.819 1.819 0 01-.342-.029 1.719 1.719 0 00-.34-.03 5.865 5.865 0 00-1.77.719q-1.4.722-3.539 1.62a31.857 31.857 0 01-4.873 1.56 24.181 24.181 0 01-5.711.66 28.985 28.985 0 01-7.511-.96 18.975 18.975 0 01-6.364-2.97 14.793 14.793 0 01-4.377-5.009 16.019 16.019 0 010-14.01 15 15 0 014.377-5.07 19.613 19.613 0 016.364-3.061 27.423 27.423 0 017.511-1.019 31.567 31.567 0 015.743.479q2.574.481 4.5 1.021a25.8 25.8 0 013.043 1.019 5.617 5.617 0 001.365.481.635.635 0 00.527-.3c.145-.2.258-.361.342-.481l.932.72-4.844 7.261-.619-.42a2.209 2.209 0 00-.032-.361 5.625 5.625 0 00-.093-.419c-.084-.44-.5-.89-1.242-1.35a13.039 13.039 0 00-2.762-1.231 29.261 29.261 0 00-3.477-.9 17.7 17.7 0 00-3.383-.359 17.28 17.28 0 00-5 .719 12.629 12.629 0 00-4.158 2.1 10.346 10.346 0 00-2.824 3.391 10.491 10.491 0 000 9.179 10.311 10.311 0 002.824 3.39 12.591 12.591 0 004.158 2.1 17.276 17.276 0 005 .719 20.447 20.447 0 004.159-.45 25.679 25.679 0 003.974-1.14 13.318 13.318 0 003.01-1.559q1.211-.87 1.211-1.65a1.1 1.1 0 00-.248-.72l.869-.481 4.1 6.361zm36.687-20.76a1.1 1.1 0 00-.527-.99 3.692 3.692 0 00-1.832-.33H50.654v7.441h12.168a4.5 4.5 0 001.924-.331q.683-.328.684-1.71h1.117v9.361H65.43q0-1.38-.684-1.771a3.927 3.927 0 00-1.924-.389H50.654v8.28h20.735a2.564 2.564 0 001.521-.421 1.326 1.326 0 00.59-1.14h1.117v8.22H73.5c0-.6-.2-.94-.59-1.019A7.791 7.791 0 0071.389 81H42.461v-1.08a1.22 1.22 0 00.776-.269.976.976 0 00.341-.811V51.6a.972.972 0 00-.341-.809 1.222 1.222 0 00-.776-.271v-1.079h28.307a3.193 3.193 0 001.832-.391 1.243 1.243 0 00.527-1.05h1.117v7.92zm28.494-6.479a26.285 26.285 0 015.4.51 12.412 12.412 0 014.158 1.62 7.543 7.543 0 012.67 2.88 9.251 9.251 0 01.931 4.349 7.587 7.587 0 01-2.421 6.061 13.23 13.23 0 01-6.518 2.819l8.256 11.4a1.673 1.673 0 001.025.719 5.394 5.394 0 001.086.12v1.08h-11.609v-1.08a2.357 2.357 0 00.963-.179c.267-.12.4-.28.4-.481a1.33 1.33 0 00-.248-.689q-.249-.39-.744-1.051l-6.828-9.359h-8.877v10.679a.91.91 0 00.4.811 2.809 2.809 0 001.459.269v1.08h-10.74v-1.08q1.8 0 1.8-1.08v-27.24q0-1.08-1.8-1.08V49.44zm-1.615 14.04a17.618 17.618 0 003.725-.33 6.7 6.7 0 002.359-.931 3.51 3.51 0 001.242-1.41 4.412 4.412 0 000-3.54 3.521 3.521 0 00-1.242-1.409 6.736 6.736 0 00-2.359-.931 17.683 17.683 0 00-3.725-.33H89.268v8.881zm51.902-7.561a1.1 1.1 0 00-.528-.99 3.691 3.691 0 00-1.832-.33h-20.113v7.441h12.168a4.508 4.508 0 001.924-.331q.683-.328.683-1.71h1.117v9.361h-1.119q0-1.38-.683-1.771a3.933 3.933 0 00-1.924-.389h-12.168v8.28h20.734a2.571 2.571 0 001.522-.421 1.329 1.329 0 00.59-1.14h1.117v8.22h-1.117c0-.6-.2-.94-.59-1.019a7.814 7.814 0 00-1.522-.121H121.24v-1.08a1.217 1.217 0 00.775-.269.977.977 0 00.342-.811V51.6a.972.972 0 00-.342-.809 1.219 1.219 0 00-.775-.271v-1.079h28.306a3.192 3.192 0 001.832-.391 1.242 1.242 0 00.528-1.05h1.117v7.92zm7.754 24a1.442 1.442 0 00.869-.269.937.937 0 00.372-.811V51.481a.787.787 0 00-.372-.75 1.731 1.731 0 00-.869-.211v-1.079h11.608v1.079a1.4 1.4 0 00-.651.181.576.576 0 00-.341.54 1.807 1.807 0 00.248.779c.164.321.351.66.558 1.021l8.877 15.6 8.94-15.42c.289-.519.5-.929.652-1.229a1.91 1.91 0 00.217-.811c0-.439-.27-.66-.807-.66v-1.079h11.484v1.078a1.726 1.726 0 00-.869.211.788.788 0 00-.373.75V78.84a.938.938 0 00.373.811 1.438 1.438 0 00.869.269V81h-9.746v-1.08q1.677 0 1.676-1.08V58.92h-.125L179.776 81h-.188L167.36 58.861h-.125V78.84q0 1.08 1.738 1.08V81h-9.311zm64.809-30.839a25.713 25.713 0 016.951.99 21.915 21.915 0 016.457 2.97 16.279 16.279 0 014.779 5.009 14.72 14.72 0 010 14.34 16.264 16.264 0 01-4.779 5.011 20.369 20.369 0 01-6.457 2.88 27.329 27.329 0 01-13.9 0 20.352 20.352 0 01-6.457-2.88 16.291 16.291 0 01-4.78-5.011 14.73 14.73 0 010-14.34 16.306 16.306 0 014.78-5.009 21.9 21.9 0 016.457-2.97 25.73 25.73 0 016.949-.99zm0 5.519a16.049 16.049 0 00-4.719.721 14.605 14.605 0 00-4.252 2.069 10.9 10.9 0 00-3.072 3.33 9.173 9.173 0 000 9 10.853 10.853 0 003.072 3.33 14.61 14.61 0 004.252 2.071 15.839 15.839 0 009.436 0 14.622 14.622 0 004.252-2.071 10.882 10.882 0 003.074-3.33 9.169 9.169 0 000-9 10.928 10.928 0 00-3.074-3.33 14.617 14.617 0 00-4.252-2.069 16.054 16.054 0 00-4.717-.721zm24.211 25.32q1.178 0 1.178-1.08V51.6q0-1.08-1.178-1.08v-1.079h10.615v1.079c-.332 0-.5.2-.5.6q0 .48 1.242 1.679l17.817 17.88v-19.08q0-1.08-1.614-1.08V49.44h9.373v1.08c-.787 0-1.179.36-1.179 1.08v27.24c0 .72.392 1.08 1.179 1.08V81h-10.056v-1.08c.537 0 .806-.179.806-.54 0-.279-.332-.739-.992-1.38L256.44 58.92v19.92c0 .72.474 1.08 1.427 1.08V81h-9.187zm53.137-30.479v1.079a3.661 3.661 0 00-1.055.15.692.692 0 00-.5.75 4.96 4.96 0 00.9 1.71q.9 1.352 2.11 3.061t2.515 3.51q1.3 1.8 2.11 3.059l7.263-9.66c.33-.479.6-.859.807-1.14a1.34 1.34 0 00.31-.78q0-.419-.589-.54a5.574 5.574 0 00-1.086-.12v-1.079h10.863v1.079a4.52 4.52 0 00-.932.091 2.42 2.42 0 00-.9.42 5.489 5.489 0 00-.992.96q-.528.63-1.274 1.71l-10.552 14.46V78.84c0 .72.474 1.08 1.427 1.08V81h-9.808v-1.08a1.54 1.54 0 00.931-.269.938.938 0 00.373-.811V68.161l-11.982-16.2a3.349 3.349 0 00-1.334-1.019 3.757 3.757 0 00-1.522-.421v-1.079z" fill="#fff"/></svg>