<svg xmlns="http://www.w3.org/2000/svg" width="219" height="61"><path d="M27.241 21.348a1.232 1.232 0 01-.255-.023 1.31 1.31 0 00-.255-.023 4.306 4.306 0 00-1.323.556q-1.042.557-2.645 1.253a23.321 23.321 0 01-3.643 1.207 17.525 17.525 0 01-4.269.511 21.007 21.007 0 01-5.616-.743 13.988 13.988 0 01-4.756-2.3 11.311 11.311 0 01-3.272-3.875 11.609 11.609 0 01-1.206-5.43 11.649 11.649 0 011.206-5.407 11.488 11.488 0 013.272-3.921A14.45 14.45 0 019.235.787a19.865 19.865 0 015.616-.79 22.838 22.838 0 014.292.371q1.925.372 3.364.789a18.75 18.75 0 012.274.79 4.1 4.1 0 001.021.371.471.471 0 00.394-.231c.108-.154.193-.278.256-.372l.7.557-3.62 5.616-.464-.325a1.705 1.705 0 00-.023-.278 5.19 5.19 0 00-.069-.325q-.094-.51-.929-1.044a9.582 9.582 0 00-2.065-.951 21.169 21.169 0 00-2.6-.7 12.725 12.725 0 00-2.529-.279 12.483 12.483 0 00-3.737.557 9.308 9.308 0 00-3.109 1.624 7.944 7.944 0 00-2.112 2.622 7.734 7.734 0 00-.789 3.55 7.727 7.727 0 00.789 3.55 7.923 7.923 0 002.112 2.622 9.286 9.286 0 003.109 1.625 12.484 12.484 0 003.737.556 14.788 14.788 0 003.109-.348 18.65 18.65 0 002.97-.882 9.835 9.835 0 002.25-1.206q.905-.673.9-1.277a.867.867 0 00-.186-.557l.65-.372 3.064 4.919zM46.918 0a18.641 18.641 0 015.2.766 16.149 16.149 0 014.827 2.3 12.446 12.446 0 013.573 3.875 10.661 10.661 0 011.392 5.546 10.658 10.658 0 01-1.392 5.546 12.428 12.428 0 01-3.573 3.875 14.973 14.973 0 01-4.827 2.228 20.41 20.41 0 01-5.2.7 20.408 20.408 0 01-5.2-.7 14.962 14.962 0 01-4.826-2.228 12.423 12.423 0 01-3.573-3.875 10.658 10.658 0 01-1.392-5.546 10.661 10.661 0 011.392-5.546 12.44 12.44 0 013.573-3.875 16.137 16.137 0 014.826-2.3 18.639 18.639 0 015.2-.766zm0 4.27a11.652 11.652 0 00-3.527.556 10.775 10.775 0 00-3.179 1.6 8.32 8.32 0 00-2.3 2.576 6.848 6.848 0 00-.882 3.481 6.848 6.848 0 00.882 3.481 8.321 8.321 0 002.3 2.576 10.784 10.784 0 003.179 1.6 11.65 11.65 0 003.527.556 11.66 11.66 0 003.527-.556 10.811 10.811 0 003.179-1.6 8.337 8.337 0 002.3-2.576 6.859 6.859 0 00.882-3.481 6.859 6.859 0 00-.882-3.481 8.335 8.335 0 00-2.3-2.576 10.8 10.8 0 00-3.179-1.6 11.662 11.662 0 00-3.527-.556zm43.964 21.301q0-.7-.44-.788a5.618 5.618 0 00-1.138-.094h-22.09v-.835q1.391 0 1.392-.836V1.95q0-.837-1.392-.836V.279h7.982v.835q-1.3 0-1.3.836v18.47h15.408a1.873 1.873 0 001.138-.325 1.038 1.038 0 00.44-.881h.835v6.357zm28.74 0q0-.7-.443-.788a5.583 5.583 0 00-1.136-.094H95.95v-.835q1.394 0 1.393-.836V1.95q0-.837-1.393-.836V.279h7.982v.835q-1.3 0-1.3.836v18.47h15.408a1.863 1.863 0 001.136-.325 1.035 1.035 0 00.443-.881h.834v6.357zm4.177-1.717a1.353 1.353 0 00.951-.6 9.975 9.975 0 00.674-1.16l8.586-18.053c.215-.4.409-.773.579-1.114a2.038 2.038 0 00.256-.882.688.688 0 00-.325-.65 2.8 2.8 0 00-.7-.278V.282h7.842v.835a3.857 3.857 0 00-.649.256.676.676 0 00-.325.672 1.831 1.831 0 00.162.743q.162.372.487.975l9.653 18.887a1.574 1.574 0 00.627.742 9.548 9.548 0 00.9.465v.835h-8.166v-.835a1.1 1.1 0 00.464-.14.445.445 0 00.279-.418 2.885 2.885 0 00-.372-1.206l-1.763-3.434h-11.323l-1.671 3.295a3.9 3.9 0 00-.463 1.393q0 .51.881.51v.835h-6.59zm17.5-8.632l-3.9-8.632-4.362 8.632zM171.882.279a24.011 24.011 0 014.13.348 12.807 12.807 0 013.526 1.114 6.872 6.872 0 012.459 2 4.9 4.9 0 01.929 3.039 4.246 4.246 0 01-1.345 3.365 9.6 9.6 0 01-3.2 1.833v.093a9.1 9.1 0 013.689 2.066 5.3 5.3 0 011.508 4.061 5.6 5.6 0 01-.6 2.575 5.952 5.952 0 01-1.787 2.066 8.909 8.909 0 01-2.9 1.369 14.32 14.32 0 01-3.9.487H157.36v-.835q1.3 0 1.3-.836V1.956q0-.837-1.3-.836V.285zm.928 9.559a9.6 9.6 0 003.457-.534 2.162 2.162 0 001.37-2.251 2.163 2.163 0 00-1.37-2.251 9.629 9.629 0 00-3.457-.533h-8.863v5.568zm0 10.581a7.455 7.455 0 004.2-.9 2.8 2.8 0 001.275-2.39 2.8 2.8 0 00-1.275-2.39 7.464 7.464 0 00-4.2-.9h-8.863v6.59zM204.011 0a18.635 18.635 0 015.2.766 16.13 16.13 0 014.826 2.3 12.451 12.451 0 013.574 3.875 10.663 10.663 0 011.391 5.546 10.66 10.66 0 01-1.391 5.546 12.433 12.433 0 01-3.574 3.875 14.956 14.956 0 01-4.826 2.228 20.4 20.4 0 01-5.2.7 20.414 20.414 0 01-5.2-.7 14.967 14.967 0 01-4.826-2.228 12.408 12.408 0 01-3.573-3.875 10.649 10.649 0 01-1.393-5.546 10.652 10.652 0 011.393-5.546 12.426 12.426 0 013.573-3.875 16.143 16.143 0 014.826-2.3 18.645 18.645 0 015.2-.766zm0 4.27a11.653 11.653 0 00-3.528.556 10.789 10.789 0 00-3.179 1.6 8.331 8.331 0 00-2.3 2.576 6.848 6.848 0 00-.882 3.481 6.848 6.848 0 00.882 3.481 8.332 8.332 0 002.3 2.576 10.8 10.8 0 003.179 1.6 11.651 11.651 0 003.528.556 11.656 11.656 0 003.526-.556 10.786 10.786 0 003.179-1.6 8.338 8.338 0 002.3-2.576 6.855 6.855 0 00.881-3.481 6.855 6.855 0 00-.881-3.481 8.337 8.337 0 00-2.3-2.576 10.778 10.778 0 00-3.179-1.6 11.658 11.658 0 00-3.526-.556zM42.496 36.451a19.047 19.047 0 014.037.394 9.133 9.133 0 013.109 1.253 5.774 5.774 0 012 2.228 7.379 7.379 0 01.7 3.365 5.971 5.971 0 01-1.811 4.687 9.717 9.717 0 01-4.872 2.181l6.171 8.818a1.255 1.255 0 00.766.557 3.958 3.958 0 00.813.093v.835H44.73v-.835a1.706 1.706 0 00.719-.14c.2-.092.3-.216.3-.371a1.061 1.061 0 00-.185-.534q-.187-.3-.557-.812l-5.1-7.24H33.27v8.261a.709.709 0 00.3.626 2.037 2.037 0 001.091.21v.835h-8.03v-.835q1.347 0 1.347-.836V38.122q0-.836-1.347-.836v-.835zM41.288 47.31a12.7 12.7 0 002.785-.255 4.908 4.908 0 001.764-.719 2.68 2.68 0 00.927-1.091 3.327 3.327 0 00.279-1.369 3.333 3.333 0 00-.279-1.369 2.7 2.7 0 00-.927-1.091 4.943 4.943 0 00-1.764-.719 12.772 12.772 0 00-2.785-.255h-8.029v6.868zm16.478 12.716a1.355 1.355 0 00.951-.6 9.961 9.961 0 00.673-1.16l8.585-18.053q.325-.6.58-1.114a2.046 2.046 0 00.255-.882.687.687 0 00-.324-.65 2.8 2.8 0 00-.7-.279v-.835h7.843v.835a3.825 3.825 0 00-.65.256.677.677 0 00-.325.672 1.828 1.828 0 00.162.742q.162.372.488.975l9.652 18.887a1.584 1.584 0 00.627.742 9.622 9.622 0 00.9.465v.835h-8.167v-.835a1.1 1.1 0 00.464-.14.446.446 0 00.279-.418 2.9 2.9 0 00-.372-1.206l-1.763-3.434H65.601l-1.671 3.295a3.911 3.911 0 00-.464 1.393q0 .51.882.511v.835h-6.589zm17.495-8.632l-3.9-8.632-4.363 8.632zm25.264 7.797q0 .836 1.021.836v.835h-7.147v-.835a.894.894 0 00.58-.209.764.764 0 00.255-.627v-18.47h-7.657a1.578 1.578 0 00-.812.233.933.933 0 00-.395.881h-.835v-6.5h.835a.933.933 0 00.395.882 1.578 1.578 0 00.812.233h20.605a1.58 1.58 0 00.812-.233.935.935 0 00.395-.882h.835v6.5h-.835a.936.936 0 00-.395-.881 1.58 1.58 0 00-.812-.233h-7.657zm14.78.835q1.206 0 1.2-.836V38.121q0-.836-1.2-.836v-.835h7.7v.835q-1.207 0-1.208.836V59.19q0 .835 1.208.836v.835h-7.7zm28.352-23.854a18.634 18.634 0 015.2.766 16.136 16.136 0 014.826 2.3 12.44 12.44 0 013.575 3.875 10.673 10.673 0 011.392 5.546 10.67 10.67 0 01-1.392 5.546 12.425 12.425 0 01-3.575 3.875 14.948 14.948 0 01-4.826 2.228 20.394 20.394 0 01-5.2.7 20.4 20.4 0 01-5.2-.7 14.965 14.965 0 01-4.827-2.228 12.435 12.435 0 01-3.573-3.875 10.649 10.649 0 01-1.392-5.546 10.652 10.652 0 011.392-5.546 12.449 12.449 0 013.573-3.875 16.156 16.156 0 014.827-2.3 18.637 18.637 0 015.2-.766zm0 4.27a11.643 11.643 0 00-3.526.556 10.774 10.774 0 00-3.179 1.6 8.322 8.322 0 00-2.3 2.576 6.846 6.846 0 00-.883 3.481 6.846 6.846 0 00.883 3.481 8.322 8.322 0 002.3 2.576 10.785 10.785 0 003.179 1.6 11.645 11.645 0 003.526.556 11.668 11.668 0 003.528-.556 10.815 10.815 0 003.179-1.6 8.332 8.332 0 002.3-2.576 6.841 6.841 0 00.882-3.481 6.841 6.841 0 00-.882-3.481 8.332 8.332 0 00-2.3-2.576 10.8 10.8 0 00-3.179-1.6 11.666 11.666 0 00-3.528-.556zm21.107 19.584q.881 0 .882-.836V38.121q0-.836-.882-.836v-.835h7.936v.835c-.249 0-.372.155-.372.465q0 .372.929 1.3l13.319 13.829V38.122q0-.836-1.207-.836v-.835h7.008v.835q-.881 0-.881.836v21.069q0 .835.881.836v.835h-7.518v-.835c.4 0 .6-.14.6-.418q0-.323-.743-1.067l-14.154-14.757v15.407c0 .557.355.836 1.068.836v.835h-6.87z" fill="#292929"/></svg>