<svg xmlns="http://www.w3.org/2000/svg" width="438" height="87"><path d="M0 30.94a1.412 1.412 0 00.852-.266.92.92 0 00.365-.8V3a.774.774 0 00-.365-.737A1.705 1.705 0 000 2.057V.996h11.385v1.061a1.367 1.367 0 00-.639.177.568.568 0 00-.335.53 1.776 1.776 0 00.245.766q.242.472.548 1l8.705 15.323 8.767-15.146q.427-.765.64-1.208a1.873 1.873 0 00.212-.8c0-.431-.264-.648-.791-.648V.99H40v1.061a1.708 1.708 0 00-.853.206.773.773 0 00-.365.737v26.888a.92.92 0 00.365.8 1.414 1.414 0 00.853.266v1.06h-9.558v-1.06q1.643 0 1.643-1.062V10.32h-.121L19.725 32.007h-.183L7.547 10.26h-.121v19.622q0 1.061 1.7 1.062v1.06H-.007zM58.005 2.089q-1.341 0-1.342 1.089v18.147q0 3.811 2.471 5.233t7.232 1.422q4.758 0 7.23-1.422t2.471-5.233V3.182q0-1.089-1.831-1.089V1.004h9.763v1.089q-1.464 0-1.464 1.089v17.845a14.551 14.551 0 01-1.038 5.9 8.591 8.591 0 01-3.111 3.72 12.683 12.683 0 01-5.156 1.875 46.327 46.327 0 01-7.108.484 46.326 46.326 0 01-7.11-.484 12.673 12.673 0 01-5.156-1.875 8.582 8.582 0 01-3.112-3.72 14.55 14.55 0 01-1.037-5.9V3.182q0-1.089-1.708-1.089V1.004h10.007zm35.647 20.917l.6.3a1.864 1.864 0 00.243.956 4.268 4.268 0 001.662 1.4 16.99 16.99 0 002.841 1.225 24.887 24.887 0 003.355.866 17.217 17.217 0 003.144.329q1.027 0 2.66-.149a15.918 15.918 0 003.2-.627 9.064 9.064 0 002.721-1.315 2.608 2.608 0 001.149-2.211 2.226 2.226 0 00-1.058-2.032 7.818 7.818 0 00-2.781-.956 30.479 30.479 0 00-3.93-.388q-2.207-.09-4.5-.269a41.419 41.419 0 01-4.5-.6 12.539 12.539 0 01-3.929-1.4 7.768 7.768 0 01-2.781-2.689 8.334 8.334 0 01-1.058-4.452 8.213 8.213 0 01.877-3.645 8.879 8.879 0 012.69-3.167 14.9 14.9 0 014.595-2.241 22.041 22.041 0 016.529-.866 28.4 28.4 0 015.562.478 41.821 41.821 0 014.081 1.016q1.723.538 2.9 1.016a5.428 5.428 0 001.964.478 1.681 1.681 0 001.209-.359l.725.478-4.172 7.469-.6-.239a3.281 3.281 0 00-.484-1.374 5.149 5.149 0 00-1.6-1.4 13.983 13.983 0 00-2.63-1.226 21.654 21.654 0 00-3.264-.866 19.053 19.053 0 00-3.506-.329 18.9 18.9 0 00-2.75.209 13.137 13.137 0 00-2.57.627 5.687 5.687 0 00-1.9 1.105 2.208 2.208 0 00-.756 1.7 2.425 2.425 0 001.058 2.151 7.758 7.758 0 002.781 1.076 26.4 26.4 0 003.929.478q2.206.12 4.5.3a36.989 36.989 0 014.5.627 13.115 13.115 0 013.929 1.434 7.862 7.862 0 012.781 2.659 8.061 8.061 0 011.058 4.362 7.61 7.61 0 01-1.662 5.079 11.7 11.7 0 01-4.141 3.107 18.824 18.824 0 01-5.35 1.524 40.116 40.116 0 01-5.35.388 35.955 35.955 0 01-5.773-.388 21.693 21.693 0 01-3.869-.956 26.022 26.022 0 01-2.448-1.016 3.668 3.668 0 00-1.572-.448 1.007 1.007 0 00-.786.478l-.846-.478zm66.571-15.118a1.093 1.093 0 00-.514-.987 3.51 3.51 0 00-1.782-.329h-19.588v7.41h11.85a4.32 4.32 0 001.874-.329q.665-.327.664-1.7h1.088v9.322h-1.088q0-1.374-.664-1.763a3.75 3.75 0 00-1.874-.388h-11.85v8.246h20.192a2.456 2.456 0 001.482-.418 1.332 1.332 0 00.573-1.134h1.089v8.185h-1.089q0-.9-.573-1.016a7.47 7.47 0 00-1.482-.119h-28.172v-1.075a1.171 1.171 0 00.756-.27.975.975 0 00.333-.807V3.588a.975.975 0 00-.333-.807 1.17 1.17 0 00-.756-.269V1.436h27.568a3.041 3.041 0 001.782-.388 1.241 1.241 0 00.514-1.046h1.089V7.89zM191.24 22.95l.59.3a1.9 1.9 0 00.236.957 4.2 4.2 0 001.621 1.406 16.326 16.326 0 002.77 1.226 23.662 23.662 0 003.271.867 16.343 16.343 0 003.064.329q1 0 2.593-.15a15.16 15.16 0 003.123-.627 8.744 8.744 0 002.653-1.317 2.634 2.634 0 001.12-2.213 2.243 2.243 0 00-1.032-2.034 7.485 7.485 0 00-2.711-.957 28.951 28.951 0 00-3.83-.389q-2.152-.09-4.391-.269a39.338 39.338 0 01-4.391-.6 12.026 12.026 0 01-3.832-1.406 7.676 7.676 0 01-2.711-2.692 8.524 8.524 0 01-1.03-4.456 8.413 8.413 0 01.854-3.649 8.826 8.826 0 012.624-3.17 14.366 14.366 0 014.478-2.243 20.972 20.972 0 016.366-.867 26.982 26.982 0 015.421.479 39.938 39.938 0 013.979 1.017q1.68.538 2.829 1.017a5.183 5.183 0 001.915.479 1.614 1.614 0 001.18-.359l.707.479-4.067 7.477-.59-.239a3.341 3.341 0 00-.47-1.376 5.062 5.062 0 00-1.563-1.4 13.464 13.464 0 00-2.564-1.227 20.634 20.634 0 00-3.183-.867 18.094 18.094 0 00-3.417-.329 17.968 17.968 0 00-2.682.209 12.536 12.536 0 00-2.506.628 5.526 5.526 0 00-1.856 1.107 2.236 2.236 0 00-.737 1.7 2.449 2.449 0 001.032 2.153 7.441 7.441 0 002.711 1.077 25.088 25.088 0 003.83.479q2.152.12 4.391.3a35.145 35.145 0 014.391.627 12.577 12.577 0 013.832 1.436 7.771 7.771 0 012.711 2.662A8.245 8.245 0 01219 22.891a7.746 7.746 0 01-1.621 5.084 11.438 11.438 0 01-4.037 3.11 17.986 17.986 0 01-5.216 1.525 38.1 38.1 0 01-5.215.389 34.162 34.162 0 01-5.629-.389 20.667 20.667 0 01-3.771-.957 24.8 24.8 0 01-2.387-1.017 3.507 3.507 0 00-1.532-.449.979.979 0 00-.767.479l-.824-.479zM226.998 33v-1.094q2.253 0 2.254-1.1V3.186q0-1.1-2.254-1.1v-1.1h21.448q5.849 0 9.2 2.16t3.351 7.331q0 5.172-3.351 7.331t-9.2 2.16h-12.249v10.829q0 1.1 1.95 1.1v1.094zm22.179-18.616a7.016 7.016 0 003.443-.791 3.223 3.223 0 001.433-3.1 3.225 3.225 0 00-1.433-3.1 7.025 7.025 0 00-3.443-.791h-12.979v7.787zm47.385-6.496a1.1 1.1 0 00-.508-.987 3.449 3.449 0 00-1.766-.329h-19.39v7.41h11.73a4.236 4.236 0 001.855-.329q.658-.327.658-1.7h1.077v9.322h-1.077q0-1.374-.658-1.763a3.679 3.679 0 00-1.855-.388h-11.73v8.246h19.988a2.41 2.41 0 001.466-.418 1.335 1.335 0 00.568-1.134h1.078v8.185h-1.078q0-.9-.568-1.016a7.311 7.311 0 00-1.466-.119h-27.888v-1.075a1.149 1.149 0 00.748-.27.98.98 0 00.33-.807V3.588a.98.98 0 00-.33-.807 1.148 1.148 0 00-.748-.269V1.436h27.289a2.99 2.99 0 001.766-.388 1.247 1.247 0 00.508-1.046h1.078V7.89zm42.953 20.625a1.6 1.6 0 01-.333-.03 1.748 1.748 0 00-.333-.03 5.663 5.663 0 00-1.724.718q-1.362.718-3.449 1.615a30.745 30.745 0 01-4.75 1.555 23.108 23.108 0 01-5.568.658 27.7 27.7 0 01-7.321-.957 18.334 18.334 0 01-6.2-2.961 14.615 14.615 0 01-4.267-4.994 14.814 14.814 0 01-1.572-7 14.864 14.864 0 011.572-6.968 14.841 14.841 0 014.267-5.054 18.924 18.924 0 016.2-3.051 26.221 26.221 0 017.321-1.017 30.122 30.122 0 015.6.479q2.509.479 4.387 1.017a24.562 24.562 0 012.965 1.017 5.335 5.335 0 001.331.479.617.617 0 00.513-.3c.141-.2.251-.358.333-.478l.908.718-4.72 7.237-.6-.419a2.282 2.282 0 00-.03-.359 6.94 6.94 0 00-.092-.419q-.122-.657-1.209-1.346a12.549 12.549 0 00-2.693-1.226 27.952 27.952 0 00-3.388-.9 16.822 16.822 0 00-3.3-.359 16.443 16.443 0 00-4.87.718 12.16 12.16 0 00-4.053 2.094 10.276 10.276 0 00-2.754 3.379 9.874 9.874 0 00-1.028 4.576 9.868 9.868 0 001.028 4.576 10.259 10.259 0 002.754 3.379 12.145 12.145 0 004.053 2.093 16.442 16.442 0 004.87.718 19.586 19.586 0 004.055-.449 24.556 24.556 0 003.871-1.136 12.876 12.876 0 002.935-1.555q1.18-.866 1.18-1.645a1.111 1.111 0 00-.243-.718l.847-.479 3.993 6.34zM347 30.94q1.567 0 1.566-1.062V3.122q0-1.061-1.566-1.061V1h10v1.061q-1.567 0-1.566 1.061v26.76q0 1.061 1.566 1.062v1.06h-10zm15.998 0a1.756 1.756 0 001.226-.767 12.761 12.761 0 00.867-1.473l11.058-22.926q.417-.765.747-1.414a2.565 2.565 0 00.329-1.12.869.869 0 00-.419-.825 3.579 3.579 0 00-.9-.354V1h10.1v1.061a4.884 4.884 0 00-.837.324.858.858 0 00-.418.855 2.3 2.3 0 00.209.943q.209.472.627 1.238l12.434 23.987a2.017 2.017 0 00.806.943 12.7 12.7 0 001.166.59v1.06h-10.519v-1.06a1.424 1.424 0 00.6-.178.565.565 0 00.358-.53 3.635 3.635 0 00-.477-1.532l-2.271-4.361h-14.586l-2.151 4.184a4.876 4.876 0 00-.6 1.768q0 .649 1.136.649v1.06h-8.489zm22.535-10.963l-5.021-10.962-5.619 10.962zM436.91 34q0-.908-.576-1.029a7.4 7.4 0 00-1.485-.121h-28.848v-1.089q1.818 0 1.818-1.091V3.182q0-1.09-1.818-1.09v-1.09h10.423v1.09q-1.7 0-1.7 1.09v24.1h20.124a2.441 2.441 0 001.485-.424 1.353 1.353 0 00.576-1.15H438v8.295zM84.429 83.84q0 1.08 1.323 1.081V86h-9.263v-1.079a1.161 1.161 0 00.752-.271.989.989 0 00.331-.81V59.962h-9.925a2.053 2.053 0 00-1.053.3 1.209 1.209 0 00-.511 1.14H65v-8.4h1.083a1.206 1.206 0 00.511 1.14 2.044 2.044 0 001.053.3h26.707a2.05 2.05 0 001.052-.3 1.208 1.208 0 00.511-1.14H97v8.4h-1.083a1.211 1.211 0 00-.511-1.14 2.059 2.059 0 00-1.052-.3h-9.925zm11.575.1a1.807 1.807 0 001.258-.767 12.558 12.558 0 00.891-1.473l11.357-22.926q.429-.765.768-1.414a2.518 2.518 0 00.338-1.12.862.862 0 00-.43-.825 3.752 3.752 0 00-.921-.354V54h10.375v1.061a5.153 5.153 0 00-.859.324.852.852 0 00-.43.855 2.249 2.249 0 00.215.943q.215.472.645 1.238l12.769 23.987a2.035 2.035 0 00.828.943 12.954 12.954 0 001.2.59v1.06h-10.8v-1.06a1.5 1.5 0 00.614-.178.566.566 0 00.368-.53 3.572 3.572 0 00-.491-1.532l-2.333-4.361h-14.979l-2.21 4.184a4.8 4.8 0 00-.614 1.768q0 .649 1.166.649v1.06h-8.717zm23.144-10.963l-5.157-10.962-5.77 10.962zM169.903 87q0-.908-.576-1.029a7.4 7.4 0 00-1.485-.121h-28.839v-1.089q1.817 0 1.817-1.091V56.182q0-1.09-1.817-1.09v-1.09h10.423v1.09q-1.7 0-1.7 1.09v24.1h20.121a2.439 2.439 0 001.485-.424 1.353 1.353 0 00.576-1.15H171v8.295zm15.345-4.118a.92.92 0 00.364.8 1.406 1.406 0 00.85.266v1.06h-9.463v-1.06c.888 0 1.335-.354 1.335-1.062V56.122c0-.707-.446-1.061-1.335-1.061V54h9.463v1.061a1.4 1.4 0 00-.85.265.92.92 0 00-.364.8v11.2l12.558-9.606q.849-.707 1.335-1.149t.484-.737a.649.649 0 00-.272-.589 1.147 1.147 0 00-.638-.177v-1.061h12.74v1.061a3.473 3.473 0 00-2.184.885l-13.952 10.784 12.739 14.321a15.223 15.223 0 001.849 1.739 6.029 6.029 0 002.093 1.15v1.06h-11.222v-1.06q.789 0 .788-.413 0-.294-.848-1.3l-10.374-11.61-5.1 3.831zM265.908 87q0-.908-.576-1.029a7.4 7.4 0 00-1.485-.121h-28.848v-1.089q1.817 0 1.818-1.091V56.182q0-1.09-1.818-1.09v-1.09h10.423v1.09q-1.7 0-1.7 1.09v24.1h20.121a2.439 2.439 0 001.485-.424 1.354 1.354 0 00.576-1.15h1.092v8.295zm6.096-3.06q1.567 0 1.567-1.062V56.122q0-1.061-1.567-1.061V54h10v1.061q-1.567 0-1.566 1.061v26.76q0 1.061 1.566 1.062v1.06h-10zM327 55.061a1.955 1.955 0 00-1.774.855 11.894 11.894 0 00-.8 1.385l-10.831 22.926q-.551 1.18-.917 1.886a2.671 2.671 0 00-.367 1 .693.693 0 00.153.471 2.335 2.335 0 00.4.354v1.06h-9.362v-1.06a.835.835 0 00.551-.826 3.7 3.7 0 00-.459-1.208q-.458-.913-1.132-2.269l-11.014-23.044a2 2 0 00-.857-.943 8.447 8.447 0 00-1.591-.589v-1.061h10.954v1.061a1.775 1.775 0 00-.826.206.811.811 0 00-.4.8 3.808 3.808 0 00.52 1.65q.519 1 1.254 2.475l7.833 16.207 7.649-15.972q.732-1.532 1.376-2.74a4.533 4.533 0 00.643-1.68q0-.942-1.714-.943v-1.061h10.708zm35.565 5.827a1.1 1.1 0 00-.509-.987 3.449 3.449 0 00-1.765-.329h-19.39v7.41h11.729a4.236 4.236 0 001.855-.329q.658-.327.658-1.7h1.077v9.322h-1.077q0-1.374-.658-1.763a3.679 3.679 0 00-1.855-.388h-11.729v8.246h19.988a2.411 2.411 0 001.466-.418 1.334 1.334 0 00.568-1.134h1.078v8.185h-1.078q0-.9-.568-1.016a7.312 7.312 0 00-1.466-.119h-27.888v-1.075a1.148 1.148 0 00.748-.27.98.98 0 00.33-.807V56.588a.98.98 0 00-.33-.807 1.147 1.147 0 00-.748-.269v-1.076h27.29a2.989 2.989 0 001.765-.388 1.248 1.248 0 00.509-1.046h1.077v7.888z" fill="#292929"/></svg>