<svg xmlns="http://www.w3.org/2000/svg" width="499" height="34"><path d="M34.902 28.564a1.569 1.569 0 01-.326-.03 1.708 1.708 0 00-.327-.029 5.475 5.475 0 00-1.695.716q-1.337.719-3.389 1.615a29.809 29.809 0 01-4.667 1.553 22.313 22.313 0 01-5.47.657 26.782 26.782 0 01-7.194-.956 17.889 17.889 0 01-6.094-2.958 14.544 14.544 0 01-4.192-4.992 15.007 15.007 0 01-1.547-6.993 15.056 15.056 0 011.547-6.963A14.765 14.765 0 015.74 5.133a18.484 18.484 0 016.094-3.049 25.335 25.335 0 017.194-1.017 29.093 29.093 0 015.5.478q2.468.479 4.311 1.016a23.965 23.965 0 012.914 1.017 5.224 5.224 0 001.308.477.605.605 0 00.506-.3c.138-.2.247-.359.327-.478l.892.716-4.638 7.233-.6-.419a2.181 2.181 0 00-.029-.358 6.402 6.402 0 00-.089-.419q-.12-.656-1.19-1.344a12.134 12.134 0 00-2.645-1.226 27.02 27.02 0 00-3.329-.9 16.2 16.2 0 00-3.241-.36 15.9 15.9 0 00-4.786.718 11.907 11.907 0 00-3.984 2.091 10.251 10.251 0 00-2.705 3.377 10.011 10.011 0 00-1.011 4.573 10 10 0 001.011 4.573 10.218 10.218 0 002.705 3.377 11.873 11.873 0 003.984 2.093 15.905 15.905 0 004.786.716 18.908 18.908 0 003.984-.448 23.912 23.912 0 003.805-1.135 12.645 12.645 0 002.884-1.554q1.158-.867 1.159-1.645a1.117 1.117 0 00-.238-.716l.833-.479 3.924 6.336zM60.11 1.069a23.759 23.759 0 016.659.987 20.64 20.64 0 016.184 2.958 16.013 16.013 0 014.578 4.992 13.787 13.787 0 011.783 7.142 13.788 13.788 0 01-1.783 7.144 16 16 0 01-4.578 4.99 19.125 19.125 0 01-6.184 2.87 26.013 26.013 0 01-6.659.9 26 26 0 01-6.659-.9 19.1 19.1 0 01-6.183-2.87 15.969 15.969 0 01-4.579-4.99 13.788 13.788 0 01-1.784-7.144 13.787 13.787 0 011.784-7.142 15.981 15.981 0 014.579-4.992 20.608 20.608 0 016.183-2.958 23.744 23.744 0 016.659-.987zm0 5.5a14.834 14.834 0 00-4.519.717 13.743 13.743 0 00-4.073 2.062 10.677 10.677 0 00-2.943 3.317 8.849 8.849 0 00-1.13 4.483 8.849 8.849 0 001.13 4.483 10.7 10.7 0 002.943 3.318 13.773 13.773 0 004.073 2.063 14.859 14.859 0 004.519.716 14.86 14.86 0 004.518-.716 13.809 13.809 0 004.074-2.062 10.731 10.731 0 002.943-3.318 8.859 8.859 0 001.13-4.483 8.859 8.859 0 00-1.13-4.483 10.71 10.71 0 00-2.943-3.317 13.779 13.779 0 00-4.074-2.062 14.835 14.835 0 00-4.518-.718zM116.271 34c0-.6-.189-.937-.565-1.016a7.166 7.166 0 00-1.457-.119h-28.3v-1.076q1.783 0 1.784-1.077V3.578q0-1.076-1.784-1.077V1.426h10.226v1.075q-1.665 0-1.665 1.077v23.787h19.74a2.386 2.386 0 001.457-.419 1.339 1.339 0 00.565-1.135h1.07v8.188zm36.75 0c0-.6-.19-.937-.565-1.016a7.174 7.174 0 00-1.458-.119h-28.3v-1.076q1.782 0 1.783-1.077V3.578q0-1.076-1.783-1.077V1.426h10.227v1.075q-1.666 0-1.665 1.077v23.787h19.739a2.388 2.388 0 001.458-.419 1.341 1.341 0 00.565-1.135h1.07v8.188zm5.272-2.207a1.739 1.739 0 001.219-.777 13.042 13.042 0 00.861-1.494l11-23.254q.416-.776.744-1.436a2.661 2.661 0 00.326-1.136.887.887 0 00-.415-.837 3.571 3.571 0 00-.893-.359V1.425h10.049V2.5a4.928 4.928 0 00-.832.33.874.874 0 00-.417.866 2.378 2.378 0 00.208.956q.208.479.625 1.256l12.367 24.329a2.035 2.035 0 00.8.958 12.666 12.666 0 001.159.6v1.076H184.63v-1.076a1.406 1.406 0 00.595-.18.575.575 0 00.357-.538 3.735 3.735 0 00-.477-1.554l-2.26-4.424h-14.507l-2.14 4.245a5.031 5.031 0 00-.594 1.793q0 .657 1.129.658v1.076h-8.443zm22.415-11.119l-4.994-11.119-5.588 11.119zM219.82 1.427a30.528 30.528 0 015.293.448 16.331 16.331 0 014.518 1.434 8.818 8.818 0 013.151 2.572 6.337 6.337 0 011.189 3.914 5.481 5.481 0 01-1.725 4.335 12.247 12.247 0 01-4.1 2.36v.12a11.642 11.642 0 014.727 2.661 6.85 6.85 0 011.932 5.231 7.243 7.243 0 01-.772 3.317 7.652 7.652 0 01-2.29 2.661 11.341 11.341 0 01-3.716 1.764 18.25 18.25 0 01-4.994.628h-21.819v-1.076q1.664 0 1.665-1.077V3.58q0-1.077-1.665-1.077V1.428zm1.189 12.314a12.223 12.223 0 004.43-.689 2.786 2.786 0 001.753-2.9 2.788 2.788 0 00-1.753-2.9 12.282 12.282 0 00-4.43-.687h-11.356v7.174zm0 13.629q3.746 0 5.381-1.167a3.607 3.607 0 001.635-3.078 3.612 3.612 0 00-1.635-3.079q-1.636-1.164-5.381-1.165h-11.356v8.488zm39.884-26.301a23.743 23.743 0 016.659.987 20.644 20.644 0 016.184 2.958 16 16 0 014.579 4.992 13.794 13.794 0 011.783 7.142 13.8 13.8 0 01-1.783 7.144 15.989 15.989 0 01-4.579 4.99 19.128 19.128 0 01-6.184 2.87 26 26 0 01-6.659.9 26 26 0 01-6.659-.9 19.114 19.114 0 01-6.184-2.87 15.977 15.977 0 01-4.578-4.99 13.79 13.79 0 01-1.783-7.144 13.789 13.789 0 011.783-7.142 15.989 15.989 0 014.578-4.992 20.627 20.627 0 016.184-2.958 23.746 23.746 0 016.659-.987zm0 5.5a14.824 14.824 0 00-4.518.717 13.733 13.733 0 00-4.073 2.062 10.692 10.692 0 00-2.944 3.317 8.857 8.857 0 00-1.13 4.483 8.856 8.856 0 001.13 4.483 10.713 10.713 0 002.944 3.318 13.762 13.762 0 004.073 2.063 14.849 14.849 0 004.518.716 14.866 14.866 0 004.519-.716 13.814 13.814 0 004.073-2.062 10.722 10.722 0 002.943-3.318 8.861 8.861 0 001.13-4.483 8.862 8.862 0 00-1.13-4.483 10.7 10.7 0 00-2.943-3.317 13.784 13.784 0 00-4.073-2.062 14.841 14.841 0 00-4.519-.718zm46.586-5.142a24.282 24.282 0 015.173.507 11.63 11.63 0 013.983 1.615 7.406 7.406 0 012.557 2.869 9.531 9.531 0 01.893 4.335 7.709 7.709 0 01-2.32 6.037 12.428 12.428 0 01-6.242 2.809l7.908 11.358a1.6 1.6 0 00.981.718 5.062 5.062 0 001.04.12v1.076h-11.118v-1.076a2.178 2.178 0 00.922-.18c.257-.119.387-.277.387-.478a1.374 1.374 0 00-.238-.687c-.159-.26-.4-.607-.714-1.047l-6.54-9.324h-8.5v10.64a.917.917 0 00.386.807 2.592 2.592 0 001.4.27v1.076h-10.286v-1.076q1.724 0 1.724-1.077V3.58q0-1.077-1.724-1.077V1.428zm-1.546 13.988a16.16 16.16 0 003.566-.329 6.26 6.26 0 002.259-.927 3.426 3.426 0 001.189-1.4 4.307 4.307 0 00.357-1.763 4.316 4.316 0 00-.357-1.764 3.456 3.456 0 00-1.189-1.4 6.323 6.323 0 00-2.259-.927 16.321 16.321 0 00-3.566-.328h-10.287v8.847zm20.952 16.378a1.739 1.739 0 001.219-.777 12.9 12.9 0 00.862-1.494l11-23.254q.416-.776.743-1.436a2.641 2.641 0 00.327-1.136.886.886 0 00-.416-.837 3.553 3.553 0 00-.892-.359V1.425h10.046V2.5a4.891 4.891 0 00-.832.33.873.873 0 00-.417.866 2.359 2.359 0 00.209.956q.208.479.623 1.256l12.368 24.329a2.032 2.032 0 00.8.958 12.653 12.653 0 001.159.6v1.076h-10.463v-1.076a1.4 1.4 0 00.594-.18.573.573 0 00.357-.538 3.743 3.743 0 00-.476-1.554l-2.259-4.424h-14.503l-2.14 4.245a5.021 5.021 0 00-.594 1.793q0 .657 1.129.658v1.076h-8.443zm22.417-11.119l-4.995-11.119-5.589 11.119zm32.299 10.044q0 1.076 1.308 1.077v1.076h-9.157v-1.076a1.141 1.141 0 00.743-.27.986.986 0 00.328-.807V6.933h-9.812a2.011 2.011 0 00-1.041.3 1.206 1.206 0 00-.5 1.134h-1.07V.001h1.07a1.206 1.206 0 00.5 1.136 2.023 2.023 0 001.041.3h26.4a2.03 2.03 0 001.042-.3 1.209 1.209 0 00.5-1.136h1.07v8.366h-1.07a1.209 1.209 0 00-.5-1.134 2.019 2.019 0 00-1.042-.3h-9.81zm18.909 1.075q1.547 0 1.546-1.077V3.577q0-1.077-1.546-1.077V1.425h9.87V2.5q-1.546 0-1.544 1.077v27.139q0 1.076 1.544 1.077v1.076h-9.87zm36.25-30.724a23.756 23.756 0 016.66.987 20.629 20.629 0 016.183 2.958 15.981 15.981 0 014.579 4.992 13.785 13.785 0 011.784 7.142 13.786 13.786 0 01-1.784 7.144 15.969 15.969 0 01-4.579 4.99 19.115 19.115 0 01-6.183 2.87 26.01 26.01 0 01-6.66.9 26 26 0 01-6.659-.9 19.12 19.12 0 01-6.184-2.87 15.969 15.969 0 01-4.578-4.99 13.788 13.788 0 01-1.784-7.144 13.787 13.787 0 011.784-7.142 15.981 15.981 0 014.578-4.992 20.634 20.634 0 016.184-2.958 23.747 23.747 0 016.659-.987zm0 5.5a14.833 14.833 0 00-4.519.717 13.755 13.755 0 00-4.073 2.062 10.689 10.689 0 00-2.944 3.317 8.859 8.859 0 00-1.129 4.483 8.858 8.858 0 001.129 4.483 10.709 10.709 0 002.944 3.318 13.785 13.785 0 004.073 2.063 14.857 14.857 0 004.519.716 14.864 14.864 0 004.519-.716 13.8 13.8 0 004.073-2.062 10.736 10.736 0 002.944-3.318 8.864 8.864 0 001.129-4.483 8.864 8.864 0 00-1.129-4.483 10.716 10.716 0 00-2.944-3.317 13.774 13.774 0 00-4.073-2.062 14.839 14.839 0 00-4.519-.718zm26.863 25.224c.752 0 1.131-.36 1.131-1.077V3.577c0-.718-.378-1.077-1.131-1.077V1.425h10.167V2.5c-.318 0-.475.2-.475.6q0 .479 1.189 1.674l17.064 17.813V3.578q0-1.077-1.545-1.077V1.426H499v1.075q-1.13 0-1.128 1.077v27.139q0 1.076 1.128 1.077v1.076h-9.632v-1.076q.773 0 .773-.539 0-.417-.951-1.374l-18.134-19.009v19.846q0 1.076 1.368 1.077v1.076h-8.8z" fill="#292929"/></svg>