<svg xmlns="http://www.w3.org/2000/svg" width="652.942" height="74"><path d="M0 69.188a3.817 3.817 0 002.677-1.691 28.329 28.329 0 001.894-3.251l24.164-50.59q.912-1.689 1.632-3.121a5.712 5.712 0 00.719-2.473 1.925 1.925 0 00-.912-1.821 7.823 7.823 0 00-1.961-.778V3.122h22.074v2.341a10.693 10.693 0 00-1.827.715 1.893 1.893 0 00-.916 1.884 5.119 5.119 0 00.457 2.083q.459 1.042 1.374 2.731l27.164 52.935a4.438 4.438 0 001.765 2.081 26.915 26.915 0 002.545 1.3v2.341H57.862v-2.341a3.081 3.081 0 001.306-.392 1.249 1.249 0 00.783-1.171 8.1 8.1 0 00-1.047-3.379l-4.963-9.626h-31.87l-4.7 9.236a10.9 10.9 0 00-1.306 3.9q0 1.43 2.482 1.431v2.341H.001zm49.241-24.19l-10.97-24.19-12.277 24.19zm89.511-41.877a53.8 53.8 0 0111.363 1.1 25.721 25.721 0 018.751 3.513 16.2 16.2 0 015.616 6.241 20.583 20.583 0 011.959 9.431q0 8.583-5.093 13.135t-13.716 6.113l17.372 24.708a3.531 3.531 0 002.155 1.563 11.233 11.233 0 002.286.26v2.341h-24.423v-2.341a4.788 4.788 0 002.022-.392c.566-.258.851-.6.851-1.039a2.963 2.963 0 00-.524-1.5c-.349-.565-.871-1.321-1.568-2.276L131.435 43.69h-18.678v23.149a1.987 1.987 0 00.849 1.754 5.744 5.744 0 003.069.587v2.341h-22.6V69.18q3.787 0 3.788-2.341V7.795q0-2.344-3.788-2.341V3.113zm-3.4 30.432a35.828 35.828 0 007.837-.717 13.8 13.8 0 004.963-2.016 7.516 7.516 0 002.615-3.056 9.318 9.318 0 00.784-3.837 9.327 9.327 0 00-.784-3.835 7.553 7.553 0 00-2.615-3.056 13.9 13.9 0 00-4.963-2.016 36.084 36.084 0 00-7.837-.715h-22.6v19.248zm122.586 28.612a3.461 3.461 0 01-.719-.067 3.753 3.753 0 00-.718-.063 12.128 12.128 0 00-3.721 1.561q-2.942 1.561-7.448 3.511a66.157 66.157 0 01-10.253 3.381 49.534 49.534 0 01-12.017 1.43 59.306 59.306 0 01-15.8-2.083 39.443 39.443 0 01-13.388-6.436 31.735 31.735 0 01-9.208-10.861 32.4 32.4 0 01-3.4-15.216 32.505 32.505 0 013.4-15.149 32.226 32.226 0 019.208-10.99 40.756 40.756 0 0113.388-6.633 56.151 56.151 0 0115.8-2.213 64.517 64.517 0 0112.082 1.04q5.419 1.042 9.472 2.211a52.857 52.857 0 016.4 2.213 11.571 11.571 0 002.874 1.038 1.331 1.331 0 001.11-.648q.456-.649.718-1.04l1.961 1.561-10.19 15.736-1.306-.91a4.79 4.79 0 00-.065-.78c-.045-.262-.11-.563-.2-.912q-.264-1.427-2.613-2.924a26.964 26.964 0 00-5.812-2.666 60.091 60.091 0 00-7.314-1.951 36.077 36.077 0 00-7.119-.782 35.271 35.271 0 00-10.515 1.562 26.217 26.217 0 00-8.749 4.55 22.318 22.318 0 00-5.945 7.348 21.6 21.6 0 00-2.219 9.949 21.581 21.581 0 002.219 9.949 22.252 22.252 0 005.945 7.35 26.15 26.15 0 008.749 4.551 35.251 35.251 0 0010.515 1.561 41.963 41.963 0 008.751-.975 52.705 52.705 0 008.36-2.471 27.787 27.787 0 006.335-3.381q2.547-1.887 2.547-3.578a2.425 2.425 0 00-.522-1.559l1.829-1.04 8.621 13.784zm76.904-54.362q0-2.344-2.873-2.341V3.121h20.115v2.341a2.519 2.519 0 00-1.633.583 2.13 2.13 0 00-.717 1.757v59.044a2.128 2.128 0 00.717 1.754 2.513 2.513 0 001.633.587v2.341h-20.115v-2.341q2.872 0 2.873-2.341V42.394h-42.058v24.452a2.128 2.128 0 00.718 1.754 2.513 2.513 0 001.633.587v2.341h-19.723v-2.341q2.48 0 2.483-2.341V7.802q0-2.344-2.483-2.341V3.12h19.723v2.341a2.519 2.519 0 00-1.633.583 2.13 2.13 0 00-.718 1.757v22.11h42.058zm37.241 61.385q3.4 0 3.4-2.341V7.803q0-2.344-3.4-2.341V3.121h21.682v2.341q-3.4 0-3.394 2.341v59.044q0 2.338 3.394 2.341v2.341h-21.682zM488.107 5.462a4.128 4.128 0 00-3.789 1.886 27.134 27.134 0 00-1.7 3.056l-23.117 50.591q-1.176 2.6-1.959 4.16a6.024 6.024 0 00-.783 2.211 1.557 1.557 0 00.326 1.04 4.789 4.789 0 00.849.782v2.341H437.95v-2.341a1.84 1.84 0 001.175-1.823 8.3 8.3 0 00-.981-2.664q-.977-2.015-2.416-5.009L412.219 8.841a4.366 4.366 0 00-1.831-2.079 17.4 17.4 0 00-3.394-1.3V3.121h23.378v2.341a3.677 3.677 0 00-1.761.455 1.8 1.8 0 00-.849 1.754 8.566 8.566 0 001.11 3.641q1.106 2.216 2.676 5.462l16.721 35.765 16.327-35.243q1.567-3.38 2.937-6.047a10.18 10.18 0 001.373-3.707q0-2.079-3.657-2.081V3.12h22.857zm77.871 11.708a2.381 2.381 0 00-1.111-2.146 7.537 7.537 0 00-3.851-.715h-42.322v16.125h25.6a9.278 9.278 0 004.049-.714q1.436-.714 1.435-3.707h2.351v20.288h-2.351q0-2.99-1.435-3.836a8.053 8.053 0 00-4.049-.847h-25.6v17.949h43.629a5.268 5.268 0 003.2-.912 2.9 2.9 0 001.239-2.469h2.353v17.817h-2.353q0-1.954-1.239-2.211a15.9 15.9 0 00-3.2-.26h-60.87v-2.341a2.52 2.52 0 001.633-.587 2.128 2.128 0 00.721-1.754V7.806a2.131 2.131 0 00-.721-1.758 2.525 2.525 0 00-1.633-.583V3.124h59.563a6.547 6.547 0 003.851-.845 2.711 2.711 0 001.111-2.276h2.353V17.17zm25.444 32.9l1.307.648a4.1 4.1 0 00.522 2.083 9.278 9.278 0 003.592 3.056 36.6 36.6 0 006.139 2.666 53.382 53.382 0 007.25 1.886 36.9 36.9 0 006.792.713q2.22 0 5.747-.323a34.331 34.331 0 006.923-1.365 19.472 19.472 0 005.877-2.861 5.69 5.69 0 002.482-4.814 4.852 4.852 0 00-2.286-4.42 16.8 16.8 0 00-6.008-2.083 66 66 0 00-8.49-.845q-4.769-.192-9.73-.585a88.7 88.7 0 01-9.731-1.3 26.967 26.967 0 01-8.49-3.056 16.838 16.838 0 01-6.008-5.853 18.231 18.231 0 01-2.286-9.691 17.993 17.993 0 011.894-7.933 19.315 19.315 0 015.813-6.893 32.183 32.183 0 019.925-4.877 47.374 47.374 0 0114.109-1.886 60.878 60.878 0 0112.014 1.04 89.636 89.636 0 018.819 2.211q3.723 1.173 6.27 2.213a11.708 11.708 0 004.245 1.038 3.607 3.607 0 002.612-.78l1.567 1.041-9.012 16.257-1.306-.519a7.206 7.206 0 00-1.045-2.993 11.176 11.176 0 00-3.462-3.054 30.276 30.276 0 00-5.682-2.666 46.1 46.1 0 00-7.053-1.886 40.911 40.911 0 00-7.576-.717 40.58 40.58 0 00-5.943.455 28.478 28.478 0 00-5.551 1.366 12.314 12.314 0 00-4.12 2.407 4.815 4.815 0 00-1.633 3.7 5.289 5.289 0 002.286 4.682 16.719 16.719 0 006.009 2.343 57.135 57.135 0 008.49 1.041q4.766.259 9.731.65a79.4 79.4 0 019.73 1.366 28.2 28.2 0 018.49 3.119 17.049 17.049 0 016.009 5.789 17.658 17.658 0 012.286 9.492 16.643 16.643 0 01-3.592 11.056 25.312 25.312 0 01-8.948 6.763 40.4 40.4 0 01-11.56 3.315 85.807 85.807 0 01-11.559.847 76.918 76.918 0 01-12.474-.847 46.28 46.28 0 01-8.36-2.081 55.205 55.205 0 01-5.289-2.211 7.9 7.9 0 00-3.4-.974 2.173 2.173 0 00-1.7 1.04l-1.829-1.04z" fill="#fff" opacity=".8"/></svg>