<svg xmlns="http://www.w3.org/2000/svg" width="652" height="74" viewBox="0 0 652 74">
  <defs>
    <style>
      .cls-1 {
        fill: #fff;
        fill-rule: evenodd;
      }
    </style>
  </defs>
  <path id="YOUTUBE" class="cls-1" d="M88.905,24.406L72.6,2.287H54.189L80.7,38.078V70.5H97.89V37.785l26.123-35.5h-18.6ZM205.452,18.6A32.141,32.141,0,0,0,192.366,6,41.8,41.8,0,0,0,172.3,1.408q-12.7,0-21.24,5.054A32.178,32.178,0,0,0,138.411,19.5a36.721,36.721,0,0,0-4.1,17.017A35.459,35.459,0,0,0,138.7,53.947a32.268,32.268,0,0,0,12.891,12.7q8.5,4.737,20.41,4.736,11.816,0,20.41-4.687A32.467,32.467,0,0,0,205.5,54.045a35.233,35.233,0,0,0,4.492-17.627A35.5,35.5,0,0,0,205.452,18.6Zm-51.074,7.446a17.287,17.287,0,0,1,7.031-7.1A21.741,21.741,0,0,1,172.1,16.4a21.167,21.167,0,0,1,10.913,2.71,18.068,18.068,0,0,1,7.006,7.251,21.039,21.039,0,0,1,2.393,9.961q0,9.278-5.64,14.673t-14.77,5.4a21.455,21.455,0,0,1-10.4-2.49,17.6,17.6,0,0,1-7.128-7.056,20.88,20.88,0,0,1-2.539-10.327A21.865,21.865,0,0,1,154.378,26.042Zm93.964,26.245Q244.068,47.8,244.069,39.3V2.287H226.882V40.178q0,14.747,8.813,22.974t25.074,8.228q16.014,0,24.877-8.179t8.863-23.315V2.287H277.272V39.494q0,8.789-4.248,13.037t-12.255,4.248Q252.614,56.779,248.342,52.287ZM374.923,16.5V2.287H308.907V16.5h24.317v54h17.187v-54h24.512Zm35.809,35.791Q406.46,47.8,406.46,39.3V2.287H389.272V40.178q0,14.747,8.814,22.974t25.073,8.228q16.016,0,24.878-8.179T456.9,39.885V2.287H439.663V39.494q0,8.789-4.248,13.037t-12.256,4.248Q415,56.779,410.732,52.287ZM522.812,6.755q-6.2-4.468-17.041-4.468H476.815V70.5h29.59q12.792,0,20.191-4.3t7.4-14.795A17.029,17.029,0,0,0,530.331,40.5q-3.662-4.614-11.133-6.909a15.252,15.252,0,0,0,7.154-5.786,15.844,15.844,0,0,0,2.661-9.009A14.091,14.091,0,0,0,522.812,6.755Zm-13.062,21.7q-2.856,2.149-8.472,2.148H494V12.883h8.008q5.467,0,8.032,2.1t2.563,6.641Q512.606,26.311,509.75,28.459ZM502.987,59.9H494v-18.8h8.984q13.72,0,13.721,9.473,0,9.327-13.721,9.326h0Zm94.819-45.41V2.287h-46.68V70.5h47.461V58.293H568.313v-16.6h28.174V29.484H568.313V14.494h29.493Z"/>
</svg>
