<svg xmlns="http://www.w3.org/2000/svg" width="284" height="24" viewBox="0 0 284 24">
  <defs>
    <style>
      .cls-1 {
        fill: #292929;
        fill-rule: evenodd;
      }
    </style>
  </defs>
  <path id="MARCHE" class="cls-1" d="M13.851,9.233L7.078,0.9H2.115V22.5H7.434V8.692l6.108,7.576h0.51l6.077-7.576V22.5h5.443V0.9H20.639ZM54.36,22.5L44.866,0.868H39.192L29.791,22.5h5.566l2.072-4.979h9.277L48.794,22.5H54.36Zm-9.092-8.458H38.851l3.2-7.855ZM73.284,2.693A8.311,8.311,0,0,0,67.563.9H58.579V22.5h5.443V13.795H65a4.625,4.625,0,0,1,1.747.286,3.737,3.737,0,0,1,1.376,1.09,12.607,12.607,0,0,1,1.5,2.459l2.5,4.871h5.953l-2.814-5.443A19.635,19.635,0,0,0,73.5,14.266a6.046,6.046,0,0,0-1.763-1.492A5.922,5.922,0,0,0,74.4,10.61a5.74,5.74,0,0,0,.889-3.185A6.036,6.036,0,0,0,73.284,2.693ZM68.862,9.659a4.494,4.494,0,0,1-2.567.611H64.022V4.61h2.366q3.355,0,3.355,2.876A2.459,2.459,0,0,1,68.862,9.659ZM93.584,0.621a13.934,13.934,0,0,0-6.2,1.345,10.205,10.205,0,0,0-4.306,3.866,10.968,10.968,0,0,0-1.554,5.876,11.184,11.184,0,0,0,1.438,5.644,10.193,10.193,0,0,0,4.152,3.974,13.316,13.316,0,0,0,6.378,1.453,17.278,17.278,0,0,0,8.272-1.886V16.037a13.176,13.176,0,0,1-7.375,2.381,8.1,8.1,0,0,1-3.9-.889,6.213,6.213,0,0,1-2.513-2.4,6.582,6.582,0,0,1-.866-3.324,6.954,6.954,0,0,1,.85-3.394,6.288,6.288,0,0,1,2.528-2.489,8.151,8.151,0,0,1,4.028-.935,11.106,11.106,0,0,1,3.548.572A16.9,16.9,0,0,1,101.64,7.3V2.291A21.09,21.09,0,0,0,93.584.621h0ZM113,9.264V0.9H107.56V22.5H113V13.795h10.452V22.5H128.9V0.9h-5.443V9.264H113Zm37.2-4.5V0.9H135.421V22.5H150.45V18.634h-9.586V13.377h8.921V9.512h-8.921V4.765H150.2Z"/>
</svg>
