<svg xmlns="http://www.w3.org/2000/svg" width="300" height="34"><path d="M0 31.789a1.754 1.754 0 001.23-.777 13.013 13.013 0 00.87-1.494L13.2 6.274q.419-.776.75-1.434a2.625 2.625 0 00.33-1.136.884.884 0 00-.419-.837 3.592 3.592 0 00-.9-.358V1.433h10.142v1.076a4.913 4.913 0 00-.839.329.87.87 0 00-.421.866 2.351 2.351 0 00.21.957q.211.479.631 1.255l12.482 24.32a2.04 2.04 0 00.811.956 12.371 12.371 0 001.169.6v1.076H26.585v-1.076a1.416 1.416 0 00.6-.18.574.574 0 00.36-.538 3.722 3.722 0 00-.481-1.553l-2.28-4.423H10.141L7.98 29.341a5.01 5.01 0 00-.6 1.793q0 .657 1.14.657v1.076H-.001zm22.624-11.114l-5.04-11.114-5.641 11.114zM63.752 1.434a24.72 24.72 0 015.221.507 11.817 11.817 0 014.021 1.614 7.441 7.441 0 012.58 2.867 9.458 9.458 0 01.9 4.333 7.674 7.674 0 01-2.34 6.035 12.623 12.623 0 01-6.3 2.808l7.982 11.352a1.622 1.622 0 00.99.718 5.158 5.158 0 001.05.12v1.076H66.634v-1.076a2.2 2.2 0 00.929-.18c.26-.119.391-.277.391-.477a1.361 1.361 0 00-.241-.687c-.16-.26-.4-.607-.72-1.046l-6.6-9.322h-8.582v10.636a.913.913 0 00.39.806 2.64 2.64 0 001.41.27v1.076H43.229v-1.076q1.74 0 1.74-1.076V3.584q0-1.077-1.74-1.076V1.432zm-1.561 13.982a16.46 16.46 0 003.6-.329 6.338 6.338 0 002.28-.926 3.453 3.453 0 001.2-1.4 4.281 4.281 0 00.36-1.763 4.285 4.285 0 00-.36-1.762 3.47 3.47 0 00-1.2-1.4 6.387 6.387 0 00-2.28-.926 16.58 16.58 0 00-3.6-.329H51.809v8.844zm56.32 13.147a1.591 1.591 0 01-.33-.031 1.722 1.722 0 00-.33-.029 5.571 5.571 0 00-1.71.717q-1.352.717-3.422 1.613a30.4 30.4 0 01-4.711 1.554 22.758 22.758 0 01-5.521.657 27.249 27.249 0 01-7.262-.957 18.121 18.121 0 01-6.151-2.957 14.58 14.58 0 01-4.231-4.99 14.887 14.887 0 01-1.56-6.991 14.934 14.934 0 011.56-6.96 14.806 14.806 0 014.231-5.049 18.724 18.724 0 016.151-3.047 25.8 25.8 0 017.262-1.017 29.647 29.647 0 015.551.478q2.49.479 4.352 1.016a24.289 24.289 0 012.94 1.017 5.314 5.314 0 001.32.477.611.611 0 00.51-.3q.209-.3.33-.478l.9.717-4.682 7.23-.6-.418a2.2 2.2 0 00-.03-.359 5.984 5.984 0 00-.09-.419q-.121-.656-1.2-1.344a12.391 12.391 0 00-2.67-1.225 27.6 27.6 0 00-3.361-.9 16.573 16.573 0 00-3.271-.359 16.206 16.206 0 00-4.831.718 12.045 12.045 0 00-4.02 2.091 10.253 10.253 0 00-2.732 3.376 9.925 9.925 0 00-1.019 4.571 9.915 9.915 0 001.019 4.571 10.223 10.223 0 002.732 3.377 12.015 12.015 0 004.02 2.091 16.2 16.2 0 004.831.717 19.279 19.279 0 004.021-.448 24.218 24.218 0 003.841-1.135 12.764 12.764 0 002.911-1.554q1.17-.867 1.17-1.644a1.114 1.114 0 00-.24-.716l.84-.478 3.961 6.333zm35.34-24.978q0-1.077-1.32-1.076V1.433h9.242v1.076a1.158 1.158 0 00-.75.268.979.979 0 00-.329.807v27.128a.978.978 0 00.329.806 1.155 1.155 0 00.75.27v1.076h-9.242v-1.076q1.32 0 1.32-1.076V19.477h-19.324v11.235a.978.978 0 00.33.806 1.155 1.155 0 00.75.27v1.076h-9.062v-1.076q1.139 0 1.141-1.076V3.584q0-1.077-1.141-1.076V1.432h9.062v1.076a1.158 1.158 0 00-.75.268.979.979 0 00-.33.807v10.158h19.324zm17.108 28.204q1.561 0 1.56-1.076V3.585q0-1.077-1.56-1.076V1.433h9.962v1.076q-1.561 0-1.56 1.076v27.128q0 1.074 1.56 1.076v1.076h-9.962zM224.266 2.51a1.9 1.9 0 00-1.741.866 12.475 12.475 0 00-.78 1.4l-10.622 23.248q-.54 1.2-.9 1.911a2.769 2.769 0 00-.36 1.016.715.715 0 00.15.478 2.2 2.2 0 00.39.359v1.076h-9.182v-1.076a.845.845 0 00.54-.837 3.813 3.813 0 00-.451-1.224q-.449-.926-1.11-2.3L189.4 4.063a2.006 2.006 0 00-.841-.955 7.992 7.992 0 00-1.559-.6V1.432h10.741v1.076a1.689 1.689 0 00-.809.209.828.828 0 00-.39.806 3.936 3.936 0 00.51 1.673q.508 1.018 1.229 2.51l7.682 16.432 7.5-16.193q.72-1.553 1.349-2.779a4.676 4.676 0 00.631-1.7q0-.955-1.68-.956V1.434h10.5zm35.777 5.378a1.094 1.094 0 00-.51-.986 3.463 3.463 0 00-1.769-.329h-19.445v7.409h11.763a4.262 4.262 0 001.86-.328q.66-.328.659-1.7h1.08v9.322h-1.08q0-1.374-.659-1.763a3.7 3.7 0 00-1.86-.389h-11.763v8.247h20.048a2.421 2.421 0 001.471-.419 1.334 1.334 0 00.569-1.134h1.081v8.186h-1.081q0-.9-.569-1.016a7.3 7.3 0 00-1.471-.12h-27.97v-1.076a1.158 1.158 0 00.75-.27.978.978 0 00.331-.806V3.588a.979.979 0 00-.331-.807 1.16 1.16 0 00-.75-.268V1.437h27.37a3.007 3.007 0 001.769-.388 1.246 1.246 0 00.51-1.046h1.081v7.888zm11.694 15.118l.6.3a1.884 1.884 0 00.24.957 4.263 4.263 0 001.65 1.4 16.806 16.806 0 002.821 1.225 24.524 24.524 0 003.331.866 16.954 16.954 0 003.121.328q1.02 0 2.641-.148a15.778 15.778 0 003.181-.627 8.948 8.948 0 002.7-1.315 2.615 2.615 0 001.14-2.212 2.229 2.229 0 00-1.05-2.031 7.721 7.721 0 00-2.761-.957 30.327 30.327 0 00-3.9-.388q-2.191-.088-4.471-.269a40.768 40.768 0 01-4.471-.6 12.391 12.391 0 01-3.9-1.4 7.737 7.737 0 01-2.761-2.689 8.376 8.376 0 01-1.05-4.452 8.268 8.268 0 01.87-3.645 8.875 8.875 0 012.671-3.167 14.787 14.787 0 014.56-2.241 21.766 21.766 0 016.482-.866 27.974 27.974 0 015.52.478 41.19 41.19 0 014.052 1.016q1.711.539 2.881 1.017a5.378 5.378 0 001.95.477 1.658 1.658 0 001.2-.359l.72.478-4.141 7.469-.6-.238a3.311 3.311 0 00-.48-1.375 5.135 5.135 0 00-1.59-1.4 13.911 13.911 0 00-2.611-1.225 21.184 21.184 0 00-3.241-.867 18.8 18.8 0 00-3.481-.329 18.644 18.644 0 00-2.731.209 13.088 13.088 0 00-2.551.627 5.658 5.658 0 00-1.891 1.106 2.212 2.212 0 00-.75 1.7 2.43 2.43 0 001.05 2.151 7.681 7.681 0 002.761 1.076 26.25 26.25 0 003.9.478q2.19.119 4.471.3a36.481 36.481 0 014.471.627 12.957 12.957 0 013.9 1.433 7.833 7.833 0 012.761 2.66 8.113 8.113 0 011.05 4.361 7.647 7.647 0 01-1.651 5.08 11.63 11.63 0 01-4.111 3.107 18.562 18.562 0 01-5.311 1.523 39.426 39.426 0 01-5.311.389 35.341 35.341 0 01-5.731-.389 21.266 21.266 0 01-3.841-.956 25.369 25.369 0 01-2.43-1.016 3.63 3.63 0 00-1.561-.447 1 1 0 00-.78.478l-.84-.478z" fill="#292929"/></svg>