<svg xmlns="http://www.w3.org/2000/svg" width="438" height="87" viewBox="0 0 438 87">
  <defs>
    <style>
      .cls-1 {
        fill: #292929;
        fill-rule: evenodd;
      }
    </style>
  </defs>
  <path id="MUSE_SPECIAL_TALK_LIVE" data-name="MUSE SPECIAL TALK LIVE" class="cls-1" d="M45.5,15.053L34.808,1.894H26.971V36h8.4V14.2l9.644,11.963h0.806L55.413,14.2V36h8.594V1.894H56.219ZM83.695,26.894q-2.137-2.246-2.136-6.494V1.894H72.965V20.839q0,7.373,4.407,11.487T89.908,36.44q8.007,0,12.439-4.089t4.431-11.658V1.894H98.16V20.5q0,4.395-2.124,6.518a8.3,8.3,0,0,1-6.128,2.124A8.172,8.172,0,0,1,83.695,26.894ZM131.569,2.174a21.454,21.454,0,0,0-5.554-.72A14.329,14.329,0,0,0,119.777,2.7a9.248,9.248,0,0,0-3.955,3.394,8.824,8.824,0,0,0-1.355,4.81,8.705,8.705,0,0,0,1.257,4.749,11.2,11.2,0,0,0,3,3.223,36.833,36.833,0,0,0,4.236,2.527,28.718,28.718,0,0,1,4.016,2.222,6.2,6.2,0,0,1,1.721,1.624,3.155,3.155,0,0,1,.415,1.648,2.717,2.717,0,0,1-1.123,2.209,5.169,5.169,0,0,1-3.271.891q-4.859,0-9.986-4.1v7.715a24.368,24.368,0,0,0,11.084,2.832,14.979,14.979,0,0,0,6.189-1.221,9.714,9.714,0,0,0,4.224-3.467,9.136,9.136,0,0,0,1.5-5.2,8.591,8.591,0,0,0-1.208-4.675,11.529,11.529,0,0,0-3.174-3.3,47.447,47.447,0,0,0-5.383-3.137,18.729,18.729,0,0,1-4.1-2.539,3.041,3.041,0,0,1-1.05-2.246,2.652,2.652,0,0,1,1.026-2.185,4.777,4.777,0,0,1,3.027-.818q4.614,0,9.448,3.784V4.14A18.1,18.1,0,0,0,131.569,2.174ZM168.933,8v-6.1h-23.34V36h23.73V29.9H154.187V21.6h14.086v-6.1H154.187V8h14.746Zm41.048-5.823a21.454,21.454,0,0,0-5.554-.72A14.329,14.329,0,0,0,198.189,2.7a9.254,9.254,0,0,0-3.955,3.394,8.833,8.833,0,0,0-1.355,4.81,8.705,8.705,0,0,0,1.257,4.749,11.2,11.2,0,0,0,3,3.223,36.833,36.833,0,0,0,4.236,2.527,28.718,28.718,0,0,1,4.016,2.222,6.2,6.2,0,0,1,1.721,1.624,3.155,3.155,0,0,1,.415,1.648A2.717,2.717,0,0,1,206.4,29.1a5.169,5.169,0,0,1-3.271.891q-4.859,0-9.986-4.1v7.715a24.368,24.368,0,0,0,11.084,2.832,14.979,14.979,0,0,0,6.189-1.221,9.714,9.714,0,0,0,4.224-3.467,9.137,9.137,0,0,0,1.5-5.2,8.592,8.592,0,0,0-1.209-4.675,11.529,11.529,0,0,0-3.174-3.3,47.447,47.447,0,0,0-5.383-3.137,18.729,18.729,0,0,1-4.1-2.539,3.04,3.04,0,0,1-1.049-2.246,2.652,2.652,0,0,1,1.025-2.185,4.779,4.779,0,0,1,3.027-.818q4.614,0,9.448,3.784V4.14A18.1,18.1,0,0,0,209.981,2.174Zm37.632,2.441q-3.32-2.722-9.228-2.722h-14.38V36H232.6V22.6h6.2a14.78,14.78,0,0,0,6.726-1.379,9.489,9.489,0,0,0,4.065-3.7,10.237,10.237,0,0,0,1.343-5.225A9.37,9.37,0,0,0,247.613,4.616ZM236.9,16.762h-4.3V7.753h3.955a6.779,6.779,0,0,1,4.26,1.074,4.2,4.2,0,0,1,1.331,3.467q0,4.468-5.249,4.468h0ZM281.352,8v-6.1h-23.34V36h23.73V29.9H266.605V21.6h14.087v-6.1H266.605V8h14.747Zm26.194-6.543a22,22,0,0,0-9.79,2.124,16.11,16.11,0,0,0-6.8,6.1,17.315,17.315,0,0,0-2.454,9.277,17.665,17.665,0,0,0,2.27,8.911,16.1,16.1,0,0,0,6.556,6.274,21.02,21.02,0,0,0,10.07,2.3,27.286,27.286,0,0,0,13.062-2.979V25.795a20.807,20.807,0,0,1-11.646,3.76,12.789,12.789,0,0,1-6.164-1.4,9.805,9.805,0,0,1-3.967-3.8,10.39,10.39,0,0,1-1.368-5.249,10.983,10.983,0,0,1,1.343-5.359,9.931,9.931,0,0,1,3.992-3.931,12.871,12.871,0,0,1,6.36-1.477,17.542,17.542,0,0,1,5.6.9A26.679,26.679,0,0,1,320.266,12V4.091a33.3,33.3,0,0,0-12.72-2.637h0ZM337.207,36V1.894h-8.594V36h8.594Zm44.432,0L366.648,1.845h-8.96L342.845,36h8.789l3.271-7.861h14.649L372.85,36h8.789ZM367.283,22.646H357.151l5.054-12.4Zm28.612,6.3V1.894H387.3V36h24.048V28.944H395.9ZM111.831,59v-7.1H78.823V59H90.981V86h8.594V59h12.256ZM153.5,86l-14.99-34.155h-8.96L114.71,86H123.5l3.272-7.861h14.648l3.3,7.861H153.5ZM139.148,72.646H129.017l5.053-12.4Zm28.612,6.3V51.894h-8.594V86h24.048V78.944H167.76Zm31.052-11.352v-15.7h-8.593V86h8.593V69.447L213.1,86h10.717l-15.8-18.091L221.3,51.894H211.7Zm55.661,11.352V51.894h-8.594V86h24.048V78.944H254.473ZM285.525,86V51.894h-8.593V86h8.593ZM308.57,72.89l-8.5-21h-8.911l14.844,34.448h5.054l15.014-34.448h-8.911ZM355.077,58v-6.1h-23.34V86h23.731V79.9H340.331V71.6h14.087v-6.1H340.331V58h14.746Z"/>
</svg>
