<svg xmlns="http://www.w3.org/2000/svg" width="326" height="83" viewBox="0 0 326 83">
  <defs>
    <style>
      .cls-1 {
        fill: #fff;
        fill-rule: evenodd;
      }
    </style>
  </defs>
  <path id="MUSE_CEREMONY" data-name="MUSE CEREMONY" class="cls-1" d="M109.879,15.053L99.186,1.894H91.349V36h8.4V14.2l9.644,11.963h0.8L119.791,14.2V36h8.594V1.894H120.6Zm38.194,11.841q-2.138-2.246-2.136-6.494V1.894h-8.594V20.839q0,7.373,4.407,11.487t12.536,4.114q8.007,0,12.439-4.089t4.431-11.658V1.894h-8.618V20.5q0,4.395-2.124,6.518a8.3,8.3,0,0,1-6.128,2.124A8.171,8.171,0,0,1,148.073,26.894ZM195.947,2.174a21.454,21.454,0,0,0-5.554-.72A14.329,14.329,0,0,0,184.155,2.7,9.248,9.248,0,0,0,180.2,6.093a8.824,8.824,0,0,0-1.355,4.81,8.705,8.705,0,0,0,1.257,4.749,11.2,11.2,0,0,0,3,3.223,36.746,36.746,0,0,0,4.236,2.527,28.777,28.777,0,0,1,4.016,2.222,6.214,6.214,0,0,1,1.721,1.624,3.155,3.155,0,0,1,.415,1.648A2.717,2.717,0,0,1,192.37,29.1a5.169,5.169,0,0,1-3.271.891q-4.858,0-9.986-4.1v7.715A24.368,24.368,0,0,0,190.2,36.44a14.979,14.979,0,0,0,6.189-1.221,9.714,9.714,0,0,0,4.224-3.467,9.136,9.136,0,0,0,1.5-5.2,8.6,8.6,0,0,0-1.208-4.675,11.529,11.529,0,0,0-3.174-3.3,47.447,47.447,0,0,0-5.383-3.137,18.729,18.729,0,0,1-4.1-2.539,3.041,3.041,0,0,1-1.05-2.246,2.652,2.652,0,0,1,1.026-2.185,4.777,4.777,0,0,1,3.027-.818q4.614,0,9.448,3.784V4.14A18.1,18.1,0,0,0,195.947,2.174ZM233.311,8v-6.1h-23.34V36H233.7V29.9H218.564V21.6h14.087v-6.1H218.564V8h14.747ZM28.56,47.287a22,22,0,0,0-9.79,2.124,16.114,16.114,0,0,0-6.8,6.1,17.317,17.317,0,0,0-2.454,9.277A17.658,17.658,0,0,0,11.787,73.7a16.1,16.1,0,0,0,6.555,6.275,21.025,21.025,0,0,0,10.071,2.295,27.286,27.286,0,0,0,13.062-2.978V71.628a20.808,20.808,0,0,1-11.646,3.76,12.79,12.79,0,0,1-6.164-1.4,9.811,9.811,0,0,1-3.967-3.8,10.392,10.392,0,0,1-1.367-5.249,10.979,10.979,0,0,1,1.343-5.359,9.928,9.928,0,0,1,3.992-3.931,12.87,12.87,0,0,1,6.36-1.477,17.539,17.539,0,0,1,5.6.9,26.663,26.663,0,0,1,5.652,2.759v-7.91a33.3,33.3,0,0,0-12.72-2.637h0ZM72.967,53.83v-6.1H49.627V81.833h23.73v-6.1H58.221v-8.3H72.308v-6.1H58.221v-7.5H72.967Zm31.883-3.271q-3.174-2.832-9.034-2.832H81.632V81.833h8.594V68.088h1.538a7.3,7.3,0,0,1,2.759.452A5.9,5.9,0,0,1,96.7,70.261a19.906,19.906,0,0,1,2.368,3.882l3.956,7.69h9.4l-4.443-8.594a30.988,30.988,0,0,0-2.784-4.407,9.547,9.547,0,0,0-2.783-2.356,9.346,9.346,0,0,0,4.212-3.418,9.068,9.068,0,0,0,1.4-5.029A9.532,9.532,0,0,0,104.85,50.559Zm-6.983,11a7.1,7.1,0,0,1-4.053.964H90.226V53.586h3.735q5.3,0,5.3,4.541A3.882,3.882,0,0,1,97.867,61.557Zm43.846-7.727v-6.1h-23.34V81.833H142.1v-6.1H126.967v-8.3h14.087v-6.1H126.967v-7.5h14.746Zm27.195,7.056L158.215,47.727h-7.837V81.833h8.4v-21.8l9.644,11.963h0.806l9.594-11.963v21.8h8.594V47.727h-7.788Zm61.888-5a16.073,16.073,0,0,0-6.543-6.3,20.9,20.9,0,0,0-10.034-2.3,20.558,20.558,0,0,0-10.62,2.527,16.091,16.091,0,0,0-6.324,6.518,18.36,18.36,0,0,0-2.05,8.508,17.73,17.73,0,0,0,2.2,8.716,16.132,16.132,0,0,0,6.445,6.348,20.654,20.654,0,0,0,10.205,2.368,21,21,0,0,0,10.2-2.344,16.228,16.228,0,0,0,6.543-6.323A18.521,18.521,0,0,0,230.8,55.881ZM205.259,59.6a8.639,8.639,0,0,1,3.515-3.552,10.871,10.871,0,0,1,5.347-1.27,10.583,10.583,0,0,1,5.457,1.355,9.037,9.037,0,0,1,3.5,3.625,10.525,10.525,0,0,1,1.2,4.98,9.676,9.676,0,0,1-2.819,7.336,10.24,10.24,0,0,1-7.386,2.7,10.726,10.726,0,0,1-5.2-1.245A8.8,8.8,0,0,1,205.308,70a10.435,10.435,0,0,1-1.27-5.164A10.933,10.933,0,0,1,205.259,59.6Zm62.3,9.387L248.421,47.727h-7.544V81.833h8.447V60.642l19.092,21.191h7.642V47.727h-8.5V68.992Zm31.516-10.205-8.154-11.06h-9.2l13.257,17.9V81.833h8.593V65.476l13.062-17.749h-9.3Z"/>
</svg>
