<svg xmlns="http://www.w3.org/2000/svg" width="260" height="85" viewBox="0 0 260 85">
  <defs>
    <style>
      .cls-1 {
        fill: #292929;
        fill-rule: evenodd;
      }
    </style>
  </defs>
  <path id="COLLABO_RATION" data-name="COLLABO RATION" class="cls-1" d="M19.227,0.454a22,22,0,0,0-9.79,2.124,16.114,16.114,0,0,0-6.8,6.1A17.317,17.317,0,0,0,.184,17.959,17.659,17.659,0,0,0,2.455,26.87,16.1,16.1,0,0,0,9.01,33.145a21.024,21.024,0,0,0,10.071,2.3,27.285,27.285,0,0,0,13.061-2.979V24.795A20.807,20.807,0,0,1,20.5,28.555a12.791,12.791,0,0,1-6.165-1.4,9.812,9.812,0,0,1-3.967-3.8A10.392,10.392,0,0,1,9,18.106a10.98,10.98,0,0,1,1.343-5.359,9.928,9.928,0,0,1,3.992-3.931,12.87,12.87,0,0,1,6.36-1.477,17.537,17.537,0,0,1,5.6.9A26.66,26.66,0,0,1,31.947,11V3.091A33.3,33.3,0,0,0,19.227.454h0ZM74.352,9.048a16.072,16.072,0,0,0-6.543-6.3A20.9,20.9,0,0,0,57.775.454a20.559,20.559,0,0,0-10.62,2.527A16.087,16.087,0,0,0,40.832,9.5a18.359,18.359,0,0,0-2.051,8.508,17.732,17.732,0,0,0,2.2,8.716,16.132,16.132,0,0,0,6.445,6.348A20.654,20.654,0,0,0,57.628,35.44,21.007,21.007,0,0,0,67.834,33.1a16.235,16.235,0,0,0,6.543-6.323,17.62,17.62,0,0,0,2.246-8.814A17.748,17.748,0,0,0,74.352,9.048ZM48.815,12.771a8.644,8.644,0,0,1,3.516-3.552,10.869,10.869,0,0,1,5.347-1.27A10.582,10.582,0,0,1,63.134,9.3a9.035,9.035,0,0,1,3.5,3.626,10.522,10.522,0,0,1,1.2,4.98,9.673,9.673,0,0,1-2.82,7.336,10.239,10.239,0,0,1-7.385,2.7,10.725,10.725,0,0,1-5.2-1.245,8.8,8.8,0,0,1-3.564-3.528,10.44,10.44,0,0,1-1.27-5.164A10.933,10.933,0,0,1,48.815,12.771ZM93.027,27.944V0.894H84.433V35h24.048V27.944H93.027Zm31.053,0V0.894h-8.594V35h24.048V27.944H124.08ZM181.67,35L166.68,0.845h-8.96L142.876,35h8.79l3.271-7.861h14.648l3.3,7.861h8.789ZM167.315,21.646H157.183l5.054-12.4ZM210.331,3.127q-3.1-2.234-8.521-2.234H187.333V35h14.794q6.4,0,10.1-2.148t3.7-7.4A8.511,8.511,0,0,0,214.09,20a10.972,10.972,0,0,0-5.566-3.455A7.631,7.631,0,0,0,212.1,13.65a7.918,7.918,0,0,0,1.33-4.5A7.046,7.046,0,0,0,210.331,3.127ZM203.8,13.98a6.991,6.991,0,0,1-4.236,1.074h-3.638V6.191h4a6.291,6.291,0,0,1,4.016,1.05,4.045,4.045,0,0,1,1.282,3.32A4,4,0,0,1,203.8,13.98ZM200.418,29.7h-4.492V20.3h4.492q6.861,0,6.861,4.736,0,4.663-6.861,4.663h0ZM257.545,9.048A16.068,16.068,0,0,0,251,2.749,20.9,20.9,0,0,0,240.968.454a20.558,20.558,0,0,0-10.62,2.527A16.088,16.088,0,0,0,224.025,9.5a18.361,18.361,0,0,0-2.051,8.508,17.74,17.74,0,0,0,2.2,8.716,16.135,16.135,0,0,0,6.446,6.348,20.652,20.652,0,0,0,10.205,2.368,21.009,21.009,0,0,0,10.2-2.344,16.24,16.24,0,0,0,6.543-6.323,17.622,17.622,0,0,0,2.246-8.814A17.744,17.744,0,0,0,257.545,9.048Zm-25.537,3.723a8.648,8.648,0,0,1,3.516-3.552,10.871,10.871,0,0,1,5.347-1.27A10.581,10.581,0,0,1,246.327,9.3a9.04,9.04,0,0,1,3.5,3.626,10.525,10.525,0,0,1,1.2,4.98,9.673,9.673,0,0,1-2.82,7.336,10.239,10.239,0,0,1-7.385,2.7,10.723,10.723,0,0,1-5.2-1.245,8.8,8.8,0,0,1-3.565-3.528,10.445,10.445,0,0,1-1.269-5.164A10.933,10.933,0,0,1,232.008,12.771ZM47.449,53.726q-3.174-2.832-9.033-2.832H24.231V85h8.594V71.255h1.538a7.3,7.3,0,0,1,2.759.452,5.9,5.9,0,0,1,2.173,1.721,19.906,19.906,0,0,1,2.368,3.882L45.618,85h9.4l-4.443-8.594A30.991,30.991,0,0,0,47.791,72a9.546,9.546,0,0,0-2.783-2.356,9.348,9.348,0,0,0,4.212-3.418,9.063,9.063,0,0,0,1.4-5.029A9.53,9.53,0,0,0,47.449,53.726Zm-6.982,11a7.1,7.1,0,0,1-4.053.964H32.825V56.753H36.56q5.3,0,5.3,4.541A3.882,3.882,0,0,1,40.466,64.724ZM96.1,85L81.114,50.845h-8.96L57.31,85H66.1l3.271-7.861H84.019L87.315,85H96.1ZM81.749,71.646H71.617l5.054-12.4ZM132.015,58v-7.1H99.007V58h12.159V85h8.593V58h12.256ZM147.15,85V50.894h-8.594V85h8.594Zm43.357-25.952a16.068,16.068,0,0,0-6.543-6.3,20.9,20.9,0,0,0-10.034-2.295,20.558,20.558,0,0,0-10.62,2.527,16.087,16.087,0,0,0-6.323,6.518,18.361,18.361,0,0,0-2.051,8.508,17.729,17.729,0,0,0,2.2,8.716,16.135,16.135,0,0,0,6.446,6.348,20.652,20.652,0,0,0,10.2,2.368A21.009,21.009,0,0,0,183.989,83.1a16.24,16.24,0,0,0,6.543-6.323A18.517,18.517,0,0,0,190.507,59.048ZM164.97,62.771a8.647,8.647,0,0,1,3.516-3.552,10.871,10.871,0,0,1,5.347-1.27,10.582,10.582,0,0,1,5.456,1.355,9.03,9.03,0,0,1,3.5,3.625,10.514,10.514,0,0,1,1.2,4.981,9.673,9.673,0,0,1-2.82,7.336,10.239,10.239,0,0,1-7.385,2.7,10.73,10.73,0,0,1-5.2-1.245,8.8,8.8,0,0,1-3.564-3.528,10.445,10.445,0,0,1-1.269-5.164A10.933,10.933,0,0,1,164.97,62.771Zm62.3,9.387L208.132,50.894h-7.544V85h8.448V63.809L228.127,85h7.642V50.894h-8.5V72.158Z"/>
</svg>
