<svg xmlns="http://www.w3.org/2000/svg" width="499" height="43" viewBox="0 0 499 43">
  <defs>
    <style>
      .cls-1 {
        fill: #292929;
        fill-rule: evenodd;
      }
    </style>
  </defs>
  <path id="COLLABORATION" class="cls-1" d="M28.8,3.454a22,22,0,0,0-9.79,2.124,16.114,16.114,0,0,0-6.8,6.1,17.318,17.318,0,0,0-2.454,9.277,17.659,17.659,0,0,0,2.27,8.911,16.1,16.1,0,0,0,6.555,6.274,21.024,21.024,0,0,0,10.071,2.3,27.285,27.285,0,0,0,13.062-2.979V27.795a20.807,20.807,0,0,1-11.646,3.76,12.791,12.791,0,0,1-6.164-1.4,9.812,9.812,0,0,1-3.967-3.8,10.392,10.392,0,0,1-1.367-5.249,10.98,10.98,0,0,1,1.343-5.359A9.928,9.928,0,0,1,23.9,11.816a12.869,12.869,0,0,1,6.36-1.477,17.536,17.536,0,0,1,5.6.9A26.66,26.66,0,0,1,41.516,14V6.091A33.3,33.3,0,0,0,28.8,3.454h0Zm55.125,8.594a16.071,16.071,0,0,0-6.543-6.3A20.9,20.9,0,0,0,67.344,3.454a20.559,20.559,0,0,0-10.62,2.527A16.087,16.087,0,0,0,50.4,12.5a18.358,18.358,0,0,0-2.051,8.508,17.731,17.731,0,0,0,2.2,8.716,16.131,16.131,0,0,0,6.445,6.348A20.654,20.654,0,0,0,67.2,38.44,21.007,21.007,0,0,0,77.4,36.1a16.234,16.234,0,0,0,6.543-6.323,17.619,17.619,0,0,0,2.246-8.814A17.747,17.747,0,0,0,83.921,12.048ZM58.384,15.771A8.644,8.644,0,0,1,61.9,12.219a10.869,10.869,0,0,1,5.347-1.27A10.582,10.582,0,0,1,72.7,12.3a9.036,9.036,0,0,1,3.5,3.626,10.523,10.523,0,0,1,1.2,4.98,9.673,9.673,0,0,1-2.82,7.336,10.239,10.239,0,0,1-7.385,2.7A10.725,10.725,0,0,1,62,29.7a8.8,8.8,0,0,1-3.565-3.528,10.44,10.44,0,0,1-1.27-5.164A10.932,10.932,0,0,1,58.384,15.771ZM102.6,30.944V3.894H94V38H118.05V30.944H102.6Zm31.052,0V3.894h-8.593V38H149.1V30.944H133.648ZM191.239,38L176.249,3.845h-8.96L152.445,38h8.789l3.272-7.861h14.648L182.45,38h8.789ZM176.884,24.646H166.752l5.054-12.4ZM219.9,6.127q-3.1-2.234-8.52-2.234H196.9V38H211.7q6.4,0,10.1-2.148t3.7-7.4A8.511,8.511,0,0,0,223.659,23a10.977,10.977,0,0,0-5.566-3.455,7.624,7.624,0,0,0,3.576-2.893,7.919,7.919,0,0,0,1.331-4.5A7.045,7.045,0,0,0,219.9,6.127Zm-6.53,10.852a6.991,6.991,0,0,1-4.236,1.074H205.5V9.191h4a6.292,6.292,0,0,1,4.016,1.05,4.045,4.045,0,0,1,1.282,3.32A4,4,0,0,1,213.369,16.98ZM209.987,32.7H205.5V23.3h4.492q6.861,0,6.861,4.736,0,4.663-6.861,4.663h0Zm57.127-20.654a16.068,16.068,0,0,0-6.543-6.3,20.9,20.9,0,0,0-10.034-2.295,20.558,20.558,0,0,0-10.62,2.527,16.088,16.088,0,0,0-6.323,6.519,18.361,18.361,0,0,0-2.051,8.508,17.729,17.729,0,0,0,2.2,8.716,16.135,16.135,0,0,0,6.446,6.348,20.652,20.652,0,0,0,10.2,2.368A21.009,21.009,0,0,0,260.6,36.1a16.24,16.24,0,0,0,6.543-6.323,17.622,17.622,0,0,0,2.246-8.814A17.744,17.744,0,0,0,267.114,12.048Zm-25.537,3.723a8.647,8.647,0,0,1,3.516-3.552,10.867,10.867,0,0,1,5.346-1.27A10.583,10.583,0,0,1,255.9,12.3a9.03,9.03,0,0,1,3.5,3.626,10.514,10.514,0,0,1,1.2,4.98,9.673,9.673,0,0,1-2.82,7.336,10.239,10.239,0,0,1-7.385,2.7,10.73,10.73,0,0,1-5.2-1.245,8.8,8.8,0,0,1-3.564-3.528,10.435,10.435,0,0,1-1.27-5.164A10.933,10.933,0,0,1,241.577,15.771Zm58.836-9.045q-3.174-2.832-9.033-2.832H277.2V38h8.594V24.255h1.538a7.3,7.3,0,0,1,2.759.452,5.908,5.908,0,0,1,2.173,1.721,19.916,19.916,0,0,1,2.368,3.882L298.582,38h9.4l-4.443-8.594A31,31,0,0,0,300.755,25a9.546,9.546,0,0,0-2.783-2.356,9.348,9.348,0,0,0,4.211-3.418,9.06,9.06,0,0,0,1.4-5.029A9.529,9.529,0,0,0,300.413,6.726Zm-6.982,11a7.1,7.1,0,0,1-4.053.964h-3.589V9.753h3.735q5.3,0,5.3,4.541A3.884,3.884,0,0,1,293.431,17.724ZM349.068,38L334.078,3.845h-8.96L310.274,38h8.789l3.272-7.861h14.648l3.3,7.861h8.789ZM334.713,24.646H324.581l5.054-12.4ZM384.979,11v-7.1H351.972V11H364.13V38h8.594V11h12.255Zm15.135,27V3.894h-8.593V38h8.593Zm43.358-25.952a16.074,16.074,0,0,0-6.543-6.3A20.9,20.9,0,0,0,426.9,3.454a20.562,20.562,0,0,0-10.621,2.527,16.088,16.088,0,0,0-6.323,6.519,18.361,18.361,0,0,0-2.051,8.508,17.73,17.73,0,0,0,2.2,8.716,16.126,16.126,0,0,0,6.445,6.348,20.654,20.654,0,0,0,10.2,2.368,21.006,21.006,0,0,0,10.2-2.344,16.234,16.234,0,0,0,6.543-6.323,17.622,17.622,0,0,0,2.246-8.814A17.753,17.753,0,0,0,443.472,12.048Zm-25.537,3.723a8.639,8.639,0,0,1,3.515-3.552,10.871,10.871,0,0,1,5.347-1.27,10.582,10.582,0,0,1,5.456,1.355,9.033,9.033,0,0,1,3.5,3.626,10.525,10.525,0,0,1,1.2,4.98,9.673,9.673,0,0,1-2.82,7.336,10.239,10.239,0,0,1-7.385,2.7,10.726,10.726,0,0,1-5.2-1.245,8.8,8.8,0,0,1-3.565-3.528,10.445,10.445,0,0,1-1.269-5.164A10.933,10.933,0,0,1,417.935,15.771Zm62.3,9.387L461.1,3.894h-7.544V38H462V16.809L481.092,38h7.641V3.894h-8.5V25.158Z"/>
</svg>
