<svg xmlns="http://www.w3.org/2000/svg" width="284" height="24" viewBox="0 0 284 24">
  <defs>
    <style>
      .cls-1 {
        fill: #282929;
        fill-rule: evenodd;
      }
    </style>
  </defs>
  <path id="WORK_SHOP" data-name="WORK SHOP" class="cls-1" d="M11.943,13.764L7.026,0.9h-5.6L10.4,22.717h2.845L19.349,8.538l6.046,14.179h2.8L37.3,0.9H31.765L26.725,13.764,21.437,0.9H17.324Zm51.147-7.7a10.178,10.178,0,0,0-4.144-3.989A13.238,13.238,0,0,0,52.591.621a13.021,13.021,0,0,0-6.726,1.6,10.188,10.188,0,0,0-4,4.128,11.627,11.627,0,0,0-1.3,5.389,11.23,11.23,0,0,0,1.392,5.52,10.218,10.218,0,0,0,4.082,4.02,13.08,13.08,0,0,0,6.463,1.5,13.3,13.3,0,0,0,6.463-1.484,10.281,10.281,0,0,0,4.144-4,11.158,11.158,0,0,0,1.423-5.582A11.239,11.239,0,0,0,63.09,6.064ZM46.917,8.422a5.475,5.475,0,0,1,2.227-2.25,6.884,6.884,0,0,1,3.386-.8,6.7,6.7,0,0,1,3.456.858,5.723,5.723,0,0,1,2.219,2.3,6.664,6.664,0,0,1,.758,3.154,6.126,6.126,0,0,1-1.786,4.646A6.484,6.484,0,0,1,52.5,18.031a6.792,6.792,0,0,1-3.293-.789,5.573,5.573,0,0,1-2.258-2.234,6.612,6.612,0,0,1-.8-3.27A6.925,6.925,0,0,1,46.917,8.422Zm37.9-5.729A8.311,8.311,0,0,0,79.092.9H70.108V22.5h5.443V13.795h0.974a4.625,4.625,0,0,1,1.747.286,3.736,3.736,0,0,1,1.376,1.09,12.607,12.607,0,0,1,1.5,2.459l2.5,4.871h5.953l-2.814-5.443a19.624,19.624,0,0,0-1.763-2.791,6.046,6.046,0,0,0-1.763-1.492,5.92,5.92,0,0,0,2.667-2.165,5.739,5.739,0,0,0,.889-3.185A6.036,6.036,0,0,0,84.813,2.693ZM80.39,9.659a4.494,4.494,0,0,1-2.567.611H75.551V4.61h2.366q3.355,0,3.355,2.876A2.459,2.459,0,0,1,80.39,9.659Zm19.063,1.183V0.9H94.011V22.5h5.443V12.017L108.5,22.5h6.788l-10-11.457L113.694,0.9h-6.076Zm41.1-9.764a13.583,13.583,0,0,0-3.518-.456,9.074,9.074,0,0,0-3.95.789,5.859,5.859,0,0,0-2.5,2.149,5.593,5.593,0,0,0-.858,3.046,5.511,5.511,0,0,0,.8,3.007,7.1,7.1,0,0,0,1.9,2.041,23.259,23.259,0,0,0,2.683,1.6,18.172,18.172,0,0,1,2.543,1.407,3.916,3.916,0,0,1,1.09,1.028A2,2,0,0,1,139,16.733a1.722,1.722,0,0,1-.711,1.4,3.275,3.275,0,0,1-2.072.564,10.222,10.222,0,0,1-6.324-2.6v4.886a15.43,15.43,0,0,0,7.02,1.794,9.484,9.484,0,0,0,3.919-.773,6.148,6.148,0,0,0,2.675-2.2,5.786,5.786,0,0,0,.951-3.293,5.445,5.445,0,0,0-.765-2.961,7.291,7.291,0,0,0-2.01-2.087,30,30,0,0,0-3.41-1.987,11.862,11.862,0,0,1-2.6-1.608,1.923,1.923,0,0,1-.665-1.423,1.68,1.68,0,0,1,.649-1.384,3.028,3.028,0,0,1,1.918-.518,9.777,9.777,0,0,1,5.984,2.4V2.322A11.469,11.469,0,0,0,140.556,1.077Zm14.958,8.187V0.9h-5.443V22.5h5.443V13.795h10.452V22.5h5.443V0.9h-5.443V9.264H155.514Zm43.988-3.2a10.173,10.173,0,0,0-4.144-3.989A13.238,13.238,0,0,0,189,.621a13.022,13.022,0,0,0-6.726,1.6,10.181,10.181,0,0,0-4,4.128,11.626,11.626,0,0,0-1.3,5.389,11.237,11.237,0,0,0,1.391,5.52,10.222,10.222,0,0,0,4.082,4.02,13.082,13.082,0,0,0,6.464,1.5,13.307,13.307,0,0,0,6.463-1.484,10.286,10.286,0,0,0,4.144-4,11.161,11.161,0,0,0,1.422-5.582A11.236,11.236,0,0,0,199.5,6.064ZM183.329,8.422a5.472,5.472,0,0,1,2.226-2.25,6.887,6.887,0,0,1,3.387-.8,6.7,6.7,0,0,1,3.455.858,5.723,5.723,0,0,1,2.219,2.3,6.663,6.663,0,0,1,.758,3.154,6.125,6.125,0,0,1-1.786,4.646,6.485,6.485,0,0,1-4.677,1.709,6.794,6.794,0,0,1-3.294-.789,5.572,5.572,0,0,1-2.257-2.234,6.613,6.613,0,0,1-.8-3.27A6.919,6.919,0,0,1,183.329,8.422Zm38.143-5.8A8.969,8.969,0,0,0,215.627.9H206.52V22.5h5.443V14.011h3.927a9.358,9.358,0,0,0,4.26-.874,6.014,6.014,0,0,0,2.575-2.343,6.491,6.491,0,0,0,.85-3.309A5.935,5.935,0,0,0,221.472,2.623Zm-6.788,7.693h-2.721V4.61h2.5a4.294,4.294,0,0,1,2.7.68,2.659,2.659,0,0,1,.843,2.2q0,2.83-3.325,2.83h0Z"/>
</svg>
