<svg xmlns="http://www.w3.org/2000/svg" width="300" height="34" viewBox="0 0 300 34">
  <defs>
    <style>
      .cls-1 {
        fill: #292929;
        fill-rule: evenodd;
      }
    </style>
  </defs>
  <path id="YOUTUBE" class="cls-1" d="M40.937,11.3l-7.5-10.175H24.967l12.2,16.464V32.5h7.906V17.451L57.086,1.122H48.528ZM94.548,8.624a14.785,14.785,0,0,0-6.02-5.795A19.23,19.23,0,0,0,79.3.718a18.914,18.914,0,0,0-9.77,2.325,14.8,14.8,0,0,0-5.817,6,16.89,16.89,0,0,0-1.887,7.828,16.312,16.312,0,0,0,2.022,8.018,14.841,14.841,0,0,0,5.93,5.84A19,19,0,0,0,79.162,32.9a19.327,19.327,0,0,0,9.389-2.156,14.936,14.936,0,0,0,6.019-5.817,16.21,16.21,0,0,0,2.066-8.108A16.327,16.327,0,0,0,94.548,8.624ZM71.054,12.049a7.953,7.953,0,0,1,3.234-3.268,10,10,0,0,1,4.919-1.168,9.736,9.736,0,0,1,5.02,1.247A8.312,8.312,0,0,1,87.45,12.2a9.68,9.68,0,0,1,1.1,4.582,8.9,8.9,0,0,1-2.594,6.75,9.42,9.42,0,0,1-6.794,2.482,9.867,9.867,0,0,1-4.784-1.146A8.1,8.1,0,0,1,71.1,21.618a9.6,9.6,0,0,1-1.168-4.75A10.058,10.058,0,0,1,71.054,12.049Zm43.223,12.073a8.343,8.343,0,0,1-1.965-5.975V1.122h-7.906v17.43q0,6.783,4.054,10.568T119.994,32.9q7.367,0,11.443-3.762t4.077-10.725V1.122h-7.929V18.237q0,4.043-1.954,6a7.631,7.631,0,0,1-5.637,1.954A7.519,7.519,0,0,1,114.277,24.122ZM172.505,7.658V1.122H142.137V7.658h11.186V32.5h7.906V7.658h11.276Zm16.472,16.464a8.343,8.343,0,0,1-1.965-5.975V1.122h-7.907v17.43q0,6.783,4.055,10.568T194.693,32.9q7.368,0,11.444-3.762t4.077-10.725V1.122h-7.929V18.237q0,4.043-1.954,6a7.633,7.633,0,0,1-5.638,1.954A7.517,7.517,0,0,1,188.977,24.122ZM240.533,3.177q-2.851-2.055-7.838-2.055h-13.32V32.5h13.612q5.883,0,9.287-1.977t3.4-6.806a7.833,7.833,0,0,0-1.685-5.02,10.1,10.1,0,0,0-5.121-3.178,7.017,7.017,0,0,0,3.291-2.662,7.285,7.285,0,0,0,1.224-4.144A6.48,6.48,0,0,0,240.533,3.177Zm-6.008,9.984a6.43,6.43,0,0,1-3.9.988h-3.347V6h3.684a5.79,5.79,0,0,1,3.695.966,3.723,3.723,0,0,1,1.179,3.055A3.679,3.679,0,0,1,234.525,13.161Zm-3.111,14.465h-4.133V18.979h4.133q6.312,0,6.312,4.357,0,4.29-6.312,4.29h0ZM275.031,6.737V1.122H253.558V32.5H275.39V26.885H261.464V19.248h12.96V13.633h-12.96v-6.9h13.567Z"/>
</svg>
