<svg xmlns="http://www.w3.org/2000/svg" width="483" height="107.093"><path d="M2.862 56.824c-1.231.269-1.637.526-1.016.835.856.424 1.629.32 3.847.384 1.607.046 3.632.013 5.269.022-.38.122-4.331.254-4.692.289a12.756 12.756 0 00-3.234.729c-.049.013-1.59.337-1.586.328a13.645 13.645 0 001.664.511c.911.4 1.945.867 1.863 1.225-.029.128-.365.3-.49.429.7.116.724.225.082.326a1.842 1.842 0 00-.652.22c-.107.251-.316.743 1.65.906 1.4.116 5.985-.017 7.571-.01a14.724 14.724 0 01-1.449.432 3.934 3.934 0 00-2.181.125q-.006-.178-1.094-.258c-1.4.455-5.343.707-2.033 1.237 2.589.414 7.53.253 10.975.261 6.514.014 13.061-.007 19.578-.015l18.987-.024c1.282 0 4.469-.108 5.542-.015 2.039.177.6.44 3.521.516 1.775.046 4.021 0 5.823.007a14.4 14.4 0 01-1.432.426 3.937 3.937 0 00-2.177.126q0-.179-1.1-.26c-1.3.423-4.988.64-2.464 1.157 2.4.491 7.232.338 10.788.336 6.126 0 12.263.026 18.39 0 12.212-.047 24.574-.054 36.788-.017 24.686.072 49.469-.013 74.164-.024 49.195-.023 98.565.111 147.739-.079 13.788-.054 27.744-.06 41.533-.019 6.843.02 14.536.111 21.289-.037 2.87-.063 8.445-.279 8.944-.777.207-.208-.942-.7-1.3-.9-.786-.457-1.022-.421-4.524-.469 1.976-.491 4.945-.289 3.394-.926a7.388 7.388 0 00-1.543-.473 13.622 13.622 0 00-1.65-.321c12.776.155 25.829.224 38.646.277 6.217.026 13.369.26 19.424.033 3.3-.124 7.2-.281 7.277-.828.029-.183-.585-.778-1.053-.937-.929-.315-2.052-.292-4.549-.326.925-.229 3.63-.261 4.19-.524.466-.219-.8-.52-1.358-.718a30.739 30.739 0 00-6.732-1.132 11 11 0 001.867-.515 1.2 1.2 0 00.427-.338q1.022 0 1.871-.083c1.475-.234 2.778-.075 2.085-.508-.5-.31-.525-.2-2.854-.36-1.325-.089-2.526-.32-3.773-.383-.654-.033-3.416.044-4.128.041-2.228-.011-4.723-.028-7.111-.053-9.772-.1-20.052-.293-29.931-.258a919.472 919.472 0 01-15.1-.077c-4.694-.063-9.805-.046-14.526-.144-4.7-.1-9.852-.094-14.526-.144-2.452-.027-4.848.083-7.109-.053a19.713 19.713 0 01-2.22-.188 14.694 14.694 0 00-3.387-.5 11.48 11.48 0 002.025-.609c1.836-.507-.441-.066 1.414-.275.562-.063 2.764-.128 3.012-.183-.051.011-.26-.415-.2-.377-.521-.331.913-.027-1.453-.281-1.49-.159-4.647-.39-6.1-.43-2.458-.068-6.143-.037-8.564-.032-3.55.008-6.984 0-10.423.032-12.815.124-25.954.032-38.905.032-25.357 0-51.1-.063-76.458-.064-26.057 0-51.753.006-77.806.064-6.135.013-12.686.035-18.987 0-6.272-.036-12.924.044-19.243-.032-12.591-.152-25.667.04-38.23-.032-7.126-.04-14.395 0-21.359 0-7.191 0-14.358-.015-21.361 0-7.487.016-14.926-.04-22.29.032-3.545.034-7.134-.03-10.681 0-2.1.018-11.471.687-6.705 1.085-5.109-.4-1.648.92-1.215 1.1.581.245 1.539.519 1.578.74.047.277-1.527.449-.263.745zm60.776-36c-.93.269-1.237.526-.767.835.647.424 1.231.32 2.907.384 1.214.046 2.744.013 3.982.022-.287.122-3.273.254-3.546.289a7.734 7.734 0 00-2.444.729c-.037.013-1.2.337-1.2.328-.031.1 1.056.394 1.257.511.688.4 1.47.867 1.408 1.225-.022.128-.276.3-.371.429.526.116.547.225.062.326a1.191 1.191 0 00-.493.22c-.081.251-.239.743 1.247.906 1.059.116 4.523-.017 5.721-.01a9.2 9.2 0 01-1.095.432c-.611-.3-1.172.026-1.648.125q0-.178-.826-.258c-1.057.455-4.037.707-1.537 1.237 1.957.414 5.69.253 8.294.261 4.923.014 9.87-.007 14.795-.015l14.348-.024c.969 0 3.377-.108 4.188-.015 1.541.177.451.44 2.661.516 1.341.046 3.039 0 4.4.007a9 9 0 01-1.082.426c-.614-.3-1.171.027-1.645.126q0-.179-.828-.26c-.983.423-3.769.64-1.862 1.157 1.813.491 5.465.338 8.152.336 4.63 0 9.267.026 13.9 0 9.229-.047 18.57-.054 27.8-.017 18.655.072 37.384-.013 56.045-.024 37.176-.023 74.485.111 111.646-.079 10.419-.054 20.966-.06 31.386-.019 5.171.02 10.985.111 16.088-.037 2.169-.063 6.382-.279 6.759-.777.157-.208-.712-.7-.98-.9-.594-.457-.772-.421-3.419-.469 1.493-.491 3.737-.289 2.565-.926a4.655 4.655 0 00-1.166-.473 8.118 8.118 0 00-1.247-.321c9.655.155 19.519.224 29.2.277 4.7.026 10.1.26 14.678.033 2.493-.124 5.439-.281 5.5-.828.022-.183-.442-.778-.8-.937-.7-.315-1.55-.292-3.437-.326.7-.229 2.743-.261 3.166-.524.352-.219-.6-.52-1.026-.718a18.182 18.182 0 00-5.087-1.132 6.806 6.806 0 001.411-.515 1.014 1.014 0 00.323-.338 12.164 12.164 0 001.414-.083c1.115-.234 2.1-.075 1.575-.508-.375-.31-.4-.2-2.157-.36-1-.089-1.909-.32-2.851-.383-.495-.033-2.582.044-3.119.041a751.586 751.586 0 01-5.374-.053c-7.385-.1-15.153-.293-22.618-.258a525.25 525.25 0 01-11.412-.077c-3.548-.063-7.41-.046-10.977-.144-3.549-.1-7.445-.094-10.977-.144-1.853-.027-3.664.083-5.372-.053a11.358 11.358 0 01-1.678-.188 8.633 8.633 0 00-2.56-.5 7.2 7.2 0 001.53-.609c1.388-.507-.333-.066 1.068-.275.425-.063 2.089-.128 2.276-.183-.039.011-.2-.415-.152-.377-.394-.331.69-.027-1.1-.281-1.126-.159-3.512-.39-4.613-.43-1.857-.068-4.642-.037-6.472-.032-2.682.008-5.278 0-7.876.032-9.684.124-19.614.032-29.4.032-19.162 0-38.615-.063-57.779-.064-19.691 0-39.109.006-58.8.064-4.636.013-9.587.035-14.348 0-4.74-.036-9.766.044-14.542-.032-9.515-.152-19.4.04-28.89-.032-5.385-.04-10.878 0-16.141 0-5.434 0-10.85-.015-16.142 0-5.658.016-11.28-.04-16.844.032-2.679.034-5.391-.03-8.072 0-1.589.018-8.669.687-5.067 1.085-3.861-.4-1.245.92-.918 1.1.439.245 1.163.519 1.192.74.047.277-1.142.449-.187.745zm-34.034 76c-1.072.269-1.426.526-.884.835.745.424 1.418.32 3.35.384 1.4.046 3.162.013 4.588.022-.331.122-3.771.254-4.086.289a9.924 9.924 0 00-2.816.729 63.65 63.65 0 01-1.381.328 10.784 10.784 0 001.449.511c.793.4 1.694.867 1.622 1.225-.025.128-.318.3-.427.429.606.116.631.225.071.326a1.474 1.474 0 00-.568.22c-.093.251-.275.743 1.436.906 1.22.116 5.211-.017 6.592-.01a11.607 11.607 0 01-1.261.432 3.007 3.007 0 00-1.9.125q-.005-.178-.952-.258c-1.218.455-4.652.707-1.77 1.237 2.255.414 6.556.253 9.556.261 5.672.014 11.373-.007 17.047-.015l16.532-.024c1.117 0 3.891-.108 4.825-.015 1.776.177.52.44 3.066.516 1.545.046 3.5 0 5.07.007a11.351 11.351 0 01-1.247.426 3.009 3.009 0 00-1.9.126q0-.179-.954-.26c-1.133.423-4.343.64-2.146 1.157 2.088.491 6.3.338 9.393.336 5.334 0 10.678.026 16.012 0 10.633-.047 21.4-.054 32.032-.017 21.5.072 43.074-.013 64.576-.024 42.835-.023 85.823.111 128.64-.079 12.005-.054 24.157-.06 36.164-.019 5.958.02 12.657.111 18.537-.037 2.5-.063 7.353-.279 7.787-.777.18-.208-.82-.7-1.129-.9-.684-.457-.89-.421-3.939-.469 1.72-.491 4.305-.289 2.955-.926a5.846 5.846 0 00-1.343-.473 10.521 10.521 0 00-1.436-.321c11.124.155 22.49.224 33.65.277 5.413.026 11.641.26 16.913.033 2.873-.124 6.267-.281 6.337-.828.025-.183-.509-.778-.917-.937-.809-.315-1.786-.292-3.961-.326.806-.229 3.16-.261 3.648-.524.406-.219-.693-.52-1.183-.718a23.659 23.659 0 00-5.861-1.132 8.633 8.633 0 001.626-.515 1.09 1.09 0 00.372-.338 16.126 16.126 0 001.629-.083c1.285-.234 2.419-.075 1.815-.508-.432-.31-.457-.2-2.485-.36-1.154-.089-2.2-.32-3.285-.383-.57-.033-2.975.044-3.594.041a997.49 997.49 0 01-6.192-.053c-8.509-.1-17.459-.293-26.061-.258-4.23.017-8.859-.011-13.149-.077-4.088-.063-8.538-.046-12.648-.144-4.089-.1-8.579-.094-12.648-.144-2.135-.027-4.221.083-6.19-.053a15 15 0 01-1.933-.188 11.275 11.275 0 00-2.949-.5 9.063 9.063 0 001.763-.609c1.6-.507-.384-.066 1.231-.275.489-.063 2.406-.128 2.623-.183-.045.011-.227-.415-.175-.377-.454-.331.795-.027-1.265-.281-1.3-.159-4.046-.39-5.315-.43-2.14-.068-5.349-.037-7.457-.032-3.091.008-6.081 0-9.075.032-11.158.124-22.6.032-33.876.032-22.079 0-44.493-.063-66.574-.064-22.688 0-45.062.006-67.747.064-5.342.013-11.046.035-16.532 0-5.461-.036-11.253.044-16.755-.032-10.964-.152-22.349.04-33.288-.032-6.2-.04-12.534 0-18.6 0-6.262 0-12.5-.015-18.6 0-6.519.016-13-.04-19.409.032-3.087.034-6.212-.03-9.3 0-1.831.018-9.988.687-5.838 1.085-4.448-.4-1.435.92-1.058 1.1.506.245 1.34.519 1.374.74.048.277-1.322.449-.222.745z" fill="#fed438" fill-rule="evenodd"/><path d="M75.058 4.633c-1.82 0-3.22 0-4.732-.112a16.313 16.313 0 00.252 2.912c.056.308.14.5.364.476a59.52 59.52 0 014.424-.168l7.224-.028a34.345 34.345 0 01-5.264 7.028 34.011 34.011 0 01-9.856 7.14 7.671 7.671 0 012.352 1.82.626.626 0 00.476.252 1.773 1.773 0 00.644-.224 40.284 40.284 0 009.408-7.392 50.967 50.967 0 017.28 6.944.575.575 0 00.392.224.484.484 0 00.336-.168 15 15 0 001.876-1.9.693.693 0 00.2-.42.637.637 0 00-.224-.392 65.834 65.834 0 00-7.756-6.776 44.185 44.185 0 003.584-5.236 5.128 5.128 0 011.032-1.236.773.773 0 00.364-.56.746.746 0 00-.14-.364 10.207 10.207 0 00-1.82-1.96.925.925 0 00-.476-.224.467.467 0 00-.308.112 4.112 4.112 0 01-1.932.252zm21.42 10.7a32.2 32.2 0 002.6 2.464.577.577 0 00.392.2.636.636 0 00.5-.364 9.187 9.187 0 011.12-1.428c1.932-2.128 3.192-3.64 4.564-5.068a.585.585 0 01.448-.224.693.693 0 01.448.2 126.861 126.861 0 0012.4 9.772.466.466 0 00.308.112c.14 0 .28-.112.42-.308a16.407 16.407 0 001.456-2.436.488.488 0 00-.252-.756 88.922 88.922 0 01-12.544-9.1 3.24 3.24 0 00-2.436-1.148c-.868 0-1.4.308-2.52 1.484a283.55 283.55 0 01-4.06 4.228 12.891 12.891 0 01-2.844 2.368zm19.628-11.844a2.953 2.953 0 00-3.024 3 2.988 2.988 0 003.024 3 2.988 2.988 0 003.024-3 2.988 2.988 0 00-3.024-3.004zm0 1.344a1.6 1.6 0 011.652 1.652 1.6 1.6 0 01-1.652 1.652 1.6 1.6 0 01-1.652-1.652 1.6 1.6 0 011.652-1.656zm10.836 7.084a24.551 24.551 0 015.656 3.052.542.542 0 00.336.168c.112 0 .224-.112.364-.28a11.4 11.4 0 001.232-2.128.831.831 0 00.112-.308c0-.168-.112-.28-.308-.42a19.432 19.432 0 00-5.376-2.744c-.252-.056-.392.084-.532.28-.336.444-.784 1.256-1.484 2.376zm3.388-6.58a27.08 27.08 0 015.432 3.444.721.721 0 00.42.2.312.312 0 00.28-.168 11.985 11.985 0 001.428-2.1.678.678 0 00.112-.364.443.443 0 00-.224-.364 19.035 19.035 0 00-5.264-3.108c-.336-.168-.5-.112-.7.224-.476.72-1.008 1.504-1.484 2.232zm-1.176 15.956a17.683 17.683 0 002.072 2.856.72.72 0 00.56.336.62.62 0 00.448-.224 9.2 9.2 0 011.624-.952 65 65 0 008.372-5.264 52.165 52.165 0 007.112-6.468.871.871 0 00.308-.644 1.369 1.369 0 00-.14-.532 13.984 13.984 0 01-.812-3.136 50.953 50.953 0 01-8.064 7.812 46.9 46.9 0 01-7.672 4.844 12.946 12.946 0 01-3.808 1.372zm35.532-6.076l1.316 5.18c.392 1.568.784 3.108 1.12 4.676.112.476.336.5.7.42a9.47 9.47 0 001.848-.56.545.545 0 00.364-.756c-.42-1.568-.812-2.94-1.288-4.7l-1.288-5.068 5.4-1.428a20.213 20.213 0 01-2.968 4.284 7.484 7.484 0 012.24.84.8.8 0 00.42.14.53.53 0 00.42-.252 33.213 33.213 0 003.164-5.264 2.154 2.154 0 01.448-.588.816.816 0 00.308-.56.628.628 0 00-.224-.42 15.11 15.11 0 00-1.652-1.4.882.882 0 00-.476-.252.484.484 0 00-.336.168 3.084 3.084 0 01-1.4.616l-6.076 1.54-.532-2.1a4.567 4.567 0 01-.168-2.016c.056-.392-.14-.56-.588-.56-.728 0-2.128.168-3.276.308a10.661 10.661 0 011.152 2.828l.616 2.352-1.68.448a33.419 33.419 0 01-4.256.924 15.7 15.7 0 00.98 2.464c.14.28.28.392.476.392a1.537 1.537 0 00.5-.14 22.726 22.726 0 013.08-1.092zm35.14-6.384c0-2.016 0-2.576.252-3.108a1.792 1.792 0 00.224-.7c0-.224-.14-.392-.5-.476a26.72 26.72 0 00-3.5-.588 22.358 22.358 0 01.28 4.872v8.76c0 1.428.028 1.764-.168 2.128a.86.86 0 00-.112.42 1.117 1.117 0 00.252.588 8.085 8.085 0 001.68 1.708 1.194 1.194 0 00.588.224.889.889 0 00.56-.224 9.3 9.3 0 01.812-.588 46.5 46.5 0 004.976-3.356 35.393 35.393 0 004.144-3.668c.308-.308.42-.5.42-.7a1.394 1.394 0 00-.168-.476 8.072 8.072 0 01-.868-2.828 26.87 26.87 0 01-4.9 4.76 28.465 28.465 0 01-3.976 2.6zm-9.772-3.108a7.531 7.531 0 01.28 2.352c-.028 4.48-.392 6.02-1.176 7.924a13.9 13.9 0 01-4.648 5.572 9.922 9.922 0 012.38 1.176.952.952 0 00.532.224 1.27 1.27 0 00.728-.364 14.424 14.424 0 003.976-5.264 20.956 20.956 0 001.512-8.232 4.039 4.039 0 01.336-1.9c.168-.392.112-.728-.364-.868a22.637 22.637 0 00-3.556-.62zm35.392-.028a7.292 7.292 0 01.2-2.632 1.473 1.473 0 00.224-.644c0-.224-.14-.392-.532-.476a20.667 20.667 0 00-3.5-.448 21.365 21.365 0 01.28 4.144v13.776c0 1.792-.028 3.444-.112 5.516 0 .336.14.42.532.42a18.5 18.5 0 002.492 0c.392 0 .532-.084.5-.42-.056-2.016-.112-3.668-.112-5.488v-6.188a31.011 31.011 0 017.364 3.584.429.429 0 00.308.14c.14 0 .252-.112.364-.308a16.457 16.457 0 001.2-2.436c.14-.364 0-.56-.308-.728a39.5 39.5 0 00-8.9-3.808zm34.524 9.744c2.072 0 4.144.028 6.244.056.392.028.5-.084.5-.42a20.638 20.638 0 000-2.632c0-.336-.084-.42-.5-.392-2.156.028-4.312.084-6.44.084h-9.016a35.972 35.972 0 01-6.048-.336 30.39 30.39 0 00.42 3.392c.084.42.308.588.644.588a22.39 22.39 0 014.116-.34zm25.256-9.24c.336-.5.616-.924.924-1.4a3.038 3.038 0 01.7-.756.558.558 0 00.308-.476.584.584 0 00-.28-.476 13.774 13.774 0 00-3.276-1.484 11.958 11.958 0 01-1.652 3.784 33.212 33.212 0 01-7.532 8.316 7.6 7.6 0 012.688 1.2.672.672 0 00.42.168.87.87 0 00.588-.308 39 39 0 005.292-5.74l6.776-.2a28.526 28.526 0 01-5.18 7.952 32.257 32.257 0 01-9.324 7.14 7.369 7.369 0 012.66 1.288.987.987 0 00.644.308.757.757 0 00.448-.14 35.564 35.564 0 008.512-6.972 38.592 38.592 0 005.544-8.652 3.372 3.372 0 01.924-1.2.807.807 0 00.336-.588.907.907 0 00-.364-.644 12.916 12.916 0 00-1.9-1.512.813.813 0 00-.448-.168.563.563 0 00-.364.112 2.6 2.6 0 01-1.4.34zm32.172-.42c1.708 0 3.024.056 3.948.056.42.028.5-.084.5-.56a14.217 14.217 0 000-2.184c0-.308-.084-.448-.336-.448-1.092.056-2.576.14-4.4.14h-5.04a38.576 38.576 0 01-4.592-.2 24.4 24.4 0 00.14 2.688c.028.448.112.616.392.616a56.81 56.81 0 013.836-.112zm2.128 5.992c-2.016 5.404-6.58 9.268-11.756 11.676a8.208 8.208 0 012.6 1.456.914.914 0 00.616.336 1.345 1.345 0 00.56-.2c5.404-2.908 8.624-6.408 11.424-12.372a3.207 3.207 0 01.952-1.316.675.675 0 00.308-.532.825.825 0 00-.28-.588 16.526 16.526 0 00-1.88-1.74.721.721 0 00-.42-.2.6.6 0 00-.364.168 3.08 3.08 0 01-1.484.308h-9.6a49.552 49.552 0 01-5.152-.224 21.226 21.226 0 00.308 2.828c.056.364.168.532.42.532 1.4-.084 2.8-.112 4.2-.112zm27.636-2.18a44.323 44.323 0 003.276-3.528 9.225 9.225 0 011.68-1.54.8.8 0 00.392-.616.5.5 0 00-.224-.42 24.911 24.911 0 00-3.108-1.96 8.116 8.116 0 01-1.764 2.884 45.428 45.428 0 01-5.964 5.852 44.948 44.948 0 01-8.82 5.74 10.481 10.481 0 012.408 1.648.78.78 0 00.588.28.79.79 0 00.42-.112 48.44 48.44 0 007.7-5.376v6.524c0 1.9-.084 3.724-.112 5.74-.028.336.084.448.392.448a23.354 23.354 0 002.8 0c.308 0 .448-.112.42-.476-.056-2.24-.084-3.892-.084-5.824zm30.884-1.2a23.568 23.568 0 01-4.732 7.98 27.061 27.061 0 01-9.156 7 8.325 8.325 0 012.6 1.54.982.982 0 00.7.308 1.355 1.355 0 00.756-.252 31.4 31.4 0 007.956-6.676 32.973 32.973 0 005.432-9.1 3.371 3.371 0 01.644-1.092.955.955 0 00.392-.7.7.7 0 00-.2-.476 8.617 8.617 0 00-2.044-1.848 1.369 1.369 0 00-.532-.14.79.79 0 00-.42.112 2.678 2.678 0 01-1.54.28h-10a49 49 0 01-5.376-.2c.056.812.168 2.268.252 2.828.056.392.168.588.532.56 1.2-.056 2.8-.14 4.62-.14zm2.212-5.684a13.894 13.894 0 012.828 3.248.292.292 0 00.476.084l1.036-.756a.282.282 0 00.084-.448 12.887 12.887 0 00-2.66-3c-.168-.14-.28-.168-.42-.056zm2.436-1.736a13.246 13.246 0 012.8 3.22.3.3 0 00.252.2.335.335 0 00.224-.112l.924-.756c.224-.2.2-.336.084-.5a11.693 11.693 0 00-2.66-2.884c-.168-.14-.252-.168-.42-.056zm24.052 16.148a11.685 11.685 0 00-2.24-.224c-2.828 0-4.9 1.652-4.9 3.948 0 2.408 1.792 3.92 5.012 3.92 3.3 0 4.9-1.288 5.124-3.64a16.628 16.628 0 013.028 2.24.387.387 0 00.252.14.339.339 0 00.252-.168 15.126 15.126 0 001.288-2.156c.14-.308.112-.392-.14-.56a18.324 18.324 0 00-4.652-2.688c-.14-2.408-.2-4.368-.2-7.5a31.552 31.552 0 004.312-.588c.2-.028.308-.168.308-.42a11.194 11.194 0 00-.168-1.988c-.056-.308-.112-.42-.448-.336-1.2.2-2.66.392-3.976.5 0-1.288 0-2.016.056-2.968a3.159 3.159 0 01.224-.98 1.2 1.2 0 00.168-.476c0-.252-.2-.392-.5-.476a15.587 15.587 0 00-3.388-.532 11.543 11.543 0 01.364 2.744c0 1.036.028 1.932.028 2.94a40.505 40.505 0 01-6.384-.084 17.154 17.154 0 00.2 2.548c.028.28.14.364.5.364a56.62 56.62 0 005.768.028c.028 2.212.056 4.256.112 6.412zm.056 2.66a3.943 3.943 0 01.028.56c0 1.008-.9 1.82-2.3 1.82-1.652 0-2.268-.532-2.268-1.4s.784-1.344 2.1-1.344a7.8 7.8 0 012.44.364zM393.81 2.225a14.09 14.09 0 01-.2 3.3 60.821 60.821 0 00-1.14 10.616 26.082 26.082 0 001.2 8.54c.14.392.252.42.56.336a11.726 11.726 0 002.1-.476c.252-.084.364-.168.336-.364a5.288 5.288 0 01.028-1.484 16.6 16.6 0 011.428-4.256.813.813 0 00.168-.448.6.6 0 00-.168-.392 7.446 7.446 0 01-.98-1.764c-.588 1.4-1.176 2.6-1.736 3.892-.084-1.176-.084-2.464-.084-3.584a55.6 55.6 0 011.4-10.192 5.683 5.683 0 01.5-1.54 1.429 1.429 0 00.2-.616c0-.224-.112-.392-.42-.56a21.863 21.863 0 00-3.192-1.008zM19.128 43.781c1.708 0 3.024.056 3.948.056.42.028.5-.084.5-.56a14.217 14.217 0 000-2.184c0-.308-.084-.448-.336-.448-1.092.056-2.576.14-4.4.14H13.8a38.576 38.576 0 01-4.592-.2 24.4 24.4 0 00.14 2.688c.028.448.112.616.392.616a56.81 56.81 0 013.836-.112zm2.128 5.992c-2.016 5.4-6.58 9.268-11.76 11.676a8.208 8.208 0 012.6 1.456.914.914 0 00.616.336 1.345 1.345 0 00.56-.2c5.4-2.912 8.624-6.412 11.424-12.376a3.207 3.207 0 01.952-1.316.675.675 0 00.308-.532.825.825 0 00-.28-.588 16.528 16.528 0 00-1.876-1.736.721.721 0 00-.42-.2.6.6 0 00-.364.168 3.08 3.08 0 01-1.484.308h-9.6a49.552 49.552 0 01-5.152-.224 21.226 21.226 0 00.308 2.828c.056.364.168.532.42.532 1.4-.084 2.8-.112 4.2-.112zm27.776-.532c-1.372 0-3.444-.028-5.432-.2a12.379 12.379 0 00.28 2.548c.084.448.168.672.532.644 1.372-.112 3.444-.112 4.452-.112h4.984a11.55 11.55 0 01-1.232 4.648 12.4 12.4 0 01-5.236 5.18 11.538 11.538 0 012.968 1.064 1.063 1.063 0 00.5.168.869.869 0 00.476-.2 13.32 13.32 0 004.452-5.236 15.2 15.2 0 001.4-5.628h3.444c2.044 0 3.668.028 5.432.084.336 0 .336-.112.364-.5a19.911 19.911 0 000-2.24c-.028-.308-.028-.448-.308-.448-1.26.056-3.64.2-5.4.2h-3.472c0-.952 0-1.6.028-2.212a2.7 2.7 0 01.2-.952 1.394 1.394 0 00.168-.476.415.415 0 00-.364-.392 8.3 8.3 0 00-1.82-.364 73.845 73.845 0 005.068-1.232c.588-.14 1.176-.392 1.764-.476.448-.028.728-.084.728-.392a1.089 1.089 0 00-.364-.784 13.612 13.612 0 00-2.3-1.96 8.023 8.023 0 01-2.408 1.26 34.8 34.8 0 01-4.62 1.2A52.914 52.914 0 0145 43.469a7.6 7.6 0 011.428 1.932c.112.308.28.672.7.616a63.463 63.463 0 006.636-.9c.084.56.112.924.14 1.288.028.812.056 1.932.056 2.828zm26.572-.336a16.551 16.551 0 012.632 4.508c.14.392.308.532.7.392a11.622 11.622 0 001.792-.868c.224-.14.336-.224.336-.392a1.894 1.894 0 00-.112-.42 14.994 14.994 0 00-2.408-4.144.5.5 0 00-.728-.2c-.588.284-1.26.592-2.212 1.124zm5.628-1.428a19.05 19.05 0 012.352 4.48c.14.392.252.532.56.42a11.564 11.564 0 001.932-.868c.364-.2.42-.336.28-.756a16.17 16.17 0 00-2.156-4.088.492.492 0 00-.728-.224c-.476.196-1.12.504-2.24 1.036zm8.82-.672a10.088 10.088 0 01-.644 2.968 28.992 28.992 0 01-3.78 6.748 24.345 24.345 0 01-6.72 5.824 6.321 6.321 0 012.38 1.176.641.641 0 00.448.2 1.216 1.216 0 00.672-.308 22.423 22.423 0 005.768-5.4 34.142 34.142 0 004.228-7.448 3.858 3.858 0 01.84-1.428c.224-.2.308-.336.308-.5s-.14-.308-.364-.476a13.315 13.315 0 00-3.136-1.356zm24.164-3.22c.476-.728.644-1.008.868-1.4a2.34 2.34 0 01.588-.588.757.757 0 00.336-.56.491.491 0 00-.308-.448 17.634 17.634 0 00-3.276-1.372 10.329 10.329 0 01-1.512 3.444 31.239 31.239 0 01-7.924 8.792 11.666 11.666 0 012.352 1.288.641.641 0 00.448.2 1 1 0 00.56-.252 33.813 33.813 0 005.992-6.3l6.944-.14a26.994 26.994 0 01-3.276 5.544 28.076 28.076 0 00-3.612-2.24.727.727 0 00-.28-.112.529.529 0 00-.364.2c-.644.588-1.232 1.316-1.848 1.988a23.407 23.407 0 014.032 2.632 33.954 33.954 0 01-10.3 7.588 7.956 7.956 0 012.66 1.428.84.84 0 00.532.252 1.524 1.524 0 00.7-.252 34.122 34.122 0 008.932-7 31.032 31.032 0 012.716 2.716.486.486 0 00.308.168.582.582 0 00.336-.14 17.21 17.21 0 001.736-1.764.542.542 0 00.168-.364.553.553 0 00-.168-.392 24.891 24.891 0 00-3.024-2.828 43.7 43.7 0 004.116-6.776 3.512 3.512 0 01.84-1.064.717.717 0 00.308-.532.684.684 0 00-.224-.5 9.071 9.071 0 00-1.9-1.708.964.964 0 00-.5-.224.819.819 0 00-.476.2 2.74 2.74 0 01-1.54.42zm35.84-3.276a13.664 13.664 0 012.52 3.5c.112.2.252.252.448.14l1.26-.756a.3.3 0 00.14-.448 13.186 13.186 0 00-2.38-3.248c-.14-.14-.252-.168-.392-.084zm2.744-1.6a13.449 13.449 0 012.492 3.472.3.3 0 00.476.14l1.176-.756a.339.339 0 00.14-.5 12.394 12.394 0 00-2.38-3.136c-.14-.14-.224-.2-.392-.084zm-8.036 5.572c1.54 0 3.192.028 4.7.084.308 0 .364-.14.364-.532a12.455 12.455 0 000-2.044c0-.364-.056-.532-.336-.532-1.4.084-3.164.112-4.732.112h-5.152c-1.26 0-2.688-.028-4.648-.14.084 1.008.112 2.016.2 2.688.028.336.112.476.476.476 1.568-.056 2.688-.112 3.976-.112zm4.144 6.5c1.932 0 3.864.056 5.32.112.252 0 .42-.112.42-.476a27.68 27.68 0 000-2.156c0-.392-.028-.56-.308-.56a77.137 77.137 0 01-5.46.168h-12.572c-1.624 0-3.192 0-4.76-.14a16.847 16.847 0 00.224 2.688c.028.364.112.56.364.532 1.428-.084 2.8-.168 4.2-.168h5.32a11.893 11.893 0 01-1.428 6.02c-1.176 2.128-2.828 3.5-5.572 4.984a7.355 7.355 0 012.492 1.484.825.825 0 00.588.28 1.705 1.705 0 00.84-.336 14.1 14.1 0 004.928-5.292 15.994 15.994 0 001.652-7.14zm14.056-1.876a16.551 16.551 0 012.632 4.508c.14.392.308.532.7.392a11.623 11.623 0 001.792-.868c.224-.14.336-.224.336-.392a1.894 1.894 0 00-.112-.42 14.994 14.994 0 00-2.408-4.144.5.5 0 00-.728-.2c-.588.284-1.26.592-2.212 1.124zm5.628-1.428a19.05 19.05 0 012.352 4.48c.14.392.252.532.56.42a11.564 11.564 0 001.932-.868c.364-.2.42-.336.28-.756a16.17 16.17 0 00-2.156-4.088.492.492 0 00-.728-.224c-.476.196-1.12.504-2.24 1.036zm8.82-.672a10.087 10.087 0 01-.642 2.968 28.993 28.993 0 01-3.78 6.748 24.345 24.345 0 01-6.72 5.824 6.321 6.321 0 012.38 1.176.641.641 0 00.448.2 1.216 1.216 0 00.672-.308 22.423 22.423 0 005.768-5.4 34.143 34.143 0 004.228-7.448 3.858 3.858 0 01.84-1.428c.224-.2.308-.336.308-.5s-.14-.308-.364-.476a13.315 13.315 0 00-3.138-1.356zm26.658-3.024c1.708 0 3.024.056 3.948.056.42.028.5-.084.5-.56a14.217 14.217 0 000-2.184c0-.308-.084-.448-.336-.448-1.092.056-2.576.14-4.4.14h-5.04a38.576 38.576 0 01-4.592-.2 24.4 24.4 0 00.14 2.688c.028.448.112.616.392.616a56.81 56.81 0 013.836-.112zm2.128 5.992c-2.016 5.4-6.58 9.268-11.76 11.676a8.208 8.208 0 012.6 1.456.914.914 0 00.616.336 1.345 1.345 0 00.56-.2c5.4-2.912 8.624-6.412 11.424-12.376a3.207 3.207 0 01.952-1.316.675.675 0 00.308-.532.825.825 0 00-.28-.588 16.526 16.526 0 00-1.874-1.736.721.721 0 00-.42-.2.6.6 0 00-.364.168 3.08 3.08 0 01-1.484.308h-9.6a49.552 49.552 0 01-5.152-.224 21.225 21.225 0 00.308 2.828c.056.364.168.532.42.532 1.4-.084 2.8-.112 4.2-.112zm19.066-9.88a12.529 12.529 0 01.728 3.248 42.494 42.494 0 001.456 6.832c-3.276 2.072-5.32 4.116-5.32 7.224 0 3.64 2.8 5.376 8.092 5.376a59.834 59.834 0 008.344-.42c.336-.028.532-.168.5-.476a24.724 24.724 0 00-.28-2.6c-.056-.336-.2-.392-.5-.336a48.9 48.9 0 01-8.54.644c-3.22 0-4.452-.7-4.452-2.352 0-1.316.868-2.632 3.3-4.228a38.964 38.964 0 016.58-3.276 13.436 13.436 0 012.688-.84c.392-.056.56-.28.56-.56a1.134 1.134 0 00-.2-.588 14.378 14.378 0 00-2.044-2.632 6.926 6.926 0 01-1.924 1.504c-1.568.84-2.576 1.372-3.976 2.128a39.37 39.37 0 01-.9-4.816c-.056-.644-.14-1.316-.14-1.876 0-.392.2-.784.2-1.176 0-.224-.168-.364-.5-.448a16.2 16.2 0 00-3.672-.332zm36.6 9.688a13.837 13.837 0 01-.728 1.6h-.168c-2.66 0-3.584-.056-3.752-.056-.28 0-.308.028-.308.308v1.512c0 .28.028.308.308.308.14 0 .756-.028 2.408-.056a15.474 15.474 0 01-3.332 2.6v-7.172c0-1.988.056-2.968.056-3.136 0-.28-.028-.308-.308-.308-.168 0-.672.056-2.3.056h-2.24c-1.624 0-2.128-.056-2.3-.056-.308 0-.336.028-.336.308 0 .2.056 1.148.056 3.136v2.38c0 6.916-.56 9.072-1.876 11.508a5.23 5.23 0 011.516 1.288c.252.28.392.42.532.42s.28-.168.448-.532a16.959 16.959 0 001.6-6.384h2.74v3.528c0 .644-.2.84-.868.84-.476 0-.84-.028-1.512-.084a5.1 5.1 0 01.644 1.68c.168.84.168.868 1.036.868a4.162 4.162 0 002.436-.532 2.5 2.5 0 00.728-2.156c0-1.036-.056-2.436-.056-3.64v-1.68a7.008 7.008 0 01.868 1.12c.252.42.364.588.532.588.14 0 .336-.14.644-.364a19.563 19.563 0 004.312-4.28h4.4a17.635 17.635 0 004.2 4.4c.308.224.476.364.616.364.168 0 .28-.2.476-.644a6.278 6.278 0 01.952-1.54 15.022 15.022 0 01-3.3-2.576c1.652.028 2.3.056 2.464.056.252 0 .28-.028.28-.308v-1.52c0-.28-.028-.308-.28-.308-.2 0-1.092.056-3.752.056h-.308a11.27 11.27 0 01-.924-1.6h.364c2.548 0 3.416.056 3.584.056.28 0 .308-.028.308-.308v-1.452c0-.28-.028-.308-.308-.308-.14 0-.784.056-2.464.056a9.572 9.572 0 00.718-1.124 1.328 1.328 0 01.392-.476c.14-.112.252-.224.252-.364s-.112-.224-.308-.28a19.776 19.776 0 00-2.212-.588 5.27 5.27 0 01-.392 1.176 13.2 13.2 0 01-.9 1.652h-1.6c.084-.252.14-.56.252-.924a3.3 3.3 0 01.364-1.12.7.7 0 00.224-.5c0-.168-.2-.28-.476-.336a18.07 18.07 0 00-2.3-.336 16.357 16.357 0 01-.2 2.016c-.084.42-.2.812-.308 1.2h-.532a17.2 17.2 0 00-1.26-2.492c-.168-.252-.252-.252-.588-.14l-1.288.42c-.336.112-.392.2-.224.448.308.56.616 1.148.9 1.764-1.008-.028-1.428-.056-1.54-.056-.28 0-.308.028-.308.308v1.456c0 .28.028.308.308.308.168 0 1.008-.056 3.584-.056zm-10.588 5.512l.084-2.716h2.52v2.716zm2.6-7.588v2.632h-2.516v-2.632zm9.8 3.668a10.049 10.049 0 00.616-1.6h.98c.2.56.42 1.092.644 1.6zm-12.176-10.5c-2.492 0-3.332-.056-3.5-.056-.308 0-.308.028-.308.308v1.82c0 .28 0 .308.308.308.168 0 1.008-.056 3.5-.056h3.164c-.028.728-.056 1.092-.056 1.2 0 .308.028.336.336.336h2.1c.308 0 .336-.028.336-.336 0-.112-.056-.476-.056-1.2h5.264c0 .476-.028.728-.028.812 0 .308.028.336.308.336h2.128c.28 0 .308-.028.308-.336 0-.084-.028-.336-.056-.812h3.388c2.492 0 3.36.056 3.528.056.28 0 .308-.028.308-.308v-1.82c0-.28-.028-.308-.308-.308-.168 0-1.036.056-3.528.056h-3.388a3.042 3.042 0 01.14-1.232c.056-.168.14-.252.14-.42 0-.14-.14-.224-.364-.252-.784-.084-1.82-.14-2.716-.168a15.92 15.92 0 01.168 2.072h-5.292a3.227 3.227 0 01.14-1.26 1.1 1.1 0 00.14-.392c0-.14-.14-.224-.392-.252a37.373 37.373 0 00-2.688-.168 12.056 12.056 0 01.14 2.072zm14.252 15.82a4.743 4.743 0 01.112-1.568.688.688 0 00.14-.42c0-.14-.14-.252-.448-.28-.7-.084-1.4-.14-2.408-.2a14.709 14.709 0 01.168 2.632v4.508c0 .56-.224.7-.812.7-.532 0-.98-.056-1.708-.112a5.258 5.258 0 01.532 1.624c.112.7.224.728.924.728 1.624 0 2.324-.14 2.828-.532.644-.476.728-1.176.728-2.128 0-.644-.056-1.288-.056-2.492zm1.4 2.24l-.9.7c-.308.252-.336.308-.14.532a19.253 19.253 0 003.584 2.884 1.33 1.33 0 00.616.28c.2 0 .308-.168.56-.532a9.4 9.4 0 011.176-1.344 15.676 15.676 0 01-3.976-2.548c.308-.28.616-.56.924-.9a1.353 1.353 0 01.56-.392c.2-.084.308-.168.308-.308a.477.477 0 00-.224-.364 14.9 14.9 0 00-1.9-1.26 4.224 4.224 0 01-.644.98 5.475 5.475 0 01-1.176 1.232 12.491 12.491 0 011.176.952zm-7.42-1.876c-.308.224-.308.308-.112.5a14.878 14.878 0 011.26 1.54 21.469 21.469 0 01-2.24 1.2 9.849 9.849 0 01-1.456.5c.336.784.7 1.512 1.036 2.128.14.224.224.252.308.252.112 0 .2-.084.28-.2a2.819 2.819 0 01.7-.5c.784-.392 1.652-.9 2.632-1.512.448-.28.616-.42.616-.672a2.426 2.426 0 00-.224-.728 12.25 12.25 0 01-.336-.924l.42-.336c.308-.252.364-.308.168-.56a16.131 16.131 0 00-1.372-1.552c-.112-.112-.2-.168-.28-.168-.056 0-.14.056-.28.168zm22.288-14.336h7.9a18.879 18.879 0 01-.84 2.408h-1.01c-2.6 0-3.5-.056-3.7-.056-.28 0-.308.028-.308.28 0 .2.056.924.056 2.716v4.424c0 1.736-.056 2.492-.056 2.66 0 .28.028.308.308.308.2 0 1.092-.056 3.7-.056h2.21v5.208c0 .7-.224 1.064-1.12 1.064a20.939 20.939 0 01-2.436-.168 7.493 7.493 0 01.728 1.932c.168.924.168.9 1.036.9 2.52 0 3.164-.224 3.808-.7a2.564 2.564 0 00.924-2.408c0-1.036-.084-2.184-.084-3.5v-2.328h2.1c2.632 0 3.556.056 3.7.056.308 0 .336-.028.336-.308 0-.168-.056-.924-.056-2.66v-4.424c0-1.792.056-2.548.056-2.716 0-.252-.028-.28-.336-.28-.14 0-1.064.056-3.7.056h-3.166a21.643 21.643 0 00.924-2.408h4.48c2.632 0 3.584.056 3.752.056.28 0 .308-.028.308-.308v-2.016c0-.308-.028-.336-.308-.336-.168 0-1.092.056-3.724.056H283.14c-2.66 0-3.612-.056-3.752-.056-.308 0-.336.028-.336.336 0 .168.056 1.96.056 5.936a44.069 44.069 0 01-.7 9.24 19.179 19.179 0 01-2.3 6.132 8.262 8.262 0 011.764 1.568c.252.308.392.476.5.476.14 0 .252-.2.448-.56a25.8 25.8 0 002.36-6.552 47.772 47.772 0 00.84-10.276zm14.364 10.528h-9.492v-1.932h9.492zm-9.492-5.964h9.492v1.848h-9.492zm-5.908 14.476a5.1 5.1 0 011.624 1.316c.308.336.448.5.616.5.14 0 .308-.168.616-.448a18.67 18.67 0 003.444-4.312 4.436 4.436 0 01.56-.812c.168-.14.308-.224.308-.448 0-.168-.2-.28-.448-.42a11.981 11.981 0 00-2.408-.98 6.668 6.668 0 01-.756 1.708 13.768 13.768 0 01-3.556 3.896zm14.392-4.536c-.364.168-.42.252-.28.532a17.108 17.108 0 004.256 5.264c.28.252.448.364.588.364.168 0 .308-.14.56-.5a10.167 10.167 0 011.57-1.684 13.384 13.384 0 01-4.452-4.676c-.14-.252-.2-.28-.532-.14zm16.94-17.024a18.616 18.616 0 01.28 5.124c-.14 3.36-.392 7.392-.392 12.1 0 4.284 1.68 5.712 5.264 5.712a16 16 0 0010.612-4.2c.448-.392.56-.616.56-.868a1.84 1.84 0 00-.224-.672 9.734 9.734 0 01-.644-2.66c-3.416 3.64-7.308 5.152-9.8 5.152-2.24 0-2.576-.644-2.576-3.472 0-3.668.14-6.524.42-10.836a16.783 16.783 0 01.392-3.416 2.716 2.716 0 00.28-.924c0-.28-.2-.42-.672-.532a28.959 28.959 0 00-3.5-.508zm30.912 13.3a352.08 352.08 0 01-4.564 2.6 10.339 10.339 0 01-2.576.98c.42.924.98 2.1 1.288 2.6a.785.785 0 00.616.448.7.7 0 00.476-.2 5.075 5.075 0 01.9-.616 17.216 17.216 0 013.976 3.584c.252.364.364.588.672.56a11.381 11.381 0 002.072-.336c.476-.112.42-.532.42-.924 0-.644-.14-2.408-.224-3.64a144.222 144.222 0 01-.112-3.36 13.847 13.847 0 016.412-1.9c1.96 0 3.08 1.008 3.08 2.828a2.779 2.779 0 01-3.024 2.884 10.444 10.444 0 01-3.5-.5 4.893 4.893 0 01.84 2.38.751.751 0 00.616.84 10.852 10.852 0 002.3.252c3.78 0 6.076-2.1 6.076-5.684 0-3.36-2.492-5.572-5.964-5.6a17.672 17.672 0 00-6.888 1.54c.028-1.344.028-2.716.056-4.06a28.539 28.539 0 004-1.064c.28-.084.364-.168.364-.448a14.073 14.073 0 00-.168-2.184c-.028-.28-.224-.336-.476-.252a27.456 27.456 0 01-3.584 1.036c.028-.9.056-1.6.14-2.324a3.427 3.427 0 01.392-1.092.993.993 0 00.168-.448c0-.252-.224-.448-.56-.532a15.869 15.869 0 00-3.332-.5 10.352 10.352 0 01.2 2.268c0 1.2-.028 2.268-.028 3.192-1.176.112-2.38.224-3.556.224a14.3 14.3 0 01-2.184-.14c.112.98.224 1.9.308 2.436.056.42.2.588.672.588 1.876 0 3.3-.112 4.7-.224zm.14 2.94c.056.924.112 2.212.168 2.94.028.252-.056.28-.28.224a28.716 28.716 0 01-2.632-1.26c1.008-.728 1.96-1.372 2.746-1.904zm9.352-10.612a12.925 12.925 0 015.684 3.444c.084.14.476.112.56 0 .42-.56 1.148-1.428 1.512-1.988a.727.727 0 00.112-.28c0-.084-.056-.168-.168-.28a13.31 13.31 0 00-5.936-3.416c-.2-.056-.28.028-.476.336a17.178 17.178 0 00-1.288 2.184zm18.65-5.936a25.909 25.909 0 01-.224 3.192 59.184 59.184 0 00-.672 6.972 17.914 17.914 0 00.84 5.684c.056.2.2.392.392.364.7-.084 1.9-.252 2.24-.336a.393.393 0 00.364-.448 3.5 3.5 0 01.14-.84 22.922 22.922 0 011.65-3.588 1.319 1.319 0 00.28-.7.644.644 0 00-.168-.448 5.8 5.8 0 01-.868-1.82 144.273 144.273 0 01-1.96 3.584 28.286 28.286 0 01.084-3.08c.168-1.456.392-3.444.784-5.348a3.231 3.231 0 01.5-1.316.641.641 0 00.2-.448c0-.252-.168-.42-.532-.56a14.674 14.674 0 00-3.05-.864zm8.96.056a13.414 13.414 0 01.588 3.052c.2 1.792.336 4.7.336 6.692 0 4.424-.728 6.72-2.352 8.932a13.857 13.857 0 01-4.76 3.752 6.5 6.5 0 012.38 1.288.811.811 0 00.588.308.97.97 0 00.56-.2 15.429 15.429 0 004.62-4.508c1.484-2.3 2.128-5.74 2.128-9.716 0-2.016-.2-4.564-.392-7.224a9.913 9.913 0 01.056-1.288c.056-.476 0-.616-.56-.756a16.169 16.169 0 00-3.194-.332zm25.452 5.292a38.436 38.436 0 01-4.424.532 34.809 34.809 0 01-3.5.028 21.9 21.9 0 00.644 2.52c.084.336.2.5.448.5.7 0 1.988-.084 2.744-.14a57.517 57.517 0 005.4-.7 18.006 18.006 0 003.612 4.956 14.288 14.288 0 00-4.984-.756c-4.62 0-7.364 2.24-7.364 5.432 0 3.7 3.556 5.8 10.164 5.8a25 25 0 003.108-.2c.336-.056.448-.112.532-.392a17.108 17.108 0 00.588-3 27.7 27.7 0 01-4.48.392c-4.4 0-6.944-.868-6.944-2.968 0-1.764 1.764-2.632 4.676-2.632a12.8 12.8 0 015.936 1.428 9.23 9.23 0 011.148.728c.224.168.308.224.448.224.2 0 .336-.112.56-.42a11.19 11.19 0 001.092-1.82.885.885 0 00.168-.476c0-.14-.112-.224-.28-.364a7.69 7.69 0 01-.728-.616 31.889 31.889 0 01-4.284-5.908 44.692 44.692 0 005.572-1.624c.2-.056.308-.2.224-.476a12.157 12.157 0 00-.7-2.156c-.168-.308-.252-.336-.532-.2a43.094 43.094 0 01-5.852 1.736c-.364-.756-.616-1.428-.952-2.268a12.067 12.067 0 01-.448-1.4 3.676 3.676 0 01-.028-.784c0-.392-.224-.588-.952-.588a22.04 22.04 0 00-3.332.448 9.244 9.244 0 011.4 2.268c.45 1.076.842 1.888 1.318 2.896zm26.152 7.56c1.54-2.52 3.052-5.46 4.844-8.9a7.3 7.3 0 01.868-1.2.874.874 0 00.308-.56.731.731 0 00-.392-.588 16.222 16.222 0 00-3.136-1.568 16.8 16.8 0 01-1.4 4.088c-1.54 3.5-4.116 8.848-8.2 16.856a.834.834 0 00-.14.392.488.488 0 00.252.364 9.047 9.047 0 002.156 1.2c.364.112.5.056.672-.336a32.527 32.527 0 013.276-6.216c1.12-1.484 2.324-2.38 3.528-2.38.98 0 1.6.812 1.848 3.612.364 3.948 1.568 5.432 4.4 5.432a7 7 0 005.152-2.352 15.144 15.144 0 002.408-3.472.989.989 0 00.112-.476.768.768 0 00-.308-.588 6.792 6.792 0 01-1.624-2.324 13.86 13.86 0 01-2.828 4.564 3.578 3.578 0 01-2.632 1.344c-1.064 0-1.4-.924-1.624-2.968-.308-2.688-1.064-5.292-4.088-5.292a5.556 5.556 0 00-3.416 1.428zm35.812-7.672a6.36 6.36 0 016.272 6.5c0 5.292-3.724 7.252-8.456 8.372a5.939 5.939 0 011.96 1.764c.364.56.616.672 1.2.5 5.684-1.708 8.624-4.984 8.624-10.192 0-5.572-3.948-9.716-10.668-9.716a12.253 12.253 0 00-9.1 3.584 10.316 10.316 0 00-3.164 7.28c0 4.564 2.492 7.2 4.956 7.2 2.1 0 3.556-1.12 4.76-3.22 1.68-2.94 2.856-7.308 3.5-12.068zm-3.36.168a31.992 31.992 0 01-2.968 10.024c-.756 1.344-1.372 1.708-2.1 1.708-.868 0-1.9-1.428-1.9-4a8.063 8.063 0 012.184-5.18 8.433 8.433 0 014.782-2.556zM50.966 92.169c-.364.224-.392.28-.224.5a64.391 64.391 0 012.856 4.144c-2.772.308-5.768.588-8.624.812 1.344-2.912 2.576-6.02 3.584-8.708a4.215 4.215 0 01.728-1.344.684.684 0 00.224-.5c0-.224-.224-.364-.532-.476-.952-.28-1.9-.476-3-.728a17.524 17.524 0 01-.756 2.94 82.847 82.847 0 01-3.612 9.072c-.252 0-.532.028-.784.028-1.12.056-2.128.084-3.192.056a21.71 21.71 0 00.672 2.968c.084.28.224.448.42.448a.757.757 0 00.476-.2 2.288 2.288 0 011.064-.308c4.928-.42 10.024-.98 14.728-1.68.448.84.9 1.68 1.316 2.548.084.168.14.224.252.224a.776.776 0 00.336-.14l2.1-1.2c.392-.224.392-.28.252-.532a60.75 60.75 0 00-5.964-8.96c-.112-.112-.168-.168-.224-.168a.936.936 0 00-.336.14zm-.644-13.888c-.336.168-.392.2-.28.5a29.511 29.511 0 009.128 11.568c.28.224.448.364.588.364.168 0 .308-.2.532-.616a7.6 7.6 0 011.568-2.1 22.564 22.564 0 01-9.1-10.36c-.14-.28-.2-.308-.56-.14zM35.37 88.445a6.132 6.132 0 011.568 1.82c.252.42.364.616.532.616.14 0 .336-.14.644-.392a28.054 28.054 0 008.232-10.3 2.136 2.136 0 01.644-.868.467.467 0 00.252-.42c0-.2-.112-.336-.42-.476a17.637 17.637 0 00-2.772-.98 8.166 8.166 0 01-.588 1.82 21.327 21.327 0 01-8.092 9.18zm44.66-3.7a44.008 44.008 0 001.932 11.116c1.4 4.144 3.36 6.132 5.488 6.16 1.652.028 2.828-1.484 3.388-5.068.112-.868.112-.868-.7-1.316a9.063 9.063 0 01-1.82-1.26c-.168 2.548-.5 4.088-1.26 4.088-.84 0-1.708-1.624-2.52-4.144a35.417 35.417 0 01-1.6-9.576h3.332c2.548 0 3.416.056 3.584.056.28 0 .308-.028.308-.336v-2.208c0-.308-.028-.336-.308-.336-.168 0-1.036.056-3.584.056h-3.444v-1.232a9.453 9.453 0 01.14-2.828 1.81 1.81 0 00.168-.588c0-.168-.168-.308-.448-.336-.952-.112-2.044-.14-3.052-.168a26.689 26.689 0 01.224 4c0 .392.028.784.028 1.148H69.834c-2.548 0-3.416-.056-3.584-.056-.28 0-.28.028-.28.336v2.212c0 .308 0 .336.28.336.168 0 1.036-.056 3.584-.056zm-4.564 6.216c2.352 0 3.136.056 3.3.056.308 0 .336-.028.336-.28v-2.1c0-.308-.028-.336-.336-.336-.168 0-.952.056-3.3.056H70.51c-2.38 0-3.164-.056-3.332-.056-.28 0-.308.028-.308.336v2.1c0 .252.028.28.308.28.168 0 .952-.056 3.332-.056h.952v6.16l-2.688.5a15.334 15.334 0 01-2.688.336c.224.98.5 2.156.728 2.828.084.252.224.364.392.364a1.043 1.043 0 00.5-.2 3.746 3.746 0 011.176-.42c3.024-.644 7.224-1.792 10.024-2.716.84-.252.84-.252.84-1.176 0-.56.028-1.26.084-1.764-1.68.588-3.612 1.12-5.46 1.568v-5.476zm9.016-12.852c-.28.2-.336.28-.112.5a12.468 12.468 0 012.184 2.66c.084.14.168.224.252.224a.777.777 0 00.364-.168l1.316-.9c.336-.224.364-.336.2-.56a13.2 13.2 0 00-2.408-2.576c-.112-.112-.2-.168-.28-.168s-.168.056-.336.168zm15.288.308h-3.808v21.732h3.808zm9.688 6.356h-3.416v15.376h3.528v-10.08a4.709 4.709 0 013.584-2.6c1.372 0 2.128.812 2.128 2.576v10.104h3.612V89.061c0-2.968-1.848-4.62-4.4-4.62a6.265 6.265 0 00-5.04 3.024zm26.376 3.584c-.84-2.492-2.8-3.92-6.02-3.92-3.752 0-5.768 1.9-5.768 4.368 0 2.576 1.176 3.78 4.508 4.676l1.288.364c2.436.7 2.968 1.036 2.968 2.3 0 1.12-.784 1.988-2.8 1.988a3.242 3.242 0 01-3.22-2.576l-3.276 1.148c.98 2.688 3.164 3.836 6.412 3.836 4.172 0 6.216-1.988 6.216-4.732 0-2.492-1.26-3.752-4.76-4.676l-1.288-.336c-2.24-.588-2.744-1.092-2.744-2.3 0-.924.9-1.652 2.408-1.652a2.749 2.749 0 012.744 2.464zm9.436-8.6l-3.472.784v4.228h-2.3v2.584h2.3v9.072c0 2.828 1.372 4.088 4.284 4.088a18.5 18.5 0 002.744-.168l.14-2.52a8.067 8.067 0 01-1.796.168c-1.288 0-1.9-.672-1.9-2.212v-8.428h3.444v-2.576h-3.444zm10.7 9.772a2.929 2.929 0 012.94-2.688c1.848 0 2.66.784 2.66 2.716v.868a29.508 29.508 0 00-4.4.448c-3.332.644-5.012 2.38-5.012 5.068a4.367 4.367 0 004.732 4.564 5.759 5.759 0 004.844-2.38c.084.9.14 1.344.252 2.016h3.248a40.771 40.771 0 01-.252-4.536v-6.1c0-3.416-1.988-5.1-5.964-5.1-3.332 0-5.572 1.456-6.356 4.228zm5.6 5.936a4.191 4.191 0 01-3.59 2.528 2.178 2.178 0 01-2.464-2.324c0-1.372.868-2.212 2.52-2.6a15.993 15.993 0 013.528-.448zm22.484-12.824a4.391 4.391 0 00-4.452 2.52 7.15 7.15 0 00-3.276-.728c-3.528 0-6.02 1.96-6.02 4.928a4.584 4.584 0 002.184 4.06c-1.652 1.036-2.352 1.988-2.352 3.192 0 1.12.756 1.9 2.156 2.212-1.708.616-2.828 1.652-2.828 3 0 2.212 2.464 3.724 6.916 3.724 5.012 0 7.728-1.988 7.728-4.676 0-2.24-1.288-3.584-5.32-3.976l-3.472-.28c-1.764-.168-2.128-.476-2.128-1.12 0-.532.448-1.008 1.12-1.344a7.9 7.9 0 001.988.252c3.556 0 6.048-1.876 6.048-5.068a4.465 4.465 0 00-1.26-3.08 3.5 3.5 0 012.744-.784zm-7.734 3.872a2.667 2.667 0 012.8 2.828 2.7 2.7 0 01-2.8 3 2.7 2.7 0 01-2.8-3.024 2.66 2.66 0 012.8-2.804zm1.9 13.132c2.324.252 2.828.756 2.828 1.792 0 1.092-1.484 2.044-4.48 2.044-2.548 0-4.228-.784-4.228-2.128 0-.952.756-1.68 2.072-2.1zm18.312-15.2c-2.072 0-3.668 1.092-4.76 4.116v-3.78h-3.3v15.368h3.472v-8.512c.98-2.688 2.52-3.892 4.368-3.892zm7.168 5.1a2.929 2.929 0 012.94-2.688c1.848 0 2.66.784 2.66 2.716v.868a29.508 29.508 0 00-4.4.448c-3.332.644-5.012 2.38-5.012 5.068a4.367 4.367 0 004.732 4.564 5.759 5.759 0 004.85-2.388c.084.9.14 1.344.252 2.016h3.248a40.77 40.77 0 01-.252-4.536v-6.1c0-3.416-1.988-5.1-5.964-5.1-3.332 0-5.572 1.456-6.356 4.228zm5.6 5.936a4.191 4.191 0 01-3.58 2.512 2.178 2.178 0 01-2.464-2.324c0-1.372.868-2.212 2.52-2.6a15.993 15.993 0 013.528-.448zm12.6-10.7h-3.36v15.368h3.472v-10.08a4.226 4.226 0 013.332-2.6c1.232 0 1.9.812 1.9 2.576v10.104h3.472v-10.08c.728-1.54 2.016-2.6 3.22-2.6 1.372 0 2.128.84 2.128 2.576v10.104h3.536V89.061c0-2.968-1.708-4.62-4.2-4.62a5.921 5.921 0 00-4.872 3 3.644 3.644 0 00-3.78-3 5.846 5.846 0 00-4.844 3.024zm30.632-.336a56.184 56.184 0 01-3.3.42c-1.232.112-2.464.2-3.7.2a25.582 25.582 0 00.868 2.884.614.614 0 00.9.364 8.228 8.228 0 011.54-.448c.756-.14 1.652-.308 2.744-.476a59.041 59.041 0 01-5.124 10.968.521.521 0 00-.112.308.576.576 0 00.224.42 12.733 12.733 0 001.932 1.232.459.459 0 00.728-.252 77.328 77.328 0 005.628-13.16 18.548 18.548 0 012.352-.2c1.232 0 1.6.616 1.6 2.6a21.572 21.572 0 01-1.092 6.944c-.448 1.148-.868 1.484-1.792 1.484a8.4 8.4 0 01-3.08-.616 8 8 0 01.532 2.6.727.727 0 00.5.784 9.142 9.142 0 002.772.308 4.008 4.008 0 003.78-2.632 24.045 24.045 0 001.512-8.988c0-3.388-1.428-5.18-4.06-5.18a21.115 21.115 0 00-2.184.112c.364-1.176.644-2.212 1.008-3.36a3.543 3.543 0 01.56-1.064.583.583 0 00.2-.42.59.59 0 00-.448-.56 20.493 20.493 0 00-3.36-.924 19.059 19.059 0 01-.28 3.108c-.2.964-.396 1.944-.844 3.54zm9.968-.224a18.954 18.954 0 014.592 7.252c.084.336.364.364.644.224a11.427 11.427 0 002.1-1.4.4.4 0 00.112-.56 18.739 18.739 0 00-4.648-6.8c-.2-.2-.336-.252-.532-.14a23.744 23.744 0 00-2.264 1.42zm18.37-4.736a22.334 22.334 0 015.656 3.64c.14.14.224.2.336.2.084 0 .2-.084.308-.224a18.335 18.335 0 001.428-1.96.776.776 0 00.14-.336c0-.112-.056-.2-.2-.308a18.366 18.366 0 00-5.488-3.332.468.468 0 00-.532.14 15.336 15.336 0 00-1.648 2.18zm-1.96 3.892a17.448 17.448 0 01-.252 2.52c-.336 2.492-.7 5.8-.868 9.044 0 .392.112.448.392.56a19.248 19.248 0 001.9.756c.364.084.476.084.644-.2a7.661 7.661 0 011.2-1.54c2.632-2.66 5.6-4.256 8.064-4.256 2.408 0 3.36 1.372 3.36 2.884 0 1.792-1.036 3.248-3.3 4.228a23.233 23.233 0 01-7.7 1.568 7.163 7.163 0 011.9 2.38c.252.42.5.448 1.12.364a24.278 24.278 0 007.168-1.932c2.408-1.2 4.228-3.22 4.228-6.272 0-3.612-2.436-5.992-6.524-5.992-3.416 0-6.776 1.82-9.352 4.424a46.73 46.73 0 01.672-5.1 5.25 5.25 0 01.56-1.484.833.833 0 00.14-.42c0-.224-.14-.392-.448-.532a15.753 15.753 0 00-2.902-1zm48.748.7c0-3.808.056-5.8.056-5.992 0-.28-.028-.308-.308-.308-.2 0-1.12.056-3.724.056H308.48c-2.6 0-3.528-.056-3.724-.056-.28 0-.308.028-.308.308 0 .2.056 2.1.056 5.908v12.04c0 3.808-.056 5.656-.056 5.852 0 .28.028.308.308.308h2.436c.308 0 .336-.028.336-.308 0-.168-.056-1.82-.056-5.068V80.549h17.22v17.556c0 .672-.28.952-1.092.952a26 26 0 01-2.856-.168 8.3 8.3 0 01.784 2.212c.2.924.2.9 1.064.9 2.632 0 3.668-.308 4.228-.756a2.988 2.988 0 00.9-2.3c0-.952-.056-2.408-.056-4.844zm-14.642 14.308c.28 0 .308-.028.308-.308v-1.484h5.32v.9c0 .308.028.336.308.336h2.128c.28 0 .308-.028.308-.336 0-.168-.056-.84-.056-4.564v-2.356c0-1.736.056-2.464.056-2.632 0-.28-.028-.308-.308-.308-.2 0-.9.056-3.108.056h-4c-2.156 0-2.884-.056-3.08-.056-.28 0-.308.028-.308.308 0 .2.056.924.056 3.136v2.3c0 3.808-.056 4.508-.056 4.7 0 .28.028.308.308.308zm.308-8.232h5.32v3.976h-5.32zm5.628-4.788c2.464 0 3.332.056 3.5.056.28 0 .308-.028.308-.336v-2.072c0-.28-.028-.308-.308-.308-.168 0-1.036.056-3.5.056h-5.882c-2.464 0-3.3-.056-3.5-.056-.28 0-.308.028-.308.308v2.072c0 .308.028.336.308.336.2 0 1.036-.056 3.5-.056zm22.54-1.232c0-4.116.056-5.488.056-5.656 0-.28-.028-.308-.308-.308-.2 0-.728.056-2.408.056h-2.408c-1.68 0-2.212-.056-2.408-.056-.28 0-.308.028-.308.308 0 .168.056 1.652.056 6.72v6.1c0 7.028-.056 8.456-.056 8.624 0 .28.028.308.308.308h2.072c.252 0 .28-.028.28-.308v-2.208h2.576v1.232c0 .28.028.308.28.308h2.016c.28 0 .308-.028.308-.308 0-.168-.056-1.428-.056-8.4zm-5.122 11.032v-6.048h2.576v6.048zm2.574-14.392v5.8h-2.574v-5.8zm15.26 6.944c2.66 0 3.584.056 3.752.056.308 0 .336-.028.336-.336v-1.932c0-.28-.028-.308-.336-.308-.168 0-1.092.056-3.752.056h-2.968v-2.884h1.876c2.548 0 3.388.056 3.556.056.28 0 .308-.028.308-.308v-1.96c0-.308-.028-.336-.308-.336-.168 0-1.008.056-3.556.056h-1.876a6.5 6.5 0 01.14-2.1 1.557 1.557 0 00.168-.588c0-.14-.168-.252-.448-.28a33.3 33.3 0 00-2.884-.2 23.457 23.457 0 01.2 3.164h-1.316c-2.492 0-3.36-.056-3.528-.056-.308 0-.336.028-.336.336v1.96c0 .28.028.308.336.308.168 0 1.036-.056 3.528-.056h1.316v2.888h-2.016c-2.66 0-3.584-.056-3.752-.056-.308 0-.336.028-.336.308v1.932c0 .308.028.336.336.336.168 0 1.092-.056 3.752-.056zm-2.184 5.264v5.572c0 .644-.252.868-.924.868-.924 0-1.764-.028-2.744-.112a6.24 6.24 0 01.84 2.044c.2.84.224.84 1.064.84 2.1 0 3.024-.2 3.64-.616a2.6 2.6 0 00.98-2.38c0-.952-.028-2.156-.028-3.444v-2.772c1.9.028 2.66.056 2.8.056.308 0 .336-.028.336-.308v-1.96c0-.28-.028-.308-.336-.308-.14 0-.9.056-2.8.056a3.551 3.551 0 01.14-1.428.944.944 0 00.14-.476c0-.14-.168-.252-.476-.308a30.67 30.67 0 00-2.828-.252 20.8 20.8 0 01.2 2.464h-5.516c-2.66 0-3.556-.056-3.724-.056-.308 0-.336.028-.336.308v1.96c0 .28.028.308.336.308.168 0 1.064-.056 3.724-.056zm-7.56 1.764c-.336.2-.336.28-.14.5a23.444 23.444 0 012.464 3.444c.084.14.14.2.224.2s.168-.056.336-.168l1.708-1.176c.28-.2.308-.28.14-.532a22.394 22.394 0 00-2.576-3.22c-.224-.2-.308-.2-.588-.028zm21.924-14.672v2.688c-1.96 0-2.716-.056-2.856-.056-.28 0-.308.028-.308.28 0 .168.056 1.484.056 6.048v4.76c0 6.58-.056 7.84-.056 8.036 0 .28.028.308.308.308h1.764c.252 0 .28-.028.28-.308v-1.428h6.664v.924c0 .28.028.308.336.308h1.708c.28 0 .308-.028.308-.308 0-.168-.056-1.428-.056-7.84v-5.208c0-3.836.056-5.124.056-5.292 0-.252-.028-.28-.308-.28-.2 0-.9.056-2.856.056v-2.688h.224c2.408 0 3.248.056 3.416.056.28 0 .308-.028.308-.308v-1.988c0-.28-.028-.308-.308-.308-.168 0-1.008.056-3.416.056h-5.6c-2.436 0-3.248-.056-3.416-.056-.252 0-.28.028-.28.308v1.988c0 .28.028.308.28.308.168 0 .98-.056 3.416-.056zm3.024 4.9v4.42c0 .952.084 1.316.42 1.6.252.224.588.308 1.372.308h1.036v2.352h-6.666v-2.632a3.423 3.423 0 01.9 1.232c.112.252.224.364.336.364.084 0 .2-.084.28-.252a12.451 12.451 0 001.176-4.256c.084-.924.112-2.1.112-3.136zm-3.838 13.02v-2.016h6.664v2.016zm0-13.02h1.064c0 .84 0 1.736-.056 2.408a6.426 6.426 0 01-1.008 3.332zm6.664 0v4.06h-.42c-.28 0-.448-.028-.532-.2-.084-.14-.084-.308-.084-.952v-2.908zm-3.864-2.212v-2.688h1.036v2.688zm8.064-2.66c0 .252.028.28.308.28.168 0 .84-.056 2.912-.056h3.976v6.188h-4.256c-1.68 0-2.492-.056-2.66-.056-.308 0-.336.028-.336.336 0 .168.056 1.176.056 3.192v8.708a2.653 2.653 0 00.7 2.24c.588.532 1.708.728 4.368.728 2.632 0 3.976-.364 4.7-1.008.672-.616 1.2-1.484 1.372-4.032.056-.868.056-.868-.812-1.12a6.478 6.478 0 01-1.9-.784c-.112 2.268-.224 3.192-.644 3.668-.42.448-1.26.56-2.6.56-1.26 0-1.82-.084-2.1-.364-.224-.224-.252-.616-.252-1.26v-8.12h4.368v.952c0 .28.028.308.308.308h2.24c.308 0 .336-.028.336-.308 0-.168-.056-1.008-.056-3v-6.3c0-1.988.056-2.828.056-3 0-.28-.028-.308-.336-.308-.168 0-.868.056-2.94.056h-3.584c-2.072 0-2.744-.056-2.912-.056-.28 0-.308.028-.308.308zm26.266 22.092c.28 0 .308-.028.308-.308v-.924h8.762v.84c0 .252.028.28.308.28h2.324c.28 0 .308-.028.308-.28 0-.168-.056-.868-.056-3.7v-2.18c0-1.316.056-1.988.056-2.156 0-.252-.028-.28-.308-.28-.168 0-1.064.056-3.612.056h-6.69c-2.576 0-3.472-.056-3.668-.056-.28 0-.308.028-.308.28 0 .168.056.84.056 2.492v1.9c0 2.884-.056 3.584-.056 3.724 0 .28.028.308.308.308zm.308-6.272h8.762v2.66h-8.764zm-8.82 1.792c0 2.744-.056 4.088-.056 4.256 0 .28.028.308.28.308h2.324c.28 0 .308-.028.308-.308 0-.14-.056-1.512-.056-4.256v-14.9c.5-1.148.952-2.3 1.344-3.416a3.133 3.133 0 01.56-1.176.809.809 0 00.308-.5c0-.168-.14-.308-.476-.42a22.025 22.025 0 00-2.576-.756 9.927 9.927 0 01-.476 2.016 26.7 26.7 0 01-4.844 9.016 8.389 8.389 0 01.9 2.408c.084.308.168.476.308.476s.308-.112.5-.364a25.626 25.626 0 001.652-2.24zm18.564-13.412c2.744 0 3.668.056 3.836.056.308 0 .336-.028.336-.336v-1.96c0-.308-.028-.336-.336-.336-.168 0-1.092.056-3.836.056H402.67c-2.772 0-3.7-.056-3.864-.056-.28 0-.308.028-.308.336v1.96c0 .308.028.336.308.336.168 0 1.092-.056 3.864-.056zm-2.212-4.06c2.464 0 3.276.056 3.444.056.308 0 .336-.028.336-.308v-1.876c0-.28-.028-.308-.336-.308-.168 0-.98.056-3.444.056h-6.048c-2.492 0-3.332-.056-3.5-.056-.28 0-.308.028-.308.308v1.88c0 .28.028.308.308.308.168 0 1.008-.056 3.5-.056zm-.224 7.9c2.464 0 3.276.056 3.444.056.28 0 .308-.028.308-.28v-1.852c0-.28-.028-.308-.308-.308-.168 0-.98.056-3.444.056h-5.8c-2.464 0-3.3-.056-3.472-.056-.28 0-.308.028-.308.308v1.848c0 .252.028.28.308.28.168 0 1.008-.056 3.472-.056zm0 3.864c2.464 0 3.276.056 3.444.056.28 0 .308-.028.308-.308v-1.82c0-.28-.028-.308-.308-.308-.168 0-.98.056-3.444.056h-5.8c-2.464 0-3.3-.056-3.472-.056-.28 0-.308.028-.308.308v1.82c0 .28.028.308.308.308.168 0 1.008-.056 3.472-.056zm25.424-14.088h-4.37l.784 16.66h2.828zm-4.2 19.376v3.78h3.976v-3.78z" fill="#292929"/></svg>