<svg xmlns="http://www.w3.org/2000/svg" width="277" height="86.767"><path d="M18.145 76.498c-.613.269-.815.526-.506.835.426.424.811.32 1.916.384.8.046 1.809.013 2.624.022a21.385 21.385 0 01-2.337.289 3.968 3.968 0 00-1.61.729c-.025.013-.792.337-.79.328-.02.1.7.394.829.511.454.4.969.867.928 1.225-.014.128-.182.3-.244.429q.52.173.041.326a.71.71 0 00-.325.22c-.053.251-.157.743.822.906.7.116 2.981-.017 3.77-.01a5.1 5.1 0 01-.721.432c-.4-.3-.772.026-1.086.125q0-.178-.545-.258c-.7.455-2.661.707-1.013 1.237 1.29.414 3.75.253 5.466.261 3.244.014 6.5-.007 9.75-.015l9.456-.024a26.89 26.89 0 012.76-.015c1.016.177.3.44 1.753.516.884.046 2 0 2.9.007a4.986 4.986 0 01-.713.426c-.4-.3-.771.027-1.084.126q0-.179-.546-.26c-.648.423-2.484.64-1.227 1.157 1.195.491 3.6.338 5.373.336 3.051 0 6.107.026 9.159 0 6.082-.047 12.238-.054 18.321-.017 12.294.072 24.637-.013 36.936-.024 24.5-.023 49.088.111 73.578-.079a1501.3 1501.3 0 0120.685-.019c3.408.02 7.239.111 10.6-.037 1.43-.063 4.206-.279 4.454-.777.1-.208-.469-.7-.646-.9-.391-.457-.509-.421-2.253-.469.984-.491 2.463-.289 1.69-.926a2.627 2.627 0 00-.768-.473 3.983 3.983 0 00-.822-.321c6.363.155 12.864.224 19.247.277 3.1.026 6.658.26 9.673.033 1.643-.124 3.585-.281 3.624-.828a1.722 1.722 0 00-.524-.937c-.463-.315-1.022-.292-2.265-.326.461-.229 1.808-.261 2.087-.524.232-.219-.4-.52-.676-.718a8.735 8.735 0 00-3.353-1.132 3.687 3.687 0 00.93-.515.967.967 0 00.212-.338 5.325 5.325 0 00.932-.083c.735-.234 1.384-.075 1.038-.508-.247-.31-.262-.2-1.421-.36-.66-.089-1.258-.32-1.879-.383-.326-.033-1.7.044-2.056.041-1.11-.011-2.352-.028-3.542-.053-4.867-.1-9.986-.293-14.906-.258-2.42.017-5.067-.011-7.521-.077-2.338-.063-4.883-.046-7.234-.144s-4.907-.094-7.234-.144c-1.221-.027-2.415.083-3.541-.053a5.065 5.065 0 01-1.106-.188c-.688-.178-.524-.438-1.687-.5.578-.2.622-.394 1.009-.609.914-.507-.22-.066.7-.275.28-.063 1.376-.128 1.5-.183a1.094 1.094 0 01-.1-.377c-.26-.331.455-.027-.723-.281a27.286 27.286 0 00-3.04-.43c-1.224-.068-3.059-.037-4.265-.032-1.768.008-3.478 0-5.191.032-6.382.124-12.926.032-19.376.032-12.629 0-25.448-.063-38.078-.064-12.977 0-25.774.006-38.749.064-3.055.013-6.318.035-9.456 0s-6.436.044-9.584-.032c-6.271-.152-12.783.04-19.039-.032-3.549-.04-7.169 0-10.637 0-3.581 0-7.151-.015-10.638 0-3.729.016-7.434-.04-11.1.032-1.766.034-3.553-.03-5.32 0-1.047.018-5.713.687-3.339 1.085-2.544-.4-.821.92-.6 1.1.289.245.766.519.786.74.022.277-.762.449-.133.745zm-16.504-34c-.706.269-.939.526-.582.835.491.424.934.32 2.206.384.921.046 2.083.013 3.022.022-.218.122-2.484.254-2.691.289a4.907 4.907 0 00-1.854.729c-.028.013-.912.337-.91.328-.024.1.8.394.954.511.522.4 1.115.867 1.068 1.225-.016.128-.209.3-.281.429q.6.173.047.326a.828.828 0 00-.374.22c-.061.251-.181.743.946.906.8.116 3.432-.017 4.342-.01a6.114 6.114 0 01-.831.432c-.464-.3-.89.026-1.251.125q0-.178-.627-.258c-.8.455-3.064.707-1.166 1.237 1.485.414 4.318.253 6.294.261 3.736.014 7.491-.007 11.228-.015l10.889-.024c.735 0 2.563-.108 3.178-.015 1.17.177.342.44 2.019.516 1.018.046 2.306 0 3.339.007a5.976 5.976 0 01-.821.426c-.466-.3-.888.027-1.248.126q0-.179-.628-.26c-.746.423-2.86.64-1.413 1.157 1.376.491 4.148.338 6.187.336 3.514 0 7.033.026 10.546 0 7-.047 14.093-.054 21.1-.017 14.158.072 28.371-.013 42.533-.024 28.213-.023 56.527.111 84.728-.079 7.907-.054 15.911-.06 23.819-.019 3.924.02 8.337.111 12.209-.037 1.646-.063 4.843-.279 5.129-.777.119-.208-.54-.7-.744-.9-.451-.457-.586-.421-2.595-.469 1.133-.491 2.836-.289 1.946-.926a3.129 3.129 0 00-.885-.473 5.016 5.016 0 00-.946-.321c7.327.155 14.813.224 22.164.277 3.565.026 7.667.26 11.139.033 1.892-.124 4.128-.281 4.174-.828a1.674 1.674 0 00-.6-.937 5.635 5.635 0 00-2.609-.326c.531-.229 2.082-.261 2.4-.524.267-.219-.457-.52-.779-.718a11.1 11.1 0 00-3.861-1.132 4.457 4.457 0 001.071-.515.956.956 0 00.245-.338 7.037 7.037 0 001.073-.083c.846-.234 1.593-.075 1.2-.508-.285-.31-.3-.2-1.637-.36-.76-.089-1.448-.32-2.164-.383-.375-.033-1.959.044-2.367.041a432.48 432.48 0 01-4.078-.053c-5.6-.1-11.5-.293-17.165-.258-2.786.017-5.835-.011-8.66-.077-2.692-.063-5.623-.046-8.331-.144s-5.65-.094-8.331-.144c-1.406-.027-2.78.083-4.077-.053a6.641 6.641 0 01-1.273-.188c-.792-.178-.6-.438-1.943-.5a4.81 4.81 0 001.161-.609c1.053-.507-.253-.066.811-.275.322-.063 1.585-.128 1.727-.183a.981.981 0 01-.115-.377c-.3-.331.524-.027-.833-.281-.854-.159-2.665-.39-3.5-.43-1.41-.068-3.523-.037-4.911-.032-2.036.008-4.005 0-5.978.032-7.349.124-14.885.032-22.312.032-14.542 0-29.3-.063-43.849-.064-14.944 0-29.68.006-44.622.064-3.518.013-7.275.035-10.889 0-3.6-.036-7.412.044-11.036-.032-7.221-.152-14.72.04-21.925-.032-4.087-.04-8.256 0-12.249 0-4.124 0-8.234-.015-12.25 0-4.294.016-8.56-.04-12.783.032-2.033.034-4.091-.03-6.126 0-1.206.018-6.579.687-3.845 1.085-2.93-.4-.945.92-.7 1.1.333.245.883.519.9.74.029.277-.873.449-.149.745zm30.144-32c-.564.269-.75.526-.465.835.392.424.746.32 1.763.384.736.046 1.664.013 2.414.022a18.177 18.177 0 01-2.15.289 3.528 3.528 0 00-1.482.729 21.68 21.68 0 01-.727.328c-.019.1.64.394.762.511.417.4.891.867.854 1.225-.013.128-.167.3-.225.429q.478.173.038.326a.656.656 0 00-.3.22c-.049.251-.145.743.756.906.642.116 2.742-.017 3.469-.01a4.634 4.634 0 01-.664.432c-.37-.3-.711.026-1 .125q0-.178-.5-.258c-.641.455-2.448.707-.932 1.237 1.186.414 3.45.253 5.028.261 2.985.014 5.984-.007 8.97-.015l8.7-.024a22.764 22.764 0 012.539-.015c.934.177.274.44 1.613.516.813.046 1.843 0 2.668.007a4.529 4.529 0 01-.656.426c-.372-.3-.71.027-1 .126q0-.179-.5-.26c-.6.423-2.285.64-1.129 1.157 1.1.491 3.314.338 4.943.336 2.807 0 5.619.026 8.426 0 5.6-.047 11.259-.054 16.855-.017 11.311.072 22.666-.013 33.981-.024 22.54-.023 45.161.111 67.691-.079 6.317-.054 12.712-.06 19.03-.019 3.135.02 6.66.111 9.754-.037 1.315-.063 3.869-.279 4.1-.777.095-.208-.432-.7-.594-.9-.36-.457-.468-.421-2.073-.469.905-.491 2.266-.289 1.555-.926a2.4 2.4 0 00-.707-.473 3.5 3.5 0 00-.756-.321c5.854.155 11.834.224 17.707.277 2.848.026 6.126.26 8.9.033 1.512-.124 3.3-.281 3.334-.828a1.768 1.768 0 00-.482-.937c-.426-.315-.94-.292-2.084-.326.424-.229 1.663-.261 1.92-.524.214-.219-.365-.52-.622-.718a7.623 7.623 0 00-3.084-1.132 3.326 3.326 0 00.855-.515.983.983 0 00.2-.338 4.519 4.519 0 00.857-.083c.676-.234 1.273-.075.955-.508-.227-.31-.241-.2-1.308-.36-.607-.089-1.157-.32-1.729-.383-.3-.033-1.565.044-1.891.041a276.186 276.186 0 01-3.258-.053c-4.478-.1-9.187-.293-13.714-.258a193.11 193.11 0 01-6.919-.077c-2.151-.063-4.493-.046-6.656-.144s-4.514-.094-6.656-.144a32.061 32.061 0 01-3.257-.053 4.323 4.323 0 01-1.017-.188c-.633-.178-.482-.438-1.552-.5.532-.2.572-.394.928-.609.841-.507-.2-.066.648-.275.258-.063 1.266-.128 1.38-.183a1.171 1.171 0 01-.092-.377c-.239-.331.418-.027-.666-.281a23.222 23.222 0 00-2.8-.43c-1.126-.068-2.815-.037-3.924-.032-1.626.008-3.2 0-4.776.032-5.872.124-11.892.032-17.826.032-11.618 0-23.412-.063-35.032-.064-11.939 0-23.712.006-35.649.064-2.811.013-5.812.035-8.7 0s-5.921.044-8.817-.032c-5.769-.152-11.76.04-17.516-.032-3.265-.04-6.6 0-9.786 0-3.295 0-6.579-.015-9.787 0-3.43.016-6.839-.04-10.213.032-1.624.034-3.269-.03-4.894 0-.964.018-5.256.687-3.072 1.085-2.341-.4-.755.92-.557 1.1.266.245.705.519.723.74.018.277-.699.449-.12.745z" fill="#fed438" fill-rule="evenodd"/><path d="M43.785 2.647c-1.04 0-1.84 0-2.7-.064a9.322 9.322 0 00.144 1.664c.032.176.08.288.208.272.864-.064 1.7-.1 2.528-.1l4.128-.016a19.626 19.626 0 01-3.008 4.016 19.435 19.435 0 01-5.636 4.084 4.384 4.384 0 011.344 1.04.358.358 0 00.272.144 1.013 1.013 0 00.368-.128 23.019 23.019 0 005.376-4.224 29.124 29.124 0 014.16 3.968.329.329 0 00.224.128.277.277 0 00.192-.1 8.573 8.573 0 001.072-1.084.4.4 0 00.112-.24.364.364 0 00-.128-.224 37.62 37.62 0 00-4.432-3.872 25.249 25.249 0 002.048-2.992 2.93 2.93 0 01.592-.7.442.442 0 00.208-.32.426.426 0 00-.08-.208 5.833 5.833 0 00-1.04-1.12.529.529 0 00-.272-.128.267.267 0 00-.176.064 2.35 2.35 0 01-1.1.144zm12.24 6.112a18.4 18.4 0 001.488 1.408.33.33 0 00.224.112.363.363 0 00.288-.208 5.249 5.249 0 01.64-.816c1.1-1.216 1.824-2.08 2.608-2.9a.334.334 0 01.256-.128.4.4 0 01.256.112 72.493 72.493 0 007.088 5.588.267.267 0 00.176.064c.08 0 .16-.064.24-.176a9.375 9.375 0 00.832-1.392.279.279 0 00-.144-.432 50.812 50.812 0 01-7.168-5.2 1.851 1.851 0 00-1.392-.656c-.5 0-.8.176-1.44.848-.752.8-1.536 1.616-2.32 2.416a7.367 7.367 0 01-1.632 1.36zm11.216-6.768a1.688 1.688 0 00-1.728 1.712 1.707 1.707 0 001.728 1.712 1.707 1.707 0 001.728-1.712 1.707 1.707 0 00-1.728-1.712zm0 .768a.916.916 0 01.944.944.916.916 0 01-.944.944.916.916 0 01-.944-.944.916.916 0 01.944-.944zm6.192 4.048a14.03 14.03 0 013.232 1.744.31.31 0 00.192.1c.064 0 .128-.064.208-.16a6.515 6.515 0 00.7-1.216.475.475 0 00.064-.176c0-.1-.064-.16-.176-.24a11.1 11.1 0 00-3.068-1.572c-.144-.032-.224.048-.3.16-.196.256-.452.72-.852 1.36zm1.936-3.76a15.474 15.474 0 013.1 1.968.412.412 0 00.24.112.178.178 0 00.16-.1 6.848 6.848 0 00.816-1.2.387.387 0 00.064-.208.253.253 0 00-.128-.208 10.877 10.877 0 00-3.008-1.776c-.192-.1-.288-.064-.4.128-.264.42-.572.868-.844 1.284zm-.672 9.12a10.1 10.1 0 001.184 1.632.412.412 0 00.32.192.355.355 0 00.256-.124 5.257 5.257 0 01.928-.544 37.146 37.146 0 004.784-3.012 29.809 29.809 0 004.064-3.7.5.5 0 00.176-.368.782.782 0 00-.08-.3 7.991 7.991 0 01-.464-1.792 29.116 29.116 0 01-4.608 4.464 26.8 26.8 0 01-4.384 2.768 7.4 7.4 0 01-2.176.784zm20.3-3.472l.752 2.96c.224.9.448 1.776.64 2.672.064.272.192.288.4.24a5.411 5.411 0 001.06-.32.311.311 0 00.208-.432c-.24-.9-.464-1.68-.736-2.688l-.736-2.9 3.088-.816a11.55 11.55 0 01-1.7 2.448 4.277 4.277 0 011.28.48.46.46 0 00.24.08.3.3 0 00.24-.144 18.979 18.979 0 001.816-3.008 1.231 1.231 0 01.256-.336.466.466 0 00.176-.32.359.359 0 00-.128-.24 8.634 8.634 0 00-.944-.8.5.5 0 00-.272-.144.277.277 0 00-.192.1 1.762 1.762 0 01-.8.352l-3.472.88-.3-1.2a2.61 2.61 0 01-.1-1.152c.032-.224-.08-.32-.336-.32-.416 0-1.216.1-1.872.176a6.092 6.092 0 01.656 1.616l.352 1.344-.96.256a19.1 19.1 0 01-2.432.528 8.97 8.97 0 00.56 1.408c.08.16.16.224.272.224a.879.879 0 00.288-.08 12.986 12.986 0 011.76-.624zm20.08-3.648a4.427 4.427 0 01.144-1.776 1.024 1.024 0 00.128-.4c0-.128-.08-.224-.288-.272a15.268 15.268 0 00-2-.336 12.776 12.776 0 01.16 2.784v5.008c0 .816.016 1.008-.1 1.216a.491.491 0 00-.064.24.638.638 0 00.144.336 4.62 4.62 0 00.96.976.682.682 0 00.336.128.508.508 0 00.32-.128 5.313 5.313 0 01.464-.336 26.571 26.571 0 002.856-1.92 20.225 20.225 0 002.368-2.1c.176-.176.24-.288.24-.4a.8.8 0 00-.1-.272 4.612 4.612 0 01-.5-1.616 15.354 15.354 0 01-2.8 2.72 16.266 16.266 0 01-2.272 1.488zm-5.58-1.78a4.3 4.3 0 01.16 1.344 10.424 10.424 0 01-.672 4.528 7.943 7.943 0 01-2.656 3.188 5.67 5.67 0 011.36.672.544.544 0 00.3.128.725.725 0 00.416-.208 8.242 8.242 0 002.272-3.008 11.975 11.975 0 00.864-4.7 2.308 2.308 0 01.192-1.088c.1-.224.064-.416-.208-.5a12.935 12.935 0 00-2.028-.356zm20.224-.016a4.167 4.167 0 01.112-1.5.842.842 0 00.128-.368c0-.128-.08-.224-.3-.272a11.81 11.81 0 00-2-.256 12.209 12.209 0 01.16 2.368v7.872c0 1.024-.016 1.968-.064 3.152 0 .192.08.24.3.24a10.573 10.573 0 001.424 0c.224 0 .3-.048.288-.24-.032-1.152-.064-2.1-.064-3.136V7.575a17.721 17.721 0 014.208 2.048.245.245 0 00.176.08c.08 0 .144-.064.208-.176a9.4 9.4 0 00.688-1.392c.08-.208 0-.32-.176-.416a22.569 22.569 0 00-5.088-2.176zm19.728 5.572c1.184 0 2.368.016 3.568.032.224.016.288-.048.288-.24a11.793 11.793 0 000-1.5c0-.192-.048-.24-.288-.224-1.232.016-2.464.048-3.68.048h-5.152a20.555 20.555 0 01-3.456-.196 17.365 17.365 0 00.24 1.936c.048.24.176.336.368.336a12.8 12.8 0 012.352-.192zm14.432-5.28c.192-.288.352-.528.528-.8a1.736 1.736 0 01.4-.432.319.319 0 00.176-.272.334.334 0 00-.16-.272 7.871 7.871 0 00-1.872-.848 6.833 6.833 0 01-.944 2.16 18.978 18.978 0 01-4.3 4.752 4.34 4.34 0 011.536.688.384.384 0 00.24.1.5.5 0 00.336-.176 22.283 22.283 0 003.024-3.28l3.872-.112a16.3 16.3 0 01-2.968 4.54 18.432 18.432 0 01-5.324 4.076 4.211 4.211 0 011.524.74.564.564 0 00.368.176.433.433 0 00.256-.08 20.322 20.322 0 004.864-3.984 22.053 22.053 0 003.168-4.944 1.927 1.927 0 01.528-.688.461.461 0 00.192-.336.518.518 0 00-.208-.368 7.381 7.381 0 00-1.088-.864.464.464 0 00-.256-.1.322.322 0 00-.208.064 1.485 1.485 0 01-.8.192zm18.384-.24c.976 0 1.728.032 2.256.032.24.016.288-.048.288-.32a8.124 8.124 0 000-1.248c0-.176-.048-.256-.192-.256-.624.032-1.472.08-2.512.08h-2.88a22.044 22.044 0 01-2.624-.112 13.945 13.945 0 00.08 1.536c.016.256.064.352.224.352a32.463 32.463 0 012.192-.064zm1.216 3.424a12.477 12.477 0 01-6.72 6.672 4.69 4.69 0 011.488.832.522.522 0 00.352.192.768.768 0 00.32-.112 13.985 13.985 0 006.528-7.072 1.832 1.832 0 01.544-.752.386.386 0 00.176-.3.472.472 0 00-.16-.336 9.444 9.444 0 00-1.072-.992.412.412 0 00-.24-.112.344.344 0 00-.208.1 1.76 1.76 0 01-.848.176h-5.492a28.315 28.315 0 01-2.94-.136 12.129 12.129 0 00.176 1.616c.032.208.1.3.24.3.8-.048 1.6-.064 2.4-.064zm15.792-1.248a25.327 25.327 0 001.876-2.012 5.271 5.271 0 01.96-.88.458.458 0 00.224-.352.283.283 0 00-.128-.24 14.234 14.234 0 00-1.776-1.12 4.638 4.638 0 01-1.008 1.648 25.959 25.959 0 01-3.412 3.344 25.684 25.684 0 01-5.04 3.28 5.989 5.989 0 011.38.94.446.446 0 00.336.16.452.452 0 00.24-.064 27.68 27.68 0 004.4-3.072v3.728c0 1.088-.048 2.128-.064 3.28-.016.192.048.256.224.256a13.345 13.345 0 001.6 0c.176 0 .256-.064.24-.272-.032-1.28-.048-2.224-.048-3.328zm17.648-.688a13.467 13.467 0 01-2.7 4.56 15.463 15.463 0 01-5.232 4 4.757 4.757 0 011.488.88.561.561 0 00.4.176.774.774 0 00.428-.14 17.942 17.942 0 004.544-3.812 18.842 18.842 0 003.1-5.2 1.926 1.926 0 01.368-.624.546.546 0 00.224-.4.4.4 0 00-.112-.272 4.924 4.924 0 00-1.168-1.056.782.782 0 00-.3-.08.452.452 0 00-.24.064 1.53 1.53 0 01-.88.16h-5.712a28 28 0 01-3.072-.112c.032.464.1 1.3.144 1.616.032.224.1.336.3.32.688-.032 1.6-.08 2.64-.08zm1.264-3.248a7.939 7.939 0 011.616 1.856.167.167 0 00.272.048l.592-.432a.161.161 0 00.048-.256 7.364 7.364 0 00-1.52-1.712c-.1-.08-.16-.1-.24-.032zm1.392-.992a7.569 7.569 0 011.6 1.84.171.171 0 00.144.112.191.191 0 00.128-.064l.528-.432c.128-.112.112-.192.048-.288a6.682 6.682 0 00-1.52-1.648c-.1-.08-.144-.1-.24-.032zm13.744 9.232a6.677 6.677 0 00-1.28-.128c-1.616 0-2.8.944-2.8 2.256 0 1.376 1.024 2.24 2.864 2.24 1.888 0 2.8-.736 2.928-2.08a9.5 9.5 0 011.728 1.28.221.221 0 00.144.08.193.193 0 00.144-.1 8.643 8.643 0 00.736-1.232c.08-.176.064-.224-.08-.32a10.471 10.471 0 00-2.656-1.532c-.08-1.376-.112-2.5-.112-4.288a18.03 18.03 0 002.464-.336c.112-.016.176-.1.176-.24a6.4 6.4 0 00-.1-1.136c-.032-.176-.064-.24-.256-.192-.688.112-1.52.224-2.272.288 0-.736 0-1.152.032-1.7a1.805 1.805 0 01.128-.56.686.686 0 00.1-.272c0-.144-.112-.224-.288-.272a8.907 8.907 0 00-1.936-.3 6.6 6.6 0 01.208 1.568c0 .592.016 1.1.016 1.68a23.146 23.146 0 01-3.648-.048 9.8 9.8 0 00.112 1.456c.016.16.08.208.288.208a32.354 32.354 0 003.3.016c.012 1.264.028 2.432.06 3.664zm.032 1.52a2.254 2.254 0 01.016.32c0 .576-.512 1.04-1.312 1.04-.944 0-1.3-.3-1.3-.8s.448-.768 1.2-.768a4.457 4.457 0 011.392.208zm-7.424-10.036a8.051 8.051 0 01-.112 1.888 34.755 34.755 0 00-.656 6.064 14.9 14.9 0 00.688 4.884c.08.224.144.24.32.192a6.7 6.7 0 001.2-.272c.144-.048.208-.1.192-.208a3.021 3.021 0 01.016-.848 9.484 9.484 0 01.816-2.432.464.464 0 00.1-.256.346.346 0 00-.1-.224 4.255 4.255 0 01-.56-1.008c-.336.8-.672 1.488-.992 2.224-.048-.672-.048-1.408-.048-2.048a31.772 31.772 0 01.8-5.824 3.247 3.247 0 01.288-.88.817.817 0 00.112-.352c0-.128-.064-.224-.24-.32a12.494 12.494 0 00-1.824-.58zm-214.1 34.032c.976 0 1.728.032 2.256.032.24.016.288-.048.288-.32a8.125 8.125 0 000-1.248c0-.176-.048-.256-.192-.256-.624.032-1.472.08-2.512.08h-2.88a22.044 22.044 0 01-2.624-.112 13.944 13.944 0 00.08 1.536c.016.256.064.352.224.352a32.463 32.463 0 012.192-.064zm1.216 3.424a12.477 12.477 0 01-6.72 6.672 4.69 4.69 0 011.488.832.522.522 0 00.352.192.768.768 0 00.32-.112 13.985 13.985 0 006.528-7.072 1.832 1.832 0 01.544-.752.386.386 0 00.176-.3.472.472 0 00-.16-.336 9.444 9.444 0 00-1.072-.992.412.412 0 00-.24-.112.344.344 0 00-.208.1 1.76 1.76 0 01-.848.176H7.717a28.315 28.315 0 01-2.944-.128 12.131 12.131 0 00.176 1.616c.032.208.1.3.24.3.8-.048 1.6-.064 2.4-.064zm15.872-.3a38.21 38.21 0 01-3.1-.112 7.074 7.074 0 00.152 1.456c.048.256.1.384.3.368.784-.064 1.968-.064 2.544-.064h2.848a6.6 6.6 0 01-.7 2.656 7.088 7.088 0 01-2.992 2.96 6.593 6.593 0 011.7.608.607.607 0 00.288.1.5.5 0 00.272-.112 7.612 7.612 0 002.544-2.992 8.683 8.683 0 00.8-3.216h1.968c1.168 0 2.1.016 3.1.048.192 0 .192-.064.208-.288a11.375 11.375 0 000-1.28c-.016-.176-.016-.256-.176-.256-.72.032-2.08.112-3.088.112h-1.984c0-.544 0-.912.016-1.264a1.542 1.542 0 01.112-.544.8.8 0 00.1-.272.237.237 0 00-.208-.224 4.743 4.743 0 00-1.04-.208c.944-.192 1.92-.432 2.9-.7.336-.08.672-.224 1.008-.272.256-.016.416-.048.416-.224a.622.622 0 00-.208-.448 7.778 7.778 0 00-1.312-1.12 4.585 4.585 0 01-1.376.72 19.885 19.885 0 01-2.64.688 30.236 30.236 0 01-4.752.592 4.34 4.34 0 01.816 1.1c.064.176.16.384.4.352a36.264 36.264 0 003.792-.512c.048.32.064.528.08.736.016.464.032 1.1.032 1.616zm15.184-.192a9.458 9.458 0 011.5 2.576c.08.224.176.3.4.224a6.642 6.642 0 001.024-.5c.128-.08.192-.128.192-.224a1.082 1.082 0 00-.064-.24 8.568 8.568 0 00-1.376-2.368.287.287 0 00-.416-.112c-.336.164-.72.34-1.264.644zm3.216-.816a10.885 10.885 0 011.344 2.56c.08.224.144.3.32.24a6.608 6.608 0 001.1-.5c.208-.112.24-.192.16-.432a9.24 9.24 0 00-1.232-2.336.281.281 0 00-.416-.128c-.272.116-.644.292-1.28.596zm5.04-.384a5.764 5.764 0 01-.368 1.7 16.567 16.567 0 01-2.16 3.856 13.912 13.912 0 01-3.84 3.328 3.612 3.612 0 011.36.672.366.366 0 00.256.112.7.7 0 00.384-.176 12.813 12.813 0 003.3-3.088 19.51 19.51 0 002.416-4.256 2.2 2.2 0 01.48-.816c.128-.112.176-.192.176-.288s-.08-.176-.208-.272a7.608 7.608 0 00-1.804-.772zm13.808-1.84c.272-.416.368-.576.5-.8a1.337 1.337 0 01.336-.336.432.432 0 00.192-.32.281.281 0 00-.176-.256 10.076 10.076 0 00-1.872-.784 5.9 5.9 0 01-.864 1.968 17.851 17.851 0 01-4.532 5.024 6.666 6.666 0 011.344.736.366.366 0 00.256.112.574.574 0 00.32-.144 19.322 19.322 0 003.424-3.6l3.968-.08a15.425 15.425 0 01-1.872 3.168 16.044 16.044 0 00-2.064-1.28.415.415 0 00-.16-.064.3.3 0 00-.208.112c-.368.336-.7.752-1.056 1.136a13.375 13.375 0 012.3 1.5 19.4 19.4 0 01-5.888 4.336 4.546 4.546 0 011.52.816.48.48 0 00.3.144.871.871 0 00.4-.144 19.5 19.5 0 005.1-4 17.733 17.733 0 011.552 1.552.278.278 0 00.176.1.332.332 0 00.192-.08 9.834 9.834 0 00.992-1.008.31.31 0 00.1-.208.316.316 0 00-.1-.224 14.224 14.224 0 00-1.728-1.616 24.973 24.973 0 002.352-3.872 2.007 2.007 0 01.48-.608.409.409 0 00.176-.3.391.391 0 00-.128-.288 5.183 5.183 0 00-1.088-.976.551.551 0 00-.288-.128.468.468 0 00-.272.112 1.565 1.565 0 01-.88.24zm20.48-1.872a7.808 7.808 0 011.44 2c.064.112.144.144.256.08l.72-.432a.17.17 0 00.08-.256 7.534 7.534 0 00-1.36-1.856c-.08-.08-.144-.1-.224-.048zm1.568-.912a7.685 7.685 0 011.424 1.984.173.173 0 00.272.08l.672-.432a.194.194 0 00.08-.288 7.082 7.082 0 00-1.36-1.792c-.08-.08-.128-.112-.224-.048zm-4.592 3.184c.88 0 1.824.016 2.688.048.176 0 .208-.08.208-.3a7.117 7.117 0 000-1.168c0-.208-.032-.3-.192-.3-.8.048-1.808.064-2.7.064h-2.944c-.72 0-1.536-.016-2.656-.08.048.576.064 1.152.112 1.536.016.192.064.272.272.272.9-.032 1.536-.064 2.272-.064zm2.368 3.712c1.1 0 2.208.032 3.04.064.144 0 .24-.064.24-.272.016-.208.016-1.024 0-1.232 0-.224-.016-.32-.176-.32-.944.064-1.872.1-3.12.1h-7.184c-.928 0-1.824 0-2.72-.08a9.627 9.627 0 00.128 1.536c.016.208.064.32.208.3.816-.048 1.6-.1 2.4-.1h3.04a6.8 6.8 0 01-.816 3.44 7.106 7.106 0 01-3.184 2.848 4.2 4.2 0 011.424.848.472.472 0 00.336.16.975.975 0 00.48-.192 8.06 8.06 0 002.816-3.024 9.139 9.139 0 00.944-4.08zm8.032-1.072a9.458 9.458 0 011.5 2.576c.08.224.176.3.4.224a6.642 6.642 0 001.024-.5c.128-.08.192-.128.192-.224a1.082 1.082 0 00-.064-.24 8.568 8.568 0 00-1.376-2.368.287.287 0 00-.416-.112c-.332.164-.72.34-1.264.644zm3.216-.816a10.886 10.886 0 011.344 2.56c.08.224.144.3.32.24a6.608 6.608 0 001.1-.5c.208-.112.24-.192.16-.432a9.24 9.24 0 00-1.232-2.336.281.281 0 00-.416-.128c-.272.116-.64.292-1.28.596zm5.04-.384a5.764 5.764 0 01-.368 1.7 16.567 16.567 0 01-2.16 3.856 13.912 13.912 0 01-3.84 3.328 3.612 3.612 0 011.36.672.366.366 0 00.256.112.7.7 0 00.384-.176 12.813 12.813 0 003.3-3.088 19.51 19.51 0 002.416-4.256 2.2 2.2 0 01.48-.816c.128-.112.176-.192.176-.288s-.08-.176-.208-.272a7.608 7.608 0 00-1.8-.772zm15.232-1.728c.976 0 1.728.032 2.256.032.24.016.288-.048.288-.32a8.124 8.124 0 00-.004-1.248c0-.176-.048-.256-.192-.256-.624.032-1.472.08-2.512.08h-2.88a22.044 22.044 0 01-2.624-.112 13.945 13.945 0 00.08 1.536c.016.256.064.352.224.352a32.463 32.463 0 012.192-.064zm1.216 3.424a12.477 12.477 0 01-6.72 6.672 4.69 4.69 0 011.488.832.522.522 0 00.352.192.768.768 0 00.32-.112 13.985 13.985 0 006.528-7.072 1.832 1.832 0 01.544-.752.386.386 0 00.176-.3.472.472 0 00-.16-.336 9.443 9.443 0 00-1.072-.992.412.412 0 00-.24-.112.344.344 0 00-.208.1 1.76 1.76 0 01-.848.176h-5.488a28.315 28.315 0 01-2.948-.136 12.129 12.129 0 00.176 1.616c.032.208.1.3.24.3.8-.048 1.6-.064 2.4-.064zm10.9-5.648a7.159 7.159 0 01.416 1.856 24.282 24.282 0 00.832 3.9c-1.872 1.184-3.04 2.352-3.04 4.128 0 2.08 1.6 3.072 4.624 3.072a34.191 34.191 0 004.768-.24c.192-.016.3-.1.288-.272a14.128 14.128 0 00-.16-1.488c-.032-.192-.112-.224-.288-.192a27.943 27.943 0 01-4.88.368c-1.84 0-2.544-.4-2.544-1.344 0-.752.5-1.5 1.888-2.416a22.265 22.265 0 013.76-1.872 7.678 7.678 0 011.536-.48c.224-.032.32-.16.32-.32a.648.648 0 00-.112-.336 8.216 8.216 0 00-1.168-1.5 3.958 3.958 0 01-1.1.864c-.9.48-1.472.784-2.272 1.216a22.5 22.5 0 01-.524-2.756c-.032-.368-.08-.752-.08-1.072 0-.224.112-.448.112-.672 0-.128-.1-.208-.288-.256a9.26 9.26 0 00-2.096-.188zm20.904 5.536a7.907 7.907 0 01-.416.912h-.1c-1.52 0-2.048-.032-2.144-.032-.16 0-.176.016-.176.176v.864c0 .16.016.176.176.176.08 0 .432-.016 1.376-.032a8.842 8.842 0 01-1.896 1.488v-4.1c0-1.136.032-1.7.032-1.792 0-.16-.016-.176-.176-.176-.1 0-.384.032-1.312.032h-1.284c-.928 0-1.216-.032-1.312-.032-.176 0-.192.016-.192.176 0 .112.032.656.032 1.792v1.36c0 3.952-.32 5.184-1.072 6.576a2.988 2.988 0 01.864.736c.144.16.224.24.3.24s.16-.1.256-.3a9.691 9.691 0 00.912-3.648h1.572v2.016c0 .368-.112.48-.5.48-.272 0-.48-.016-.864-.048a2.917 2.917 0 01.368.96c.1.48.1.5.592.5a2.378 2.378 0 001.392-.3 1.43 1.43 0 00.416-1.232c0-.592-.032-1.392-.032-2.08v-.96a4 4 0 01.5.64c.144.24.208.336.3.336.08 0 .192-.08.368-.208a11.179 11.179 0 002.464-2.448h2.516a10.077 10.077 0 002.4 2.512c.176.128.272.208.352.208.1 0 .16-.112.272-.368a3.587 3.587 0 01.544-.88 8.584 8.584 0 01-1.888-1.472c.944.016 1.312.032 1.408.032.144 0 .16-.016.16-.176v-.876c0-.16-.016-.176-.16-.176-.112 0-.624.032-2.144.032h-.176a6.44 6.44 0 01-.528-.912h.208c1.456 0 1.952.032 2.048.032.16 0 .176-.016.176-.176v-.832c0-.16-.016-.176-.176-.176-.08 0-.448.032-1.408.032a5.47 5.47 0 00.416-.64.759.759 0 01.224-.272c.08-.064.144-.128.144-.208s-.064-.128-.176-.16a11.3 11.3 0 00-1.264-.336 3.011 3.011 0 01-.224.672 7.543 7.543 0 01-.512.944h-.912c.048-.144.08-.32.144-.528a1.883 1.883 0 01.208-.64.4.4 0 00.128-.288c0-.1-.112-.16-.272-.192a10.326 10.326 0 00-1.312-.192 9.347 9.347 0 01-.112 1.152c-.048.24-.112.464-.176.688h-.3a9.828 9.828 0 00-.72-1.424c-.1-.144-.144-.144-.336-.08l-.736.24c-.192.064-.224.112-.128.256.176.32.352.656.512 1.008-.576-.016-.816-.032-.88-.032-.16 0-.176.016-.176.176v.832c0 .16.016.176.176.176.1 0 .576-.032 2.048-.032zm-6.048 3.152l.048-1.552h1.44v1.552zm1.488-4.336v1.5h-1.44v-1.5zm5.6 2.1a5.743 5.743 0 00.352-.912h.56c.112.32.24.624.368.912zm-6.96-6c-1.424 0-1.9-.032-2-.032-.176 0-.176.016-.176.176v1.04c0 .16 0 .176.176.176.1 0 .576-.032 2-.032h1.808c-.016.416-.032.624-.032.688 0 .176.016.192.192.192h1.2c.176 0 .192-.016.192-.192 0-.064-.032-.272-.032-.688h3.012c0 .272-.016.416-.016.464 0 .176.016.192.176.192h1.216c.16 0 .176-.016.176-.192 0-.048-.016-.192-.032-.464h1.936c1.424 0 1.92.032 2.016.032.16 0 .176-.016.176-.176v-1.048c0-.16-.016-.176-.176-.176-.1 0-.592.032-2.016.032h-1.94a1.738 1.738 0 01.08-.7c.032-.1.08-.144.08-.24 0-.08-.08-.128-.208-.144-.448-.048-1.04-.08-1.552-.1a9.1 9.1 0 01.1 1.184h-3.028a1.844 1.844 0 01.08-.72.631.631 0 00.08-.224c0-.08-.08-.128-.224-.144a23.804 23.804 0 00-1.536-.1 6.889 6.889 0 01.08 1.184zm8.14 9.036a2.71 2.71 0 01.064-.9.393.393 0 00.08-.24c0-.08-.08-.144-.256-.16-.4-.048-.8-.08-1.376-.112a8.4 8.4 0 01.1 1.5v2.576c0 .32-.128.4-.464.4-.3 0-.56-.032-.976-.064a3 3 0 01.3.928c.064.4.128.416.528.416.928 0 1.328-.08 1.616-.3.368-.272.416-.672.416-1.216 0-.368-.032-.736-.032-1.424zm.8 1.28l-.512.4c-.176.144-.192.176-.08.3a11 11 0 002.048 1.648.76.76 0 00.352.16c.112 0 .176-.1.32-.3a5.368 5.368 0 01.672-.768 8.958 8.958 0 01-2.272-1.456c.176-.16.352-.32.528-.512a.773.773 0 01.32-.224c.112-.048.176-.1.176-.176a.272.272 0 00-.128-.208 8.512 8.512 0 00-1.088-.72 2.414 2.414 0 01-.368.56 3.128 3.128 0 01-.672.7 7.138 7.138 0 01.672.544zm-4.24-1.072c-.176.128-.176.176-.064.288a8.5 8.5 0 01.72.88 12.268 12.268 0 01-1.28.688 5.628 5.628 0 01-.832.288c.192.448.4.864.592 1.216.08.128.128.144.176.144.064 0 .112-.048.16-.112a1.611 1.611 0 01.4-.288 17.45 17.45 0 001.5-.864c.256-.16.352-.24.352-.384a1.386 1.386 0 00-.128-.416 7 7 0 01-.192-.528l.24-.192c.176-.144.208-.176.1-.32a9.217 9.217 0 00-.784-.9c-.064-.064-.112-.1-.16-.1-.032 0-.08.032-.16.1zm12.74-8.192h4.512a10.787 10.787 0 01-.48 1.376h-.576c-1.488 0-2-.032-2.112-.032-.16 0-.176.016-.176.16 0 .112.032.528.032 1.552v2.528c0 .992-.032 1.424-.032 1.52 0 .16.016.176.176.176.112 0 .624-.032 2.112-.032h1.264v2.976c0 .4-.128.608-.64.608a11.965 11.965 0 01-1.392-.1 4.282 4.282 0 01.416 1.1c.1.528.1.512.592.512 1.44 0 1.808-.128 2.176-.4a1.465 1.465 0 00.528-1.376c0-.592-.048-1.248-.048-2v-1.32h1.2c1.5 0 2.032.032 2.112.032.176 0 .192-.016.192-.176 0-.1-.032-.528-.032-1.52v-2.528c0-1.024.032-1.456.032-1.552 0-.144-.016-.16-.192-.16-.08 0-.608.032-2.112.032h-1.808a12.368 12.368 0 00.528-1.376h2.56c1.5 0 2.048.032 2.144.032.16 0 .176-.016.176-.176v-1.152c0-.176-.016-.192-.176-.192-.1 0-.624.032-2.128.032h-8.208c-1.52 0-2.064-.032-2.144-.032-.176 0-.192.016-.192.192 0 .1.032 1.12.032 3.392a25.182 25.182 0 01-.4 5.28 10.959 10.959 0 01-1.312 3.5 4.721 4.721 0 011.008.9c.144.176.224.272.288.272.08 0 .144-.112.256-.32a14.74 14.74 0 001.344-3.744 27.3 27.3 0 00.48-5.872zm8.208 6.016h-5.424v-1.1h5.424zm-5.424-3.408h5.424v1.056h-5.424zm-3.376 8.276a2.917 2.917 0 01.928.752c.176.192.256.288.352.288.08 0 .176-.1.352-.256a10.669 10.669 0 001.968-2.464 2.535 2.535 0 01.32-.464c.1-.08.176-.128.176-.256 0-.1-.112-.16-.256-.24a6.846 6.846 0 00-1.376-.56 3.811 3.811 0 01-.432.976 7.867 7.867 0 01-2.032 2.224zm8.224-2.6c-.208.1-.24.144-.16.3a9.776 9.776 0 002.428 3.016c.16.144.256.208.336.208.1 0 .176-.08.32-.288a5.81 5.81 0 01.9-.96 7.648 7.648 0 01-2.544-2.676c-.08-.144-.112-.16-.3-.08zm9.68-9.728a10.637 10.637 0 01.16 2.928c-.08 1.92-.224 4.224-.224 6.912 0 2.448.96 3.264 3.008 3.264a9.141 9.141 0 006.064-2.4c.256-.224.32-.352.32-.5a1.052 1.052 0 00-.128-.384 5.563 5.563 0 01-.368-1.52 8.437 8.437 0 01-5.6 2.944c-1.28 0-1.472-.368-1.472-1.984 0-2.1.08-3.728.24-6.192a9.591 9.591 0 01.224-1.952 1.552 1.552 0 00.16-.528c0-.16-.112-.24-.384-.3a16.548 16.548 0 00-2-.284zm17.664 7.6c-1.168.672-1.92 1.1-2.608 1.488a5.908 5.908 0 01-1.472.56c.24.528.56 1.2.736 1.488a.449.449 0 00.352.256.4.4 0 00.272-.112 2.9 2.9 0 01.512-.352 9.837 9.837 0 012.272 2.048c.144.208.208.336.384.32a6.5 6.5 0 001.184-.192c.272-.064.24-.3.24-.528 0-.368-.08-1.376-.128-2.08-.032-.7-.048-1.248-.064-1.92a7.913 7.913 0 013.664-1.088c1.12 0 1.76.576 1.76 1.616a1.588 1.588 0 01-1.728 1.648 5.968 5.968 0 01-2-.288 2.8 2.8 0 01.48 1.36.429.429 0 00.352.48 6.2 6.2 0 001.312.144c2.16 0 3.472-1.2 3.472-3.248a3.167 3.167 0 00-3.408-3.2 10.1 10.1 0 00-3.936.88c.016-.768.016-1.552.032-2.32a16.308 16.308 0 002.288-.608c.16-.048.208-.1.208-.256a8.042 8.042 0 00-.1-1.248c-.016-.16-.128-.192-.272-.144a15.689 15.689 0 01-2.048.592c.016-.512.032-.912.08-1.328a1.958 1.958 0 01.224-.624.567.567 0 00.1-.256c0-.144-.128-.256-.32-.3a9.068 9.068 0 00-1.9-.288 5.915 5.915 0 01.112 1.3c0 .688-.016 1.3-.016 1.824-.672.064-1.36.128-2.032.128a8.174 8.174 0 01-1.248-.08c.064.56.128 1.088.176 1.392.032.24.112.336.384.336 1.072 0 1.888-.064 2.688-.128zm.08 1.68c.032.528.064 1.264.1 1.68.016.144-.032.16-.16.128a16.409 16.409 0 01-1.5-.72c.568-.412 1.112-.78 1.56-1.084zm5.344-6.06a7.386 7.386 0 013.248 1.968c.048.08.272.064.32 0 .24-.32.656-.816.864-1.136a.415.415 0 00.064-.16c0-.048-.032-.1-.1-.16a7.606 7.606 0 00-3.392-1.952c-.112-.032-.16.016-.272.192a9.816 9.816 0 00-.732 1.248zm10.656-3.392a14.806 14.806 0 01-.128 1.824 33.819 33.819 0 00-.384 3.984 10.236 10.236 0 00.48 3.248c.032.112.112.224.224.208.4-.048 1.088-.144 1.28-.192a.224.224 0 00.208-.256 2 2 0 01.08-.48 13.1 13.1 0 01.944-2.048.754.754 0 00.16-.4.368.368 0 00-.1-.256 3.317 3.317 0 01-.5-1.04 82.442 82.442 0 01-1.12 2.048 16.164 16.164 0 01.048-1.76c.1-.832.224-1.968.448-3.056a1.847 1.847 0 01.288-.752.366.366 0 00.112-.256c0-.144-.1-.24-.3-.32a8.385 8.385 0 00-1.74-.496zm5.12.032a7.666 7.666 0 01.336 1.744c.112 1.024.192 2.688.192 3.824 0 2.528-.416 3.84-1.344 5.1a7.919 7.919 0 01-2.72 2.144 3.713 3.713 0 011.36.736.464.464 0 00.336.176.554.554 0 00.32-.112 8.817 8.817 0 002.64-2.576 10.51 10.51 0 001.216-5.552c0-1.152-.112-2.608-.224-4.128a5.665 5.665 0 01.032-.736c.032-.272 0-.352-.32-.432a9.24 9.24 0 00-1.824-.188zm14.544 3.024a21.964 21.964 0 01-2.528.3 19.891 19.891 0 01-2 .016 12.514 12.514 0 00.368 1.44c.048.192.112.288.256.288.4 0 1.136-.048 1.568-.08 1.152-.1 2.08-.224 3.088-.4a10.289 10.289 0 002.064 2.832 8.165 8.165 0 00-2.848-.432c-2.64 0-4.208 1.28-4.208 3.1 0 2.112 2.032 3.312 5.808 3.312a14.284 14.284 0 001.776-.112c.192-.032.256-.064.3-.224a9.776 9.776 0 00.336-1.712 15.827 15.827 0 01-2.56.224c-2.512 0-3.968-.5-3.968-1.7 0-1.008 1.008-1.5 2.672-1.5a7.317 7.317 0 013.392.816 5.274 5.274 0 01.656.416c.128.1.176.128.256.128.112 0 .192-.064.32-.24a6.394 6.394 0 00.632-1.028.506.506 0 00.1-.272c0-.08-.064-.128-.16-.208a4.393 4.393 0 01-.416-.352 18.222 18.222 0 01-2.448-3.376 25.538 25.538 0 003.184-.928c.112-.032.176-.112.128-.272a6.947 6.947 0 00-.4-1.232c-.1-.176-.144-.192-.3-.112a24.626 24.626 0 01-3.344.992c-.208-.432-.352-.816-.544-1.3a6.9 6.9 0 01-.256-.8 2.1 2.1 0 01-.016-.448c0-.224-.128-.336-.544-.336a12.594 12.594 0 00-1.9.256 5.282 5.282 0 01.8 1.3c.24.604.464 1.068.736 1.644zm14.944 4.32c.88-1.44 1.744-3.12 2.768-5.088a4.17 4.17 0 01.5-.688.5.5 0 00.176-.32.418.418 0 00-.224-.336 9.27 9.27 0 00-1.792-.9 9.6 9.6 0 01-.8 2.336c-.88 2-2.352 5.056-4.688 9.632a.477.477 0 00-.08.224.279.279 0 00.144.208 5.17 5.17 0 001.232.688c.208.064.288.032.384-.192a18.586 18.586 0 011.872-3.552 2.794 2.794 0 012.016-1.36c.56 0 .912.464 1.056 2.064.208 2.256.9 3.1 2.512 3.1a4 4 0 002.944-1.344 8.654 8.654 0 001.376-1.984.565.565 0 00.064-.272.439.439 0 00-.176-.336 3.881 3.881 0 01-.928-1.328 7.92 7.92 0 01-1.616 2.608 2.044 2.044 0 01-1.5.768c-.608 0-.8-.528-.928-1.7-.176-1.536-.608-3.024-2.336-3.024a3.175 3.175 0 00-1.952.816zm20.464-4.384a3.634 3.634 0 013.584 3.712c0 3.024-2.128 4.144-4.832 4.784a3.394 3.394 0 011.12 1.012c.208.32.352.384.688.288 3.248-.976 4.928-2.848 4.928-5.824 0-3.184-2.256-5.552-6.1-5.552a7 7 0 00-5.2 2.048 5.9 5.9 0 00-1.808 4.16c0 2.608 1.424 4.112 2.832 4.112a3.039 3.039 0 002.72-1.84 20.035 20.035 0 002-6.9zm-1.92.1a18.281 18.281 0 01-1.7 5.728c-.432.768-.784.976-1.2.976-.5 0-1.088-.816-1.088-2.288a4.607 4.607 0 011.248-2.96 4.819 4.819 0 012.74-1.46zM30.017 73.243c-.208.128-.224.16-.128.288.592.784 1.12 1.568 1.632 2.368-1.584.176-3.3.336-4.928.464.768-1.664 1.472-3.44 2.048-4.976a2.409 2.409 0 01.416-.768.391.391 0 00.128-.288c0-.128-.128-.208-.3-.272-.544-.16-1.088-.272-1.712-.416a10.014 10.014 0 01-.432 1.68 47.34 47.34 0 01-2.064 5.184c-.144 0-.3.016-.448.016-.64.032-1.216.048-1.824.032a12.406 12.406 0 00.384 1.7c.048.16.128.256.24.256a.432.432 0 00.272-.112 1.307 1.307 0 01.608-.176c2.816-.24 5.728-.56 8.416-.96.256.48.512.96.752 1.456.048.1.08.128.144.128a.443.443 0 00.192-.08l1.2-.688c.224-.128.224-.16.144-.3a34.714 34.714 0 00-3.408-5.12c-.064-.064-.1-.1-.128-.1a.535.535 0 00-.192.08zm-.368-7.94c-.192.1-.224.112-.16.288a16.863 16.863 0 005.216 6.608c.16.128.256.208.336.208.1 0 .176-.112.3-.352a4.342 4.342 0 01.9-1.2 12.894 12.894 0 01-5.2-5.92c-.08-.16-.112-.176-.32-.08zm-8.544 5.808a3.5 3.5 0 01.9 1.04c.144.24.208.352.3.352.08 0 .192-.08.368-.224a16.031 16.031 0 004.7-5.888 1.221 1.221 0 01.368-.5.267.267 0 00.144-.24c0-.112-.064-.192-.24-.272a10.079 10.079 0 00-1.584-.56 4.666 4.666 0 01-.336 1.04 12.187 12.187 0 01-4.62 5.252zm25.52-2.112a25.147 25.147 0 001.1 6.352c.8 2.368 1.92 3.5 3.136 3.52.944.016 1.616-.848 1.936-2.9.064-.5.064-.5-.4-.752a5.179 5.179 0 01-1.04-.72c-.1 1.456-.288 2.336-.72 2.336-.48 0-.976-.928-1.44-2.368a20.238 20.238 0 01-.912-5.472h1.9c1.456 0 1.952.032 2.048.032.16 0 .176-.016.176-.192v-1.26c0-.176-.016-.192-.176-.192-.1 0-.592.032-2.048.032h-1.968v-.7a5.4 5.4 0 01.08-1.616 1.034 1.034 0 00.1-.336c0-.1-.1-.176-.256-.192-.544-.064-1.168-.08-1.744-.1a15.251 15.251 0 01.128 2.288c0 .224.016.448.016.656h-5.744c-1.456 0-1.952-.032-2.048-.032-.16 0-.16.016-.16.192v1.264c0 .176 0 .192.16.192.1 0 .592-.032 2.048-.032zm-2.608 3.552c1.344 0 1.792.032 1.888.032.176 0 .192-.016.192-.16v-1.2c0-.176-.016-.192-.192-.192-.1 0-.544.032-1.888.032h-2.832c-1.36 0-1.808-.032-1.9-.032-.16 0-.176.016-.176.192v1.2c0 .144.016.16.176.16.1 0 .544-.032 1.9-.032h.544v3.516l-1.536.288a8.762 8.762 0 01-1.536.192c.128.56.288 1.232.416 1.616.048.144.128.208.224.208a.6.6 0 00.288-.112 2.141 2.141 0 01.672-.24 62.504 62.504 0 005.728-1.552c.48-.144.48-.144.48-.672 0-.32.016-.72.048-1.008-.96.336-2.064.64-3.12.9v-3.136zm5.152-7.344c-.16.112-.192.16-.064.288a7.125 7.125 0 011.248 1.52c.048.08.1.128.144.128a.444.444 0 00.208-.1l.752-.512c.192-.128.208-.192.112-.32a7.545 7.545 0 00-1.376-1.472c-.064-.064-.112-.1-.16-.1s-.1.032-.192.1zm8.736.176h-2.176v12.416h2.176zm5.536 3.632h-1.952v8.784h2.016v-5.76a2.691 2.691 0 012.044-1.488c.784 0 1.216.464 1.216 1.472v5.776h2.064v-6.332a2.4 2.4 0 00-2.512-2.64 3.58 3.58 0 00-2.88 1.728zm15.072 2.052a3.255 3.255 0 00-3.44-2.24c-2.144 0-3.3 1.088-3.3 2.5 0 1.472.672 2.16 2.576 2.672l.736.208c1.392.4 1.7.592 1.7 1.312 0 .64-.448 1.136-1.6 1.136a1.853 1.853 0 01-1.84-1.472l-1.872.656c.56 1.536 1.808 2.192 3.664 2.192 2.384 0 3.552-1.136 3.552-2.7 0-1.424-.72-2.144-2.72-2.672l-.736-.192c-1.28-.336-1.568-.624-1.568-1.312 0-.528.512-.944 1.376-.944a1.571 1.571 0 011.568 1.396zm5.392-4.912l-1.984.448v2.416h-1.312v1.468h1.312v5.18c0 1.616.784 2.336 2.448 2.336a10.572 10.572 0 001.568-.1l.08-1.44a4.61 4.61 0 01-1.024.1c-.736 0-1.088-.384-1.088-1.264v-4.812h1.968v-1.472h-1.968zm6.112 5.584a1.674 1.674 0 011.68-1.536c1.056 0 1.52.448 1.52 1.552v.5a16.862 16.862 0 00-2.512.256c-1.9.368-2.864 1.36-2.864 2.9a2.5 2.5 0 002.7 2.608 3.291 3.291 0 002.768-1.36c.048.512.08.768.144 1.152h1.856a23.3 23.3 0 01-.144-2.592v-3.5c0-1.952-1.136-2.912-3.408-2.912-1.9 0-3.184.832-3.632 2.416zm3.2 3.392a2.4 2.4 0 01-2.048 1.436 1.244 1.244 0 01-1.408-1.328c0-.784.5-1.264 1.44-1.488a9.139 9.139 0 012.016-.256zm12.848-7.328a2.509 2.509 0 00-2.544 1.44 4.086 4.086 0 00-1.872-.42c-2.016 0-3.44 1.12-3.44 2.816a2.619 2.619 0 001.248 2.32c-.944.592-1.344 1.136-1.344 1.824 0 .64.432 1.088 1.232 1.264-.976.352-1.616.944-1.616 1.712 0 1.264 1.408 2.128 3.952 2.128 2.864 0 4.416-1.136 4.416-2.672 0-1.28-.736-2.048-3.04-2.272l-1.984-.16c-1.008-.1-1.216-.272-1.216-.64 0-.3.256-.576.64-.768a4.513 4.513 0 001.136.144c2.032 0 3.456-1.072 3.456-2.9a2.551 2.551 0 00-.72-1.76 2 2 0 011.568-.448zm-4.416 2.204a1.524 1.524 0 011.6 1.616 1.544 1.544 0 01-1.6 1.712 1.541 1.541 0 01-1.6-1.728 1.52 1.52 0 011.6-1.6zm1.088 7.5c1.328.144 1.616.432 1.616 1.024 0 .624-.848 1.168-2.56 1.168-1.456 0-2.416-.448-2.416-1.216 0-.544.432-.96 1.184-1.2zm10.464-8.688c-1.184 0-2.1.624-2.72 2.352v-2.16h-1.888v8.784h1.984v-4.86c.56-1.536 1.44-2.224 2.5-2.224zm4.1 2.912a1.674 1.674 0 011.68-1.536c1.056 0 1.52.448 1.52 1.552v.5a16.862 16.862 0 00-2.512.256c-1.9.368-2.864 1.36-2.864 2.9a2.5 2.5 0 002.7 2.608 3.291 3.291 0 002.768-1.36c.048.512.08.768.144 1.152h1.856a23.3 23.3 0 01-.144-2.596v-3.488c0-1.952-1.136-2.912-3.408-2.912-1.9 0-3.184.832-3.632 2.416zm3.2 3.392a2.4 2.4 0 01-2.052 1.444 1.244 1.244 0 01-1.408-1.328c0-.784.5-1.264 1.44-1.488a9.139 9.139 0 012.016-.256zm7.2-6.112h-1.92v8.784h1.984v-5.76a2.415 2.415 0 011.9-1.488c.7 0 1.088.464 1.088 1.472v5.776h1.984v-5.76a2.321 2.321 0 011.84-1.488c.784 0 1.216.48 1.216 1.472v5.776h2.016v-6.328a2.34 2.34 0 00-2.4-2.64 3.384 3.384 0 00-2.784 1.712 2.083 2.083 0 00-2.16-1.712 3.34 3.34 0 00-2.768 1.728zm17.5-.192c-.624.1-1.216.176-1.888.24-.7.064-1.408.112-2.112.112a14.618 14.618 0 00.5 1.648.351.351 0 00.512.208 4.7 4.7 0 01.88-.256c.432-.08.944-.176 1.568-.272a33.738 33.738 0 01-2.932 6.276.3.3 0 00-.064.176.329.329 0 00.128.24 7.276 7.276 0 001.1.7.262.262 0 00.416-.144 44.187 44.187 0 003.216-7.52 10.6 10.6 0 011.344-.112c.7 0 .912.352.912 1.488a12.327 12.327 0 01-.624 3.968c-.256.656-.5.848-1.024.848a4.8 4.8 0 01-1.76-.352 4.572 4.572 0 01.3 1.488.415.415 0 00.288.448 5.224 5.224 0 001.584.176 2.29 2.29 0 002.16-1.5 13.74 13.74 0 00.864-5.136c0-1.936-.816-2.96-2.32-2.96a12.066 12.066 0 00-1.248.064c.208-.672.368-1.264.576-1.92a2.024 2.024 0 01.32-.608.333.333 0 00.112-.24.337.337 0 00-.256-.32 11.711 11.711 0 00-1.92-.528 10.891 10.891 0 01-.16 1.776 21.852 21.852 0 01-.472 2.016zm5.7-.128a10.831 10.831 0 012.624 4.144c.048.192.208.208.368.128a6.53 6.53 0 001.2-.8.229.229 0 00.064-.32 10.708 10.708 0 00-2.656-3.888c-.112-.112-.192-.144-.3-.08a13.567 13.567 0 00-1.304.82zm10.5-2.7a12.762 12.762 0 013.232 2.08c.08.08.128.112.192.112.048 0 .112-.048.176-.128a10.478 10.478 0 00.816-1.12.444.444 0 00.08-.192c0-.064-.032-.112-.112-.176a10.5 10.5 0 00-3.136-1.9.267.267 0 00-.3.08 8.764 8.764 0 00-.956 1.244zm-1.12 2.224a9.97 9.97 0 01-.144 1.44 67.252 67.252 0 00-.5 5.168c0 .224.064.256.224.32a11 11 0 001.088.432c.208.048.272.048.368-.112a4.378 4.378 0 01.688-.88 7.123 7.123 0 014.608-2.432c1.376 0 1.92.784 1.92 1.648a2.621 2.621 0 01-1.888 2.416 13.276 13.276 0 01-4.4.9 4.093 4.093 0 011.084 1.352c.144.24.288.256.64.208a13.873 13.873 0 004.1-1.1 3.921 3.921 0 002.416-3.584c0-2.064-1.392-3.424-3.728-3.424a7.8 7.8 0 00-5.344 2.528 26.7 26.7 0 01.384-2.912 3 3 0 01.32-.848.476.476 0 00.08-.24c0-.128-.08-.224-.256-.3a9 9 0 00-1.668-.58zm27.856.4c0-2.176.032-3.312.032-3.424 0-.16-.016-.176-.176-.176-.112 0-.64.032-2.128.032h-8.696c-1.488 0-2.016-.032-2.128-.032-.16 0-.176.016-.176.176 0 .112.032 1.2.032 3.376v6.88c0 2.176-.032 3.232-.032 3.344 0 .16.016.176.176.176h1.392c.176 0 .192-.016.192-.176 0-.1-.032-1.04-.032-2.9v-9.3h9.84v10.04c0 .384-.16.544-.624.544a14.86 14.86 0 01-1.632-.1 4.745 4.745 0 01.448 1.264c.112.528.112.512.608.512 1.5 0 2.1-.176 2.416-.432a1.707 1.707 0 00.512-1.312c0-.544-.032-1.376-.032-2.768zm-8.368 8.176c.16 0 .176-.016.176-.176v-.848h3.04v.512c0 .176.016.192.176.192h1.208c.16 0 .176-.016.176-.192 0-.1-.032-.48-.032-2.608v-1.344c0-.992.032-1.408.032-1.5 0-.16-.016-.176-.176-.176-.112 0-.512.032-1.776.032h-2.288c-1.232 0-1.648-.032-1.76-.032-.16 0-.176.016-.176.176 0 .112.032.528.032 1.792v1.308c0 2.176-.032 2.576-.032 2.688 0 .16.016.176.176.176zm.176-4.7h3.04v2.272h-3.04zm3.204-2.74c1.408 0 1.9.032 2 .032.16 0 .176-.016.176-.192v-1.184c0-.16-.016-.176-.176-.176-.1 0-.592.032-2 .032h-3.36c-1.408 0-1.888-.032-2-.032-.16 0-.176.016-.176.176v1.184c0 .176.016.192.176.192.112 0 .592-.032 2-.032zm12.88-.7c0-2.352.032-3.136.032-3.232 0-.16-.016-.176-.176-.176-.112 0-.416.032-1.376.032h-1.372c-.96 0-1.264-.032-1.376-.032-.16 0-.176.016-.176.176 0 .1.032.944.032 3.84v3.488c0 4.016-.032 4.832-.032 4.928 0 .16.016.176.176.176h1.188c.144 0 .16-.016.16-.176v-1.268h1.472v.7c0 .16.016.176.16.176h1.148c.16 0 .176-.016.176-.176 0-.1-.032-.816-.032-4.8zm-2.928 6.3v-3.456h1.472v3.456zm1.472-8.224v3.312h-1.468v-3.312zm8.72 3.968c1.52 0 2.048.032 2.144.032.176 0 .192-.016.192-.192v-1.1c0-.16-.016-.176-.192-.176-.1 0-.624.032-2.144.032h-1.7v-1.652h1.072c1.456 0 1.936.032 2.032.032.16 0 .176-.016.176-.176v-1.12c0-.176-.016-.192-.176-.192-.1 0-.576.032-2.032.032h-1.064a3.716 3.716 0 01.08-1.2.89.89 0 00.1-.336c0-.08-.1-.144-.256-.16-.592-.064-1.024-.1-1.648-.112a13.4 13.4 0 01.112 1.808h-.752c-1.424 0-1.92-.032-2.016-.032-.176 0-.192.016-.192.192v1.12c0 .16.016.176.192.176.1 0 .592-.032 2.016-.032h.752v1.648h-1.156c-1.52 0-2.048-.032-2.144-.032-.176 0-.192.016-.192.176v1.1c0 .176.016.192.192.192.1 0 .624-.032 2.144-.032zm-1.244 3.008v3.184c0 .368-.144.5-.528.5a17.6 17.6 0 01-1.568-.064 3.566 3.566 0 01.48 1.168c.112.48.128.48.608.48a3.692 3.692 0 002.08-.352 1.488 1.488 0 00.56-1.36c0-.544-.016-1.232-.016-1.968v-1.588c1.088.016 1.52.032 1.6.032.176 0 .192-.016.192-.176v-1.12c0-.16-.016-.176-.192-.176-.08 0-.512.032-1.6.032a2.029 2.029 0 01.08-.816.539.539 0 00.08-.272c0-.08-.1-.144-.272-.176a18.365 18.365 0 00-1.616-.144 11.882 11.882 0 01.112 1.408h-3.152c-1.52 0-2.032-.032-2.128-.032-.176 0-.192.016-.192.176v1.12c0 .16.016.176.192.176.1 0 .608-.032 2.128-.032zm-4.32 1.008c-.192.112-.192.16-.08.288a13.4 13.4 0 011.408 1.968c.048.08.08.112.128.112s.1-.032.192-.1l.976-.672c.16-.112.176-.16.08-.3a12.8 12.8 0 00-1.472-1.84c-.128-.112-.176-.112-.336-.016zm12.528-8.384v1.54c-1.12 0-1.552-.032-1.632-.032-.16 0-.176.016-.176.16 0 .1.032.848.032 3.456v2.716c0 3.76-.032 4.48-.032 4.592 0 .16.016.176.176.176h1.008c.144 0 .16-.016.16-.176v-.816h3.808v.524c0 .16.016.176.192.176h.976c.16 0 .176-.016.176-.176 0-.1-.032-.816-.032-4.48v-2.972c0-2.192.032-2.928.032-3.024 0-.144-.016-.16-.176-.16-.112 0-.512.032-1.632.032v-1.536h.128c1.376 0 1.856.032 1.952.032.16 0 .176-.016.176-.176v-1.136c0-.16-.016-.176-.176-.176-.1 0-.576.032-1.952.032h-3.2c-1.392 0-1.856-.032-1.952-.032-.144 0-.16.016-.16.176v1.136c0 .16.016.176.16.176.1 0 .56-.032 1.952-.032zm1.728 2.8v2.528c0 .544.048.752.24.912.144.128.336.176.784.176h.592v1.344h-3.808v-1.5a1.956 1.956 0 01.512.7c.064.144.128.208.192.208.048 0 .112-.048.16-.144a7.115 7.115 0 00.672-2.432c.048-.528.064-1.2.064-1.792zm-2.192 7.44v-1.152h3.808v1.152zm0-7.44h.608c0 .48 0 .992-.032 1.376a3.672 3.672 0 01-.576 1.9zm3.808 0v2.32h-.24c-.16 0-.256-.016-.3-.112-.048-.08-.048-.176-.048-.544v-1.664zm-2.208-1.26v-1.54h.592v1.54zm4.608-1.52c0 .144.016.16.176.16.1 0 .48-.032 1.664-.032h2.272v3.532h-2.432c-.96 0-1.424-.032-1.52-.032-.176 0-.192.016-.192.192 0 .1.032.672.032 1.824v4.976a1.516 1.516 0 00.4 1.28c.336.3.976.416 2.5.416a4.1 4.1 0 002.688-.576c.384-.352.688-.848.784-2.3.032-.5.032-.5-.464-.64a3.7 3.7 0 01-1.088-.448c-.064 1.3-.128 1.824-.368 2.1-.24.256-.72.32-1.488.32-.72 0-1.04-.048-1.2-.208-.128-.128-.144-.352-.144-.72v-4.64h2.5v.544c0 .16.016.176.176.176h1.28c.176 0 .192-.016.192-.176 0-.1-.032-.576-.032-1.712v-3.6c0-1.136.032-1.616.032-1.712 0-.16-.016-.176-.192-.176-.1 0-.5.032-1.68.032h-2.056c-1.184 0-1.568-.032-1.664-.032-.16 0-.176.016-.176.176zm15.008 12.62c.16 0 .176-.016.176-.176v-.524h5.008v.48c0 .144.016.16.176.16h1.328c.16 0 .176-.016.176-.16 0-.1-.032-.5-.032-2.112v-1.252c0-.752.032-1.136.032-1.232 0-.144-.016-.16-.176-.16-.1 0-.608.032-2.064.032h-3.824c-1.472 0-1.984-.032-2.1-.032-.16 0-.176.016-.176.16 0 .1.032.48.032 1.424v1.092c0 1.648-.032 2.048-.032 2.128 0 .16.016.176.176.176zm.176-3.584h5.008v1.52h-5.008zm-5.036 1.024c0 1.568-.032 2.336-.032 2.432 0 .16.016.176.16.176h1.328c.16 0 .176-.016.176-.176 0-.08-.032-.864-.032-2.432v-8.512c.288-.656.544-1.312.768-1.952a1.79 1.79 0 01.32-.672.463.463 0 00.176-.288c0-.1-.08-.176-.272-.24a12.586 12.586 0 00-1.472-.432 5.672 5.672 0 01-.272 1.152 15.258 15.258 0 01-2.768 5.152 4.794 4.794 0 01.512 1.376c.048.176.1.272.176.272s.176-.064.288-.208a14.644 14.644 0 00.944-1.28zm10.6-7.664c1.568 0 2.1.032 2.192.032.176 0 .192-.016.192-.192v-1.116c0-.176-.016-.192-.192-.192-.1 0-.624.032-2.192.032h-5.76c-1.584 0-2.112-.032-2.208-.032-.16 0-.176.016-.176.192v1.12c0 .176.016.192.176.192.1 0 .624-.032 2.208-.032zm-1.264-2.32c1.408 0 1.872.032 1.968.032.176 0 .192-.016.192-.176v-1.072c0-.16-.016-.176-.192-.176-.1 0-.56.032-1.968.032h-3.452c-1.424 0-1.9-.032-2-.032-.16 0-.176.016-.176.176v1.072c0 .16.016.176.176.176.1 0 .576-.032 2-.032zm-.128 4.512c1.408 0 1.872.032 1.968.032.16 0 .176-.016.176-.16v-1.056c0-.16-.016-.176-.176-.176-.1 0-.56.032-1.968.032h-3.308c-1.408 0-1.888-.032-1.984-.032-.16 0-.176.016-.176.176v1.056c0 .144.016.16.176.16.1 0 .576-.032 1.984-.032zm0 2.208c1.408 0 1.872.032 1.968.032.16 0 .176-.016.176-.176v-1.04c0-.16-.016-.176-.176-.176-.1 0-.56.032-1.968.032h-3.308c-1.408 0-1.888-.032-1.984-.032-.16 0-.176.016-.176.176v1.04c0 .16.016.176.176.176.1 0 .576-.032 1.984-.032zm14.528-8.048h-2.5l.448 9.52h1.616zm-2.396 11.072v2.16h2.272v-2.16z" fill="#292929"/></svg>