<svg xmlns="http://www.w3.org/2000/svg" viewBox="0 0 186.72 85.72"><defs><style>.cls-1{fill:#b02757;}</style></defs><g id="レイヤー_2" data-name="レイヤー 2"><g id="レイヤー_1-2" data-name="レイヤー 1"><path class="cls-1" d="M32.13,77.58h2.72V81l3.81-3.43h3.2l-4.12,3.55,4.45,4.45H38.66l-3.81-4.06v4.06H32.13Z"/><path class="cls-1" d="M51.4,77.58h3.25l4.71,8h-3.1L55.41,84H50.18l-.89,1.62H46.4Zm3.13,4.84-1.64-3.08-1.81,3.08Z"/><path class="cls-1" d="M64,77.58H66.8l1.84,5.88,2.21-5.88h3.06l2,6,1.88-6h2.51l-2.76,8H74.08l-1.87-5.72-2.1,5.72H66.76Z"/><path class="cls-1" d="M89.94,77.58h3.25l4.71,8H94.81L94,84H88.73l-.9,1.62H84.94Zm3.13,4.84-1.64-3.08-1.81,3.08Z"/><path class="cls-1" d="M105.92,82.92V83c0,.78.61,1.15,1.92,1.15,1.16,0,1.73-.28,1.73-.83s-.93-.74-2.61-1c-2.43-.39-3.56-1-3.56-2.32,0-1.62,1.55-2.53,4.49-2.53,2.73,0,4,.73,4.17,2.41h-2.58v0c0-.59-.56-.89-1.67-.89s-1.66.28-1.66.75c0,.64.81.69,2.45,1a6.92,6.92,0,0,1,2.92.86,1.93,1.93,0,0,1,.81,1.61c0,1.63-1.63,2.58-4.64,2.58s-4.49-.87-4.49-2.64v-.16Z"/><path class="cls-1" d="M122.59,77.58h3.25l4.71,8h-3.1L126.6,84h-5.23l-.89,1.62h-2.89Zm3.13,4.84-1.64-3.08-1.81,3.08Z"/><path class="cls-1" d="M136.27,77.58H139V81l3.81-3.43H146l-4.12,3.55,4.46,4.45H142.8L139,81.52v4.06h-2.72Z"/><path class="cls-1" d="M152,77.58h2.74v8H152Z"/><rect class="cls-1" y="71.03" width="186.72" height="2.85"/><path class="cls-1" d="M53.79,64c-2.71-.57-3.08-2.56-3.08-4.52V29.32c0-3.87-2.46-14.12-19.84-13.75-11.07,0-17.85,6.11-18,12.68-.1,4.8,3,7.08,5.9,7.08a5.76,5.76,0,0,0,3.61-10.26c-.81-.81-1.16-1.12-1.16-1.95,0-1.48,2.9-3.73,9.75-3.73,8.21,0,11.09,4.67,11.09,9.63v8.42C37,38.36,18.9,40.28,13.35,48c-2.74,3.8-3.38,6.88-3,10.5C11,63.79,17.2,66.89,20,67.7c8.28,2.43,17.39-.75,22.1-6.45.5,4.23,4.32,7,9.13,7a9.3,9.3,0,0,0,8.91-5.6l-1-.76A5.34,5.34,0,0,1,53.79,64ZM25.28,62.29c-4.77-2-6.26-7-4.91-10.36,2.9-7.15,15-8.31,21.72-9.42V56.06C38.29,60.37,31.58,65,25.28,62.29Z"/><path class="cls-1" d="M81,63.11c-3.26-.08-6.26-2.91-6.26-8.55V22.24H87.59V19.05H74.72V0H70.31c0,14.86-6.25,19.05-12.71,19.05v3.36h7.64V57.23a10.36,10.36,0,0,0,3,7.52,14.79,14.79,0,0,0,13.1,3.46c4.74-1,8.79-3.33,10.62-7.56,0,0-.69-.64-.93-.81C88.4,62.67,85.06,63.31,81,63.11Z"/><path class="cls-1" d="M176.82,54c-3.94,7.84-13.38,12.34-21.5,6.72C149.85,57,145.68,50,146.22,37h31.33c0-9.43-4.17-21.17-19.9-21.29-9.28-.07-21.31,6.77-21.55,26.09-.12,9.54,3.72,16.45,8.32,20.69,3.86,3.58,8.74,6.19,16.33,6,8.37-.16,15.75-5.3,17.26-14ZM157.76,20.2c8.62,0,10,8.6,10.31,11.81H147C147.25,26.83,150.33,20.2,157.76,20.2Z"/><path class="cls-1" d="M134,19.45c-3.45-5.61-13.61-1.09-17.56,2.06-1.22,1-3.75,3.12-3.75,3.12V16.54c-2.28,2.28-5.75,2.51-9.4,2.51H93.68v3.19h9.57V57.29c0,6.78-5.25,7.48-7.18,7.48H94.14v2h27.63v-2h-1.94c-1.93,0-7.18-.7-7.18-7.48V30c2.8-4,8-6.26,9.88-5.92,1.48.29,1.57,1.58,2.34,2.55A5.76,5.76,0,0,0,129,28.42a5.91,5.91,0,0,0,4.78-2.51A6.06,6.06,0,0,0,134,19.45Z"/><path class="cls-1" d="M163.85,7.82A4,4,0,0,0,160.21.68c-.24.12-15,10.74-15,10.74l1.13,2.22S163.65,7.91,163.85,7.82Z"/></g></g></svg>