<svg xmlns="http://www.w3.org/2000/svg" viewBox="0 0 314.17 59.41"><defs><style>.cls-1{fill:#cf0022;}.cls-2{fill:#004593;}</style></defs><g id="レイヤー_2" data-name="レイヤー 2"><g id="レイヤー_1-2" data-name="レイヤー 1"><rect class="cls-1" x="14.01" y="35.72" width="14.02" height="12.05"/><rect class="cls-1" y="23.68" width="14.01" height="12.05"/><rect class="cls-1" x="28.04" y="23.68" width="14.02" height="12.05"/><rect class="cls-1" x="14.01" y="11.63" width="14.02" height="12.04"/><path class="cls-2" d="M149.52,7.81H137a1.23,1.23,0,0,0-1.22,1.24V58.14A1.24,1.24,0,0,0,137,59.4h12.5a1.25,1.25,0,0,0,1.23-1.26V9.05A1.24,1.24,0,0,0,149.52,7.81Z"/><path class="cls-2" d="M187.86,20.59a.67.67,0,0,1,.66-.66H230.3a1.23,1.23,0,0,0,1.22-1.23V10A1.24,1.24,0,0,0,230.3,8.8H175.93A1.23,1.23,0,0,0,174.7,10V58.17a1.24,1.24,0,0,0,1.23,1.23H230.3a1.24,1.24,0,0,0,1.22-1.23V49.49a1.22,1.22,0,0,0-1.22-1.21H188.52a.67.67,0,0,1-.66-.67Z"/><path class="cls-2" d="M56.6,35.72H42.06V58.16a1.26,1.26,0,0,0,1.23,1.25H97.13c3.67,0,4.68-1.06,6.21-2.37,2.79-2.38,10.81-11.71,10.81-27.36s-8-24.93-10.81-27.33C101.81,1.05,100.8,0,97.13,0H43.29a1.24,1.24,0,0,0-1.23,1.24V23.68H56.6V12.29a.68.68,0,0,1,.67-.67H90.1a4.62,4.62,0,0,1,3,1.34c1.9,1.51,6.27,6.51,6.27,16.72S95,44.93,93.06,46.43a4.58,4.58,0,0,1-3,1.35H57.27a.68.68,0,0,1-.67-.67Z"/><path class="cls-2" d="M271.21,48.27a.67.67,0,0,1-.67-.67V40.46a.68.68,0,0,1,.67-.67h34.57A1.21,1.21,0,0,0,307,38.58v-9.3a1.23,1.23,0,0,0-1.22-1.23H271.21a.67.67,0,0,1-.67-.66V20.6a.67.67,0,0,1,.67-.66H313a1.22,1.22,0,0,0,1.22-1.22V10A1.22,1.22,0,0,0,313,8.82H258.62A1.22,1.22,0,0,0,257.41,10V27.39a.68.68,0,0,1-.68.66h-9.22a1.24,1.24,0,0,0-1.23,1.23v9.3a1.22,1.22,0,0,0,1.23,1.21h9.22a.69.69,0,0,1,.68.67V58.17a1.22,1.22,0,0,0,1.21,1.23H313a1.23,1.23,0,0,0,1.22-1.23V49.5A1.23,1.23,0,0,0,313,48.27Z"/></g></g></svg>