<svg xmlns="http://www.w3.org/2000/svg" viewBox="0 0 519.52 181.74"><defs><style>.cls-1{fill:#e60012;}.cls-2{fill:#1a0b08;}</style></defs><g id="レイヤー_2" data-name="レイヤー 2"><g id="レイヤー_1-2" data-name="レイヤー 1"><path class="cls-1" d="M58.86,107.33h-.81L46.58,55l-39.19.13L0,179.61l30.83-.1,2.69-57.95h1l12,57.9,26-.09,10.72-57.31h.59l4.2,57.27,30.83-.11-9-124.38L68.19,55Z"/><path class="cls-1" d="M219.26,116.77c.15,43.34-21.34,64.88-47.86,65s-48.16-22.29-48.3-64.65C123,72.87,144.56,51.54,171,51.45S219.11,72.87,219.26,116.77Zm-48-33.94c-7.54,0-12.21,7.28-12.11,34.15s4.79,34.09,12.34,34.06,12.21-7.28,12.12-34.15S178.81,82.81,171.26,82.83Z"/><path class="cls-1" d="M320,178.54l-38.45.13L262.69,133h-.64l.15,45.75-35.5.12-.42-124.41,43-.15c22.1-.07,40.87,13.45,41,39.79.05,15.8-9.49,25.92-15.68,28.46v1Zm-58.73-69.11h1.81c5.85,0,11.76-3.15,11.72-14,0-12.35-5.45-14.39-11.56-14.37h-2.07Z"/><path class="cls-1" d="M324.15,54.11l59.89-.2.1,29.61-26.95.09.06,16.26,25.31-.09.09,28.51-25.31.09.06,17.45,29.91-.11.11,32.59-62.85.21Z"/><path class="cls-1" d="M389.18,113.78l21.22-60,38-.13-30.62,60Z"/><path class="cls-1" d="M507,108.78c6.92,7.18,12.49,14.55,12.53,28.05.07,19.86-13.25,33.91-25.29,38.38a48.88,48.88,0,0,1-18.06,2.92c-19.07.06-28.63-9.46-28.63-9.46l-.12-33.25c2.9,3.51,7,5.47,11,7.9,5.15,3.15,14,3.21,14,3.21,11.17,0,10.49-8.81,10.49-8.81,0-5.27-4.52-8.54-4.52-8.54-2.86-2-10.44-7.76-10.44-7.76-9.25-6.93-14.79-14.11-17.71-20.57C445.93,91.21,447,83.52,447,83.52,446.92,52,483,49.6,483,49.6c5.88,0,10.84,0,15,.78,11,2.14,16,6.69,16,6.69L514,88.34s-11.1-9.29-20.52-9.26c0,0-10.3.37-10.28,7,0,0-.53,5.15,7.93,10.06A168.1,168.1,0,0,1,507,108.78Z"/><path class="cls-2" d="M131.63,1.36l10.45,0,0,10.32,9.13-10.35,12.26,0-11.6,12,12.94,19.83-12.52,0-7.7-12.68-2.47,2.62,0,10.09-10.45,0Z"/><path class="cls-2" d="M165.76,33.11l11.31-31.9,10.62,0L199.21,33l-10.4,0-1.25-4.2-10.4,0L176,33.08Zm16.56-22.32-3.19,11.44,6.59,0Z"/><path class="cls-2" d="M227.22,20.73h.09L230.83,1l10.09,0-7.82,31.9-10.27,0L219.1,14.43H219l-3.57,18.51-10.26,0-8-31.84,10.09,0,3.65,19.67H211l3.74-19.7,8.62,0Z"/><path class="cls-2" d="M238.23,32.87,249.54,1l10.62,0,11.52,31.83-10.39,0L260,28.59l-10.4,0-1.18,4.21Zm16.56-22.32L251.6,22l6.59,0Z"/><path class="cls-2" d="M290.89,10.07a2.82,2.82,0,0,0-1.51-2.16,5.9,5.9,0,0,0-2.7-.57c-2.3,0-3.32.68-3.31,1.83,0,4.78,18.32,1.75,18.36,13.35,0,7.39-6.11,11-14.88,11-8.4,0-13.91-4.86-14.15-10.62l10,0a3.66,3.66,0,0,0,1.74,2.52,5.84,5.84,0,0,0,3,.79c2.61,0,4.33-.86,4.32-2.36,0-4.83-18.32-1.45-18.36-13.62C273.35,3.45,279.18,0,287.14,0,296,0,300,4.47,300.8,10Z"/><path class="cls-2" d="M302.82,32.65,314.13.75l10.62,0,11.53,31.83-10.4,0-1.26-4.2-10.4,0L313,32.62Zm16.57-22.32-3.2,11.44,6.6,0Z"/><path class="cls-2" d="M340,.66l10.45,0,0,10.32L359.57.59l12.26,0-11.6,12,12.95,19.82-12.53.05L353,19.78l-2.47,2.62,0,10.09-10.44,0Z"/><path class="cls-2" d="M377,32.4,376.86.53,387.3.5l.11,31.87Z"/></g></g></svg>