<svg xmlns="http://www.w3.org/2000/svg" viewBox="0 0 198.43 71.77"><defs><style>.cls-1{fill:#231815;}.cls-2{fill:#00507a;}</style></defs><g id="レイヤー_2" data-name="レイヤー 2"><g id="レイヤー_1-2" data-name="レイヤー 1"><path class="cls-1" d="M21.44,4.21a1.09,1.09,0,0,0-.11.44c0,.68.81.72,1.53.72a16.78,16.78,0,0,0,1.88-.1c0-.81,0-.93,0-2.08-.64.07-1.86.19-2.82.19s-1.52-.13-1.88-.93l.13-.1a2.1,2.1,0,0,0,1.57.41,29.18,29.18,0,0,0,3-.18c0-.09.05-1.07.05-1.13,0-.49-.11-.75-.84-1L24,.32a1,1,0,0,1,.5-.12c.58,0,1.22.48,1.22.8,0,.1-.13.56-.14.65s-.09.43-.14.85a16.64,16.64,0,0,0,2.05-.32,10.27,10.27,0,0,1,1-.29c.2,0,.72.25.72.5s-.33.3-.8.37c-.15,0-1.18.15-3.07.35,0,.51,0,.92,0,1.58v.5a17.69,17.69,0,0,0,1.85-.38c.17,0,.84-.29,1-.29s.66.21.66.43-.38.35-1.07.49c-.2,0-1.24.24-2.43.36,0,1.19.09,2.18.14,2.53A11.89,11.89,0,0,1,28,9.28c.84.42,1,.9,1,1.17s-.1.31-.25.31-1.06-.7-1.23-.81a9.71,9.71,0,0,0-1.92-.89,2.18,2.18,0,0,1,0,.34c0,.7,0,1.92-2.35,1.92-1.53,0-2.57-.56-2.57-1.57,0-1.18,1.3-1.69,2.81-1.69a8.32,8.32,0,0,1,1.33.12c-.07-1.27-.08-1.34-.11-2.31-.5,0-1.45.11-1.91.11S20.9,6,20.9,5a1.11,1.11,0,0,1,.42-.81Zm3.48,5.15c0-.14,0-.31,0-.5a7.28,7.28,0,0,0-1.72-.2c-1.73,0-2,.74-2,1,0,.79,1,1,2,1C24.82,10.68,24.92,9.91,24.92,9.36Z"/><path class="cls-1" d="M34.39,1.56a1.38,1.38,0,0,1,1.4,1.16c0,.09-.15,1-.15,1a19.58,19.58,0,0,0-.2,2.35c0,2.23.87,3.16,1.19,3.16.16,0,.27-.13.54-.54.69-1,1.23-1.9,1.46-2.27l.14.08c-.49,1.15-1,2.29-1.15,2.57s-.22.45-.22.58.15.53.15.62a.3.3,0,0,1-.32.28A2.57,2.57,0,0,1,35.6,9.33a6.86,6.86,0,0,1-.85-3.64c0-.42.11-2.3.11-2.67,0-.87-.23-1.1-.56-1.33Zm7.66,6.09c.31,0,.94-.12,1.37-.21s.31-.33.31-.5a5.29,5.29,0,0,0-2.15-4.15l.07-.15c2.31.55,3,3.59,3,4.89,0,.18,0,1-.48,1-.17,0-.25-.13-.37-.27s-.26-.34-1.69-.42Z"/><path class="cls-1" d="M50.55.88a1.43,1.43,0,0,1,1.31,1.19,9.27,9.27,0,0,1-.41,1.26,16.35,16.35,0,0,0-.7,4.36c0,.64.1,1.25.23,1.25s.07,0,.19-.3c0-.08.77-1.82.92-2.18l.15.07c-.19.8-.22.88-.6,2.18a4.47,4.47,0,0,0-.2,1.15c0,.12,0,.67,0,.78s0,.38-.26.38c-.55,0-1-1.43-1-3.38a22.05,22.05,0,0,1,.55-4.54A7,7,0,0,0,50.86,2a1.12,1.12,0,0,0-.39-1Zm4,6.22a3.17,3.17,0,0,0-.1.76c0,1.59,1.36,1.67,2.66,1.67a9.46,9.46,0,0,0,1.34-.08l.72-.11c.36,0,.78.23.78.49s-.09.46-2.27.46c-1.35,0-3.69,0-3.69-2a2.1,2.1,0,0,1,.42-1.25ZM54.06,3A6.75,6.75,0,0,1,58,2c.61,0,1.54,0,1.54.56,0,.23-.07.23-.7.31A6.81,6.81,0,0,0,56.58,4l-.12-.11,1.12-1.16c0-.08-.3-.08-.42-.08a8.79,8.79,0,0,0-3,.54Z"/><path class="cls-1" d="M67.24,11.06c3.33-.23,6.27-1,6.27-3.41a1.69,1.69,0,0,0-1.93-1.78,5.78,5.78,0,0,0-4.11,1.85c-.35.38-.39.42-.54.42-.42,0-.65-.57-.65-.81a4.32,4.32,0,0,1,.38-.85c.24-.58.44-1.17,1-2.91a9,9,0,0,1-1.33.14,1.45,1.45,0,0,1-1.44-.86l.12-.1a2,2,0,0,0,1.34.32A11.51,11.51,0,0,0,67.86,3,11.39,11.39,0,0,0,68.35,1c0-.39-.21-.54-.53-.73l.05-.16a1.29,1.29,0,0,1,.29,0c.65,0,1.3.58,1.3.88a4.69,4.69,0,0,1-.44.78c-.09.19-.21.46-.46,1.1a19,19,0,0,0,3-.67,6,6,0,0,1,.8-.25c.26,0,.74.15.74.4s-.13.27-1.36.53c-1,.19-3,.54-3.4.6-.42,1.16-.85,2.63-1,3.28a9.63,9.63,0,0,1,4.34-1.28c1.27,0,2.69.62,2.69,2.3,0,2.35-2.56,3.48-6,3.48-.52,0-.86,0-1.13,0Z"/><path class="cls-1" d="M84.34,2.36a.12.12,0,0,1,.09.12c0,.07,0,.1-.19.18-.22.49-.3.62-.5,1a13.2,13.2,0,0,0,2.44-.32l.11.64a25.33,25.33,0,0,1-2.91.33A15.14,15.14,0,0,1,82.2,6a2.26,2.26,0,0,1,1.28-.4,1.31,1.31,0,0,1,1.21.63,1.78,1.78,0,0,1,.2.72c1.48-.62,1.54-.65,2.48-1.08l.52.46a.23.23,0,0,1,.06.15s-.06.09-.14.09h-.14c-.83.3-1.86.71-2.73,1.06v2h-.7V7.91A7.57,7.57,0,0,0,83,8.7a1.59,1.59,0,0,0-.69,1.18.74.74,0,0,0,.51.77,4.44,4.44,0,0,0,1.5.19,14.72,14.72,0,0,0,3.3-.34,2.72,2.72,0,0,0-.07.56,1.86,1.86,0,0,0,0,.22,21.05,21.05,0,0,1-3.16.23,4.19,4.19,0,0,1-2.21-.39,1.39,1.39,0,0,1-.58-1.19,2,2,0,0,1,.81-1.54,8.29,8.29,0,0,1,1.82-1.16c-.09-.75-.33-1-.94-1a2.58,2.58,0,0,0-1.61.71,5.94,5.94,0,0,0-1,1l-.6-.61a11.9,11.9,0,0,0,2.48-2.94l-.84,0a10.16,10.16,0,0,1-1.07-.05V3.66c.57,0,1,0,1.53,0H83a5.94,5.94,0,0,0,.67-1.5Z"/><path class="cls-1" d="M92.15,8.81a14,14,0,0,1,2.08,2.39l-.71.57a12.31,12.31,0,0,0-1.94-2.41Z"/><path class="cls-1" d="M110.76,3.76c.73.23.92.66,1,1,2.84.39,3,2.36,3,3,0,1.72-1.32,3.63-5.15,3.87V11.4c2.53-.54,4.34-1.77,4.34-3.8a2.42,2.42,0,0,0-2.26-2.5A13.71,13.71,0,0,1,108.76,9c.08.3.23.8.23.88a.26.26,0,0,1-.27.28c-.38,0-.48-.44-.54-.65a5,5,0,0,1-2.5,1.3c-.93,0-1.27-1-1.27-1.59,0-1.87,2-3.36,3.47-4a20.27,20.27,0,0,1,.23-2c-.23,0-1.7.17-1.82.17-1.15,0-1.33-.62-1.39-.86l.13-.1c.2.21.41.37,1.12.37a17.6,17.6,0,0,0,2.06-.15,12.9,12.9,0,0,0,.27-1.7c0-.41-.24-.54-.64-.73l.06-.15a1.61,1.61,0,0,1,.4-.07c.58,0,1.21.49,1.21.81,0,.11,0,.19-.18.45a4.28,4.28,0,0,0-.47,1.31,12.76,12.76,0,0,0,3-.66,1.59,1.59,0,0,1,.62-.18c.31,0,.65.2.65.42s0,.24-1.49.54-2.41.41-2.85.46a17.29,17.29,0,0,0-.25,1.91A8.42,8.42,0,0,1,111,4.65c0-.27,0-.42-.38-.78Zm-2.9,2c-1.88,1-2.79,2.37-2.79,3.46,0,.64.34,1,.72,1,.69,0,2-1.12,2.26-1.3A12.78,12.78,0,0,1,107.86,5.76Zm.58.7a10.23,10.23,0,0,0,.16,1.92A10.69,10.69,0,0,0,110.93,5a7,7,0,0,0-2.46.46C108.44,6.06,108.44,6.19,108.44,6.46Z"/><path class="cls-1" d="M122.94.26a1.08,1.08,0,0,1,.35-.07,1.21,1.21,0,0,1,1.12.93,2.73,2.73,0,0,1-.27.54A12.87,12.87,0,0,0,123.67,3a6.44,6.44,0,0,0,1.44-.48c.45-.21.49-.23.69-.23.45,0,.56.29.56.38s0,.26-1.06.54c-.62.17-.94.23-1.83.42-.74,2.13-1.43,4.18-2.32,6.28-.42,1-.52,1.22-.82,1.22s-.38-.25-.38-.59c0-.19,0-.24.35-.73a41.7,41.7,0,0,0,2.43-6,9.3,9.3,0,0,1-1.5.16c-1.09,0-1.32-.53-1.43-.76l.12-.11a2.26,2.26,0,0,0,1.29.25,11.65,11.65,0,0,0,1.71-.15,7.32,7.32,0,0,0,.53-1.95.79.79,0,0,0-.57-.73Zm2.31,7.5a2.09,2.09,0,0,0-.5,1.27c0,1.34,1.84,1.34,2.87,1.34a7.17,7.17,0,0,0,1.3-.09l.45-.07c.23,0,.71.18.71.49s-.22.29-.73.34c-.33,0-.75.06-1.5.06s-3.61,0-3.61-1.85a2,2,0,0,1,.87-1.58Zm.28-3.24A5.13,5.13,0,0,1,128,4c1.28,0,1.93.39,1.93.72s-.31.27-.43.27a1.17,1.17,0,0,0-.58.09c-.1,0-.61.31-1.52.8l-.09-.12a10.25,10.25,0,0,0,1-1.06c0-.19-.77-.19-1-.19a10.4,10.4,0,0,0-1.8.21Z"/><path class="cls-1" d="M137,11.2c1.64-.23,5.72-.81,5.72-3.55a2,2,0,0,0-2.13-2,5.12,5.12,0,0,0-4,2.23c-.25.34-.4.53-.63.53s-.7-.49-.7-1c0-.28.32-1.47.37-1.73a13.47,13.47,0,0,0,.33-2c.11-1,.31-1.37,2.69-1.78.41-.06.46-.08.46-.13s0-.06-.26-.15A2.75,2.75,0,0,1,137.14.39l.11-.12a5.09,5.09,0,0,0,2.49,1c.4.08,1.32.24,1.32.94a.3.3,0,0,1-.31.29l-.58-.14a2.67,2.67,0,0,0-.79-.09,7.46,7.46,0,0,0-2.19.35c-.24.08-.73.24-.73.73,0,.14.21.73.21.85,0,.35-.67,2.34-.67,2.8,0,.11,0,.16.08.16s.14,0,.5-.31a6.62,6.62,0,0,1,4-1.55c1.86,0,2.9,1,2.9,2.46,0,1.65-1.31,3.62-6.55,3.61Z"/><path class="cls-1" d="M149.16.49a1.29,1.29,0,0,1,.36-.06c.71,0,1.46.62,1.46,1,0,.19-.17,1-.19,1.19,0,.35-.35,3.41-.35,5.14,0,1,0,2.61,1.94,2.61s4-1.35,5.33-3.62l.15,0a5.84,5.84,0,0,1-5.33,4.33c-2.87,0-2.87-2.6-2.87-3.45S150,2.85,150,2a1.32,1.32,0,0,0-.82-1.39Z"/><path class="cls-1" d="M167.12.09l.33,0a1.28,1.28,0,0,1,1.32,1.23c0,.28-.09.35-1,1-2.37,1.63-2.89,2-3.89,2.77-.22.17-.72.57-.72.88s.13.42,2,1.62A27.49,27.49,0,0,1,168.45,10c.51.45.65.69.65,1s-.14.6-.38.6-.42-.24-.58-.48A13.53,13.53,0,0,0,164.65,8c-.26-.19-1.42-.93-1.65-1.09s-.62-.49-.62-.9.47-.86,1.74-1.82,2.52-2,2.79-2.22c.46-.39.78-.74.78-1s-.38-.54-.61-.64Z"/><path class="cls-1" d="M178.31,9.56a1.85,1.85,0,1,1-1.84-1.85A1.85,1.85,0,0,1,178.31,9.56Zm-3.16,0a1.32,1.32,0,1,0,1.32-1.32A1.32,1.32,0,0,0,175.15,9.56Z"/><path class="cls-2" d="M19,68.5H9.81A2.25,2.25,0,0,1,7.27,66V33c0-.9-1.63-1.64-3.63-1.64S0,32.07,0,33V66c0,4.14,4.14,5.82,9.81,5.82H19c1,0,3.61,0,3.61-1.64S20,68.5,19,68.5"/><path class="cls-2" d="M76.64,34.6H67.48a2.25,2.25,0,0,0-2.54,2.55v33c0,.9-1.63,1.64-3.64,1.64s-3.63-.74-3.63-1.64v-33c0-4.14,4.13-5.82,9.81-5.82h9.16c1,0,3.6,0,3.6,1.64s-2.59,1.63-3.6,1.63"/><path class="cls-2" d="M30.93,45.09a2.25,2.25,0,0,1,2.54-2.55h1.18a2.25,2.25,0,0,1,2.54,2.55v6.6H30.93Zm4.56-5.8c-.33,0-2.53,0-2.85,0-5.24.16-9,1.87-9,5.8v6.6H20.07c-1,0-3.6,0-3.6,1.63S19.06,55,20.07,55h3.59V66c0,4.14,4.14,5.82,9.81,5.82H39.3c1,0,3.6,0,3.6-1.64s-2.59-1.64-3.6-1.64H33.47A2.25,2.25,0,0,1,30.93,66V55h9.9c2,0,3.63-.67,3.63-1.93V45.09c0-3.93-3.73-5.64-9-5.8"/><path class="cls-2" d="M128.19,66a2.25,2.25,0,0,1-2.54,2.55h-3.33A2.26,2.26,0,0,1,119.77,66V37.15a2.26,2.26,0,0,1,2.55-2.55h3.33a2.25,2.25,0,0,1,2.54,2.55Zm-2.54-34.62h-3.33c-5.68,0-9.82,1.68-9.82,5.82V66c0,4.14,4.14,5.82,9.82,5.82h3.33c5.67,0,9.81-1.68,9.81-5.82V37.15c0-4.14-4.14-5.82-9.81-5.82"/><path class="cls-2" d="M98.89,49.14a2.25,2.25,0,0,1-2.54,2.55H90.48V34.6h5.87a2.25,2.25,0,0,1,2.54,2.55ZM96.35,31.33H86.84c-2,0-3.63.67-3.63,1.93V70.13c0,.9,1.63,1.64,3.63,1.64s3.64-.74,3.64-1.64V55L99,70.13c.59,1.07,1.41,1.64,3.63,1.64,2,0,4-1,3.42-2.07L97.72,54.92c5-.26,8.44-2,8.44-5.78v-12c0-4.14-4.13-5.82-9.81-5.82"/><path class="cls-2" d="M194.82,31.76H171.55c-1,0-3.6,0-3.6,1.64s2.59,1.63,3.6,1.63h8V70.12c0,.91,1.63,1.65,3.64,1.65s3.63-.74,3.63-1.65V35h8c1,0,3.61,0,3.61-1.63s-2.6-1.64-3.61-1.64"/><path class="cls-2" d="M162.21,31.33c-2,0-3.63.74-3.63,1.64V45.76l-2.37-11.9c-.28-1.33-1.79-2.1-3.8-2.1h-7.07c-1.89,0-3.4.71-3.4,1.92V70.13c0,.9,1.63,1.64,3.63,1.64s3.64-.74,3.64-1.64V35l9.28,35.1a1.44,1.44,0,0,0,.27.48,1.65,1.65,0,0,0,.46.45,5.21,5.21,0,0,0,2.91.71h.08c2,0,3.63-.74,3.63-1.64V33c0-.9-1.62-1.64-3.63-1.64"/><path class="cls-2" d="M73.94,41.72C67.21,49.3,58.33,53.34,47.47,56.2c8.71,2.52,23.78.64,33.87-5.49Z"/></g></g></svg>