<svg xmlns="http://www.w3.org/2000/svg" viewBox="0 0 281.9 130.81"><defs><style>.cls-1{fill:#45b035;}.cls-2{fill:#fff;}</style></defs><g id="レイヤー_2" data-name="レイヤー 2"><g id="レイヤー_1-2" data-name="レイヤー 1"><path class="cls-1" d="M69.77,2.69H57V1.4H69.77ZM69,8H57.79V6.64H69Zm1.52,5.78H56.28V12.4H70.5Z"/><path class="cls-1" d="M78.49,4.53h4.73V8.65H78.36c0-.08.13-1,.13-1.68ZM77.21,3.31H73.84V4.53h3.37V7a10,10,0,0,1-.16,1.63H73.58V9.89H76.8a7.29,7.29,0,0,1-3.3,3.77l.91,1.06c3-2,3.49-3.85,3.71-4.83h5.1v4.83H84.5V9.89H88V8.65H84.5V4.53h3.28V3.31H84.5v-3H83.22v3H78.49v-3H77.21Z"/><path class="cls-1" d="M96,4.24a20.22,20.22,0,0,0-4.51-1.83l.63-1.2A17.87,17.87,0,0,1,96.63,3ZM94.71,7.83A17.42,17.42,0,0,0,90.29,6l.64-1.25a18,18,0,0,1,4.43,1.79ZM91.1,12.22c6.41-.43,9-3.09,10.84-8.66l1.32.59c-1.92,5.37-4.23,8.78-11.83,9.58Z"/><polygon class="cls-1" points="115.37 4.44 115.37 13.57 106.72 13.57 106.72 12.32 114.03 12.32 114.03 9.44 107.02 9.44 107.02 8.23 114.03 8.23 114.03 5.67 106.89 5.67 106.89 4.44 115.37 4.44"/><path class="cls-1" d="M121.65,8.88a13.19,13.19,0,0,0-1.23-3.74l1.22-.34A14.49,14.49,0,0,1,123,8.56ZM125,8.23a14.71,14.71,0,0,0-1-3.68l1.24-.29a15.51,15.51,0,0,1,1.09,3.66Zm-3.34,4.92c4.54-1,6.81-2.64,7.8-8.69l1.37.23c-.91,4.48-2.18,8.14-8.62,9.62Z"/><path class="cls-1" d="M146.59,1.77a.83.83,0,0,1-.82.84.84.84,0,0,1-.83-.84.83.83,0,0,1,.83-.82.82.82,0,0,1,.82.82m-11.9-.43V11.49c0,2,1.37,2.28,2.86,2.28h5.83l1.48-.06c.25,0,.58-.05,1.17-.12L146,12.13a17.77,17.77,0,0,1-2.55.25h-6a3.57,3.57,0,0,1-.95-.13c-.3-.14-.31-.28-.33-1V7.73c5.42-1.43,7.07-2.14,9-3.12l-.93-1.22a34.39,34.39,0,0,1-8,3v-5Zm12.69.43a1.62,1.62,0,1,0-1.61,1.63,1.62,1.62,0,0,0,1.61-1.63"/><path class="cls-1" d="M154.49,5.32A17.21,17.21,0,0,0,149.72,3l.71-1.24A19.76,19.76,0,0,1,155.36,4Zm-4.69,7a12.18,12.18,0,0,0,7.85-2.94,14.29,14.29,0,0,0,3.8-6.5l1.4.62c-1.11,3.19-2.2,5.4-4.26,7.14a15,15,0,0,1-8.25,3.22Z"/><path class="cls-1" d="M165.64,6.71a11,11,0,0,0,4.9-6L172.1.9a13.51,13.51,0,0,1-1,2.07H178a14.44,14.44,0,0,1-3.65,7.79,12.82,12.82,0,0,1-7.23,3.45l-.61-1.29c3.48-.53,7.92-1.87,9.75-8.65h-5.94a11.5,11.5,0,0,1-3.73,3.51Zm10.57-4.15a15.77,15.77,0,0,0-.83-2.19l1-.26a13.51,13.51,0,0,1,.9,2.17Zm2.13-.12a16.31,16.31,0,0,0-.89-2.17l1-.27a14.43,14.43,0,0,1,1,2.13Z"/><path class="cls-1" d="M193.81,1.82a.83.83,0,1,1-1.65,0,.83.83,0,0,1,1.65,0m.79,0A1.62,1.62,0,1,0,193,3.45a1.63,1.63,0,0,0,1.62-1.63M181.23,14c1.94-2.32,3.34-5.14,3.82-12.2l-1.5-.14c-.2,4.8-1.11,8.8-3.49,11.36Zm7.71-12.22c.33,4.41,1.33,8.85,4.13,12.25l1.25-1c-1.17-1.37-3.45-4.28-4-11.42Z"/><rect class="cls-1" x="196.54" y="6.71" width="13.79" height="1.49"/><path class="cls-1" d="M225.62,2.89c-1.12,6.44-4.44,10.25-11,11.35L214.05,13c6.26-1.06,8.57-4.17,9.76-8.78h-5.92a15.85,15.85,0,0,1-3.8,3.68L213.2,6.8A12.52,12.52,0,0,0,218.27.62l1.54.28a10.81,10.81,0,0,1-1,2Z"/><rect class="cls-1" y="20.66" width="281.9" height="110.15"/><path class="cls-2" d="M147.89,83.53l6.92,9.93-6.92,15.69Zm-130,47.28h.73L49,58.6,61.9,88.94,31.26,130.81h1.67L62.52,90.39l17.19,40.42h.72L63,89.77l45.73-62.46,21.14,30.34v73.16h.56V58.44l16.92,24.29v27.68l-9,20.4h1.5l7.49-17v17h.56V112.54l7.84-17.77,25.12,36h.8L156,94.07l15.17-34.4,28.91,71.14h.73l-29.26-72,16.83-38.17h-1.49L170.87,57.06l-14.8-36.41h-.72L170.5,57.91,155.12,92.75l-7.23-10.38V20.65h-.56V81.57L130.41,57.29V20.65h-.56V56.49L109.12,26.75l4.46-6.1H111.9l-3.6,4.92-3.43-4.92h-.8l3.82,5.49L62.37,88.32l-13-30.57L65,20.65h-.72L49,56.89,33.59,20.65h-.72l15.77,37.1Z"/><rect class="cls-2" x="14.68" y="20.66" width="0.66" height="110.15"/><polygon class="cls-2" points="196.25 73.91 197.21 73.91 197.21 79.07 199.36 76.91 200.69 76.91 198.35 79.18 200.89 81.9 199.53 81.9 197.21 79.31 197.21 81.9 196.25 81.9 196.25 73.91"/><path class="cls-2" d="M206.94,78.1a2,2,0,0,1,1.42-.57,1.08,1.08,0,0,1,1.2,1v.22h-.7c-1.52,0-2.76.44-2.76,1.73a1.55,1.55,0,0,0,1.73,1.5,1.91,1.91,0,0,0,1.76-.88h0a6.28,6.28,0,0,0,0,.75h.84a8,8,0,0,1,0-.91V78.44c0-.87-.62-1.67-2.1-1.67a3,3,0,0,0-2,.73l.58.6m2.62,1.39v.32a1.35,1.35,0,0,1-1.42,1.46c-.67,0-1.08-.24-1.08-.81,0-.81,1.09-1,2-1Z"/><polygon class="cls-2" points="215.83 76.89 216.9 76.89 218.03 80.64 218.05 80.64 219.25 76.89 220.25 76.89 221.52 80.64 221.54 80.64 222.62 76.89 223.63 76.89 222.01 81.9 221.05 81.9 219.72 78.16 219.7 78.16 218.51 81.9 217.49 81.9 215.83 76.89"/><path class="cls-2" d="M229.65,78.1a2.08,2.08,0,0,1,1.43-.57,1.08,1.08,0,0,1,1.2,1v.22h-.7c-1.53,0-2.76.44-2.76,1.73a1.55,1.55,0,0,0,1.73,1.5,1.92,1.92,0,0,0,1.76-.88h0a6.28,6.28,0,0,0,0,.75h.84a8,8,0,0,1,0-.91V78.44c0-.87-.61-1.67-2.1-1.67a2.94,2.94,0,0,0-2,.73l.56.6m2.63,1.39v.32a1.35,1.35,0,0,1-1.43,1.46c-.66,0-1.08-.24-1.08-.81,0-.81,1.11-1,2-1Z"/><path class="cls-2" d="M241.82,78.15a1.25,1.25,0,0,0-1-.49c-.45,0-.84.2-.84.56,0,.59.85.68,1.28.78.83.2,1.46.52,1.46,1.46,0,1.13-1,1.57-2,1.57a2.17,2.17,0,0,1-1.93-.88l.72-.6a1.65,1.65,0,0,0,1.21.6c.5,0,1-.2,1-.64s-.79-.67-1.21-.78c-.81-.2-1.53-.46-1.53-1.42s1-1.55,1.9-1.55a1.93,1.93,0,0,1,1.72.83l-.74.56"/><path class="cls-2" d="M249,78.1a2.06,2.06,0,0,1,1.43-.57,1.07,1.07,0,0,1,1.19,1v.22H251c-1.52,0-2.76.44-2.76,1.73a1.55,1.55,0,0,0,1.73,1.5,1.93,1.93,0,0,0,1.76-.88h0q0,.38,0,.75h.85a6.06,6.06,0,0,1,0-.91V78.44c0-.87-.61-1.67-2.09-1.67a3,3,0,0,0-2,.73l.57.6m2.62,1.39v.32a1.35,1.35,0,0,1-1.42,1.46c-.66,0-1.08-.24-1.08-.81,0-.81,1.1-1,2-1Z"/><polygon class="cls-2" points="258.54 73.91 259.49 73.91 259.49 79.07 261.65 76.91 262.97 76.91 260.63 79.18 263.17 81.9 261.82 81.9 259.49 79.31 259.49 81.9 258.54 81.9 258.54 73.91"/><path class="cls-2" d="M269.18,74.4a.7.7,0,1,1-.7.69.71.71,0,0,1,.7-.69m-.48,2.49h1v5h-1Z"/><path class="cls-2" d="M196.25,97.09h1V93.41h0a2.09,2.09,0,0,0,1.73.84A2.62,2.62,0,0,0,199,89a2.11,2.11,0,0,0-1.73.84h0v-.72h-1v8m2.6-7.2a1.74,1.74,0,1,1-1.64,1.74,1.6,1.6,0,0,1,1.64-1.74"/><rect class="cls-2" x="206.76" y="86.16" width="0.95" height="7.97"/><path class="cls-2" d="M214.14,90.33a2.06,2.06,0,0,1,1.43-.57,1.08,1.08,0,0,1,1.19,1V91h-.7c-1.52,0-2.75.44-2.75,1.72a1.55,1.55,0,0,0,1.73,1.5,1.89,1.89,0,0,0,1.75-.89h0c0,.26,0,.51,0,.76h.85a6.09,6.09,0,0,1-.05-.9V90.67c0-.87-.61-1.66-2.09-1.66a2.93,2.93,0,0,0-2,.73l.57.59m2.62,1.39V92a1.35,1.35,0,0,1-1.42,1.45c-.66,0-1.08-.24-1.08-.81,0-.8,1.1-1,2-1Z"/><polygon class="cls-2" points="224.26 93.27 227.09 89.95 224.35 89.95 224.35 89.12 228.25 89.12 228.25 89.97 225.39 93.3 228.4 93.3 228.4 94.12 224.26 94.12 224.26 93.27"/><path class="cls-2" d="M234.94,90.33a2,2,0,0,1,1.42-.57,1.08,1.08,0,0,1,1.19,1V91h-.69c-1.52,0-2.75.44-2.75,1.72a1.54,1.54,0,0,0,1.72,1.5,1.92,1.92,0,0,0,1.76-.89h0c0,.26,0,.51,0,.76h.84a6.09,6.09,0,0,1,0-.9V90.67c0-.87-.6-1.66-2.08-1.66a2.89,2.89,0,0,0-2,.73l.57.59m2.61,1.39V92a1.35,1.35,0,0,1-1.42,1.45c-.65,0-1.08-.24-1.08-.81,0-.8,1.1-1,2-1Z"/><path class="cls-2" d="M28.74,78.7H18.09v-21a.29.29,0,0,0-.29-.29H15a.29.29,0,0,0-.29.29V81.61a.29.29,0,0,0,.29.29H28.74a.28.28,0,0,0,.28-.29V79a.27.27,0,0,0-.28-.28"/><path class="cls-2" d="M47.6,62l4.34,10.78H43L47.6,62m1.69-4.43a.29.29,0,0,0-.27-.18H46.36a.3.3,0,0,0-.27.17L35.56,81.5a.26.26,0,0,0,0,.27.26.26,0,0,0,.24.13H39a.3.3,0,0,0,.27-.17L41.69,76H53.26l2.35,5.7a.3.3,0,0,0,.26.17h3.32a.26.26,0,0,0,.23-.13.25.25,0,0,0,0-.26Z"/><path class="cls-2" d="M84.54,78.7H71.12L84.6,60.32a.58.58,0,0,0,.05-.18V57.72a.29.29,0,0,0-.29-.29h-17a.29.29,0,0,0-.29.29v2.63a.29.29,0,0,0,.29.29h13L66.89,78.91a.3.3,0,0,0-.06.18v2.52a.29.29,0,0,0,.28.29H84.54a.29.29,0,0,0,.28-.29V79a.28.28,0,0,0-.28-.28"/><path class="cls-2" d="M106.13,79.31c-5.22,0-9.16-4.15-9.16-9.64S100.91,60,106.13,60s9.16,4.14,9.16,9.64-3.93,9.64-9.16,9.64m0-22.48A12.39,12.39,0,0,0,93.35,69.67a12.78,12.78,0,1,0,25.56,0,12.39,12.39,0,0,0-12.78-12.84"/><path class="cls-2" d="M150.45,57.43h-2.83a.29.29,0,0,0-.29.29v19L134,57.55a.33.33,0,0,0-.24-.12h-3.58a.28.28,0,0,0-.28.29V81.61a.28.28,0,0,0,.28.29H133a.29.29,0,0,0,.29-.29v-19l13.39,19.19a.25.25,0,0,0,.22.12h3.58a.29.29,0,0,0,.29-.29V57.72a.29.29,0,0,0-.29-.29"/><path class="cls-2" d="M172.15,62l4.39,10.78H167.6L172.15,62M184,81.51l-10.16-23.9a.28.28,0,0,0-.27-.18h-2.66a.28.28,0,0,0-.26.17L160.11,81.5a.29.29,0,0,0,0,.27.26.26,0,0,0,.24.13h3.2a.3.3,0,0,0,.27-.17l2.39-5.7h11.59l2.33,5.7a.3.3,0,0,0,.27.17h3.3a.29.29,0,0,0,.25-.13.3.3,0,0,0,0-.26"/></g></g></svg>