<svg xmlns="http://www.w3.org/2000/svg" viewBox="0 0 261.48 24.33"><defs><style>.cls-1{fill:#002d24;}</style></defs><g id="レイヤー_2" data-name="レイヤー 2"><g id="OJ"><path class="cls-1" d="M7.15,18.09c0,1.72.07,3,.59,3.55s1,.76,3.72.76c3.82,0,4.37-.18,6-3.73a.94.94,0,0,1,1.07.21,33.4,33.4,0,0,1-1.45,5c-1.45-.07-4.41-.11-8.27-.11H5.19c-1.76,0-3.48,0-4.93.11-.28-.14-.38-.83-.07-1l1-.17c1.62-.21,1.93-.31,1.93-3.9V6c0-3.59-.31-3.69-1.93-3.93l-1-.14C0,1.76,0,1.07.33.93,2.05,1,3.6,1,5.19,1S8.25,1,9.77.93a.69.69,0,0,1,.07,1l-.76.14C7.46,2.31,7.15,2.41,7.15,6Z"/><path class="cls-1" d="M28.82,13.78c-.82,0-.93,0-.55-1l1.45-4c.62-1.62.89-2.48,1-2.72h.07a16.47,16.47,0,0,1,1,2.72l1.44,4.14c.28.82.14.89-.82.89Zm4,1.55c1,0,1.07,0,1.42.93L35.89,21c.44,1.48.34,1.69-.9,1.82l-.76.11a.79.79,0,0,0,.11,1c1.2,0,2.72-.11,4.2-.11,1.79,0,3.07,0,4.48.11a.74.74,0,0,0,0-1l-.51-.11c-1.76-.31-1.93-.55-2.72-2.86l-5-14.43c-.55-1.55-1-3.17-1.55-4.72a.67.67,0,0,0-.58-.28,6.07,6.07,0,0,1-2.41,1.65,5.51,5.51,0,0,1-.66,2.52L24.86,16.92c-.72,1.86-1.28,3.3-1.69,4.2-.52,1.14-.89,1.45-1.89,1.59l-1,.17a.77.77,0,0,0,0,1c1.2-.07,2.27-.11,3.41-.11,1.41,0,2.55,0,3.65.11.28-.14.31-.76.07-1l-1-.17c-1.27-.18-1.41-.28-.72-2.31l1.41-4.14c.31-.93.28-.93,1.17-.93Z"/><path class="cls-1" d="M71.38,6.82a.89.89,0,0,1-1.11.07c-.58-2.17-2.13-5-6.68-5C59.21,1.86,54.8,5,54.8,12c0,7.35,4.59,10.93,9,10.93s6.24-2.9,7.2-5.14a.7.7,0,0,1,1,.14,13.59,13.59,0,0,1-1.66,5.24,10.51,10.51,0,0,0-1.2.31,20.61,20.61,0,0,1-5.38.83A15.77,15.77,0,0,1,55,22a10.86,10.86,0,0,1-4.89-9.48,11.24,11.24,0,0,1,4.34-9.13A16,16,0,0,1,64,.48a26.81,26.81,0,0,1,6,.76c.41.1.65.14,1,.21C71,2.24,71,4.27,71.38,6.82Z"/><path class="cls-1" d="M80.13,18.81c0,3.65.31,3.76,1.93,4l.76.11a.75.75,0,0,1-.07,1c-1.52-.07-3.07-.11-4.59-.11s-3.13,0-4.65.11a.75.75,0,0,1-.07-1l.76-.11c1.62-.2,1.93-.31,1.93-4V6c0-3.66-.31-3.76-1.93-4l-.76-.1a.75.75,0,0,1,.07-1C75,1,76.58,1,78.16,1s3.07,0,4.59-.1a.75.75,0,0,1,.07,1l-.76.1c-1.62.21-1.93.31-1.93,4Z"/><path class="cls-1" d="M94.5,3.93c0-1.45,0-1.52-.93-1.52H91.64c-3.17,0-4.1.38-5.38,3.17a.86.86,0,0,1-1.1-.24c.58-1.86,1.1-4,1.34-5.2A.42.42,0,0,1,86.88,0a.39.39,0,0,1,.35.14c.17.86.65.89,3,.89h14.06c1.69,0,2.21-.1,2.62-.89a1,1,0,0,1,.41-.14.56.56,0,0,1,.45.17,24.1,24.1,0,0,0-.51,5.48.82.82,0,0,1-1.07.1c-.45-2.68-1.11-3.34-4.79-3.34h-2c-.89,0-.93.07-.93,1.52V18.81c0,3.65.31,3.76,1.93,3.93l1.24.14c.24.24.21.86-.07,1-2-.07-3.55-.11-5.06-.11s-3.14,0-5.34.11a.74.74,0,0,1-.07-1l1.45-.17c1.62-.14,1.93-.25,1.93-3.9Z"/><path class="cls-1" d="M118.61,3.93c0-1.45,0-1.52-.93-1.52h-1.93c-3.16,0-4.1.38-5.37,3.17a.86.86,0,0,1-1.1-.24c.58-1.86,1.1-4,1.34-5.2A.42.42,0,0,1,111,0a.36.36,0,0,1,.34.14c.18.86.66.89,3,.89H128.4c1.69,0,2.21-.1,2.62-.89a1,1,0,0,1,.41-.14.56.56,0,0,1,.45.17,24.73,24.73,0,0,0-.52,5.48.81.81,0,0,1-1.06.1c-.45-2.68-1.11-3.34-4.79-3.34h-2c-.89,0-.93.07-.93,1.52V18.81c0,3.65.31,3.76,1.93,3.93l1.24.14c.24.24.21.86-.07,1-2-.07-3.55-.11-5.06-.11s-3.14,0-5.34.11a.74.74,0,0,1-.07-1l1.45-.17c1.62-.14,1.92-.25,1.92-3.9Z"/><path class="cls-1" d="M137.77,13.78c-.83,0-.93,0-.55-1l1.45-4c.62-1.62.89-2.48,1-2.72h.07a16.47,16.47,0,0,1,1,2.72l1.44,4.14c.28.82.14.89-.82.89Zm4,1.55c1,0,1.07,0,1.42.93L144.84,21c.44,1.48.34,1.69-.9,1.82l-.76.11a.79.79,0,0,0,.11,1c1.2,0,2.72-.11,4.2-.11,1.79,0,3.07,0,4.48.11a.74.74,0,0,0,0-1l-.51-.11c-1.76-.31-1.93-.55-2.72-2.86l-5-14.43c-.55-1.55-1-3.17-1.55-4.72a.67.67,0,0,0-.58-.28,6.07,6.07,0,0,1-2.41,1.65,5.51,5.51,0,0,1-.66,2.52l-4.72,12.27c-.72,1.86-1.27,3.3-1.69,4.2-.51,1.14-.89,1.45-1.89,1.59l-1,.17a.77.77,0,0,0,0,1c1.2-.07,2.27-.11,3.41-.11,1.41,0,2.55,0,3.65.11.28-.14.31-.76.07-1l-1-.17c-1.28-.18-1.41-.28-.72-2.31l1.41-4.14c.31-.93.28-.93,1.17-.93Z"/><path class="cls-1" d="M160.31,5.34c0-1.62,0-2.34.27-2.55a6,6,0,0,1,2.79-.48c5.76,0,9.72,3.31,9.72,10.13,0,5.82-2.76,10.16-8.89,10.16-3.65,0-3.89-1.79-3.89-5.13Zm-4,13.47c0,3.65-.31,3.76-1.93,4l-.76.11a.75.75,0,0,0,.07,1c1.52-.07,3.07-.11,4.38-.11s2.89.21,5,.21a19,19,0,0,0,8.55-1.65,10.94,10.94,0,0,0,6.17-9.93,10.55,10.55,0,0,0-7.07-10.3A22.62,22.62,0,0,0,162.58.93c-3.38,0-6.13.1-8.61.31a.69.69,0,0,0,0,1l.73.07c1.62.21,1.65.62,1.65,3.93Z"/><path class="cls-1" d="M182,6c0-3.66-.31-3.76-1.93-4l-.55-.07a.75.75,0,0,1,.07-1c1.31.07,2.93.1,4.45.1h6.58c2.2,0,4.2,0,4.65-.1.14.59.35,3.31.55,4.79-.14.28-.82.34-1.1.14-.55-2-1.07-2.86-2.17-3.14a10.16,10.16,0,0,0-2.76-.31h-2.31c-1.48,0-1.48.07-1.48,2v5.83c0,.89,0,.93.83.93h1.65c3,0,3.59,0,3.83-1.52l.24-1.17c.27-.24.93-.24,1.1,0,0,.93-.1,2.18-.1,3.45s.07,2.51.1,3.62a1,1,0,0,1-1.1,0l-.24-1.38c-.24-1.44-.83-1.51-3.83-1.51h-1.65c-.79,0-.83.07-.83.93v4.37c0,1.76.07,3,.59,3.59s1,.76,3.89.76c4.38.06,5.14-.93,6.34-3.73a.82.82,0,0,1,1.1.21,21.85,21.85,0,0,1-1.44,5c-1.52-.07-4.48-.11-8.51-.11h-3.93c-1.52,0-3.62,0-5.17.11-.28-.14-.31-.76-.07-1l1.27-.14c1.62-.17,1.93-.28,1.93-3.93Z"/><path class="cls-1" d="M206.48,18.09c0,1.72.07,3,.58,3.55s1,.76,3.73.76c3.82,0,4.37-.18,6-3.73a.92.92,0,0,1,1.06.21,32.32,32.32,0,0,1-1.44,5c-1.45-.07-4.41-.11-8.27-.11h-3.59c-1.75,0-3.47,0-4.92.11-.28-.14-.38-.83-.07-1l1-.17c1.62-.21,1.93-.31,1.93-3.9V6c0-3.59-.31-3.69-1.93-3.93l-1-.14c-.24-.17-.24-.86.07-1,1.72.07,3.27.1,4.85.1s3.07,0,4.59-.1a.69.69,0,0,1,.07,1l-.76.14c-1.62.24-1.93.34-1.93,3.93Z"/><path class="cls-1" d="M226.67,18.09c0,1.72.07,3,.59,3.55s1,.76,3.72.76c3.82,0,4.37-.18,6-3.73a.94.94,0,0,1,1.07.21,33.4,33.4,0,0,1-1.45,5c-1.45-.07-4.41-.11-8.27-.11h-3.58c-1.76,0-3.48,0-4.93.11-.28-.14-.38-.83-.07-1l1-.17c1.62-.21,1.93-.31,1.93-3.9V6c0-3.59-.31-3.69-1.93-3.93l-1-.14c-.24-.17-.24-.86.07-1,1.72.07,3.27.1,4.86.1s3.06,0,4.58-.1a.69.69,0,0,1,.07,1l-.76.14c-1.62.24-1.93.34-1.93,3.93Z"/><path class="cls-1" d="M247.1,13.78c-.82,0-.93,0-.55-1l1.45-4c.62-1.62.89-2.48,1-2.72h.07a16.47,16.47,0,0,1,1,2.72l1.44,4.14c.28.82.14.89-.82.89Zm4,1.55c1,0,1.07,0,1.42.93L254.17,21c.44,1.48.34,1.69-.9,1.82l-.76.11a.79.79,0,0,0,.11,1c1.2,0,2.72-.11,4.2-.11,1.79,0,3.07,0,4.48.11a.74.74,0,0,0,0-1l-.51-.11c-1.76-.31-1.93-.55-2.72-2.86l-5-14.43c-.55-1.55-1-3.17-1.55-4.72a.66.66,0,0,0-.58-.28,6.07,6.07,0,0,1-2.41,1.65,5.51,5.51,0,0,1-.66,2.52l-4.72,12.27c-.72,1.86-1.28,3.3-1.69,4.2-.52,1.14-.89,1.45-1.89,1.59l-1,.17a.77.77,0,0,0,0,1c1.2-.07,2.27-.11,3.41-.11,1.41,0,2.55,0,3.65.11.28-.14.31-.76.07-1l-1-.17c-1.27-.18-1.41-.28-.72-2.31l1.41-4.14c.31-.93.28-.93,1.17-.93Z"/></g></g></svg>