<?xml version="1.0" encoding="UTF-8"?><svg id="_レイヤー_2" xmlns="http://www.w3.org/2000/svg" viewBox="0 0 285.64 161.51"><defs><style>.cls-1{fill:#00b08d;}.cls-2{fill:#5ba546;}</style></defs><g id="_レイヤー_1-2"><g><polygon class="cls-2" points="34.65 131.47 27.05 131.47 21.16 109.46 21.07 109.46 15.27 131.47 7.54 131.47 0 96.7 7.62 96.7 11.47 120.37 11.56 120.37 18.44 96.7 23.94 96.7 30.71 120.66 30.81 120.66 34.85 96.7 42.33 96.7 34.65 131.47"/><path class="cls-2" d="m52.28,102.44h-6.9v-5.73h6.9v5.73Zm-6.9,3.84h6.9v25.19h-6.9v-25.19Z"/><g><path class="cls-2" d="m56.47,106.28h6.61v3.53h.15c.88-1.43,2.01-2.48,3.41-3.16,1.39-.68,2.82-1.02,4.29-1.02,1.85,0,3.37.25,4.55.75,1.18.5,2.12,1.2,2.8,2.09.68.89,1.16,1.98,1.44,3.26.27,1.28.41,2.7.41,4.26v15.48h-6.89v-14.21c0-2.08-.34-3.62-1-4.65-.67-1.02-1.81-1.53-3.44-1.53-1.88,0-3.25.56-4.09,1.68-.85,1.12-1.27,2.96-1.27,5.53v13.19h-6.97v-25.19"/><path class="cls-2" d="m108.29,130.3c0,.68-.06,1.44-.17,2.27-.11.83-.33,1.65-.66,2.48-.33.83-.78,1.62-1.36,2.39-.58.76-1.36,1.45-2.34,2.05-.98.6-2.16,1.08-3.56,1.44-1.4.36-3.05.54-4.97.54-1.23,0-2.49-.15-3.78-.46-1.29-.31-2.45-.79-3.51-1.43-1.05-.65-1.93-1.48-2.63-2.5-.7-1.02-1.1-2.24-1.19-3.66h6.89c.33,1.28.95,2.17,1.89,2.67.94.49,2.02.74,3.25.74,1.91,0,3.31-.59,4.22-1.76.9-1.18,1.34-2.67,1.31-4.5l.09-3.24v-.08c-.76,1.34-1.9,2.43-3.29,3.07-1.39.64-2.86.96-4.4.96-1.9,0-3.54-.34-4.91-1.01-1.37-.67-2.51-1.59-3.39-2.76-.88-1.16-1.53-2.53-1.94-4.08-.41-1.56-.61-3.21-.61-4.94,0-1.64.24-3.22.71-4.74.47-1.53,1.18-2.87,2.09-4.03.92-1.16,2.06-2.09,3.42-2.77,1.36-.69,2.92-1.04,4.69-1.04,1.67,0,3.14.31,4.4.92,1.26.62,2.32,1.65,3.17,3.11l-.02.15v-4.03h6.61v24.23m-12.45-4.29c.98,0,1.85-.2,2.6-.59.75-.39,1.38-.92,1.87-1.57.49-.66.86-1.4,1.1-2.23.25-.83.37-1.71.37-2.62,0-1.01-.1-1.99-.3-2.94-.19-.95-.52-1.78-.98-2.5-.45-.72-1.07-1.29-1.84-1.72-.77-.43-1.71-.64-2.82-.64-.98,0-1.82.2-2.53.59-.7.39-1.29.92-1.76,1.59-.48.67-.82,1.44-1.03,2.3-.22.87-.32,1.78-.32,2.73s.09,1.82.27,2.72c.18.9.49,1.71.93,2.43.44.72,1.02,1.3,1.74,1.77.72.46,1.62.68,2.7.68"/><polygon class="cls-2" points="120.59 96.7 127.48 96.7 127.48 115.36 136.19 106.28 144.4 106.28 134.9 115.54 144.65 131.47 137.14 131.47 130.18 120.25 127.48 122.83 127.48 131.47 120.59 131.47 120.59 96.7"/><path class="cls-2" d="m153.99,102.44h-6.89v-5.73h6.89v5.73Zm-6.89,3.84h6.89v25.19h-6.89v-25.19Z"/><path class="cls-2" d="m167.9,106.28h5.06v4.65h-5.06v12.47c0,1.17.19,1.95.59,2.33.39.39,1.17.59,2.33.59.78,0,1.49-.07,2.14-.22v5.44c-.59.09-1.23.15-1.95.18-.71.03-1.41.04-2.1.04-1.07,0-2.08-.07-3.04-.22-.95-.14-1.79-.44-2.52-.87-.73-.44-1.3-1.05-1.72-1.82-.42-.78-.63-1.8-.63-3.07v-14.84h-4.19v-4.65h4.19v-7.54h6.9v7.54"/><path class="cls-2" d="m193.48,115.29c-.45-2.85-2.12-4.27-5.02-4.27-1.09,0-2,.24-2.73.73-.73.49-1.33,1.12-1.79,1.9-.46.77-.79,1.64-.98,2.59-.19.95-.29,1.87-.29,2.76s.1,1.79.29,2.7c.19.92.5,1.75.93,2.5.43.74,1.01,1.35,1.74,1.83.74.47,1.62.71,2.67.71,1.59,0,2.83-.45,3.73-1.35.89-.91,1.45-2.11,1.67-3.63h6.54c-.45,3.27-1.72,5.78-3.82,7.51-2.1,1.73-4.78,2.6-8.06,2.6-1.88,0-3.58-.31-5.1-.93-1.53-.62-2.83-1.49-3.91-2.62-1.08-1.13-1.93-2.46-2.53-4-.6-1.54-.91-3.23-.91-5.08s.28-3.68.84-5.31c.55-1.63,1.37-3.05,2.46-4.24,1.08-1.19,2.4-2.12,3.96-2.79,1.56-.67,3.34-1,5.34-1,1.46,0,2.87.19,4.22.58,1.35.39,2.55.96,3.61,1.75,1.04.78,1.91,1.77,2.6,2.95.69,1.18,1.08,2.55,1.17,4.12h-6.62"/><path class="cls-2" d="m202.87,96.7h6.89v13.11h.15c.88-1.43,2-2.48,3.37-3.16,1.37-.68,2.7-1.02,4.01-1.02,1.86,0,3.38.25,4.57.76,1.19.5,2.13,1.2,2.81,2.09.68.89,1.17,1.98,1.44,3.26.27,1.28.41,2.7.41,4.25v15.48h-6.9v-14.21c0-2.08-.34-3.62-1.01-4.65-.67-1.02-1.83-1.53-3.46-1.53-1.9,0-3.28.56-4.13,1.68-.85,1.12-1.28,2.96-1.28,5.52v13.19h-6.89v-34.77"/><path class="cls-2" d="m236.63,120.55c.09,2.15.65,3.71,1.67,4.7,1.02.99,2.48,1.48,4.38,1.48,1.37,0,2.54-.34,3.53-1.03.98-.68,1.59-1.41,1.81-2.17h5.97c-.95,2.94-2.42,5.06-4.39,6.36-1.96,1.31-4.35,1.96-7.14,1.96-1.94,0-3.69-.32-5.24-.95-1.56-.63-2.87-1.52-3.96-2.67-1.08-1.14-1.91-2.51-2.5-4.1-.59-1.58-.88-3.33-.88-5.24s.3-3.56.9-5.15c.61-1.59,1.46-2.96,2.57-4.12,1.11-1.16,2.45-2.07,3.98-2.74,1.54-.66,3.25-1,5.12-1,2.1,0,3.92.4,5.48,1.22,1.56.81,2.83,1.9,3.84,3.27,1,1.37,1.72,2.93,2.17,4.68.44,1.75.6,3.58.47,5.49h-17.78m11.02-4.27c-.32-1.72-.88-3.03-1.69-3.92-.82-.9-2.05-1.34-3.7-1.34-1.09,0-1.98.18-2.7.55-.72.37-1.29.82-1.72,1.36-.43.54-.73,1.12-.91,1.72-.18.61-.28,1.15-.31,1.63h11.02Z"/><path class="cls-2" d="m265.37,102.54c2.06-.78,3.93-2.98,5.57-4.64,2.74-2.77,5.31-5.02,8.09-7.74.66-.65,4.26-3.87,4.63-4.19,1.44-1.25-2.61-.83-3.15-.77-1.55.19-3.55.57-5.01,1.14-2.16.84-5.92,3.25-7.36,6.26-.86,1.8-1.56,3.79-2.37,5.48-1.12,2.36-3.1,2.15-5.05,3.34-1.75,1.07-3.02,2.92-3.04,4.86v25.19h6.96v-13.19c0-2.57.42-4.4,1.27-5.53.85-1.12,2.21-1.68,4.1-1.68,1.62,0,2.77.51,3.44,1.53.67,1.02,1,2.57,1,4.65v14.22h6.89v-15.48c0-1.56-.14-2.97-.42-4.26-.28-1.28-.75-2.37-1.44-3.26-.68-.89-1.62-1.59-2.8-2.09-1.19-.5-2.7-.76-4.55-.76-1.46,0-2.89.34-4.29,1.02-1.4.68-2.53,1.73-3.41,3.16h-.15v-3.31c0-1.53-1.79-1.7-2.08-2.24-.61-1.14,2.27-1.38,3.18-1.72"/><path class="cls-2" d="m278.7,100.17c2.48-1.52,4.3-3.83,5.52-6.48,1.6-3.47,2-8.14.45-6.65-.46.44-5.76,6.32-7.34,7.85-1.13,1.09-3.96,3.55-5.24,4.44-.89.62-1.88,1.37-2.79,1.9-1.14.66.57,1.27,1.49,1.18,2.52-.22,5.74-.91,7.92-2.24"/><path class="cls-1" d="m117.01,5.34c6.79,13.03,1.55,29.39-1.4,42.52l.97-.16,21.99-18.45c2.25-.99,5.72-2.44,7.86-.16,1.65,2.34.08,5.34-.25,7.82-1.45,4.9-2.66,9.93-3.53,15.08.39.88,1.04,0,1.57,0,9.69-10.34,15.9-22.49,26.45-32.18,1.75-.86,4.47-1.94,6.28-.35,1.58,1.06,1.4,2.85,2.18,4.29,4.76-4.86,9.62-11.67,16.83-9.96,1.45.59,2.76,1.84,3.36,3.32.31,7.72-2.84,14.46-3.36,22.15.27.64.91,1.12,1.55,1.12,3.66-.76,6.12-4.19,9.02-6.62-1.4-9.84,5.95-17.17,13.14-22.93,4.52-2.6,9.83-6.65,15.29-3.32.77,1.09,1.74,2.44,1.16,3.93-5.41,6.05-13.92,9.63-17.43,17.42.17,1.01.34,2.04,1.36,2.7,6.97.72,12.09-4.12,17.25-8.38,2.81-3.11,5.56-6.21,7.47-9.64.96-1.08,2.58-1.08,3.9-.74,2.56,1.2,3.44,3.85,3.54,6.46-1.01,8.19-6.26,14.66-8.42,22.32-4.46,12.09-7.13,24.99-9.78,37.83-.88,2.67-3.76,4.69-6.27,5.5-1.64.05-3.2,0-4.36-1.18-2.51-5.69.37-11.6,1.4-17.06,4.54-14.51,11.34-28.14,18.63-41.52.1-.93.81-1.81.53-2.55-10.27,7.66-21.12,20.29-34.82,13.31h-.82c-5.9,4.73-11.18,10.91-18.42,12.31-1.55.26-2.81-.2-3.91-1.14-2.11-1.79-1.34-5.29-.97-7.66.92-5.66,3-11.12,2.72-17.07-.41-.97-1.62-.87-2.32-.57-3.38,2.55-6.24,6.01-8.44,9.4-1.37,7.3-2.69,14.62-5.52,21.4-2.84,2.54-6.91,4.34-10.54,2.72-1.74-2.29-.17-5.17.22-7.62,1.31-5.49,2.92-11.1,3.48-16.66l-2.52,2.73-19.22,25.68c-2.54,3.43-6.05,5.98-10.39,4.9-1.24-.6-2.39-1.93-2.72-3.16-.48-8.17,2.9-15.31,3.93-23.13l-.59-.61c-6.98,5.45-13.94,10.89-20.45,17.47-4.36,9.7-10.36,22.23-21.92,25.48-3,.61-5.96,0-8.2-1.8l-3.15-3.48c-5.51,4.8-11.02,13.28-19.62,10.77-4.09-1.34-7.4-5.49-8.21-9.62-.7-13.61,5.1-25.05,9.8-36.65,3.2-8.14,7.83-15.75,10.18-24.26.09-.71-.05-1.41-.77-1.57-3.78-.29-6.89,2.43-10.19,3.91-8.05,5.38-16.8,9.75-23.36,18.01v.76c6.11.12,10.29-5.44,15.71-7.6,1.2-.24,2.1.27,2.93.74,1.34,1.42.87,3.31.42,4.9-4.89,8.27-14.22,10.62-22.74,12.38-2.99.14-6.92.91-8.61-2.15-.87-6.57,5.47-10.98,9.79-15.31,11.1-9.46,23.3-16.19,35.82-22.13,3.28-1.02,7.57-2.29,10.77-.39,3.02,1.8,2.84,5.78,2.18,8.84l-16.42,39.18c-2.11,7.8-7.23,14.88-5.48,23.68.52,1.15,1.39,2.02,2.54,2.57,6.52-.27,9.97-7.68,13.12-12.37-2.16-10.12.11-20.4,4.07-28.96,1.82-2.94,4.74-5.54,8.29-5.5,1.48-.26,2.7,1.14,3.32,2.36.98,9.57-2.66,18.22-6.1,26.47-.56,3.62-6.33,6.07-3.34,10.16.79,1.29,2.13,2.23,3.56,2.33,6.24-.29,9.15-6.97,11.74-11.55,5.75-13.89,9.73-28.41,10.2-44.47.21-3.2-3.29-4.78-4.3-7.45-1.43-2.88-1.67-7.01.16-9.78,1.09-1.23,2.25-2.21,3.74-2.37,3.77-.55,6.52,2.44,8.43,5.27"/><path class="cls-1" d="m150.48,7.7c1.71,2.82.35,6.31-.99,8.82-1.23,1.67-2.91,2.55-4.86,2.55-1.87.45-3.12-.66-4.54-1.36-1.14-1.52-2.38-2.99-2.11-5.11.44-3.13,1.78-6.56,5.05-7.84,2.88-1.16,6.1.09,7.44,2.94"/><polygon class="cls-2" points="45.09 161.22 45.09 150.85 47.71 150.85 47.71 154.81 51.4 150.85 54.58 150.85 50.39 155.21 54.68 161.22 51.51 161.22 48.6 157.07 47.71 157.96 47.71 161.22 45.09 161.22"/><polygon class="cls-2" points="60.38 161.22 60.38 150.85 68.25 150.85 68.25 152.98 63.03 152.98 63.03 154.81 67.8 154.81 67.8 156.89 63.03 156.89 63.03 159.1 68.42 159.1 68.42 161.22 60.38 161.22"/><rect class="cls-2" x="74.83" y="150.85" width="2.65" height="10.37"/><polygon class="cls-2" points="84.34 161.22 84.34 150.85 86.95 150.85 86.95 154.81 90.64 150.85 93.83 150.85 89.63 155.21 93.93 161.22 90.76 161.22 87.84 157.07 86.95 157.96 86.95 161.22 84.34 161.22"/><polygon class="cls-2" points="101.4 161.22 101.4 157.31 97.81 150.85 100.79 150.85 102.7 155.03 104.6 150.85 107.6 150.85 103.98 157.31 103.98 161.22 101.4 161.22"/><path class="cls-2" d="m113.17,150.85h2.61v6.48c0,.71.13,1.22.4,1.53.27.3.72.45,1.34.45s1.06-.15,1.32-.45c.27-.3.4-.81.4-1.53v-6.48h2.64v6.16c0,.87-.09,1.56-.25,2.08-.17.51-.45.95-.84,1.31-.41.37-.88.65-1.43.83-.54.18-1.15.28-1.83.28s-1.29-.09-1.83-.28c-.54-.19-1.02-.46-1.43-.83-.4-.36-.68-.8-.85-1.32-.17-.52-.26-1.21-.26-2.07v-6.16Z"/><polygon class="cls-2" points="136.51 161.22 136.51 150.85 139.12 150.85 139.12 154.81 142.81 150.85 146 150.85 141.8 155.21 146.1 161.22 142.93 161.22 140.02 157.07 139.12 157.96 139.12 161.22 136.51 161.22"/><path class="cls-2" d="m153.53,150.85h2.9l3.66,10.37h-2.85l-.64-1.9h-3.46l-.59,1.9h-2.75l3.73-10.37Zm.25,6.32h2.27l-1.15-3.58-1.11,3.58Z"/><polygon class="cls-2" points="166.49 161.22 163.65 150.85 166.32 150.85 167.77 158.21 169.16 150.85 171.99 150.85 173.36 158.21 174.81 150.85 177.48 150.85 174.62 161.22 172.03 161.22 170.56 153.77 169.09 161.22 166.49 161.22"/><path class="cls-2" d="m184.78,150.85h2.9l3.66,10.37h-2.85l-.63-1.9h-3.46l-.59,1.9h-2.75l3.73-10.37Zm.25,6.32h2.27l-1.15-3.58-1.11,3.58Z"/><path class="cls-2" d="m195.76,157.78h2.55c.02.59.19,1.04.52,1.33.33.3.81.45,1.44.45.54,0,.96-.09,1.25-.27.3-.18.44-.43.44-.76,0-.16-.04-.31-.11-.44-.07-.13-.17-.23-.3-.29-.19-.1-.67-.27-1.42-.49-.75-.22-1.38-.43-1.9-.64-.75-.3-1.31-.69-1.7-1.17-.39-.49-.58-1.05-.58-1.7,0-.99.37-1.78,1.12-2.36.74-.58,1.75-.88,3.02-.88s2.24.31,2.97.92c.73.62,1.1,1.45,1.1,2.49h-2.5c-.06-.48-.23-.84-.51-1.07-.28-.23-.69-.34-1.23-.34-.43,0-.77.09-1.04.26-.27.17-.4.4-.4.67,0,.46.64.89,1.91,1.3.23.07.4.13.53.17.02,0,.06.02.11.04,1.31.43,2.13.77,2.46,1.03.33.27.59.59.76.96.17.37.26.78.26,1.23,0,1.03-.39,1.84-1.19,2.41-.79.57-1.9.86-3.33.86-1.35,0-2.37-.31-3.08-.92-.71-.62-1.1-1.55-1.18-2.81"/><path class="cls-2" d="m212.7,150.85h2.9l3.66,10.37h-2.85l-.64-1.9h-3.46l-.59,1.9h-2.75l3.73-10.37Zm.25,6.32h2.27l-1.15-3.58-1.11,3.58Z"/><polygon class="cls-2" points="224.17 161.22 224.17 150.85 226.78 150.85 226.78 154.81 230.47 150.85 233.66 150.85 229.47 155.21 233.76 161.22 230.59 161.22 227.68 157.07 226.78 157.96 226.78 161.22 224.17 161.22"/><rect class="cls-2" x="238.65" y="150.85" width="2.65" height="10.37"/></g></g></g></svg>