<?xml version="1.0" encoding="UTF-8"?><svg id="_レイヤー_2" xmlns="http://www.w3.org/2000/svg" viewBox="0 0 346.3 108.89"><defs><style>.cls-1{fill:#0db8da;}.cls-2{fill:#7d7b6f;}</style></defs><g id="_レイヤー_2-2"><g><g><path class="cls-2" d="m123.74,106.32l-10.83-24.74-10.77,24.74c-.61,1.26-2.18,1.83-2.99,2.12.98,0,1.81-.13,2.83-.13s1.86.13,2.83.13c-.81-.3-1.13-1.56-.58-2.85l1.75-3.94h12.29l1.66,3.89c.55,1.29.25,2.59-.77,2.89,1.23,0,2.39-.13,3.67-.13s2.44.13,3.67.13c-1.03-.3-2.19-.85-2.76-2.12Zm-17.07-6.22l5.56-13.17,5.38,13.17"/><path class="cls-2" d="m231.93,106.32l-10.83-24.74-10.77,24.74c-.61,1.26-2.18,1.83-2.99,2.12.98,0,1.82-.13,2.83-.13s1.86.13,2.83.13c-.81-.3-1.13-1.56-.58-2.85l1.75-3.94h12.29l1.66,3.89c.55,1.29.25,2.59-.77,2.89,1.23,0,2.39-.13,3.67-.13s2.44.13,3.67.13c-1.02-.3-2.19-.85-2.76-2.12Zm-17.07-6.22l5.56-13.17,5.38,13.17"/><path class="cls-2" d="m186.06,106.32l-10.83-24.74-10.77,24.74c-.61,1.26-2.18,1.83-2.99,2.12.98,0,1.81-.13,2.83-.13s1.85.13,2.83.13c-.82-.3-1.13-1.56-.57-2.85l1.74-3.94h12.29l1.66,3.89c.55,1.29.25,2.59-.77,2.89,1.23,0,2.39-.13,3.67-.13s2.44.13,3.67.13c-1.03-.3-2.19-.85-2.76-2.12Zm-17.07-6.22l5.56-13.17,5.38,13.17"/><path class="cls-2" d="m268.44,108.34c1.06,0,2.07.13,3.09.13-.85-.3-1.62-.72-1.62-2.12,0-1.23-.04-20.43-.04-22.09,0-1.49.8-1.83,1.48-2.21-.42,0-1.86.17-2.92.17s-2.5-.17-2.92-.17c.68.38,1.49.72,1.49,2.21,0,1.66-.04,20.86-.04,22.09,0,1.4-.76,1.83-1.61,2.12,1.02,0,2.03-.13,3.09-.13Z"/><g><path class="cls-2" d="m77.92,108.34c1.06,0,2.07.13,3.09.13-.85-.3-1.61-.72-1.61-2.12,0-1.23-.04-20.43-.04-22.09,0-1.49.81-1.83,1.48-2.21-.42,0-1.86.17-2.92.17s-2.5-.17-2.92-.17c.68.38,1.49.72,1.49,2.21,0,1.66-.04,20.86-.04,22.09,0,1.4-.76,1.83-1.61,2.12,1.02,0,2.03-.13,3.09-.13Z"/><path class="cls-2" d="m95.36,82.04h-5.43c.17.85.07,1.34-.46,1.91-4.72,5.1-8.2,9.09-9.81,10.03,2.04.89,9.55,9.78,11.43,11.77,1.44,1.53,3.42,2.76,9.16,2.76-2.12-.42-2.93-.55-4.12-1.74-1.42-1.43-13.08-13.68-13.08-13.68,0,0,7.99-8.54,8.8-9.35.81-.81,2.21-1.4,3.53-1.7Z"/></g><g><path class="cls-2" d="m241.27,108.34c1.06,0,2.07.13,3.09.13-.85-.3-1.62-.72-1.62-2.12,0-1.23-.04-20.43-.04-22.09,0-1.49.81-1.83,1.49-2.21-.42,0-1.86.17-2.92.17s-2.5-.17-2.92-.17c.68.38,1.49.72,1.49,2.21,0,1.66-.04,20.86-.04,22.09,0,1.4-.76,1.83-1.61,2.12,1.02,0,2.03-.13,3.09-.13Z"/><path class="cls-2" d="m258.71,82.04h-5.43c.17.85.07,1.34-.47,1.91-4.72,5.1-8.2,9.09-9.81,10.03,2.04.89,9.55,9.78,11.43,11.77,1.44,1.53,3.43,2.76,9.16,2.76-2.13-.42-2.93-.55-4.12-1.74-1.42-1.43-13.08-13.68-13.08-13.68,0,0,7.99-8.54,8.8-9.35.81-.81,2.21-1.4,3.53-1.7Z"/></g><path class="cls-2" d="m203.83,83.05c0,1.06,0,1.83-.17,2.84-1.02-1.83-2.12-2.98-5.22-2.98-2.59,0-4.43,1.51-4.43,4.49,0,2.29,1.36,3.38,2.89,4.61,1.53,1.23,4.5,3.4,5.82,4.59,1.32,1.19,2.42,2.93,2.42,5.1,0,3.36-2.67,6.97-7.34,6.97-2.72,0-4.72-.68-6.29-.76-.08-1.66-.17-2.76-.13-4.29.81,2.85,2.47,3.92,6.16,3.92,3.4,0,5.19-2.15,5.19-4.78,0-2.17-1.06-3.26-2.51-4.49-1.44-1.23-3.61-2.93-5.65-4.59-2.04-1.66-2.76-3.57-2.76-5.86s2.07-5.95,6.53-5.95c2.42,0,4.08.59,5.48,1.19Z"/><path class="cls-2" d="m160.67,82.15c-1.11,0-2.02-.13-3.09-.13.89.3,1.23,1.56.63,2.85l-9.03,19.07-4.08-8.92,5.12-10.87c.67-1.26,2.38-1.83,3.28-2.13-1.07,0-1.97.13-3.09.13s-2.02-.13-3.09-.13c.89.3,1.23,1.56.63,2.85l-3.86,8.12-3.6-8.07c-.61-1.29-.28-2.59.84-2.89-1.35,0-2.59.13-3.99.13s-2.19-.13-3.53-.13c1.12.3,2.4.84,3.03,2.13l5.73,12.02-3.7,7.77-8.64-19.03c-.61-1.29-.28-2.59.84-2.89-1.35,0-2.59.13-3.99.13s-2.19-.13-3.53-.13c1.12.3,2.4.84,3.03,2.13l11.86,24.74,5.12-10.73,5.14,10.73,11.79-24.74c.67-1.26,2.38-1.83,3.28-2.13-1.07,0-1.97.13-3.09.13Z"/></g><g><path class="cls-2" d="m306.7,50.55L284.57,0l-22.01,50.55c-1.25,2.58-4.45,3.73-6.11,4.34,2,0,3.71-.26,5.78-.26s3.79.26,5.79.26c-1.66-.61-2.3-3.18-1.17-5.81l3.57-8.04h25.12l3.39,7.95c1.13,2.63.52,5.29-1.58,5.9,2.51,0,4.88-.26,7.5-.26s4.99.26,7.5.26c-2.09-.61-4.47-1.73-5.64-4.34Zm-34.88-12.71l11.35-26.92,10.99,26.92"/><path class="cls-2" d="m40.28,49.21c-.61,3.29,2.24,5.21,3.9,5.81-2,0-4.88-.26-6.96-.26s-3.79.26-5.79.26c1.66-.61,4.22-1.53,4.76-4.34.71-3.73,8.69-43.31,8.69-43.31-2.34-5.03-2.78-5.11-6.86-6.41,4.6.26,6.23.25,8.05.25s3.37-.17,4.76-.17c-.87,1.65-.96,2.87-.17,4.77.78,1.91,18.09,38.05,18.09,38.05,0,0,16.51-35.62,17.38-37.53.87-1.91.52-3.64-.69-5.38,2.08.44,4.22.32,5.87.32s3.8-.32,6.66-.32c-3.38,1.04-5.55,2.52-5.03,5.99.52,3.47,6.59,41.14,7.11,43.74.56,2.81,2.77,3.73,4.86,4.34-2.51,0-3.84-.26-6.46-.26s-4.99.26-7.5.26c2.09-.61,3.38-2.37,2.97-5.21-.43-2.95-6.17-37.32-6.17-37.32l-19.8,42.62L47.42,12.49s-6.28,32.03-7.14,36.72Z"/><path class="cls-2" d="m170.34,50.64c0-2.52-.09-41.74-.09-45.13,0-3.04,1.65-3.73,3.04-4.52-.87,0-3.8.35-5.97.35s-5.1-.35-5.97-.35c1.39.78,3.04,1.48,3.04,4.52,0,2.83-.06,30.1-.08,40.65-4.5,3.3-9.14,6.67-15.93,6.67-10.02,0-16.39-6.05-16.39-20.63,0-12.24.65-17.96.65-26.69,0-3.04,1.13-3.73,2.52-4.52-.87,0-3.8.35-5.97.35s-5.1-.35-5.97-.35c1.39.78,3.36,1.48,3.56,4.52.26,4.03-.52,19.13-.52,29.03,0,14.58,9.11,21.09,19.27,21.09,8.21,0,15.53-4.8,18.79-7.04,0,1.06,0,1.77,0,2.05,0,2.86-1.56,3.73-3.3,4.34,2.08,0,4.15-.26,6.32-.26s4.24.26,6.32.26c-1.73-.61-3.3-1.47-3.3-4.34Z"/><path class="cls-2" d="m245.77.79h-40.42c-.87,0-1.82.4-2.08,1.51-.26,1.1-.61,3.82-.61,3.82,1.04-1.61,1.91-2.42,4.08-2.42h11.98l17.21-.05-39.37,51.29s45.83-.03,46.71-.03c1.3,0,2.26-.54,2.78-1.87.66-1.68,1.22-2.85,1.65-5.51-1.74,3.89-3.99,4.22-6.51,4.22l-34.8.06L245.77.79Z"/></g><path class="cls-1" d="m0,84.29l9.61-.16c41.77-9.43,90.77-13.33,134.47-12.32.85.05,20.61,1.17,20.61,1.17,14.23.85,28.98,1.74,43.76,2.01h.27s.34,0,.34,0c42.33-.03,90.81-11.4,137.23-21.12l-8.8.09c-42.13,8.83-86.09,12.78-123.85,12.83-13.45-.26-27.48-1.11-41.06-1.92l-22.06-1.25h-.3c-49-1.16-103.54,10.12-150.24,20.66Z"/></g></g></svg>