<svg xmlns="http://www.w3.org/2000/svg" width="40" height="40"><g opacity=".998"><path d="M19.977 40A20 20 0 010 19.978 20 20 0 0120.023.001 20 20 0 0140 20.024a20 20 0 01-12.217 18.4A19.923 19.923 0 0119.977 40z" fill="#F0BB4C"/><path d="M31.895 13.985a3.12 3.12 0 00-2.2-2.209c-1.936-.522-9.7-.522-9.7-.522s-7.764 0-9.7.522a3.119 3.119 0 00-2.2 2.209A32.722 32.722 0 007.576 20a32.722 32.722 0 00.519 6.015 3.12 3.12 0 002.2 2.209c1.936.522 9.7.522 9.7.522s7.764 0 9.7-.522a3.12 3.12 0 002.2-2.209A32.729 32.729 0 0032.414 20a32.729 32.729 0 00-.519-6.015zm-14.434 9.706v-7.383L23.95 20z" fill="#fff"/></g></svg>