<?xml version="1.0" encoding="utf-8"?>
<!-- Generator: Adobe Illustrator 26.0.2, SVG Export Plug-In . SVG Version: 6.00 Build 0)  -->
<svg version="1.1" id="レイヤー_1" xmlns="http://www.w3.org/2000/svg" xmlns:xlink="http://www.w3.org/1999/xlink" x="0px"
	 y="0px" viewBox="0 0 55 55" style="enable-background:new 0 0 55 55;" xml:space="preserve">
<style type="text/css">
	.st0{fill:#F0BB4C;}
	.st1{fill:#FFFFFF;}
	.st2{fill:none;stroke:#FFFFFF;stroke-width:2;stroke-linecap:round;stroke-miterlimit:10;}
	.st3{enable-background:new    ;}
</style>
<circle class="st0" cx="27.5" cy="27.5" r="27.5"/>
<path class="st1" d="M27.5,55C12.3,55,0,42.7,0,27.5S12.3,0,27.5,0C42.7,0,55,12.3,55,27.5S42.7,55,27.5,55z M27.5,1
	C12.9,1,1,12.9,1,27.5S12.9,54,27.5,54S54,42.1,54,27.5S42.1,1,27.5,1z M0,0"/>
<line class="st2" x1="17.4" y1="14.7" x2="39.3" y2="14.7"/>
<line class="st2" x1="17.4" y1="22.2" x2="39.3" y2="22.2"/>
<line class="st2" x1="17.4" y1="29.7" x2="39.3" y2="29.7"/>
<g class="st3">
	<path class="st1" d="M17.2,34.2l2,2.4l2-2.4h1v6h-1.2V36h0l-1.7,2.1h-0.2L17.4,36h0v4.2h-1.2v-6H17.2z"/>
	<path class="st1" d="M27.5,34.2v0.9h-2.7v1.6h2.6v0.9h-2.6v1.7h2.8v0.9h-4v-6H27.5z"/>
	<path class="st1" d="M29.6,34.2l3.6,4.2v-4.2h1.1v6h-1L29.7,36v4.3h-1.1v-6H29.6z"/>
	<path class="st1" d="M36.8,34.2v3.5c0,0.4,0.1,0.6,0.2,0.9c0.1,0.2,0.3,0.4,0.5,0.5c0.2,0.1,0.5,0.2,0.9,0.2c0.4,0,0.7-0.1,0.9-0.2
		c0.2-0.1,0.4-0.3,0.5-0.5c0.1-0.2,0.2-0.5,0.2-0.9v-3.4h1.2v3.6c0,0.8-0.2,1.4-0.7,1.9s-1.2,0.7-2.1,0.7c-0.6,0-1-0.1-1.5-0.3
		c-0.4-0.2-0.7-0.5-0.9-0.9c-0.2-0.4-0.3-0.8-0.3-1.3v-3.6H36.8z"/>
</g>
<circle class="st0" cx="27.5" cy="91.1" r="27.5"/>
<path class="st1" d="M27.5,118.6C12.3,118.6,0,106.3,0,91.1s12.3-27.5,27.5-27.5C42.7,63.6,55,76,55,91.1S42.7,118.6,27.5,118.6z
	 M27.5,64.6C12.9,64.6,1,76.5,1,91.1s11.9,26.5,26.5,26.5S54,105.7,54,91.1S42.1,64.6,27.5,64.6z M0,63.6"/>
<line class="st2" x1="17.4" y1="78.4" x2="39.3" y2="78.4"/>
<line class="st2" x1="17.4" y1="85.8" x2="39.3" y2="85.8"/>
<line class="st2" x1="17.4" y1="93.3" x2="39.3" y2="93.3"/>
<text transform="matrix(1 0 0 1 15.5141 103.8945)" class="st1" style="font-family:'GillSans-SemiBold'; font-size:8.8392px;">MENU</text>
</svg>
