<?xml version="1.0" encoding="utf-8"?>
<!-- Generator: Adobe Illustrator 26.0.2, SVG Export Plug-In . SVG Version: 6.00 Build 0)  -->
<svg version="1.1" id="レイヤー_1" xmlns="http://www.w3.org/2000/svg" xmlns:xlink="http://www.w3.org/1999/xlink" x="0px"
	 y="0px" viewBox="0 0 2500 2500" style="enable-background:new 0 0 2500 2500;" xml:space="preserve">
<style type="text/css">
	.st0{fill-rule:evenodd;clip-rule:evenodd;fill:#F9B92A;}
	.st1{fill-rule:evenodd;clip-rule:evenodd;fill:#EE1D52;}
	.st2{fill-rule:evenodd;clip-rule:evenodd;fill:#FFFFFF;}
	.st3{fill-rule:evenodd;clip-rule:evenodd;fill:#69C9D0;}
</style>
<circle class="st0" cx="1250" cy="1250" r="1250"/>
<g>
	<path class="st1" d="M1556.1,1050.5c92.6,66.2,206.1,105.1,328.7,105.1V919.9c-23.2,0-46.3-2.4-69-7.2v185.6
		c-122.5,0-236-38.9-328.7-105.1v481c0,240.6-195.2,435.7-435.9,435.7c-89.8,0-173.3-27.1-242.7-73.7
		c79.2,80.9,189.6,131.1,311.7,131.1c240.8,0,436-195.1,436-435.7L1556.1,1050.5L1556.1,1050.5z M1641.3,812.7
		c-47.3-51.7-78.4-118.5-85.1-192.4V590h-65.4C1507.2,683.9,1563.3,764.1,1641.3,812.7L1641.3,812.7z M960.7,1651.5
		c-26.4-34.7-40.7-77.1-40.7-120.7c0-110.1,89.3-199.3,199.4-199.3c20.5,0,40.9,3.1,60.5,9.3v-241c-22.9-3.1-45.9-4.5-69-4v187.6
		c-19.6-6.2-40-9.4-60.5-9.3c-110.1,0-199.4,89.2-199.4,199.3C851.1,1551.3,895.7,1618.7,960.7,1651.5z"/>
	<path class="st2" d="M1487.1,993.1c92.7,66.2,206.1,105.1,328.7,105.1V912.7c-68.4-14.6-129-50.3-174.5-100
		c-77.9-48.6-134.1-128.8-150.6-222.7h-171.8v941.5c-0.4,109.8-89.5,198.6-199.4,198.6c-64.8,0-122.3-30.9-158.7-78.6
		c-65.1-32.8-109.7-100.2-109.7-178c0-110.1,89.3-199.3,199.4-199.3c21.1,0,41.4,3.3,60.5,9.3v-187.6
		c-236.5,4.9-426.8,198-426.8,435.6c0,118.6,47.4,226.1,124.3,304.6c69.4,46.6,152.9,73.7,242.7,73.7
		c240.8,0,435.9-195.1,435.9-435.7V993.1z"/>
	<path class="st3" d="M1815.8,912.7v-50.2c-61.7,0.1-122.2-17.2-174.5-49.8C1687.6,863.4,1748.6,898.3,1815.8,912.7z M1490.7,590
		c-1.6-9-2.8-18-3.6-27.1v-30.3h-237.2v941.5c-0.4,109.8-89.5,198.6-199.4,198.6c-32.3,0-62.7-7.7-89.7-21.3
		c36.4,47.8,94,78.6,158.7,78.6c109.9,0,199-88.9,199.4-198.6V590H1490.7z M1111,1095.9v-53.4c-19.8-2.7-39.8-4.1-59.8-4.1
		c-240.8,0-436,195.1-436,435.7c0,150.9,76.7,283.8,193.3,362c-76.9-78.5-124.3-186.1-124.3-304.6
		C684.2,1294,874.4,1100.8,1111,1095.9L1111,1095.9z"/>
</g>
</svg>
