<svg version="1.1" id="レイヤー_1" xmlns="http://www.w3.org/2000/svg" x="0" y="0" viewBox="0 0 116 54" xml:space="preserve"><style>.st1{fill:#fff}</style><path d="M25 0h87v50H25C11.193 50 0 38.807 0 25S11.193 0 25 0z" fill="#F0BB4C" transform="translate(2 2)"/><path class="st1" d="M112.743 52H25C10.112 52-2 39.888-2 25S10.112-2 25-2h87.743c.694 0 1.257.564 1.257 1.257v51.486c0 .694-.563 1.257-1.257 1.257zM25 0C11.215 0 0 11.215 0 25s11.215 25 25 25h87V0H25z" transform="translate(2 2)"/><path class="st1" d="M26.512 25.94v8.844h1.032V30.92h1.824c2.052 0 3.144-.972 3.144-2.52 0-1.572-1-2.46-3.06-2.46h-2.94zm1.032.84h1.848c1.44 0 2.04.576 2.04 1.632s-.66 1.688-2.112 1.688h-1.776v-3.32zm11.656-.84h-1.32l-2.848 8.844h1.02l.888-2.808h3.16l.852 2.808h1.092L39.2 25.94zm.672 5.22h-2.724l.644-2.16c.228-.744.408-1.416.612-2.256h.18c.216.84.4 1.524.624 2.268l.664 2.148zm11.82-2.928a3.142 3.142 0 00-3.18-2.448c-2.112 0-3.708 1.68-3.708 4.6s1.5 4.572 3.624 4.572A2.61 2.61 0 0050.9 33.4l.12 1.416h.732v-4.484h-3.324v.852h2.34c-.06 1.608-.78 2.9-2.256 2.9-1.584 0-2.6-1.3-2.6-3.72S47 26.648 48.52 26.648a2.133 2.133 0 012.148 1.852l1.024-.268zm9.728-2.292h-5.568v8.844H61.5v-.876h-4.6v-3.384h3.42v-.876H56.9v-2.832h4.52v-.876zm14.652 0H69.5v.888h2.748v7.956H73.3v-7.956h2.772v-.888zm6.54-.156c-2.1 0-3.648 1.68-3.648 4.6s1.524 4.568 3.648 4.568 3.648-1.692 3.648-4.6c0-2.908-1.524-4.568-3.648-4.568zm0 .864c1.512 0 2.544 1.272 2.544 3.72s-1.032 3.72-2.544 3.72-2.544-1.288-2.544-3.72 1.044-3.72 2.544-3.72zm7.452-.708v8.844H91.1V30.92h1.82c2.052 0 3.144-.972 3.144-2.52 0-1.572-1-2.46-3.06-2.46h-2.94zm1.032.84h1.848c1.44 0 2.04.576 2.04 1.632s-.66 1.688-2.112 1.688H91.1l-.004-3.32zm-26.95-10.926L61.5 13.207l-2.646 2.647-.708-.707 3.354-3.354 3.354 3.354z" transform="translate(2 2)"/></svg>