<?xml version="1.0" encoding="utf-8"?>
<!-- Generator: Adobe Illustrator 26.0.2, SVG Export Plug-In . SVG Version: 6.00 Build 0)  -->
<svg version="1.1" id="レイヤー_1" xmlns="http://www.w3.org/2000/svg" xmlns:xlink="http://www.w3.org/1999/xlink" x="0px"
	 y="0px" viewBox="0 0 33 23.1" style="enable-background:new 0 0 33 23.1;" xml:space="preserve">
<style type="text/css">
	.st0{fill:#292929;}
	.st1{fill:#FFFFFF;}
	.st2{enable-background:new    ;}
</style>
<path class="st0" d="M11.8,0.9l0.7-0.7L21,8.7l-0.7,0.7L11.8,0.9z"/>
<path class="st0" d="M11.5,8.3L20-0.2l0.7,0.7L12.2,9L11.5,8.3z"/>
<path class="st0" d="M-2289.4-5317"/>
<path class="st1" d="M11.6,25.8l0.7-0.7l8.5,8.5l-0.7,0.7L11.6,25.8z"/>
<path class="st1" d="M11.4,33.3l8.5-8.5l0.7,0.7L12.1,34L11.4,33.3z"/>
<g class="st2">
	<path d="M5.6,14.4c0.3,0,0.7,0,1,0.1c0.3,0.1,0.7,0.2,1.1,0.4V16c-0.4-0.2-0.7-0.4-1-0.5s-0.6-0.1-1-0.1c-0.4,0-0.8,0.1-1.2,0.3
		s-0.6,0.4-0.8,0.7s-0.3,0.7-0.3,1.1c0,0.4,0.1,0.8,0.3,1.1s0.5,0.6,0.8,0.7c0.3,0.2,0.7,0.3,1.2,0.3c0.3,0,0.6,0,0.9-0.1
		c0.3-0.1,0.7-0.3,1.1-0.5V20c-0.4,0.2-0.8,0.3-1.1,0.4s-0.7,0.1-1.1,0.1c-0.6,0-1.2-0.1-1.7-0.4c-0.5-0.3-0.9-0.6-1.2-1.1
		c-0.3-0.5-0.4-1-0.4-1.6c0-0.6,0.1-1.2,0.4-1.6s0.7-0.9,1.2-1.1C4.4,14.5,5,14.4,5.6,14.4z"/>
	<path d="M10,14.5v5.1h2.9v0.9H8.8v-6H10z"/>
	<path d="M16.6,14.4c0.6,0,1.2,0.1,1.7,0.4s0.9,0.6,1.2,1.1c0.3,0.5,0.4,1,0.4,1.6c0,0.6-0.1,1.1-0.4,1.6c-0.3,0.5-0.7,0.9-1.2,1.1
		c-0.5,0.3-1.1,0.4-1.7,0.4c-0.6,0-1.2-0.1-1.7-0.4S14,19.5,13.7,19c-0.3-0.5-0.4-1-0.4-1.6c0-0.6,0.1-1.1,0.4-1.6
		c0.3-0.5,0.7-0.9,1.2-1.1C15.4,14.5,16,14.4,16.6,14.4z M14.5,17.5c0,0.4,0.1,0.8,0.3,1.1s0.4,0.6,0.8,0.7c0.3,0.2,0.7,0.3,1.1,0.3
		c0.6,0,1.1-0.2,1.5-0.6c0.4-0.4,0.6-0.9,0.6-1.5c0-0.4-0.1-0.8-0.3-1.1c-0.2-0.3-0.4-0.6-0.8-0.7c-0.3-0.2-0.7-0.3-1.1-0.3
		c-0.4,0-0.8,0.1-1.1,0.3s-0.6,0.4-0.8,0.7C14.6,16.7,14.5,17.1,14.5,17.5z"/>
	<path d="M22.8,14.4c0.6,0,1.2,0.1,1.7,0.4v1c-0.6-0.4-1.2-0.6-1.7-0.6c-0.3,0-0.5,0.1-0.7,0.2c-0.2,0.1-0.2,0.3-0.2,0.5
		c0,0.2,0.2,0.4,0.5,0.6c0.1,0.1,0.4,0.2,1,0.5c0.5,0.2,0.9,0.5,1.1,0.8c0.2,0.3,0.3,0.6,0.3,1c0,0.5-0.2,0.9-0.6,1.3
		c-0.4,0.3-0.9,0.5-1.4,0.5c-0.4,0-0.7,0-1-0.1c-0.3-0.1-0.6-0.2-0.9-0.4v-1.1c0.6,0.5,1.3,0.8,1.8,0.8c0.3,0,0.5-0.1,0.7-0.2
		s0.3-0.3,0.3-0.5c0-0.3-0.2-0.5-0.5-0.7c-0.3-0.1-0.6-0.3-1-0.5c-0.5-0.2-0.8-0.5-1.1-0.8c-0.2-0.3-0.4-0.6-0.4-1
		c0-0.5,0.2-0.9,0.6-1.2S22.2,14.4,22.8,14.4z"/>
	<path d="M29.7,14.5v0.9H27V17h2.6v0.9H27v1.7h2.8v0.9h-4v-6H29.7z"/>
</g>
<text transform="matrix(1 0 0 1 1.6826 45.0788)" style="font-family:'GillSans-SemiBold'; font-size:8.8392px;">CLOSE</text>
</svg>
