<svg xmlns="http://www.w3.org/2000/svg" width="40" height="40"><path d="M20.002 40a19.941 19.941 0 117.783-1.572A19.868 19.868 0 0120.002 40z" fill="#F0BB4C"/><path d="M24.998 7.737H14.921a7.1 7.1 0 00-7.091 7.092V24.9a7.1 7.1 0 007.091 7.093h10.077a7.1 7.1 0 007.094-7.093V14.83a7.1 7.1 0 00-7.094-7.093zm4.833 17.166a4.839 4.839 0 01-4.834 4.836H14.922a4.838 4.838 0 01-4.828-4.834V14.832A4.836 4.836 0 0114.922 10h10.076a4.838 4.838 0 014.833 4.832z" fill="#fff"/><path d="M26.443 11.887a1.512 1.512 0 101.51 1.512 1.513 1.513 0 00-1.51-1.512zm-6.483 1.714a6.271 6.271 0 106.271 6.269 6.278 6.278 0 00-6.27-6.27zm0 10.279a4.01 4.01 0 114.009-4.01 4.014 4.014 0 01-4.008 4.01z" fill="#fff"/></svg>