<svg xmlns="http://www.w3.org/2000/svg" width="54.896" height="55"><path d="M27.45 55A27.463 27.463 0 010 27.5a27.428 27.428 0 1138.133 25.339A27.23 27.23 0 0127.45 55zM14.673 36.773a16.437 16.437 0 008.889 2.607 16.683 16.683 0 007.079-1.5 15.618 15.618 0 005.173-3.883 17.118 17.118 0 004.25-11.147c0-.272-.005-.519-.016-.753a11.8 11.8 0 002.891-3.007 11.542 11.542 0 01-3.33.914 5.843 5.843 0 002.551-3.214 11.679 11.679 0 01-3.682 1.41 5.8 5.8 0 00-10.034 3.976 5.734 5.734 0 00.149 1.323 16.486 16.486 0 01-11.954-6.069 5.867 5.867 0 00-.79 2.922 5.808 5.808 0 002.584 4.835 5.743 5.743 0 01-2.625-.727.516.516 0 000 .075 5.822 5.822 0 004.657 5.7 5.924 5.924 0 01-2.621.1 5.816 5.816 0 005.419 4.035 11.568 11.568 0 01-7.2 2.484 11.785 11.785 0 01-1.39-.081z" fill="#fff"/></svg>