<svg xmlns="http://www.w3.org/2000/svg" width="40" height="40"><path d="M20 0a20 20 0 1020 20A20 20 0 0020 0z" fill="#F0BB4C"/><path d="M31.001 25.764c-2.895 3.33-9.365 7.386-10.836 8.007s-1.255-.395-1.194-.743l.2-1.18a2.843 2.843 0 00-.044-1.247c-.155-.384-.766-.582-1.215-.68-6.627-.873-11.533-5.509-11.533-11.042 0-6.173 6.186-11.191 13.791-11.191s13.79 5.018 13.79 11.191a9.949 9.949 0 01-2.959 6.885z" fill="#fff"/><g transform="translate(10.9 15.893)" fill="#ffd438"><rect width="1.504" height="6.545" rx=".369" transform="translate(5.228 .003)"/><path d="M13.116.01l.005-.009h-.97a.268.268 0 00-.268.268v3.57L9.129.12 9.108.092 9.092.075h-.005L9.072.063 9.065.057 9.051.048 9.043.043 9.029.035H9.02L9.005.028h-.009L8.98.023H7.933a.268.268 0 00-.268.268V6.3a.268.268 0 00.268.268H8.9a.269.269 0 00.269-.268V2.731l2.757 3.724a.256.256 0 00.068.066l.017.01h.007l.013.006.013.006h.008l.018.006a.274.274 0 00.073.009h.967a.268.268 0 00.268-.268V.281a.268.268 0 00-.268-.269zM4.127 5.038v.006H1.502V.272a.268.268 0 00-.268-.268H.266a.269.269 0 00-.269.268V6.28a.266.266 0 00.073.185.266.266 0 00.185.073h3.872a.268.268 0 00.268-.268v-.967a.269.269 0 00-.268-.265zm14.339-2.53h-2.629V1.49l2.626.017a.268.268 0 00.268-.268V.272a.269.269 0 00-.268-.269h-3.865a.268.268 0 00-.186.073.266.266 0 00-.073.185v6.011a.266.266 0 00.073.185.266.266 0 00.185.073h3.865a.268.268 0 00.268-.268v-.967a.268.268 0 00-.268-.268h-2.628V4.009h2.628a.268.268 0 00.268-.268v-.967a.269.269 0 00-.264-.266z"/></g></svg>