<svg xmlns="http://www.w3.org/2000/svg" width="40" height="40"><g opacity=".998"><path d="M19.977 40A20 20 0 010 19.978 20 20 0 0120.023.001 20 20 0 0140 20.024a20 20 0 01-12.217 18.4A19.923 19.923 0 0119.977 40z" fill="#F0BB4C"/><path d="M28.559 24.827l2.421-9.261a.691.691 0 00-.614-.863l-2.327-.185h-.025l-2.355-.187-11.764-.935-1.07-.085-.276-1.564A3.368 3.368 0 009.725 9H6.904v1.657H9.48a1.692 1.692 0 011.42 1.38l2.6 14.735a2.887 2.887 0 00.316.9 1.961 1.961 0 103.113 1.588v-.092h8.279a1.991 1.991 0 00-.022.3 1.962 1.962 0 101.975-1.962.842.842 0 00-.125-.01H16.351a1.277 1.277 0 01-1.2-1.008l-.261-1.184 13 .044a.691.691 0 00.669-.521z" fill="#fefefe"/></g></svg>