<svg xmlns="http://www.w3.org/2000/svg" viewBox="0 0 112 40"><path d="M20 0h92v40H20C9 40 0 31 0 20S9 0 20 0z" fill="#F0BB4C"/><path d="M32.4 26.7c3.5-5.9 1.6-13.6-4.3-17.1S14.5 8 11 13.9c-.1.2-.2.4-.4.6v.1c-2 3.8-2 8.3.1 12 0 0 0 .1.1.1 3.5 6 11.1 8 17.1 4.5 1.7-1 3.3-2.5 4.5-4.5-.1 0-.1 0 0 0zm-15.7-16c-.8 1.1-1.4 2.2-1.8 3.5h-2.3c1.1-1.5 2.5-2.7 4.1-3.5zm-5 5h2.8c-.3 1.4-.5 2.7-.6 4.1h-3.3c.1-1.4.5-2.8 1.1-4.1zm.1 9.8c-.7-1.3-1.1-2.7-1.2-4.1h3.3c.1 1.4.3 2.8.6 4.1h-2.7zm1 1.6H15c.4 1.2 1 2.2 1.7 3.2-1.5-.7-2.9-1.8-3.9-3.2zm7.9 4.2c-1.6-.4-3-2-4-4.2h4v4.2zm0-5.8h-4.6c-.4-1.3-.6-2.7-.7-4.1h5.2v4.1zm0-5.7h-5.2c0-1.4.3-2.8.6-4.1h4.6v4.1zm0-5.7h-4.1c1-2.4 2.4-4.1 4.1-4.5v4.5zm11.7 5.7h-3.3c0-1.4-.2-2.8-.6-4.1h2.8c.6 1.3 1 2.7 1.1 4.1zm-2-5.7h-2.3c-.4-1.2-1-2.4-1.8-3.5 1.6.9 3 2.1 4.1 3.5zm-8.1-4.4c1.7.4 3.1 2.1 4.1 4.5h-4.1V9.7zm0 6h4.6c.4 1.3.6 2.7.6 4.1h-5.2v-4.1zm0 5.7h5.2c-.1 1.4-.3 2.8-.7 4.1h-4.6l.1-4.1zm0 9.9v-4.2h4c-1 2.2-2.4 3.8-4 4.2zm4-1c.7-1 1.3-2.1 1.7-3.2h2.2c-1 1.4-2.4 2.5-3.9 3.2zm2.2-4.8c.3-1.4.5-2.7.6-4.1h3.3c-.1 1.4-.5 2.8-1.2 4.1h-2.7zm18.7-2.6h4.4v.9h-5.4V15h1v7.9zm5.8-3.8c.3-1.1 1.2-1.6 2.4-1.6 1.5 0 2.2.6 2.2 2v2.2c0 .9.1 1.5.1 2h-.9c-.1-.3-.1-.6-.1-1-.5.8-1.3 1.1-2.1 1.1-1.2 0-1.9-.7-1.9-1.8 0-1 .6-1.8 2-2 .6-.1 1.2-.2 1.9-.2v-.3c0-1-.4-1.4-1.3-1.4-.7 0-1.3.4-1.5 1.2l-.8-.2zm3.7 1.5c-.7 0-1.2.1-1.7.2-.9.2-1.3.6-1.3 1.3 0 .7.4 1.1 1.2 1.1.7 0 1.3-.4 1.8-1.2v-1.4zm4.1-1.8c.6-.8 1.4-1.2 2.1-1.2 1 0 1.7.6 1.7 1.8v4.5h-1v-4.2c0-.9-.4-1.2-1-1.2s-1.2.4-1.8 1.2v4.2h-1v-6.1h.9v1zm10.9-1.1c-.6 0-.9.1-1.2.4.4.3.6.8.6 1.3 0 1.2-.9 2-2.3 2-.3 0-.6-.1-.9-.2-.4.2-.6.5-.6.7 0 .3.2.5 1.1.6l1.2.1c1.6.2 2.1.7 2.1 1.5 0 1-1 1.7-2.9 1.7-1.7 0-2.7-.6-2.7-1.5 0-.6.4-1 1.2-1.3-.6-.1-.9-.5-.9-.9s.3-.8.9-1.2c-.5-.3-.8-.9-.8-1.6 0-1.2 1-2 2.3-2 .4 0 .9.1 1.2.3.4-.7.9-.9 1.8-.9l-.1 1zm-3.6 5.7c-.7.2-1.1.6-1.1 1 0 .6.8 1 1.9 1 1.3 0 2-.4 2-1 0-.4-.2-.7-1.4-.8l-1.4-.2zm-.6-3.9c0 .8.6 1.3 1.4 1.3.7 0 1.4-.5 1.4-1.3s-.6-1.3-1.4-1.3c-.8 0-1.4.5-1.4 1.3zm10.6 4.3h-.9v-1.1c-.5.8-1.3 1.3-2.1 1.3-1 0-1.7-.6-1.7-1.7v-4.5h1V22c0 .8.4 1.2 1.1 1.2.6 0 1.3-.5 1.8-1.2v-4.2h1v6zm2-4.7c.3-1.1 1.2-1.6 2.4-1.6 1.5 0 2.2.6 2.2 2v2.2c0 .9.1 1.5.1 2h-.9c-.1-.3-.1-.6-.1-1-.5.8-1.3 1.1-2.1 1.1-1.2 0-1.9-.7-1.9-1.8 0-1 .6-1.8 2-2 .6-.1 1.2-.2 1.9-.2v-.3c0-1-.4-1.4-1.3-1.4-.7 0-1.3.4-1.5 1.2l-.8-.2zm3.7 1.5c-.7 0-1.2.1-1.7.2-.9.2-1.3.6-1.3 1.3 0 .7.4 1.1 1.2 1.1.7 0 1.3-.4 1.8-1.2v-1.4zm8.1-2.9c-.6 0-.9.1-1.2.4.4.3.6.8.6 1.3 0 1.2-.9 2-2.3 2-.3 0-.6-.1-.9-.2-.4.2-.6.5-.6.7 0 .3.2.5 1.1.6l1.2.1c1.6.2 2.1.7 2.1 1.5 0 1-1 1.7-2.9 1.7-1.7 0-2.7-.6-2.7-1.5 0-.6.4-1 1.2-1.3-.6-.1-.9-.5-.9-.9s.3-.8.9-1.2c-.5-.3-.8-.9-.8-1.6 0-1.2 1-2 2.3-2 .4 0 .9.1 1.2.3.4-.7.9-.9 1.8-.9l-.1 1zm-3.6 5.7c-.7.2-1.1.6-1.1 1 0 .6.8 1 1.9 1 1.3 0 2-.4 2-1 0-.4-.2-.7-1.4-.8l-1.4-.2zm-.6-3.9c0 .8.6 1.3 1.4 1.3.7 0 1.4-.5 1.4-1.3s-.6-1.3-1.4-1.3c-.8 0-1.4.5-1.4 1.3zm6.4 1.4c0 1.5.7 2.3 1.8 2.3.8 0 1.3-.4 1.6-1.2l.9.3c-.4 1.1-1.2 1.7-2.5 1.7-1.7 0-2.7-1.2-2.7-3.2s1.1-3.2 2.7-3.2c1.5 0 2.6 1.2 2.6 3.1v.2h-4.4zm3.3-.7c-.1-1.2-.7-1.9-1.6-1.9-.9 0-1.6.7-1.7 1.9h3.3z" fill="#fff"/></svg>