<svg xmlns="http://www.w3.org/2000/svg" width="54.893" height="55"><path d="M27.446 55A27.462 27.462 0 010 27.5a27.426 27.426 0 1138.13 25.339A27.232 27.232 0 0127.446 55zm-6.929-44.333a9.77 9.77 0 00-9.749 9.769v13.877a9.771 9.771 0 009.749 9.771H34.37a9.773 9.773 0 009.752-9.771V20.436a9.772 9.772 0 00-9.752-9.769zm13.853 30.3H20.517a6.657 6.657 0 01-6.639-6.66V20.436a6.655 6.655 0 016.639-6.655H34.37a6.656 6.656 0 016.643 6.655v13.877a6.659 6.659 0 01-6.643 6.659zM27.445 18.74a8.638 8.638 0 108.621 8.636 8.638 8.638 0 00-8.621-8.636zm8.911-2.359a2.083 2.083 0 102.077 2.084 2.084 2.084 0 00-2.077-2.084zM27.445 32.9a5.523 5.523 0 115.512-5.525 5.524 5.524 0 01-5.512 5.525z" fill="#fff"/></svg>