<svg xmlns="http://www.w3.org/2000/svg" width="115" height="40"><g transform="translate(945 -5854)"><rect width="115" height="40" rx="20" transform="translate(-945 5854)" fill="#F0BB4C"/><path d="M-912.638 5880.674a12.5 12.5 0 10-21.809-12.2l-.019.033-.045.083c0 .008-.009.016-.012.024a12.463 12.463 0 00.14 12.021.781.781 0 00.077.133 12.488 12.488 0 0021.617-.005.773.773 0 00.051-.089zm-15.617-16a12.479 12.479 0 00-1.831 3.463h-2.284a10.989 10.989 0 014.115-3.467zm-5.053 5.025h2.754a19.824 19.824 0 00-.553 4.134h-3.293a10.839 10.839 0 011.092-4.134zm.112 9.833a10.842 10.842 0 01-1.192-4.133h3.291a19.608 19.608 0 00.6 4.132zm1 1.567h2.194a12.307 12.307 0 001.747 3.231 10.985 10.985 0 01-3.942-3.231zm7.914 4.227c-1.606-.4-3.032-1.976-3.995-4.227h3.995zm0-5.793h-4.56a17.6 17.6 0 01-.681-4.132h5.241zm0-5.7h-5.249a17.765 17.765 0 01.623-4.134h4.623zm0-5.7h-4.093c.963-2.373 2.431-4.05 4.091-4.459zm11.683 5.7h-3.293a19.824 19.824 0 00-.553-4.134h2.754a10.838 10.838 0 011.091 4.135zm-2.029-5.7h-2.285a12.478 12.478 0 00-1.831-3.463 10.988 10.988 0 014.114 3.463zm-8.087-4.459c1.66.409 3.129 2.085 4.091 4.459h-4.093zm0 6.025h4.623a17.765 17.765 0 01.625 4.134h-5.25zm0 5.7h5.241a17.6 17.6 0 01-.682 4.132h-4.56zm0 9.925v-4.225h3.995c-.965 2.25-2.388 3.831-3.997 4.227zm3.972-1a12.305 12.305 0 001.747-3.231h2.188a10.984 10.984 0 01-3.937 3.237zm2.24-4.8a19.6 19.6 0 00.6-4.132h3.295a10.84 10.84 0 01-1.192 4.132z" fill="#fff"/><text transform="translate(-873 5878)" fill="#fff" font-size="12" font-family="YuGo-Medium, YuGothic" font-weight="500"><tspan x="-27.078" y="0">Language</tspan></text></g></svg>