<svg xmlns="http://www.w3.org/2000/svg" width="55" height="55"><g transform="translate(-360.945 -237.638)"><circle cx="27.5" cy="27.5" r="27.5" transform="translate(360.945 237.638)" fill="#fff"/><path d="M407.633 263.595c0-8.485-8.506-15.388-18.962-15.388s-18.962 6.9-18.962 15.388c0 7.607 6.746 13.977 15.858 15.182.618.133 1.458.407 1.671.935a3.894 3.894 0 01.061 1.715l-.27 1.623c-.083.479-.381 1.875 1.642 1.022s10.92-6.43 14.9-11.009c2.748-3.014 4.064-6.072 4.064-9.468" fill="#F0BB4C"/><path d="M384.819 259.495h-1.33a.369.369 0 00-.369.369v8.262a.369.369 0 00.369.369h1.33a.369.369 0 00.369-.369v-8.262a.369.369 0 00-.369-.369m9.154 0h-1.327a.369.369 0 00-.369.369v4.909l-3.787-5.113a.371.371 0 00-.029-.038l-.022-.023-.007-.006-.02-.017-.01-.008-.019-.013-.011-.007-.019-.011-.012-.006-.021-.009h-.012l-.022-.007h-1.44a.369.369 0 00-.369.369v8.262a.369.369 0 00.369.369h1.33a.369.369 0 00.37-.369v-4.907l3.791 5.12a.367.367 0 00.094.091l.023.014.01.006.018.009.018.008h.011l.025.008h.005a.363.363 0 00.095.013h1.33a.369.369 0 00.369-.369v-8.262a.369.369 0 00-.369-.369m-12.354 6.918h-3.61v-6.561a.369.369 0 00-.369-.369h-1.331a.37.37 0 00-.37.369v8.261a.368.368 0 00.1.255l.005.006h.005a.367.367 0 00.255.1h5.314a.369.369 0 00.369-.369v-1.33a.369.369 0 00-.369-.37m19.707-4.854a.369.369 0 00.369-.37v-1.33a.369.369 0 00-.369-.37h-5.314a.368.368 0 00-.256.1l-.006.006a.371.371 0 00-.1.255v8.261a.368.368 0 00.1.255l.005.006h.005a.368.368 0 00.255.1h5.314a.369.369 0 00.369-.369v-1.33a.369.369 0 00-.369-.369h-3.614v-1.4h3.614a.369.369 0 00.369-.369v-1.33a.369.369 0 00-.369-.37h-3.614v-1.4z" fill="#fff"/></g></svg>