<svg xmlns="http://www.w3.org/2000/svg" width="40" height="40"><path d="M20.001 40a19.938 19.938 0 117.783-1.572A19.869 19.869 0 0120.001 40z" fill="#F0BB4C"/><path d="M10.691 26.742a11.99 11.99 0 006.478 1.9 12.175 12.175 0 005.159-1.091 11.367 11.367 0 003.769-2.824 12.435 12.435 0 003.1-8.106c0-.2 0-.376-.012-.547a8.59 8.59 0 002.109-2.187 8.4 8.4 0 01-2.427.664 4.247 4.247 0 001.86-2.338 8.507 8.507 0 01-2.683 1.024 4.23 4.23 0 00-7.312 2.893 4.2 4.2 0 00.109.962 12.017 12.017 0 01-8.71-4.414 4.218 4.218 0 001.306 5.642 4.192 4.192 0 01-1.913-.528.34.34 0 000 .055 4.236 4.236 0 003.394 4.146 4.35 4.35 0 01-1.117.145 4.4 4.4 0 01-.794-.073 4.237 4.237 0 003.949 2.936 8.519 8.519 0 01-6.264 1.746z" fill="#fff"/></svg>