<?xml version="1.0" encoding="utf-8"?>
<!-- Generator: Adobe Illustrator 26.0.2, SVG Export Plug-In . SVG Version: 6.00 Build 0)  -->
<svg version="1.1" id="レイヤー_1" xmlns="http://www.w3.org/2000/svg" xmlns:xlink="http://www.w3.org/1999/xlink" x="0px"
	 y="0px" viewBox="0 0 55 55" style="enable-background:new 0 0 55 55;" xml:space="preserve">
<style type="text/css">
	.st0{fill:#F0BB4C;}
	.st1{fill:#FFFFFF;}
	.st2{fill:#292929;}
	.st3{enable-background:new    ;}
</style>
<circle class="st0" cx="27.5" cy="27.5" r="27.5"/>
<path class="st1" d="M27.5,55C12.3,55,0,42.7,0,27.5S12.3,0,27.5,0C42.7,0,55,12.3,55,27.5S42.7,55,27.5,55z M27.5,1
	C12.9,1,1,12.9,1,27.5S12.9,54,27.5,54S54,42.1,54,27.5S42.1,1,27.5,1z"/>
<path class="st1" d="M23.2,17.9l0.7-0.7l8.5,8.5l-0.7,0.7L23.2,17.9z"/>
<path class="st1" d="M22.9,25.3l8.5-8.5l0.7,0.7L23.6,26L22.9,25.3z"/>
<path class="st2" d="M-2278-5300"/>
<g class="st3">
	<path class="st1" d="M17.1,35.2c0.3,0,0.7,0,1,0.1c0.3,0.1,0.7,0.2,1.1,0.4v1.1c-0.4-0.2-0.7-0.4-1-0.5s-0.6-0.1-1-0.1
		c-0.4,0-0.8,0.1-1.2,0.3s-0.6,0.4-0.8,0.7s-0.3,0.7-0.3,1.1c0,0.4,0.1,0.8,0.3,1.1s0.5,0.6,0.8,0.7c0.3,0.2,0.7,0.3,1.2,0.3
		c0.3,0,0.6,0,0.9-0.1c0.3-0.1,0.7-0.3,1.1-0.5v1.1c-0.4,0.2-0.8,0.3-1.1,0.4s-0.7,0.1-1.1,0.1c-0.6,0-1.2-0.1-1.7-0.4
		c-0.5-0.3-0.9-0.6-1.2-1.1c-0.3-0.5-0.4-1-0.4-1.6c0-0.6,0.1-1.2,0.4-1.6s0.7-0.9,1.2-1.1C15.9,35.3,16.5,35.2,17.1,35.2z"/>
	<path class="st1" d="M21.5,35.2v5.1h2.9v0.9h-4.1v-6H21.5z"/>
	<path class="st1" d="M28.2,35.2c0.6,0,1.2,0.1,1.7,0.4s0.9,0.6,1.2,1.1c0.3,0.5,0.4,1,0.4,1.6c0,0.6-0.1,1.1-0.4,1.6
		c-0.3,0.5-0.7,0.9-1.2,1.1c-0.5,0.3-1.1,0.4-1.7,0.4c-0.6,0-1.2-0.1-1.7-0.4s-0.9-0.6-1.2-1.1c-0.3-0.5-0.4-1-0.4-1.6
		c0-0.6,0.1-1.1,0.4-1.6c0.3-0.5,0.7-0.9,1.2-1.1C27,35.3,27.5,35.2,28.2,35.2z M26.1,38.2c0,0.4,0.1,0.8,0.3,1.1s0.4,0.6,0.8,0.7
		c0.3,0.2,0.7,0.3,1.1,0.3c0.6,0,1.1-0.2,1.5-0.6c0.4-0.4,0.6-0.9,0.6-1.5c0-0.4-0.1-0.8-0.3-1.1c-0.2-0.3-0.4-0.6-0.8-0.7
		c-0.3-0.2-0.7-0.3-1.1-0.3c-0.4,0-0.8,0.1-1.1,0.3s-0.6,0.4-0.8,0.7C26.1,37.5,26.1,37.8,26.1,38.2z"/>
	<path class="st1" d="M34.3,35.2c0.6,0,1.2,0.1,1.7,0.4v1c-0.6-0.4-1.2-0.6-1.7-0.6c-0.3,0-0.5,0.1-0.7,0.2
		c-0.2,0.1-0.2,0.3-0.2,0.5c0,0.2,0.2,0.4,0.5,0.6c0.1,0.1,0.4,0.2,1,0.5c0.5,0.2,0.9,0.5,1.1,0.8c0.2,0.3,0.3,0.6,0.3,1
		c0,0.5-0.2,0.9-0.6,1.3c-0.4,0.3-0.9,0.5-1.4,0.5c-0.4,0-0.7,0-1-0.1c-0.3-0.1-0.6-0.2-0.9-0.4v-1.1c0.6,0.5,1.3,0.8,1.8,0.8
		c0.3,0,0.5-0.1,0.7-0.2s0.3-0.3,0.3-0.5c0-0.3-0.2-0.5-0.5-0.7c-0.3-0.1-0.6-0.3-1-0.5c-0.5-0.2-0.8-0.5-1.1-0.8
		c-0.2-0.3-0.4-0.6-0.4-1c0-0.5,0.2-0.9,0.6-1.2S33.7,35.2,34.3,35.2z"/>
	<path class="st1" d="M41.2,35.2v0.9h-2.7v1.6h2.6v0.9h-2.6v1.7h2.8v0.9h-4v-6H41.2z"/>
</g>
<circle class="st0" cx="27.5" cy="104.5" r="27.5"/>
<path class="st1" d="M27.5,132C12.3,132,0,119.6,0,104.5S12.3,77,27.5,77C42.7,77,55,89.3,55,104.5S42.7,132,27.5,132z M27.5,78
	C12.9,78,1,89.9,1,104.5S12.9,131,27.5,131S54,119.1,54,104.5S42.1,78,27.5,78z"/>
<path class="st1" d="M23.2,94.9l0.7-0.7l8.5,8.5l-0.7,0.7L23.2,94.9z"/>
<path class="st1" d="M22.9,102.3l8.5-8.5l0.7,0.7l-8.5,8.5L22.9,102.3z"/>
<text transform="matrix(1 0 0 1 13.2138 118.2363)" class="st1" style="font-family:'GillSans-SemiBold'; font-size:8.8392px;">CLOSE</text>
</svg>
