<?xml version="1.0" encoding="UTF-8"?><svg id="_レイヤー_2" xmlns="http://www.w3.org/2000/svg" viewBox="0 0 197.7 129.41"><defs><style>.cls-1{fill:#231815;stroke:#231815;stroke-miterlimit:10;}</style></defs><g id="_レイヤー_1-2"><g><g><path class="cls-1" d="m5.7.89l9.83,11.8L25.35.89h5.16s0,29.91,0,29.91h-5.78s0-21,0-21h-.17s-8.65,10.53-8.65,10.53h-.81S6.45,9.79,6.45,9.79h-.17v21s-5.78,0-5.78,0V.89s5.2,0,5.2,0Z"/><path class="cls-1" d="m48.41.89v29.91s-5.78,0-5.78,0V.89s5.78,0,5.78,0Z"/><path class="cls-1" d="m65.73.89l9.83,11.8L85.38.89h5.16s0,29.91,0,29.91h-5.78s0-21,0-21h-.17s-8.65,10.53-8.65,10.53h-.81s-8.65-10.53-8.65-10.53h-.17v21s-5.78,0-5.78,0V.89s5.2,0,5.2,0Z"/><path class="cls-1" d="m114.84.5c3.1,0,5.88.64,8.36,1.92s4.45,3.12,5.92,5.52,2.2,5.04,2.2,7.91-.72,5.39-2.15,7.78-3.4,4.25-5.91,5.57c-2.5,1.32-5.33,1.98-8.47,1.98-3.1,0-5.91-.67-8.44-2.01-2.53-1.34-4.51-3.19-5.92-5.53-1.41-2.35-2.12-4.94-2.12-7.78s.71-5.32,2.12-7.73,3.36-4.28,5.84-5.62,5.34-2,8.56-2Zm-10.55,15.35c0,1.98.45,3.77,1.35,5.35s2.15,2.81,3.76,3.68c1.61.87,3.42,1.31,5.45,1.31,3.07,0,5.59-.96,7.57-2.89s2.96-4.41,2.96-7.45c0-1.98-.45-3.77-1.34-5.36s-2.15-2.82-3.77-3.69-3.44-1.31-5.47-1.31-3.85.44-5.47,1.32-2.86,2.11-3.74,3.68-1.31,3.36-1.31,5.36Z"/><path class="cls-1" d="m149.56.5c2.91,0,5.72.73,8.41,2.18v5.14c-3.1-1.87-5.84-2.8-8.24-2.8-1.46,0-2.59.28-3.41.85s-1.23,1.32-1.23,2.26c0,1.13.76,2.17,2.29,3.13.43.29,2.08,1.08,4.94,2.4,2.45,1.16,4.22,2.44,5.31,3.85s1.63,3.11,1.63,5.09c0,2.57-.92,4.64-2.77,6.22s-4.24,2.37-7.18,2.37c-1.91,0-3.56-.21-4.93-.63s-2.92-1.15-4.63-2.17v-5.69c3.2,2.65,6.21,3.98,9.03,3.98,1.41,0,2.55-.31,3.43-.92s1.31-1.43,1.31-2.44c0-1.38-.76-2.51-2.27-3.38-1.26-.69-2.88-1.51-4.86-2.46-2.35-1.07-4.11-2.32-5.28-3.75s-1.74-3.08-1.74-4.97c0-2.51.93-4.51,2.8-6s4.34-2.24,7.41-2.24Z"/><path class="cls-1" d="m183.72.89l13.21,29.91h-6.1s-3.1-7.28-3.1-7.28h-13.29s-2.89,7.28-2.89,7.28h-6.06S177.81.89,177.81.89h5.91Zm-7.54,18.24h9.65s-5.05-11.84-5.05-11.84l-4.6,11.84Z"/></g><path class="cls-1" d="m81.88,97.91c3.1,0,5.88.64,8.36,1.92s4.45,3.12,5.92,5.52,2.2,5.04,2.2,7.91-.72,5.39-2.15,7.78-3.4,4.25-5.91,5.57c-2.5,1.32-5.33,1.98-8.47,1.98-3.1,0-5.91-.67-8.44-2.01-2.53-1.34-4.51-3.19-5.92-5.53-1.41-2.35-2.12-4.94-2.12-7.78s.71-5.32,2.12-7.73,3.36-4.28,5.84-5.62,5.34-2,8.56-2Zm-10.55,15.35c0,1.98.45,3.77,1.35,5.35s2.15,2.81,3.76,3.68c1.61.87,3.42,1.31,5.45,1.31,3.07,0,5.59-.96,7.57-2.89s2.96-4.41,2.96-7.45c0-1.98-.45-3.77-1.34-5.36s-2.15-2.82-3.77-3.69-3.44-1.31-5.47-1.31-3.85.44-5.47,1.32-2.86,2.11-3.74,3.68-1.31,3.36-1.31,5.36Z"/><g id="festa"><path class="cls-1" d="m40.77,49.36v4.53s-12.49,0-12.49,0v7.75s12.49,0,12.49,0v4.57s-12.49,0-12.49,0v13.14s-5.8,0-5.8,0v-29.98s18.29,0,18.29,0Z"/><path class="cls-1" d="m72.39,49.23v4.53s-13.59,0-13.59,0v7.88s13.01,0,13.01,0v4.53s-13.01,0-13.01,0v8.52s13.89,0,13.89,0v4.53s-19.68,0-19.68,0v-29.98s19.38,0,19.38,0Z"/><path class="cls-1" d="m94.65,48.85c2.92,0,5.73.73,8.44,2.19v5.15c-3.11-1.87-5.86-2.81-8.26-2.81-1.46,0-2.6.28-3.42.85s-1.23,1.32-1.23,2.26c0,1.13.77,2.17,2.3,3.13.43.29,2.08,1.09,4.96,2.4,2.46,1.16,4.23,2.45,5.32,3.86s1.63,3.12,1.63,5.11c0,2.58-.93,4.65-2.78,6.24s-4.25,2.37-7.2,2.37c-1.92,0-3.57-.21-4.95-.63s-2.93-1.15-4.65-2.18v-5.71c3.2,2.66,6.22,3.99,9.06,3.99,1.42,0,2.56-.31,3.43-.92.87-.62,1.31-1.43,1.31-2.45,0-1.39-.76-2.52-2.28-3.39-1.26-.69-2.88-1.51-4.87-2.47-2.36-1.07-4.13-2.32-5.29-3.76-1.17-1.43-1.75-3.09-1.75-4.98,0-2.52.94-4.52,2.81-6.02s4.35-2.24,7.43-2.24Z"/><path class="cls-1" d="m140.48,49.23v4.53s-10.65,0-10.65,0v25.46s-5.8,0-5.8,0v-25.46s-10.65,0-10.65,0v-4.53s27.09,0,27.09,0Z"/><path class="cls-1" d="m162.31,49.23l13.24,29.98h-6.12s-3.11-7.3-3.11-7.3h-13.33s-2.9,7.3-2.9,7.3h-6.07s12.36-29.98,12.36-29.98h5.92Zm-7.56,18.29h9.68s-5.07-11.87-5.07-11.87l-4.61,11.87Z"/></g><g id="_2022"><path class="cls-1" d="m49.36,97.73c2.8-.03,5.03.75,6.69,2.32,1.67,1.58,2.51,3.69,2.54,6.35.02,2.02-.57,4.22-1.78,6.59s-3.33,5.52-6.38,9.44l10.09-.1.05,5.1-19.07.19v-.61c2.19-2.76,4.07-5.24,5.64-7.44s2.79-4.02,3.64-5.47,1.46-2.68,1.82-3.69.53-2.06.52-3.14c-.01-1.35-.46-2.48-1.33-3.39s-1.93-1.36-3.16-1.35c-2.22.02-4.51,1.31-6.87,3.86l-.06-5.77c2.5-1.89,5.05-2.85,7.66-2.88Z"/></g><g id="_2022-2"><path class="cls-1" d="m111.81,97.77c2.8-.03,5.03.75,6.69,2.32,1.67,1.58,2.51,3.69,2.54,6.35.02,2.02-.57,4.22-1.78,6.59-1.21,2.37-3.33,5.52-6.38,9.44l10.09-.1.05,5.1-19.07.19v-.61c2.19-2.76,4.07-5.24,5.64-7.44s2.79-4.02,3.64-5.47,1.46-2.68,1.82-3.69.53-2.06.52-3.14c-.01-1.35-.46-2.48-1.33-3.39s-1.93-1.36-3.16-1.35c-2.22.02-4.51,1.31-6.87,3.86l-.06-5.77c2.5-1.89,5.05-2.85,7.66-2.88Z"/></g><path class="cls-1" d="m136.78,97.73c2.81,0,5.08.7,6.81,2.1s2.59,3.25,2.59,5.56c0,3.12-1.41,5.44-4.24,6.96,1.62.58,2.85,1.53,3.68,2.84s1.24,2.88,1.24,4.69c0,2.7-.94,4.88-2.83,6.54s-4.37,2.49-7.44,2.49c-2.42,0-4.75-.57-6.99-1.72v-5.35c1.23.83,2.36,1.43,3.39,1.8s2.08.55,3.16.55c1.42,0,2.59-.4,3.49-1.21s1.36-1.85,1.36-3.14c0-1.42-.5-2.56-1.5-3.41s-2.37-1.27-4.11-1.27h-.35v-4.72h.26c1.62,0,2.89-.36,3.81-1.08s1.37-1.69,1.37-2.91-.44-2.17-1.33-2.91-2.02-1.1-3.39-1.1c-1.71,0-3.51.46-5.4,1.37v-4.77c1.9-.88,4.04-1.33,6.42-1.33Z"/></g></g></svg>