<?xml version="1.0" encoding="utf-8"?>
<!-- Generator: Adobe Illustrator 26.0.2, SVG Export Plug-In . SVG Version: 6.00 Build 0)  -->
<svg version="1.1" id="レイヤー_1" xmlns="http://www.w3.org/2000/svg" xmlns:xlink="http://www.w3.org/1999/xlink" x="0px"
	 y="0px" viewBox="0 0 82 18" style="enable-background:new 0 0 82 18;" xml:space="preserve">
<style type="text/css">
	.st0{fill:none;}
	.st1{enable-background:new    ;}
</style>
<path class="st0" d="M0,0"/>
<path class="st0" d="M0,0h82v18H0V0z"/>
<g class="st1">
	<path d="M3.6,1.4l5.3,6.4l5.3-6.4h2.8v16.1h-3.1V6.2h-0.1l-4.7,5.7H8.6L4,6.2H3.9v11.3H0.8V1.4H3.6z"/>
	<path d="M23.5,1.4v9.4c0,1,0.1,1.7,0.4,2.3c0.3,0.6,0.8,1,1.4,1.4s1.4,0.6,2.3,0.6c1,0,1.8-0.2,2.4-0.5c0.7-0.3,1.2-0.8,1.5-1.4
		c0.3-0.6,0.5-1.4,0.5-2.5V1.4h3.1v9.6c0,2.2-0.6,3.8-1.9,5c-1.3,1.2-3.1,1.7-5.5,1.7c-1.5,0-2.8-0.3-3.9-0.8
		c-1.1-0.5-1.9-1.3-2.5-2.3c-0.6-1-0.9-2.2-0.9-3.5V1.4H23.5z"/>
	<path d="M43.2,1.2c1.6,0,3.1,0.4,4.5,1.2v2.8c-1.7-1-3.1-1.5-4.4-1.5c-0.8,0-1.4,0.2-1.8,0.5c-0.4,0.3-0.7,0.7-0.7,1.2
		c0,0.6,0.4,1.2,1.2,1.7c0.2,0.2,1.1,0.6,2.7,1.3c1.3,0.6,2.3,1.3,2.9,2.1s0.9,1.7,0.9,2.7c0,1.4-0.5,2.5-1.5,3.3
		c-1,0.8-2.3,1.3-3.9,1.3c-1,0-1.9-0.1-2.7-0.3c-0.7-0.2-1.6-0.6-2.5-1.2v-3.1c1.7,1.4,3.3,2.1,4.9,2.1c0.8,0,1.4-0.2,1.8-0.5
		c0.5-0.3,0.7-0.8,0.7-1.3c0-0.7-0.4-1.4-1.2-1.8c-0.7-0.4-1.5-0.8-2.6-1.3c-1.3-0.6-2.2-1.2-2.8-2s-0.9-1.7-0.9-2.7
		c0-1.4,0.5-2.4,1.5-3.2C40.2,1.6,41.5,1.2,43.2,1.2z"/>
	<path d="M61.5,1.4v2.4h-7.3V8h7v2.4h-7V15h7.5v2.4H51.1V1.4H61.5z"/>
</g>
<text transform="matrix(1 0 0 1 -0.9995 46.4746)" style="font-family:'GillSans-SemiBold'; font-size:23.6134px;">MUSE</text>
</svg>
