<?xml version="1.0" encoding="utf-8"?>
<!-- Generator: Adobe Illustrator 26.0.2, SVG Export Plug-In . SVG Version: 6.00 Build 0)  -->
<svg version="1.1" id="レイヤー_1" xmlns="http://www.w3.org/2000/svg" xmlns:xlink="http://www.w3.org/1999/xlink" x="0px"
	 y="0px" viewBox="0 0 285 18" style="enable-background:new 0 0 285 18;" xml:space="preserve">
<style type="text/css">
	.st0{fill:none;}
	.st1{enable-background:new    ;}
</style>
<path class="st0" d="M0,0"/>
<path class="st0" d="M0,0h285v18H0V0z"/>
<g class="st1">
	<path d="M9,1.2c1.7,0,3.2,0.3,4.5,1c1.3,0.7,2.4,1.7,3.2,3c0.8,1.3,1.2,2.7,1.2,4.3c0,1.5-0.4,2.9-1.2,4.2c-0.8,1.3-1.8,2.3-3.2,3
		c-1.3,0.7-2.9,1.1-4.6,1.1c-1.7,0-3.2-0.4-4.5-1.1c-1.4-0.7-2.4-1.7-3.2-3C0.5,12.4,0.1,11,0.1,9.4c0-1.5,0.4-2.9,1.1-4.2
		C2,4,3.1,3,4.4,2.2C5.8,1.5,7.3,1.2,9,1.2z M3.3,9.4c0,1.1,0.2,2,0.7,2.9c0.5,0.9,1.2,1.5,2,2C7,14.8,7.9,15,9,15
		c1.7,0,3-0.5,4.1-1.6c1.1-1,1.6-2.4,1.6-4c0-1.1-0.2-2-0.7-2.9c-0.5-0.9-1.2-1.5-2-2C11.1,4.1,10.1,3.8,9,3.8
		c-1.1,0-2.1,0.2-2.9,0.7s-1.5,1.1-2,2C3.6,7.4,3.3,8.4,3.3,9.4z"/>
	<path d="M23.6,1.4l9.6,11.2V1.4h3v16.1h-2.7L23.9,6v11.4h-3V1.4H23.6z"/>
	<path d="M42.8,1.4V15h7.8v2.4H39.7V1.4H42.8z"/>
	<path d="M56,1.4v16.1h-3.1V1.4H56z"/>
	<path d="M62.3,1.4l9.6,11.2V1.4h3v16.1h-2.7L62.6,6v11.4h-3V1.4H62.3z"/>
	<path d="M88.9,1.4v2.4h-7.3V8h7v2.4h-7V15H89v2.4H78.5V1.4H88.9z"/>
	<path d="M107,1.2c0.9,0,1.8,0.1,2.7,0.3c0.9,0.2,1.8,0.6,2.8,1.1v2.9c-1-0.6-1.9-1-2.8-1.2s-1.7-0.4-2.6-0.4
		c-1.1,0-2.2,0.2-3.1,0.7c-0.9,0.5-1.6,1.1-2.1,2c-0.5,0.9-0.8,1.8-0.8,2.9c0,1.1,0.3,2,0.8,2.9c0.5,0.9,1.2,1.5,2.1,2
		c0.9,0.5,2,0.7,3.1,0.7c0.9,0,1.7-0.1,2.5-0.4c0.8-0.3,1.8-0.7,3-1.4v2.9c-1,0.5-2,0.9-2.9,1.2c-0.9,0.2-1.9,0.3-3.1,0.3
		c-1.7,0-3.2-0.3-4.6-1c-1.3-0.7-2.4-1.7-3.2-2.9c-0.8-1.3-1.1-2.7-1.1-4.2c0-1.6,0.4-3.1,1.2-4.4c0.8-1.3,1.9-2.3,3.3-3
		C103.7,1.5,105.2,1.2,107,1.2z"/>
	<path d="M123.7,1.2c1.7,0,3.2,0.3,4.5,1c1.3,0.7,2.4,1.7,3.2,3c0.8,1.3,1.2,2.7,1.2,4.3c0,1.5-0.4,2.9-1.2,4.2
		c-0.8,1.3-1.8,2.3-3.2,3c-1.3,0.7-2.9,1.1-4.6,1.1c-1.7,0-3.2-0.4-4.5-1.1c-1.4-0.7-2.4-1.7-3.2-3c-0.8-1.3-1.1-2.7-1.1-4.2
		c0-1.5,0.4-2.9,1.1-4.2c0.8-1.3,1.8-2.3,3.1-3C120.4,1.5,121.9,1.2,123.7,1.2z M118,9.4c0,1.1,0.2,2,0.7,2.9c0.5,0.9,1.2,1.5,2,2
		c0.9,0.5,1.8,0.7,2.9,0.7c1.7,0,3-0.5,4.1-1.6c1.1-1,1.6-2.4,1.6-4c0-1.1-0.2-2-0.7-2.9c-0.5-0.9-1.2-1.5-2-2
		c-0.9-0.5-1.9-0.7-2.9-0.7c-1.1,0-2.1,0.2-2.9,0.7s-1.5,1.1-2,2C118.2,7.4,118,8.4,118,9.4z"/>
	<path d="M138.2,1.4l9.6,11.2V1.4h3v16.1h-2.7L138.5,6v11.4h-3V1.4H138.2z"/>
	<path d="M167.7,1.4v2.4H162v13.7h-3.1V3.8h-5.7V1.4H167.7z"/>
	<path d="M180.5,1.4v2.4h-7.3V8h7v2.4h-7V15h7.5v2.4h-10.6V1.4H180.5z"/>
	<path d="M186.3,1.4l9.6,11.2V1.4h3v16.1h-2.7L186.6,6v11.4h-3V1.4H186.3z"/>
	<path d="M215.8,1.4v2.4h-5.7v13.7H207V3.8h-5.7V1.4H215.8z"/>
	<path d="M222.6,1.2c1.6,0,3.1,0.4,4.5,1.2v2.8c-1.7-1-3.1-1.5-4.4-1.5c-0.8,0-1.4,0.2-1.8,0.5s-0.7,0.7-0.7,1.2
		c0,0.6,0.4,1.2,1.2,1.7c0.2,0.2,1.1,0.6,2.7,1.3c1.3,0.6,2.3,1.3,2.9,2.1s0.9,1.7,0.9,2.7c0,1.4-0.5,2.5-1.5,3.3
		c-1,0.8-2.3,1.3-3.9,1.3c-1,0-1.9-0.1-2.7-0.3c-0.7-0.2-1.6-0.6-2.5-1.2v-3.1c1.7,1.4,3.3,2.1,4.9,2.1c0.8,0,1.4-0.2,1.8-0.5
		c0.5-0.3,0.7-0.8,0.7-1.3c0-0.7-0.4-1.4-1.2-1.8c-0.7-0.4-1.5-0.8-2.6-1.3c-1.3-0.6-2.2-1.2-2.8-2c-0.6-0.8-0.9-1.7-0.9-2.7
		c0-1.4,0.5-2.4,1.5-3.2C219.6,1.6,220.9,1.2,222.6,1.2z"/>
</g>
<text transform="matrix(1 0 0 1 -0.9995 68.4746)" style="font-family:'GillSans-SemiBold'; font-size:23.6134px;">ONLINE CONTENTS</text>
</svg>
