<svg xmlns="http://www.w3.org/2000/svg" width="174.377" height="17.07"><path d="M10.025 15.42q0 .54.683.54v.54H5.927v-.54a.617.617 0 00.389-.134.491.491 0 00.17-.406V3.48H1.365a1.093 1.093 0 00-.543.15.6.6 0 00-.264.571H0v-4.2h.558a.6.6 0 00.264.57 1.083 1.083 0 00.543.15h13.781a1.083 1.083 0 00.543-.15.6.6 0 00.264-.57h.559v4.2h-.559a.6.6 0 00-.264-.571 1.093 1.093 0 00-.543-.15h-5.121zm6.207.544a.911.911 0 00.637-.39 6.456 6.456 0 00.45-.75l5.742-11.67c.145-.26.274-.5.388-.72a1.3 1.3 0 00.171-.57.438.438 0 00-.217-.42 1.919 1.919 0 00-.466-.18v-.54h5.245v.54a2.566 2.566 0 00-.434.165.433.433 0 00-.217.435 1.158 1.158 0 00.108.48c.073.16.181.37.327.63l6.456 12.21a1.028 1.028 0 00.419.48 6.1 6.1 0 00.6.3v.54h-5.463v-.54a.759.759 0 00.311-.09.287.287 0 00.185-.27 1.832 1.832 0 00-.248-.78l-1.18-2.22h-7.573l-1.117 2.13a2.469 2.469 0 00-.311.9q0 .33.59.33v.54h-4.408zm11.7-5.58l-2.607-5.58-2.918 5.58zM53.79 17.07c0-.3-.1-.47-.295-.51a3.936 3.936 0 00-.761-.06H37.96v-.54q.932 0 .931-.54V1.8q0-.54-.931-.54V.72h5.339v.54q-.87 0-.87.54v11.941h10.305a1.282 1.282 0 00.761-.211.664.664 0 00.295-.57h.558v4.11zm7.325-1.65a.468.468 0 00.186.406.726.726 0 00.434.134v.54h-4.842v-.54q.683 0 .683-.54V1.8q0-.54-.683-.54V.72h4.842v.54a.72.72 0 00-.434.135.465.465 0 00-.186.405v5.7l6.425-4.89c.29-.24.516-.435.682-.585s.249-.275.249-.375a.331.331 0 00-.139-.3.59.59 0 00-.326-.09V.72h6.517v.54a1.784 1.784 0 00-1.117.45l-7.139 5.491 6.519 7.29a7.88 7.88 0 00.946.884 3.063 3.063 0 001.07.585v.54H69.06v-.54q.405 0 .405-.21c0-.1-.146-.32-.435-.66l-5.308-5.91-2.607 1.95zm24.455-3.87l.31.151a.922.922 0 00.124.479 2.182 2.182 0 00.854.7 8.733 8.733 0 001.459.615 12.875 12.875 0 001.723.435 9.028 9.028 0 001.614.165c.351 0 .807-.024 1.365-.075a8.4 8.4 0 001.646-.315 4.7 4.7 0 001.4-.66 1.3 1.3 0 00.59-1.11 1.112 1.112 0 00-.543-1.02 4.091 4.091 0 00-1.428-.48 15.971 15.971 0 00-2.017-.2q-1.134-.045-2.313-.135a21.465 21.465 0 01-2.312-.3 6.54 6.54 0 01-2.018-.705 3.942 3.942 0 01-1.428-1.35 4.115 4.115 0 01-.543-2.235 4.054 4.054 0 01.45-1.83 4.478 4.478 0 011.381-1.59A7.725 7.725 0 0188.243.965 11.579 11.579 0 0191.595.53a14.86 14.86 0 012.856.24q1.21.242 2.1.51c.588.18 1.086.35 1.489.51a2.857 2.857 0 001.009.24.876.876 0 00.621-.18l.372.24L97.9 5.84l-.31-.12a1.62 1.62 0 00-.248-.69 2.63 2.63 0 00-.823-.7 7.32 7.32 0 00-1.35-.615 11.31 11.31 0 00-1.676-.435 9.742 9.742 0 00-3.213-.06 6.909 6.909 0 00-1.319.315 2.957 2.957 0 00-.978.555 1.1 1.1 0 00-.388.856 1.209 1.209 0 00.543 1.079 4.027 4.027 0 001.428.54 13.879 13.879 0 002.018.24q1.132.06 2.312.15a19.489 19.489 0 012.313.315 6.825 6.825 0 012.017.72 3.708 3.708 0 011.971 3.525 3.766 3.766 0 01-.853 2.55 6.014 6.014 0 01-2.126 1.56 9.851 9.851 0 01-2.748.765 21.023 21.023 0 01-2.747.2 18.826 18.826 0 01-2.963-.2 11.3 11.3 0 01-1.987-.48q-.792-.285-1.258-.51a1.907 1.907 0 00-.806-.225.52.52 0 00-.4.24l-.434-.24zm32.347-9.75q0-.54-.683-.54V.72h4.78v.54a.608.608 0 00-.388.135.484.484 0 00-.171.405v13.62a.488.488 0 00.171.406.612.612 0 00.388.134v.54h-4.78v-.54q.682 0 .683-.54V9.78h-9.994v5.64a.487.487 0 00.17.406.614.614 0 00.388.134v.54h-4.687v-.54q.589 0 .589-.54V1.8q0-.54-.589-.54V.72h4.687v.54a.609.609 0 00-.388.135.484.484 0 00-.17.405v5.1h9.994zM135.516.54a12.876 12.876 0 013.477.495 10.984 10.984 0 013.227 1.485 8.147 8.147 0 012.391 2.505 7.369 7.369 0 010 7.17 8.162 8.162 0 01-2.391 2.506 10.171 10.171 0 01-3.227 1.439 13.652 13.652 0 01-6.953 0 10.17 10.17 0 01-3.228-1.439 8.158 8.158 0 01-2.39-2.506 7.367 7.367 0 010-7.17 8.144 8.144 0 012.39-2.505 10.982 10.982 0 013.228-1.485 12.862 12.862 0 013.476-.495zm0 2.76a8.04 8.04 0 00-2.359.36 7.308 7.308 0 00-2.126 1.035 5.448 5.448 0 00-1.536 1.665 4.585 4.585 0 000 4.5 5.425 5.425 0 001.536 1.665 7.308 7.308 0 002.126 1.035 7.909 7.909 0 004.718 0 7.308 7.308 0 002.127-1.035 5.45 5.45 0 001.536-1.665 4.585 4.585 0 000-4.5 5.473 5.473 0 00-1.536-1.665 7.308 7.308 0 00-2.127-1.035 8.044 8.044 0 00-2.359-.36zm16.295-2.036c-.31 0-.466.191-.466.57a1.711 1.711 0 00.047.36 5.487 5.487 0 00.233.69l3.321 8.34h.062l3.291-8.46a5.145 5.145 0 00.2-.585 1.513 1.513 0 00.047-.345c0-.379-.135-.57-.4-.57v-.54h5.308v.54a.337.337 0 00-.311.15.614.614 0 00-.092.331 3.093 3.093 0 00.309 1.019l3.321 8.46h.063l3.351-8.64a1.9 1.9 0 00.218-.81.549.549 0 00-.527-.51v-.54h4.594v.54a.546.546 0 00-.513.36q-.17.36-.388.9l-4.469 11.46-.327.84a1.754 1.754 0 00-.139.6.528.528 0 00.155.375.564.564 0 00.435.165v.54h-4.905v-.54a1.88 1.88 0 00.389-.18.367.367 0 00.2-.329 1.62 1.62 0 00-.108-.541c-.074-.2-.192-.48-.358-.84l-3.569-8.85h-.062l-3.383 8.67a5.9 5.9 0 00-.465 1.47.554.554 0 00.4.6v.54h-4.811v-.54a.851.851 0 00.373-.09.308.308 0 00.185-.3 1.379 1.379 0 00-.108-.51c-.072-.18-.151-.37-.233-.569l-4.966-12.391a3.121 3.121 0 00-.264-.555.641.641 0 00-.45-.285v-.54h4.811z" fill="#292929"/></svg>