<svg xmlns="http://www.w3.org/2000/svg" width="239" height="18"><path d="M4.221 15.42a.469.469 0 00.187.405.717.717 0 00.434.135v.54H0v-.54c.455 0 .681-.181.681-.54V1.8c0-.361-.226-.54-.681-.54V.72h4.842v.54a.722.722 0 00-.434.134.468.468 0 00-.187.406v5.7l6.425-4.891q.433-.359.682-.585c.166-.149.25-.274.25-.375a.331.331 0 00-.141-.3.594.594 0 00-.326-.089V.72h6.518v.54a1.785 1.785 0 00-1.117.45L9.373 7.2l6.519 7.29a7.844 7.844 0 00.946.885 3.077 3.077 0 001.07.585v.54h-5.742v-.54c.269 0 .4-.07.4-.21q0-.15-.433-.66L6.824 9.18l-2.607 1.95zm15.798.541a.908.908 0 00.637-.391 6.456 6.456 0 00.451-.75l5.742-11.67q.218-.389.387-.719a1.3 1.3 0 00.172-.571.439.439 0 00-.217-.42 1.909 1.909 0 00-.467-.179v-.54h5.247v.54a2.5 2.5 0 00-.436.165.433.433 0 00-.217.434 1.15 1.15 0 00.11.481c.072.16.179.37.326.63l6.455 12.21a1.04 1.04 0 00.42.48 6.566 6.566 0 00.6.3v.54h-5.463v-.54a.759.759 0 00.311-.09.29.29 0 00.185-.271 1.851 1.851 0 00-.248-.78l-1.179-2.22H25.26l-1.117 2.13a2.458 2.458 0 00-.31.9c0 .219.2.33.59.33v.54h-4.409zm11.7-5.58l-2.608-5.58-2.918 5.58zm10.711-9.12c-.311 0-.465.19-.465.57a1.634 1.634 0 00.047.359 5 5 0 00.232.691l3.32 8.34h.063l3.291-8.46a5.186 5.186 0 00.2-.585 1.511 1.511 0 00.047-.345q0-.57-.4-.57v-.54h5.308v.54a.33.33 0 00-.31.15.607.607 0 00-.094.33 3.112 3.112 0 00.31 1.02l3.321 8.46h.062l3.352-8.64a1.915 1.915 0 00.219-.811.5.5 0 00-.157-.344.49.49 0 00-.371-.165v-.54h4.594v.54a.548.548 0 00-.514.36 16.5 16.5 0 00-.386.9l-4.471 11.46c-.123.321-.233.6-.326.84a1.765 1.765 0 00-.139.6.535.535 0 00.154.375.57.57 0 00.436.165v.54h-4.9v-.54a1.9 1.9 0 00.388-.181.367.367 0 00.2-.329 1.616 1.616 0 00-.109-.54q-.108-.3-.357-.841l-3.569-8.849h-.062l-3.383 8.67a5.906 5.906 0 00-.465 1.469.553.553 0 00.4.6v.54h-4.81v-.54a.857.857 0 00.373-.09.311.311 0 00.185-.3 1.386 1.386 0 00-.109-.51l-.232-.569L38.336 2.1a3.058 3.058 0 00-.264-.554.633.633 0 00-.449-.285v-.54h4.811zm20.763 14.7a.907.907 0 00.637-.391 6.456 6.456 0 00.451-.75l5.742-11.67q.218-.389.387-.719a1.3 1.3 0 00.172-.571.439.439 0 00-.217-.42 1.909 1.909 0 00-.467-.179v-.54h5.246v.54a2.5 2.5 0 00-.435.165.433.433 0 00-.217.434 1.163 1.163 0 00.109.481c.073.16.18.37.327.63l6.455 12.21a1.041 1.041 0 00.42.48 6.444 6.444 0 00.6.3v.54H76.94v-.54a.759.759 0 00.311-.09.29.29 0 00.185-.271 1.851 1.851 0 00-.248-.78l-1.179-2.22h-7.575l-1.117 2.13a2.458 2.458 0 00-.31.9c0 .219.2.33.589.33v.54h-4.408zm11.7-5.58l-2.607-5.58-2.918 5.58zm10.681 1.169l.311.15a.934.934 0 00.123.48 2.19 2.19 0 00.853.705 8.941 8.941 0 001.459.615 12.95 12.95 0 001.723.434 8.938 8.938 0 001.615.165c.352 0 .807-.024 1.365-.075a8.393 8.393 0 001.645-.314 4.694 4.694 0 001.4-.66 1.3 1.3 0 00.59-1.111 1.108 1.108 0 00-.543-1.019 4.07 4.07 0 00-1.428-.481 15.92 15.92 0 00-2.017-.194q-1.134-.045-2.313-.136a21.238 21.238 0 01-2.312-.3 6.517 6.517 0 01-2.018-.7A3.937 3.937 0 0184.6 7.76a4.119 4.119 0 01-.543-2.236 4.068 4.068 0 01.449-1.83 4.513 4.513 0 011.383-1.59A7.74 7.74 0 0188.246.979 11.6 11.6 0 0191.6.545a14.958 14.958 0 012.855.239q1.21.242 2.1.511c.588.18 1.086.35 1.488.51a2.86 2.86 0 001.01.24.879.879 0 00.621-.181l.371.24-2.141 3.75-.31-.12a1.63 1.63 0 00-.248-.689 2.615 2.615 0 00-.823-.7 7.233 7.233 0 00-1.351-.615 11.154 11.154 0 00-1.676-.435 9.937 9.937 0 00-1.8-.165 10.05 10.05 0 00-1.412.1 6.89 6.89 0 00-1.318.316 2.954 2.954 0 00-.979.555 1.1 1.1 0 00-.386.855 1.2 1.2 0 00.543 1.079 4.008 4.008 0 001.427.54 13.859 13.859 0 002.018.24q1.131.06 2.312.151a19.474 19.474 0 012.313.314 6.87 6.87 0 012.018.721 3.709 3.709 0 011.97 3.524 3.769 3.769 0 01-.853 2.55 6.014 6.014 0 01-2.127 1.561 9.791 9.791 0 01-2.746.764 21.049 21.049 0 01-2.748.2 18.792 18.792 0 01-2.963-.2 11.292 11.292 0 01-1.987-.479 13.292 13.292 0 01-1.257-.511 1.936 1.936 0 00-.807-.224.521.521 0 00-.4.24l-.434-.24zm15.922 4.411a.911.911 0 00.637-.391 6.6 6.6 0 00.451-.75l5.742-11.67c.145-.259.273-.5.387-.719a1.3 1.3 0 00.172-.571.441.441 0 00-.217-.42 1.924 1.924 0 00-.467-.179v-.54h5.246v.54a2.493 2.493 0 00-.435.165.433.433 0 00-.217.434 1.167 1.167 0 00.109.481c.072.16.18.37.326.63l6.455 12.21a1.052 1.052 0 00.42.48 6.469 6.469 0 00.606.3v.54h-5.463v-.54a.756.756 0 00.31-.09.291.291 0 00.186-.271 1.851 1.851 0 00-.248-.78l-1.18-2.22h-7.574l-1.117 2.13a2.466 2.466 0 00-.311.9c0 .219.2.33.59.33v.54h-4.408zm11.7-5.58l-2.607-5.58-2.918 5.58zm13.907 5.039a.469.469 0 00.188.405.713.713 0 00.433.135v.54h-4.841v-.54c.455 0 .681-.181.681-.54V1.8c0-.361-.226-.54-.681-.54V.72h4.841v.54a.718.718 0 00-.433.134.469.469 0 00-.188.406v5.7l6.426-4.891q.434-.359.682-.585c.166-.149.25-.274.25-.375a.331.331 0 00-.141-.3.6.6 0 00-.326-.089V.72h6.518v.54a1.786 1.786 0 00-1.118.45l-7.138 5.49 6.519 7.29a7.844 7.844 0 00.946.885 3.077 3.077 0 001.07.585v.54h-5.742v-.54q.4 0 .4-.21 0-.15-.434-.66l-5.308-5.91-2.608 1.95zm16.483.541c.537 0 .806-.181.806-.54V1.801c0-.361-.269-.54-.806-.54v-.54h5.152v.54c-.539 0-.807.179-.807.54v13.62c0 .359.268.54.807.54v.54h-5.152zm14.773 0a.907.907 0 00.637-.391 6.456 6.456 0 00.451-.75l5.742-11.67q.218-.389.387-.719a1.3 1.3 0 00.172-.571.439.439 0 00-.217-.42 1.909 1.909 0 00-.467-.179v-.54h5.246v.54a2.491 2.491 0 00-.435.165.433.433 0 00-.217.434 1.163 1.163 0 00.109.481c.073.16.18.37.327.63l6.455 12.21a1.041 1.041 0 00.42.48 6.415 6.415 0 00.6.3v.54h-5.459v-.54a.759.759 0 00.311-.09.29.29 0 00.185-.271 1.851 1.851 0 00-.248-.78l-1.179-2.22h-7.569l-1.117 2.13a2.461 2.461 0 00-.31.9c0 .219.2.33.589.33v.54h-4.408zm11.7-5.58l-2.607-5.58-2.918 5.58zM190.578.72a13.207 13.207 0 012.7.254 6.186 6.186 0 012.078.811 3.769 3.769 0 011.336 1.439 4.623 4.623 0 01.465 2.175 3.79 3.79 0 01-1.211 3.031 6.621 6.621 0 01-3.258 1.41l4.127 5.7a.837.837 0 00.514.359 2.656 2.656 0 00.543.061v.54h-5.8v-.54a1.175 1.175 0 00.481-.09c.134-.061.2-.14.2-.24a.674.674 0 00-.125-.345c-.082-.13-.207-.3-.373-.525l-3.414-4.68h-4.438v5.34a.458.458 0 00.2.405 1.4 1.4 0 00.729.135v.54h-5.369v-.54c.6 0 .9-.181.9-.54V1.8c0-.361-.3-.54-.9-.54V.72zm-.807 7.02a8.877 8.877 0 001.862-.165 3.342 3.342 0 001.179-.466 1.723 1.723 0 00.621-.705 2.174 2.174 0 000-1.769 1.736 1.736 0 00-.621-.705 3.342 3.342 0 00-1.179-.465 8.811 8.811 0 00-1.862-.165h-5.369v4.44zm26.569-3.779a.546.546 0 00-.264-.5 1.836 1.836 0 00-.916-.165h-10.057v3.719h6.084a2.254 2.254 0 00.963-.165q.341-.164.34-.854h.561v4.68h-.561q0-.69-.34-.885a1.96 1.96 0 00-.963-.2h-6.084v4.141h10.368a1.266 1.266 0 00.759-.211.657.657 0 00.295-.569h.559v4.109h-.559c0-.3-.1-.47-.295-.51a3.92 3.92 0 00-.759-.059H201.01v-.54a.609.609 0 00.388-.135.488.488 0 00.172-.405V1.792a.487.487 0 00-.172-.406.614.614 0 00-.388-.134v-.54h14.154a1.587 1.587 0 00.916-.2.618.618 0 00.264-.524h.558v3.96zm3.041 12a.907.907 0 00.636-.391 6.456 6.456 0 00.452-.75l5.742-11.67q.216-.389.387-.719a1.3 1.3 0 00.171-.571.44.44 0 00-.216-.42 1.924 1.924 0 00-.467-.179v-.54h5.246v.54a2.5 2.5 0 00-.436.165.434.434 0 00-.216.434 1.163 1.163 0 00.109.481c.072.16.18.37.326.63l6.455 12.21a1.046 1.046 0 00.42.48 6.469 6.469 0 00.606.3v.54h-5.463v-.54a.756.756 0 00.31-.09.291.291 0 00.186-.271 1.851 1.851 0 00-.248-.78l-1.18-2.22h-7.574l-1.117 2.13a2.466 2.466 0 00-.311.9c0 .219.2.33.59.33v.54h-4.408zm11.7-5.58l-2.608-5.58-2.918 5.58z" fill="#292929"/><path fill="none" d="M0 0h239v18H0z"/></svg>