<?xml version="1.0" encoding="utf-8"?>
<!-- Generator: Adobe Illustrator 26.0.2, SVG Export Plug-In . SVG Version: 6.00 Build 0)  -->
<svg version="1.1" id="レイヤー_1" xmlns="http://www.w3.org/2000/svg" xmlns:xlink="http://www.w3.org/1999/xlink" x="0px"
	 y="0px" viewBox="0 0 192.9 16.6" style="enable-background:new 0 0 192.9 16.6;" xml:space="preserve">
<style type="text/css">
	.st0{fill:none;}
	.st1{enable-background:new    ;}
</style>
<path class="st0" d="M0,0"/>
<g class="st1">
	<path d="M3.6,0.4l5.3,6.4l5.3-6.4h2.8v16.1h-3.1V5.2h-0.1l-4.7,5.7H8.6L4,5.2H3.9v11.3H0.8V0.4H3.6z"/>
	<path d="M23.7,0.4v16.1h-3.1V0.4H23.7z"/>
	<path d="M30.1,0.4l5.3,6.4l5.3-6.4h2.8v16.1h-3.1V5.2h-0.1l-4.7,5.7h-0.4l-4.7-5.7h-0.1v11.3h-3.1V0.4H30.1z"/>
	<path d="M55.3,0.2c1.7,0,3.2,0.3,4.5,1c1.3,0.7,2.4,1.7,3.2,3c0.8,1.3,1.2,2.7,1.2,4.3c0,1.5-0.4,2.9-1.2,4.2
		c-0.8,1.3-1.8,2.3-3.2,3c-1.3,0.7-2.9,1.1-4.6,1.1c-1.7,0-3.2-0.4-4.5-1.1c-1.4-0.7-2.4-1.7-3.2-3c-0.8-1.3-1.1-2.7-1.1-4.2
		c0-1.5,0.4-2.9,1.1-4.2c0.8-1.3,1.8-2.3,3.1-3C52,0.5,53.5,0.2,55.3,0.2z M49.6,8.4c0,1.1,0.2,2,0.7,2.9c0.5,0.9,1.2,1.5,2,2
		c0.9,0.5,1.8,0.7,2.9,0.7c1.7,0,3-0.5,4.1-1.6c1.1-1,1.6-2.4,1.6-4c0-1.1-0.2-2-0.7-2.9c-0.5-0.9-1.2-1.5-2-2
		c-0.9-0.5-1.9-0.7-2.9-0.7c-1.1,0-2.1,0.2-2.9,0.7s-1.5,1.1-2,2C49.8,6.4,49.6,7.4,49.6,8.4z"/>
	<path d="M71.7,0.2c1.6,0,3.1,0.4,4.5,1.2v2.8c-1.7-1-3.1-1.5-4.4-1.5C71,2.6,70.4,2.7,70,3c-0.4,0.3-0.7,0.7-0.7,1.2
		c0,0.6,0.4,1.2,1.2,1.7c0.2,0.2,1.1,0.6,2.7,1.3c1.3,0.6,2.3,1.3,2.9,2.1S77,11,77,12.1c0,1.4-0.5,2.5-1.5,3.3
		c-1,0.8-2.3,1.3-3.9,1.3c-1,0-1.9-0.1-2.7-0.3c-0.7-0.2-1.6-0.6-2.5-1.2v-3.1c1.7,1.4,3.3,2.1,4.9,2.1c0.8,0,1.4-0.2,1.8-0.5
		c0.5-0.3,0.7-0.8,0.7-1.3c0-0.7-0.4-1.4-1.2-1.8C72,10.2,71.1,9.8,70,9.3c-1.3-0.6-2.2-1.2-2.8-2s-0.9-1.7-0.9-2.7
		c0-1.4,0.5-2.4,1.5-3.2C68.7,0.6,70.1,0.2,71.7,0.2z"/>
	<path d="M87.4,0.4l7.1,16.1h-3.3l-1.7-3.9h-7.2l-1.6,3.9h-3.3l6.6-16.1H87.4z M83.3,10.2h5.2l-2.7-6.4L83.3,10.2z"/>
	<path d="M112.8,0.4v2.4H106V7h6.7v2.5H106v7.1h-3.1V0.4H112.8z"/>
	<path d="M123.1,0.4l7.1,16.1h-3.3l-1.7-3.9H118l-1.6,3.9h-3.3l6.6-16.1H123.1z M119,10.2h5.2l-2.7-6.4L119,10.2z"/>
	<path d="M135.2,0.4v16.1h-3.1V0.4H135.2z"/>
	<path d="M144.7,0.4c1.5,0,2.7,0.4,3.7,1.3s1.4,1.9,1.4,3.3c0,0.9-0.2,1.7-0.7,2.4s-1.2,1.2-2.1,1.6c0.5,0.3,1,0.7,1.4,1.1
		c0.4,0.5,0.9,1.3,1.5,2.4c1,2,1.7,3.3,2.2,4h-3.5c-0.2-0.4-0.6-0.9-1-1.7c-0.9-1.7-1.5-2.9-2-3.5c-0.4-0.6-0.8-1-1.2-1.3
		s-0.8-0.4-1.3-0.4H142v6.8h-3.1V0.4H144.7z M144,7.2c0.8,0,1.5-0.2,1.9-0.6s0.7-1,0.7-1.7c0-0.7-0.2-1.3-0.7-1.7s-1.1-0.5-2-0.5
		H142v4.5H144z"/>
</g>
<text transform="matrix(1 0 0 1 -0.9995 44.0674)" style="font-family:'GillSans-SemiBold'; font-size:23.6134px;">MIMOSA FAIR</text>
</svg>
