<?xml version="1.0" encoding="utf-8"?>
<!-- Generator: Adobe Illustrator 26.0.2, SVG Export Plug-In . SVG Version: 6.00 Build 0)  -->
<svg version="1.1" id="レイヤー_1" xmlns="http://www.w3.org/2000/svg" xmlns:xlink="http://www.w3.org/1999/xlink" x="0px"
	 y="0px" viewBox="0 0 127 18" style="enable-background:new 0 0 127 18;" xml:space="preserve">
<style type="text/css">
	.st0{fill:none;}
	.st1{enable-background:new    ;}
</style>
<path class="st0" d="M0,0"/>
<path class="st0" d="M0,0h127v18H0V0z"/>
<g class="st1">
	<path d="M3.6,1.4l5.3,6.4l5.3-6.4h2.8v16.1h-3.1V6.2h-0.1l-4.7,5.7H8.6L4,6.2H3.9v11.3H0.8V1.4H3.6z"/>
	<path d="M28.7,1.4l7.1,16.1h-3.3l-1.7-3.9h-7.2l-1.6,3.9h-3.3l6.6-16.1H28.7z M24.6,11.2h5.2l-2.7-6.4L24.6,11.2z"/>
	<path d="M43.5,1.4c1.5,0,2.7,0.4,3.7,1.3s1.4,1.9,1.4,3.3c0,0.9-0.2,1.7-0.7,2.4s-1.2,1.2-2.1,1.6c0.5,0.3,1,0.7,1.4,1.1
		c0.4,0.5,0.9,1.3,1.5,2.4c1,2,1.7,3.3,2.2,4h-3.5c-0.2-0.4-0.6-0.9-1-1.7c-0.9-1.7-1.5-2.9-2-3.5c-0.4-0.6-0.8-1-1.2-1.3
		c-0.4-0.2-0.8-0.4-1.3-0.4h-1.1v6.8h-3.1V1.4H43.5z M42.8,8.2c0.8,0,1.5-0.2,1.9-0.6c0.5-0.4,0.7-1,0.7-1.7c0-0.7-0.2-1.3-0.7-1.7
		s-1.1-0.5-2-0.5h-1.9v4.5H42.8z"/>
	<path d="M60.6,1.2c0.9,0,1.8,0.1,2.7,0.3c0.9,0.2,1.8,0.6,2.8,1.1v2.9c-1-0.6-1.9-1-2.8-1.2s-1.7-0.4-2.6-0.4
		c-1.1,0-2.2,0.2-3.1,0.7c-0.9,0.5-1.6,1.1-2.1,2c-0.5,0.9-0.8,1.8-0.8,2.9c0,1.1,0.3,2,0.8,2.9c0.5,0.9,1.2,1.5,2.1,2
		c0.9,0.5,2,0.7,3.1,0.7c0.9,0,1.7-0.1,2.5-0.4c0.8-0.3,1.8-0.7,3-1.4v2.9c-1,0.5-2,0.9-2.9,1.2c-0.9,0.2-1.9,0.3-3.1,0.3
		c-1.7,0-3.2-0.3-4.6-1c-1.3-0.7-2.4-1.7-3.2-2.9c-0.8-1.3-1.1-2.7-1.1-4.2c0-1.6,0.4-3.1,1.2-4.4c0.8-1.3,1.9-2.3,3.3-3
		C57.3,1.5,58.9,1.2,60.6,1.2z"/>
	<path d="M72.4,1.4v6.8h8.4V1.4h3.1v16.1h-3.1v-6.8h-8.4v6.8h-3.1V1.4H72.4z"/>
	<path d="M97.8,1.4v2.4h-7.3V8h7v2.4h-7V15H98v2.4H87.4V1.4H97.8z"/>
</g>
<text transform="matrix(1 0 0 1 -0.9995 51.4746)" style="font-family:'GillSans-SemiBold'; font-size:23.6134px;">MARCHE</text>
</svg>
