<svg xmlns="http://www.w3.org/2000/svg" width="285" height="18" viewBox="0 0 1140 72">
  <defs>
    <style>
      .cls-1 {
        stroke: #292929;
        stroke-linejoin: round;
        stroke-width: 1px;
        fill-rule: evenodd;
      }
    </style>
  </defs>
  <path id="STAMP_RALLY" data-name="STAMP RALLY" class="cls-1" d="M27.66,3.014A28.718,28.718,0,0,0,16.513,5.055a18.513,18.513,0,0,0-7.7,5.669A12.858,12.858,0,0,0,6,18.8,15.389,15.389,0,0,0,9.388,28.821q3.391,4.173,11.594,8.255A88.915,88.915,0,0,1,31.42,43.04a14.886,14.886,0,0,1,4.469,4.286,8.685,8.685,0,0,1,1.025,4.263,7.241,7.241,0,0,1-3.076,5.987,12.289,12.289,0,0,1-7.7,2.358,25.142,25.142,0,0,1-10.805-2.4,27.045,27.045,0,0,1-9.018-6.894v11.52a36.267,36.267,0,0,0,19.823,5.851A26.779,26.779,0,0,0,37.23,65.831a18.281,18.281,0,0,0,7.545-5.941A14.034,14.034,0,0,0,47.483,51.5a17.7,17.7,0,0,0-1.525-7.71A17.684,17.684,0,0,0,40.411,37.6a81.018,81.018,0,0,0-11.8-6.917,45.358,45.358,0,0,1-7.887-4.672,11.627,11.627,0,0,1-3.392-3.719,8.8,8.8,0,0,1-.762-3.764,6.183,6.183,0,0,1,2.918-5.352,13.72,13.72,0,0,1,7.861-2,26.163,26.163,0,0,1,17.194,6.576V7.459A33.648,33.648,0,0,0,27.66,3.014h0Zm89.91,8.8V3.831H56.209v7.982H81.4V67.191H91.964V11.813H117.57Zm75.819,55.378L160.526,3.468h-7.414L121.564,67.191h10.779L141.6,48.505H172.83l9.78,18.686h10.779Zm-24.871-26.85H145.7l10.989-22.95Zm69.457-10.477L213.525,3.831H203.64V67.191h10.516v-49.3l22.82,24.492h1.945l22.61-24.492v49.3H272.1V3.831h-9.78ZM330.382,8.616q-6.336-4.785-17.535-4.785h-22.4V67.191h10.516V39.706h10.148q12.25,0,18.929-4.422t6.677-13.493A15.6,15.6,0,0,0,330.382,8.616Zm-7.834,20.546q-3.286,2.563-11.857,2.563h-9.727V11.813h9.727q8.361,0,11.752,2.517a8.462,8.462,0,0,1,3.391,7.234Q325.834,26.6,322.548,29.161ZM422.026,12.72a18.188,18.188,0,0,0-7.651-6.463,27.565,27.565,0,0,0-12.041-2.426H382.091V67.191h10.516V39.616h4.732a15.16,15.16,0,0,1,8.2,2.449q3.89,2.449,9.044,9.525l11.62,15.6H438.72L425.785,50.274a91.42,91.42,0,0,0-7.466-8.912,27.624,27.624,0,0,0-5.994-4.286,18.989,18.989,0,0,0,9.175-6.032,15.046,15.046,0,0,0,3.128-9.57A15.847,15.847,0,0,0,422.026,12.72ZM409.959,29.479q-3.893,2.155-10.569,2.154h-6.783V11.813h8.939q5.94,0,9.122,2.517a8.581,8.581,0,0,1,3.181,7.143Q413.849,27.324,409.959,29.479ZM512.7,67.191L479.836,3.468h-7.414L440.874,67.191h10.778l9.255-18.686h31.232l9.78,18.686H512.7Zm-24.87-26.85h-22.82L476,17.392Zm45.742,18.6V3.831H522.949V67.191h43.694V58.937H533.57Zm55.05,0V3.831H578V67.191h43.694V58.937H588.62Zm68.72-33.245L637.675,3.831H624.951l27.131,29.843V67.191h10.779V33.674L689.993,3.831H677.268Z"/>
</svg>
