<?xml version="1.0" encoding="utf-8"?>
<!-- Generator: Adobe Illustrator 26.0.2, SVG Export Plug-In . SVG Version: 6.00 Build 0)  -->
<svg version="1.1" id="レイヤー_1" xmlns="http://www.w3.org/2000/svg" xmlns:xlink="http://www.w3.org/1999/xlink" x="0px"
	 y="0px" viewBox="0 0 257 18" style="enable-background:new 0 0 257 18;" xml:space="preserve">
<style type="text/css">
	.st0{fill:none;}
	.st1{enable-background:new    ;}
</style>
<path class="st0" d="M0,0"/>
<path class="st0" d="M0,0h257v18H0V0z"/>
<g class="st1">
	<path d="M7,1.4c1.5,0,2.7,0.4,3.7,1.3c0.9,0.9,1.4,2,1.4,3.4c0,1.4-0.5,2.5-1.4,3.4s-2.2,1.3-3.8,1.3h-3v6.8H0.8V1.4H7z M6.2,8.3
		c0.8,0,1.5-0.2,1.9-0.6C8.6,7.3,8.9,6.8,8.9,6c0-1.5-1-2.2-2.9-2.2H3.9v4.5H6.2z"/>
	<path d="M17.7,1.4v6.8H26V1.4h3.1v16.1H26v-6.8h-8.4v6.8h-3.1V1.4H17.7z"/>
	<path d="M41,1.2c1.7,0,3.2,0.3,4.5,1c1.3,0.7,2.4,1.7,3.2,3c0.8,1.3,1.2,2.7,1.2,4.3c0,1.5-0.4,2.9-1.2,4.2c-0.8,1.3-1.8,2.3-3.2,3
		c-1.3,0.7-2.9,1.1-4.6,1.1c-1.7,0-3.2-0.4-4.5-1.1c-1.4-0.7-2.4-1.7-3.2-3c-0.8-1.3-1.1-2.7-1.1-4.2c0-1.5,0.4-2.9,1.1-4.2
		C34,4,35,3,36.3,2.2C37.7,1.5,39.2,1.2,41,1.2z M35.3,9.4c0,1.1,0.2,2,0.7,2.9c0.5,0.9,1.2,1.5,2,2c0.9,0.5,1.8,0.7,2.9,0.7
		c1.7,0,3-0.5,4.1-1.6c1.1-1,1.6-2.4,1.6-4c0-1.1-0.2-2-0.7-2.9c-0.5-0.9-1.2-1.5-2-2C43,4.1,42,3.8,40.9,3.8
		c-1.1,0-2.1,0.2-2.9,0.7s-1.5,1.1-2,2C35.5,7.4,35.3,8.4,35.3,9.4z"/>
	<path d="M65.2,1.4v2.4h-5.7v13.7h-3.1V3.8h-5.7V1.4H65.2z"/>
	<path d="M74.8,1.2c1.7,0,3.2,0.3,4.5,1c1.3,0.7,2.4,1.7,3.2,3c0.8,1.3,1.2,2.7,1.2,4.3c0,1.5-0.4,2.9-1.2,4.2
		c-0.8,1.3-1.8,2.3-3.2,3c-1.3,0.7-2.9,1.1-4.6,1.1c-1.7,0-3.2-0.4-4.5-1.1c-1.4-0.7-2.4-1.7-3.2-3c-0.8-1.3-1.1-2.7-1.1-4.2
		c0-1.5,0.4-2.9,1.1-4.2c0.8-1.3,1.8-2.3,3.1-3C71.6,1.5,73.1,1.2,74.8,1.2z M69.2,9.4c0,1.1,0.2,2,0.7,2.9c0.5,0.9,1.2,1.5,2,2
		c0.9,0.5,1.8,0.7,2.9,0.7c1.7,0,3-0.5,4.1-1.6c1.1-1,1.6-2.4,1.6-4c0-1.1-0.2-2-0.7-2.9c-0.5-0.9-1.2-1.5-2-2
		c-0.9-0.5-1.9-0.7-2.9-0.7c-1.1,0-2.1,0.2-2.9,0.7s-1.5,1.1-2,2C69.4,7.4,69.2,8.4,69.2,9.4z"/>
	<path d="M101.7,1.2c0.9,0,1.8,0.1,2.7,0.3c0.9,0.2,1.8,0.6,2.8,1.1v2.9c-1-0.6-1.9-1-2.8-1.2s-1.7-0.4-2.6-0.4
		c-1.1,0-2.2,0.2-3.1,0.7c-0.9,0.5-1.6,1.1-2.1,2c-0.5,0.9-0.8,1.8-0.8,2.9c0,1.1,0.3,2,0.8,2.9c0.5,0.9,1.2,1.5,2.1,2
		c0.9,0.5,2,0.7,3.1,0.7c0.9,0,1.7-0.1,2.5-0.4c0.8-0.3,1.8-0.7,3-1.4v2.9c-1,0.5-2,0.9-2.9,1.2c-0.9,0.2-1.9,0.3-3.1,0.3
		c-1.7,0-3.2-0.3-4.6-1c-1.3-0.7-2.4-1.7-3.2-2.9c-0.8-1.3-1.1-2.7-1.1-4.2c0-1.6,0.4-3.1,1.2-4.4c0.8-1.3,1.9-2.3,3.3-3
		C98.4,1.5,99.9,1.2,101.7,1.2z"/>
	<path d="M118.3,1.2c1.7,0,3.2,0.3,4.5,1c1.3,0.7,2.4,1.7,3.2,3c0.8,1.3,1.2,2.7,1.2,4.3c0,1.5-0.4,2.9-1.2,4.2
		c-0.8,1.3-1.8,2.3-3.2,3c-1.3,0.7-2.9,1.1-4.6,1.1c-1.7,0-3.2-0.4-4.5-1.1c-1.4-0.7-2.4-1.7-3.2-3c-0.8-1.3-1.1-2.7-1.1-4.2
		c0-1.5,0.4-2.9,1.1-4.2c0.8-1.3,1.8-2.3,3.1-3C115.1,1.5,116.6,1.2,118.3,1.2z M112.7,9.4c0,1.1,0.2,2,0.7,2.9c0.5,0.9,1.2,1.5,2,2
		c0.9,0.5,1.8,0.7,2.9,0.7c1.7,0,3-0.5,4.1-1.6c1.1-1,1.6-2.4,1.6-4c0-1.1-0.2-2-0.7-2.9c-0.5-0.9-1.2-1.5-2-2
		c-0.9-0.5-1.9-0.7-2.9-0.7c-1.1,0-2.1,0.2-2.9,0.7s-1.5,1.1-2,2C112.9,7.4,112.7,8.4,112.7,9.4z"/>
	<path d="M132.9,1.4l9.6,11.2V1.4h3v16.1h-2.7L133.2,6v11.4h-3V1.4H132.9z"/>
	<path d="M162.4,1.4v2.4h-5.7v13.7h-3.1V3.8h-5.7V1.4H162.4z"/>
	<path d="M175.2,1.4v2.4h-7.3V8h7v2.4h-7V15h7.5v2.4h-10.6V1.4H175.2z"/>
	<path d="M182.9,1.2c1.6,0,3.1,0.4,4.5,1.2v2.8c-1.7-1-3.1-1.5-4.4-1.5c-0.8,0-1.4,0.2-1.8,0.5c-0.4,0.3-0.7,0.7-0.7,1.2
		c0,0.6,0.4,1.2,1.2,1.7c0.2,0.2,1.1,0.6,2.7,1.3c1.3,0.6,2.3,1.3,2.9,2.1s0.9,1.7,0.9,2.7c0,1.4-0.5,2.5-1.5,3.3s-2.3,1.3-3.9,1.3
		c-1,0-1.9-0.1-2.7-0.3s-1.6-0.6-2.5-1.2v-3.1c1.7,1.4,3.3,2.1,4.9,2.1c0.8,0,1.4-0.2,1.8-0.5c0.5-0.3,0.7-0.8,0.7-1.3
		c0-0.7-0.4-1.4-1.2-1.8c-0.7-0.4-1.5-0.8-2.6-1.3c-1.3-0.6-2.2-1.2-2.8-2s-0.9-1.7-0.9-2.7c0-1.4,0.5-2.4,1.5-3.2
		C179.9,1.6,181.3,1.2,182.9,1.2z"/>
	<path d="M203.7,1.4v2.4H198v13.7h-3.1V3.8h-5.7V1.4H203.7z"/>
</g>
<text transform="matrix(1 0 0 1 -0.9995 42.4746)" style="font-family:'GillSans-SemiBold'; font-size:23.6134px;">PHOTO CONTEST</text>
</svg>
