<?xml version="1.0" encoding="utf-8"?>
<!-- Generator: Adobe Illustrator 26.0.2, SVG Export Plug-In . SVG Version: 6.00 Build 0)  -->
<svg version="1.1" id="レイヤー_1" xmlns="http://www.w3.org/2000/svg" xmlns:xlink="http://www.w3.org/1999/xlink" x="0px"
	 y="0px" viewBox="0 0 123 18" style="enable-background:new 0 0 123 18;" xml:space="preserve">
<style type="text/css">
	.st0{fill:none;}
	.st1{enable-background:new    ;}
</style>
<path class="st0" d="M0,0"/>
<path class="st0" d="M0,0h123v18H0V0z"/>
<g class="st1">
	<path d="M8.9,1.4l7.1,16.1h-3.3l-1.7-3.9H3.9l-1.6,3.9h-3.3L5.8,1.4H8.9z M4.9,11.2h5.2L7.4,4.8L4.9,11.2z"/>
	<path d="M25.7,1.2c0.9,0,1.8,0.1,2.7,0.3c0.9,0.2,1.8,0.6,2.8,1.1v2.9c-1-0.6-1.9-1-2.8-1.2s-1.7-0.4-2.6-0.4
		c-1.1,0-2.2,0.2-3.1,0.7c-0.9,0.5-1.6,1.1-2.1,2c-0.5,0.9-0.8,1.8-0.8,2.9c0,1.1,0.3,2,0.8,2.9c0.5,0.9,1.2,1.5,2.1,2
		c0.9,0.5,2,0.7,3.1,0.7c0.9,0,1.7-0.1,2.5-0.4c0.8-0.3,1.8-0.7,3-1.4v2.9c-1,0.5-2,0.9-2.9,1.2c-0.9,0.2-1.9,0.3-3.1,0.3
		c-1.7,0-3.2-0.3-4.6-1c-1.3-0.7-2.4-1.7-3.2-2.9c-0.8-1.3-1.1-2.7-1.1-4.2c0-1.6,0.4-3.1,1.2-4.4c0.8-1.3,1.9-2.3,3.3-3
		C22.4,1.5,24,1.2,25.7,1.2z"/>
	<path d="M42.6,1.2c0.9,0,1.8,0.1,2.7,0.3c0.9,0.2,1.8,0.6,2.8,1.1v2.9c-1-0.6-1.9-1-2.8-1.2s-1.7-0.4-2.6-0.4
		c-1.1,0-2.2,0.2-3.1,0.7c-0.9,0.5-1.6,1.1-2.1,2c-0.5,0.9-0.8,1.8-0.8,2.9c0,1.1,0.3,2,0.8,2.9c0.5,0.9,1.2,1.5,2.1,2
		c0.9,0.5,2,0.7,3.1,0.7c0.9,0,1.7-0.1,2.5-0.4c0.8-0.3,1.8-0.7,3-1.4v2.9c-1,0.5-2,0.9-2.9,1.2c-0.9,0.2-1.9,0.3-3.1,0.3
		c-1.7,0-3.2-0.3-4.6-1c-1.3-0.7-2.4-1.7-3.2-2.9c-0.8-1.3-1.1-2.7-1.1-4.2c0-1.6,0.4-3.1,1.2-4.4c0.8-1.3,1.9-2.3,3.3-3
		C39.3,1.5,40.9,1.2,42.6,1.2z"/>
	<path d="M61.7,1.4v2.4h-7.3V8h7v2.4h-7V15h7.5v2.4H51.3V1.4H61.7z"/>
	<path d="M69.4,1.2c1.6,0,3.1,0.4,4.5,1.2v2.8c-1.7-1-3.1-1.5-4.4-1.5c-0.8,0-1.4,0.2-1.8,0.5C67.2,4.4,67,4.8,67,5.3
		c0,0.6,0.4,1.2,1.2,1.7c0.2,0.2,1.1,0.6,2.7,1.3c1.3,0.6,2.3,1.3,2.9,2.1s0.9,1.7,0.9,2.7c0,1.4-0.5,2.5-1.5,3.3
		c-1,0.8-2.3,1.3-3.9,1.3c-1,0-1.9-0.1-2.7-0.3c-0.7-0.2-1.6-0.6-2.5-1.2v-3.1c1.7,1.4,3.3,2.1,4.9,2.1c0.8,0,1.4-0.2,1.8-0.5
		c0.5-0.3,0.7-0.8,0.7-1.3c0-0.7-0.4-1.4-1.2-1.8c-0.7-0.4-1.5-0.8-2.6-1.3c-1.3-0.6-2.2-1.2-2.8-2s-0.9-1.7-0.9-2.7
		c0-1.4,0.5-2.4,1.5-3.2C66.4,1.6,67.8,1.2,69.4,1.2z"/>
	<path d="M82,1.2c1.6,0,3.1,0.4,4.5,1.2v2.8c-1.7-1-3.1-1.5-4.4-1.5c-0.8,0-1.4,0.2-1.8,0.5c-0.4,0.3-0.7,0.7-0.7,1.2
		c0,0.6,0.4,1.2,1.2,1.7c0.2,0.2,1.1,0.6,2.7,1.3c1.3,0.6,2.3,1.3,2.9,2.1s0.9,1.7,0.9,2.7c0,1.4-0.5,2.5-1.5,3.3
		c-1,0.8-2.3,1.3-3.9,1.3c-1,0-1.9-0.1-2.7-0.3s-1.6-0.6-2.5-1.2v-3.1c1.7,1.4,3.3,2.1,4.9,2.1c0.8,0,1.4-0.2,1.8-0.5
		c0.5-0.3,0.7-0.8,0.7-1.3c0-0.7-0.4-1.4-1.2-1.8c-0.7-0.4-1.5-0.8-2.6-1.3c-1.3-0.6-2.2-1.2-2.8-2c-0.6-0.8-0.9-1.7-0.9-2.7
		c0-1.4,0.5-2.4,1.5-3.2C79,1.6,80.4,1.2,82,1.2z"/>
</g>
<text transform="matrix(1 0 0 1 -0.9995 44.4746)" style="font-family:'GillSans-SemiBold'; font-size:23.6134px;">ACCESS</text>
</svg>
