<?xml version="1.0" encoding="utf-8"?>
<!-- Generator: Adobe Illustrator 26.0.2, SVG Export Plug-In . SVG Version: 6.00 Build 0)  -->
<svg version="1.1" id="レイヤー_1" xmlns="http://www.w3.org/2000/svg" xmlns:xlink="http://www.w3.org/1999/xlink" x="0px"
	 y="0px" viewBox="0 0 258 18" style="enable-background:new 0 0 258 18;" xml:space="preserve">
<style type="text/css">
	.st0{fill:none;}
	.st1{enable-background:new    ;}
</style>
<path class="st0" d="M0,0h258v18H0V0z"/>
<path class="st0" d="M0,0"/>
<g class="st1">
	<path d="M9.2,1.2c0.9,0,1.8,0.1,2.7,0.3c0.9,0.2,1.8,0.6,2.8,1.1v2.9c-1-0.6-1.9-1-2.8-1.2s-1.7-0.4-2.6-0.4
		c-1.1,0-2.2,0.2-3.1,0.7C5.3,5,4.6,5.7,4.1,6.6C3.6,7.4,3.3,8.4,3.3,9.4c0,1.1,0.3,2,0.8,2.9c0.5,0.9,1.2,1.5,2.1,2
		c0.9,0.5,2,0.7,3.1,0.7c0.9,0,1.7-0.1,2.5-0.4c0.8-0.3,1.8-0.7,3-1.4v2.9c-1,0.5-2,0.9-2.9,1.2c-0.9,0.2-1.9,0.3-3.1,0.3
		c-1.7,0-3.2-0.3-4.6-1C3.1,16,2,15,1.3,13.7c-0.8-1.3-1.1-2.7-1.1-4.2c0-1.6,0.4-3.1,1.2-4.4c0.8-1.3,1.9-2.3,3.3-3
		C5.9,1.5,7.5,1.2,9.2,1.2z"/>
	<path d="M25.9,1.2c1.7,0,3.2,0.3,4.5,1c1.3,0.7,2.4,1.7,3.2,3c0.8,1.3,1.2,2.7,1.2,4.3c0,1.5-0.4,2.9-1.2,4.2
		c-0.8,1.3-1.8,2.3-3.2,3c-1.3,0.7-2.9,1.1-4.6,1.1c-1.7,0-3.2-0.4-4.5-1.1c-1.4-0.7-2.4-1.7-3.2-3C17.4,12.4,17,11,17,9.4
		c0-1.5,0.4-2.9,1.1-4.2C18.9,4,20,3,21.3,2.2C22.6,1.5,24.2,1.2,25.9,1.2z M20.2,9.4c0,1.1,0.2,2,0.7,2.9c0.5,0.9,1.2,1.5,2,2
		c0.9,0.5,1.8,0.7,2.9,0.7c1.7,0,3-0.5,4.1-1.6c1.1-1,1.6-2.4,1.6-4c0-1.1-0.2-2-0.7-2.9c-0.5-0.9-1.2-1.5-2-2
		C28,4.1,27,3.8,25.9,3.8c-1.1,0-2.1,0.2-2.9,0.7s-1.5,1.1-2,2C20.5,7.4,20.2,8.4,20.2,9.4z"/>
	<path d="M40.8,1.4V15h7.8v2.4H37.7V1.4H40.8z"/>
	<path d="M53.9,1.4V15h7.8v2.4H50.8V1.4H53.9z"/>
	<path d="M72,1.4l7.1,16.1h-3.3l-1.7-3.9H67l-1.6,3.9h-3.3l6.6-16.1H72z M67.9,11.2h5.2l-2.7-6.4L67.9,11.2z"/>
	<path d="M86.9,1.4c1.5,0,2.7,0.4,3.6,1.2c0.9,0.8,1.4,1.7,1.4,2.9c0,0.7-0.2,1.4-0.6,1.9c-0.4,0.6-1,1-1.7,1.3v0.1
		c1.1,0.3,2,0.8,2.6,1.5c0.6,0.7,0.9,1.6,0.9,2.6c0,0.9-0.2,1.7-0.7,2.4c-0.5,0.7-1.1,1.2-1.9,1.6s-1.8,0.5-2.9,0.5H81V1.4H86.9z
		 M86.1,8.1c0.8,0,1.5-0.2,1.9-0.6c0.5-0.4,0.7-0.9,0.7-1.6c0-0.6-0.2-1.1-0.7-1.5s-1-0.5-1.7-0.5h-2.2v4.3H86.1z M86.8,15
		c1.1,0,1.8-0.2,2.4-0.6c0.5-0.4,0.8-1,0.8-1.7c0-0.7-0.3-1.2-0.8-1.6c-0.5-0.4-1.3-0.6-2.2-0.6h-2.9V15H86.8z"/>
	<path d="M104.1,1.2c1.7,0,3.2,0.3,4.5,1c1.3,0.7,2.4,1.7,3.2,3c0.8,1.3,1.2,2.7,1.2,4.3c0,1.5-0.4,2.9-1.2,4.2
		c-0.8,1.3-1.8,2.3-3.2,3c-1.3,0.7-2.9,1.1-4.6,1.1c-1.7,0-3.2-0.4-4.5-1.1c-1.4-0.7-2.4-1.7-3.2-3c-0.8-1.3-1.1-2.7-1.1-4.2
		c0-1.5,0.4-2.9,1.1-4.2c0.8-1.3,1.8-2.3,3.1-3C100.8,1.5,102.4,1.2,104.1,1.2z M98.4,9.4c0,1.1,0.2,2,0.7,2.9c0.5,0.9,1.2,1.5,2,2
		c0.9,0.5,1.8,0.7,2.9,0.7c1.7,0,3-0.5,4.1-1.6c1.1-1,1.6-2.4,1.6-4c0-1.1-0.2-2-0.7-2.9c-0.5-0.9-1.2-1.5-2-2
		c-0.9-0.5-1.9-0.7-2.9-0.7c-1.1,0-2.1,0.2-2.9,0.7s-1.5,1.1-2,2C98.6,7.4,98.4,8.4,98.4,9.4z"/>
	<path d="M121.7,1.4c1.5,0,2.7,0.4,3.7,1.3s1.4,1.9,1.4,3.3c0,0.9-0.2,1.7-0.7,2.4s-1.2,1.2-2.1,1.6c0.5,0.3,1,0.7,1.4,1.1
		c0.4,0.5,0.9,1.3,1.5,2.4c1,2,1.7,3.3,2.2,4h-3.5c-0.2-0.4-0.6-0.9-1-1.7c-0.9-1.7-1.5-2.9-2-3.5c-0.4-0.6-0.8-1-1.2-1.3
		c-0.4-0.2-0.8-0.4-1.3-0.4H119v6.8h-3.1V1.4H121.7z M121,8.2c0.8,0,1.5-0.2,1.9-0.6c0.5-0.4,0.7-1,0.7-1.7c0-0.7-0.2-1.3-0.7-1.7
		s-1.1-0.5-2-0.5H119v4.5H121z"/>
	<path d="M139.3,1.4l7.1,16.1h-3.3l-1.7-3.9h-7.2l-1.6,3.9h-3.3l6.6-16.1H139.3z M135.2,11.2h5.2l-2.7-6.4L135.2,11.2z"/>
	<path d="M159.7,1.4v2.4H154v13.7h-3.1V3.8h-5.7V1.4H159.7z"/>
	<path d="M165.3,1.4v16.1h-3.1V1.4H165.3z"/>
	<path d="M177.2,1.2c1.7,0,3.2,0.3,4.5,1c1.3,0.7,2.4,1.7,3.2,3c0.8,1.3,1.2,2.7,1.2,4.3c0,1.5-0.4,2.9-1.2,4.2
		c-0.8,1.3-1.8,2.3-3.2,3c-1.3,0.7-2.9,1.1-4.6,1.1c-1.7,0-3.2-0.4-4.5-1.1c-1.4-0.7-2.4-1.7-3.2-3c-0.8-1.3-1.1-2.7-1.1-4.2
		c0-1.5,0.4-2.9,1.1-4.2c0.8-1.3,1.8-2.3,3.1-3C173.9,1.5,175.4,1.2,177.2,1.2z M171.5,9.4c0,1.1,0.2,2,0.7,2.9c0.5,0.9,1.2,1.5,2,2
		c0.9,0.5,1.8,0.7,2.9,0.7c1.7,0,3-0.5,4.1-1.6c1.1-1,1.6-2.4,1.6-4c0-1.1-0.2-2-0.7-2.9c-0.5-0.9-1.2-1.5-2-2
		c-0.9-0.5-1.9-0.7-2.9-0.7s-2.1,0.2-2.9,0.7s-1.5,1.1-2,2C171.7,7.4,171.5,8.4,171.5,9.4z"/>
	<path d="M191.7,1.4l9.6,11.2V1.4h3v16.1h-2.7L192,6v11.4h-3V1.4H191.7z"/>
</g>
<text transform="matrix(1 0 0 1 -0.9995 59.4746)" style="font-family:'GillSans-SemiBold'; font-size:23.6134px;">COLLABORATION</text>
</svg>
