<svg xmlns="http://www.w3.org/2000/svg" width="242" height="22"><path d="M6.414.96c-.413 0-.621.254-.621.76a2.293 2.293 0 00.062.48 7.59 7.59 0 00.311.92l4.428 11.12h.082l4.387-11.28a6.1 6.1 0 00.27-.78 2.03 2.03 0 00.062-.46c0-.506-.181-.76-.538-.76V.24h7.076v.72a.447.447 0 00-.413.2.819.819 0 00-.125.44 4.14 4.14 0 00.414 1.36l4.429 11.28h.082l4.47-11.52a2.532 2.532 0 00.29-1.08.674.674 0 00-.207-.46.663.663 0 00-.5-.22V.24h6.125v.72a.728.728 0 00-.683.48q-.226.48-.517 1.2l-5.96 15.28-.434 1.12a2.328 2.328 0 00-.187.8.715.715 0 00.207.5.757.757 0 00.58.22v.72h-6.539v-.72a2.535 2.535 0 00.517-.24.489.489 0 00.269-.44 2.151 2.151 0 00-.144-.72q-.146-.4-.477-1.12l-4.758-11.8h-.083L13.778 17.8a7.939 7.939 0 00-.621 1.96.737.737 0 00.538.8v.72H7.28v-.72a1.133 1.133 0 00.5-.12.412.412 0 00.248-.4 1.834 1.834 0 00-.145-.68c-.1-.24-.2-.493-.31-.76L.951 2.08a4.34 4.34 0 00-.352-.74.858.858 0 00-.6-.38V.24h6.414zM51.813 0a17.163 17.163 0 014.636.66 14.616 14.616 0 014.3 1.98 10.863 10.863 0 013.187 3.34 9.825 9.825 0 010 9.56 10.85 10.85 0 01-3.187 3.34 13.539 13.539 0 01-4.3 1.92 18.207 18.207 0 01-9.271 0 13.532 13.532 0 01-4.3-1.92 10.861 10.861 0 01-3.187-3.34 9.825 9.825 0 010-9.56 10.874 10.874 0 013.187-3.34 14.607 14.607 0 014.3-1.98A17.15 17.15 0 0151.813 0zm0 3.68a10.72 10.72 0 00-3.145.48 9.714 9.714 0 00-2.834 1.38 7.238 7.238 0 00-2.049 2.22 6.117 6.117 0 000 6 7.24 7.24 0 002.049 2.22 9.714 9.714 0 002.834 1.38 10.547 10.547 0 006.291 0 9.75 9.75 0 002.834-1.38 7.276 7.276 0 002.049-2.22 6.117 6.117 0 000-6 7.274 7.274 0 00-2.049-2.22 9.75 9.75 0 00-2.834-1.38 10.731 10.731 0 00-3.146-.48zM83.307.24a17.5 17.5 0 013.6.34 8.3 8.3 0 012.772 1.08 5.025 5.025 0 011.779 1.92 6.159 6.159 0 01.622 2.9 5.055 5.055 0 01-1.615 4.04 8.812 8.812 0 01-4.345 1.88l5.5 7.6a1.111 1.111 0 00.682.48 3.6 3.6 0 00.725.08v.72h-7.74v-.72a1.57 1.57 0 00.642-.12c.179-.08.269-.186.269-.32a.9.9 0 00-.165-.46 12.091 12.091 0 00-.5-.7l-4.552-6.24h-5.919v7.12a.608.608 0 00.269.54 1.867 1.867 0 00.973.18v.72h-7.16v-.72q1.2 0 1.2-.72V1.68q0-.72-1.2-.72V.24zM82.231 9.6a11.711 11.711 0 002.483-.22 4.486 4.486 0 001.573-.62 2.345 2.345 0 00.828-.94 2.931 2.931 0 000-2.36 2.352 2.352 0 00-.828-.94 4.509 4.509 0 00-1.573-.62 11.785 11.785 0 00-2.483-.22h-7.16V9.6zm20.899 10.24a.624.624 0 00.248.54.963.963 0 00.581.18v.72h-6.457v-.72q.91 0 .911-.72V1.68q0-.72-.911-.72V.24h6.457v.72a.964.964 0 00-.581.18.625.625 0 00-.248.54v7.6l8.567-6.52c.387-.32.689-.58.911-.78s.331-.366.331-.5a.441.441 0 00-.187-.4.782.782 0 00-.434-.12V.24h8.691v.72a2.375 2.375 0 00-1.49.6l-9.518 7.32 8.69 9.72a10.429 10.429 0 001.263 1.18 4.1 4.1 0 001.427.78v.72h-7.656v-.72q.538 0 .538-.28 0-.2-.579-.88l-7.077-7.88-3.477 2.6zm32.611-5.16l.414.2a1.218 1.218 0 00.166.64 2.919 2.919 0 001.138.94 11.726 11.726 0 001.945.82 17.251 17.251 0 002.3.58 12.014 12.014 0 002.151.22q.7 0 1.821-.1a11.165 11.165 0 002.194-.42 6.234 6.234 0 001.862-.88 1.735 1.735 0 00.786-1.48 1.482 1.482 0 00-.723-1.36 5.452 5.452 0 00-1.9-.64 21.32 21.32 0 00-2.689-.26q-1.512-.06-3.083-.18a28.93 28.93 0 01-3.084-.4 8.707 8.707 0 01-2.69-.94 5.269 5.269 0 01-1.9-1.8 5.491 5.491 0 01-.724-2.98 5.4 5.4 0 01.6-2.44 5.976 5.976 0 011.842-2.12 10.307 10.307 0 013.145-1.5 15.391 15.391 0 014.47-.58 19.777 19.777 0 013.808.32q1.612.321 2.793.68t1.986.68a3.818 3.818 0 001.346.32 1.167 1.167 0 00.827-.24l.5.32-2.856 5-.414-.16a2.159 2.159 0 00-.331-.92 3.514 3.514 0 00-1.1-.94 9.762 9.762 0 00-1.8-.82 15.117 15.117 0 00-2.235-.58 12.993 12.993 0 00-4.283-.08 9.127 9.127 0 00-1.759.42 3.9 3.9 0 00-1.3.74 1.462 1.462 0 00-.518 1.14 1.61 1.61 0 00.725 1.44 5.382 5.382 0 001.9.72 18.457 18.457 0 002.691.32q1.509.081 3.083.2a25.987 25.987 0 013.083.42 9.124 9.124 0 012.69.96 4.948 4.948 0 012.628 4.7 5.021 5.021 0 01-1.139 3.4 8 8 0 01-2.835 2.08 13.1 13.1 0 01-3.662 1.02 28.087 28.087 0 01-3.663.26 25.162 25.162 0 01-3.952-.26 15.1 15.1 0 01-2.649-.64 17.762 17.762 0 01-1.675-.68 2.562 2.562 0 00-1.076-.3.693.693 0 00-.539.32l-.58-.32zm43.123-13q0-.72-.91-.72V.24h6.373v.72a.81.81 0 00-.518.18.649.649 0 00-.227.54v18.16a.648.648 0 00.227.54.809.809 0 00.518.18v.72h-6.372v-.72q.909 0 .91-.72v-7.52h-13.326v7.52a.647.647 0 00.227.54.811.811 0 00.518.18v.72h-6.249v-.72q.784 0 .786-.72V1.68q0-.72-.786-.72V.24h6.249v.72a.811.811 0 00-.518.18.647.647 0 00-.227.54v6.8h13.326zM201.501 0a17.163 17.163 0 014.636.66 14.633 14.633 0 014.3 1.98 10.859 10.859 0 013.186 3.34 9.818 9.818 0 010 9.56 10.847 10.847 0 01-3.186 3.34 13.554 13.554 0 01-4.3 1.92 18.2 18.2 0 01-9.27 0 13.537 13.537 0 01-4.305-1.92 10.858 10.858 0 01-3.186-3.34 9.818 9.818 0 010-9.56 10.871 10.871 0 013.186-3.34 14.613 14.613 0 014.305-1.98 17.143 17.143 0 014.634-.66zm0 3.68a10.73 10.73 0 00-3.145.48 9.726 9.726 0 00-2.834 1.38 7.25 7.25 0 00-2.049 2.22 6.117 6.117 0 000 6 7.252 7.252 0 002.049 2.22 9.726 9.726 0 002.834 1.38 10.547 10.547 0 006.291 0 9.755 9.755 0 002.835-1.38 7.288 7.288 0 002.049-2.22 6.117 6.117 0 000-6 7.286 7.286 0 00-2.049-2.22 9.755 9.755 0 00-2.835-1.38 10.731 10.731 0 00-3.146-.48zm17.175 17.6v-.72q1.531 0 1.532-.72V1.68q0-.72-1.532-.72V.24h14.568a11.77 11.77 0 016.249 1.42q2.275 1.419 2.276 4.82t-2.276 4.82a11.759 11.759 0 01-6.249 1.42h-8.319v7.12q0 .72 1.325.72v.72zm15.065-12.24a4.9 4.9 0 002.338-.52 2.627 2.627 0 000-4.08 4.908 4.908 0 00-2.338-.52h-8.816v5.12z" fill="#292929"/><path fill="none" d="M0 0h242v22H0z"/></svg>