<svg xmlns="http://www.w3.org/2000/svg" width="237" height="23"><path fill="none" d="M0 0h237v23H0z"/><path d="M13.367 20.681q0 .72.91.719v.72H7.904v-.72a.813.813 0 00.518-.179.647.647 0 00.227-.54V4.761H1.822a1.441 1.441 0 00-.723.2.8.8 0 00-.352.761H.002v-5.6h.745a.792.792 0 00.352.76 1.425 1.425 0 00.723.2h18.375a1.434 1.434 0 00.725-.2.8.8 0 00.351-.76h.746v5.6h-.746a.8.8 0 00-.351-.761 1.451 1.451 0 00-.725-.2h-6.828zm10.755.72a1.21 1.21 0 00.849-.52 8.4 8.4 0 00.6-1l7.656-15.559q.292-.521.518-.961a1.721 1.721 0 00.227-.759.586.586 0 00-.29-.561 2.573 2.573 0 00-.62-.239v-.72h6.994v.72a3.465 3.465 0 00-.58.22.579.579 0 00-.289.58 1.543 1.543 0 00.145.64q.146.319.434.84l8.609 16.279a1.378 1.378 0 00.558.641 8.476 8.476 0 00.807.4v.72h-7.283v-.72a1 1 0 00.413-.12.383.383 0 00.249-.359 2.445 2.445 0 00-.331-1.041l-1.573-2.959H31.122l-1.49 2.84a3.281 3.281 0 00-.414 1.2c0 .295.262.44.787.44v.72h-5.883zm15.6-7.44l-3.476-7.439-3.891 7.439zM75.03 22.88c0-.4-.131-.626-.392-.68a5.294 5.294 0 00-1.015-.08h-19.7v-.72q1.242 0 1.242-.719V2.521q0-.721-1.242-.72v-.72h7.118v.72c-.773 0-1.158.239-1.158.72V18.44h13.739a1.711 1.711 0 001.015-.279.888.888 0 00.392-.761h.745v5.48zm10.592-2.199a.624.624 0 00.248.54.959.959 0 00.58.179v.72h-6.456v-.72q.909 0 .91-.719V2.521c0-.481-.3-.72-.91-.72v-.72h6.456v.72a.959.959 0 00-.58.179.627.627 0 00-.248.541v7.6l8.566-6.519c.387-.321.69-.58.911-.78s.332-.367.332-.5a.44.44 0 00-.187-.4.786.786 0 00-.435-.12v-.72h8.692v.72a2.378 2.378 0 00-1.49.6l-9.519 7.321 8.69 9.719a10.374 10.374 0 001.263 1.18 4.077 4.077 0 001.428.78v.72h-7.651v-.72c.358 0 .538-.092.538-.28 0-.133-.194-.426-.579-.879l-7.078-7.881-3.476 2.6zm32.613-5.16l.414.2a1.223 1.223 0 00.166.639 2.927 2.927 0 001.138.941 11.857 11.857 0 001.945.819 17.29 17.29 0 002.3.58 11.943 11.943 0 002.152.221q.7 0 1.821-.1a11.075 11.075 0 002.193-.421 6.209 6.209 0 001.863-.879 1.736 1.736 0 00.786-1.481 1.48 1.48 0 00-.724-1.359 5.458 5.458 0 00-1.9-.641 21.5 21.5 0 00-2.69-.26q-1.51-.059-3.083-.179a28.712 28.712 0 01-3.084-.4 8.7 8.7 0 01-2.689-.939 5.263 5.263 0 01-1.9-1.8 5.48 5.48 0 01-.724-2.98 5.4 5.4 0 01.6-2.44 5.979 5.979 0 011.841-2.119 10.3 10.3 0 013.146-1.5 15.387 15.387 0 014.47-.58 19.777 19.777 0 013.807.32q1.612.32 2.793.68t1.986.68a3.83 3.83 0 001.346.32 1.166 1.166 0 00.827-.24l.5.32-2.855 5-.414-.16a2.171 2.171 0 00-.331-.92 3.535 3.535 0 00-1.1-.941 9.806 9.806 0 00-1.8-.819 14.953 14.953 0 00-2.234-.58 13.361 13.361 0 00-2.4-.221 13.1 13.1 0 00-1.883.141 9.092 9.092 0 00-1.759.42 3.9 3.9 0 00-1.3.74 1.465 1.465 0 00-.517 1.14 1.613 1.613 0 00.724 1.44 5.39 5.39 0 001.9.719 18.392 18.392 0 002.69.32q1.51.082 3.083.2a25.774 25.774 0 013.083.421 9.157 9.157 0 012.691.959 4.948 4.948 0 012.627 4.7 5.014 5.014 0 01-1.138 3.4 7.98 7.98 0 01-2.835 2.08 13.046 13.046 0 01-3.662 1.02 28.121 28.121 0 01-3.663.261 25.161 25.161 0 01-3.953-.261 15.017 15.017 0 01-2.648-.639q-1.056-.381-1.676-.68a2.544 2.544 0 00-1.076-.3.7.7 0 00-.538.321l-.58-.321zm43.123-13c0-.481-.3-.72-.91-.72v-.72h6.373v.72a.807.807 0 00-.517.179.647.647 0 00-.228.541v18.16a.645.645 0 00.228.54.807.807 0 00.517.179v.72h-6.373v-.72q.91 0 .91-.719v-7.52h-13.326v7.52a.645.645 0 00.228.54.807.807 0 00.517.179v.72h-6.249v-.72q.787 0 .786-.719V2.521c0-.481-.262-.72-.786-.72v-.72h6.249v.72a.807.807 0 00-.517.179.647.647 0 00-.228.541v6.8h13.326zm23.464-1.68a17.157 17.157 0 014.636.66 14.628 14.628 0 014.3 1.979 10.849 10.849 0 013.186 3.341 9.826 9.826 0 010 9.559 10.838 10.838 0 01-3.186 3.341 13.546 13.546 0 01-4.3 1.92 18.2 18.2 0 01-9.271 0 13.538 13.538 0 01-4.3-1.92 10.842 10.842 0 01-3.187-3.341 9.822 9.822 0 010-9.559 10.852 10.852 0 013.187-3.341 14.619 14.619 0 014.3-1.979 17.161 17.161 0 014.635-.66zm0 3.68a10.714 10.714 0 00-3.145.48 9.72 9.72 0 00-2.834 1.379 7.238 7.238 0 00-2.049 2.221 6.121 6.121 0 000 6 7.248 7.248 0 002.049 2.22 9.72 9.72 0 002.834 1.379 10.526 10.526 0 006.291 0 9.762 9.762 0 002.835-1.379 7.3 7.3 0 002.048-2.22 6.111 6.111 0 000-6 7.287 7.287 0 00-2.048-2.221 9.762 9.762 0 00-2.835-1.379 10.73 10.73 0 00-3.146-.48zm21.728-2.72q-.62 0-.62.76a2.267 2.267 0 00.061.479 7.478 7.478 0 00.311.92l4.428 11.121h.082l4.387-11.28a6.229 6.229 0 00.27-.78 2.03 2.03 0 00.062-.46c0-.507-.18-.76-.538-.76v-.72h7.076v.72a.447.447 0 00-.413.2.813.813 0 00-.125.439 4.125 4.125 0 00.414 1.361l4.429 11.28h.082l4.47-11.52a2.532 2.532 0 00.29-1.081.672.672 0 00-.207-.459.659.659 0 00-.5-.22v-.72h6.125v.72a.727.727 0 00-.684.479c-.151.321-.324.721-.517 1.2l-5.96 15.281-.434 1.119a2.324 2.324 0 00-.187.8.716.716 0 00.207.5.76.76 0 00.58.219v.72H223.1v-.72a2.476 2.476 0 00.517-.239.492.492 0 00.27-.44 2.15 2.15 0 00-.145-.72c-.1-.267-.256-.641-.477-1.121l-4.758-11.8h-.083l-4.511 11.56a7.926 7.926 0 00-.621 1.96.737.737 0 00.538.8v.72h-6.408v-.72a1.137 1.137 0 00.5-.12.413.413 0 00.248-.4 1.834 1.834 0 00-.145-.68c-.1-.24-.2-.492-.31-.76L201.093 2.92a4.269 4.269 0 00-.352-.74.854.854 0 00-.6-.38v-.72h6.414z" fill="#292929"/></svg>