<svg xmlns="http://www.w3.org/2000/svg" width="486" height="14"><path d="M2.88 3.732c-1.239.269-1.647.526-1.022.835.861.424 1.639.32 3.871.384 1.617.046 3.654.013 5.3.022-.382.122-4.358.254-4.721.289a12.9 12.9 0 00-3.254.729c-.05.013-1.6.337-1.6.328a13.792 13.792 0 001.674.511c.917.4 1.957.867 1.875 1.225-.029.128-.367.3-.493.429.7.116.729.225.083.326a1.861 1.861 0 00-.657.22c-.107.251-.318.743 1.66.906 1.41.116 6.022-.017 7.618-.01a14.885 14.885 0 01-1.458.432 3.982 3.982 0 00-2.195.125q-.006-.178-1.1-.258c-1.408.455-5.376.707-2.046 1.237 2.605.414 7.577.253 11.043.261 6.555.014 13.142-.007 19.7-.015l19.1-.024c1.29 0 4.5-.108 5.576-.015 2.052.177.6.44 3.543.516 1.786.046 4.046 0 5.859.007a14.559 14.559 0 01-1.441.426 3.985 3.985 0 00-2.19.126q0-.179-1.1-.26c-1.309.423-5.019.64-2.479 1.157 2.413.491 7.277.338 10.855.336 6.165 0 12.339.026 18.5 0 12.288-.047 24.726-.054 37.016-.017 24.84.072 49.777-.013 74.625-.024 49.5-.023 99.178.111 148.657-.079 13.873-.054 27.916-.06 41.791-.019 6.885.02 14.627.111 21.421-.037 2.888-.063 8.5-.279 9-.777.208-.208-.948-.7-1.3-.9-.791-.457-1.028-.421-4.552-.469 1.988-.491 4.975-.289 3.415-.926a7.468 7.468 0 00-1.553-.473 13.783 13.783 0 00-1.66-.321c12.855.155 25.99.224 38.887.277 6.255.026 13.452.26 19.544.033 3.32-.124 7.242-.281 7.323-.828.029-.183-.588-.778-1.059-.937-.935-.315-2.064-.292-4.577-.326.931-.229 3.652-.261 4.216-.524.469-.219-.8-.52-1.367-.718a31.1 31.1 0 00-6.773-1.132 11.117 11.117 0 001.879-.515 1.208 1.208 0 00.429-.338q1.028 0 1.883-.083c1.484-.234 2.8-.075 2.1-.508-.5-.31-.528-.2-2.872-.36-1.334-.089-2.541-.32-3.8-.383-.659-.033-3.437.044-4.154.041-2.242-.011-4.753-.028-7.156-.053-9.833-.1-20.176-.293-30.117-.258a931.168 931.168 0 01-15.195-.077c-4.724-.063-9.866-.046-14.616-.144-4.726-.1-9.914-.094-14.617-.144-2.467-.027-4.878.083-7.153-.053a19.956 19.956 0 01-2.234-.188 14.869 14.869 0 00-3.408-.5 11.6 11.6 0 002.038-.609c1.848-.507-.444-.066 1.422-.275.566-.063 2.781-.128 3.031-.183-.052.011-.262-.415-.2-.377-.524-.331.919-.027-1.462-.281-1.5-.159-4.676-.39-6.142-.43-2.473-.068-6.181-.037-8.617-.032-3.572.008-7.027 0-10.488.032-12.895.124-26.116.032-39.147.032-25.515 0-51.416-.063-76.933-.064-26.219 0-52.074.006-78.289.064-6.173.013-12.765.035-19.1 0-6.311-.036-13 .044-19.363-.032-12.67-.152-25.827.04-38.467-.032-7.17-.04-14.484 0-21.491 0-7.236 0-14.447-.015-21.493 0-7.533.016-15.019-.04-22.429.032-3.567.034-7.178-.03-10.748 0C7.41.08-2.017.749 2.779 1.147c-5.141-.4-1.658.92-1.222 1.1.584.245 1.548.519 1.588.74.047.277-1.537.449-.265.745z" fill="#fed438" fill-rule="evenodd"/></svg>