<svg xmlns="http://www.w3.org/2000/svg" width="468" height="23"><path d="M20.774 5.28a.729.729 0 00-.351-.66 2.446 2.446 0 00-1.221-.221H5.794V9.36h8.111a4.049 4.049 0 001.283-.16.681.681 0 00.456-.721h.745v5.761h-.745q0-.919-.456-1.181a2.613 2.613 0 00-1.283-.26H5.794v7.76a.58.58 0 00.351.541 1.965 1.965 0 00.89.18V22H0v-.72q1.075 0 1.076-.721V2.399q0-.719-1.076-.719V.96h19.2A2.127 2.127 0 0020.421.7a.828.828 0 00.351-.7h.745v5.28zM37.412.719a17.2 17.2 0 014.636.66 14.6 14.6 0 014.3 1.981 10.858 10.858 0 013.186 3.34 9.826 9.826 0 010 9.559 10.875 10.875 0 01-3.186 3.341 13.575 13.575 0 01-4.3 1.92 18.207 18.207 0 01-9.271 0 13.568 13.568 0 01-4.3-1.92 10.873 10.873 0 01-3.187-3.341 9.823 9.823 0 010-9.559 10.856 10.856 0 013.187-3.34 14.6 14.6 0 014.3-1.981 17.2 17.2 0 014.635-.66zm0 3.68a10.718 10.718 0 00-3.145.48 9.763 9.763 0 00-2.834 1.38 7.265 7.265 0 00-2.049 2.22 6.121 6.121 0 000 6 7.231 7.231 0 002.049 2.221 9.763 9.763 0 002.834 1.38 10.567 10.567 0 006.291 0 9.823 9.823 0 002.835-1.38 7.274 7.274 0 002.048-2.221 6.111 6.111 0 000-6 7.308 7.308 0 00-2.048-2.22 9.823 9.823 0 00-2.835-1.38 10.734 10.734 0 00-3.146-.48zM68.367.719a17.2 17.2 0 014.636.66 14.6 14.6 0 014.3 1.981 10.858 10.858 0 013.186 3.34 9.826 9.826 0 010 9.559 10.875 10.875 0 01-3.186 3.341 13.575 13.575 0 01-4.3 1.92 18.207 18.207 0 01-9.271 0 13.568 13.568 0 01-4.3-1.92 10.867 10.867 0 01-3.187-3.341 9.823 9.823 0 010-9.559 10.85 10.85 0 013.187-3.34 14.6 14.6 0 014.3-1.981 17.2 17.2 0 014.635-.66zm0 3.68a10.718 10.718 0 00-3.145.48 9.757 9.757 0 00-2.834 1.38 7.259 7.259 0 00-2.049 2.22 6.121 6.121 0 000 6 7.225 7.225 0 002.049 2.221 9.757 9.757 0 002.834 1.38 10.567 10.567 0 006.291 0 9.811 9.811 0 002.835-1.38 7.274 7.274 0 002.048-2.221 6.111 6.111 0 000-6 7.308 7.308 0 00-2.048-2.22 9.811 9.811 0 00-2.835-1.38 10.734 10.734 0 00-3.146-.48zM99.199.96a13.61 13.61 0 014.241.64 9.383 9.383 0 013.415 1.94 9 9 0 012.276 3.279 13.525 13.525 0 010 9.32 8.991 8.991 0 01-2.276 3.281 9.4 9.4 0 01-3.415 1.94 13.614 13.614 0 01-4.241.64h-13.74v-.72q.953 0 .952-.721V2.399q0-.719-.952-.719V.96zm-1.655 17.6a15.835 15.835 0 003.393-.319 5.391 5.391 0 002.4-1.14 4.983 4.983 0 001.429-2.18 12.691 12.691 0 000-6.88 4.983 4.983 0 00-1.429-2.18 5.393 5.393 0 00-2.4-1.141 15.91 15.91 0 00-3.393-.32h-6.415v14.16zm49.745.56a1.141 1.141 0 01-.227-.02 1.245 1.245 0 00-.229-.02 3.928 3.928 0 00-1.179.479q-.931.48-2.359 1.08a21.292 21.292 0 01-3.249 1.041 16.173 16.173 0 01-3.807.44 19.3 19.3 0 01-5.008-.641 12.675 12.675 0 01-4.242-1.979 9.884 9.884 0 01-2.918-3.34 10.677 10.677 0 010-9.341 10 10 0 012.918-3.379 13.084 13.084 0 014.242-2.041 18.3 18.3 0 015.008-.68 21.009 21.009 0 013.828.321q1.718.32 3 .679a17.284 17.284 0 012.029.68 3.673 3.673 0 00.91.32.422.422 0 00.351-.2c.1-.134.172-.24.228-.32l.621.48-3.228 4.84-.414-.28a1.375 1.375 0 00-.021-.24 3.592 3.592 0 00-.062-.281c-.055-.293-.331-.592-.828-.9a8.66 8.66 0 00-1.841-.819 19.331 19.331 0 00-2.318-.6 11.822 11.822 0 00-2.255-.239 11.489 11.489 0 00-3.332.479 8.394 8.394 0 00-2.772 1.4 6.926 6.926 0 00-1.884 2.259 7.012 7.012 0 000 6.121 6.92 6.92 0 001.884 2.26 8.392 8.392 0 002.772 1.4 11.522 11.522 0 003.332.479 13.616 13.616 0 002.773-.3 17.176 17.176 0 002.648-.759 8.87 8.87 0 002.007-1.04q.807-.581.808-1.1a.735.735 0 00-.166-.481l.58-.32 2.731 4.24zM165.497.719a17.2 17.2 0 014.636.66 14.6 14.6 0 014.3 1.981 10.858 10.858 0 013.186 3.34 9.823 9.823 0 010 9.559 10.875 10.875 0 01-3.186 3.341 13.575 13.575 0 01-4.3 1.92 18.207 18.207 0 01-9.271 0 13.558 13.558 0 01-4.3-1.92 10.879 10.879 0 01-3.187-3.341 9.823 9.823 0 010-9.559 10.861 10.861 0 013.187-3.34 14.584 14.584 0 014.3-1.981 17.2 17.2 0 014.635-.66zm0 3.68a10.72 10.72 0 00-3.145.48 9.763 9.763 0 00-2.834 1.38 7.257 7.257 0 00-2.049 2.22 6.117 6.117 0 000 6 7.224 7.224 0 002.049 2.221 9.763 9.763 0 002.834 1.38 10.567 10.567 0 006.291 0 9.817 9.817 0 002.835-1.38 7.274 7.274 0 002.048-2.221 6.117 6.117 0 000-6 7.308 7.308 0 00-2.048-2.22 9.817 9.817 0 00-2.835-1.38 10.731 10.731 0 00-3.146-.48zm38.612 18.36c0-.4-.131-.626-.392-.679a5.2 5.2 0 00-1.015-.08h-19.7v-.72q1.242 0 1.242-.721V2.399q0-.719-1.242-.719V.96h7.118v.72q-1.158 0-1.158.719v15.92h13.739a1.708 1.708 0 001.015-.279.887.887 0 00.392-.76h.745v5.479zm26.528 0c0-.4-.131-.626-.393-.679a5.2 5.2 0 00-1.015-.08h-19.7v-.72q1.242 0 1.242-.721V2.399q0-.719-1.242-.719V.96h7.118v.72q-1.158 0-1.158.719v15.92h13.739a1.709 1.709 0 001.015-.279.886.886 0 00.393-.76h.745v5.479zm4.469-1.479a1.215 1.215 0 00.849-.521 8.616 8.616 0 00.6-1L244.211 4.2c.193-.347.365-.666.517-.96a1.715 1.715 0 00.228-.761.584.584 0 00-.29-.559 2.455 2.455 0 00-.62-.24V.96h6.994v.72a3.427 3.427 0 00-.58.219.579.579 0 00-.289.58 1.55 1.55 0 00.144.641q.146.321.435.84l8.608 16.28a1.369 1.369 0 00.559.639 8.374 8.374 0 00.807.4v.72h-7.284v-.72a1 1 0 00.413-.12.384.384 0 00.25-.361 2.449 2.449 0 00-.332-1.04l-1.573-2.96h-10.1l-1.491 2.84a3.314 3.314 0 00-.414 1.2c0 .294.263.441.787.441v.72h-5.877zm15.6-7.441l-3.477-7.44-3.89 7.44zM276.988.96a22.157 22.157 0 013.684.3 11.732 11.732 0 013.144.96 6.084 6.084 0 012.194 1.721 4.127 4.127 0 01.828 2.619 3.6 3.6 0 01-1.2 2.9 8.654 8.654 0 01-2.856 1.58v.08a8.2 8.2 0 013.29 1.779 4.484 4.484 0 011.345 3.5 4.7 4.7 0 01-.538 2.221 5.175 5.175 0 01-1.593 1.779 8.015 8.015 0 01-2.587 1.181 13.154 13.154 0 01-3.476.42h-15.189v-.72q1.159 0 1.159-.721V2.399q0-.719-1.159-.719V.96zm.827 8.24a8.851 8.851 0 003.084-.46 2.151 2.151 0 000-3.88 8.826 8.826 0 00-3.084-.461h-7.9v4.8zm0 9.119a6.848 6.848 0 003.747-.779 2.434 2.434 0 000-4.12 6.828 6.828 0 00-3.747-.781h-7.9v5.68zm26.694-17.6a17.212 17.212 0 014.636.66 14.61 14.61 0 014.3 1.981 10.85 10.85 0 013.187 3.34 9.826 9.826 0 010 9.559 10.867 10.867 0 01-3.187 3.341 13.58 13.58 0 01-4.3 1.92 18.207 18.207 0 01-9.271 0 13.576 13.576 0 01-4.305-1.92 10.875 10.875 0 01-3.186-3.341 9.826 9.826 0 010-9.559 10.858 10.858 0 013.186-3.34 14.6 14.6 0 014.305-1.981 17.186 17.186 0 014.635-.66zm0 3.68a10.734 10.734 0 00-3.146.48 9.781 9.781 0 00-2.834 1.38 7.287 7.287 0 00-2.049 2.22 6.117 6.117 0 000 6 7.253 7.253 0 002.049 2.221 9.781 9.781 0 002.834 1.38 10.567 10.567 0 006.291 0 9.808 9.808 0 002.835-1.38 7.265 7.265 0 002.049-2.221 6.117 6.117 0 000-6 7.3 7.3 0 00-2.049-2.22 9.808 9.808 0 00-2.835-1.38 10.723 10.723 0 00-3.145-.48zM336.003.96a17.56 17.56 0 013.6.339 8.3 8.3 0 012.773 1.08 5.043 5.043 0 011.779 1.92 6.175 6.175 0 01.621 2.9 5.06 5.06 0 01-1.614 4.04 8.831 8.831 0 01-4.346 1.88l5.5 7.6a1.115 1.115 0 00.683.481 3.674 3.674 0 00.724.08V22h-7.739v-.72a1.571 1.571 0 00.642-.12c.179-.08.268-.187.268-.321a.893.893 0 00-.165-.46 11.485 11.485 0 00-.5-.7l-4.551-6.24h-5.919v7.119a.608.608 0 00.269.541 1.877 1.877 0 00.973.18v.72h-7.16v-.72q1.2 0 1.2-.721V2.398q0-.719-1.2-.719v-.72zm-1.076 9.359a11.73 11.73 0 002.483-.219 4.428 4.428 0 001.572-.621 2.346 2.346 0 00.829-.939 2.931 2.931 0 000-2.36 2.336 2.336 0 00-.829-.94 4.449 4.449 0 00-1.572-.62 11.716 11.716 0 00-2.483-.221h-7.16v5.92zm13.947 10.961a1.217 1.217 0 00.849-.521 8.416 8.416 0 00.6-1L357.98 4.2c.193-.347.365-.666.517-.96a1.728 1.728 0 00.228-.761.584.584 0 00-.29-.559 2.476 2.476 0 00-.621-.24V.96h7v.72a3.381 3.381 0 00-.58.219.578.578 0 00-.29.58 1.528 1.528 0 00.145.641c.1.214.241.494.435.84l8.608 16.28a1.364 1.364 0 00.559.639 8.464 8.464 0 00.806.4v.72h-7.283v-.72a1 1 0 00.413-.12.385.385 0 00.249-.361 2.452 2.452 0 00-.331-1.04l-1.573-2.96h-10.1l-1.49 2.84a3.314 3.314 0 00-.414 1.2c0 .294.263.441.787.441v.72h-5.881zm15.6-7.441l-3.477-7.44-3.891 7.44zm23.218 6.72q0 .721.911.721V22h-6.374v-.72a.821.821 0 00.518-.18.653.653 0 00.228-.541V4.639h-6.83a1.454 1.454 0 00-.723.2.8.8 0 00-.352.761h-.745V0h.745a.793.793 0 00.352.759 1.434 1.434 0 00.723.2h18.375a1.439 1.439 0 00.725-.2.8.8 0 00.352-.759h.745v5.6h-.745a.8.8 0 00-.352-.761 1.458 1.458 0 00-.725-.2h-6.828zm12.497.721q1.077 0 1.077-.721V2.399q0-.719-1.077-.719V.96h6.871v.72q-1.077 0-1.077.719v18.16q0 .721 1.077.721V22h-6.871zM425.394.719a17.194 17.194 0 014.635.66 14.593 14.593 0 014.3 1.981 10.861 10.861 0 013.187 3.34 9.823 9.823 0 010 9.559 10.879 10.879 0 01-3.187 3.341 13.566 13.566 0 01-4.3 1.92 18.2 18.2 0 01-9.27 0 13.573 13.573 0 01-4.3-1.92 10.875 10.875 0 01-3.186-3.341 9.816 9.816 0 010-9.559 10.858 10.858 0 013.186-3.34 14.6 14.6 0 014.3-1.981 17.189 17.189 0 014.635-.66zm0 3.68a10.731 10.731 0 00-3.146.48 9.775 9.775 0 00-2.834 1.38 7.269 7.269 0 00-2.049 2.22 6.117 6.117 0 000 6 7.235 7.235 0 002.049 2.221 9.775 9.775 0 002.834 1.38 10.567 10.567 0 006.291 0 9.805 9.805 0 002.835-1.38 7.278 7.278 0 002.049-2.221 6.117 6.117 0 000-6 7.312 7.312 0 00-2.049-2.22 9.805 9.805 0 00-2.835-1.38 10.73 10.73 0 00-3.145-.48zm17.794 16.881q.787 0 .788-.721V2.399q0-.719-.788-.719V.96h7.078v.72c-.221 0-.331.133-.331.4 0 .214.275.587.828 1.12l11.877 11.92V2.399q0-.719-1.077-.719V.96h6.25v.72q-.786 0-.787.719v18.16q0 .721.787.721V22h-6.705v-.72q.538 0 .538-.36 0-.281-.662-.92L448.362 7.28v13.279q0 .721.951.721V22h-6.125z" fill="#292929"/><path fill="none" d="M0 0h468v23H0z"/></svg>