<svg xmlns="http://www.w3.org/2000/svg" width="141" height="23"><path d="M24.294 19.12a1.139 1.139 0 01-.227-.019 1.165 1.165 0 00-.229-.021 3.943 3.943 0 00-1.178.48q-.933.48-2.36 1.08a21.45 21.45 0 01-3.249 1.041 16.168 16.168 0 01-3.807.439 19.287 19.287 0 01-5.007-.64 12.663 12.663 0 01-4.243-1.98 9.851 9.851 0 01-2.917-3.339 10.664 10.664 0 010-9.341 9.984 9.984 0 012.917-3.379A13.087 13.087 0 018.237 1.4a18.285 18.285 0 015.007-.68 21.113 21.113 0 013.829.32q1.716.321 3 .68a17.106 17.106 0 012.028.68 3.694 3.694 0 00.91.32.426.426 0 00.352-.2c.1-.134.172-.24.227-.32l.621.48-3.228 4.84-.413-.28a1.436 1.436 0 00-.022-.241 3.525 3.525 0 00-.061-.28c-.056-.293-.331-.593-.828-.9a8.752 8.752 0 00-1.842-.82 19.55 19.55 0 00-2.318-.6 11.822 11.822 0 00-2.255-.239 11.489 11.489 0 00-3.332.479 8.394 8.394 0 00-2.772 1.4 6.931 6.931 0 00-1.884 2.26 7.01 7.01 0 000 6.12A6.906 6.906 0 007.14 16.68a8.393 8.393 0 002.772 1.4 11.485 11.485 0 003.332.48 13.69 13.69 0 002.773-.3 17 17 0 002.648-.76 8.781 8.781 0 002.007-1.04q.806-.579.808-1.1a.732.732 0 00-.166-.481l.58-.32 2.731 4.24zM41.675.72a17.2 17.2 0 014.636.66 14.607 14.607 0 014.3 1.981 10.86 10.86 0 013.186 3.34 9.826 9.826 0 010 9.559 10.875 10.875 0 01-3.186 3.341 13.6 13.6 0 01-4.3 1.92 18.236 18.236 0 01-9.271 0 13.59 13.59 0 01-4.3-1.92 10.867 10.867 0 01-3.187-3.341 9.823 9.823 0 010-9.559 10.852 10.852 0 013.187-3.34 14.6 14.6 0 014.3-1.981 17.2 17.2 0 014.635-.66zm0 3.68a10.718 10.718 0 00-3.145.48 9.757 9.757 0 00-2.834 1.38 7.257 7.257 0 00-2.049 2.22 6.121 6.121 0 000 6 7.227 7.227 0 002.049 2.221 9.727 9.727 0 002.834 1.379 10.544 10.544 0 006.291 0 9.793 9.793 0 002.835-1.379 7.276 7.276 0 002.048-2.221 6.111 6.111 0 000-6 7.307 7.307 0 00-2.048-2.22 9.823 9.823 0 00-2.835-1.38 10.734 10.734 0 00-3.146-.48zm20.03 11l.414.2a1.233 1.233 0 00.166.64 2.938 2.938 0 001.138.94 11.8 11.8 0 001.945.819 17.189 17.189 0 002.3.58 11.934 11.934 0 002.152.22q.7 0 1.821-.1a11.2 11.2 0 002.193-.42 6.22 6.22 0 001.863-.881 1.732 1.732 0 00.786-1.48 1.48 1.48 0 00-.724-1.36 5.437 5.437 0 00-1.9-.64 21.35 21.35 0 00-2.69-.259q-1.51-.062-3.083-.181a28.946 28.946 0 01-3.084-.4 8.71 8.71 0 01-2.689-.94 5.248 5.248 0 01-1.9-1.8 5.477 5.477 0 01-.724-2.979 5.391 5.391 0 01.6-2.441 5.967 5.967 0 011.841-2.12 10.313 10.313 0 013.146-1.5 15.385 15.385 0 014.47-.58 19.907 19.907 0 013.807.32q1.614.321 2.793.68t1.987.68a3.775 3.775 0 001.345.32 1.166 1.166 0 00.827-.24l.5.32-2.856 5-.414-.16a2.179 2.179 0 00-.331-.92 3.509 3.509 0 00-1.1-.939 9.691 9.691 0 00-1.8-.821 15.072 15.072 0 00-2.234-.58 13.065 13.065 0 00-4.283-.08 9.283 9.283 0 00-1.759.42 3.956 3.956 0 00-1.3.74 1.468 1.468 0 00-.517 1.141 1.61 1.61 0 00.724 1.439 5.352 5.352 0 001.9.72 18.425 18.425 0 002.69.32q1.51.081 3.083.2a25.773 25.773 0 013.083.42 9.062 9.062 0 012.691.96 4.948 4.948 0 012.628 4.7 5.018 5.018 0 01-1.139 3.4 8 8 0 01-2.835 2.08 13.14 13.14 0 01-3.662 1.021 28.082 28.082 0 01-3.663.259 25.167 25.167 0 01-3.952-.259 15.133 15.133 0 01-2.649-.641 17.579 17.579 0 01-1.676-.68 2.552 2.552 0 00-1.076-.3.691.691 0 00-.538.319l-.58-.319zm24.83 5.881a.973.973 0 00.581-.18.628.628 0 00.248-.541V2.32a.524.524 0 00-.248-.5 1.18 1.18 0 00-.581-.139V.96h7.74v.721a.929.929 0 00-.435.119.384.384 0 00-.227.361 1.194 1.194 0 00.166.52c.109.213.233.439.372.68l5.918 10.4 5.96-10.28q.288-.519.434-.819a1.281 1.281 0 00.145-.541c0-.292-.18-.439-.538-.439V.961h7.656v.721a1.168 1.168 0 00-.579.139.523.523 0 00-.249.5v18.24a.626.626 0 00.249.541.964.964 0 00.579.18v.719h-6.5v-.719q1.116 0 1.117-.721V7.282h-.079l-8.318 14.719h-.124L91.668 7.242h-.083v13.319q0 .72 1.159.721v.719h-6.208zm52.766-16a.73.73 0 00-.351-.661 2.459 2.459 0 00-1.221-.22H124.32v4.961h8.112a3.006 3.006 0 001.282-.221c.3-.146.456-.525.456-1.14h.744v6.241h-.744q0-.921-.456-1.181a2.611 2.611 0 00-1.282-.26h-8.112v5.52h13.823a1.7 1.7 0 001.014-.28.886.886 0 00.393-.759h.745v5.479h-.745c0-.4-.132-.626-.393-.68a5.284 5.284 0 00-1.014-.08h-19.285v-.719a.814.814 0 00.516-.18.649.649 0 00.228-.541V2.4a.643.643 0 00-.228-.539.808.808 0 00-.516-.18V.96h18.871a2.136 2.136 0 001.221-.259.829.829 0 00.351-.7h.745v5.281z" fill="#292929"/><path fill="none" d="M0 0h141v23H0z"/></svg>