<svg xmlns="http://www.w3.org/2000/svg" width="268" height="52.999"><path d="M1.588 42.731c-.683.269-.908.526-.564.835.475.424.9.32 2.135.384.891.046 2.015.013 2.924.022-.211.122-2.4.254-2.6.289a4.662 4.662 0 00-1.794.729c-.027.013-.882.337-.88.328-.023.1.775.394.923.511.505.4 1.079.867 1.034 1.225-.016.128-.2.3-.272.429q.579.173.046.326a.8.8 0 00-.362.22c-.059.251-.175.743.915.906.778.116 3.321-.017 4.2-.01a5.849 5.849 0 01-.8.432c-.449-.3-.861.026-1.21.125q0-.178-.607-.258c-.776.455-2.965.707-1.128 1.237 1.437.414 4.178.253 6.09.261 3.615.014 7.247-.007 10.863-.015l10.535-.024c.712 0 2.48-.108 3.075-.015 1.132.177.331.44 1.954.516.985.046 2.231 0 3.231.007a5.717 5.717 0 01-.795.426c-.451-.3-.86.027-1.208.126q0-.179-.608-.26c-.722.423-2.768.64-1.367 1.157 1.331.491 4.013.338 5.986.336 3.4 0 6.8.026 10.2 0 6.776-.047 13.635-.054 20.412-.017 13.7.072 27.449-.013 41.151-.024 27.3-.023 54.691.111 81.975-.079 7.65-.054 15.394-.06 23.045-.019 3.8.02 8.066.111 11.812-.037 1.593-.063 4.686-.279 4.962-.777.115-.208-.523-.7-.719-.9-.436-.457-.567-.421-2.51-.469 1.1-.491 2.744-.289 1.883-.926a3 3 0 00-.856-.473 4.747 4.747 0 00-.915-.321c7.089.155 14.332.224 21.444.277 3.449.026 7.418.26 10.778.033 1.831-.124 3.994-.281 4.038-.828a1.681 1.681 0 00-.584-.937 5.291 5.291 0 00-2.524-.326c.513-.229 2.014-.261 2.325-.524.258-.219-.442-.52-.754-.718a10.482 10.482 0 00-3.735-1.132 4.256 4.256 0 001.036-.515.957.957 0 00.237-.338 6.592 6.592 0 001.038-.083c.819-.234 1.542-.075 1.157-.508-.275-.31-.291-.2-1.584-.36-.735-.089-1.4-.32-2.094-.383-.363-.033-1.9.044-2.29.041a405.342 405.342 0 01-3.946-.053c-5.422-.1-11.126-.293-16.608-.258-2.7.017-5.646-.011-8.379-.077-2.6-.063-5.441-.046-8.06-.144s-5.467-.094-8.06-.144c-1.36-.027-2.69.083-3.945-.053a6.231 6.231 0 01-1.232-.188c-.766-.178-.584-.438-1.88-.5a4.6 4.6 0 001.124-.609c1.019-.507-.245-.066.784-.275.312-.063 1.533-.128 1.671-.183a1.006 1.006 0 01-.112-.377c-.289-.331.507-.027-.806-.281a33.669 33.669 0 00-3.387-.43c-1.364-.068-3.408-.037-4.752-.032-1.97.008-3.875 0-5.783.032-7.111.124-14.4.032-21.587.032-14.07 0-28.353-.063-42.424-.064-14.458 0-28.716.006-43.172.064-3.4.013-7.039.035-10.535 0-3.48-.036-7.171.044-10.677-.032-6.987-.152-14.242.04-21.212-.032-3.954-.04-7.987 0-11.851 0-3.99 0-7.967-.015-11.852 0-4.154.016-8.282-.04-12.368.032-1.967.034-3.958-.03-5.927 0-1.167.018-6.365.687-3.72 1.085-2.835-.4-.914.92-.674 1.1.322.245.854.519.875.74.023.277-.85.449-.149.745zm63.599-31c-.335.269-.445.526-.276.835.233.424.443.32 1.046.384.437.046.988.013 1.433.022a6.729 6.729 0 01-1.276.289c-.5.178-.618.467-.879.729a10.82 10.82 0 01-.431.328c-.011.1.38.394.453.511a2.534 2.534 0 01.507 1.225 2.834 2.834 0 01-.133.429q.284.173.022.326a.5.5 0 00-.177.22c-.029.251-.086.743.449.906a13.015 13.015 0 002.059-.01 3.146 3.146 0 01-.394.432c-.22-.3-.422.026-.593.125q0-.178-.3-.258c-.381.455-1.453.707-.553 1.237.7.414 2.048.253 2.985.261 1.772.014 3.552-.007 5.325-.015l5.164-.024a8.032 8.032 0 011.507-.015c.555.177.162.44.958.516.483.046 1.094 0 1.584.007a3.071 3.071 0 01-.39.426c-.221-.3-.421.027-.592.126q0-.179-.3-.26c-.354.423-1.357.64-.67 1.157.652.491 1.967.338 2.934.336 1.666 0 3.335.026 5 0 3.321-.047 6.683-.054 10.005-.017 6.714.072 13.455-.013 20.171-.024 13.38-.023 26.807.111 40.182-.079 3.75-.054 7.546-.06 11.3-.019 1.861.02 3.954.111 5.79-.037.781-.063 2.3-.279 2.432-.777.056-.208-.256-.7-.353-.9-.214-.457-.278-.421-1.23-.469.537-.491 1.345-.289.923-.926a1.67 1.67 0 00-.42-.473 1.806 1.806 0 00-.449-.321c3.475.155 7.025.224 10.511.277a36.911 36.911 0 005.283.033c.9-.124 1.958-.281 1.979-.828a2.372 2.372 0 00-.286-.937c-.253-.315-.558-.292-1.237-.326.252-.229.987-.261 1.139-.524.127-.219-.217-.52-.369-.718a3.7 3.7 0 00-1.831-1.132 2.145 2.145 0 00.508-.515 1.266 1.266 0 00.116-.338 1.641 1.641 0 00.509-.083c.4-.234.756-.075.567-.508-.135-.31-.143-.2-.776-.36-.361-.089-.687-.32-1.026-.383-.178-.033-.929.044-1.123.041a97.325 97.325 0 01-1.934-.053c-2.658-.1-5.454-.293-8.14-.258a68.083 68.083 0 01-4.107-.077c-1.277-.063-2.667-.046-3.951-.144s-2.68-.094-3.951-.144a11.319 11.319 0 01-1.934-.053 1.677 1.677 0 01-.6-.188c-.376-.178-.286-.438-.921-.5.316-.2.34-.394.551-.609.5-.507-.12-.066.384-.275.153-.063.752-.128.819-.183a1.859 1.859 0 01-.055-.377c-.142-.331.248-.027-.4-.281a8.72 8.72 0 00-1.66-.43c-.668-.068-1.671-.037-2.329-.032-.965.008-1.9 0-2.835.032-3.485.124-7.059.032-10.581.032-6.9 0-13.9-.063-20.795-.064-7.087 0-14.076.006-21.161.064-1.668.013-3.45.035-5.164 0s-3.515.044-5.234-.032c-3.425-.152-6.981.04-10.4-.032-1.938-.04-3.915 0-5.809 0-1.956 0-3.905-.015-5.81 0-2.036.016-4.06-.04-6.062.032-.964.034-1.94-.03-2.905 0-.572.018-3.12.687-1.824 1.085-1.389-.4-.448.92-.33 1.1.158.245.419.519.429.74.017.277-.411.449-.068.745z" fill="#fed438" fill-rule="evenodd"/><path d="M82.75 3.36a16.834 16.834 0 01-3.38 5.7 19.329 19.329 0 01-6.54 5 5.947 5.947 0 011.86 1.1.7.7 0 00.5.22.968.968 0 00.54-.18 22.427 22.427 0 005.68-4.76 23.552 23.552 0 003.88-6.5 2.408 2.408 0 01.46-.78.682.682 0 00.28-.5.5.5 0 00-.14-.34A6.155 6.155 0 0084.43 1a.978.978 0 00-.38-.1.564.564 0 00-.3.08 1.913 1.913 0 01-1.1.2h-7.14a35 35 0 01-3.84-.14c.04.58.12 1.62.18 2.02.04.28.12.42.38.4.86-.04 2-.1 3.3-.1zm18.44.74a5.534 5.534 0 01.18-2.22 1.28 1.28 0 00.16-.5c0-.16-.1-.28-.36-.34a19.085 19.085 0 00-2.5-.42 15.97 15.97 0 01.2 3.48v6.26c0 1.02.02 1.26-.12 1.52a.614.614 0 00-.08.3.8.8 0 00.18.42 5.775 5.775 0 001.2 1.22.853.853 0 00.42.16.635.635 0 00.4-.16 6.641 6.641 0 01.58-.42 33.213 33.213 0 003.56-2.4 25.281 25.281 0 002.96-2.62c.22-.22.3-.36.3-.5a1 1 0 00-.12-.34 5.765 5.765 0 01-.62-2.02 19.193 19.193 0 01-3.5 3.4 20.332 20.332 0 01-2.84 1.86zm-6.98-2.22a5.38 5.38 0 01.2 1.68c-.02 3.2-.28 4.3-.84 5.66a9.929 9.929 0 01-3.32 3.98 7.087 7.087 0 011.7.84.68.68 0 00.38.16.907.907 0 00.52-.26 10.3 10.3 0 002.84-3.76 14.968 14.968 0 001.08-5.88 2.885 2.885 0 01.24-1.36c.12-.28.08-.52-.26-.62a16.169 16.169 0 00-2.54-.44zm28.94 6.94c1.48 0 2.96.02 4.46.04.28.02.36-.06.36-.3a14.741 14.741 0 000-1.88c0-.24-.06-.3-.36-.28-1.54.02-3.08.06-4.6.06h-6.44a25.694 25.694 0 01-4.32-.24 21.707 21.707 0 00.3 2.42c.06.3.22.42.46.42a15.993 15.993 0 012.94-.24zm22.14-2c1.38 0 2.76.04 3.8.08.18 0 .3-.08.3-.34.02-.26.02-1.28 0-1.54 0-.28-.02-.4-.22-.4-1.18.08-2.34.12-3.9.12h-8.98c-1.16 0-2.28 0-3.4-.1a12.033 12.033 0 00.16 1.92c.02.26.08.4.26.38 1.02-.06 2-.12 3-.12h3.8a8.495 8.495 0 01-1.02 4.3 8.882 8.882 0 01-3.98 3.56 5.254 5.254 0 011.78 1.06.589.589 0 00.42.2 1.218 1.218 0 00.6-.24 10.075 10.075 0 003.52-3.78 11.424 11.424 0 001.18-5.1zm-2.16-4.64c1.1 0 2.28.02 3.36.06.22 0 .26-.1.26-.38a8.9 8.9 0 000-1.46c0-.26-.04-.38-.24-.38-1 .06-2.26.08-3.38.08h-4.48c-.9 0-1.92-.02-3.32-.1.06.72.08 1.44.14 1.92.02.24.08.34.34.34 1.12-.04 1.92-.08 2.84-.08zm20.2 5.08c.7-.68 1.3-1.34 1.82-1.94a5.048 5.048 0 01.9-.82.456.456 0 00.3-.38.552.552 0 00-.22-.36 16.487 16.487 0 00-1.84-1.2 5.629 5.629 0 01-1.06 1.72 28.451 28.451 0 01-8.3 6.5 3.474 3.474 0 011.44 1 .555.555 0 00.4.2.44.44 0 00.26-.08 26.753 26.753 0 004.14-2.88v3.42c0 1.06-.04 2.06-.06 3.2-.02.24.1.34.32.36a10.95 10.95 0 001.62 0c.24-.02.36-.12.34-.36-.02-1.02-.06-2.3-.06-3.26zm22.22 1.56c1.48 0 2.96.02 4.46.04.28.02.36-.06.36-.3a14.741 14.741 0 000-1.88c0-.24-.06-.3-.36-.28-1.54.02-3.08.06-4.6.06h-6.44a25.694 25.694 0 01-4.32-.24 21.706 21.706 0 00.3 2.42c.06.3.22.42.46.42a15.993 15.993 0 012.94-.24zM13.44 31.52h-2.48v6.52c0 2.08.08 3.78.2 5.68h-.28a47.327 47.327 0 00-2.06-5.32L5.6 31.52H1.54v15.52h2.48v-7.52c0-1.92-.04-3.76-.14-5.6h.28c.7 1.74 1.32 3.18 2.22 5.12l3.76 8h3.3zm7.44 0h-2.72v15.52h2.72zm16.5 4.44a5.629 5.629 0 00-5.9-4.72c-4 0-6.74 2.92-6.74 8.06 0 5.12 2.72 8.02 6.74 8.02 3.16 0 5.16-1.42 5.98-4.62l-2.54-.78c-.44 2.26-1.56 3.32-3.42 3.32-2.26 0-3.9-2.02-3.9-5.96 0-3.96 1.6-5.96 3.9-5.96 1.76 0 2.88 1.12 3.26 3.28zm13.82-4.44H40.96v15.52h10.4V44.9h-7.7v-5h5.7v-2.14h-5.7v-4.1h7.54zm22.2 4.44a5.629 5.629 0 00-5.9-4.72c-4 0-6.74 2.92-6.74 8.06 0 5.12 2.72 8.02 6.74 8.02 3.16 0 5.16-1.42 5.98-4.62l-2.54-.78c-.44 2.26-1.56 3.32-3.42 3.32-2.26 0-3.9-2.02-3.9-5.96 0-3.96 1.6-5.96 3.9-5.96 1.76 0 2.88 1.12 3.26 3.28zm3.58-4.44v15.52h2.64V40.1h2.2c.26 0 .48-.02.7-.02l3.14 6.96h2.9l-3.58-7.36a3.936 3.936 0 003.08-3.94c0-2.7-1.72-4.22-5.5-4.22zm2.64 2.02h2.82c2.14 0 2.92.86 2.92 2.24 0 1.44-.92 2.32-3.04 2.32h-2.7zm22.58-2.02H91.96v15.52h10.4V44.9h-7.7v-5h5.7v-2.14h-5.7v-4.1h7.54zm10.34 0h-3.26l-4.76 15.52h2.56l1.34-4.56h4.76l1.32 4.56h2.82zm.16 8.96h-3.8l.84-3.16c.34-1.2.62-2.32.96-3.8h.18c.34 1.46.58 2.6.92 3.82zm23.26-8.96h-4.4l-1.98 7.96c-.46 1.78-.78 3.38-1.2 5.08h-.28c-.32-1.7-.72-3.5-1.12-5.12l-1.96-7.92h-4.38v15.52h2.38v-7.8c0-1.92-.02-3.72-.06-5.52h.28c.46 1.9.84 3.58 1.32 5.38l2.04 7.94h3.16l2.1-8.04c.52-1.9.88-3.5 1.28-5.28h.28c-.02 1.84-.04 3.54-.04 5.48v7.84h2.58zm20.92 3.22a4.543 4.543 0 014.48 4.64c0 3.78-2.66 5.18-6.04 5.98a4.242 4.242 0 011.4 1.26c.26.4.44.48.86.36 4.06-1.22 6.16-3.56 6.16-7.28 0-3.98-2.82-6.94-7.62-6.94a8.752 8.752 0 00-6.5 2.56 7.369 7.369 0 00-2.26 5.2c0 3.26 1.78 5.14 3.54 5.14a3.8 3.8 0 003.4-2.3 25.043 25.043 0 002.5-8.62zm-2.4.12a22.851 22.851 0 01-2.12 7.16c-.54.96-.98 1.22-1.5 1.22-.62 0-1.36-1.02-1.36-2.86a5.759 5.759 0 011.56-3.7 6.023 6.023 0 013.42-1.82zm25.36.76a16.834 16.834 0 01-3.38 5.7 19.329 19.329 0 01-6.54 5 5.947 5.947 0 011.86 1.1.7.7 0 00.5.22.968.968 0 00.54-.18 22.427 22.427 0 005.68-4.76 23.552 23.552 0 003.88-6.5 2.408 2.408 0 01.46-.78.548.548 0 00.2-.38.681.681 0 00-.16-.4 7.371 7.371 0 00-1.36-1.38.468.468 0 00-.34-.14.637.637 0 00-.34.12 1.913 1.913 0 01-1.1.2h-7.14a35 35 0 01-3.84-.14c.04.58.12 1.62.18 2.02.04.28.12.42.38.4.86-.04 2-.1 3.3-.1zm4.44-5.98a2.11 2.11 0 00-2.16 2.14 2.16 2.16 0 102.16-2.14zm0 .96a1.18 1.18 0 11-1.18 1.18 1.146 1.146 0 011.18-1.18zm7.32 7.22c-.98 0-2.46-.02-3.88-.14a8.843 8.843 0 00.2 1.82c.06.32.12.48.38.46.98-.08 2.46-.08 3.18-.08h3.56a8.25 8.25 0 01-.88 3.32 8.86 8.86 0 01-3.74 3.7 8.242 8.242 0 012.12.76.759.759 0 00.36.12.621.621 0 00.34-.14 9.515 9.515 0 003.18-3.74 10.853 10.853 0 001-4.02h2.46c1.46 0 2.62.02 3.88.06.24 0 .24-.08.26-.36a14.221 14.221 0 000-1.6c-.02-.22-.02-.32-.22-.32-.9.04-2.6.14-3.86.14h-2.48c0-.68 0-1.14.02-1.58a1.927 1.927 0 01.14-.68 1 1 0 00.12-.34.3.3 0 00-.26-.28 5.928 5.928 0 00-1.3-.26c1.18-.24 2.4-.54 3.62-.88.42-.1.84-.28 1.26-.34.32-.02.52-.06.52-.28a.778.778 0 00-.26-.56 9.723 9.723 0 00-1.64-1.4 5.731 5.731 0 01-1.72.9 24.857 24.857 0 01-3.3.86 37.8 37.8 0 01-5.94.74 5.425 5.425 0 011.02 1.38c.08.22.2.48.5.44a45.331 45.331 0 004.74-.64c.06.4.08.66.1.92.02.58.04 1.38.04 2.02zm16.22 5.98a5.549 5.549 0 011.76.86.673.673 0 00.46.2.754.754 0 00.56-.3 22.037 22.037 0 004.28-6.72 3.833 3.833 0 01.7-1.22.593.593 0 00.2-.4.344.344 0 00-.24-.32 19.769 19.769 0 00-2.48-1.02 10 10 0 01-.9 2.96 17.716 17.716 0 01-4.34 5.96zm10.22-7.6a26.151 26.151 0 014.94 7.78c.08.26.22.3.48.18a12.092 12.092 0 001.66-1.06.387.387 0 00.2-.32.5.5 0 00-.08-.28 25.136 25.136 0 00-5.02-7.34.408.408 0 00-.3-.16.477.477 0 00-.28.12c-.34.22-.88.6-1.6 1.08zm6.18-4.58a2.11 2.11 0 00-2.16 2.14 2.16 2.16 0 102.16-2.14zm0 .96a1.18 1.18 0 11-1.18 1.18 1.146 1.146 0 011.18-1.18zm17.7 2.78a16.834 16.834 0 01-3.38 5.7 19.329 19.329 0 01-6.54 5 5.947 5.947 0 011.86 1.1.7.7 0 00.5.22.968.968 0 00.54-.18 22.427 22.427 0 005.68-4.76 23.553 23.553 0 003.88-6.5 2.408 2.408 0 01.46-.78.682.682 0 00.28-.5.5.5 0 00-.14-.34A6.155 6.155 0 00243.6 33a.978.978 0 00-.38-.1.564.564 0 00-.3.08 1.913 1.913 0 01-1.1.2h-7.14a35 35 0 01-3.84-.14c.04.58.12 1.62.18 2.02.04.28.12.42.38.4.86-.04 2-.1 3.3-.1zm17.4 4.14h1.1c.82 0 1.82.04 2.6.04.3.02.38-.06.4-.38.02-.4.02-.84 0-1.24-.02-.24-.08-.36-.32-.34-.88 0-1.8.04-2.7.04h-4.44c-.86 0-1.92 0-2.78-.08.04.72.06 1.26.12 1.6.04.3.14.42.32.4.92-.02 1.64-.02 2.46-.02h1.1v5.06h-2c-1.28 0-2.26 0-3.42-.08a9.2 9.2 0 00.1 1.62c.04.3.14.42.38.42.84-.04 1.74-.08 2.94-.08h6.28c.92 0 2.1.04 3.14.04.24.02.32-.1.34-.36.02-.42.02-.86 0-1.28-.02-.26-.1-.38-.28-.38-1.08.06-2.2.08-3.22.08h-2.12z" fill="#292929"/></svg>