<svg xmlns="http://www.w3.org/2000/svg" width="483" height="24" viewBox="0 0 483 24">
  <defs>
    <style>
      .cls-1 {
        fill: #282929;
        fill-rule: evenodd;
      }
    </style>
  </defs>
  <path id="TALK_SHOW_WORKSHOP" data-name="TALK SHOW / WORKSHOP" class="cls-1" d="M21.669,5.274v-4.5H0.764v4.5h7.7v17.1h5.443V5.274h7.762Zm27.026,17.1L39.2,0.743H33.526l-9.4,21.632h5.566L31.764,17.4h9.277l2.087,4.979h5.566ZM39.6,13.917H33.186l3.2-7.855Zm18.754,3.989V0.774H52.914v21.6h15.23V17.906H58.357Zm20.3-7.19V0.774H73.214v21.6h5.443V11.892L87.7,22.375H94.49l-10-11.457L92.9,0.774H86.821Zm41.1-9.764A13.594,13.594,0,0,0,116.242.5a9.079,9.079,0,0,0-3.951.789,5.865,5.865,0,0,0-2.5,2.149,5.593,5.593,0,0,0-.858,3.046,5.511,5.511,0,0,0,.8,3.007,7.083,7.083,0,0,0,1.9,2.041,23.345,23.345,0,0,0,2.683,1.6,18.254,18.254,0,0,1,2.544,1.407,3.945,3.945,0,0,1,1.09,1.028,2,2,0,0,1,.263,1.044,1.723,1.723,0,0,1-.712,1.4,3.275,3.275,0,0,1-2.072.564,10.222,10.222,0,0,1-6.324-2.6V20.86a15.437,15.437,0,0,0,7.02,1.794,9.489,9.489,0,0,0,3.92-.773,6.154,6.154,0,0,0,2.675-2.2,5.786,5.786,0,0,0,.951-3.293,5.437,5.437,0,0,0-.766-2.961,7.291,7.291,0,0,0-2.01-2.087,30.056,30.056,0,0,0-3.409-1.987,11.851,11.851,0,0,1-2.6-1.608,1.927,1.927,0,0,1-.665-1.423,1.681,1.681,0,0,1,.65-1.384,3.027,3.027,0,0,1,1.917-.518,9.777,9.777,0,0,1,5.984,2.4V2.2A11.477,11.477,0,0,0,119.76.952Zm14.957,8.187V0.774h-5.442v21.6h5.442V13.67H145.17v8.705h5.443V0.774H145.17V9.139H134.717Zm43.989-3.2a10.18,10.18,0,0,0-4.144-3.989A13.24,13.24,0,0,0,168.207.5a13.017,13.017,0,0,0-6.726,1.6,10.19,10.19,0,0,0-4,4.128,11.626,11.626,0,0,0-1.3,5.389,11.227,11.227,0,0,0,1.392,5.52,10.21,10.21,0,0,0,4.082,4.02,13.078,13.078,0,0,0,6.463,1.5,13.3,13.3,0,0,0,6.463-1.484,10.28,10.28,0,0,0,4.144-4,11.161,11.161,0,0,0,1.423-5.582A11.247,11.247,0,0,0,178.706,5.939ZM162.532,8.3a5.474,5.474,0,0,1,2.227-2.25,6.883,6.883,0,0,1,3.386-.8A6.7,6.7,0,0,1,171.6,6.1a5.729,5.729,0,0,1,2.219,2.3,6.663,6.663,0,0,1,.757,3.154,6.125,6.125,0,0,1-1.786,4.646,6.483,6.483,0,0,1-4.677,1.709,6.787,6.787,0,0,1-3.293-.789,5.575,5.575,0,0,1-2.258-2.234,6.613,6.613,0,0,1-.8-3.27A6.93,6.93,0,0,1,162.532,8.3Zm31.387,5.342L189,0.774h-5.6l8.968,21.817h2.845l6.108-14.179,6.046,14.179h2.8l9.108-21.817h-5.536L208.7,13.639,203.412,0.774H199.3Zm42.115,9.015L241.848,0.5h-3.355L232.71,22.653h3.324ZM265.8,13.639L260.878,0.774h-5.6l8.968,21.817h2.845L273.2,8.413l6.045,14.179h2.8l9.107-21.817h-5.535l-5.041,12.865L275.289,0.774h-4.113Zm51.147-7.7A10.173,10.173,0,0,0,312.8,1.949,13.237,13.237,0,0,0,306.443.5a13.022,13.022,0,0,0-6.726,1.6,10.187,10.187,0,0,0-4,4.128,11.626,11.626,0,0,0-1.3,5.389,11.237,11.237,0,0,0,1.391,5.52,10.222,10.222,0,0,0,4.082,4.02,13.082,13.082,0,0,0,6.464,1.5,13.307,13.307,0,0,0,6.463-1.484,10.286,10.286,0,0,0,4.144-4,11.161,11.161,0,0,0,1.422-5.582A11.236,11.236,0,0,0,316.942,5.939ZM300.769,8.3A5.472,5.472,0,0,1,303,6.047a6.887,6.887,0,0,1,3.387-.8,6.7,6.7,0,0,1,3.455.858,5.716,5.716,0,0,1,2.219,2.3,6.664,6.664,0,0,1,.758,3.154,6.125,6.125,0,0,1-1.786,4.646,6.485,6.485,0,0,1-4.677,1.709,6.794,6.794,0,0,1-3.294-.789,5.572,5.572,0,0,1-2.257-2.234,6.613,6.613,0,0,1-.8-3.27A6.919,6.919,0,0,1,300.769,8.3Zm37.9-5.729A8.311,8.311,0,0,0,332.944.774H323.96v21.6H329.4V13.67h0.974a4.62,4.62,0,0,1,1.747.286,3.74,3.74,0,0,1,1.377,1.09A12.611,12.611,0,0,1,335,17.5l2.5,4.871h5.953l-2.814-5.443a19.576,19.576,0,0,0-1.763-2.791,6.037,6.037,0,0,0-1.762-1.492,5.922,5.922,0,0,0,2.667-2.165,5.736,5.736,0,0,0,.889-3.185A6.036,6.036,0,0,0,338.665,2.568Zm-4.422,6.966a4.5,4.5,0,0,1-2.567.611H329.4V4.485h2.366q3.354,0,3.355,2.876A2.46,2.46,0,0,1,334.243,9.534Zm19.063,1.183V0.774h-5.443v21.6h5.443V11.892l9.045,10.483h6.788l-10-11.457,8.412-10.143H361.47Zm29.987-9.764A13.588,13.588,0,0,0,379.775.5a9.075,9.075,0,0,0-3.95.789,5.859,5.859,0,0,0-2.5,2.149,5.593,5.593,0,0,0-.858,3.046,5.511,5.511,0,0,0,.8,3.007,7.1,7.1,0,0,0,1.9,2.041,23.259,23.259,0,0,0,2.683,1.6,18.231,18.231,0,0,1,2.543,1.407,3.93,3.93,0,0,1,1.09,1.028,2,2,0,0,1,.263,1.044,1.722,1.722,0,0,1-.711,1.4,3.277,3.277,0,0,1-2.072.564,10.218,10.218,0,0,1-6.324-2.6V20.86a15.43,15.43,0,0,0,7.02,1.794,9.484,9.484,0,0,0,3.919-.773,6.148,6.148,0,0,0,2.675-2.2,5.786,5.786,0,0,0,.951-3.293,5.445,5.445,0,0,0-.765-2.961,7.3,7.3,0,0,0-2.01-2.087,30.083,30.083,0,0,0-3.41-1.987,11.863,11.863,0,0,1-2.6-1.608,1.923,1.923,0,0,1-.665-1.423,1.68,1.68,0,0,1,.649-1.384,3.027,3.027,0,0,1,1.917-.518,9.774,9.774,0,0,1,5.984,2.4V2.2A11.462,11.462,0,0,0,383.293.952Zm14.958,8.187V0.774h-5.443v21.6h5.443V13.67H408.7v8.705h5.443V0.774H408.7V9.139H398.251Zm43.988-3.2A10.18,10.18,0,0,0,438.1,1.949,13.237,13.237,0,0,0,431.74.5a13.022,13.022,0,0,0-6.726,1.6,10.19,10.19,0,0,0-4,4.128,11.625,11.625,0,0,0-1.3,5.389,11.227,11.227,0,0,0,1.391,5.52,10.222,10.222,0,0,0,4.082,4.02,13.081,13.081,0,0,0,6.463,1.5,13.308,13.308,0,0,0,6.464-1.484,10.277,10.277,0,0,0,4.143-4,11.151,11.151,0,0,0,1.423-5.582A11.236,11.236,0,0,0,442.239,5.939ZM426.066,8.3a5.472,5.472,0,0,1,2.226-2.25,6.885,6.885,0,0,1,3.386-.8,6.7,6.7,0,0,1,3.456.858,5.723,5.723,0,0,1,2.219,2.3,6.664,6.664,0,0,1,.758,3.154,6.129,6.129,0,0,1-1.786,4.646,6.486,6.486,0,0,1-4.678,1.709,6.793,6.793,0,0,1-3.293-.789,5.575,5.575,0,0,1-2.258-2.234,6.613,6.613,0,0,1-.8-3.27A6.919,6.919,0,0,1,426.066,8.3Zm38.143-5.8A8.969,8.969,0,0,0,458.364.774h-9.107v21.6H454.7V13.886h3.927a9.361,9.361,0,0,0,4.26-.874,6.012,6.012,0,0,0,2.574-2.343,6.482,6.482,0,0,0,.851-3.309A5.935,5.935,0,0,0,464.209,2.5Zm-6.788,7.692H454.7V4.485h2.5a4.294,4.294,0,0,1,2.7.68,2.661,2.661,0,0,1,.842,2.2q0,2.83-3.324,2.83h0Z"/>
</svg>
