<svg xmlns="http://www.w3.org/2000/svg" width="326" height="85" viewBox="0 0 326 85">
  <defs>
    <style>
      .cls-1 {
        fill: #fff;
        fill-rule: evenodd;
      }
    </style>
  </defs>
  <path id="ONLINE_CONTENTS" data-name="ONLINE CONTENTS" class="cls-1" d="M94.67,9.048a16.072,16.072,0,0,0-6.543-6.3A20.9,20.9,0,0,0,78.093.454a20.558,20.558,0,0,0-10.62,2.527A16.087,16.087,0,0,0,61.149,9.5,18.358,18.358,0,0,0,59.1,18.008a17.732,17.732,0,0,0,2.2,8.716,16.131,16.131,0,0,0,6.445,6.348A20.654,20.654,0,0,0,77.946,35.44,21.007,21.007,0,0,0,88.151,33.1a16.235,16.235,0,0,0,6.543-6.323,17.619,17.619,0,0,0,2.246-8.814A17.747,17.747,0,0,0,94.67,9.048ZM69.133,12.771a8.645,8.645,0,0,1,3.516-3.552A10.87,10.87,0,0,1,78,7.949,10.582,10.582,0,0,1,83.452,9.3a9.036,9.036,0,0,1,3.5,3.626,10.523,10.523,0,0,1,1.2,4.98,9.673,9.673,0,0,1-2.82,7.336,10.239,10.239,0,0,1-7.385,2.7,10.725,10.725,0,0,1-5.2-1.245,8.8,8.8,0,0,1-3.564-3.528,10.441,10.441,0,0,1-1.27-5.164A10.933,10.933,0,0,1,69.133,12.771Zm62.3,9.387L112.3,0.894h-7.544V35H113.2V13.809L132.29,35h7.642V0.894h-8.5V22.158Zm26.414,5.786V0.894h-8.594V35H173.3V27.944H157.85ZM188.9,35V0.894h-8.593V35H188.9Zm35.985-12.842L205.746,0.894H198.2V35h8.447V13.809L225.741,35h7.642V0.894h-8.5V22.158ZM266.047,7v-6.1h-23.34V35h23.731V28.9H251.3V20.6h14.087v-6.1H251.3V7h14.746ZM31.6,50.454a22,22,0,0,0-9.79,2.124,16.113,16.113,0,0,0-6.8,6.1,17.317,17.317,0,0,0-2.454,9.277,17.658,17.658,0,0,0,2.271,8.911,16.1,16.1,0,0,0,6.555,6.274,21.023,21.023,0,0,0,10.071,2.3,27.285,27.285,0,0,0,13.061-2.979V74.795a20.807,20.807,0,0,1-11.645,3.76,12.791,12.791,0,0,1-6.165-1.4,9.812,9.812,0,0,1-3.967-3.8,10.392,10.392,0,0,1-1.367-5.249,10.98,10.98,0,0,1,1.343-5.359A9.929,9.929,0,0,1,26.7,58.816a12.87,12.87,0,0,1,6.36-1.477,17.536,17.536,0,0,1,5.6.9A26.661,26.661,0,0,1,44.318,61v-7.91A33.3,33.3,0,0,0,31.6,50.454h0Zm55.125,8.594a16.071,16.071,0,0,0-6.543-6.3,20.9,20.9,0,0,0-10.034-2.295,20.558,20.558,0,0,0-10.62,2.527A16.086,16.086,0,0,0,53.2,59.5a18.358,18.358,0,0,0-2.051,8.508,17.732,17.732,0,0,0,2.2,8.716,16.132,16.132,0,0,0,6.445,6.348A20.654,20.654,0,0,0,70,85.44,21.007,21.007,0,0,0,80.2,83.1a16.236,16.236,0,0,0,6.543-6.323A18.518,18.518,0,0,0,86.723,59.048ZM61.186,62.771A8.644,8.644,0,0,1,64.7,59.219a10.869,10.869,0,0,1,5.347-1.27A10.583,10.583,0,0,1,75.5,59.3a9.035,9.035,0,0,1,3.5,3.625,10.522,10.522,0,0,1,1.2,4.981,9.674,9.674,0,0,1-2.82,7.336A10.239,10.239,0,0,1,70,77.944,10.725,10.725,0,0,1,64.8,76.7a8.8,8.8,0,0,1-3.564-3.528,10.44,10.44,0,0,1-1.27-5.164A10.933,10.933,0,0,1,61.186,62.771Zm62.3,9.387L104.348,50.894H96.8V85h8.447V63.809L124.343,85h7.642V50.894h-8.5V72.158ZM171.558,58v-7.1H138.55V58h12.158V85H159.3V58h12.256Zm29.881-1v-6.1H178.1V85H201.83V78.9H186.693V70.6H200.78v-6.1H186.693V57h14.746Zm35.35,15.161L217.648,50.894H210.1V85h8.447V63.809L237.643,85h7.642V50.894h-8.5V72.158ZM284.858,58v-7.1H251.85V58h12.158V85H272.6V58h12.256Zm22.373-6.824a21.442,21.442,0,0,0-5.554-.72,14.335,14.335,0,0,0-6.238,1.245,9.26,9.26,0,0,0-3.955,3.394,8.833,8.833,0,0,0-1.355,4.81,8.7,8.7,0,0,0,1.258,4.749,11.2,11.2,0,0,0,3,3.223,36.726,36.726,0,0,0,4.235,2.527,28.741,28.741,0,0,1,4.017,2.222,6.214,6.214,0,0,1,1.721,1.623,3.164,3.164,0,0,1,.415,1.648,2.72,2.72,0,0,1-1.123,2.209,5.173,5.173,0,0,1-3.272.891q-4.858,0-9.985-4.1v7.715a24.368,24.368,0,0,0,11.084,2.832,14.979,14.979,0,0,0,6.189-1.221,9.714,9.714,0,0,0,4.224-3.467,9.136,9.136,0,0,0,1.5-5.2,8.6,8.6,0,0,0-1.208-4.675,11.529,11.529,0,0,0-3.174-3.3,47.474,47.474,0,0,0-5.384-3.137,18.716,18.716,0,0,1-4.1-2.539,3.041,3.041,0,0,1-1.05-2.246,2.654,2.654,0,0,1,1.025-2.185,4.782,4.782,0,0,1,3.028-.818q4.614,0,9.448,3.784v-7.3A18.1,18.1,0,0,0,307.231,51.174Z"/>
</svg>
