<svg xmlns="http://www.w3.org/2000/svg" width="336" height="23" viewBox="0 0 336 23">
  <defs>
    <style>
      .cls-1 {
        fill: #292929;
        fill-rule: evenodd;
      }
    </style>
  </defs>
  <path id="MAKEUP_TUTORIAL_" data-name="MAKEUP TUTORIAL " class="cls-1" d="M13.016,9.035L5.887,0.262H0.663V23h5.6V8.466l6.429,7.975h0.537l6.4-7.975V23h5.729V0.262H20.161ZM53.657,23L43.664,0.23H37.691L27.795,23h5.859l2.181-5.241H45.6L47.8,23h5.859Zm-9.57-8.9H37.333L40.7,5.829Zm17.741-3.369V0.262H56.1V23h5.729V11.965L71.349,23h7.145L67.964,10.94,76.818,0.262h-6.4Zm34.57-6.4V0.262H80.838V23h15.82V18.931H86.568V13.4h9.391V9.328H86.568v-5H96.4Zm11.353,12.6a6.042,6.042,0,0,1-1.424-4.329V0.262H100.6v12.63a9.964,9.964,0,0,0,2.938,7.658q2.939,2.743,8.358,2.742,5.338,0,8.293-2.726t2.954-7.772V0.262h-5.746v12.4a5.917,5.917,0,0,1-1.416,4.346,5.531,5.531,0,0,1-4.085,1.416A5.447,5.447,0,0,1,107.751,16.929ZM143.517,2.077A9.438,9.438,0,0,0,137.365.262h-9.587V23h5.73V14.065h4.134a9.855,9.855,0,0,0,4.484-.92,6.328,6.328,0,0,0,2.71-2.466,6.831,6.831,0,0,0,.895-3.483A6.247,6.247,0,0,0,143.517,2.077Zm-7.145,8.1h-2.864V4.169h2.636a4.524,4.524,0,0,1,2.841.716,2.8,2.8,0,0,1,.887,2.311q0,2.979-3.5,2.979h0ZM178.983,5V0.262h-22V5h8.1V23h5.729V5h8.171Zm9.936,11.93A6.047,6.047,0,0,1,187.5,12.6V0.262h-5.729v12.63a9.96,9.96,0,0,0,2.938,7.658q2.937,2.743,8.358,2.742,5.339,0,8.292-2.726t2.954-7.772V0.262h-5.745v12.4a5.917,5.917,0,0,1-1.416,4.346,5.531,5.531,0,0,1-4.085,1.416A5.449,5.449,0,0,1,188.919,16.929ZM229.113,5V0.262h-22V5h8.1V23h5.73V5h8.17Zm25.733,0.7a10.724,10.724,0,0,0-4.362-4.2,13.937,13.937,0,0,0-6.69-1.53,13.707,13.707,0,0,0-7.08,1.685A10.72,10.72,0,0,0,232.5,6a12.233,12.233,0,0,0-1.368,5.672,11.827,11.827,0,0,0,1.465,5.81,10.758,10.758,0,0,0,4.3,4.232,13.769,13.769,0,0,0,6.8,1.579,14.008,14.008,0,0,0,6.8-1.562,10.831,10.831,0,0,0,4.362-4.215,11.748,11.748,0,0,0,1.5-5.876A11.832,11.832,0,0,0,254.846,5.7ZM237.821,8.181a5.755,5.755,0,0,1,2.344-2.368,7.241,7.241,0,0,1,3.564-.846,7.057,7.057,0,0,1,3.638.9A6.02,6.02,0,0,1,249.7,8.286a7.009,7.009,0,0,1,.8,3.32,6.45,6.45,0,0,1-1.88,4.891,6.827,6.827,0,0,1-4.924,1.8,7.146,7.146,0,0,1-3.466-.83,5.867,5.867,0,0,1-2.377-2.352,6.964,6.964,0,0,1-.846-3.442A7.285,7.285,0,0,1,237.821,8.181Zm37.89-6.03A8.747,8.747,0,0,0,269.689.262h-9.456V23h5.729V13.837h1.025a4.873,4.873,0,0,1,1.84.3,3.929,3.929,0,0,1,1.448,1.147,13.225,13.225,0,0,1,1.579,2.588L274.491,23h6.266L277.8,17.271a20.631,20.631,0,0,0-1.856-2.938,6.367,6.367,0,0,0-1.855-1.571,6.233,6.233,0,0,0,2.807-2.279,6.04,6.04,0,0,0,.936-3.353A6.352,6.352,0,0,0,275.711,2.15Zm-4.655,7.332a4.728,4.728,0,0,1-2.7.643h-2.393V4.169h2.49q3.533,0,3.532,3.027A2.587,2.587,0,0,1,271.056,9.483ZM289.123,23V0.262h-5.729V23h5.729Zm28.288,0L307.417,0.23h-5.973L291.548,23h5.859l2.181-5.241h9.766l2.2,5.241h5.86Zm-9.571-8.9h-6.754l3.369-8.268Zm17.741,4.2V0.262h-5.729V23h16.032V18.3h-10.3Z"/>
</svg>
