<svg xmlns="http://www.w3.org/2000/svg" width="269" height="52"><defs><clipPath id="a"><path transform="translate(53 506)" fill="none" stroke="#707070" d="M0 0h269v52H0z"/></clipPath></defs><g transform="translate(-53 -506)" clip-path="url(#a)"><path d="M62.521 519.731c-.652.269-.868.526-.538.835.453.424.863.32 2.039.384.851.046 1.925.013 2.793.022a24.155 24.155 0 01-2.487.289 4.349 4.349 0 00-1.714.729c-.026.013-.843.337-.841.328-.022.1.741.394.882.511.483.4 1.031.867.987 1.225-.015.128-.194.3-.26.429q.553.173.044.326a.758.758 0 00-.346.22c-.057.251-.167.743.874.906.743.116 3.172-.017 4.013-.01a5.511 5.511 0 01-.768.432c-.428-.3-.822.026-1.156.125q0-.178-.58-.258c-.742.455-2.832.707-1.078 1.237 1.372.414 3.991.253 5.817.261 3.453.014 6.923-.007 10.376-.015l10.063-.024c.68 0 2.368-.108 2.937-.015 1.081.177.316.44 1.866.516.941.046 2.131 0 3.086.007a5.387 5.387 0 01-.759.426c-.431-.3-.821.027-1.154.126q0-.179-.581-.26c-.689.423-2.644.64-1.306 1.157 1.271.491 3.833.338 5.718.336 3.247 0 6.5.026 9.747 0 6.473-.047 13.024-.054 19.5-.017 13.084.072 26.219-.013 39.308-.024 26.074-.023 52.241.111 78.3-.079 7.308-.054 14.7-.06 22.013-.019 3.627.02 7.7.111 11.283-.037 1.521-.063 4.476-.279 4.74-.777.11-.208-.5-.7-.687-.9-.417-.457-.542-.421-2.4-.469 1.047-.491 2.621-.289 1.8-.926a2.829 2.829 0 00-.818-.473 4.4 4.4 0 00-.874-.321c6.771.155 13.69.224 20.483.277 3.295.026 7.086.26 10.295.033 1.749-.124 3.815-.281 3.857-.828a1.7 1.7 0 00-.558-.937c-.493-.315-1.087-.292-2.411-.326.49-.229 1.924-.261 2.221-.524.247-.219-.422-.52-.72-.718a9.7 9.7 0 00-3.568-1.132 4 4 0 00.99-.515.959.959 0 00.226-.338 6.022 6.022 0 00.992-.083c.782-.234 1.472-.075 1.1-.508-.263-.31-.278-.2-1.513-.36-.7-.089-1.339-.32-2-.383-.347-.033-1.811.044-2.188.041-1.181-.011-2.5-.028-3.769-.053-5.179-.1-10.628-.293-15.864-.258-2.575.017-5.393-.011-8-.077-2.488-.063-5.2-.046-7.7-.144s-5.222-.094-7.7-.144c-1.3-.027-2.57.083-3.768-.053a5.706 5.706 0 01-1.177-.188c-.732-.178-.558-.438-1.8-.5.616-.2.662-.394 1.073-.609.973-.507-.234-.066.749-.275.3-.063 1.465-.128 1.6-.183a1.039 1.039 0 01-.107-.377c-.276-.331.484-.027-.77-.281a30.8 30.8 0 00-3.235-.43c-1.3-.068-3.256-.037-4.539-.032-1.881.008-3.7 0-5.524.032-6.792.124-13.756.032-20.62.032-13.44 0-27.083-.063-40.524-.064-13.811 0-27.43.006-41.238.064-3.251.013-6.724.035-10.063 0-3.324-.036-6.85.044-10.2-.032-6.674-.152-13.6.04-20.262-.032-3.777-.04-7.63 0-11.32 0-3.812 0-7.61-.015-11.321 0-3.968.016-7.911-.04-11.814.032-1.879.034-3.781-.03-5.661 0-1.115.018-6.08.687-3.554 1.085-2.708-.4-.873.92-.644 1.1.308.245.816.519.836.74.035.277-.797.449-.129.745zm15.159 28c-.563.269-.749.526-.465.835.391.424.745.32 1.76.384.735.046 1.662.013 2.411.022a18.127 18.127 0 01-2.147.289 3.521 3.521 0 00-1.479.729c-.023.013-.728.337-.726.328-.019.1.639.394.761.511.417.4.89.867.852 1.225-.013.128-.167.3-.224.429q.477.173.038.326a.656.656 0 00-.3.22c-.049.251-.145.743.755.906.641.116 2.738-.017 3.464-.01a4.626 4.626 0 01-.663.432c-.37-.3-.71.026-1 .125q0-.178-.5-.258c-.64.455-2.444.707-.93 1.237 1.185.414 3.445.253 5.021.261 2.98.014 5.976-.007 8.957-.015l8.687-.024a22.7 22.7 0 012.536-.015c.933.177.273.44 1.611.516.812.046 1.84 0 2.664.007a4.521 4.521 0 01-.655.426c-.372-.3-.709.027-1 .126q0-.179-.5-.26c-.6.423-2.282.64-1.127 1.157 1.1.491 3.309.338 4.936.336 2.8 0 5.611.026 8.414 0 5.587-.047 11.243-.054 16.831-.017 11.295.072 22.634-.013 33.932-.024 22.508-.023 45.1.111 67.6-.079 6.308-.054 12.694-.06 19-.019 3.131.02 6.651.111 9.74-.037 1.313-.063 3.864-.279 4.092-.777.095-.208-.431-.7-.593-.9-.36-.457-.467-.421-2.07-.469.9-.491 2.262-.289 1.553-.926a2.392 2.392 0 00-.706-.473 3.492 3.492 0 00-.755-.321c5.845.155 11.818.224 17.682.277 2.844.026 6.117.26 8.887.033 1.509-.124 3.293-.281 3.33-.828a1.77 1.77 0 00-.482-.937c-.425-.315-.939-.292-2.081-.326.423-.229 1.661-.261 1.917-.524.213-.219-.364-.52-.621-.718a7.606 7.606 0 00-3.08-1.132 3.32 3.32 0 00.854-.515.982.982 0 00.2-.338 4.507 4.507 0 00.856-.083c.675-.234 1.271-.075.954-.508-.227-.31-.24-.2-1.306-.36-.606-.089-1.156-.32-1.726-.383-.3-.033-1.563.044-1.889.041a275.54 275.54 0 01-3.254-.053c-4.471-.1-9.174-.293-13.694-.258-2.223.017-4.655-.011-6.909-.077-2.148-.063-4.486-.046-6.646-.144s-4.508-.094-6.646-.144a31.97 31.97 0 01-3.253-.053 4.312 4.312 0 01-1.016-.188c-.632-.178-.482-.438-1.55-.5.531-.2.572-.394.927-.609.84-.507-.2-.066.647-.275.257-.063 1.265-.128 1.378-.183a1.17 1.17 0 01-.092-.377c-.238-.331.418-.027-.665-.281a23.159 23.159 0 00-2.793-.43c-1.125-.068-2.811-.037-3.918-.032-1.624.008-3.2 0-4.769.032-5.863.124-11.875.032-17.8.032-11.6 0-23.379-.063-34.982-.064-11.922 0-23.679.006-35.6.064-2.807.013-5.8.035-8.687 0s-5.913.044-8.8-.032c-5.761-.152-11.744.04-17.491-.032-3.26-.04-6.586 0-9.772 0-3.29 0-6.569-.015-9.773 0-3.425.016-6.829-.04-10.2.032-1.622.034-3.264-.03-4.887 0-.962.018-5.248.687-3.068 1.085-2.337-.4-.754.92-.556 1.1.266.245.7.519.722.74.016.277-.702.449-.123.745z" fill="#fed438" fill-rule="evenodd"/><path d="M65.6 506.22h-1.26l-1.46 3.12v2.7h2.82v-2.7h-1.42zm3.94 0h-1.26l-1.46 3.12v2.7h2.82v-2.7h-1.42zm13.52 4.92h1.56c1.12 0 2.1.02 3.44.08.22 0 .26-.12.28-.38.02-.5.02-1.06 0-1.56 0-.22-.06-.34-.26-.32-1.18.06-2.28.06-3.5.06h-5.66a33.969 33.969 0 01-3.46-.08 11.088 11.088 0 00.16 1.86c.06.3.1.44.34.42.82-.04 1.66-.08 3.1-.08h1.56v6.84H77.9c-1.28 0-2.8-.02-4.24-.1a11.659 11.659 0 00.14 1.88c.06.34.1.42.42.4 1.56-.02 2.86-.08 3.68-.08h8.04c1.3 0 3.08.04 4.04.08.24 0 .3-.1.3-.36.02-.52.02-1.08 0-1.6 0-.24-.1-.34-.32-.32-1.36.04-2.7.08-4.04.08h-2.86zm11.92 2.16a17.537 17.537 0 014.04 2.18.387.387 0 00.24.12c.08 0 .16-.08.26-.2a8.144 8.144 0 00.88-1.52.593.593 0 00.08-.22c0-.12-.08-.2-.22-.3a13.88 13.88 0 00-3.84-1.96c-.18-.04-.28.06-.38.2-.24.32-.56.9-1.06 1.7zm2.42-4.7a19.343 19.343 0 013.88 2.46.515.515 0 00.3.14.223.223 0 00.2-.12 8.56 8.56 0 001.02-1.5.484.484 0 00.08-.26.317.317 0 00-.16-.26 13.6 13.6 0 00-3.76-2.22c-.24-.12-.36-.08-.5.16-.34.52-.72 1.08-1.06 1.6zm-.84 11.4a12.631 12.631 0 001.48 2.04.515.515 0 00.4.24.443.443 0 00.32-.16 6.572 6.572 0 011.16-.68 46.432 46.432 0 005.98-3.76 37.261 37.261 0 005.08-4.62.622.622 0 00.22-.46.978.978 0 00-.1-.38 9.988 9.988 0 01-.58-2.24 36.4 36.4 0 01-5.76 5.58 33.5 33.5 0 01-5.48 3.46 9.247 9.247 0 01-2.72.98zm23.6-9.64c-1.16 0-2.06 0-3.32-.08.04.74.08 1.46.16 1.94.02.24.1.36.3.34.94-.06 1.9-.1 2.88-.1h1.8a11.653 11.653 0 01-1.44 4.32 11.134 11.134 0 01-4.7 4.08 5.1 5.1 0 011.68 1.16.514.514 0 00.38.2.911.911 0 00.46-.16 12.892 12.892 0 004.24-4.12 14.88 14.88 0 001.78-5.54h4.04a28.013 28.013 0 01-.6 6c-.24.9-.5 1.22-1.04 1.4a8.164 8.164 0 01-2.72.18 4.186 4.186 0 011.16 1.82.486.486 0 00.48.4 8.454 8.454 0 002.02-.22c1.28-.32 1.96-1.16 2.36-2.7a34.092 34.092 0 00.74-6.58c.04-1.06.08-1.86.08-2.12 0-.22-.1-.28-.42-.28-.92 0-1.86.04-2.78.04h-3.04c.1-.98.12-1.46.18-2.1a1.863 1.863 0 01.26-.94.9.9 0 00.1-.38.413.413 0 00-.34-.42 15.662 15.662 0 00-2.6-.42 7.69 7.69 0 01.14 1.58c-.02 1.08-.06 1.72-.14 2.7zm26.88.74a5.534 5.534 0 01.18-2.22 1.28 1.28 0 00.16-.5c0-.16-.1-.28-.36-.34a19.085 19.085 0 00-2.5-.42 15.97 15.97 0 01.2 3.48v6.26c0 1.02.02 1.26-.12 1.52a.614.614 0 00-.08.3.8.8 0 00.18.42 5.775 5.775 0 001.2 1.22.853.853 0 00.42.16.635.635 0 00.4-.16 6.641 6.641 0 01.58-.42 33.213 33.213 0 003.56-2.4 25.281 25.281 0 002.96-2.62c.22-.22.3-.36.3-.5a1 1 0 00-.12-.34 5.765 5.765 0 01-.62-2.02 19.193 19.193 0 01-3.5 3.4 20.332 20.332 0 01-2.84 1.86zm-6.98-2.22a5.38 5.38 0 01.2 1.68c-.02 3.2-.28 4.3-.84 5.66a9.929 9.929 0 01-3.32 3.98 7.087 7.087 0 011.7.84.68.68 0 00.38.16.907.907 0 00.52-.26 10.3 10.3 0 002.84-3.76 14.968 14.968 0 001.08-5.88 2.885 2.885 0 01.24-1.36c.12-.28.08-.52-.26-.62a16.169 16.169 0 00-2.54-.44zm20.12-2.36h-2.82v2.7h1.42l-1.32 3.12h1.26l1.46-3.12zm3.94 0h-2.82v2.7h1.42l-1.32 3.12h1.26l1.46-3.12zm14.52 9.38c1.7-.7 3-1.14 4.3-1.6a6.4 6.4 0 011.22-.3c.2-.04.3-.12.3-.28a.791.791 0 00-.16-.44 12.32 12.32 0 00-1.4-1.76 6.015 6.015 0 01-1.52 1.08c-1.02.52-2.16 1.04-2.94 1.4a2.209 2.209 0 00-2.44-2.16 3.979 3.979 0 00-2 .62l-.02-.04a20.639 20.639 0 001.5-2.22c1.46-.16 3.18-.38 4.68-.6.28-.04.36-.12.34-.32a6.744 6.744 0 00-.2-1.44c-.04-.18-.1-.24-.32-.2a32.174 32.174 0 01-3.64.62c.24-.54.34-.8.46-1.08a1.558 1.558 0 01.34-.48.386.386 0 00.14-.3.359.359 0 00-.24-.34 12.628 12.628 0 00-2.28-.56 4.868 4.868 0 01-.14 1.22 15.411 15.411 0 01-.6 1.72 44.115 44.115 0 01-4.6.02c.06.6.14 1.34.2 1.66.04.22.1.32.28.32 1.18 0 2.26-.02 3.2-.06a20.438 20.438 0 01-4.18 4.96c-.1.08-.14.14-.14.22a.325.325 0 00.08.18 9.513 9.513 0 001.14 1.32.4.4 0 00.22.14c.08 0 .14-.06.24-.18a26.952 26.952 0 012-2.18 4.828 4.828 0 012.76-1.44c.9-.04 1.14.36 1.2 1.38-3.02 1.56-4.22 2.96-4.22 4.88 0 2.32 1.74 3.3 5.02 3.3a35.573 35.573 0 004.96-.26c.16 0 .24-.14.22-.38a8.951 8.951 0 00-.18-1.64c-.02-.18-.1-.24-.28-.22a34.18 34.18 0 01-4.98.4c-2.1 0-2.78-.54-2.78-1.38 0-.96.64-1.74 2.42-2.66-.02.72-.02 1.72-.02 2.44 0 .2.08.32.26.32a10.819 10.819 0 001.42-.1c.26-.04.38-.14.38-.36zm22.98-2.08c1.38 0 2.76.04 3.8.08.18 0 .3-.08.3-.34.02-.26.02-1.28 0-1.54 0-.28-.02-.4-.22-.4-1.18.08-2.34.12-3.9.12h-8.98c-1.16 0-2.28 0-3.4-.1a12.033 12.033 0 00.16 1.92c.02.26.08.4.26.38 1.02-.06 2-.12 3-.12h3.8a8.495 8.495 0 01-1.02 4.3 8.882 8.882 0 01-3.98 3.56 5.254 5.254 0 011.78 1.06.589.589 0 00.42.2 1.218 1.218 0 00.6-.24 10.075 10.075 0 003.52-3.78 11.424 11.424 0 001.18-5.1zm-2.16-4.64c1.1 0 2.28.02 3.36.06.22 0 .26-.1.26-.38a8.9 8.9 0 000-1.46c0-.26-.04-.38-.24-.38-1 .06-2.26.08-3.38.08h-4.48c-.9 0-1.92-.02-3.32-.1.06.72.08 1.44.14 1.92.02.24.08.34.34.34 1.12-.04 1.92-.08 2.84-.08zm22.02 6.64c1.48 0 2.96.02 4.46.04.28.02.36-.06.36-.3a14.741 14.741 0 000-1.88c0-.24-.06-.3-.36-.28-1.54.02-3.08.06-4.6.06h-6.44a25.694 25.694 0 01-4.32-.24 21.707 21.707 0 00.3 2.42c.06.3.22.42.46.42a15.993 15.993 0 012.94-.24zm14.22-6.48c-1.38 0-3 0-4.36-.14a18.425 18.425 0 00.24 2.14c.04.24.1.36.36.36 1.08-.1 2.56-.14 3.72-.14l8.42-.04a44.829 44.829 0 01-4.62 4.72 31.247 31.247 0 00-2.84-2.24.6.6 0 00-.28-.14.422.422 0 00-.22.1c-.36.32-1.04.96-1.44 1.34a29.98 29.98 0 016.42 6.22q.12.18.24.18a.533.533 0 00.26-.1 14.7 14.7 0 001.3-1.18.481.481 0 00.18-.32.452.452 0 00-.14-.3 21.312 21.312 0 00-1.76-2 71.5 71.5 0 005.38-5.36 5.949 5.949 0 01.96-.76.5.5 0 00.26-.42.849.849 0 00-.16-.44 9.224 9.224 0 00-1.44-1.6.493.493 0 00-.34-.16.6.6 0 00-.28.1 3.678 3.678 0 01-1.66.18zm18.46-2.58a16.136 16.136 0 01-.36 2.98 38.18 38.18 0 00-.68 6.56 18.749 18.749 0 00.92 5.96c.04.14.12.24.26.22a9.927 9.927 0 001.64-.32c.18-.04.26-.12.26-.26 0-.16-.04-.32-.04-.56a2.271 2.271 0 01.06-.62 19.553 19.553 0 011.14-3.02.553.553 0 00.1-.32.8.8 0 00-.14-.3 5.192 5.192 0 01-.7-1.26c-.58 1.4-.94 2.06-1.36 2.98a19.286 19.286 0 01-.12-2.34 32.408 32.408 0 01.84-6.46 4.725 4.725 0 01.48-1.42c.26-.4.3-.46.3-.6 0-.18-.12-.3-.46-.48a8.851 8.851 0 00-2.14-.74zm4.6 10.32a4.406 4.406 0 00.7 2.6c.86 1.18 2.24 1.66 5.2 1.66a26.853 26.853 0 003.26-.22c.34-.04.34-.06.34-.3a14.817 14.817 0 00-.12-1.72c-.04-.26-.08-.28-.28-.26a28.669 28.669 0 01-3.82.26c-2.18 0-3.14-.5-3.26-1.88 0-.22-.04-.32-.2-.3zm.64-5.68a24.451 24.451 0 014.54-.46c1.02 0 2.06.04 3.26.12.18.02.24-.06.26-.24.04-.56.04-1.1.04-1.7 0-.2-.04-.24-.46-.26-.84-.08-1.76-.12-2.96-.12a31.932 31.932 0 00-4.34.36c-.2.04-.26.1-.28.34-.04.34-.04.84-.06 1.96zm17.42-5.18a13.3 13.3 0 01.2 3.66c-.1 2.4-.28 5.28-.28 8.64 0 3.06 1.2 4.08 3.76 4.08a11.426 11.426 0 007.58-3c.32-.28.4-.44.4-.62a1.315 1.315 0 00-.16-.48 6.953 6.953 0 01-.46-1.9c-2.44 2.6-5.22 3.68-7 3.68-1.6 0-1.84-.46-1.84-2.48 0-2.62.1-4.66.3-7.74a11.988 11.988 0 01.28-2.44 1.94 1.94 0 00.2-.66c0-.2-.14-.3-.48-.38a20.685 20.685 0 00-2.5-.36zm24.44 3.28c.14-.5.28-1.18.48-1.9a3.808 3.808 0 01.42-.8.48.48 0 00.1-.32.333.333 0 00-.22-.32 11.656 11.656 0 00-2.52-.56 13.761 13.761 0 01-.12 1.84c-.14.82-.3 1.7-.5 2.5a27.029 27.029 0 01-3.24.2 9.23 9.23 0 01-1.48-.06c.1.72.2 1.4.28 1.82.04.26.12.32.42.32.94 0 2.34-.1 3.5-.22a75.076 75.076 0 01-3.46 9.48.322.322 0 00.16.4c.42.24 1.4.66 1.6.74.22.06.34.08.44-.2 1.28-3.32 2.3-6.38 3.66-10.82a31.939 31.939 0 003.48-.76c.26-.06.32-.12.3-.38-.02-.42-.08-1-.14-1.44-.02-.16-.1-.26-.32-.2-.98.28-2.06.54-2.84.68zm.36 9.18a3.9 3.9 0 00.9 2.74c.9.94 2.26 1.3 4.88 1.3a23.766 23.766 0 002.72-.22c.32-.02.34-.08.32-.32a12.5 12.5 0 00-.16-1.74c-.02-.16-.08-.2-.24-.18a29.9 29.9 0 01-3.36.28c-1.92 0-2.9-.42-3.06-1.88-.02-.2-.1-.28-.3-.28a10.186 10.186 0 00-1.7.3zm1.56-3.78a22.133 22.133 0 014.02-.46 13.375 13.375 0 012.48.24c.28.06.38-.02.38-.36a14.117 14.117 0 00-.02-1.6c0-.24-.06-.26-.34-.3a14.565 14.565 0 00-2.34-.2 20.888 20.888 0 00-3.9.46c-.3.06-.36.12-.36.4 0 .4.04 1.12.08 1.82zM93.2 551.16c.04.88-.12 1.08-.58 1.18a14.337 14.337 0 01-2.82.2 4.057 4.057 0 011.4 1.78c.1.26.24.34.62.34a6.126 6.126 0 002.76-.7 2.1 2.1 0 00.96-2.12l-.36-7.52h1.62c1.24 0 2.38.04 3.84.1a.253.253 0 00.28-.28c.02-.56.02-1.18 0-1.74 0-.14-.1-.24-.3-.24-1.48.06-2.48.1-3.88.1H95l-.06-1.52a5.68 5.68 0 01.08-1.84 1.123 1.123 0 00.08-.3c0-.12-.06-.2-.26-.24a17.523 17.523 0 00-2.52-.22 10.027 10.027 0 01.32 2.36l.08 1.78h-4.76c-1.2 0-2.38-.02-3.58-.1a17.857 17.857 0 00.16 1.94c.02.22.1.36.28.34 1.04-.06 2.16-.1 3.2-.1l3.5-.02a19.225 19.225 0 01-2.94 3.1 23.567 23.567 0 01-4.66 3.16 4.525 4.525 0 011.64 1.18.417.417 0 00.34.2.843.843 0 00.46-.18 22.551 22.551 0 003.78-2.8 16.564 16.564 0 002.82-3.08zm12.98-9.62a21.171 21.171 0 014.08 3.26c.1.1.18.16.26.16s.14-.06.24-.16c.28-.3.94-1.1 1.24-1.5a.43.43 0 00.12-.26c0-.08-.06-.16-.18-.28a20.855 20.855 0 00-3.82-2.84.533.533 0 00-.26-.1.375.375 0 00-.28.16c-.38.4-.96 1.02-1.4 1.56zm.44 9.98a13.857 13.857 0 001.6 2.22.518.518 0 00.34.22.553.553 0 00.36-.2 6.9 6.9 0 011.34-.92 43 43 0 006.04-3.92 32.69 32.69 0 004.6-4.24c.22-.26.32-.42.32-.6a.978.978 0 00-.1-.38 8.928 8.928 0 01-.56-2.34 30.047 30.047 0 01-5.48 5.44 29.645 29.645 0 01-5.76 3.72 12.049 12.049 0 01-2.7 1zm29.9-10.6c1.22 0 2.16.04 2.82.04.3.02.36-.06.36-.4a10.155 10.155 0 000-1.56c0-.22-.06-.32-.24-.32-.78.04-1.84.1-3.14.1h-3.6a27.555 27.555 0 01-3.28-.14 17.431 17.431 0 00.1 1.92c.02.32.08.44.28.44.84-.06 1.84-.08 2.74-.08zm1.52 4.28c-1.44 3.86-4.7 6.62-8.4 8.34a5.863 5.863 0 011.86 1.04.653.653 0 00.44.24.961.961 0 00.4-.14 17.481 17.481 0 008.16-8.84 2.291 2.291 0 01.68-.94.482.482 0 00.22-.38.589.589 0 00-.2-.42 11.8 11.8 0 00-1.34-1.24.515.515 0 00-.3-.14.43.43 0 00-.26.12 2.2 2.2 0 01-1.06.22h-6.86a35.394 35.394 0 01-3.68-.16 15.161 15.161 0 00.22 2.02c.04.26.12.38.3.38 1-.06 2-.08 3-.08zm19.74-1.56a31.658 31.658 0 002.34-2.52 6.589 6.589 0 011.2-1.1.572.572 0 00.28-.44.354.354 0 00-.16-.3 17.793 17.793 0 00-2.22-1.4 5.8 5.8 0 01-1.26 2.06 32.449 32.449 0 01-4.26 4.18 32.1 32.1 0 01-6.3 4.1 7.486 7.486 0 011.72 1.18.557.557 0 00.42.2.564.564 0 00.3-.08 34.6 34.6 0 005.5-3.84v4.66c0 1.36-.06 2.66-.08 4.1-.02.24.06.32.28.32a16.681 16.681 0 002 0c.22 0 .32-.08.3-.34-.04-1.6-.06-2.78-.06-4.16zm11.4-2.1a21.171 21.171 0 014.08 3.26c.1.1.18.16.26.16s.14-.06.24-.16c.28-.3.94-1.1 1.24-1.5a.43.43 0 00.12-.26c0-.08-.06-.16-.18-.28a20.855 20.855 0 00-3.82-2.84.533.533 0 00-.26-.1.375.375 0 00-.28.16c-.38.4-.96 1.02-1.4 1.56zm.44 9.98a13.858 13.858 0 001.6 2.22.518.518 0 00.34.22.553.553 0 00.36-.2 6.9 6.9 0 011.34-.92 43 43 0 006.04-3.92 32.69 32.69 0 004.6-4.24c.22-.26.32-.42.32-.6a.978.978 0 00-.1-.38 8.927 8.927 0 01-.56-2.34 30.047 30.047 0 01-5.48 5.44 29.645 29.645 0 01-5.76 3.72 12.049 12.049 0 01-2.7 1zm31.78-1.86h-6.86c-1.58 0-2.74-.04-3.68-.1a18.961 18.961 0 00.1 2.08c.02.22.1.3.28.3.96-.02 2.02-.08 3.28-.08h6.88v.8c0 .3.06.32.38.34a12.921 12.921 0 001.76 0c.28-.02.36-.08.36-.28-.02-.56-.08-2.16-.08-3.62v-4.78c0-1.06.04-2.1.04-3.16.02-.26-.08-.34-.4-.34-1.06.04-2.12.08-3.16.08h-5.94a28.612 28.612 0 01-3.34-.14c0 .66.04 1.6.1 2.14 0 .24.08.34.3.34a27.525 27.525 0 013-.12h6.98zm9.78-8.12a21.171 21.171 0 014.08 3.26c.1.1.18.16.26.16s.14-.06.24-.16c.28-.3.94-1.1 1.24-1.5a.43.43 0 00.12-.26c0-.08-.06-.16-.18-.28a20.855 20.855 0 00-3.82-2.84.533.533 0 00-.26-.1.375.375 0 00-.28.16c-.38.4-.96 1.02-1.4 1.56zm.44 9.98a13.858 13.858 0 001.6 2.22.518.518 0 00.34.22.553.553 0 00.36-.2 6.9 6.9 0 011.34-.92 43 43 0 006.04-3.92 32.69 32.69 0 004.6-4.24c.22-.26.32-.42.32-.6a.978.978 0 00-.1-.38 8.927 8.927 0 01-.56-2.34 30.047 30.047 0 01-5.48 5.44 29.645 29.645 0 01-5.76 3.72 12.049 12.049 0 01-2.7 1zm32.02-5.7c1.38 0 2.76.04 3.8.08.18 0 .3-.08.3-.34.02-.26.02-1.28 0-1.54 0-.28-.02-.4-.22-.4-1.18.08-2.34.12-3.9.12h-8.98c-1.16 0-2.28 0-3.4-.1a12.033 12.033 0 00.16 1.92c.02.26.08.4.26.38 1.02-.06 2-.12 3-.12h3.8a8.495 8.495 0 01-1.02 4.3 8.882 8.882 0 01-3.98 3.56 5.254 5.254 0 011.78 1.06.589.589 0 00.42.2 1.218 1.218 0 00.6-.24 10.075 10.075 0 003.52-3.78 11.424 11.424 0 001.18-5.1zm-2.16-4.64c1.1 0 2.28.02 3.36.06.22 0 .26-.1.26-.38a8.9 8.9 0 000-1.46c0-.26-.04-.38-.24-.38-1 .06-2.26.08-3.38.08H237c-.9 0-1.92-.02-3.32-.1.06.72.08 1.44.14 1.92.02.24.08.34.34.34 1.12-.04 1.92-.08 2.84-.08zm11.7.36a21.171 21.171 0 014.08 3.26c.1.1.18.16.26.16s.14-.06.24-.16c.28-.3.94-1.1 1.24-1.5a.43.43 0 00.12-.26c0-.08-.06-.16-.18-.28a20.855 20.855 0 00-3.82-2.84.533.533 0 00-.26-.1.375.375 0 00-.28.16c-.38.4-.96 1.02-1.4 1.56zm.44 9.98a13.857 13.857 0 001.6 2.22.518.518 0 00.34.22.553.553 0 00.36-.2 6.9 6.9 0 011.34-.92 43 43 0 006.04-3.92 32.69 32.69 0 004.6-4.24c.22-.26.32-.42.32-.6a.978.978 0 00-.1-.38 8.928 8.928 0 01-.56-2.34 30.047 30.047 0 01-5.48 5.44 29.645 29.645 0 01-5.76 3.72 12.049 12.049 0 01-2.7 1zm19.9-10.16a15.91 15.91 0 012.34 4.04c.1.28.22.42.52.3a12.233 12.233 0 001.54-.78c.16-.1.24-.18.24-.3a.763.763 0 00-.08-.26 16.069 16.069 0 00-2.24-3.78.372.372 0 00-.54-.14 15.6 15.6 0 00-1.78.92zm5.16-1.3a16.058 16.058 0 012.06 4.04c.1.32.22.36.54.24a13.4 13.4 0 001.52-.72.39.39 0 00.2-.56 16.632 16.632 0 00-1.96-3.7.371.371 0 00-.52-.16c-.6.26-1.24.58-1.84.86zm8-.5a9.026 9.026 0 01-.58 2.62 24.017 24.017 0 01-3.46 6.2 22.946 22.946 0 01-5.94 5.28 6.132 6.132 0 011.92.94.585.585 0 00.34.14.843.843 0 00.46-.18 21.557 21.557 0 005.28-4.96 30.873 30.873 0 003.88-6.8 3.979 3.979 0 01.78-1.32.493.493 0 00.16-.34.461.461 0 00-.22-.4 14.33 14.33 0 00-2.62-1.18z" fill="#292929"/></g></svg>