<svg xmlns="http://www.w3.org/2000/svg" width="377" height="74"><g opacity=".1"><path d="M0 71.5v-2.339q4.974 0 4.977-2.34V7.801q0-2.34-4.977-2.34V3.122h47.345q12.912 0 20.31 4.614t7.4 15.665q0 11.051-7.4 15.665t-20.31 4.615H20.311v23.14q0 2.339 4.3 2.34V71.5zm48.959-39.779a15.91 15.91 0 007.6-1.69q3.157-1.687 3.161-6.63t-3.161-6.63a15.933 15.933 0 00-7.6-1.691H20.311v16.641zm85.946-28.599a57.064 57.064 0 0111.7 1.1 26.928 26.928 0 019.011 3.51 16.342 16.342 0 015.784 6.24 20.063 20.063 0 012.018 9.425q0 8.582-5.246 13.13t-14.122 6.11l17.888 24.7a3.627 3.627 0 002.219 1.561 11.725 11.725 0 002.355.26v2.339h-25.153v-2.339a5.09 5.09 0 002.085-.39c.582-.261.874-.606.874-1.04a2.9 2.9 0 00-.538-1.5q-.539-.844-1.614-2.275l-14.8-20.28h-19.233v23.14a1.971 1.971 0 00.874 1.756 6.092 6.092 0 003.161.584v2.339h-23.27v-2.339q3.9 0 3.9-2.34V7.793q0-2.34-3.9-2.34V3.114zm-3.5 30.419a38.2 38.2 0 008.07-.714 14.557 14.557 0 005.112-2.016 7.592 7.592 0 002.689-3.055 9.5 9.5 0 000-7.67 7.613 7.613 0 00-2.689-3.055 14.576 14.576 0 00-5.112-2.015 38.192 38.192 0 00-8.07-.715h-23.268v19.24zm50.977 35.62q3.495 0 3.5-2.34V7.801q0-2.34-3.5-2.34V3.122h22.327v2.339q-3.5 0-3.5 2.34v59.02q0 2.339 3.5 2.34V71.5h-22.327zm82.315-54.86h-36.585q-4.035 0-4.035 3.64h-2.421V0h2.421q0 3.12 4.035 3.122h62.005V6.76l-42.771 52.781h36.585q3.762 0 3.765-2.86h2.421v17.29h-2.421q0-2.47-3.765-2.471h-62.678v-3.639zm108.81 2.86a2.366 2.366 0 00-1.143-2.145 7.965 7.965 0 00-3.968-.715h-43.579V30.42h26.365a9.79 9.79 0 004.17-.715q1.478-.711 1.479-3.705h2.421v20.281h-2.421q0-2.99-1.479-3.835a8.5 8.5 0 00-4.17-.845h-26.363v17.94h44.924a5.537 5.537 0 003.295-.91 2.873 2.873 0 001.278-2.47h2.421v17.81h-2.421q0-1.952-1.278-2.211a16.968 16.968 0 00-3.295-.26h-62.678v-2.339a2.652 2.652 0 001.681-.584 2.108 2.108 0 00.74-1.756V7.801a2.108 2.108 0 00-.74-1.756 2.647 2.647 0 00-1.681-.584V3.122h61.333a6.917 6.917 0 003.968-.846A2.686 2.686 0 00373.509 0h2.421v17.161z" fill="#fed438"/><path fill="none" d="M0 0h377v74H0z"/></g></svg>