<svg version="1.1" id="レイヤー_1" xmlns="http://www.w3.org/2000/svg" x="0" y="0" viewBox="0 0 284 84" xml:space="preserve"><style>.st1{fill:#fff}</style><path fill="none" d="M5905.115 1219.561h284v84h-284z" transform="translate(-5905.115 -1219.561)"/><path class="st1" d="M8171.916 1250.48v-1.08c1.533 0 2.3-.36 2.3-1.08v-27.24c0-.72-.767-1.08-2.3-1.08v-1.08h21.852c3.973 0 7.098.71 9.375 2.13s3.415 3.83 3.414 7.23c0 3.4-1.138 5.81-3.414 7.23-2.276 1.42-5.401 2.13-9.375 2.131h-12.477v10.679c0 .72.66 1.08 1.986 1.08v1.08h-11.361zm22.6-18.36a7.349 7.349 0 003.506-.78 3.938 3.938 0 000-6.119 7.338 7.338 0 00-3.506-.781h-13.223v7.68h13.223zm46.369-11.04c0-.72-.457-1.08-1.365-1.08v-1.08h9.559v1.08a1.206 1.206 0 00-.775.271.967.967 0 00-.342.809v27.24a.966.966 0 00.342.81c.219.178.493.273.775.27v1.08h-9.559v-1.08c.908 0 1.365-.36 1.365-1.08v-11.28h-19.99v11.28a.973.973 0 00.342.81c.22.178.495.274.777.27v1.08h-9.375v-1.08c.785 0 1.18-.36 1.18-1.08v-27.24c0-.72-.395-1.08-1.18-1.08v-1.08h9.375v1.08a1.212 1.212 0 00-.777.271c-.236.2-.363.5-.342.809v10.2h19.99v-10.2zm35.199-2.519c2.352.011 4.69.344 6.951.989 2.3.632 4.48 1.636 6.457 2.971a16.251 16.251 0 014.779 5.009 14.729 14.729 0 010 14.34 16.255 16.255 0 01-4.779 5.01 20.318 20.318 0 01-6.457 2.88 27.307 27.307 0 01-13.9 0 20.318 20.318 0 01-6.457-2.88 16.266 16.266 0 01-4.779-5.01 14.729 14.729 0 010-14.34 16.297 16.297 0 014.779-5.009 21.912 21.912 0 016.457-2.971 25.766 25.766 0 016.949-.989zm0 5.519c-1.6.004-3.19.247-4.719.72a14.629 14.629 0 00-4.252 2.07 10.886 10.886 0 00-3.072 3.33 9.172 9.172 0 000 9 10.85 10.85 0 003.072 3.33 14.606 14.606 0 004.252 2.071c3.072.959 6.363.959 9.436 0a14.606 14.606 0 004.252-2.071 10.892 10.892 0 003.074-3.33 9.172 9.172 0 000-9 10.916 10.916 0 00-3.074-3.33 14.629 14.629 0 00-4.252-2.07 16.084 16.084 0 00-4.717-.72zm44.758 24.24c0 .72.455 1.08 1.365 1.08v1.08h-9.559v-1.08c.282.003.557-.092.775-.27a.975.975 0 00.342-.81v-23.88h-10.244a2.182 2.182 0 00-1.086.3c-.377.25-.58.691-.527 1.14h-1.117v-8.4h1.117c-.055.449.149.891.527 1.14.329.194.704.298 1.086.3h27.563a2.169 2.169 0 001.088-.3c.377-.25.58-.691.527-1.14h1.117v8.4h-1.117c.053-.449-.15-.89-.527-1.14a2.19 2.19 0 00-1.088-.3h-10.242v23.88zm36.5-29.759c2.352.011 4.691.344 6.953.989a21.9 21.9 0 016.455 2.971 16.292 16.292 0 014.781 5.009 14.744 14.744 0 010 14.34 16.284 16.284 0 01-4.781 5.01 20.298 20.298 0 01-6.455 2.88 27.308 27.308 0 01-13.906 0 20.32 20.32 0 01-6.455-2.88 16.273 16.273 0 01-4.781-5.01 14.744 14.744 0 010-14.34 16.304 16.304 0 014.781-5.009 21.926 21.926 0 016.455-2.971 25.789 25.789 0 016.953-.989zm0 5.519c-1.6.004-3.189.247-4.717.72a14.652 14.652 0 00-4.254 2.07 10.897 10.897 0 00-3.072 3.33 9.172 9.172 0 000 9 10.886 10.886 0 003.072 3.33 14.605 14.605 0 004.254 2.071c3.072.959 6.363.959 9.436 0a14.637 14.637 0 004.253-2.071 10.906 10.906 0 003.071-3.33 9.172 9.172 0 000-9 10.941 10.941 0 00-3.071-3.33 14.66 14.66 0 00-4.253-2.07 16.107 16.107 0 00-4.719-.72z" transform="translate(-8136.363 -1216.48)"/><path class="st1" d="M8172.8 1296.16a1.866 1.866 0 01-.342-.029 1.762 1.762 0 00-.34-.03 5.842 5.842 0 00-1.769.719c-.933.481-2.113 1.021-3.539 1.62a31.926 31.926 0 01-4.874 1.56 24.18 24.18 0 01-5.71.66 28.987 28.987 0 01-7.512-.96 18.947 18.947 0 01-6.363-2.97 14.764 14.764 0 01-4.377-5.009 16.008 16.008 0 010-14.01 14.981 14.981 0 014.377-5.07 19.604 19.604 0 016.363-3.061 27.407 27.407 0 017.512-1.019 31.57 31.57 0 015.742.479c1.717.321 3.217.661 4.5 1.021 1.035.276 2.051.616 3.043 1.019.433.219.891.38 1.365.481a.634.634 0 00.527-.3c.145-.2.258-.361.342-.481l.932.72-4.844 7.261-.619-.42a2.295 2.295 0 00-.031-.361 6.249 6.249 0 00-.094-.419c-.084-.44-.5-.89-1.242-1.35a13.062 13.062 0 00-2.762-1.231 29.187 29.187 0 00-3.477-.9 17.71 17.71 0 00-3.382-.359 17.311 17.311 0 00-5 .719 12.626 12.626 0 00-4.158 2.1 10.357 10.357 0 00-2.824 3.391 10.488 10.488 0 000 9.179 10.319 10.319 0 002.824 3.39 12.607 12.607 0 004.158 2.1c1.623.483 3.307.726 5 .719a20.392 20.392 0 004.158-.45 25.645 25.645 0 003.974-1.14 13.29 13.29 0 003.01-1.559c.808-.58 1.211-1.13 1.211-1.65a1.103 1.103 0 00-.248-.72l.869-.481 4.1 6.361-.5.48zm26.075-27.599a25.75 25.75 0 016.953.99 21.898 21.898 0 016.455 2.97 16.304 16.304 0 014.781 5.009 14.744 14.744 0 010 14.34 16.288 16.288 0 01-4.781 5.011 20.342 20.342 0 01-6.455 2.88 27.33 27.33 0 01-13.906 0 20.352 20.352 0 01-6.455-2.88 16.276 16.276 0 01-4.781-5.011 14.74 14.74 0 010-14.34 16.292 16.292 0 014.781-5.009 21.924 21.924 0 016.455-2.97 25.756 25.756 0 016.953-.99zm0 5.519c-1.6.004-3.189.247-4.717.721a14.612 14.612 0 00-4.254 2.069 10.933 10.933 0 00-3.072 3.33 9.167 9.167 0 000 9 10.886 10.886 0 003.072 3.33 14.617 14.617 0 004.254 2.071c3.072.959 6.363.959 9.436 0a14.631 14.631 0 004.252-2.071 10.897 10.897 0 003.072-3.33 9.172 9.172 0 000-9 10.933 10.933 0 00-3.072-3.33 14.6 14.6 0 00-4.252-2.069 16.07 16.07 0 00-4.719-.721zm26.693 25.32c.785 0 1.18-.36 1.18-1.08v-27.24c0-.72-.395-1.08-1.18-1.08v-1.079h10.615V1270c-.332 0-.5.2-.5.6 0 .32.411.879 1.241 1.679l17.814 17.88v-19.08c0-.72-.537-1.08-1.613-1.08v-1.079h9.373v1.08c-.785 0-1.178.36-1.178 1.08v27.24c0 .72.393 1.08 1.178 1.08v1.08h-10.057v-1.08c.539 0 .809-.179.809-.54 0-.279-.332-.739-.994-1.38l-18.934-19.08v19.92c0 .72.477 1.08 1.428 1.08v1.08h-9.187l.005-1.08zm64.5-1.08c0 .72.455 1.08 1.365 1.08v1.08h-9.559v-1.08c.282.003.556-.092.775-.269a.979.979 0 00.342-.811v-23.88h-10.244a2.182 2.182 0 00-1.086.3c-.377.25-.581.692-.527 1.141h-1.117v-8.4h1.117c-.055.449.149.891.527 1.14.329.194.704.298 1.086.3h27.563a2.169 2.169 0 001.088-.3c.377-.25.58-.691.527-1.14h1.117v8.4h-1.117a1.198 1.198 0 00-.527-1.141 2.19 2.19 0 00-1.088-.3h-10.242v23.88zm50.84-22.92a1.094 1.094 0 00-.527-.99 3.672 3.672 0 00-1.83-.33h-20.112v7.441h12.161a4.537 4.537 0 001.926-.331c.453-.219.681-.789.682-1.71h1.117v9.361h-1.117c0-.92-.228-1.51-.682-1.771a3.945 3.945 0 00-1.926-.389h-12.165v8.28h20.731a2.562 2.562 0 001.521-.421c.38-.253.603-.684.59-1.14h1.117v8.22h-1.117c0-.6-.2-.94-.59-1.019a7.76 7.76 0 00-1.521-.121h-28.928v-1.08c.282.003.556-.092.775-.269a.972.972 0 00.342-.811v-27.24a.964.964 0 00-.342-.809 1.22 1.22 0 00-.775-.271v-1.079h28.309a3.18 3.18 0 001.83-.391c.342-.239.54-.634.527-1.05h1.117v7.92h-1.113zm11.299 15.18l.621.3c-.007.337.079.669.248.96a4.361 4.361 0 001.707 1.409c.934.497 1.91.909 2.918 1.23 1.127.369 2.278.66 3.445.871 1.063.206 2.144.316 3.227.33.703 0 1.614-.05 2.732-.151a16.646 16.646 0 003.289-.63 9.359 9.359 0 002.795-1.32 2.6 2.6 0 001.18-2.22 2.22 2.22 0 00-1.088-2.04 8.202 8.202 0 00-2.855-.96 31.943 31.943 0 00-4.035-.389c-1.51-.061-3.052-.151-4.625-.271a43.292 43.292 0 01-4.623-.6 13.04 13.04 0 01-4.035-1.411 7.881 7.881 0 01-2.855-2.7 8.225 8.225 0 01-1.088-4.469 8.126 8.126 0 01.9-3.661 8.975 8.975 0 012.764-3.179 15.404 15.404 0 014.717-2.25 23.126 23.126 0 016.705-.87 29.795 29.795 0 015.711.479c1.613.321 3.01.661 4.189 1.021s2.173.7 2.98 1.019a5.718 5.718 0 002.018.481c.445.042.889-.087 1.242-.361l.744.481-4.283 7.5-.621-.241a3.253 3.253 0 00-.5-1.379 5.264 5.264 0 00-1.645-1.411c-.856-.5-1.761-.912-2.7-1.229a22.673 22.673 0 00-3.352-.87 19.496 19.496 0 00-6.426-.12c-.898.122-1.782.333-2.639.63a5.852 5.852 0 00-1.955 1.11 2.2 2.2 0 00-.775 1.71 2.415 2.415 0 001.086 2.159 8.04 8.04 0 002.855 1.08c1.331.259 2.68.42 4.035.481 1.51.08 3.051.18 4.625.3 1.553.118 3.098.328 4.625.63a13.68 13.68 0 014.035 1.441 7.414 7.414 0 013.941 7.05 7.533 7.533 0 01-1.707 5.1 12.014 12.014 0 01-4.252 3.12 19.628 19.628 0 01-5.494 1.531 42.247 42.247 0 01-5.494.389 37.807 37.807 0 01-5.928-.389 22.822 22.822 0 01-3.975-.96 27.212 27.212 0 01-2.514-1.021 3.83 3.83 0 00-1.613-.449c-.33.022-.63.2-.807.479l-.869-.479 3.419-7.261zm54.254 7.74c0 .72.456 1.08 1.367 1.08v1.08h-9.561v-1.08c.282.003.556-.092.775-.269a.972.972 0 00.342-.811v-23.88h-10.242a2.172 2.172 0 00-1.086.3c-.378.25-.582.691-.529 1.141h-1.117v-8.4h1.117c-.055.45.15.892.529 1.14.329.195.704.298 1.086.3h27.563a2.162 2.162 0 001.086-.3c.378-.249.582-.691.527-1.14h1.117v8.4h-1.117a1.198 1.198 0 00-.527-1.141 2.182 2.182 0 00-1.086-.3h-10.244v23.88z" transform="translate(-8136.363 -1218.48)"/></svg>