<svg xmlns="http://www.w3.org/2000/svg" width="174" height="35"><path fill="none" d="M0 0h174v35H0z"/><path d="M0 33v-1.08q2.3 0 2.3-1.08V3.6q0-1.08-2.3-1.08V1.44h21.852q5.959 0 9.373 2.13t3.414 7.23q0 5.1-3.414 7.23t-9.373 2.13H9.373v10.68q0 1.08 1.987 1.08V33zm22.6-18.36a7.338 7.338 0 003.508-.78 3.938 3.938 0 000-6.12 7.362 7.362 0 00-3.508-.78H9.377v7.68zm39.664-13.2a26.352 26.352 0 015.4.51 12.435 12.435 0 014.158 1.62 7.547 7.547 0 012.67 2.88 9.257 9.257 0 01.932 4.35 7.582 7.582 0 01-2.422 6.06 13.232 13.232 0 01-6.518 2.821l8.256 11.4a1.674 1.674 0 001.025.72 5.394 5.394 0 001.086.12v1.08H65.242v-1.08a2.352 2.352 0 00.963-.18c.268-.12.4-.279.4-.48a1.33 1.33 0 00-.248-.69c-.166-.26-.414-.609-.744-1.05l-6.828-9.36h-8.877v10.68a.906.906 0 00.4.81 2.806 2.806 0 001.459.27v1.08H41.028v-1.08q1.8 0 1.8-1.08V3.601q0-1.08-1.8-1.08v-1.08zm-1.615 14.04a17.6 17.6 0 003.725-.33 6.717 6.717 0 002.359-.929 3.519 3.519 0 001.242-1.411 4.407 4.407 0 000-3.54 3.524 3.524 0 00-1.242-1.41 6.717 6.717 0 00-2.359-.929 17.6 17.6 0 00-3.725-.331H49.911v8.88zm23.527 16.44q1.614 0 1.613-1.08V3.6q0-1.08-1.613-1.08V1.44h10.3v1.08q-1.614 0-1.613 1.08v27.24q0 1.08 1.613 1.08V33h-10.3zM122.168 6.6h-16.885q-1.863 0-1.863 1.68h-1.117V0h1.117q0 1.44 1.863 1.44H133.9v1.68l-19.74 24.36h16.885q1.737 0 1.738-1.32h1.117v7.98h-1.117q0-1.14-1.738-1.14h-28.928v-1.68zm50.219 1.32a1.088 1.088 0 00-.527-.989 3.664 3.664 0 00-1.83-.331h-20.113v7.44h12.166a4.52 4.52 0 001.926-.33q.68-.328.682-1.71h1.117v9.36h-1.114q0-1.38-.682-1.77a3.925 3.925 0 00-1.926-.39H149.92v8.28h20.732a2.555 2.555 0 001.521-.42 1.328 1.328 0 00.59-1.14h1.117v8.22h-1.117q0-.9-.59-1.02a7.874 7.874 0 00-1.521-.12h-28.928v-1.08a1.215 1.215 0 00.775-.27.966.966 0 00.342-.81V3.6a.969.969 0 00-.342-.81 1.215 1.215 0 00-.775-.27V1.44h28.309a3.189 3.189 0 001.83-.39A1.238 1.238 0 00172.39 0h1.117v7.92z" fill="#292929"/></svg>