<svg xmlns="http://www.w3.org/2000/svg" width="1222" height="74"><path d="M66.439 17.157a2.373 2.373 0 00-1.142-2.146 8 8 0 00-3.969-.714H17.75v16.12h26.361a9.8 9.8 0 004.17-.715q1.479-.714 1.481-3.705h2.419v20.28h-2.419q0-2.99-1.481-3.836a8.507 8.507 0 00-4.17-.844H17.75v17.94h44.924a5.556 5.556 0 003.295-.91 2.877 2.877 0 001.277-2.47h2.422v17.81h-2.422q0-1.95-1.277-2.21a16.958 16.958 0 00-3.295-.26H-.004v-2.34a2.638 2.638 0 001.68-.585 2.107 2.107 0 00.74-1.756V7.797a2.1 2.1 0 00-.74-1.755 2.638 2.638 0 00-1.68-.585v-2.34h61.332a6.907 6.907 0 003.969-.846 2.688 2.688 0 001.142-2.274h2.42v17.16zm99.668-11.7a4.29 4.29 0 00-3.9 1.885 26.436 26.436 0 00-1.748 3.054l-23.807 50.571q-1.209 2.6-2.017 4.16a5.894 5.894 0 00-.807 2.21 1.533 1.533 0 00.336 1.04 5.119 5.119 0 00.873.78v2.34h-20.578v-2.34a1.837 1.837 0 001.211-1.82 8.145 8.145 0 00-1.01-2.665q-1.008-2.013-2.488-5L87.963 8.842a4.394 4.394 0 00-1.883-2.08 18.406 18.406 0 00-3.5-1.3v-2.34h24.076v2.34a3.886 3.886 0 00-1.816.455 1.791 1.791 0 00-.873 1.755 8.4 8.4 0 001.142 3.639q1.143 2.213 2.758 5.461l17.215 35.75 16.814-35.23q1.616-3.379 3.026-6.045a10.01 10.01 0 001.412-3.705q0-2.077-3.766-2.08v-2.34h23.537zm79.76 11.7a2.373 2.373 0 00-1.142-2.146 8 8 0 00-3.969-.714h-43.578v16.12h26.361a9.8 9.8 0 004.17-.715q1.479-.714 1.48-3.705h2.42v20.28h-2.42q0-2.99-1.48-3.836a8.508 8.508 0 00-4.17-.844h-26.361v17.94h44.924a5.551 5.551 0 003.294-.91 2.876 2.876 0 001.278-2.47h2.422v17.81h-2.422q0-1.95-1.278-2.21a16.941 16.941 0 00-3.294-.26h-62.678v-2.34a2.634 2.634 0 001.679-.585 2.1 2.1 0 00.741-1.756V7.797a2.1 2.1 0 00-.741-1.755 2.634 2.634 0 00-1.679-.585v-2.34h61.332a6.908 6.908 0 003.969-.846 2.688 2.688 0 001.142-2.274h2.42v17.16zM310.293 3.12a56.981 56.981 0 0111.7 1.1 26.935 26.935 0 019.012 3.51 16.356 16.356 0 015.783 6.24 20.049 20.049 0 012.018 9.424q0 8.581-5.247 13.131t-14.121 6.109l17.889 24.7a3.62 3.62 0 002.219 1.559 11.673 11.673 0 002.353.261v2.34h-25.152v-2.337a5.1 5.1 0 002.086-.39c.582-.26.873-.6.873-1.041a2.907 2.907 0 00-.537-1.494q-.54-.843-1.615-2.275l-14.8-20.28h-19.233v23.139a1.969 1.969 0 00.873 1.756 6.069 6.069 0 003.162.585v2.34h-23.269v-2.34q3.9 0 3.9-2.341V7.797q0-2.34-3.9-2.34v-2.34zm-3.5 30.42a38.136 38.136 0 008.07-.715 14.511 14.511 0 005.112-2.016 7.591 7.591 0 002.689-3.054 9.493 9.493 0 000-7.67 7.607 7.607 0 00-2.689-3.055 14.6 14.6 0 00-5.112-2.016 38.338 38.338 0 00-8.07-.714h-23.268v19.24zm69.269-30.42v2.34a7.893 7.893 0 00-2.287.325 1.5 1.5 0 00-1.076 1.625q0 .78 1.951 3.705t4.573 6.63q2.622 3.705 5.447 7.6t4.572 6.629l15.738-20.929q1.075-1.56 1.748-2.47a2.911 2.911 0 00.672-1.691q0-.907-1.277-1.169a12 12 0 00-2.354-.26v-2.34h23.538v2.34a9.867 9.867 0 00-2.018.195 5.284 5.284 0 00-1.949.91 11.811 11.811 0 00-2.153 2.08q-1.144 1.365-2.757 3.705l-22.866 31.33v23.139q0 2.342 3.094 2.341v2.34h-21.252v-2.338a3.342 3.342 0 002.018-.585 2.025 2.025 0 00.806-1.756V43.677l-25.957-35.1a7.293 7.293 0 00-2.892-2.21 8.157 8.157 0 00-3.3-.91v-2.34zm101.01-.78a55.761 55.761 0 0115.065 2.145 47.533 47.533 0 0113.988 6.435 35.318 35.318 0 0110.355 10.854 31.917 31.917 0 010 31.071A35.31 35.31 0 01506.125 63.7a44.12 44.12 0 01-13.988 6.24 59.2 59.2 0 01-30.129 0 44.057 44.057 0 01-13.989-6.24 35.3 35.3 0 01-10.357-10.855 31.924 31.924 0 010-31.071 35.31 35.31 0 0110.357-10.854 47.457 47.457 0 0113.989-6.435 55.731 55.731 0 0115.064-2.145zm0 11.96a34.8 34.8 0 00-10.222 1.56 31.6 31.6 0 00-9.213 4.485 23.591 23.591 0 00-6.659 7.214 19.875 19.875 0 000 19.5 23.558 23.558 0 006.659 7.215 31.613 31.613 0 009.213 4.486 34.286 34.286 0 0020.443 0 31.674 31.674 0 009.215-4.486 23.628 23.628 0 006.658-7.215 19.88 19.88 0 000-19.5 23.662 23.662 0 00-6.658-7.214 31.66 31.66 0 00-9.215-4.485 34.826 34.826 0 00-10.221-1.56zm57.836 54.857q2.555 0 2.555-2.341V7.797q0-2.34-2.555-2.34v-2.34h23v2.34c-.719 0-1.076.434-1.076 1.3q0 1.041 2.689 3.639l38.6 38.74V7.797q0-2.34-3.5-2.34v-2.34h20.31v2.34q-2.557 0-2.556 2.34v59.019q0 2.342 2.556 2.341v2.34H593.14v-2.34q1.749 0 1.75-1.17 0-.907-2.152-2.99l-41.023-41.34v43.159q0 2.342 3.093 2.341v2.34h-19.906zm163.688-52a2.368 2.368 0 00-1.143-2.146 7.988 7.988 0 00-3.967-.714h-43.58v16.12h26.363a9.8 9.8 0 004.17-.715q1.477-.714 1.479-3.705h2.422v20.28h-2.422q0-2.99-1.479-3.836a8.508 8.508 0 00-4.17-.844h-26.363v17.94h44.924a5.546 5.546 0 003.3-.91 2.877 2.877 0 001.279-2.47h2.42v17.81h-2.42q0-1.95-1.279-2.21a16.924 16.924 0 00-3.3-.26h-62.678v-2.34a2.642 2.642 0 001.682-.585 2.107 2.107 0 00.74-1.756V7.797a2.1 2.1 0 00-.74-1.755 2.642 2.642 0 00-1.682-.585v-2.34h61.334a6.9 6.9 0 003.967-.846 2.681 2.681 0 001.143-2.274h2.422v17.16zm21.923 17.033a18.3 18.3 0 004.573-2.015 24.236 24.236 0 004.64-3.51 19.649 19.649 0 003.43-4.356 7.5 7.5 0 001.076-4.679 1.525 1.525 0 00-1.478-1.04 21.948 21.948 0 00-2.287-.13 8.677 8.677 0 01-5.852-2.145 7.548 7.548 0 01-2.488-6.045 8.836 8.836 0 012.758-6.5 8.659 8.659 0 016.253-2.73q5.379 0 8.139 3.769a15.23 15.23 0 012.756 9.231 19.619 19.619 0 01-1.814 8.255 27.956 27.956 0 01-4.776 7.215 30.277 30.277 0 01-6.859 5.59 26.667 26.667 0 01-8.071 3.25zm43.983 15.86l1.346.65a4 4 0 00.537 2.08 9.481 9.481 0 003.7 3.055 38.165 38.165 0 006.32 2.665 56.469 56.469 0 007.465 1.885 39.168 39.168 0 006.994.715q2.289 0 5.918-.326a36.159 36.159 0 007.129-1.364 20.279 20.279 0 006.053-2.86 5.636 5.636 0 002.556-4.81 4.818 4.818 0 00-2.353-4.421 17.684 17.684 0 00-6.188-2.079 69.1 69.1 0 00-8.742-.845q-4.913-.2-10.021-.586a93.872 93.872 0 01-10.02-1.3 28.312 28.312 0 01-8.744-3.055 17.1 17.1 0 01-6.185-5.851 17.8 17.8 0 01-2.356-9.684 17.552 17.552 0 011.951-7.93 19.412 19.412 0 015.987-6.89 33.442 33.442 0 0110.22-4.875 50.105 50.105 0 0114.528-1.885 64.368 64.368 0 0112.373 1.04q5.247 1.042 9.08 2.21t6.455 2.21a12.355 12.355 0 004.371 1.04 3.8 3.8 0 002.691-.781l1.614 1.041-9.282 16.25-1.343-.52a7.046 7.046 0 00-1.077-2.99 11.386 11.386 0 00-3.564-3.055 31.523 31.523 0 00-5.852-2.665 49.074 49.074 0 00-7.263-1.885 42.21 42.21 0 00-13.92-.26 29.882 29.882 0 00-5.717 1.365 12.708 12.708 0 00-4.236 2.4 4.755 4.755 0 00-1.682 3.705 5.237 5.237 0 002.354 4.68 17.492 17.492 0 006.187 2.34 60.027 60.027 0 008.742 1.04q4.911.261 10.022.65a84.528 84.528 0 0110.019 1.364 29.61 29.61 0 018.742 3.121 16.069 16.069 0 018.542 15.275 16.313 16.313 0 01-3.7 11.05 25.974 25.974 0 01-9.213 6.759 42.531 42.531 0 01-11.9 3.316 91.372 91.372 0 01-11.9.844 81.842 81.842 0 01-12.844-.844 49.191 49.191 0 01-8.609-2.08q-3.43-1.235-5.448-2.21a8.279 8.279 0 00-3.5-.975 2.257 2.257 0 00-1.75 1.039l-1.883-1.039zM877.885 71.5v-2.343q4.974 0 4.976-2.341V7.797q0-2.34-4.976-2.34v-2.34h47.345q12.912 0 20.311 4.615t7.4 15.664q0 11.052-7.4 15.666t-20.311 4.615h-27.035v23.139q0 2.342 4.3 2.341v2.34zm48.959-39.78a15.912 15.912 0 007.6-1.69q3.159-1.687 3.162-6.631t-3.162-6.629a15.924 15.924 0 00-7.6-1.69h-28.649v16.64zm81.508-29.38a55.742 55.742 0 0115.064 2.145 47.486 47.486 0 0113.988 6.435 35.36 35.36 0 0110.358 10.854 31.923 31.923 0 010 31.071 35.352 35.352 0 01-10.358 10.855 44.08 44.08 0 01-13.988 6.24 59.2 59.2 0 01-30.129 0 44.08 44.08 0 01-13.988-6.24 35.3 35.3 0 01-10.356-10.855 31.923 31.923 0 010-31.071 35.305 35.305 0 0110.356-10.854 47.486 47.486 0 0113.988-6.435 55.743 55.743 0 0115.065-2.145zm0 11.96a34.823 34.823 0 00-10.223 1.56 31.612 31.612 0 00-9.213 4.485 23.616 23.616 0 00-6.658 7.214 19.881 19.881 0 000 19.5 23.583 23.583 0 006.658 7.215 31.626 31.626 0 009.213 4.486 34.292 34.292 0 0020.445 0 31.677 31.677 0 009.213-4.486 23.631 23.631 0 006.658-7.215 19.881 19.881 0 000-19.5 23.665 23.665 0 00-6.658-7.214 31.663 31.663 0 00-9.213-4.485 34.831 34.831 0 00-10.222-1.56zm65.099 35.75l1.346.65a4.005 4.005 0 00.537 2.08 9.483 9.483 0 003.7 3.055 38.211 38.211 0 006.32 2.665 56.466 56.466 0 007.465 1.885 39.164 39.164 0 006.994.715q2.289 0 5.918-.326a36.159 36.159 0 007.129-1.364 20.28 20.28 0 006.053-2.86 5.637 5.637 0 002.557-4.81 4.817 4.817 0 00-2.354-4.421 17.684 17.684 0 00-6.187-2.079 69.134 69.134 0 00-8.743-.845q-4.912-.2-10.021-.586a93.876 93.876 0 01-10.02-1.3 28.311 28.311 0 01-8.744-3.055 17.107 17.107 0 01-6.185-5.851 17.8 17.8 0 01-2.356-9.684 17.565 17.565 0 011.951-7.93 19.413 19.413 0 015.987-6.89 33.446 33.446 0 0110.221-4.875 50.1 50.1 0 0114.527-1.885 64.364 64.364 0 0112.373 1.04q5.247 1.042 9.08 2.21t6.455 2.21a12.354 12.354 0 004.371 1.04 3.8 3.8 0 002.692-.781l1.613 1.041-9.281 16.25-1.344-.52a7.06 7.06 0 00-1.076-2.99 11.4 11.4 0 00-3.565-3.055 31.542 31.542 0 00-5.851-2.665 49.084 49.084 0 00-7.264-1.885 42.209 42.209 0 00-13.92-.26 29.894 29.894 0 00-5.717 1.365 12.708 12.708 0 00-4.236 2.4 4.754 4.754 0 00-1.682 3.705 5.239 5.239 0 002.354 4.68 17.5 17.5 0 006.187 2.34 60.023 60.023 0 008.743 1.04q4.909.261 10.021.65a84.568 84.568 0 0110.02 1.364 29.63 29.63 0 018.742 3.121 16.07 16.07 0 018.541 15.275 16.317 16.317 0 01-3.7 11.05 25.984 25.984 0 01-9.213 6.759 42.547 42.547 0 01-11.9 3.316 91.36 91.36 0 01-11.9.844 81.85 81.85 0 01-12.844-.844 49.189 49.189 0 01-8.609-2.08 58.685 58.685 0 01-5.447-2.21 8.287 8.287 0 00-3.5-.975 2.261 2.261 0 00-1.75 1.039l-1.882-1.039zm120.242 16.769q0 2.342 2.959 2.341v2.34h-20.713v-2.343a2.642 2.642 0 001.682-.585 2.107 2.107 0 00.74-1.756V15.077h-22.193a4.726 4.726 0 00-2.354.649 2.593 2.593 0 00-1.142 2.471h-2.422v-18.2h2.422a2.586 2.586 0 001.142 2.47 4.682 4.682 0 002.354.65h59.719a4.686 4.686 0 002.353-.65 2.589 2.589 0 001.145-2.47h2.42v18.2h-2.42a2.6 2.6 0 00-1.145-2.471 4.73 4.73 0 00-2.353-.649h-22.194z" opacity=".1" fill="#fed438"/><path fill="none" d="M0 0h1222v74H0z"/></svg>