<svg xmlns="http://www.w3.org/2000/svg" width="600" height="74"><path d="M70.074 24.179l-2.689-.78a4.739 4.739 0 00.269-1.559q0-1.952-2.488-3.51a24.977 24.977 0 00-6.322-2.666 51.751 51.751 0 00-8.338-1.625 75.131 75.131 0 00-8.541-.52 36.705 36.705 0 00-9.887 1.366 26.223 26.223 0 00-8.742 4.224 21.255 21.255 0 00-6.187 7.41 26.96 26.96 0 000 22.035 21.063 21.063 0 006.187 7.475 26.159 26.159 0 008.742 4.225 36.762 36.762 0 009.887 1.365 69.967 69.967 0 0013.785-1.234 89.937 89.937 0 0010.424-2.665V46.539H48.959a4.348 4.348 0 00-2.826.78q-.941.781-1.209 3.38h-2.422v-16.64h2.422q.267 2.213 1.209 2.795a5.436 5.436 0 002.826.585h33.629v2.34a8.7 8.7 0 00-3.363.91 2.737 2.737 0 00-.672 2.21V57.59a1.683 1.683 0 00.807 1.689c.539.26 1.164.565 1.882.91v2.08a49.13 49.13 0 01-9.347 4.94 63.76 63.76 0 01-9.953 3.055 61.684 61.684 0 01-10.088 1.365q-5.043.261-9.885.26a60.632 60.632 0 01-17.15-2.274 37.435 37.435 0 01-13.248-6.761 30.757 30.757 0 01-8.541-10.92 36.855 36.855 0 010-29.25 31.4 31.4 0 018.541-10.985 38.547 38.547 0 0113.248-6.955 57.624 57.624 0 0117.15-2.4 78.733 78.733 0 0111.3.779q5.379.78 9.551 1.756t6.925 1.819a17.288 17.288 0 003.43.845 3 3 0 001.883-.52 12.408 12.408 0 011.346-.91l1.613.91zM92.67 69.16a3.958 3.958 0 002.758-1.69 28.056 28.056 0 001.949-3.25l24.883-50.571q.94-1.687 1.682-3.12a5.585 5.585 0 00.74-2.47 1.906 1.906 0 00-.942-1.819 8.233 8.233 0 00-2.017-.781v-2.34h22.73v2.34a11.366 11.366 0 00-1.883.715 1.881 1.881 0 00-.941 1.885 4.947 4.947 0 00.471 2.08q.468 1.042 1.412 2.73l27.976 52.91a4.475 4.475 0 001.815 2.08 28.177 28.177 0 002.623 1.3v2.34h-23.672v-2.34a3.27 3.27 0 001.346-.391 1.248 1.248 0 00.806-1.17 7.909 7.909 0 00-1.076-3.379l-5.111-9.621h-32.818l-4.842 9.231a10.617 10.617 0 00-1.346 3.9q0 1.431 2.557 1.431v2.34h-19.1zm50.707-24.181l-11.3-24.18-12.642 24.18zM255.416 73.97c0-1.3-.428-2.039-1.277-2.21a16.96 16.96 0 00-3.3-.26h-64.022v-2.34q4.035 0 4.036-2.341V7.799q0-2.339-4.036-2.34v-2.34h23.133v2.34q-3.765 0-3.765 2.34v51.74h44.654a5.556 5.556 0 003.3-.91 2.88 2.88 0 001.277-2.469h2.42v17.81zm83.526 0c0-1.3-.428-2.039-1.278-2.21a16.953 16.953 0 00-3.3-.26h-64.021v-2.34q4.033 0 4.035-2.341V7.799q0-2.339-4.035-2.34v-2.34h23.133v2.34q-3.765 0-3.766 2.34v51.74h44.654a5.554 5.554 0 003.3-.91 2.879 2.879 0 001.278-2.469h2.419v17.81zm81.64-56.81a2.372 2.372 0 00-1.142-2.146 7.984 7.984 0 00-3.969-.715h-43.578V30.42h26.361a9.817 9.817 0 004.17-.715q1.479-.716 1.48-3.705h2.42v20.279h-2.42q0-2.988-1.48-3.835a8.507 8.507 0 00-4.17-.845h-26.361v17.94h44.924a5.55 5.55 0 003.294-.91 2.874 2.874 0 001.278-2.469h2.422v17.81h-2.423c0-1.3-.426-2.039-1.278-2.21a16.939 16.939 0 00-3.294-.26h-62.678v-2.34a2.629 2.629 0 001.679-.586 2.1 2.1 0 00.741-1.755V7.799a2.1 2.1 0 00-.741-1.754 2.629 2.629 0 00-1.679-.586v-2.34h61.332a6.909 6.909 0 003.969-.845A2.688 2.688 0 00420.581 0h2.42v17.16zm61.736-14.041a57.06 57.06 0 0111.7 1.1 26.961 26.961 0 019.011 3.51 16.373 16.373 0 015.784 6.24 20.062 20.062 0 012.017 9.425q0 8.58-5.246 13.13t-14.121 6.11l17.889 24.7a3.628 3.628 0 002.218 1.559 11.756 11.756 0 002.354.261v2.34h-25.152v-2.34a5.09 5.09 0 002.085-.391q.875-.388.874-1.04a2.9 2.9 0 00-.538-1.495q-.539-.843-1.615-2.275l-14.795-20.28h-19.232v23.14a1.968 1.968 0 00.873 1.755 6.057 6.057 0 003.162.586v2.34h-23.27v-2.34q3.9 0 3.9-2.341V7.799q0-2.339-3.9-2.34v-2.34zm-3.5 30.42a38.079 38.079 0 008.071-.715A14.494 14.494 0 00492 30.809a7.6 7.6 0 002.69-3.055 9.506 9.506 0 000-7.67 7.609 7.609 0 00-2.69-3.055 14.606 14.606 0 00-5.111-2.015 38.274 38.274 0 00-8.071-.715h-23.267v19.24zm69.27-30.42v2.34a7.889 7.889 0 00-2.287.326 1.5 1.5 0 00-1.076 1.625q0 .779 1.951 3.705t4.572 6.629q2.622 3.707 5.447 7.6t4.573 6.63l15.738-20.93q1.076-1.559 1.748-2.469a2.918 2.918 0 00.672-1.691q0-.907-1.277-1.169a11.935 11.935 0 00-2.354-.261v-2.34h23.537v2.34a9.925 9.925 0 00-2.017.2 5.319 5.319 0 00-1.95.91 11.878 11.878 0 00-2.152 2.08q-1.146 1.365-2.758 3.705l-22.867 31.33v23.14q0 2.34 3.094 2.341v2.34H549.43v-2.34a3.335 3.335 0 002.017-.586 2.024 2.024 0 00.807-1.755v-23.14l-25.957-35.1a7.3 7.3 0 00-2.893-2.211 8.151 8.151 0 00-3.3-.91v-2.34z" opacity=".1" fill="#fed438"/><path fill="none" d="M0 0h600v74H0z"/></svg>