<svg xmlns="http://www.w3.org/2000/svg" width="377" height="80" viewBox="0 0 377 80">
  <defs>
    <style>
      .cls-1 {
        fill: #fed438;
        fill-rule: evenodd;
        opacity: 0.1;
      }
    </style>
  </defs>
  <path id="PRIZE" class="cls-1" d="M72.278,9.616Q65.361,3.945,53.052,3.945H23.094V75H41V47.076H53.917A30.791,30.791,0,0,0,67.93,44.2,19.776,19.776,0,0,0,76.4,36.5a21.328,21.328,0,0,0,2.8-10.885Q79.2,15.288,72.278,9.616ZM49.95,34.92H41V16.152h8.24q6.1,0,8.876,2.238t2.772,7.223q0,9.308-10.935,9.308h0ZM148.562,9.845q-6.612-5.9-18.819-5.9H100.192V75h17.9V46.364h3.2a15.211,15.211,0,0,1,5.747.941,12.286,12.286,0,0,1,4.527,3.586,41.472,41.472,0,0,1,4.934,8.087L144.747,75H164.33l-9.257-17.9a64.528,64.528,0,0,0-5.8-9.181,19.882,19.882,0,0,0-5.8-4.908,19.478,19.478,0,0,0,8.774-7.121,18.883,18.883,0,0,0,2.924-10.478Q155.174,15.746,148.562,9.845ZM134.015,32.759q-2.9,2.01-8.443,2.009H118.1V16.152h7.782q11.037,0,11.038,9.461Q136.915,30.75,134.015,32.759ZM200.89,75V3.945h-17.9V75h17.9Zm49.784-14.7L289.736,3.945H223.361v14.7h36.265L220.462,75h69.274V60.3H250.674ZM358.7,16.661V3.945H310.071V75H359.51V62.284H327.975V44.991h29.348V32.275H327.975V16.661H358.7Z"/>
</svg>
