<svg xmlns="http://www.w3.org/2000/svg" width="505" height="74" viewBox="0 0 505 74">
  <defs>
    <style>
      .cls-1 {
        fill: #fed438;
        fill-rule: evenodd;
        opacity: 0.1;
      }
    </style>
  </defs>
  <path id="RESULT" class="cls-1" d="M58.9,1.069V72H76.785V43.087h2.6c4.992,0,8.528,0,13.313,8.944C94.154,54.839,100.29,68.88,101.85,72H121.3l-2.392-5.1c-1.872-4.056-4.888-10.712-6.865-14.769-1.56-3.64-5.1-10.816-10.192-13.312,3.016-1.456,12.169-5.616,12.169-17.473,0-8.424-5.513-14.249-9.257-16.745-5.72-3.536-12.168-3.536-18.617-3.536H58.9Zm26.833,12.9c1.976,0,9.88,0,9.88,8.112a7.379,7.379,0,0,1-3.848,6.864c-1.872,1.04-3.016,1.04-7.592,1.248H76.785V13.966H85.73ZM183.906,59H149.481V41.943h32.137V28.63H149.481V14.278h33.7V1.069H131.592V72h52.314V59ZM246.93,5.646C235.594,0.757,228.522.133,222.905,0.133c-17.784,0-26.833,9.36-26.833,20.177,0,14.977,12.9,19.969,23.089,23.5,9.361,3.224,13.417,4.68,13.417,9.36,0,6.344-8.321,6.448-10.609,6.448-10.4,0-18.512-4.992-24.649-8.84V66.072c1.768,1.248,13.105,6.864,25.065,6.864,10.609,0,27.769-4.576,27.769-21.009,0-13.728-10.608-19.137-19.552-22.361-10.193-3.64-17.161-6.136-17.161-10.4,0-.728.312-5.824,10.712-5.824,9.049,0,17.889,4.472,22.777,6.864V5.646Zm87.881-4.576H316.922V36.223c0,6.24,0,8.944-1.248,12.064-1.456,3.64-6.24,10.4-16.536,10.4-6.968,0-14.145-3.536-16.433-11.44a36.518,36.518,0,0,1-1.248-11.024V1.069H263.568V40.175c0,11.44,2.6,16.433,5.409,20.177,9.568,12.376,24.337,12.584,29.849,12.584,10.92,0,22.569-2.7,29.849-11.44,6.032-7.384,6.136-16.225,6.136-21.841V1.069Zm71.448,57.722H370.065V1.069H352.177V72h54.082V58.792ZM482.283,1.069H413.016V14.382h25.689V72H456.7V14.382h25.585V1.069Z"/>
</svg>
