<svg xmlns="http://www.w3.org/2000/svg" width="900" height="74" viewBox="0 0 900 74">
  <defs>
    <style>
      .cls-1 {
        fill: #fed438;
        fill-rule: evenodd;
        opacity: 0.1;
      }
    </style>
  </defs>
  <path id="SPECIAL_PRIZE" data-name="SPECIAL PRIZE" class="cls-1" d="M65.208,2.03A44.691,44.691,0,0,0,53.637.529a29.857,29.857,0,0,0-13,2.594,19.278,19.278,0,0,0-8.24,7.07,18.4,18.4,0,0,0-2.823,10.02,18.127,18.127,0,0,0,2.62,9.893,23.339,23.339,0,0,0,6.256,6.714,76.614,76.614,0,0,0,8.825,5.264,59.872,59.872,0,0,1,8.367,4.629A12.933,12.933,0,0,1,59.231,50.1a6.58,6.58,0,0,1,.865,3.433,5.665,5.665,0,0,1-2.34,4.6q-2.34,1.857-6.816,1.856-10.122,0-20.8-8.545V67.516a50.767,50.767,0,0,0,23.092,5.9,31.2,31.2,0,0,0,12.894-2.543,20.238,20.238,0,0,0,8.8-7.222,19.036,19.036,0,0,0,3.128-10.834,17.9,17.9,0,0,0-2.518-9.74,24.01,24.01,0,0,0-6.612-6.867,98.875,98.875,0,0,0-11.215-6.536q-6.359-3.2-8.545-5.29A6.335,6.335,0,0,1,46.974,19.7a5.527,5.527,0,0,1,2.136-4.552q2.136-1.7,6.307-1.7,9.613,0,19.684,7.884V6.124A37.714,37.714,0,0,0,65.208,2.03Zm80.484,5.086q-6.918-5.671-19.226-5.671H96.508V72.5h17.9V44.576H127.33A30.791,30.791,0,0,0,141.343,41.7,19.778,19.778,0,0,0,149.812,34a21.332,21.332,0,0,0,2.8-10.885Q152.609,12.788,145.692,7.116Zm-22.329,25.3h-8.952V13.652h8.24q6.1,0,8.876,2.238t2.772,7.223q0,9.308-10.936,9.308h0Zm94.7-18.26V1.445H169.439V72.5h49.438V59.784H187.342V42.491H216.69V29.775H187.342V14.161h30.721ZM274.718,0.529a45.836,45.836,0,0,0-20.4,4.425A33.57,33.57,0,0,0,240.157,17.67,36.075,36.075,0,0,0,235.045,37a36.794,36.794,0,0,0,4.73,18.565,33.535,33.535,0,0,0,13.657,13.072q8.927,4.782,20.981,4.781,15.613,0,27.211-6.205V51.239q-11.8,7.833-24.261,7.833a26.648,26.648,0,0,1-12.843-2.925,20.444,20.444,0,0,1-8.265-7.909A21.654,21.654,0,0,1,253.407,37.3a22.877,22.877,0,0,1,2.8-11.164,20.691,20.691,0,0,1,8.316-8.189,26.813,26.813,0,0,1,13.25-3.077,36.534,36.534,0,0,1,11.673,1.882A55.568,55.568,0,0,1,301.218,22.5V6.023a69.373,69.373,0,0,0-26.5-5.493h0ZM338.6,72.5V1.445h-17.9V72.5h17.9Zm94.65,0L402.015,1.343H383.348L352.424,72.5h18.311l6.815-16.378h30.518L414.934,72.5h18.311ZM403.337,44.678H382.229L392.758,18.84ZM465.028,57.8V1.445h-17.9V72.5h50.1V57.8h-32.2ZM599.649,7.116q-6.918-5.671-19.226-5.671H550.465V72.5h17.9V44.576h12.919A30.791,30.791,0,0,0,595.3,41.7,19.772,19.772,0,0,0,603.769,34a21.332,21.332,0,0,0,2.8-10.885Q606.566,12.788,599.649,7.116ZM577.32,32.42h-8.952V13.652h8.24q6.1,0,8.876,2.238t2.772,7.223q0,9.308-10.936,9.308h0ZM671.766,7.345q-6.612-5.9-18.819-5.9H623.4V72.5h17.9V43.864H644.5a15.211,15.211,0,0,1,5.747.941,12.293,12.293,0,0,1,4.527,3.586,41.472,41.472,0,0,1,4.934,8.087L667.951,72.5h19.582l-9.257-17.9a64.547,64.547,0,0,0-5.8-9.181,19.9,19.9,0,0,0-5.8-4.908,19.478,19.478,0,0,0,8.774-7.121,18.883,18.883,0,0,0,2.924-10.478Q678.378,13.246,671.766,7.345ZM657.219,30.259q-2.9,2.01-8.443,2.009H641.3V13.652h7.782q11.037,0,11.037,9.461Q660.118,28.25,657.219,30.259ZM719.927,72.5V1.445h-17.9V72.5h17.9Zm45.618-14.7L804.607,1.445H738.231v14.7H774.5L735.332,72.5h69.275V57.8H765.545ZM869.4,14.161V1.445H820.775V72.5h49.439V59.784H838.679V42.491h29.348V29.775H838.679V14.161H869.4Z"/>
</svg>
