<svg xmlns="http://www.w3.org/2000/svg" width="40" height="22"><path d="M11.463 0a12.454 12.454 0 014.49.8 11.144 11.144 0 013.643 2.239 10.52 10.52 0 012.441 3.4 10.476 10.476 0 01-2.441 12.02 10.791 10.791 0 01-3.643 2.18 13.647 13.647 0 01-8.98 0 10.811 10.811 0 01-3.641-2.18A10.679 10.679 0 01.891 6.439a10.491 10.491 0 012.441-3.4A11.165 11.165 0 016.973.8a12.473 12.473 0 014.49-.8zm0 3.441a6.434 6.434 0 00-4.82 2.1 7.36 7.36 0 00-1.408 2.321 8.41 8.41 0 000 5.8 7.349 7.349 0 001.408 2.321 6.546 6.546 0 009.643 0 7.309 7.309 0 001.406-2.321 8.38 8.38 0 000-5.8 7.32 7.32 0 00-1.406-2.321 6.409 6.409 0 00-2.131-1.54 6.476 6.476 0 00-2.692-.56zm20.901 17.36a1.221 1.221 0 00.725-.221 1.047 1.047 0 00.311-.9V6.321a6.78 6.78 0 00-.684.04 4.846 4.846 0 00-.766.139 2.816 2.816 0 00-.682.281.972.972 0 00-.436.5h-.5v-5.04h.5a.507.507 0 00.373.5 2.007 2.007 0 00.7.14 1.721 1.721 0 001.18-.42 1.318 1.318 0 00.477-1.02c0-.373-.09-.614-.27-.72a2.179 2.179 0 00-.725-.24V0h6.705v.481a2.3 2.3 0 00-.828.279.66.66 0 00-.332.6v18.319a1.013 1.013 0 00.332.9 1.313 1.313 0 00.744.221v.48H32.36z" fill="#fed438"/><path fill="none" d="M0 0h40v22H0z"/></svg>