<svg xmlns="http://www.w3.org/2000/svg" width="48" height="22"><path d="M11.463 0a12.454 12.454 0 014.49.8 11.142 11.142 0 013.643 2.239 10.52 10.52 0 012.441 3.4 10.476 10.476 0 01-2.441 12.02 10.8 10.8 0 01-3.643 2.18 13.661 13.661 0 01-8.98 0 10.815 10.815 0 01-3.641-2.18A10.679 10.679 0 01.891 6.439a10.491 10.491 0 012.441-3.4A11.153 11.153 0 016.973.8a12.469 12.469 0 014.49-.8zm0 3.441a6.434 6.434 0 00-4.82 2.1 7.354 7.354 0 00-1.408 2.32 8.413 8.413 0 000 5.8 7.349 7.349 0 001.408 2.321 6.546 6.546 0 009.643 0 7.309 7.309 0 001.406-2.321 8.383 8.383 0 000-5.8 7.314 7.314 0 00-1.406-2.32 6.409 6.409 0 00-2.131-1.54 6.476 6.476 0 00-2.692-.56zm35.758 18.36h-.5c0-.295-.133-.454-.395-.481a8.306 8.306 0 00-.848-.04H28.054a3.857 3.857 0 00-.744.06c-.193.041-.289.181-.289.42h-.5v-1.44a6.046 6.046 0 011.1-3.64A11.476 11.476 0 0130.373 14a22.948 22.948 0 013.559-2.039q1.9-.881 3.559-1.74a15.225 15.225 0 002.754-1.78 2.751 2.751 0 001.1-2.161 2.29 2.29 0 00-.393-1.38 3.042 3.042 0 00-1.014-.879 4.208 4.208 0 00-1.366-.46 9.113 9.113 0 00-1.448-.12 7.973 7.973 0 00-1.738.239 8.855 8.855 0 00-1.986.72 6.642 6.642 0 00-1.635 1.14 2.041 2.041 0 00-.684 1.5 1.8 1.8 0 00.1.521.839.839 0 00.27.439l-.414.28-4.264-4.4.414-.281.332.16a.819.819 0 00.373.08c.164 0 .469-.2.91-.6a12.836 12.836 0 011.82-1.32 14.5 14.5 0 012.9-1.32 12.731 12.731 0 014.139-.6 13.263 13.263 0 013.084.36 8.356 8.356 0 012.689 1.14 6.112 6.112 0 011.9 2 5.744 5.744 0 01.725 2.981 5.955 5.955 0 01-.746 3.119 6.866 6.866 0 01-1.965 2.1 12.991 12.991 0 01-2.752 1.46q-1.532.6-3.125 1.18t-3.062 1.221a9.565 9.565 0 00-2.586 1.639v.4h13.66a2.24 2.24 0 00.848-.159c.262-.107.395-.427.395-.96h.5z" fill="#fed438"/><path fill="none" d="M0 0h48v22H0z"/></svg>