<svg xmlns="http://www.w3.org/2000/svg" width="364" height="14"><path d="M2.157 3.731c-.928.269-1.234.526-.765.835.645.424 1.228.32 2.9.384 1.211.046 2.737.013 3.971.022-.286.122-3.264.254-3.536.289a7.7 7.7 0 00-2.437.729c-.037.013-1.2.337-1.2.328-.031.1 1.053.394 1.254.511.687.4 1.466.867 1.4 1.225-.022.128-.275.3-.37.429.524.116.546.225.062.326a1.186 1.186 0 00-.492.22c-.08.251-.238.743 1.243.906 1.056.116 4.51-.017 5.706-.01a9.162 9.162 0 01-1.092.432c-.609-.3-1.169.026-1.644.125q0-.178-.824-.258c-1.055.455-4.026.707-1.532 1.237 1.951.414 5.675.253 8.271.261 4.909.014 9.843-.007 14.754-.015l14.309-.024c.966 0 3.368-.108 4.176-.015 1.537.177.45.44 2.653.516 1.337.046 3.031 0 4.388.007a8.959 8.959 0 01-1.079.426c-.612-.3-1.167.027-1.641.126q0-.179-.826-.26c-.98.423-3.759.64-1.857 1.157 1.808.491 5.45.338 8.13.336 4.617 0 9.242.026 13.859 0 9.2-.047 18.519-.054 27.724-.017 18.6.072 37.281-.013 55.892-.024 37.074-.023 74.281.111 111.34-.079 10.391-.054 20.908-.06 31.3-.019 5.157.02 10.955.111 16.044-.037 2.163-.063 6.364-.279 6.74-.777.156-.208-.71-.7-.977-.9-.592-.457-.77-.421-3.409-.469 1.489-.491 3.726-.289 2.557-.926a4.636 4.636 0 00-1.163-.473 8.078 8.078 0 00-1.237-.325c9.628.155 19.466.224 29.125.277 4.685.026 10.075.26 14.638.033 2.486-.124 5.424-.281 5.484-.828.022-.183-.441-.778-.793-.937-.7-.315-1.546-.292-3.428-.326.7-.229 2.735-.261 3.157-.524.351-.219-.6-.52-1.024-.718a18.09 18.09 0 00-5.073-1.132 6.776 6.776 0 001.407-.515 1.013 1.013 0 00.322-.338 12.1 12.1 0 001.41-.083c1.112-.234 2.094-.075 1.571-.508-.374-.31-.4-.2-2.151-.36-1-.089-1.9-.32-2.843-.383-.493-.033-2.574.044-3.111.041a747.59 747.59 0 01-5.359-.053c-7.365-.1-15.111-.293-22.556-.258-3.662.017-7.668-.011-11.38-.077-3.538-.063-7.389-.046-10.947-.144-3.539-.1-7.425-.094-10.947-.144-1.848-.027-3.654.083-5.358-.053a11.3 11.3 0 01-1.673-.188 8.589 8.589 0 00-2.553-.5 7.17 7.17 0 001.526-.609c1.384-.507-.332-.066 1.065-.275.424-.063 2.083-.128 2.27-.183-.039.011-.2-.415-.151-.377-.393-.331.688-.027-1.095-.281-1.123-.159-3.5-.39-4.6-.43-1.852-.068-4.629-.037-6.454-.032-2.675.008-5.263 0-7.855.032-9.658.124-19.56.032-29.32.032-19.11 0-38.509-.063-57.62-.064-19.637 0-39 .006-58.636.064-4.623.013-9.56.035-14.309 0-4.727-.036-9.74.044-14.5-.032-9.489-.152-19.343.04-28.811-.032-5.37-.04-10.848 0-16.1 0-5.42 0-10.821-.015-16.1 0-5.642.016-11.249-.04-16.8.032-2.672.034-5.376-.03-8.05 0-1.585.018-8.645.687-5.053 1.085-3.85-.4-1.242.92-.915 1.1.438.245 1.16.519 1.189.74.042.281-1.144.453-.191.749z" fill="#fed438" fill-rule="evenodd"/></svg>