<svg xmlns="http://www.w3.org/2000/svg" width="49" height="22"><path d="M11.463 0a12.459 12.459 0 014.49.8 11.164 11.164 0 013.643 2.24 10.545 10.545 0 012.441 3.4 10.474 10.474 0 01-2.441 12.02 10.81 10.81 0 01-3.643 2.18 13.644 13.644 0 01-8.98 0 10.791 10.791 0 01-3.643-2.18A10.689 10.689 0 01.889 6.44a10.56 10.56 0 012.441-3.4A11.144 11.144 0 016.973.8a12.459 12.459 0 014.49-.8zm0 3.44a6.448 6.448 0 00-4.822 2.1 7.325 7.325 0 00-1.406 2.32 8.383 8.383 0 000 5.8 7.3 7.3 0 001.406 2.32 6.549 6.549 0 009.645 0 7.373 7.373 0 001.406-2.32 8.383 8.383 0 000-5.8 7.4 7.4 0 00-1.406-2.32 6.448 6.448 0 00-4.822-2.1zm16.098-.32l.5-.36a1.326 1.326 0 00.7.2 1.74 1.74 0 00.766-.46 9.657 9.657 0 011.635-1.02A14.2 14.2 0 0133.914.46 15.623 15.623 0 0137.99 0a16.9 16.9 0 013.248.32 11.036 11.036 0 012.98 1.02 6.539 6.539 0 012.193 1.8 4.233 4.233 0 01.848 2.66 4.484 4.484 0 01-.869 2.66A3.759 3.759 0 0144.033 10v.08a5.673 5.673 0 012.916 1.58 4.116 4.116 0 011.139 2.98A5.214 5.214 0 0147.033 18a7.684 7.684 0 01-2.629 2.1 11.14 11.14 0 01-3.455 1.04 26.014 26.014 0 01-3.539.26 16.85 16.85 0 01-3.477-.34 20.372 20.372 0 01-2.855-.8q-1.239-.459-2.049-.84a3.242 3.242 0 00-1.137-.38.717.717 0 00-.352.08c-.1.053-.2.107-.311.16l-.372-.12 2.4-5.76.455.24a.674.674 0 00-.041.28v.28a2.07 2.07 0 00.91 1.64 8.527 8.527 0 002.174 1.22 14.221 14.221 0 002.648.76 10.834 10.834 0 004.1.12 7.956 7.956 0 001.9-.5 4.455 4.455 0 001.51-.98 2.188 2.188 0 00.621-1.62 2.042 2.042 0 00-.6-1.54 4.154 4.154 0 00-1.469-.9 7.579 7.579 0 00-1.842-.42q-.973-.1-1.676-.1a7.2 7.2 0 00-1.719.18 1.311 1.311 0 00-.973.9h-.5V7.52h.5a1.177 1.177 0 00.891 1.06 5.871 5.871 0 001.8.26 11.355 11.355 0 001.531-.12 6.539 6.539 0 001.635-.44 3.826 3.826 0 001.3-.88 1.938 1.938 0 00.539-1.4 1.814 1.814 0 00-.477-1.3 3.2 3.2 0 00-1.242-.78 7.2 7.2 0 00-1.7-.38 17.823 17.823 0 00-1.885-.1 11.193 11.193 0 00-2.275.24 11.468 11.468 0 00-2.111.64 6.978 6.978 0 00-1.572.88 1.294 1.294 0 00-.621.96 1.963 1.963 0 00.043.38 2 2 0 00.123.42l-.373.24z" fill="#fed438"/><path fill="none" d="M0 0h49v22H0z"/></svg>