<svg xmlns="http://www.w3.org/2000/svg" width="133" height="14"><path d="M.788 3.731c-.339.269-.451.526-.28.835.236.424.449.32 1.059.384.442.046 1 .013 1.451.022a6.885 6.885 0 01-1.292.289c-.51.178-.625.467-.89.729-.014.013-.438.337-.437.328-.011.1.385.394.458.511a2.517 2.517 0 01.513 1.225 2.808 2.808 0 01-.135.429q.287.173.023.326a.5.5 0 00-.18.22c-.029.251-.087.743.454.906a13.34 13.34 0 002.085-.01 3.161 3.161 0 01-.4.432c-.223-.3-.427.026-.6.125q0-.178-.3-.258c-.385.455-1.471.707-.56 1.237.713.414 2.073.253 3.022.261 1.794.014 3.6-.007 5.391-.015l5.228-.024a8.233 8.233 0 011.526-.015c.562.177.164.44.969.516.489.046 1.107 0 1.6.007a3.086 3.086 0 01-.394.426c-.224-.3-.427.027-.6.126q0-.179-.3-.26c-.358.423-1.373.64-.679 1.157.66.491 1.992.338 2.971.336 1.687 0 3.377.026 5.064 0 3.363-.047 6.767-.054 10.13-.017 6.8.072 13.622-.013 20.422-.024 13.546-.023 27.141.111 40.682-.079 3.8-.054 7.64-.06 11.437-.019 1.884.02 4 .111 5.862-.037.79-.063 2.325-.279 2.463-.777.057-.208-.259-.7-.357-.9-.216-.457-.281-.421-1.246-.469.544-.491 1.362-.289.934-.926a1.677 1.677 0 00-.425-.473 1.828 1.828 0 00-.454-.321c3.518.155 7.112.224 10.642.277a37.834 37.834 0 005.349.033c.908-.124 1.982-.281 2-.828a2.351 2.351 0 00-.29-.937c-.256-.315-.565-.292-1.253-.326.255-.229 1-.261 1.154-.524.128-.219-.219-.52-.374-.718a3.748 3.748 0 00-1.854-1.132 2.158 2.158 0 00.514-.515 1.255 1.255 0 00.118-.338 1.68 1.68 0 00.515-.083c.406-.234.765-.075.574-.508-.137-.31-.145-.2-.786-.36-.365-.089-.7-.32-1.039-.383-.18-.033-.941.044-1.137.041a99.85 99.85 0 01-1.958-.053c-2.691-.1-5.521-.293-8.242-.258-1.338.017-2.8-.011-4.158-.077-1.293-.063-2.7-.046-4-.144s-2.713-.094-4-.144a11.6 11.6 0 01-1.958-.053 1.713 1.713 0 01-.611-.188c-.38-.178-.29-.438-.933-.5.32-.2.344-.394.558-.609.506-.507-.121-.066.389-.275.155-.063.761-.128.829-.183a1.838 1.838 0 01-.055-.377c-.144-.331.251-.027-.4-.281a8.918 8.918 0 00-1.681-.43c-.677-.068-1.692-.037-2.358-.032-.977.008-1.923 0-2.87.032-3.529.124-7.147.032-10.713.032-6.982 0-14.071-.063-21.054-.064-7.175 0-14.251.006-21.425.064-1.689.013-3.493.035-5.228 0s-3.559.044-5.3-.032C30.501-.091 26.9.101 23.441.029c-1.962-.04-3.964 0-5.881 0-1.98 0-3.954-.015-5.882 0-2.062.016-4.11-.04-6.138.032-.976.034-1.964-.03-2.941 0C2.02.079-.56.748.753 1.146c-1.407-.4-.454.92-.334 1.1.16.245.424.519.434.74.02.277-.413.449-.065.745z" fill="#fed438" fill-rule="evenodd"/></svg>