<svg xmlns="http://www.w3.org/2000/svg" width="255" height="14"><path d="M1.511 3.731c-.65.269-.864.526-.536.835.452.424.86.32 2.031.384.848.046 1.917.013 2.782.022a23.972 23.972 0 01-2.477.289 4.324 4.324 0 00-1.707.729c-.026.013-.839.337-.837.328-.022.1.738.394.878.511.481.4 1.027.867.984 1.225-.015.128-.193.3-.259.429q.551.173.043.326a.754.754 0 00-.344.22c-.056.251-.167.743.871.906.74.116 3.16-.017 4-.01a5.484 5.484 0 01-.765.432c-.427-.3-.819.026-1.151.125q0-.178-.577-.258c-.739.455-2.821.707-1.073 1.237 1.367.414 3.975.253 5.794.261 3.439.014 6.9-.007 10.336-.015l10.024-.024c.677 0 2.359-.108 2.926-.015 1.077.177.315.44 1.859.516.937.046 2.123 0 3.074.007a5.36 5.36 0 01-.756.426c-.429-.3-.818.027-1.149.126q0-.179-.578-.26c-.687.423-2.633.64-1.3 1.157 1.266.491 3.818.338 5.7.336 3.234 0 6.474.026 9.709 0 6.447-.047 12.974-.054 19.422-.017 13.033.072 26.117-.013 39.155-.024 25.972-.023 52.038.111 78-.079 7.279-.054 14.647-.06 21.928-.019 3.612.02 7.675.111 11.239-.037 1.515-.063 4.459-.279 4.722-.777.109-.208-.5-.7-.685-.9-.415-.457-.539-.421-2.389-.469 1.043-.491 2.611-.289 1.792-.926a2.816 2.816 0 00-.815-.473 4.375 4.375 0 00-.871-.321c6.745.155 13.637.224 20.4.277 3.282.026 7.058.26 10.255.033 1.742-.124 3.8-.281 3.842-.828a1.7 1.7 0 00-.556-.937c-.491-.315-1.083-.292-2.4-.326.489-.229 1.916-.261 2.212-.524.246-.219-.42-.52-.717-.718a9.631 9.631 0 00-3.554-1.132 3.977 3.977 0 00.986-.515.96.96 0 00.225-.338 5.976 5.976 0 00.988-.083c.779-.234 1.467-.075 1.1-.508-.262-.31-.277-.2-1.507-.36-.7-.089-1.333-.32-1.992-.383-.346-.033-1.8.044-2.179.041a366.598 366.598 0 01-3.754-.053c-5.159-.1-10.586-.293-15.8-.258-2.565.017-5.372-.011-7.972-.077-2.478-.063-5.177-.046-7.669-.144s-5.2-.094-7.669-.144c-1.294-.027-2.56.083-3.753-.053a5.663 5.663 0 01-1.172-.188c-.729-.178-.556-.438-1.788-.5.613-.2.66-.394 1.069-.609.969-.507-.233-.066.746-.275.3-.063 1.459-.128 1.59-.183a1.044 1.044 0 01-.106-.377c-.275-.331.482-.027-.767-.281a30.56 30.56 0 00-3.223-.43c-1.3-.068-3.243-.037-4.521-.032-1.874.008-3.687 0-5.5.032-6.766.124-13.7.032-20.54.032-13.387 0-26.977-.063-40.366-.064-13.757 0-27.323.006-41.078.064-3.239.013-6.7.035-10.024 0-3.311-.036-6.823.044-10.159-.032-6.648-.152-13.551.04-20.184-.032-3.762-.04-7.6 0-11.276 0-3.8 0-7.58-.015-11.277 0-3.953.016-7.88-.04-11.768.032-1.872.034-3.766-.03-5.639 0-1.11.018-6.056.687-3.54 1.085-2.7-.4-.87.92-.641 1.1.307.245.812.519.833.74.009.277-.822.449-.155.745z" fill="#fed438" fill-rule="evenodd"/></svg>