<svg xmlns="http://www.w3.org/2000/svg" width="233" height="35" viewBox="0 0 233 35">
  <defs>
    <style>
      .cls-1 {
        fill: #292929;
        fill-rule: evenodd;
      }
    </style>
  </defs>
  <path id="RESULT" class="cls-1" d="M18.953,1.261V34h8.257V20.655h1.2c2.3,0,3.936,0,6.145,4.128,0.672,1.3,3.5,7.777,4.224,9.217h8.977l-1.1-2.352c-0.864-1.872-2.256-4.944-3.168-6.817-0.72-1.68-2.352-4.992-4.7-6.145,1.392-.672,5.617-2.592,5.617-8.065a9.554,9.554,0,0,0-4.272-7.729c-2.64-1.632-5.616-1.632-8.593-1.632H18.953ZM31.338,7.214c0.912,0,4.56,0,4.56,3.744a3.406,3.406,0,0,1-1.776,3.168c-0.864.48-1.392,0.48-3.5,0.576H27.209V7.214h4.128ZM76.651,28H60.761V20.127H75.595V13.982H60.761V7.358H76.315v-6.1H52.5V34H76.651V28ZM105.738,3.373A26.042,26.042,0,0,0,94.649.829c-8.209,0-12.385,4.32-12.385,9.313,0,6.913,5.953,9.217,10.657,10.849,4.32,1.488,6.192,2.16,6.192,4.32,0,2.928-3.84,2.976-4.9,2.976-4.8,0-8.545-2.3-11.377-4.08v7.057a25.058,25.058,0,0,0,11.569,3.168c4.9,0,12.818-2.112,12.818-9.7,0-6.336-4.9-8.833-9.025-10.321-4.7-1.68-7.921-2.832-7.921-4.8,0-.336.144-2.688,4.944-2.688,4.176,0,8.257,2.064,10.513,3.168V3.373ZM146.3,1.261h-8.256V17.487c0,2.88,0,4.128-.576,5.569a7.931,7.931,0,0,1-7.633,4.8c-3.216,0-6.529-1.632-7.585-5.28a16.856,16.856,0,0,1-.576-5.088V1.261h-8.257v18.05c0,5.281,1.2,7.585,2.5,9.313,4.416,5.712,11.233,5.809,13.777,5.809,5.04,0,10.417-1.248,13.777-5.28,2.784-3.408,2.832-7.489,2.832-10.081V1.261ZM179.275,27.9H162.569V1.261h-8.256V34h24.962V27.9ZM214.363,1.261H182.392V7.406h11.857V34h8.305V7.406h11.809V1.261Z"/>
</svg>
