<svg xmlns="http://www.w3.org/2000/svg" width="174" height="35" viewBox="0 0 174 35">
  <defs>
    <style>
      .cls-1 {
        fill: #292929;
        fill-rule: evenodd;
      }
    </style>
  </defs>
  <path id="PRIZE" class="cls-1" d="M33.894,3.616Q30.573,0.894,24.665.894H10.285V35h8.594V21.6h6.2a14.781,14.781,0,0,0,6.726-1.379,9.493,9.493,0,0,0,4.065-3.7,10.238,10.238,0,0,0,1.343-5.225A9.372,9.372,0,0,0,33.894,3.616ZM23.176,15.762h-4.3V6.753h3.955a6.78,6.78,0,0,1,4.26,1.074,4.2,4.2,0,0,1,1.331,3.467q0,4.468-5.249,4.468h0ZM68.51,3.726Q65.336,0.894,59.477.894H45.292V35h8.594V21.255h1.538a7.3,7.3,0,0,1,2.759.452,5.9,5.9,0,0,1,2.173,1.721,19.911,19.911,0,0,1,2.368,3.882L66.679,35h9.4l-4.443-8.594A31.01,31.01,0,0,0,68.852,22a9.548,9.548,0,0,0-2.783-2.356,9.348,9.348,0,0,0,4.211-3.418,9.063,9.063,0,0,0,1.4-5.029A9.531,9.531,0,0,0,68.51,3.726Zm-6.983,11a7.1,7.1,0,0,1-4.053.964H53.886V6.753h3.735q5.3,0,5.3,4.541A3.882,3.882,0,0,1,61.527,14.724ZM91.627,35V0.894H83.033V35h8.594Zm21.9-7.056,18.75-27.051h-31.86V7.949H117.82L99.022,35h33.251V27.944h-18.75ZM163.374,7v-6.1h-23.34V35h23.731V28.9H148.628V20.6h14.087v-6.1H148.628V7h14.746Z"/>
</svg>
