<svg xmlns="http://www.w3.org/2000/svg" width="300" height="89" viewBox="0 0 300 89">
  <defs>
    <style>
      .cls-1 {
        fill: #fff;
        fill-rule: evenodd;
      }
    </style>
  </defs>
  <path id="PHOTO_CONTEST" data-name="PHOTO CONTEST" class="cls-1" d="M70.258,6q-3.6-2.949-10-2.949H44.682V40h9.31V25.48H60.71A16.011,16.011,0,0,0,68,23.985a10.283,10.283,0,0,0,4.4-4.007,11.09,11.09,0,0,0,1.455-5.66A10.152,10.152,0,0,0,70.258,6ZM58.647,19.159H53.992V9.4h4.285a7.346,7.346,0,0,1,4.615,1.164,4.549,4.549,0,0,1,1.442,3.756q0,4.84-5.687,4.84h0Zm32.186-1.8V3.051h-9.31V40h9.31V25.11h17.88V40h9.31V3.051h-9.31V17.36H90.833Zm74.16-5.475A17.414,17.414,0,0,0,157.9,5.061a22.644,22.644,0,0,0-10.87-2.486,22.276,22.276,0,0,0-11.506,2.737,17.431,17.431,0,0,0-6.85,7.062,19.889,19.889,0,0,0-2.221,9.217,19.208,19.208,0,0,0,2.38,9.442,17.476,17.476,0,0,0,6.982,6.877,22.376,22.376,0,0,0,11.056,2.566,22.754,22.754,0,0,0,11.055-2.539,17.588,17.588,0,0,0,7.089-6.85,19.087,19.087,0,0,0,2.433-9.548A19.224,19.224,0,0,0,164.992,11.885Zm-27.665,4.033a9.36,9.36,0,0,1,3.809-3.848,11.775,11.775,0,0,1,5.792-1.375,11.464,11.464,0,0,1,5.911,1.468,9.789,9.789,0,0,1,3.795,3.928,11.4,11.4,0,0,1,1.3,5.4,10.481,10.481,0,0,1-3.054,7.948,11.094,11.094,0,0,1-8,2.923,11.623,11.623,0,0,1-5.634-1.349,9.537,9.537,0,0,1-3.861-3.822,11.31,11.31,0,0,1-1.375-5.594A11.842,11.842,0,0,1,137.327,15.919Zm71.356-5.171v-7.7H172.925v7.7H186.1V40h9.31V10.748h13.277Zm43.982,1.137a17.414,17.414,0,0,0-7.088-6.824,22.648,22.648,0,0,0-10.871-2.486,22.275,22.275,0,0,0-11.5,2.737,17.425,17.425,0,0,0-6.85,7.062,19.89,19.89,0,0,0-2.222,9.217,19.208,19.208,0,0,0,2.381,9.442,17.476,17.476,0,0,0,6.982,6.877,22.376,22.376,0,0,0,11.056,2.566A22.754,22.754,0,0,0,245.6,37.937a17.586,17.586,0,0,0,7.088-6.85,19.088,19.088,0,0,0,2.434-9.548A19.224,19.224,0,0,0,252.665,11.885ZM225,15.919a9.364,9.364,0,0,1,3.808-3.848A11.779,11.779,0,0,1,234.6,10.7a11.464,11.464,0,0,1,5.911,1.468,9.789,9.789,0,0,1,3.795,3.928,11.4,11.4,0,0,1,1.3,5.4,10.478,10.478,0,0,1-3.055,7.948,11.09,11.09,0,0,1-8,2.923,11.62,11.62,0,0,1-5.634-1.349,9.531,9.531,0,0,1-3.861-3.822,11.311,11.311,0,0,1-1.376-5.594A11.842,11.842,0,0,1,225,15.919ZM30.838,48.409a23.836,23.836,0,0,0-10.606,2.3,17.457,17.457,0,0,0-7.366,6.612,18.761,18.761,0,0,0-2.658,10.05,19.131,19.131,0,0,0,2.46,9.654,17.437,17.437,0,0,0,7.1,6.8,22.776,22.776,0,0,0,10.91,2.486,29.56,29.56,0,0,0,14.15-3.227v-8.3a22.541,22.541,0,0,1-12.616,4.073,13.856,13.856,0,0,1-6.678-1.521,10.629,10.629,0,0,1-4.3-4.113,11.258,11.258,0,0,1-1.481-5.686,11.9,11.9,0,0,1,1.455-5.805,10.756,10.756,0,0,1,4.324-4.258,13.942,13.942,0,0,1,6.89-1.6,19,19,0,0,1,6.07.979,28.878,28.878,0,0,1,6.123,2.989V51.265a36.072,36.072,0,0,0-13.78-2.856h0Zm59.719,9.31a17.41,17.41,0,0,0-7.088-6.824A22.644,22.644,0,0,0,72.6,48.409a22.272,22.272,0,0,0-11.505,2.737,17.428,17.428,0,0,0-6.85,7.062,19.889,19.889,0,0,0-2.222,9.217,19.209,19.209,0,0,0,2.38,9.442,17.477,17.477,0,0,0,6.982,6.877A22.374,22.374,0,0,0,72.44,86.309,22.758,22.758,0,0,0,83.5,83.77a17.587,17.587,0,0,0,7.088-6.85A20.062,20.062,0,0,0,90.557,57.719ZM62.892,61.752A9.365,9.365,0,0,1,66.7,57.9a11.775,11.775,0,0,1,5.792-1.375A11.464,11.464,0,0,1,78.4,58a9.789,9.789,0,0,1,3.8,3.928,11.4,11.4,0,0,1,1.3,5.4,10.48,10.48,0,0,1-3.055,7.948,11.092,11.092,0,0,1-8,2.923,11.619,11.619,0,0,1-5.633-1.349,9.532,9.532,0,0,1-3.862-3.822,11.309,11.309,0,0,1-1.375-5.594A11.843,11.843,0,0,1,62.892,61.752Zm67.494,10.17L109.651,48.885h-8.173V85.833h9.151V62.876l20.683,22.957h8.279V48.885h-9.205V71.921Zm52.076-15.34v-7.7H146.7v7.7h13.171V85.833h9.31V56.581h13.278Zm32.37-1.084V48.885H189.548V85.833h25.708V79.221h-16.4V70.229h15.26V63.617h-15.26V55.5h15.974Zm26.539-6.308a23.24,23.24,0,0,0-6.017-.78,15.524,15.524,0,0,0-6.757,1.349,10.027,10.027,0,0,0-4.285,3.676,9.571,9.571,0,0,0-1.468,5.21,9.429,9.429,0,0,0,1.362,5.144,12.138,12.138,0,0,0,3.254,3.491,39.843,39.843,0,0,0,4.588,2.737,31.063,31.063,0,0,1,4.351,2.407,6.729,6.729,0,0,1,1.865,1.759,3.428,3.428,0,0,1,.449,1.785,2.945,2.945,0,0,1-1.216,2.394,5.6,5.6,0,0,1-3.544.965q-5.264,0-10.818-4.443v8.358a26.4,26.4,0,0,0,12.008,3.068,16.232,16.232,0,0,0,6.705-1.322,10.525,10.525,0,0,0,4.575-3.756A9.894,9.894,0,0,0,248.05,75.6a9.317,9.317,0,0,0-1.309-5.065,12.492,12.492,0,0,0-3.439-3.57,51.317,51.317,0,0,0-5.832-3.4,20.285,20.285,0,0,1-4.443-2.751,3.3,3.3,0,0,1-1.137-2.433A2.875,2.875,0,0,1,233,56.013a5.179,5.179,0,0,1,3.28-.886q5,0,10.236,4.1V51.318A19.6,19.6,0,0,0,241.371,49.189Zm47.963,7.392v-7.7H253.575v7.7h13.172V85.833h9.31V56.581h13.277Z"/>
</svg>
