<svg xmlns="http://www.w3.org/2000/svg" width="277" height="35"><path d="M32.342 11.16L31.1 10.8a2.191 2.191 0 00.125-.72 2 2 0 00-1.148-1.62 11.56 11.56 0 00-2.918-1.23 23.845 23.845 0 00-3.849-.75 34.693 34.693 0 00-3.942-.239 16.96 16.96 0 00-4.563.629 12.11 12.11 0 00-4.035 1.95 9.786 9.786 0 00-2.855 3.421 12.431 12.431 0 000 10.169 9.712 9.712 0 002.855 3.45 12.072 12.072 0 004.035 1.95 16.962 16.962 0 004.563.63 32.32 32.32 0 006.363-.57 41.523 41.523 0 004.811-1.23v-5.16h-7.946a2 2 0 00-1.3.36 2.356 2.356 0 00-.559 1.56h-1.118v-7.68h1.118a1.7 1.7 0 00.559 1.29 2.506 2.506 0 001.3.27h15.52v1.08a4.011 4.011 0 00-1.553.42 1.265 1.265 0 00-.31 1.02v6.78a.776.776 0 00.373.78l.869.42v.961a22.8 22.8 0 01-4.315 2.279 29.5 29.5 0 01-4.593 1.41 28.38 28.38 0 01-4.657.63q-2.326.12-4.562.12a27.989 27.989 0 01-7.915-1.05 17.269 17.269 0 01-6.114-3.12 14.209 14.209 0 01-3.943-5.04 17.017 17.017 0 010-13.5A14.509 14.509 0 015.339 5.4a17.783 17.783 0 016.114-3.21 26.573 26.573 0 017.915-1.11 36.375 36.375 0 015.215.36q2.481.36 4.407.81t3.2.84a7.976 7.976 0 001.583.39 1.393 1.393 0 00.869-.239 5.435 5.435 0 01.62-.421l.746.421zM42.77 31.92a1.828 1.828 0 001.273-.78 12.932 12.932 0 00.9-1.5L56.427 6.3q.434-.778.776-1.44a2.584 2.584 0 00.342-1.14.88.88 0 00-.435-.84 3.821 3.821 0 00-.931-.36V1.44H66.67v1.08a5.183 5.183 0 00-.868.33.869.869 0 00-.435.87 2.3 2.3 0 00.217.96q.217.48.651 1.26l12.913 24.42a2.058 2.058 0 00.838.96 12.684 12.684 0 001.21.6V33H70.27v-1.08a1.516 1.516 0 00.621-.179.579.579 0 00.372-.541 3.652 3.652 0 00-.5-1.56l-2.359-4.44H53.257l-2.235 4.26a4.911 4.911 0 00-.62 1.8c0 .44.392.66 1.18.66V33h-8.816zm23.4-11.16L60.955 9.6l-5.834 11.16zm51.714 13.38c0-.6-.2-.941-.59-1.02a7.79 7.79 0 00-1.521-.12h-29.55v-1.08q1.863 0 1.862-1.08V3.6q0-1.08-1.862-1.08V1.44h10.678v1.08q-1.739 0-1.738 1.08v23.88h20.613a2.562 2.562 0 001.521-.42 1.328 1.328 0 00.59-1.14h1.117v8.22zm38.549 0c0-.6-.2-.941-.59-1.02a7.79 7.79 0 00-1.521-.12h-29.546v-1.08q1.863 0 1.862-1.08V3.6q0-1.08-1.862-1.08V1.44h10.678v1.08q-1.739 0-1.738 1.08v23.88h20.61a2.562 2.562 0 001.521-.42 1.328 1.328 0 00.59-1.14h1.117v8.22zm37.681-26.22a1.1 1.1 0 00-.527-.99 3.675 3.675 0 00-1.832-.33h-20.112v7.44h12.167a4.53 4.53 0 001.925-.33q.681-.328.683-1.71h1.117v9.36h-1.117q0-1.379-.683-1.77a3.921 3.921 0 00-1.925-.39h-12.167v8.28h20.733a2.563 2.563 0 001.521-.42 1.328 1.328 0 00.59-1.14h1.117v8.22h-1.117c0-.6-.2-.941-.59-1.02a7.794 7.794 0 00-1.521-.12h-28.928v-1.08a1.217 1.217 0 00.775-.27.97.97 0 00.342-.81V3.6a.972.972 0 00-.342-.81 1.217 1.217 0 00-.775-.27V1.44h28.307a3.189 3.189 0 001.832-.39 1.24 1.24 0 00.527-1.05h1.117v7.92zm28.493-6.48a26.345 26.345 0 015.4.51 12.42 12.42 0 014.159 1.62 7.552 7.552 0 012.669 2.88 9.252 9.252 0 01.932 4.35 7.587 7.587 0 01-2.421 6.06 13.226 13.226 0 01-6.519 2.82l8.257 11.4a1.672 1.672 0 001.024.72 5.385 5.385 0 001.086.12V33h-11.608v-1.08a2.367 2.367 0 00.962-.179q.4-.181.4-.481a1.339 1.339 0 00-.248-.69q-.249-.389-.745-1.05l-6.829-9.36h-8.876v10.68a.908.908 0 00.4.81 2.8 2.8 0 001.459.27V33h-10.733v-1.08q1.8 0 1.8-1.08V3.6q0-1.08-1.8-1.08V1.44zm-1.614 14.04a17.618 17.618 0 003.725-.33 6.7 6.7 0 002.358-.93 3.5 3.5 0 001.242-1.41 4.4 4.4 0 000-3.54 3.509 3.509 0 00-1.242-1.41 6.737 6.737 0 00-2.358-.93 17.618 17.618 0 00-3.725-.33h-10.739v8.88zm31.969-14.04v1.08a3.658 3.658 0 00-1.055.15.693.693 0 00-.5.75 4.988 4.988 0 00.9 1.71q.9 1.35 2.11 3.06t2.515 3.51q1.3 1.8 2.11 3.06l7.263-9.66q.5-.72.808-1.14a1.348 1.348 0 00.311-.78c0-.279-.2-.459-.59-.54a5.562 5.562 0 00-1.087-.12V1.44h10.864v1.08a4.577 4.577 0 00-.932.09 2.442 2.442 0 00-.9.42 5.5 5.5 0 00-.993.961q-.527.628-1.272 1.709l-10.552 14.46v10.68c0 .72.474 1.08 1.427 1.08V33h-9.809v-1.08a1.549 1.549 0 00.932-.27.936.936 0 00.372-.81V20.16l-11.981-16.2a3.367 3.367 0 00-1.334-1.02 3.761 3.761 0 00-1.521-.42V1.44z" fill="#292929"/><path fill="none" d="M0 0h277v35H0z"/></svg>