<svg xmlns="http://www.w3.org/2000/svg" width="418" height="35" viewBox="0 0 418 35">
  <defs>
    <style>
      .cls-1 {
        fill: #292929;
        fill-rule: evenodd;
      }
    </style>
  </defs>
  <path id="SPECIAL_PRIZE" data-name="SPECIAL PRIZE" class="cls-1" d="M24.74,1.174a21.452,21.452,0,0,0-5.554-.72A14.331,14.331,0,0,0,12.948,1.7,9.254,9.254,0,0,0,8.993,5.093,8.83,8.83,0,0,0,7.638,9.9,8.7,8.7,0,0,0,8.9,14.651a11.2,11.2,0,0,0,3,3.223A36.77,36.77,0,0,0,16.134,20.4a28.738,28.738,0,0,1,4.016,2.222,6.208,6.208,0,0,1,1.721,1.624,3.158,3.158,0,0,1,.415,1.648A2.719,2.719,0,0,1,21.163,28.1a5.171,5.171,0,0,1-3.271.891q-4.859,0-9.985-4.1v7.715A24.368,24.368,0,0,0,18.99,35.44a14.979,14.979,0,0,0,6.189-1.221A9.714,9.714,0,0,0,29.4,30.752a9.137,9.137,0,0,0,1.5-5.2A8.594,8.594,0,0,0,29.7,20.877a11.526,11.526,0,0,0-3.174-3.3,47.446,47.446,0,0,0-5.383-3.137,18.719,18.719,0,0,1-4.1-2.539,3.041,3.041,0,0,1-1.05-2.246,2.653,2.653,0,0,1,1.025-2.185,4.779,4.779,0,0,1,3.027-.818q4.614,0,9.448,3.784V3.14A18.1,18.1,0,0,0,24.74,1.174ZM63.372,3.616Q60.052,0.894,54.144.894H39.764V35h8.594V21.6h6.2a14.781,14.781,0,0,0,6.726-1.379,9.493,9.493,0,0,0,4.065-3.7,10.238,10.238,0,0,0,1.343-5.225A9.371,9.371,0,0,0,63.372,3.616ZM52.654,15.762h-4.3V6.753h3.955a6.781,6.781,0,0,1,4.26,1.074A4.2,4.2,0,0,1,57.9,11.294q0,4.468-5.249,4.468h0ZM98.11,7v-6.1H74.771V35H98.5V28.9H83.364V20.6H97.451v-6.1H83.364V7H98.11Zm27.195-6.543a22,22,0,0,0-9.79,2.124,16.113,16.113,0,0,0-6.8,6.1,17.323,17.323,0,0,0-2.453,9.277,17.665,17.665,0,0,0,2.27,8.911,16.1,16.1,0,0,0,6.555,6.274,21.027,21.027,0,0,0,10.071,2.3,27.286,27.286,0,0,0,13.062-2.979V24.795a20.807,20.807,0,0,1-11.646,3.76,12.789,12.789,0,0,1-6.164-1.4,9.814,9.814,0,0,1-3.968-3.8,10.4,10.4,0,0,1-1.367-5.249,10.983,10.983,0,0,1,1.343-5.359,9.924,9.924,0,0,1,3.992-3.931,12.866,12.866,0,0,1,6.36-1.477,17.542,17.542,0,0,1,5.6.9A26.648,26.648,0,0,1,138.024,11V3.091A33.29,33.29,0,0,0,125.305.454h0ZM155.966,35V0.894h-8.594V35h8.594ZM201.4,35L186.407,0.845h-8.96L162.6,35h8.789l3.271-7.861h14.648l3.3,7.861H201.4ZM187.042,21.646H176.91l5.054-12.4Zm29.611,6.3V0.894H208.06V35h24.047V27.944H216.653ZM281.271,3.616q-3.32-2.722-9.228-2.722h-14.38V35h8.594V21.6h6.2a14.78,14.78,0,0,0,6.726-1.379,9.489,9.489,0,0,0,4.065-3.7,10.237,10.237,0,0,0,1.343-5.225A9.37,9.37,0,0,0,281.271,3.616ZM270.554,15.762h-4.3V6.753h3.955a6.779,6.779,0,0,1,4.26,1.074,4.2,4.2,0,0,1,1.331,3.467q0,4.468-5.249,4.468h0ZM315.888,3.726q-3.174-2.832-9.034-2.832H292.67V35h8.594V21.255H302.8a7.308,7.308,0,0,1,2.759.452,5.9,5.9,0,0,1,2.172,1.721A19.912,19.912,0,0,1,310.1,27.31L314.057,35h9.4l-4.443-8.594A30.992,30.992,0,0,0,316.229,22a9.533,9.533,0,0,0-2.783-2.356,9.346,9.346,0,0,0,4.212-3.418,9.069,9.069,0,0,0,1.4-5.029A9.533,9.533,0,0,0,315.888,3.726Zm-6.983,11a7.093,7.093,0,0,1-4.052.964h-3.589V6.753H305q5.3,0,5.3,4.541A3.882,3.882,0,0,1,308.9,14.724ZM339.005,35V0.894h-8.594V35h8.594Zm21.9-7.056,18.75-27.051h-31.86V7.949H365.2L346.4,35h33.252V27.944H360.9ZM410.752,7v-6.1h-23.34V35h23.731V28.9H396.006V20.6h14.087v-6.1H396.006V7h14.746Z"/>
</svg>
