<svg xmlns="http://www.w3.org/2000/svg" width="300" height="40" viewBox="0 0 300 40">
  <defs>
    <style>
      .cls-1 {
        fill: #292929;
        fill-rule: evenodd;
      }
    </style>
  </defs>
  <path id="STEP_01_" data-name="STEP 01 " class="cls-1" d="M68.561,1.356a23.24,23.24,0,0,0-6.017-.78,15.526,15.526,0,0,0-6.758,1.349A10.025,10.025,0,0,0,51.5,5.6a9.566,9.566,0,0,0-1.468,5.21A9.426,9.426,0,0,0,51.4,15.955a12.136,12.136,0,0,0,3.253,3.491,39.847,39.847,0,0,0,4.589,2.738,31.125,31.125,0,0,1,4.351,2.407,6.726,6.726,0,0,1,1.865,1.759,3.422,3.422,0,0,1,.45,1.785,2.946,2.946,0,0,1-1.217,2.394,5.6,5.6,0,0,1-3.544.965q-5.264,0-10.818-4.443v8.358a26.4,26.4,0,0,0,12.008,3.068,16.227,16.227,0,0,0,6.7-1.323A10.523,10.523,0,0,0,73.612,33.4a9.9,9.9,0,0,0,1.627-5.634A9.31,9.31,0,0,0,73.93,22.7a12.485,12.485,0,0,0-3.438-3.571,51.414,51.414,0,0,0-5.832-3.4,20.279,20.279,0,0,1-4.443-2.751,3.294,3.294,0,0,1-1.137-2.433A2.874,2.874,0,0,1,60.19,8.179a5.178,5.178,0,0,1,3.28-.886q5,0,10.236,4.1V3.485A19.611,19.611,0,0,0,68.561,1.356Zm45.8,7.392v-7.7H78.6v7.7H91.769V38h9.31V8.748h13.277Zm30.205-1.084V1.051H119.276V38h25.708V31.388h-16.4V22.4h15.26V15.783h-15.26V7.663h15.975ZM177.357,4q-3.6-2.949-10-2.949H151.781V38h9.31V23.48h6.718a16.009,16.009,0,0,0,7.286-1.494,10.284,10.284,0,0,0,4.4-4.007,11.086,11.086,0,0,0,1.455-5.66A10.154,10.154,0,0,0,177.357,4ZM165.746,17.159h-4.655V7.4h4.285a7.346,7.346,0,0,1,4.615,1.164,4.548,4.548,0,0,1,1.441,3.756q0,4.84-5.686,4.84h0Zm59.681-7.816a14.744,14.744,0,0,0-4.853-6.52,11.51,11.51,0,0,0-6.93-2.248,11.825,11.825,0,0,0-6.863,2.142,14.469,14.469,0,0,0-4.946,6.414A26.444,26.444,0,0,0,200,19.592a26.584,26.584,0,0,0,1.759,10.2,14.6,14.6,0,0,0,4.84,6.467,12.089,12.089,0,0,0,13.912.04,14.571,14.571,0,0,0,4.879-6.467,26.523,26.523,0,0,0,1.8-10.288A26.729,26.729,0,0,0,225.427,9.343ZM209.941,28.65q-1.085-2.9-1.084-9.059,0-6.294,1.256-9.191t3.425-2.9q2.487,0,3.6,3.055a28.336,28.336,0,0,1,1.111,9.138q0,6.268-1.163,9.059t-3.492,2.79Q211.026,31.547,209.941,28.65ZM250.884,38V0.575H245.2L232.264,11.181l4.655,5.739,5.369-4.258V38h8.6Z"/>
</svg>
